<svg width="256" height="256" viewBox="0 0 256 256" fill="none" xmlns="http://www.w3.org/2000/svg">
<path d="M223.665 16.6667L238.832 26.6668L223.665 36.6667" stroke="currentColor" stroke-width="6"/>
<path d="M203.833 16.6667L219 26.6668L203.833 36.6667" stroke="currentColor" stroke-width="6"/>
<path d="M181.667 16.6667L166.5 26.6668L181.667 36.6667" stroke="currentColor" stroke-width="6"/>
<path d="M201.499 16.6667L186.332 26.6668L201.499 36.6667" stroke="currentColor" stroke-width="6"/>
<path d="M148.997 16.6667L164.164 26.6668L148.997 36.6667" stroke="currentColor" stroke-width="6"/>
<path d="M129.165 16.6667L144.332 26.6668L129.165 36.6667" stroke="currentColor" stroke-width="6"/>
<path d="M107.003 16.6667L91.8359 26.6668L107.003 36.6667" stroke="currentColor" stroke-width="6"/>
<path d="M126.835 16.6667L111.668 26.6668L126.835 36.6667" stroke="currentColor" stroke-width="6"/>
<path d="M74.3333 16.6667L89.5 26.6668L74.3333 36.6667" stroke="currentColor" stroke-width="6"/>
<path d="M54.5013 16.6667L69.668 26.6668L54.5013 36.6667" stroke="currentColor" stroke-width="6"/>
<path d="M32.3346 16.6667L17.168 26.6668L32.3346 36.6667" stroke="currentColor" stroke-width="6"/>
<path d="M52.1667 16.6667L37 26.6668L52.1667 36.6667" stroke="currentColor" stroke-width="6"/>
<path d="M219.003 42L203.836 52L219.003 62" stroke="currentColor" stroke-width="6"/>
<path d="M238.835 42L223.668 52L238.835 62" stroke="currentColor" stroke-width="6"/>
<path d="M186.333 42L201.5 52L186.333 62" stroke="currentColor" stroke-width="6"/>
<path d="M166.501 42L181.668 52L166.501 62" stroke="currentColor" stroke-width="6"/>
<path d="M144.335 42L129.168 52L144.335 62" stroke="currentColor" stroke-width="6"/>
<path d="M164.167 42L149 52L164.167 62" stroke="currentColor" stroke-width="6"/>
<path d="M111.665 42L126.832 52L111.665 62" stroke="currentColor" stroke-width="6"/>
<path d="M91.8333 42L107 52L91.8333 62" stroke="currentColor" stroke-width="6"/>
<path d="M69.6667 42L54.5 52L69.6667 62" stroke="currentColor" stroke-width="6"/>
<path d="M89.4987 42L74.332 52L89.4987 62" stroke="currentColor" stroke-width="6"/>
<path d="M36.9974 42L52.1641 52L36.9974 62" stroke="currentColor" stroke-width="6"/>
<path d="M17.1654 42L32.332 52L17.1654 62" stroke="currentColor" stroke-width="6"/>
<path d="M223.665 67.3335L238.832 77.3335L223.665 87.3335" stroke="currentColor" stroke-width="6"/>
<path d="M203.833 67.3335L219 77.3335L203.833 87.3335" stroke="currentColor" stroke-width="6"/>
<path d="M181.667 67.3335L166.5 77.3335L181.667 87.3335" stroke="currentColor" stroke-width="6"/>
<path d="M201.499 67.3335L186.332 77.3335L201.499 87.3335" stroke="currentColor" stroke-width="6"/>
<path d="M148.997 67.3335L164.164 77.3335L148.997 87.3335" stroke="currentColor" stroke-width="6"/>
<path d="M129.165 67.3335L144.332 77.3335L129.165 87.3335" stroke="currentColor" stroke-width="6"/>
<path d="M107.003 67.3335L91.8359 77.3335L107.003 87.3335" stroke="currentColor" stroke-width="6"/>
<path d="M126.835 67.3335L111.668 77.3335L126.835 87.3335" stroke="currentColor" stroke-width="6"/>
<path d="M74.3333 67.3335L89.5 77.3335L74.3333 87.3335" stroke="currentColor" stroke-width="6"/>
<path d="M54.5013 67.3335L69.668 77.3335L54.5013 87.3335" stroke="currentColor" stroke-width="6"/>
<path d="M32.3346 67.3335L17.168 77.3335L32.3346 87.3335" stroke="currentColor" stroke-width="6"/>
<path d="M52.1667 67.3335L37 77.3335L52.1667 87.3335" stroke="currentColor" stroke-width="6"/>
<path d="M219.003 92.6667L203.836 102.667L219.003 112.667" stroke="currentColor" stroke-width="6"/>
<path d="M238.835 92.6667L223.668 102.667L238.835 112.667" stroke="currentColor" stroke-width="6"/>
<path d="M186.333 92.6667L201.5 102.667L186.333 112.667" stroke="currentColor" stroke-width="6"/>
<path d="M166.501 92.6667L181.668 102.667L166.501 112.667" stroke="currentColor" stroke-width="6"/>
<path d="M144.335 92.6667L129.168 102.667L144.335 112.667" stroke="currentColor" stroke-width="6"/>
<path d="M164.167 92.6667L149 102.667L164.167 112.667" stroke="currentColor" stroke-width="6"/>
<path d="M111.665 92.6667L126.832 102.667L111.665 112.667" stroke="currentColor" stroke-width="6"/>
<path d="M91.8333 92.6667L107 102.667L91.8333 112.667" stroke="currentColor" stroke-width="6"/>
<path d="M69.6667 92.6667L54.5 102.667L69.6667 112.667" stroke="currentColor" stroke-width="6"/>
<path d="M89.4987 92.6667L74.332 102.667L89.4987 112.667" stroke="currentColor" stroke-width="6"/>
<path d="M36.9974 92.6667L52.1641 102.667L36.9974 112.667" stroke="currentColor" stroke-width="6"/>
<path d="M17.1654 92.6667L32.332 102.667L17.1654 112.667" stroke="currentColor" stroke-width="6"/>
<path d="M223.665 118L238.832 128L223.665 138" stroke="currentColor" stroke-width="6"/>
<path d="M203.833 118L219 128L203.833 138" stroke="currentColor" stroke-width="6"/>
<path d="M181.667 118L166.5 128L181.667 138" stroke="currentColor" stroke-width="6"/>
<path d="M201.499 118L186.332 128L201.499 138" stroke="currentColor" stroke-width="6"/>
<path d="M148.997 118L164.164 128L148.997 138" stroke="currentColor" stroke-width="6"/>
<path d="M129.165 118L144.332 128L129.165 138" stroke="currentColor" stroke-width="6"/>
<path d="M107.003 118L91.8359 128L107.003 138" stroke="currentColor" stroke-width="6"/>
<path d="M126.835 118L111.668 128L126.835 138" stroke="currentColor" stroke-width="6"/>
<path d="M74.3333 118L89.5 128L74.3333 138" stroke="currentColor" stroke-width="6"/>
<path d="M54.5013 118L69.668 128L54.5013 138" stroke="currentColor" stroke-width="6"/>
<path d="M32.3346 118L17.168 128L32.3346 138" stroke="currentColor" stroke-width="6"/>
<path d="M52.1667 118L37 128L52.1667 138" stroke="currentColor" stroke-width="6"/>
<path d="M219.003 143.333L203.836 153.334L219.003 163.333" stroke="currentColor" stroke-width="6"/>
<path d="M238.835 143.333L223.668 153.334L238.835 163.333" stroke="currentColor" stroke-width="6"/>
<path d="M186.333 143.333L201.5 153.334L186.333 163.333" stroke="currentColor" stroke-width="6"/>
<path d="M166.501 143.333L181.668 153.334L166.501 163.333" stroke="currentColor" stroke-width="6"/>
<path d="M144.335 143.333L129.168 153.334L144.335 163.333" stroke="currentColor" stroke-width="6"/>
<path d="M164.167 143.333L149 153.334L164.167 163.333" stroke="currentColor" stroke-width="6"/>
<path d="M111.665 143.333L126.832 153.334L111.665 163.333" stroke="currentColor" stroke-width="6"/>
<path d="M91.8333 143.333L107 153.334L91.8333 163.333" stroke="currentColor" stroke-width="6"/>
<path d="M69.6667 143.333L54.5 153.334L69.6667 163.333" stroke="currentColor" stroke-width="6"/>
<path d="M89.4987 143.333L74.332 153.334L89.4987 163.333" stroke="currentColor" stroke-width="6"/>
<path d="M36.9974 143.333L52.1641 153.334L36.9974 163.333" stroke="currentColor" stroke-width="6"/>
<path d="M17.1654 143.333L32.332 153.334L17.1654 163.333" stroke="currentColor" stroke-width="6"/>
<path d="M223.665 168.667L238.832 178.667L223.665 188.667" stroke="currentColor" stroke-width="6"/>
<path d="M203.833 168.667L219 178.667L203.833 188.667" stroke="currentColor" stroke-width="6"/>
<path d="M181.667 168.667L166.5 178.667L181.667 188.667" stroke="currentColor" stroke-width="6"/>
<path d="M201.499 168.667L186.332 178.667L201.499 188.667" stroke="currentColor" stroke-width="6"/>
<path d="M148.997 168.667L164.164 178.667L148.997 188.667" stroke="currentColor" stroke-width="6"/>
<path d="M129.165 168.667L144.332 178.667L129.165 188.667" stroke="currentColor" stroke-width="6"/>
<path d="M107.003 168.667L91.8359 178.667L107.003 188.667" stroke="currentColor" stroke-width="6"/>
<path d="M126.835 168.667L111.668 178.667L126.835 188.667" stroke="currentColor" stroke-width="6"/>
<path d="M74.3333 168.667L89.5 178.667L74.3333 188.667" stroke="currentColor" stroke-width="6"/>
<path d="M54.5013 168.667L69.668 178.667L54.5013 188.667" stroke="currentColor" stroke-width="6"/>
<path d="M32.3346 168.667L17.168 178.667L32.3346 188.667" stroke="currentColor" stroke-width="6"/>
<path d="M52.1667 168.667L37 178.667L52.1667 188.667" stroke="currentColor" stroke-width="6"/>
<path d="M219.003 194L203.836 204L219.003 214" stroke="currentColor" stroke-width="6"/>
<path d="M238.835 194L223.668 204L238.835 214" stroke="currentColor" stroke-width="6"/>
<path d="M186.333 194L201.5 204L186.333 214" stroke="currentColor" stroke-width="6"/>
<path d="M166.501 194L181.668 204L166.501 214" stroke="currentColor" stroke-width="6"/>
<path d="M144.335 194L129.168 204L144.335 214" stroke="currentColor" stroke-width="6"/>
<path d="M164.167 194L149 204L164.167 214" stroke="currentColor" stroke-width="6"/>
<path d="M111.665 194L126.832 204L111.665 214" stroke="currentColor" stroke-width="6"/>
<path d="M91.8333 194L107 204L91.8333 214" stroke="currentColor" stroke-width="6"/>
<path d="M69.6667 194L54.5 204L69.6667 214" stroke="currentColor" stroke-width="6"/>
<path d="M89.4987 194L74.332 204L89.4987 214" stroke="currentColor" stroke-width="6"/>
<path d="M36.9974 194L52.1641 204L36.9974 214" stroke="currentColor" stroke-width="6"/>
<path d="M17.1654 194L32.332 204L17.1654 214" stroke="currentColor" stroke-width="6"/>
<path d="M223.665 219.333L238.832 229.334L223.665 239.333" stroke="currentColor" stroke-width="6"/>
<path d="M203.833 219.333L219 229.334L203.833 239.333" stroke="currentColor" stroke-width="6"/>
<path d="M181.667 219.333L166.5 229.334L181.667 239.333" stroke="currentColor" stroke-width="6"/>
<path d="M201.499 219.333L186.332 229.334L201.499 239.333" stroke="currentColor" stroke-width="6"/>
<path d="M148.997 219.333L164.164 229.334L148.997 239.333" stroke="currentColor" stroke-width="6"/>
<path d="M129.165 219.333L144.332 229.334L129.165 239.333" stroke="currentColor" stroke-width="6"/>
<path d="M107.003 219.333L91.8359 229.334L107.003 239.333" stroke="currentColor" stroke-width="6"/>
<path d="M126.835 219.333L111.668 229.334L126.835 239.333" stroke="currentColor" stroke-width="6"/>
<path d="M74.3333 219.333L89.5 229.334L74.3333 239.333" stroke="currentColor" stroke-width="6"/>
<path d="M54.5013 219.333L69.668 229.334L54.5013 239.333" stroke="currentColor" stroke-width="6"/>
<path d="M32.3346 219.333L17.168 229.334L32.3346 239.333" stroke="currentColor" stroke-width="6"/>
<path d="M52.1667 219.333L37 229.334L52.1667 239.333" stroke="currentColor" stroke-width="6"/>
</svg>
