<svg width="256" height="256" viewBox="0 0 256 256" fill="none" xmlns="http://www.w3.org/2000/svg">
<path d="M89.8555 182.451L90.4717 183.239L68.127 200.713L78.8223 209.077L79.8291 209.865L78.8223 210.653L68.127 219.017L90.4717 236.491L89.8555 237.279L89.2402 238.067L66.5029 220.286L56.4365 228.159L67.0908 236.491L65.8584 238.067L54.8125 229.429L43.7676 238.067L42.5352 236.491L53.1885 228.159L43.123 220.287L20.3887 238.067L19.1562 236.491L41.499 219.018L30.8037 210.653L29.7969 209.865L30.8037 209.077L41.499 200.712L19.1562 183.239L20.3887 181.663L43.123 199.442L53.1885 191.57L42.5352 183.239L43.7676 181.663L54.8125 190.301L65.8584 181.663L67.0908 183.239L56.4365 191.57L66.5029 199.443L89.2402 181.663L89.8555 182.451ZM44.7471 219.018L54.8125 226.889L64.8789 219.017L54.8135 211.146L44.7471 219.018ZM33.043 209.865L43.123 217.747L53.1904 209.875L53.1777 209.865L53.1904 209.854L43.123 201.982L33.043 209.865ZM56.4365 209.854L56.4502 209.865L56.4365 209.875L66.5029 217.747L76.582 209.865L66.5029 201.982L56.4365 209.854ZM44.7471 200.712L54.8135 208.584L64.8789 200.713L54.8125 192.841L44.7471 200.712Z" fill="currentColor"/>
<path d="M89.8555 127.951L90.4717 128.739L68.127 146.213L78.8223 154.577L79.8291 155.365L78.8223 156.153L68.127 164.517L90.4717 181.991L89.8555 182.779L89.2402 183.567L66.5029 165.786L56.4365 173.659L67.0908 181.991L65.8584 183.567L54.8125 174.929L43.7676 183.567L42.5352 181.991L53.1885 173.659L43.123 165.787L20.3887 183.567L19.1562 181.991L41.499 164.518L30.8037 156.153L29.7969 155.365L30.8037 154.577L41.499 146.212L19.1562 128.739L20.3887 127.163L43.123 144.942L53.1885 137.07L42.5352 128.739L43.7676 127.163L54.8125 135.801L65.8584 127.163L67.0908 128.739L56.4365 137.07L66.5029 144.943L89.2402 127.163L89.8555 127.951ZM44.7471 164.518L54.8125 172.389L64.8789 164.517L54.8135 156.646L44.7471 164.518ZM33.043 155.365L43.123 163.247L53.1904 155.375L53.1777 155.365L53.1904 155.354L43.123 147.482L33.043 155.365ZM56.4365 155.354L56.4502 155.365L56.4365 155.375L66.5029 163.247L76.582 155.365L66.5029 147.482L56.4365 155.354ZM44.7471 146.212L54.8135 154.084L64.8789 146.213L54.8125 138.341L44.7471 146.212Z" fill="currentColor"/>
<path d="M89.8555 73.4512L90.4717 74.2393L68.127 91.7129L78.8223 100.077L79.8291 100.865L78.8223 101.653L68.127 110.017L90.4717 127.491L89.8555 128.279L89.2402 129.067L66.5029 111.286L56.4365 119.159L67.0908 127.491L65.8584 129.067L54.8125 120.429L43.7676 129.067L42.5352 127.491L53.1885 119.159L43.123 111.287L20.3887 129.067L19.1562 127.491L41.499 110.018L30.8037 101.653L29.7969 100.865L30.8037 100.077L41.499 91.7119L19.1562 74.2393L20.3887 72.6631L43.123 90.4424L53.1885 82.5703L42.5352 74.2393L43.7676 72.6631L54.8125 81.3008L65.8584 72.6631L67.0908 74.2393L56.4365 82.5703L66.5029 90.4434L89.2402 72.6631L89.8555 73.4512ZM44.7471 110.018L54.8125 117.889L64.8789 110.017L54.8135 102.146L44.7471 110.018ZM33.043 100.865L43.123 108.747L53.1904 100.875L53.1777 100.865L53.1904 100.854L43.123 92.9824L33.043 100.865ZM56.4365 100.854L56.4502 100.865L56.4365 100.875L66.5029 108.747L76.582 100.865L66.5029 92.9824L56.4365 100.854ZM44.7471 91.7119L54.8135 99.584L64.8789 91.7129L54.8125 83.8408L44.7471 91.7119Z" fill="currentColor"/>
<path d="M89.8555 18.9512L90.4717 19.7393L68.127 37.2129L78.8223 45.5771L79.8291 46.3652L78.8223 47.1533L68.127 55.5166L90.4717 72.9912L89.8555 73.7793L89.2402 74.5674L66.5029 56.7861L56.4365 64.6592L67.0908 72.9912L65.8584 74.5674L54.8125 65.9287L43.7676 74.5674L42.5352 72.9912L53.1885 64.6592L43.123 56.7871L20.3887 74.5674L19.1562 72.9912L41.499 55.5176L30.8037 47.1533L29.7969 46.3652L30.8037 45.5771L41.499 37.2119L19.1562 19.7393L20.3887 18.1631L43.123 35.9424L53.1885 28.0703L42.5352 19.7393L43.7676 18.1631L54.8125 26.8008L65.8584 18.1631L67.0908 19.7393L56.4365 28.0703L66.5029 35.9434L89.2402 18.1631L89.8555 18.9512ZM44.7471 55.5176L54.8125 63.3887L64.8789 55.5166L54.8135 47.6455L44.7471 55.5176ZM33.043 46.3652L43.123 54.2471L53.1904 46.375L53.1777 46.3652L53.1904 46.3545L43.123 38.4824L33.043 46.3652ZM56.4365 46.3545L56.4502 46.3652L56.4365 46.375L66.5029 54.2471L76.582 46.3652L66.5029 38.4824L56.4365 46.3545ZM44.7471 37.2119L54.8135 45.084L64.8789 37.2129L54.8125 29.3408L44.7471 37.2119Z" fill="currentColor"/>
<path d="M119.19 21.6094L120.021 22.168L97.0439 56.3223L108.371 73.1602L108.746 73.7188L108.371 74.2773L97.0439 91.1143L120.021 125.27L119.19 125.828L118.361 126.387L95.8389 92.9062L85.3535 108.493L96.6396 125.27L94.9795 126.387L84.1475 110.285L73.3164 126.387L71.6562 125.27L82.9414 108.492L72.458 92.9082L49.9375 126.387L48.2773 125.27L71.252 91.1162L59.9248 74.2773L59.5498 73.7188L59.9248 73.1602L71.252 56.3203L48.2773 22.168L49.9375 21.0508L72.458 54.5283L82.9414 38.9443L71.6562 22.168L73.3164 21.0508L84.1475 37.1514L94.9795 21.0508L96.6396 22.168L85.3535 38.9434L95.8389 54.5303L118.361 21.0508L119.19 21.6094ZM73.6631 91.1162L84.1475 106.7L94.6328 91.1133L84.1494 75.5293L73.6631 91.1162ZM61.959 73.7188L72.458 89.3242L82.9434 73.7373L82.9307 73.7188L82.9434 73.6992L72.458 58.1123L61.959 73.7188ZM85.3535 73.6992L85.3672 73.7188L85.3535 73.7373L95.8379 89.3223L106.335 73.7188L95.8379 58.1143L85.3535 73.6992ZM73.6631 56.3203L84.1494 71.9072L94.6328 56.3232L84.1475 40.7363L73.6631 56.3203Z" fill="currentColor"/>
<path d="M119.19 130.609L120.021 131.168L97.0439 165.322L108.371 182.16L108.746 182.719L108.371 183.277L97.0439 200.114L120.021 234.27L119.19 234.828L118.361 235.387L95.8389 201.906L85.3535 217.493L96.6396 234.27L94.9795 235.387L84.1475 219.285L73.3164 235.387L71.6562 234.27L82.9414 217.492L72.458 201.908L49.9375 235.387L48.2773 234.27L71.252 200.116L59.9248 183.277L59.5498 182.719L59.9248 182.16L71.252 165.32L48.2773 131.168L49.9375 130.051L72.458 163.528L82.9414 147.944L71.6562 131.168L73.3164 130.051L84.1475 146.151L94.9795 130.051L96.6396 131.168L85.3535 147.943L95.8389 163.53L118.361 130.051L119.19 130.609ZM73.6631 200.116L84.1475 215.7L94.6328 200.113L84.1494 184.529L73.6631 200.116ZM61.959 182.719L72.458 198.324L82.9434 182.737L82.9307 182.719L82.9434 182.699L72.458 167.112L61.959 182.719ZM85.3535 182.699L85.3672 182.719L85.3535 182.737L95.8379 198.322L106.335 182.719L95.8379 167.114L85.3535 182.699ZM73.6631 165.32L84.1494 180.907L94.6328 165.323L84.1475 149.736L73.6631 165.32Z" fill="currentColor"/>
<path d="M148.523 182.451L149.14 183.239L126.795 200.713L137.49 209.077L138.497 209.865L137.49 210.653L126.795 219.017L149.14 236.491L148.523 237.279L147.908 238.067L125.171 220.286L115.104 228.159L125.759 236.491L124.526 238.067L113.48 229.429L102.436 238.067L101.203 236.491L111.856 228.159L101.791 220.287L79.0566 238.067L77.8242 236.491L100.167 219.018L89.4717 210.653L88.4648 209.865L89.4717 209.077L100.167 200.712L77.8242 183.239L79.0566 181.663L101.791 199.442L111.856 191.57L101.203 183.239L102.436 181.663L113.48 190.301L124.526 181.663L125.759 183.239L115.104 191.57L125.171 199.443L147.908 181.663L148.523 182.451ZM103.415 219.018L113.48 226.889L123.547 219.017L113.481 211.146L103.415 219.018ZM91.7109 209.865L101.791 217.747L111.858 209.875L111.846 209.865L111.858 209.854L101.791 201.982L91.7109 209.865ZM115.104 209.854L115.118 209.865L115.104 209.875L125.171 217.747L135.25 209.865L125.171 201.982L115.104 209.854ZM103.415 200.712L113.481 208.584L123.547 200.713L113.48 192.841L103.415 200.712Z" fill="currentColor"/>
<path d="M148.523 127.951L149.14 128.739L126.795 146.213L137.49 154.577L138.497 155.365L137.49 156.153L126.795 164.517L149.14 181.991L148.523 182.779L147.908 183.567L125.171 165.786L115.104 173.659L125.759 181.991L124.526 183.567L113.48 174.929L102.436 183.567L101.203 181.991L111.856 173.659L101.791 165.787L79.0566 183.567L77.8242 181.991L100.167 164.518L89.4717 156.153L88.4648 155.365L89.4717 154.577L100.167 146.212L77.8242 128.739L79.0566 127.163L101.791 144.942L111.856 137.07L101.203 128.739L102.436 127.163L113.48 135.801L124.526 127.163L125.759 128.739L115.104 137.07L125.171 144.943L147.908 127.163L148.523 127.951ZM103.415 164.518L113.48 172.389L123.547 164.517L113.481 156.646L103.415 164.518ZM91.7109 155.365L101.791 163.247L111.858 155.375L111.846 155.365L111.858 155.354L101.791 147.482L91.7109 155.365ZM115.104 155.354L115.118 155.365L115.104 155.375L125.171 163.247L135.25 155.365L125.171 147.482L115.104 155.354ZM103.415 146.212L113.481 154.084L123.547 146.213L113.48 138.341L103.415 146.212Z" fill="currentColor"/>
<path d="M148.523 73.4512L149.14 74.2393L126.795 91.7129L137.49 100.077L138.497 100.865L137.49 101.653L126.795 110.017L149.14 127.491L148.523 128.279L147.908 129.067L125.171 111.286L115.104 119.159L125.759 127.491L124.526 129.067L113.48 120.429L102.436 129.067L101.203 127.491L111.856 119.159L101.791 111.287L79.0566 129.067L77.8242 127.491L100.167 110.018L89.4717 101.653L88.4648 100.865L89.4717 100.077L100.167 91.7119L77.8242 74.2393L79.0566 72.6631L101.791 90.4424L111.856 82.5703L101.203 74.2393L102.436 72.6631L113.48 81.3008L124.526 72.6631L125.759 74.2393L115.104 82.5703L125.171 90.4434L147.908 72.6631L148.523 73.4512ZM103.415 110.018L113.48 117.889L123.547 110.017L113.481 102.146L103.415 110.018ZM91.7109 100.865L101.791 108.747L111.858 100.875L111.846 100.865L111.858 100.854L101.791 92.9824L91.7109 100.865ZM115.104 100.854L115.118 100.865L115.104 100.875L125.171 108.747L135.25 100.865L125.171 92.9824L115.104 100.854ZM103.415 91.7119L113.481 99.584L123.547 91.7129L113.48 83.8408L103.415 91.7119Z" fill="currentColor"/>
<path d="M148.523 18.9512L149.14 19.7393L126.795 37.2129L137.49 45.5771L138.497 46.3652L137.49 47.1533L126.795 55.5166L149.14 72.9912L148.523 73.7793L147.908 74.5674L125.171 56.7861L115.104 64.6592L125.759 72.9912L124.526 74.5674L113.48 65.9287L102.436 74.5674L101.203 72.9912L111.856 64.6592L101.791 56.7871L79.0566 74.5674L77.8242 72.9912L100.167 55.5176L89.4717 47.1533L88.4648 46.3652L89.4717 45.5771L100.167 37.2119L77.8242 19.7393L79.0566 18.1631L101.791 35.9424L111.856 28.0703L101.203 19.7393L102.436 18.1631L113.48 26.8008L124.526 18.1631L125.759 19.7393L115.104 28.0703L125.171 35.9434L147.908 18.1631L148.523 18.9512ZM103.415 55.5176L113.48 63.3887L123.547 55.5166L113.481 47.6455L103.415 55.5176ZM91.7109 46.3652L101.791 54.2471L111.858 46.375L111.846 46.3652L111.858 46.3545L101.791 38.4824L91.7109 46.3652ZM115.104 46.3545L115.118 46.3652L115.104 46.375L125.171 54.2471L135.25 46.3652L125.171 38.4824L115.104 46.3545ZM103.415 37.2119L113.481 45.084L123.547 37.2129L113.48 29.3408L103.415 37.2119Z" fill="currentColor"/>
<path d="M177.854 21.6094L178.685 22.168L155.708 56.3223L167.035 73.1602L167.41 73.7188L167.035 74.2773L155.708 91.1143L178.685 125.27L177.854 125.828L177.025 126.387L154.503 92.9062L144.018 108.493L155.304 125.27L153.644 126.387L142.812 110.285L131.98 126.387L130.32 125.27L141.605 108.492L131.122 92.9082L108.602 126.387L106.941 125.27L129.916 91.1162L118.589 74.2773L118.214 73.7188L118.589 73.1602L129.916 56.3203L106.941 22.168L108.602 21.0508L131.122 54.5283L141.605 38.9443L130.32 22.168L131.98 21.0508L142.812 37.1514L153.644 21.0508L155.304 22.168L144.018 38.9434L154.503 54.5303L177.025 21.0508L177.854 21.6094ZM132.327 91.1162L142.812 106.7L153.297 91.1133L142.813 75.5293L132.327 91.1162ZM120.623 73.7188L131.122 89.3242L141.607 73.7373L141.595 73.7188L141.607 73.6992L131.122 58.1123L120.623 73.7188ZM144.018 73.6992L144.031 73.7188L144.018 73.7373L154.502 89.3223L164.999 73.7188L154.502 58.1143L144.018 73.6992ZM132.327 56.3203L142.813 71.9072L153.297 56.3232L142.812 40.7363L132.327 56.3203Z" fill="currentColor"/>
<path d="M177.854 130.609L178.685 131.168L155.708 165.322L167.035 182.16L167.41 182.719L167.035 183.277L155.708 200.114L178.685 234.27L177.854 234.828L177.025 235.387L154.503 201.906L144.018 217.493L155.304 234.27L153.644 235.387L142.812 219.285L131.98 235.387L130.32 234.27L141.605 217.492L131.122 201.908L108.602 235.387L106.941 234.27L129.916 200.116L118.589 183.277L118.214 182.719L118.589 182.16L129.916 165.32L106.941 131.168L108.602 130.051L131.122 163.528L141.605 147.944L130.32 131.168L131.98 130.051L142.812 146.151L153.644 130.051L155.304 131.168L144.018 147.943L154.503 163.53L177.025 130.051L177.854 130.609ZM132.327 200.116L142.812 215.7L153.297 200.113L142.813 184.529L132.327 200.116ZM120.623 182.719L131.122 198.324L141.607 182.737L141.595 182.719L141.607 182.699L131.122 167.112L120.623 182.719ZM144.018 182.699L144.031 182.719L144.018 182.737L154.502 198.322L164.999 182.719L154.502 167.114L144.018 182.699ZM132.327 165.32L142.813 180.907L153.297 165.323L142.812 149.736L132.327 165.32Z" fill="currentColor"/>
<path d="M207.191 182.451L207.808 183.239L185.463 200.713L196.158 209.077L197.165 209.865L196.158 210.653L185.463 219.017L207.808 236.491L207.191 237.279L206.576 238.067L183.839 220.286L173.772 228.159L184.427 236.491L183.194 238.067L172.148 229.429L161.104 238.067L159.871 236.491L170.524 228.159L160.459 220.287L137.725 238.067L136.492 236.491L158.835 219.018L148.14 210.653L147.133 209.865L148.14 209.077L158.835 200.712L136.492 183.239L137.725 181.663L160.459 199.442L170.524 191.57L159.871 183.239L161.104 181.663L172.148 190.301L183.194 181.663L184.427 183.239L173.772 191.57L183.839 199.443L206.576 181.663L207.191 182.451ZM162.083 219.018L172.148 226.889L182.215 219.017L172.149 211.146L162.083 219.018ZM150.379 209.865L160.459 217.747L170.526 209.875L170.514 209.865L170.526 209.854L160.459 201.982L150.379 209.865ZM173.772 209.854L173.786 209.865L173.772 209.875L183.839 217.747L193.918 209.865L183.839 201.982L173.772 209.854ZM162.083 200.712L172.149 208.584L182.215 200.713L172.148 192.841L162.083 200.712Z" fill="currentColor"/>
<path d="M207.191 127.951L207.808 128.739L185.463 146.213L196.158 154.577L197.165 155.365L196.158 156.153L185.463 164.517L207.808 181.991L207.191 182.779L206.576 183.567L183.839 165.786L173.772 173.659L184.427 181.991L183.194 183.567L172.148 174.929L161.104 183.567L159.871 181.991L170.524 173.659L160.459 165.787L137.725 183.567L136.492 181.991L158.835 164.518L148.14 156.153L147.133 155.365L148.14 154.577L158.835 146.212L136.492 128.739L137.725 127.163L160.459 144.942L170.524 137.07L159.871 128.739L161.104 127.163L172.148 135.801L183.194 127.163L184.427 128.739L173.772 137.07L183.839 144.943L206.576 127.163L207.191 127.951ZM162.083 164.518L172.148 172.389L182.215 164.517L172.149 156.646L162.083 164.518ZM150.379 155.365L160.459 163.247L170.526 155.375L170.514 155.365L170.526 155.354L160.459 147.482L150.379 155.365ZM173.772 155.354L173.786 155.365L173.772 155.375L183.839 163.247L193.918 155.365L183.839 147.482L173.772 155.354ZM162.083 146.212L172.149 154.084L182.215 146.213L172.148 138.341L162.083 146.212Z" fill="currentColor"/>
<path d="M207.191 73.4512L207.808 74.2393L185.463 91.7129L196.158 100.077L197.165 100.865L196.158 101.653L185.463 110.017L207.808 127.491L207.191 128.279L206.576 129.067L183.839 111.286L173.772 119.159L184.427 127.491L183.194 129.067L172.148 120.429L161.104 129.067L159.871 127.491L170.524 119.159L160.459 111.287L137.725 129.067L136.492 127.491L158.835 110.018L148.14 101.653L147.133 100.865L148.14 100.077L158.835 91.7119L136.492 74.2393L137.725 72.6631L160.459 90.4424L170.524 82.5703L159.871 74.2393L161.104 72.6631L172.148 81.3008L183.194 72.6631L184.427 74.2393L173.772 82.5703L183.839 90.4434L206.576 72.6631L207.191 73.4512ZM162.083 110.018L172.148 117.889L182.215 110.017L172.149 102.146L162.083 110.018ZM150.379 100.865L160.459 108.747L170.526 100.875L170.514 100.865L170.526 100.854L160.459 92.9824L150.379 100.865ZM173.772 100.854L173.786 100.865L173.772 100.875L183.839 108.747L193.918 100.865L183.839 92.9824L173.772 100.854ZM162.083 91.7119L172.149 99.584L182.215 91.7129L172.148 83.8408L162.083 91.7119Z" fill="currentColor"/>
<path d="M207.191 18.9512L207.808 19.7393L185.463 37.2129L196.158 45.5771L197.165 46.3652L196.158 47.1533L185.463 55.5166L207.808 72.9912L207.191 73.7793L206.576 74.5674L183.839 56.7861L173.772 64.6592L184.427 72.9912L183.194 74.5674L172.148 65.9287L161.104 74.5674L159.871 72.9912L170.524 64.6592L160.459 56.7871L137.725 74.5674L136.492 72.9912L158.835 55.5176L148.14 47.1533L147.133 46.3652L148.14 45.5771L158.835 37.2119L136.492 19.7393L137.725 18.1631L160.459 35.9424L170.524 28.0703L159.871 19.7393L161.104 18.1631L172.148 26.8008L183.194 18.1631L184.427 19.7393L173.772 28.0703L183.839 35.9434L206.576 18.1631L207.191 18.9512ZM162.083 55.5176L172.148 63.3887L182.215 55.5166L172.149 47.6455L162.083 55.5176ZM150.379 46.3652L160.459 54.2471L170.526 46.375L170.514 46.3652L170.526 46.3545L160.459 38.4824L150.379 46.3652ZM173.772 46.3545L173.786 46.3652L173.772 46.375L183.839 54.2471L193.918 46.3652L183.839 38.4824L173.772 46.3545ZM162.083 37.2119L172.149 45.084L182.215 37.2129L172.148 29.3408L162.083 37.2119Z" fill="currentColor"/>
<path d="M236.522 21.6094L237.353 22.168L214.376 56.3223L225.703 73.1602L226.078 73.7188L225.703 74.2773L214.376 91.1143L237.353 125.27L236.522 125.828L235.693 126.387L213.171 92.9062L202.686 108.493L213.972 125.27L212.312 126.387L201.479 110.285L190.648 126.387L188.988 125.27L200.273 108.492L189.79 92.9082L167.27 126.387L165.609 125.27L188.584 91.1162L177.257 74.2773L176.882 73.7188L177.257 73.1602L188.584 56.3203L165.609 22.168L167.27 21.0508L189.79 54.5283L200.273 38.9443L188.988 22.168L190.648 21.0508L201.479 37.1514L212.312 21.0508L213.972 22.168L202.686 38.9434L213.171 54.5303L235.693 21.0508L236.522 21.6094ZM190.995 91.1162L201.479 106.7L211.965 91.1133L201.481 75.5293L190.995 91.1162ZM179.291 73.7188L189.79 89.3242L200.275 73.7373L200.263 73.7188L200.275 73.6992L189.79 58.1123L179.291 73.7188ZM202.686 73.6992L202.699 73.7188L202.686 73.7373L213.17 89.3223L223.667 73.7188L213.17 58.1143L202.686 73.6992ZM190.995 56.3203L201.481 71.9072L211.965 56.3232L201.479 40.7363L190.995 56.3203Z" fill="currentColor"/>
<path d="M236.522 130.609L237.353 131.168L214.376 165.322L225.703 182.16L226.078 182.719L225.703 183.277L214.376 200.114L237.353 234.27L236.522 234.828L235.693 235.387L213.171 201.906L202.686 217.493L213.972 234.27L212.312 235.387L201.479 219.285L190.648 235.387L188.988 234.27L200.273 217.492L189.79 201.908L167.27 235.387L165.609 234.27L188.584 200.116L177.257 183.277L176.882 182.719L177.257 182.16L188.584 165.32L165.609 131.168L167.27 130.051L189.79 163.528L200.273 147.944L188.988 131.168L190.648 130.051L201.479 146.151L212.312 130.051L213.972 131.168L202.686 147.943L213.171 163.53L235.693 130.051L236.522 130.609ZM190.995 200.116L201.479 215.7L211.965 200.113L201.481 184.529L190.995 200.116ZM179.291 182.719L189.79 198.324L200.275 182.737L200.263 182.719L200.275 182.699L189.79 167.112L179.291 182.719ZM202.686 182.699L202.699 182.719L202.686 182.737L213.17 198.322L223.667 182.719L213.17 167.114L202.686 182.699ZM190.995 165.32L201.481 180.907L211.965 165.323L201.479 149.736L190.995 165.32Z" fill="currentColor"/>
</svg>
