<svg width="256" height="256" viewBox="0 0 256 256" fill="none" xmlns="http://www.w3.org/2000/svg">
<path d="M31.3333 31.8444L16 39.2556L31.3333 46.6667M46.6667 16L31.3333 31.3333L46.6667 46.6667" stroke="currentColor" stroke-width="6"/>
<path d="M69.9987 30.8223L85.332 23.4112L69.9987 16.0001M54.6654 46.6667L69.9987 31.3334L54.6654 16.0001" stroke="currentColor" stroke-width="6"/>
<path d="M108.665 31.8444L93.332 39.2556L108.665 46.6667M123.999 16L108.665 31.3333L123.999 46.6667" stroke="currentColor" stroke-width="6"/>
<path d="M147.335 30.8223L162.668 23.4112L147.335 16.0001M132.001 46.6667L147.335 31.3334L132.001 16.0001" stroke="currentColor" stroke-width="6"/>
<path d="M186.001 31.8444L170.668 39.2556L186.001 46.6667M201.335 16L186.001 31.3333L201.335 46.6667" stroke="currentColor" stroke-width="6"/>
<path d="M224.667 30.8223L240 23.4112L224.667 16.0001M209.333 46.6667L224.667 31.3334L209.333 16.0001" stroke="currentColor" stroke-width="6"/>
<path d="M31.3346 69.4888L46.668 62.0777L31.3346 54.6666M16.0013 85.3333L31.3346 69.9999L16.0013 54.6666" stroke="currentColor" stroke-width="6"/>
<path d="M70.0013 70.5109L54.668 77.9221L70.0013 85.3332M85.3346 54.6665L70.0013 69.9998L85.3346 85.3332" stroke="currentColor" stroke-width="6"/>
<path d="M108.667 69.4888L124 62.0777L108.667 54.6666M93.3333 85.3333L108.667 69.9999L93.3333 54.6666" stroke="currentColor" stroke-width="6"/>
<path d="M147.333 70.5109L132 77.9221L147.333 85.3332M162.667 54.6665L147.333 69.9998L162.667 85.3332" stroke="currentColor" stroke-width="6"/>
<path d="M185.999 69.4888L201.332 62.0777L185.999 54.6666M170.665 85.3333L185.999 69.9999L170.665 54.6666" stroke="currentColor" stroke-width="6"/>
<path d="M224.665 70.5109L209.332 77.9221L224.665 85.3332M239.999 54.6665L224.665 69.9998L239.999 85.3332" stroke="currentColor" stroke-width="6"/>
<path d="M31.3333 109.178L16 116.589L31.3333 124M46.6667 93.3333L31.3333 108.667L46.6667 124" stroke="currentColor" stroke-width="6"/>
<path d="M69.9987 108.156L85.332 100.744L69.9987 93.3333M54.6654 124L69.9987 108.667L54.6654 93.3333" stroke="currentColor" stroke-width="6"/>
<path d="M108.665 109.178L93.332 116.589L108.665 124M123.999 93.3333L108.665 108.667L123.999 124" stroke="currentColor" stroke-width="6"/>
<path d="M147.335 108.156L162.668 100.744L147.335 93.3333M132.001 124L147.335 108.667L132.001 93.3333" stroke="currentColor" stroke-width="6"/>
<path d="M186.001 109.178L170.668 116.589L186.001 124M201.335 93.3333L186.001 108.667L201.335 124" stroke="currentColor" stroke-width="6"/>
<path d="M224.667 108.156L240 100.744L224.667 93.3333M209.333 124L224.667 108.667L209.333 93.3333" stroke="currentColor" stroke-width="6"/>
<path d="M31.3346 146.822L46.668 139.411L31.3346 132M16.0013 162.667L31.3346 147.333L16.0013 132" stroke="currentColor" stroke-width="6"/>
<path d="M70.0013 147.844L54.668 155.256L70.0013 162.667M85.3346 132L70.0013 147.333L85.3346 162.667" stroke="currentColor" stroke-width="6"/>
<path d="M108.667 146.822L124 139.411L108.667 132M93.3333 162.667L108.667 147.333L93.3333 132" stroke="currentColor" stroke-width="6"/>
<path d="M147.333 147.844L132 155.256L147.333 162.667M162.667 132L147.333 147.333L162.667 162.667" stroke="currentColor" stroke-width="6"/>
<path d="M185.999 146.822L201.332 139.411L185.999 132M170.665 162.667L185.999 147.333L170.665 132" stroke="currentColor" stroke-width="6"/>
<path d="M224.665 147.844L209.332 155.256L224.665 162.667M239.999 132L224.665 147.333L239.999 162.667" stroke="currentColor" stroke-width="6"/>
<path d="M31.3333 186.511L16 193.922L31.3333 201.333M46.6667 170.667L31.3333 186L46.6667 201.333" stroke="currentColor" stroke-width="6"/>
<path d="M69.9987 185.489L85.332 178.078L69.9987 170.667M54.6654 201.333L69.9987 186L54.6654 170.667" stroke="currentColor" stroke-width="6"/>
<path d="M108.665 186.511L93.332 193.922L108.665 201.333M123.999 170.667L108.665 186L123.999 201.333" stroke="currentColor" stroke-width="6"/>
<path d="M147.335 185.489L162.668 178.078L147.335 170.667M132.001 201.333L147.335 186L132.001 170.667" stroke="currentColor" stroke-width="6"/>
<path d="M186.001 186.511L170.668 193.922L186.001 201.333M201.335 170.667L186.001 186L201.335 201.333" stroke="currentColor" stroke-width="6"/>
<path d="M224.667 185.489L240 178.078L224.667 170.667M209.333 201.333L224.667 186L209.333 170.667" stroke="currentColor" stroke-width="6"/>
<path d="M31.3346 224.156L46.668 216.744L31.3346 209.333M16.0013 240L31.3346 224.667L16.0013 209.333" stroke="currentColor" stroke-width="6"/>
<path d="M70.0013 225.178L54.668 232.589L70.0013 240M85.3346 209.333L70.0013 224.667L85.3346 240" stroke="currentColor" stroke-width="6"/>
<path d="M108.667 224.156L124 216.744L108.667 209.333M93.3333 240L108.667 224.667L93.3333 209.333" stroke="currentColor" stroke-width="6"/>
<path d="M147.333 225.178L132 232.589L147.333 240M162.667 209.333L147.333 224.667L162.667 240" stroke="currentColor" stroke-width="6"/>
<path d="M185.999 224.156L201.332 216.744L185.999 209.333M170.665 240L185.999 224.667L170.665 209.333" stroke="currentColor" stroke-width="6"/>
<path d="M224.665 225.178L209.332 232.589L224.665 240M239.999 209.333L224.665 224.667L239.999 240" stroke="currentColor" stroke-width="6"/>
</svg>
