<svg width="256" height="256" viewBox="0 0 256 256" fill="none" xmlns="http://www.w3.org/2000/svg">
<rect x="232.332" y="44.7998" width="15.3333" height="19.2" transform="rotate(180 232.332 44.7998)" stroke="currentColor" stroke-width="4"/>
<path d="M209.332 44.7998H232.332V15.9998" stroke="currentColor" stroke-width="4"/>
<rect x="240" y="54.3975" width="30.6623" height="38.3974" transform="rotate(180 240 54.3975)" stroke="currentColor" stroke-width="4"/>
<path d="M232.333 54.3999V44.7999H240" stroke="currentColor" stroke-width="4"/>
<rect x="178.336" y="25.6001" width="15.3333" height="19.2" stroke="currentColor" stroke-width="4"/>
<path d="M201.336 25.6001H178.336V54.4001" stroke="currentColor" stroke-width="4"/>
<rect x="170.668" y="16.0024" width="30.6623" height="38.3974" stroke="currentColor" stroke-width="4"/>
<path d="M178.335 16V25.6H170.668" stroke="currentColor" stroke-width="4"/>
<rect x="155" y="44.7998" width="15.3333" height="19.2" transform="rotate(180 155 44.7998)" stroke="currentColor" stroke-width="4"/>
<path d="M132 44.7998H155V15.9998" stroke="currentColor" stroke-width="4"/>
<rect x="162.668" y="54.3975" width="30.6623" height="38.3974" transform="rotate(180 162.668 54.3975)" stroke="currentColor" stroke-width="4"/>
<path d="M155.001 54.3999V44.7999H162.668" stroke="currentColor" stroke-width="4"/>
<rect x="116.332" y="44.7998" width="15.3333" height="19.2" transform="rotate(180 116.332 44.7998)" stroke="currentColor" stroke-width="4"/>
<path d="M93.332 44.7998H116.332V15.9998" stroke="currentColor" stroke-width="4"/>
<rect x="124" y="54.3975" width="30.6623" height="38.3974" transform="rotate(180 124 54.3975)" stroke="currentColor" stroke-width="4"/>
<path d="M116.333 54.3999V44.7999H124" stroke="currentColor" stroke-width="4"/>
<rect x="62.3359" y="25.6001" width="15.3333" height="19.2" stroke="currentColor" stroke-width="4"/>
<path d="M85.3359 25.6001H62.3359V54.4001" stroke="currentColor" stroke-width="4"/>
<rect x="54.668" y="16.0024" width="30.6623" height="38.3974" stroke="currentColor" stroke-width="4"/>
<path d="M62.3346 16V25.6H54.668" stroke="currentColor" stroke-width="4"/>
<rect x="39" y="44.7998" width="15.3333" height="19.2" transform="rotate(180 39 44.7998)" stroke="currentColor" stroke-width="4"/>
<path d="M16 44.7998H39V15.9998" stroke="currentColor" stroke-width="4"/>
<rect x="46.668" y="54.3975" width="30.6623" height="38.3974" transform="rotate(180 46.668 54.3975)" stroke="currentColor" stroke-width="4"/>
<path d="M39.0013 54.3999V44.7999H46.668" stroke="currentColor" stroke-width="4"/>
<rect x="22.2852" y="72.0002" width="12.5714" height="19.2" stroke="currentColor" stroke-width="4"/>
<path d="M41.1445 72.0002H22.2874V100.8" stroke="currentColor" stroke-width="4"/>
<rect x="16" y="62.4026" width="25.1393" height="38.3974" stroke="currentColor" stroke-width="4"/>
<path d="M22.2857 62.4001V72.0001H16" stroke="currentColor" stroke-width="4"/>
<rect x="55.4297" y="72.0002" width="12.5714" height="19.2" stroke="currentColor" stroke-width="4"/>
<path d="M74.2891 72.0002H55.4319V100.8" stroke="currentColor" stroke-width="4"/>
<rect x="49.1445" y="62.4026" width="25.1393" height="38.3974" stroke="currentColor" stroke-width="4"/>
<path d="M55.4302 62.4001V72.0001H49.1445" stroke="currentColor" stroke-width="4"/>
<rect x="88.5703" y="72.0002" width="12.5714" height="19.2" stroke="currentColor" stroke-width="4"/>
<path d="M107.43 72.0002H88.5725V100.8" stroke="currentColor" stroke-width="4"/>
<rect x="82.2852" y="62.4026" width="25.1393" height="38.3974" stroke="currentColor" stroke-width="4"/>
<path d="M88.5709 62.4001V72.0001H82.2852" stroke="currentColor" stroke-width="4"/>
<rect x="134.285" y="91.2" width="12.5714" height="19.2" transform="rotate(180 134.285 91.2)" stroke="currentColor" stroke-width="4"/>
<path d="M115.426 91.2H134.283V62.4" stroke="currentColor" stroke-width="4"/>
<rect x="140.57" y="100.798" width="25.1393" height="38.3974" transform="rotate(180 140.57 100.798)" stroke="currentColor" stroke-width="4"/>
<path d="M134.285 100.8V91.2H140.57" stroke="currentColor" stroke-width="4"/>
<rect x="154.855" y="72.0002" width="12.5714" height="19.2" stroke="currentColor" stroke-width="4"/>
<path d="M173.715 72.0002H154.858V100.8" stroke="currentColor" stroke-width="4"/>
<rect x="148.57" y="62.4026" width="25.1393" height="38.3974" stroke="currentColor" stroke-width="4"/>
<path d="M154.856 62.4001V72.0001H148.57" stroke="currentColor" stroke-width="4"/>
<rect x="188" y="72.0002" width="12.5714" height="19.2" stroke="currentColor" stroke-width="4"/>
<path d="M206.859 72.0002H188.002V100.8" stroke="currentColor" stroke-width="4"/>
<rect x="181.715" y="62.4026" width="25.1393" height="38.3974" stroke="currentColor" stroke-width="4"/>
<path d="M188.001 62.4001V72.0001H181.715" stroke="currentColor" stroke-width="4"/>
<rect x="233.715" y="91.2" width="12.5714" height="19.2" transform="rotate(180 233.715 91.2)" stroke="currentColor" stroke-width="4"/>
<path d="M214.855 91.2H233.713V62.4" stroke="currentColor" stroke-width="4"/>
<rect x="240" y="100.798" width="25.1393" height="38.3974" transform="rotate(180 240 100.798)" stroke="currentColor" stroke-width="4"/>
<path d="M233.714 100.8V91.2H240" stroke="currentColor" stroke-width="4"/>
<rect x="44.7969" y="137.6" width="19.2" height="19.2" transform="rotate(180 44.7969 137.6)" stroke="currentColor" stroke-width="4"/>
<path d="M16 137.6H44.8V108.8" stroke="currentColor" stroke-width="4"/>
<rect x="54.3984" y="147.198" width="38.3946" height="38.3974" transform="rotate(180 54.3984 147.198)" stroke="currentColor" stroke-width="4"/>
<path d="M44.7984 147.2V137.6H54.3984" stroke="currentColor" stroke-width="4"/>
<rect x="72" y="118.4" width="19.2" height="19.2" stroke="currentColor" stroke-width="4"/>
<path d="M100.797 118.4H71.9969V147.2" stroke="currentColor" stroke-width="4"/>
<rect x="62.3984" y="108.802" width="38.3946" height="38.3974" stroke="currentColor" stroke-width="4"/>
<path d="M71.9984 108.8V118.4H62.3984" stroke="currentColor" stroke-width="4"/>
<rect x="137.598" y="137.6" width="19.2" height="19.2" transform="rotate(180 137.598 137.6)" stroke="currentColor" stroke-width="4"/>
<path d="M108.801 137.6H137.601V108.8" stroke="currentColor" stroke-width="4"/>
<rect x="147.199" y="147.198" width="38.3946" height="38.3974" transform="rotate(180 147.199 147.198)" stroke="currentColor" stroke-width="4"/>
<path d="M137.599 147.2V137.6H147.199" stroke="currentColor" stroke-width="4"/>
<rect x="164.801" y="118.4" width="19.2" height="19.2" stroke="currentColor" stroke-width="4"/>
<path d="M193.598 118.4H164.798V147.2" stroke="currentColor" stroke-width="4"/>
<rect x="155.199" y="108.802" width="38.3946" height="38.3974" stroke="currentColor" stroke-width="4"/>
<path d="M164.799 108.8V118.4H155.199" stroke="currentColor" stroke-width="4"/>
<rect x="230.398" y="137.6" width="19.2" height="19.2" transform="rotate(180 230.398 137.6)" stroke="currentColor" stroke-width="4"/>
<path d="M201.602 137.6H230.402V108.8" stroke="currentColor" stroke-width="4"/>
<rect x="240" y="147.198" width="38.3946" height="38.3974" transform="rotate(180 240 147.198)" stroke="currentColor" stroke-width="4"/>
<path d="M230.4 147.2V137.6H240" stroke="currentColor" stroke-width="4"/>
<rect width="34.6667" height="19.2" transform="matrix(1 0 0 -1 188 184)" stroke="currentColor" stroke-width="4"/>
<path d="M240 184H188V155.2" stroke="currentColor" stroke-width="4"/>
<rect width="69.3236" height="38.3974" transform="matrix(1 0 0 -1 170.668 193.598)" stroke="currentColor" stroke-width="4"/>
<path d="M188.001 193.6V184H170.668" stroke="currentColor" stroke-width="4"/>
<rect width="34.6667" height="19.2" transform="matrix(-1 0 0 1 145.336 164.8)" stroke="currentColor" stroke-width="4"/>
<path d="M93.3359 164.8H145.336V193.6" stroke="currentColor" stroke-width="4"/>
<rect width="69.3236" height="38.3974" transform="matrix(-1 0 0 1 162.668 155.203)" stroke="currentColor" stroke-width="4"/>
<path d="M145.335 155.2V164.8H162.668" stroke="currentColor" stroke-width="4"/>
<rect width="34.6667" height="19.2" transform="matrix(-1 0 0 1 68 164.8)" stroke="currentColor" stroke-width="4"/>
<path d="M16 164.8H68V193.6" stroke="currentColor" stroke-width="4"/>
<rect width="69.3236" height="38.3974" transform="matrix(-1 0 0 1 85.332 155.203)" stroke="currentColor" stroke-width="4"/>
<path d="M67.9987 155.2V164.8H85.332" stroke="currentColor" stroke-width="4"/>
<rect width="112" height="19.2" transform="matrix(1 0 0 -1 72 230.4)" stroke="currentColor" stroke-width="4"/>
<path d="M240 230.4H72V201.6" stroke="currentColor" stroke-width="4"/>
<rect width="223.968" height="38.3974" transform="matrix(1 0 0 -1 16 239.998)" stroke="currentColor" stroke-width="4"/>
<path d="M72 240V230.4H16" stroke="currentColor" stroke-width="4"/>
</svg>
