<svg width="256" height="256" viewBox="0 0 256 256" fill="none" xmlns="http://www.w3.org/2000/svg">
<path d="M64.3697 16L28.543 64L64.3697 112" stroke="currentColor" stroke-width="6"/>
<path d="M88.0025 16L52.1758 64L88.0025 112" stroke="currentColor" stroke-width="6"/>
<path d="M39.6303 16L75.457 64L39.6303 112" stroke="currentColor" stroke-width="6"/>
<path d="M15.9975 16L51.8242 64L15.9975 112" stroke="currentColor" stroke-width="6"/>
<path d="M140.37 16L104.543 64L140.37 112" stroke="currentColor" stroke-width="6"/>
<path d="M164.003 16L128.176 64L164.003 112" stroke="currentColor" stroke-width="6"/>
<path d="M115.63 16L151.457 64L115.63 112" stroke="currentColor" stroke-width="6"/>
<path d="M91.9975 16L127.824 64L91.9975 112" stroke="currentColor" stroke-width="6"/>
<path d="M216.37 16L180.543 64L216.37 112" stroke="currentColor" stroke-width="6"/>
<path d="M240.003 16L204.176 64L240.003 112" stroke="currentColor" stroke-width="6"/>
<path d="M191.63 16L227.457 64L191.63 112" stroke="currentColor" stroke-width="6"/>
<path d="M167.997 16L203.824 64L167.997 112" stroke="currentColor" stroke-width="6"/>
<path d="M64.3697 80L28.543 128L64.3697 176" stroke="currentColor" stroke-width="6"/>
<path d="M88.0025 80L52.1758 128L88.0025 176" stroke="currentColor" stroke-width="6"/>
<path d="M39.6303 80L75.457 128L39.6303 176" stroke="currentColor" stroke-width="6"/>
<path d="M15.9975 80L51.8242 128L15.9975 176" stroke="currentColor" stroke-width="6"/>
<path d="M140.37 80L104.543 128L140.37 176" stroke="currentColor" stroke-width="6"/>
<path d="M164.003 80L128.176 128L164.003 176" stroke="currentColor" stroke-width="6"/>
<path d="M115.63 80L151.457 128L115.63 176" stroke="currentColor" stroke-width="6"/>
<path d="M91.9975 80L127.824 128L91.9975 176" stroke="currentColor" stroke-width="6"/>
<path d="M216.37 80L180.543 128L216.37 176" stroke="currentColor" stroke-width="6"/>
<path d="M240.003 80L204.176 128L240.003 176" stroke="currentColor" stroke-width="6"/>
<path d="M191.63 80L227.457 128L191.63 176" stroke="currentColor" stroke-width="6"/>
<path d="M167.997 80L203.824 128L167.997 176" stroke="currentColor" stroke-width="6"/>
<path d="M64.3697 144L28.543 192L64.3697 240" stroke="currentColor" stroke-width="6"/>
<path d="M88.0025 144L52.1758 192L88.0025 240" stroke="currentColor" stroke-width="6"/>
<path d="M39.6303 144L75.457 192L39.6303 240" stroke="currentColor" stroke-width="6"/>
<path d="M15.9975 144L51.8242 192L15.9975 240" stroke="currentColor" stroke-width="6"/>
<path d="M140.37 144L104.543 192L140.37 240" stroke="currentColor" stroke-width="6"/>
<path d="M164.003 144L128.176 192L164.003 240" stroke="currentColor" stroke-width="6"/>
<path d="M115.63 144L151.457 192L115.63 240" stroke="currentColor" stroke-width="6"/>
<path d="M91.9975 144L127.824 192L91.9975 240" stroke="currentColor" stroke-width="6"/>
<path d="M216.37 144L180.543 192L216.37 240" stroke="currentColor" stroke-width="6"/>
<path d="M240.003 144L204.176 192L240.003 240" stroke="currentColor" stroke-width="6"/>
<path d="M191.63 144L227.457 192L191.63 240" stroke="currentColor" stroke-width="6"/>
<path d="M167.997 144L203.824 192L167.997 240" stroke="currentColor" stroke-width="6"/>
</svg>
