<svg width="256" height="256" viewBox="0 0 256 256" fill="none" xmlns="http://www.w3.org/2000/svg">
<rect width="23.5755" height="23.5755" transform="matrix(0.791781 -0.610805 0.791781 0.610805 146.668 44.8)" stroke="currentColor" stroke-width="2"/>
<path d="M174.668 23.2L146.668 44.8L174.668 66.3999" stroke="currentColor" stroke-width="2"/>
<rect width="47.1442" height="47.1478" transform="matrix(0.791781 -0.610805 0.791781 0.610805 128.004 44.802)" stroke="currentColor" stroke-width="2"/>
<path d="M137.333 37.6L146.667 44.8L137.333 52" stroke="currentColor" stroke-width="2"/>
<rect width="23.5755" height="23.5755" transform="matrix(-0.791781 0.610805 -0.791781 -0.610805 221.332 44.8)" stroke="currentColor" stroke-width="2"/>
<path d="M193.332 66.4001L221.332 44.8001L193.332 23.2001" stroke="currentColor" stroke-width="2"/>
<rect width="47.1442" height="47.1478" transform="matrix(-0.791781 0.610805 -0.791781 -0.610805 239.996 44.7981)" stroke="currentColor" stroke-width="2"/>
<path d="M230.667 52L221.333 44.8L230.667 37.6" stroke="currentColor" stroke-width="2"/>
<rect width="23.5755" height="23.5755" transform="matrix(0.791781 -0.610805 0.791781 0.610805 34.668 44.8)" stroke="currentColor" stroke-width="2"/>
<path d="M62.668 23.2L34.6681 44.8L62.668 66.3999" stroke="currentColor" stroke-width="2"/>
<rect width="47.1442" height="47.1478" transform="matrix(0.791781 -0.610805 0.791781 0.610805 16.0039 44.802)" stroke="currentColor" stroke-width="2"/>
<path d="M25.3333 37.6L34.6666 44.8L25.3333 52" stroke="currentColor" stroke-width="2"/>
<rect width="23.5755" height="23.5755" transform="matrix(-0.791781 0.610805 -0.791781 -0.610805 109.332 44.8)" stroke="currentColor" stroke-width="2"/>
<path d="M81.332 66.4001L109.332 44.8001L81.332 23.2001" stroke="currentColor" stroke-width="2"/>
<rect width="47.1442" height="47.1478" transform="matrix(-0.791781 0.610805 -0.791781 -0.610805 127.996 44.7981)" stroke="currentColor" stroke-width="2"/>
<path d="M118.667 52L109.333 44.8L118.667 37.6" stroke="currentColor" stroke-width="2"/>
<rect width="40.0141" height="40.0141" transform="matrix(0.933001 -0.359873 0.933001 0.359873 53.332 86.4001)" stroke="currentColor" stroke-width="2"/>
<path d="M109.332 64.8L53.3322 86.4001L109.332 108" stroke="currentColor" stroke-width="2"/>
<rect width="80.0169" height="80.0228" transform="matrix(0.933001 -0.359873 0.933001 0.359873 16.0039 86.4021)" stroke="currentColor" stroke-width="2"/>
<path d="M34.6666 79.2001L53.3332 86.4001L34.6666 93.6001" stroke="currentColor" stroke-width="2"/>
<rect width="40.0141" height="40.0141" transform="matrix(-0.933001 0.359873 -0.933001 -0.359873 202.668 86.4001)" stroke="currentColor" stroke-width="2"/>
<path d="M146.668 108L202.668 86.4002L146.668 64.8002" stroke="currentColor" stroke-width="2"/>
<rect width="80.0169" height="80.0228" transform="matrix(-0.933001 0.359873 -0.933001 -0.359873 239.996 86.3982)" stroke="currentColor" stroke-width="2"/>
<path d="M221.333 93.6001L202.667 86.4001L221.333 79.2001" stroke="currentColor" stroke-width="2"/>
<rect width="40.0141" height="40.0141" transform="matrix(0.933001 -0.359873 0.933001 0.359873 53.332 128)" stroke="currentColor" stroke-width="2"/>
<path d="M109.332 106.4L53.3322 128L109.332 149.6" stroke="currentColor" stroke-width="2"/>
<rect width="80.0169" height="80.0228" transform="matrix(0.933001 -0.359873 0.933001 0.359873 16.0039 128.002)" stroke="currentColor" stroke-width="2"/>
<path d="M34.6666 120.8L53.3332 128L34.6666 135.2" stroke="currentColor" stroke-width="2"/>
<rect width="40.0141" height="40.0141" transform="matrix(-0.933001 0.359873 -0.933001 -0.359873 202.668 128)" stroke="currentColor" stroke-width="2"/>
<path d="M146.668 149.6L202.668 128L146.668 106.4" stroke="currentColor" stroke-width="2"/>
<rect width="80.0169" height="80.0228" transform="matrix(-0.933001 0.359873 -0.933001 -0.359873 239.996 127.998)" stroke="currentColor" stroke-width="2"/>
<path d="M221.333 135.2L202.667 128L221.333 120.8" stroke="currentColor" stroke-width="2"/>
<rect width="40.0141" height="40.0141" transform="matrix(0.933001 -0.359873 0.933001 0.359873 53.332 169.6)" stroke="currentColor" stroke-width="2"/>
<path d="M109.332 148L53.3322 169.6L109.332 191.2" stroke="currentColor" stroke-width="2"/>
<rect width="80.0169" height="80.0228" transform="matrix(0.933001 -0.359873 0.933001 0.359873 16.0039 169.602)" stroke="currentColor" stroke-width="2"/>
<path d="M34.6666 162.4L53.3332 169.6L34.6666 176.8" stroke="currentColor" stroke-width="2"/>
<rect width="40.0141" height="40.0141" transform="matrix(-0.933001 0.359873 -0.933001 -0.359873 202.668 169.6)" stroke="currentColor" stroke-width="2"/>
<path d="M146.668 191.2L202.668 169.6L146.668 148" stroke="currentColor" stroke-width="2"/>
<rect width="80.0169" height="80.0228" transform="matrix(-0.933001 0.359873 -0.933001 -0.359873 239.996 169.598)" stroke="currentColor" stroke-width="2"/>
<path d="M221.333 176.8L202.667 169.6L221.333 162.4" stroke="currentColor" stroke-width="2"/>
<rect width="23.5755" height="23.5755" transform="matrix(0.791781 -0.610805 0.791781 0.610805 146.668 211.2)" stroke="currentColor" stroke-width="2"/>
<path d="M174.668 189.6L146.668 211.2L174.668 232.8" stroke="currentColor" stroke-width="2"/>
<rect width="47.1443" height="47.1478" transform="matrix(0.791781 -0.610805 0.791781 0.610805 128.004 211.202)" stroke="currentColor" stroke-width="2"/>
<path d="M137.333 204L146.667 211.2L137.333 218.4" stroke="currentColor" stroke-width="2"/>
<rect width="23.5755" height="23.5755" transform="matrix(-0.791781 0.610805 -0.791781 -0.610805 221.332 211.2)" stroke="currentColor" stroke-width="2"/>
<path d="M193.332 232.8L221.332 211.2L193.332 189.6" stroke="currentColor" stroke-width="2"/>
<rect width="47.1443" height="47.1478" transform="matrix(-0.791781 0.610805 -0.791781 -0.610805 239.996 211.198)" stroke="currentColor" stroke-width="2"/>
<path d="M230.667 218.4L221.333 211.2L230.667 204" stroke="currentColor" stroke-width="2"/>
<rect width="23.5755" height="23.5755" transform="matrix(0.791781 -0.610805 0.791781 0.610805 34.668 211.2)" stroke="currentColor" stroke-width="2"/>
<path d="M62.668 189.6L34.6681 211.2L62.668 232.8" stroke="currentColor" stroke-width="2"/>
<rect width="47.1443" height="47.1478" transform="matrix(0.791781 -0.610805 0.791781 0.610805 16.0039 211.202)" stroke="currentColor" stroke-width="2"/>
<path d="M25.3333 204L34.6666 211.2L25.3333 218.4" stroke="currentColor" stroke-width="2"/>
<rect width="23.5755" height="23.5755" transform="matrix(-0.791781 0.610805 -0.791781 -0.610805 109.332 211.2)" stroke="currentColor" stroke-width="2"/>
<path d="M81.332 232.8L109.332 211.2L81.332 189.6" stroke="currentColor" stroke-width="2"/>
<rect width="47.1443" height="47.1478" transform="matrix(-0.791781 0.610805 -0.791781 -0.610805 127.996 211.198)" stroke="currentColor" stroke-width="2"/>
<path d="M118.667 218.4L109.333 211.2L118.667 204" stroke="currentColor" stroke-width="2"/>
</svg>
