<svg width="256" height="256" viewBox="0 0 256 256" fill="none" xmlns="http://www.w3.org/2000/svg">
<rect width="25.6019" height="25.6019" transform="matrix(0.590233 -0.807233 0.590233 0.807233 164.441 57.3333)" stroke="currentColor" stroke-width="2"/>
<path d="M187.109 26.3333L164.443 57.3332L187.109 88.3332" stroke="currentColor" stroke-width="2"/>
<rect width="51.1965" height="51.2003" transform="matrix(0.590233 -0.807233 0.590233 0.807233 149.336 57.3362)" stroke="currentColor" stroke-width="2"/>
<path d="M156.888 46.9999L164.443 57.3333L156.888 67.6666" stroke="currentColor" stroke-width="2"/>
<rect width="25.6019" height="25.6019" transform="matrix(-0.590233 0.807233 -0.590233 -0.807233 224.891 57.3333)" stroke="currentColor" stroke-width="2"/>
<path d="M202.223 88.3333L224.889 57.3333L202.223 26.3333" stroke="currentColor" stroke-width="2"/>
<rect width="51.1965" height="51.2003" transform="matrix(-0.590233 0.807233 -0.590233 -0.807233 239.996 57.3303)" stroke="currentColor" stroke-width="2"/>
<path d="M232.444 67.6666L224.889 57.3333L232.444 46.9999" stroke="currentColor" stroke-width="2"/>
<path d="M173.329 16L127.996 57.3333L173.329 98.6667" stroke="currentColor" stroke-width="2"/>
<path d="M82.6628 16L127.996 57.3333L82.6628 98.6667" stroke="currentColor" stroke-width="2"/>
<rect width="25.6019" height="25.6019" transform="matrix(0.590233 -0.807233 0.590233 0.807233 31.1094 57.3333)" stroke="currentColor" stroke-width="2"/>
<path d="M53.7773 26.3333L31.1108 57.3332L53.7773 88.3332" stroke="currentColor" stroke-width="2"/>
<rect width="51.1965" height="51.2003" transform="matrix(0.590233 -0.807233 0.590233 0.807233 16.0039 57.3362)" stroke="currentColor" stroke-width="2"/>
<path d="M23.5555 46.9999L31.1111 57.3333L23.5555 67.6666" stroke="currentColor" stroke-width="2"/>
<rect width="25.6019" height="25.6019" transform="matrix(-0.590233 0.807233 -0.590233 -0.807233 91.5586 57.3333)" stroke="currentColor" stroke-width="2"/>
<path d="M68.8906 88.3333L91.5572 57.3333L68.8906 26.3333" stroke="currentColor" stroke-width="2"/>
<rect width="51.1965" height="51.2003" transform="matrix(-0.590233 0.807233 -0.590233 -0.807233 106.664 57.3303)" stroke="currentColor" stroke-width="2"/>
<path d="M99.1124 67.6666L91.5569 57.3333L99.1124 46.9999" stroke="currentColor" stroke-width="2"/>
<path d="M149.753 87.575L237.609 128L149.753 168.425" stroke="currentColor" stroke-width="2"/>
<rect width="25.6019" height="25.6019" transform="matrix(0.590233 -0.807233 0.590233 0.807233 97.7773 128)" stroke="currentColor" stroke-width="2"/>
<path d="M120.445 96.9998L97.7787 128L120.445 159" stroke="currentColor" stroke-width="2"/>
<rect width="51.1965" height="51.2003" transform="matrix(0.590233 -0.807233 0.590233 0.807233 82.6719 128.003)" stroke="currentColor" stroke-width="2"/>
<path d="M90.2235 117.666L97.779 128L90.2235 138.333" stroke="currentColor" stroke-width="2"/>
<rect width="25.6019" height="25.6019" transform="matrix(-0.590233 0.807233 -0.590233 -0.807233 158.227 128)" stroke="currentColor" stroke-width="2"/>
<path d="M135.559 159L158.225 128L135.559 96.9998" stroke="currentColor" stroke-width="2"/>
<rect width="51.1965" height="51.2003" transform="matrix(-0.590233 0.807233 -0.590233 -0.807233 173.332 127.997)" stroke="currentColor" stroke-width="2"/>
<path d="M165.78 138.333L158.225 128L165.78 117.666" stroke="currentColor" stroke-width="2"/>
<path d="M106.247 87.575L18.3906 128L106.247 168.425" stroke="currentColor" stroke-width="2"/>
<rect width="25.6019" height="25.6019" transform="matrix(0.590233 -0.807233 0.590233 0.807233 164.441 198.667)" stroke="currentColor" stroke-width="2"/>
<path d="M187.109 167.667L164.443 198.667L187.109 229.667" stroke="currentColor" stroke-width="2"/>
<rect width="51.1965" height="51.2003" transform="matrix(0.590233 -0.807233 0.590233 0.807233 149.336 198.67)" stroke="currentColor" stroke-width="2"/>
<path d="M156.888 188.333L164.443 198.667L156.888 209" stroke="currentColor" stroke-width="2"/>
<rect width="25.6019" height="25.6019" transform="matrix(-0.590233 0.807233 -0.590233 -0.807233 224.891 198.667)" stroke="currentColor" stroke-width="2"/>
<path d="M202.223 229.667L224.889 198.666L202.223 167.666" stroke="currentColor" stroke-width="2"/>
<rect width="51.1965" height="51.2003" transform="matrix(-0.590233 0.807233 -0.590233 -0.807233 239.996 198.663)" stroke="currentColor" stroke-width="2"/>
<path d="M232.444 209L224.889 198.667L232.444 188.333" stroke="currentColor" stroke-width="2"/>
<path d="M173.333 157.333L128 198.667L173.333 240" stroke="currentColor" stroke-width="2"/>
<path d="M82.6667 157.333L128 198.667L82.6667 240" stroke="currentColor" stroke-width="2"/>
<rect width="25.6019" height="25.6019" transform="matrix(0.590233 -0.807233 0.590233 0.807233 31.1094 198.667)" stroke="currentColor" stroke-width="2"/>
<path d="M53.7773 167.667L31.1108 198.667L53.7773 229.667" stroke="currentColor" stroke-width="2"/>
<rect width="51.1965" height="51.2003" transform="matrix(0.590233 -0.807233 0.590233 0.807233 16.0039 198.67)" stroke="currentColor" stroke-width="2"/>
<path d="M23.5555 188.333L31.1111 198.667L23.5555 209" stroke="currentColor" stroke-width="2"/>
<rect width="25.6019" height="25.6019" transform="matrix(-0.590233 0.807233 -0.590233 -0.807233 91.5586 198.667)" stroke="currentColor" stroke-width="2"/>
<path d="M68.8906 229.667L91.5572 198.667L68.8906 167.666" stroke="currentColor" stroke-width="2"/>
<rect width="51.1965" height="51.2003" transform="matrix(-0.590233 0.807233 -0.590233 -0.807233 106.664 198.663)" stroke="currentColor" stroke-width="2"/>
<path d="M99.1124 209L91.5569 198.667L99.1124 188.333" stroke="currentColor" stroke-width="2"/>
</svg>
