<svg width="256" height="256" viewBox="0 0 256 256" fill="none" xmlns="http://www.w3.org/2000/svg">
<rect width="20.4314" height="20.4314" transform="matrix(0.554699 -0.832051 0.554699 0.832051 27.332 50)" stroke="currentColor" stroke-width="2"/>
<path d="M44.332 24.5L27.3321 50L44.332 75.5" stroke="currentColor" stroke-width="2"/>
<rect width="40.8571" height="40.8601" transform="matrix(0.554699 -0.832051 0.554699 0.832051 16 50.0022)" stroke="currentColor" stroke-width="2"/>
<path d="M21.6666 41.5L27.3333 50L21.6666 58.5" stroke="currentColor" stroke-width="2"/>
<rect width="20.4314" height="20.4314" transform="matrix(-0.554699 0.832051 -0.554699 -0.832051 72.668 50)" stroke="currentColor" stroke-width="2"/>
<path d="M55.668 75.5L72.6679 50L55.668 24.5" stroke="currentColor" stroke-width="2"/>
<rect width="40.8571" height="40.8601" transform="matrix(-0.554699 0.832051 -0.554699 -0.832051 84 49.9978)" stroke="currentColor" stroke-width="2"/>
<path d="M78.3334 58.5L72.6667 50L78.3334 41.5" stroke="currentColor" stroke-width="2"/>
<rect width="20.4314" height="20.4314" transform="matrix(0.554699 -0.832051 0.554699 0.832051 27.332 102)" stroke="currentColor" stroke-width="2"/>
<path d="M44.332 76.5L27.3321 102L44.332 127.5" stroke="currentColor" stroke-width="2"/>
<rect width="40.8571" height="40.8601" transform="matrix(0.554699 -0.832051 0.554699 0.832051 16 102.002)" stroke="currentColor" stroke-width="2"/>
<path d="M21.6666 93.5L27.3333 102L21.6666 110.5" stroke="currentColor" stroke-width="2"/>
<rect width="20.4314" height="20.4314" transform="matrix(-0.554699 0.832051 -0.554699 -0.832051 72.668 102)" stroke="currentColor" stroke-width="2"/>
<path d="M55.668 127.5L72.6679 102L55.668 76.5" stroke="currentColor" stroke-width="2"/>
<rect width="40.8571" height="40.8601" transform="matrix(-0.554699 0.832051 -0.554699 -0.832051 84 101.998)" stroke="currentColor" stroke-width="2"/>
<path d="M78.3334 110.5L72.6667 102L78.3334 93.5" stroke="currentColor" stroke-width="2"/>
<rect width="20.4314" height="20.4314" transform="matrix(0.554699 -0.832051 0.554699 0.832051 27.332 154)" stroke="currentColor" stroke-width="2"/>
<path d="M44.332 128.5L27.3321 154L44.332 179.5" stroke="currentColor" stroke-width="2"/>
<rect width="40.8571" height="40.8601" transform="matrix(0.554699 -0.832051 0.554699 0.832051 16 154.002)" stroke="currentColor" stroke-width="2"/>
<path d="M21.6666 145.5L27.3333 154L21.6666 162.5" stroke="currentColor" stroke-width="2"/>
<rect width="20.4314" height="20.4314" transform="matrix(-0.554699 0.832051 -0.554699 -0.832051 72.668 154)" stroke="currentColor" stroke-width="2"/>
<path d="M55.668 179.5L72.6679 154L55.668 128.5" stroke="currentColor" stroke-width="2"/>
<rect width="40.8571" height="40.8601" transform="matrix(-0.554699 0.832051 -0.554699 -0.832051 84 153.998)" stroke="currentColor" stroke-width="2"/>
<path d="M78.3334 162.5L72.6667 154L78.3334 145.5" stroke="currentColor" stroke-width="2"/>
<rect width="20.4314" height="20.4314" transform="matrix(0.554699 -0.832051 0.554699 0.832051 27.332 206)" stroke="currentColor" stroke-width="2"/>
<path d="M44.332 180.5L27.3321 206L44.332 231.5" stroke="currentColor" stroke-width="2"/>
<rect width="40.8571" height="40.8601" transform="matrix(0.554699 -0.832051 0.554699 0.832051 16 206.002)" stroke="currentColor" stroke-width="2"/>
<path d="M21.6666 197.5L27.3333 206L21.6666 214.5" stroke="currentColor" stroke-width="2"/>
<rect width="20.4314" height="20.4314" transform="matrix(-0.554699 0.832051 -0.554699 -0.832051 72.668 206)" stroke="currentColor" stroke-width="2"/>
<path d="M55.668 231.5L72.6679 206L55.668 180.5" stroke="currentColor" stroke-width="2"/>
<rect width="40.8571" height="40.8601" transform="matrix(-0.554699 0.832051 -0.554699 -0.832051 84 205.998)" stroke="currentColor" stroke-width="2"/>
<path d="M78.3334 214.5L72.6667 206L78.3334 197.5" stroke="currentColor" stroke-width="2"/>
<rect width="20.4314" height="20.4314" transform="matrix(0.554699 -0.832051 0.554699 0.832051 79.332 50)" stroke="currentColor" stroke-width="2"/>
<path d="M96.332 24.5L79.3321 50L96.332 75.5" stroke="currentColor" stroke-width="2"/>
<rect width="40.8571" height="40.8601" transform="matrix(0.554699 -0.832051 0.554699 0.832051 68 50.0022)" stroke="currentColor" stroke-width="2"/>
<path d="M73.6666 41.5L79.3333 50L73.6666 58.5" stroke="currentColor" stroke-width="2"/>
<rect width="20.4314" height="20.4314" transform="matrix(-0.554699 0.832051 -0.554699 -0.832051 124.668 50)" stroke="currentColor" stroke-width="2"/>
<path d="M107.668 75.5L124.668 50L107.668 24.5" stroke="currentColor" stroke-width="2"/>
<rect width="40.8571" height="40.8601" transform="matrix(-0.554699 0.832051 -0.554699 -0.832051 136 49.9978)" stroke="currentColor" stroke-width="2"/>
<path d="M130.333 58.5L124.667 50L130.333 41.5" stroke="currentColor" stroke-width="2"/>
<rect width="20.4314" height="20.4314" transform="matrix(0.554699 -0.832051 0.554699 0.832051 79.332 102)" stroke="currentColor" stroke-width="2"/>
<path d="M96.332 76.5L79.3321 102L96.332 127.5" stroke="currentColor" stroke-width="2"/>
<rect width="40.8571" height="40.8601" transform="matrix(0.554699 -0.832051 0.554699 0.832051 68 102.002)" stroke="currentColor" stroke-width="2"/>
<path d="M73.6666 93.5L79.3333 102L73.6666 110.5" stroke="currentColor" stroke-width="2"/>
<rect width="20.4314" height="20.4314" transform="matrix(-0.554699 0.832051 -0.554699 -0.832051 124.668 102)" stroke="currentColor" stroke-width="2"/>
<path d="M107.668 127.5L124.668 102L107.668 76.5" stroke="currentColor" stroke-width="2"/>
<rect width="40.8571" height="40.8601" transform="matrix(-0.554699 0.832051 -0.554699 -0.832051 136 101.998)" stroke="currentColor" stroke-width="2"/>
<path d="M130.333 110.5L124.667 102L130.333 93.5" stroke="currentColor" stroke-width="2"/>
<rect width="20.4314" height="20.4314" transform="matrix(0.554699 -0.832051 0.554699 0.832051 79.332 154)" stroke="currentColor" stroke-width="2"/>
<path d="M96.332 128.5L79.3321 154L96.332 179.5" stroke="currentColor" stroke-width="2"/>
<rect width="40.8571" height="40.8601" transform="matrix(0.554699 -0.832051 0.554699 0.832051 68 154.002)" stroke="currentColor" stroke-width="2"/>
<path d="M73.6666 145.5L79.3333 154L73.6666 162.5" stroke="currentColor" stroke-width="2"/>
<rect width="20.4314" height="20.4314" transform="matrix(-0.554699 0.832051 -0.554699 -0.832051 124.668 154)" stroke="currentColor" stroke-width="2"/>
<path d="M107.668 179.5L124.668 154L107.668 128.5" stroke="currentColor" stroke-width="2"/>
<rect width="40.8571" height="40.8601" transform="matrix(-0.554699 0.832051 -0.554699 -0.832051 136 153.998)" stroke="currentColor" stroke-width="2"/>
<path d="M130.333 162.5L124.667 154L130.333 145.5" stroke="currentColor" stroke-width="2"/>
<rect width="20.4314" height="20.4314" transform="matrix(0.554699 -0.832051 0.554699 0.832051 79.332 206)" stroke="currentColor" stroke-width="2"/>
<path d="M96.332 180.5L79.3321 206L96.332 231.5" stroke="currentColor" stroke-width="2"/>
<rect width="40.8571" height="40.8601" transform="matrix(0.554699 -0.832051 0.554699 0.832051 68 206.002)" stroke="currentColor" stroke-width="2"/>
<path d="M73.6666 197.5L79.3333 206L73.6666 214.5" stroke="currentColor" stroke-width="2"/>
<rect width="20.4314" height="20.4314" transform="matrix(-0.554699 0.832051 -0.554699 -0.832051 124.668 206)" stroke="currentColor" stroke-width="2"/>
<path d="M107.668 231.5L124.668 206L107.668 180.5" stroke="currentColor" stroke-width="2"/>
<rect width="40.8571" height="40.8601" transform="matrix(-0.554699 0.832051 -0.554699 -0.832051 136 205.998)" stroke="currentColor" stroke-width="2"/>
<path d="M130.333 214.5L124.667 206L130.333 197.5" stroke="currentColor" stroke-width="2"/>
<rect width="20.4314" height="20.4314" transform="matrix(0.554699 -0.832051 0.554699 0.832051 131.332 50)" stroke="currentColor" stroke-width="2"/>
<path d="M148.332 24.5L131.332 50L148.332 75.5" stroke="currentColor" stroke-width="2"/>
<rect width="40.8571" height="40.8601" transform="matrix(0.554699 -0.832051 0.554699 0.832051 120 50.0022)" stroke="currentColor" stroke-width="2"/>
<path d="M125.667 41.5L131.333 50L125.667 58.5" stroke="currentColor" stroke-width="2"/>
<rect width="20.4314" height="20.4314" transform="matrix(-0.554699 0.832051 -0.554699 -0.832051 176.668 50)" stroke="currentColor" stroke-width="2"/>
<path d="M159.668 75.5L176.668 50L159.668 24.5" stroke="currentColor" stroke-width="2"/>
<rect width="40.8571" height="40.8601" transform="matrix(-0.554699 0.832051 -0.554699 -0.832051 188 49.9978)" stroke="currentColor" stroke-width="2"/>
<path d="M182.333 58.5L176.667 50L182.333 41.5" stroke="currentColor" stroke-width="2"/>
<rect width="20.4314" height="20.4314" transform="matrix(0.554699 -0.832051 0.554699 0.832051 131.332 102)" stroke="currentColor" stroke-width="2"/>
<path d="M148.332 76.5L131.332 102L148.332 127.5" stroke="currentColor" stroke-width="2"/>
<rect width="40.8571" height="40.8601" transform="matrix(0.554699 -0.832051 0.554699 0.832051 120 102.002)" stroke="currentColor" stroke-width="2"/>
<path d="M125.667 93.5L131.333 102L125.667 110.5" stroke="currentColor" stroke-width="2"/>
<rect width="20.4314" height="20.4314" transform="matrix(-0.554699 0.832051 -0.554699 -0.832051 176.668 102)" stroke="currentColor" stroke-width="2"/>
<path d="M159.668 127.5L176.668 102L159.668 76.5" stroke="currentColor" stroke-width="2"/>
<rect width="40.8571" height="40.8601" transform="matrix(-0.554699 0.832051 -0.554699 -0.832051 188 101.998)" stroke="currentColor" stroke-width="2"/>
<path d="M182.333 110.5L176.667 102L182.333 93.5" stroke="currentColor" stroke-width="2"/>
<rect width="20.4314" height="20.4314" transform="matrix(0.554699 -0.832051 0.554699 0.832051 131.332 154)" stroke="currentColor" stroke-width="2"/>
<path d="M148.332 128.5L131.332 154L148.332 179.5" stroke="currentColor" stroke-width="2"/>
<rect width="40.8571" height="40.8601" transform="matrix(0.554699 -0.832051 0.554699 0.832051 120 154.002)" stroke="currentColor" stroke-width="2"/>
<path d="M125.667 145.5L131.333 154L125.667 162.5" stroke="currentColor" stroke-width="2"/>
<rect width="20.4314" height="20.4314" transform="matrix(-0.554699 0.832051 -0.554699 -0.832051 176.668 154)" stroke="currentColor" stroke-width="2"/>
<path d="M159.668 179.5L176.668 154L159.668 128.5" stroke="currentColor" stroke-width="2"/>
<rect width="40.8571" height="40.8601" transform="matrix(-0.554699 0.832051 -0.554699 -0.832051 188 153.998)" stroke="currentColor" stroke-width="2"/>
<path d="M182.333 162.5L176.667 154L182.333 145.5" stroke="currentColor" stroke-width="2"/>
<rect width="20.4314" height="20.4314" transform="matrix(0.554699 -0.832051 0.554699 0.832051 131.332 206)" stroke="currentColor" stroke-width="2"/>
<path d="M148.332 180.5L131.332 206L148.332 231.5" stroke="currentColor" stroke-width="2"/>
<rect width="40.8571" height="40.8601" transform="matrix(0.554699 -0.832051 0.554699 0.832051 120 206.002)" stroke="currentColor" stroke-width="2"/>
<path d="M125.667 197.5L131.333 206L125.667 214.5" stroke="currentColor" stroke-width="2"/>
<rect width="20.4314" height="20.4314" transform="matrix(-0.554699 0.832051 -0.554699 -0.832051 176.668 206)" stroke="currentColor" stroke-width="2"/>
<path d="M159.668 231.5L176.668 206L159.668 180.5" stroke="currentColor" stroke-width="2"/>
<rect width="40.8571" height="40.8601" transform="matrix(-0.554699 0.832051 -0.554699 -0.832051 188 205.998)" stroke="currentColor" stroke-width="2"/>
<path d="M182.333 214.5L176.667 206L182.333 197.5" stroke="currentColor" stroke-width="2"/>
<rect width="20.4314" height="20.4314" transform="matrix(0.554699 -0.832051 0.554699 0.832051 183.332 50)" stroke="currentColor" stroke-width="2"/>
<path d="M200.332 24.5L183.332 50L200.332 75.5" stroke="currentColor" stroke-width="2"/>
<rect width="40.8571" height="40.8601" transform="matrix(0.554699 -0.832051 0.554699 0.832051 172 50.0022)" stroke="currentColor" stroke-width="2"/>
<path d="M177.667 41.5L183.333 50L177.667 58.5" stroke="currentColor" stroke-width="2"/>
<rect width="20.4314" height="20.4314" transform="matrix(-0.554699 0.832051 -0.554699 -0.832051 228.668 50)" stroke="currentColor" stroke-width="2"/>
<path d="M211.668 75.5L228.668 50L211.668 24.5" stroke="currentColor" stroke-width="2"/>
<rect width="40.8571" height="40.8601" transform="matrix(-0.554699 0.832051 -0.554699 -0.832051 240 49.9978)" stroke="currentColor" stroke-width="2"/>
<path d="M234.333 58.5L228.667 50L234.333 41.5" stroke="currentColor" stroke-width="2"/>
<rect width="20.4314" height="20.4314" transform="matrix(0.554699 -0.832051 0.554699 0.832051 183.332 102)" stroke="currentColor" stroke-width="2"/>
<path d="M200.332 76.5L183.332 102L200.332 127.5" stroke="currentColor" stroke-width="2"/>
<rect width="40.8571" height="40.8601" transform="matrix(0.554699 -0.832051 0.554699 0.832051 172 102.002)" stroke="currentColor" stroke-width="2"/>
<path d="M177.667 93.5L183.333 102L177.667 110.5" stroke="currentColor" stroke-width="2"/>
<rect width="20.4314" height="20.4314" transform="matrix(-0.554699 0.832051 -0.554699 -0.832051 228.668 102)" stroke="currentColor" stroke-width="2"/>
<path d="M211.668 127.5L228.668 102L211.668 76.5" stroke="currentColor" stroke-width="2"/>
<rect width="40.8571" height="40.8601" transform="matrix(-0.554699 0.832051 -0.554699 -0.832051 240 101.998)" stroke="currentColor" stroke-width="2"/>
<path d="M234.333 110.5L228.667 102L234.333 93.5" stroke="currentColor" stroke-width="2"/>
<rect width="20.4314" height="20.4314" transform="matrix(0.554699 -0.832051 0.554699 0.832051 183.332 154)" stroke="currentColor" stroke-width="2"/>
<path d="M200.332 128.5L183.332 154L200.332 179.5" stroke="currentColor" stroke-width="2"/>
<rect width="40.8571" height="40.8601" transform="matrix(0.554699 -0.832051 0.554699 0.832051 172 154.002)" stroke="currentColor" stroke-width="2"/>
<path d="M177.667 145.5L183.333 154L177.667 162.5" stroke="currentColor" stroke-width="2"/>
<rect width="20.4314" height="20.4314" transform="matrix(-0.554699 0.832051 -0.554699 -0.832051 228.668 154)" stroke="currentColor" stroke-width="2"/>
<path d="M211.668 179.5L228.668 154L211.668 128.5" stroke="currentColor" stroke-width="2"/>
<rect width="40.8571" height="40.8601" transform="matrix(-0.554699 0.832051 -0.554699 -0.832051 240 153.998)" stroke="currentColor" stroke-width="2"/>
<path d="M234.333 162.5L228.667 154L234.333 145.5" stroke="currentColor" stroke-width="2"/>
<rect width="20.4314" height="20.4314" transform="matrix(0.554699 -0.832051 0.554699 0.832051 183.332 206)" stroke="currentColor" stroke-width="2"/>
<path d="M200.332 180.5L183.332 206L200.332 231.5" stroke="currentColor" stroke-width="2"/>
<rect width="40.8571" height="40.8601" transform="matrix(0.554699 -0.832051 0.554699 0.832051 172 206.002)" stroke="currentColor" stroke-width="2"/>
<path d="M177.667 197.5L183.333 206L177.667 214.5" stroke="currentColor" stroke-width="2"/>
<rect width="20.4314" height="20.4314" transform="matrix(-0.554699 0.832051 -0.554699 -0.832051 228.668 206)" stroke="currentColor" stroke-width="2"/>
<path d="M211.668 231.5L228.668 206L211.668 180.5" stroke="currentColor" stroke-width="2"/>
<rect width="40.8571" height="40.8601" transform="matrix(-0.554699 0.832051 -0.554699 -0.832051 240 205.998)" stroke="currentColor" stroke-width="2"/>
<path d="M234.333 214.5L228.667 206L234.333 197.5" stroke="currentColor" stroke-width="2"/>
</svg>
