<svg width="256" height="256" viewBox="0 0 256 256" fill="none" xmlns="http://www.w3.org/2000/svg">
<path d="M237.312 39.7373L174.02 32.8838L201.158 29.9443V27.9561L174.02 25.0176L237.312 18.1631L237.098 16.1748L164.732 24.0117L137.738 21.0889L164.75 18.1631L164.535 16.1748L128.451 20.083L92.3682 16.1748L92.2607 17.1689L92.1523 18.1631L119.163 21.0889L92.1738 24.0117L19.8125 16.1748L19.5977 18.1631L82.8857 25.0176L55.7441 27.9561V29.9443L82.8857 32.8838L19.5977 39.7373L19.8125 41.7256L92.1738 33.8896L119.163 36.8125L92.1523 39.7373L92.2607 40.7314L92.3682 41.7256L128.451 37.8184L164.535 41.7256L164.75 39.7373L137.738 36.8125L164.732 33.8896L237.098 41.7256L237.312 39.7373ZM101.461 25.0176L128.451 22.0947L155.444 25.0176L128.455 27.9404L101.461 25.0176ZM65.1387 28.9502L92.1729 26.0234L119.207 28.9502L92.1729 31.8779L65.1387 28.9502ZM137.702 28.9502L164.732 26.0234L191.763 28.9502L164.732 31.8779L137.702 28.9502ZM101.461 32.8838L128.455 29.9609L155.444 32.8838L128.451 35.8066L101.461 32.8838Z" fill="currentColor"/>
<path d="M18.6875 40.2627L81.9805 47.1162L54.8418 50.0557V52.0439L81.9805 54.9824L18.6875 61.8369L18.9023 63.8252L91.2676 55.9883L118.262 58.9111L91.25 61.8369L91.4648 63.8252L127.549 59.917L163.632 63.8252L163.739 62.8311L163.848 61.8369L136.837 58.9111L163.826 55.9883L236.188 63.8252L236.402 61.8369L173.114 54.9824L200.256 52.0439V50.0557L173.114 47.1162L236.402 40.2627L236.188 38.2744L163.826 46.1104L136.837 43.1875L163.848 40.2627L163.739 39.2686L163.632 38.2744L127.549 42.1816L91.4648 38.2744L91.25 40.2627L118.262 43.1875L91.2676 46.1104L18.9023 38.2744L18.6875 40.2627ZM154.539 54.9824L127.549 57.9053L100.556 54.9824L127.545 52.0596L154.539 54.9824ZM190.861 51.0498L163.827 53.9766L136.793 51.0498L163.827 48.1221L190.861 51.0498ZM118.298 51.0498L91.2676 53.9766L64.2373 51.0498L91.2676 48.1221L118.298 51.0498ZM154.539 47.1162L127.545 50.0391L100.556 47.1162L127.549 44.1934L154.539 47.1162Z" fill="currentColor"/>
<path d="M18.6875 62.2627L81.9805 69.1162L54.8418 72.0557V74.0439L81.9805 76.9824L18.6875 83.8369L18.9023 85.8252L91.2676 77.9883L118.262 80.9111L91.25 83.8369L91.4648 85.8252L127.549 81.917L163.632 85.8252L163.739 84.8311L163.848 83.8369L136.837 80.9111L163.826 77.9883L236.188 85.8252L236.402 83.8369L173.114 76.9824L200.256 74.0439V72.0557L173.114 69.1162L236.402 62.2627L236.188 60.2744L163.826 68.1104L136.837 65.1875L163.848 62.2627L163.739 61.2686L163.632 60.2744L127.549 64.1816L91.4648 60.2744L91.25 62.2627L118.262 65.1875L91.2676 68.1104L18.9023 60.2744L18.6875 62.2627ZM154.539 76.9824L127.549 79.9053L100.556 76.9824L127.545 74.0596L154.539 76.9824ZM190.861 73.0498L163.827 75.9766L136.793 73.0498L163.827 70.1221L190.861 73.0498ZM118.298 73.0498L91.2676 75.9766L64.2373 73.0498L91.2676 70.1221L118.298 73.0498ZM154.539 69.1162L127.545 72.0391L100.556 69.1162L127.549 66.1934L154.539 69.1162Z" fill="currentColor"/>
<path d="M237.312 105.737L174.02 98.8838L201.158 95.9443V93.9561L174.02 91.0176L237.312 84.1631L237.098 82.1748L164.732 90.0117L137.738 87.0889L164.75 84.1631L164.535 82.1748L128.451 86.083L92.3682 82.1748L92.2607 83.1689L92.1523 84.1631L119.163 87.0889L92.1738 90.0117L19.8125 82.1748L19.5977 84.1631L82.8857 91.0176L55.7441 93.9561V95.9443L82.8857 98.8838L19.5977 105.737L19.8125 107.726L92.1738 99.8896L119.163 102.812L92.1523 105.737L92.2607 106.731L92.3682 107.726L128.451 103.818L164.535 107.726L164.75 105.737L137.738 102.812L164.732 99.8896L237.098 107.726L237.312 105.737ZM101.461 91.0176L128.451 88.0947L155.444 91.0176L128.455 93.9404L101.461 91.0176ZM65.1387 94.9502L92.1729 92.0234L119.207 94.9502L92.1729 97.8779L65.1387 94.9502ZM137.702 94.9502L164.732 92.0234L191.763 94.9502L164.732 97.8779L137.702 94.9502ZM101.461 98.8838L128.455 95.9609L155.444 98.8838L128.451 101.807L101.461 98.8838Z" fill="currentColor"/>
<path d="M237.312 127.737L174.02 120.884L201.158 117.944V115.956L174.02 113.018L237.312 106.163L237.098 104.175L164.732 112.012L137.738 109.089L164.75 106.163L164.535 104.175L128.451 108.083L92.3682 104.175L92.2607 105.169L92.1523 106.163L119.163 109.089L92.1738 112.012L19.8125 104.175L19.5977 106.163L82.8857 113.018L55.7441 115.956V117.944L82.8857 120.884L19.5977 127.737L19.8125 129.726L92.1738 121.89L119.163 124.812L92.1523 127.737L92.2607 128.731L92.3682 129.726L128.451 125.818L164.535 129.726L164.75 127.737L137.738 124.812L164.732 121.89L237.098 129.726L237.312 127.737ZM101.461 113.018L128.451 110.095L155.444 113.018L128.455 115.94L101.461 113.018ZM65.1387 116.95L92.1729 114.023L119.207 116.95L92.1729 119.878L65.1387 116.95ZM137.702 116.95L164.732 114.023L191.763 116.95L164.732 119.878L137.702 116.95ZM101.461 120.884L128.455 117.961L155.444 120.884L128.451 123.807L101.461 120.884Z" fill="currentColor"/>
<path d="M18.6875 128.263L81.9805 135.116L54.8418 138.056V140.044L81.9805 142.982L18.6875 149.837L18.9023 151.825L91.2676 143.988L118.262 146.911L91.25 149.837L91.4648 151.825L127.549 147.917L163.632 151.825L163.739 150.831L163.848 149.837L136.837 146.911L163.826 143.988L236.188 151.825L236.402 149.837L173.114 142.982L200.256 140.044V138.056L173.114 135.116L236.402 128.263L236.188 126.274L163.826 134.11L136.837 131.188L163.848 128.263L163.739 127.269L163.632 126.274L127.549 130.182L91.4648 126.274L91.25 128.263L118.262 131.188L91.2676 134.11L18.9023 126.274L18.6875 128.263ZM154.539 142.982L127.549 145.905L100.556 142.982L127.545 140.06L154.539 142.982ZM190.861 139.05L163.827 141.977L136.793 139.05L163.827 136.122L190.861 139.05ZM118.298 139.05L91.2676 141.977L64.2373 139.05L91.2676 136.122L118.298 139.05ZM154.539 135.116L127.545 138.039L100.556 135.116L127.549 132.193L154.539 135.116Z" fill="currentColor"/>
<path d="M18.6875 150.263L81.9805 157.116L54.8418 160.056V162.044L81.9805 164.982L18.6875 171.837L18.9023 173.825L91.2676 165.988L118.262 168.911L91.25 171.837L91.4648 173.825L127.549 169.917L163.632 173.825L163.739 172.831L163.848 171.837L136.837 168.911L163.826 165.988L236.188 173.825L236.402 171.837L173.114 164.982L200.256 162.044V160.056L173.114 157.116L236.402 150.263L236.188 148.274L163.826 156.11L136.837 153.188L163.848 150.263L163.739 149.269L163.632 148.274L127.549 152.182L91.4648 148.274L91.25 150.263L118.262 153.188L91.2676 156.11L18.9023 148.274L18.6875 150.263ZM154.539 164.982L127.549 167.905L100.556 164.982L127.545 162.06L154.539 164.982ZM190.861 161.05L163.827 163.977L136.793 161.05L163.827 158.122L190.861 161.05ZM118.298 161.05L91.2676 163.977L64.2373 161.05L91.2676 158.122L118.298 161.05ZM154.539 157.116L127.545 160.039L100.556 157.116L127.549 154.193L154.539 157.116Z" fill="currentColor"/>
<path d="M237.312 193.737L174.02 186.884L201.158 183.944V181.956L174.02 179.018L237.312 172.163L237.098 170.175L164.732 178.012L137.738 175.089L164.75 172.163L164.535 170.175L128.451 174.083L92.3682 170.175L92.2607 171.169L92.1523 172.163L119.163 175.089L92.1738 178.012L19.8125 170.175L19.5977 172.163L82.8857 179.018L55.7441 181.956V183.944L82.8857 186.884L19.5977 193.737L19.8125 195.726L92.1738 187.89L119.163 190.812L92.1523 193.737L92.2607 194.731L92.3682 195.726L128.451 191.818L164.535 195.726L164.75 193.737L137.738 190.812L164.732 187.89L237.098 195.726L237.312 193.737ZM101.461 179.018L128.451 176.095L155.444 179.018L128.455 181.94L101.461 179.018ZM65.1387 182.95L92.1729 180.023L119.207 182.95L92.1729 185.878L65.1387 182.95ZM137.702 182.95L164.732 180.023L191.763 182.95L164.732 185.878L137.702 182.95ZM101.461 186.884L128.455 183.961L155.444 186.884L128.451 189.807L101.461 186.884Z" fill="currentColor"/>
<path d="M237.312 215.737L174.02 208.884L201.158 205.944V203.956L174.02 201.018L237.312 194.163L237.098 192.175L164.732 200.012L137.738 197.089L164.75 194.163L164.535 192.175L128.451 196.083L92.3682 192.175L92.2607 193.169L92.1523 194.163L119.163 197.089L92.1738 200.012L19.8125 192.175L19.5977 194.163L82.8857 201.018L55.7441 203.956V205.944L82.8857 208.884L19.5977 215.737L19.8125 217.726L92.1738 209.89L119.163 212.812L92.1523 215.737L92.2607 216.731L92.3682 217.726L128.451 213.818L164.535 217.726L164.75 215.737L137.738 212.812L164.732 209.89L237.098 217.726L237.312 215.737ZM101.461 201.018L128.451 198.095L155.444 201.018L128.455 203.94L101.461 201.018ZM65.1387 204.95L92.1729 202.023L119.207 204.95L92.1729 207.878L65.1387 204.95ZM137.702 204.95L164.732 202.023L191.763 204.95L164.732 207.878L137.702 204.95ZM101.461 208.884L128.455 205.961L155.444 208.884L128.451 211.807L101.461 208.884Z" fill="currentColor"/>
<path d="M18.6875 216.263L81.9805 223.116L54.8418 226.056V228.044L81.9805 230.982L18.6875 237.837L18.9023 239.825L91.2676 231.988L118.262 234.911L91.25 237.837L91.4648 239.825L127.549 235.917L163.632 239.825L163.739 238.831L163.848 237.837L136.837 234.911L163.826 231.988L236.188 239.825L236.402 237.837L173.114 230.982L200.256 228.044V226.056L173.114 223.116L236.402 216.263L236.188 214.274L163.826 222.11L136.837 219.188L163.848 216.263L163.739 215.269L163.632 214.274L127.549 218.182L91.4648 214.274L91.25 216.263L118.262 219.188L91.2676 222.11L18.9023 214.274L18.6875 216.263ZM154.539 230.982L127.549 233.905L100.556 230.982L127.545 228.06L154.539 230.982ZM190.861 227.05L163.827 229.977L136.793 227.05L163.827 224.122L190.861 227.05ZM118.298 227.05L91.2676 229.977L64.2373 227.05L91.2676 224.122L118.298 227.05ZM154.539 223.116L127.545 226.039L100.556 223.116L127.549 220.193L154.539 223.116Z" fill="currentColor"/>
</svg>
