<svg width="256" height="256" viewBox="0 0 256 256" fill="none" xmlns="http://www.w3.org/2000/svg">
<rect width="41.0215" height="41.0215" transform="matrix(0.910087 -0.414416 0.910087 0.414416 53.332 50)" stroke="currentColor" stroke-width="2"/>
<path d="M109.332 24.5L53.3322 50L109.332 75.5" stroke="currentColor" stroke-width="2"/>
<rect width="82.0315" height="82.0376" transform="matrix(0.910087 -0.414416 0.910087 0.414416 16.0039 50.0022)" stroke="currentColor" stroke-width="2"/>
<path d="M34.6666 41.5L53.3332 50L34.6666 58.5" stroke="currentColor" stroke-width="2"/>
<rect width="41.0215" height="41.0215" transform="matrix(-0.910087 0.414416 -0.910087 -0.414416 202.668 50)" stroke="currentColor" stroke-width="2"/>
<path d="M146.668 75.5L202.668 50L146.668 24.5" stroke="currentColor" stroke-width="2"/>
<rect width="82.0315" height="82.0376" transform="matrix(-0.910087 0.414416 -0.910087 -0.414416 239.996 49.9978)" stroke="currentColor" stroke-width="2"/>
<path d="M221.333 58.5L202.667 50L221.333 41.5" stroke="currentColor" stroke-width="2"/>
<rect width="41.0215" height="41.0215" transform="matrix(0.910087 -0.414416 0.910087 0.414416 53.332 102)" stroke="currentColor" stroke-width="2"/>
<path d="M109.332 76.5L53.3322 102L109.332 127.5" stroke="currentColor" stroke-width="2"/>
<rect width="82.0315" height="82.0376" transform="matrix(0.910087 -0.414416 0.910087 0.414416 16.0039 102.002)" stroke="currentColor" stroke-width="2"/>
<path d="M34.6666 93.5L53.3332 102L34.6666 110.5" stroke="currentColor" stroke-width="2"/>
<rect width="41.0215" height="41.0215" transform="matrix(-0.910087 0.414416 -0.910087 -0.414416 202.668 102)" stroke="currentColor" stroke-width="2"/>
<path d="M146.668 127.5L202.668 102L146.668 76.5" stroke="currentColor" stroke-width="2"/>
<rect width="82.0315" height="82.0376" transform="matrix(-0.910087 0.414416 -0.910087 -0.414416 239.996 101.998)" stroke="currentColor" stroke-width="2"/>
<path d="M221.333 110.5L202.667 102L221.333 93.5" stroke="currentColor" stroke-width="2"/>
<rect width="41.0215" height="41.0215" transform="matrix(0.910087 -0.414416 0.910087 0.414416 53.332 154)" stroke="currentColor" stroke-width="2"/>
<path d="M109.332 128.5L53.3322 154L109.332 179.5" stroke="currentColor" stroke-width="2"/>
<rect width="82.0315" height="82.0376" transform="matrix(0.910087 -0.414416 0.910087 0.414416 16.0039 154.002)" stroke="currentColor" stroke-width="2"/>
<path d="M34.6666 145.5L53.3332 154L34.6666 162.5" stroke="currentColor" stroke-width="2"/>
<rect width="41.0215" height="41.0215" transform="matrix(-0.910087 0.414416 -0.910087 -0.414416 202.668 154)" stroke="currentColor" stroke-width="2"/>
<path d="M146.668 179.5L202.668 154L146.668 128.5" stroke="currentColor" stroke-width="2"/>
<rect width="82.0315" height="82.0376" transform="matrix(-0.910087 0.414416 -0.910087 -0.414416 239.996 153.998)" stroke="currentColor" stroke-width="2"/>
<path d="M221.333 162.5L202.667 154L221.333 145.5" stroke="currentColor" stroke-width="2"/>
<rect width="41.0215" height="41.0215" transform="matrix(0.910087 -0.414416 0.910087 0.414416 53.332 206)" stroke="currentColor" stroke-width="2"/>
<path d="M109.332 180.5L53.3322 206L109.332 231.5" stroke="currentColor" stroke-width="2"/>
<rect width="82.0315" height="82.0376" transform="matrix(0.910087 -0.414416 0.910087 0.414416 16.0039 206.002)" stroke="currentColor" stroke-width="2"/>
<path d="M34.6666 197.5L53.3332 206L34.6666 214.5" stroke="currentColor" stroke-width="2"/>
<rect width="41.0215" height="41.0215" transform="matrix(-0.910087 0.414416 -0.910087 -0.414416 202.668 206)" stroke="currentColor" stroke-width="2"/>
<path d="M146.668 231.5L202.668 206L146.668 180.5" stroke="currentColor" stroke-width="2"/>
<rect width="82.0315" height="82.0376" transform="matrix(-0.910087 0.414416 -0.910087 -0.414416 239.996 205.998)" stroke="currentColor" stroke-width="2"/>
<path d="M221.333 214.5L202.667 206L221.333 197.5" stroke="currentColor" stroke-width="2"/>
</svg>
