<svg width="256" height="256" viewBox="0 0 256 256" fill="none" xmlns="http://www.w3.org/2000/svg">
<path d="M26.5 46.4833L16 60.7417L26.5 75M37 16L26.5 45.5L37 75" stroke="currentColor" stroke-width="6"/>
<path d="M55.5 44.5167L45 30.2583L55.5 16M66 75L55.5 45.5L66 16" stroke="currentColor" stroke-width="6"/>
<path d="M84.5 46.4833L95 60.7417L84.5 75M74 16L84.5 45.5L74 75" stroke="currentColor" stroke-width="6"/>
<path d="M113.5 46.4833L103 60.7417L113.5 75M124 16L113.5 45.5L124 75" stroke="currentColor" stroke-width="6"/>
<path d="M142.5 44.5167L153 30.2583L142.5 16M132 75L142.5 45.5L132 16" stroke="currentColor" stroke-width="6"/>
<path d="M171.5 46.4833L182 60.7417L171.5 75M161 16L171.5 45.5L161 75" stroke="currentColor" stroke-width="6"/>
<path d="M200.5 44.5167L190 30.2583L200.5 16M211 75L200.5 45.5L211 16" stroke="currentColor" stroke-width="6"/>
<path d="M229.5 44.5167L240 30.2583L229.5 16M219 75L229.5 45.5L219 16" stroke="currentColor" stroke-width="6"/>
<path d="M26.5 99.5167L16 85.2583L26.5 71M37 130L26.5 100.5L37 71" stroke="currentColor" stroke-width="6"/>
<path d="M55.5 101.483L45 115.742L55.5 130M66 71L55.5 100.5L66 130" stroke="currentColor" stroke-width="6"/>
<path d="M84.5 99.5167L95 85.2583L84.5 71M74 130L84.5 100.5L74 71" stroke="currentColor" stroke-width="6"/>
<path d="M113.5 99.5167L103 85.2583L113.5 71M124 130L113.5 100.5L124 71" stroke="currentColor" stroke-width="6"/>
<path d="M142.5 101.483L153 115.742L142.5 130M132 71L142.5 100.5L132 130" stroke="currentColor" stroke-width="6"/>
<path d="M171.5 99.5167L182 85.2583L171.5 71M161 130L171.5 100.5L161 71" stroke="currentColor" stroke-width="6"/>
<path d="M200.5 101.483L190 115.742L200.5 130M211 71L200.5 100.5L211 130" stroke="currentColor" stroke-width="6"/>
<path d="M229.5 101.483L240 115.742L229.5 130M219 71L229.5 100.5L219 130" stroke="currentColor" stroke-width="6"/>
<path d="M26.5 156.483L16 170.742L26.5 185M37 126L26.5 155.5L37 185" stroke="currentColor" stroke-width="6"/>
<path d="M55.5 154.517L45 140.258L55.5 126M66 185L55.5 155.5L66 126" stroke="currentColor" stroke-width="6"/>
<path d="M84.5 156.483L95 170.742L84.5 185M74 126L84.5 155.5L74 185" stroke="currentColor" stroke-width="6"/>
<path d="M113.5 156.483L103 170.742L113.5 185M124 126L113.5 155.5L124 185" stroke="currentColor" stroke-width="6"/>
<path d="M142.5 154.517L153 140.258L142.5 126M132 185L142.5 155.5L132 126" stroke="currentColor" stroke-width="6"/>
<path d="M171.5 156.483L182 170.742L171.5 185M161 126L171.5 155.5L161 185" stroke="currentColor" stroke-width="6"/>
<path d="M200.5 154.517L190 140.258L200.5 126M211 185L200.5 155.5L211 126" stroke="currentColor" stroke-width="6"/>
<path d="M229.5 154.517L240 140.258L229.5 126M219 185L229.5 155.5L219 126" stroke="currentColor" stroke-width="6"/>
<path d="M26.5 209.517L16 195.258L26.5 181M37 240L26.5 210.5L37 181" stroke="currentColor" stroke-width="6"/>
<path d="M55.5 211.483L45 225.742L55.5 240M66 181L55.5 210.5L66 240" stroke="currentColor" stroke-width="6"/>
<path d="M84.5 209.517L95 195.258L84.5 181M74 240L84.5 210.5L74 181" stroke="currentColor" stroke-width="6"/>
<path d="M113.5 209.517L103 195.258L113.5 181M124 240L113.5 210.5L124 181" stroke="currentColor" stroke-width="6"/>
<path d="M142.5 211.483L153 225.742L142.5 240M132 181L142.5 210.5L132 240" stroke="currentColor" stroke-width="6"/>
<path d="M171.5 209.517L182 195.258L171.5 181M161 240L171.5 210.5L161 181" stroke="currentColor" stroke-width="6"/>
<path d="M200.5 211.483L190 225.742L200.5 240M211 181L200.5 210.5L211 240" stroke="currentColor" stroke-width="6"/>
<path d="M229.5 211.483L240 225.742L229.5 240M219 181L229.5 210.5L219 240" stroke="currentColor" stroke-width="6"/>
</svg>
