<svg width="256" height="256" viewBox="0 0 256 256" fill="none" xmlns="http://www.w3.org/2000/svg">
<path d="M46.3346 16.7L18.168 27.2L46.3346 37.6999" stroke="currentColor" stroke-width="2"/>
<path d="M83.1667 16.7L55 27.2L83.1667 37.6999" stroke="currentColor" stroke-width="2"/>
<path d="M54.9974 39.0999L83.1641 49.5999L54.9974 60.0999" stroke="currentColor" stroke-width="2"/>
<path d="M18.1654 39.0999L46.332 49.5999L18.1654 60.0999" stroke="currentColor" stroke-width="2"/>
<path d="M46.3346 61.5L18.168 72L46.3346 82.5" stroke="currentColor" stroke-width="2"/>
<path d="M83.1667 61.5L55 72L83.1667 82.5" stroke="currentColor" stroke-width="2"/>
<path d="M46.3346 83.8999L18.168 94.3999L46.3346 104.9" stroke="currentColor" stroke-width="2"/>
<path d="M83.1667 83.8999L55 94.3999L83.1667 104.9" stroke="currentColor" stroke-width="2"/>
<path d="M54.9974 106.3L83.1641 116.8L54.9974 127.3" stroke="currentColor" stroke-width="2"/>
<path d="M18.1654 106.3L46.332 116.8L18.1654 127.3" stroke="currentColor" stroke-width="2"/>
<path d="M46.3346 128.7L18.168 139.2L46.3346 149.7" stroke="currentColor" stroke-width="2"/>
<path d="M83.1667 128.7L55 139.2L83.1667 149.7" stroke="currentColor" stroke-width="2"/>
<path d="M54.9974 151.1L83.1641 161.6L54.9974 172.1" stroke="currentColor" stroke-width="2"/>
<path d="M18.1654 151.1L46.332 161.6L18.1654 172.1" stroke="currentColor" stroke-width="2"/>
<path d="M46.3346 173.5L18.168 184L46.3346 194.5" stroke="currentColor" stroke-width="2"/>
<path d="M83.1667 173.5L55 184L83.1667 194.5" stroke="currentColor" stroke-width="2"/>
<path d="M46.3346 195.9L18.168 206.4L46.3346 216.9" stroke="currentColor" stroke-width="2"/>
<path d="M83.1667 195.9L55 206.4L83.1667 216.9" stroke="currentColor" stroke-width="2"/>
<path d="M46.3346 218.3L18.168 228.8L46.3346 239.3" stroke="currentColor" stroke-width="2"/>
<path d="M83.1667 218.3L55 228.8L83.1667 239.3" stroke="currentColor" stroke-width="2"/>
<path d="M132.329 16.7L160.496 27.2L132.329 37.6999" stroke="currentColor" stroke-width="2"/>
<path d="M95.4974 16.7L123.664 27.2L95.4974 37.6999" stroke="currentColor" stroke-width="2"/>
<path d="M123.667 39.0999L95.5 49.5999L123.667 60.0999" stroke="currentColor" stroke-width="2"/>
<path d="M160.499 39.0999L132.332 49.5999L160.499 60.0999" stroke="currentColor" stroke-width="2"/>
<path d="M132.329 61.5L160.496 72L132.329 82.5" stroke="currentColor" stroke-width="2"/>
<path d="M95.4974 61.5L123.664 72L95.4974 82.5" stroke="currentColor" stroke-width="2"/>
<path d="M132.329 83.8999L160.496 94.3999L132.329 104.9" stroke="currentColor" stroke-width="2"/>
<path d="M95.4974 83.8999L123.664 94.3999L95.4974 104.9" stroke="currentColor" stroke-width="2"/>
<path d="M123.667 106.3L95.5 116.8L123.667 127.3" stroke="currentColor" stroke-width="2"/>
<path d="M160.499 106.3L132.332 116.8L160.499 127.3" stroke="currentColor" stroke-width="2"/>
<path d="M132.329 128.7L160.496 139.2L132.329 149.7" stroke="currentColor" stroke-width="2"/>
<path d="M95.4974 128.7L123.664 139.2L95.4974 149.7" stroke="currentColor" stroke-width="2"/>
<path d="M123.667 151.1L95.5 161.6L123.667 172.1" stroke="currentColor" stroke-width="2"/>
<path d="M160.499 151.1L132.332 161.6L160.499 172.1" stroke="currentColor" stroke-width="2"/>
<path d="M132.329 173.5L160.496 184L132.329 194.5" stroke="currentColor" stroke-width="2"/>
<path d="M95.4974 173.5L123.664 184L95.4974 194.5" stroke="currentColor" stroke-width="2"/>
<path d="M132.329 195.9L160.496 206.4L132.329 216.9" stroke="currentColor" stroke-width="2"/>
<path d="M95.4974 195.9L123.664 206.4L95.4974 216.9" stroke="currentColor" stroke-width="2"/>
<path d="M132.329 218.3L160.496 228.8L132.329 239.3" stroke="currentColor" stroke-width="2"/>
<path d="M95.4974 218.3L123.664 228.8L95.4974 239.3" stroke="currentColor" stroke-width="2"/>
<path d="M209.665 16.7L237.832 27.2L209.665 37.6999" stroke="currentColor" stroke-width="2"/>
<path d="M172.833 16.7L201 27.2L172.833 37.6999" stroke="currentColor" stroke-width="2"/>
<path d="M201.003 39.0999L172.836 49.5999L201.003 60.0999" stroke="currentColor" stroke-width="2"/>
<path d="M237.835 39.0999L209.668 49.5999L237.835 60.0999" stroke="currentColor" stroke-width="2"/>
<path d="M209.665 61.5L237.832 72L209.665 82.5" stroke="currentColor" stroke-width="2"/>
<path d="M172.833 61.5L201 72L172.833 82.5" stroke="currentColor" stroke-width="2"/>
<path d="M209.665 83.8999L237.832 94.3999L209.665 104.9" stroke="currentColor" stroke-width="2"/>
<path d="M172.833 83.8999L201 94.3999L172.833 104.9" stroke="currentColor" stroke-width="2"/>
<path d="M201.003 106.3L172.836 116.8L201.003 127.3" stroke="currentColor" stroke-width="2"/>
<path d="M237.835 106.3L209.668 116.8L237.835 127.3" stroke="currentColor" stroke-width="2"/>
<path d="M209.665 128.7L237.832 139.2L209.665 149.7" stroke="currentColor" stroke-width="2"/>
<path d="M172.833 128.7L201 139.2L172.833 149.7" stroke="currentColor" stroke-width="2"/>
<path d="M201.003 151.1L172.836 161.6L201.003 172.1" stroke="currentColor" stroke-width="2"/>
<path d="M237.835 151.1L209.668 161.6L237.835 172.1" stroke="currentColor" stroke-width="2"/>
<path d="M209.665 173.5L237.832 184L209.665 194.5" stroke="currentColor" stroke-width="2"/>
<path d="M172.833 173.5L201 184L172.833 194.5" stroke="currentColor" stroke-width="2"/>
<path d="M209.665 195.9L237.832 206.4L209.665 216.9" stroke="currentColor" stroke-width="2"/>
<path d="M172.833 195.9L201 206.4L172.833 216.9" stroke="currentColor" stroke-width="2"/>
<path d="M209.665 218.3L237.832 228.8L209.665 239.3" stroke="currentColor" stroke-width="2"/>
<path d="M172.833 218.3L201 228.8L172.833 239.3" stroke="currentColor" stroke-width="2"/>
</svg>
