<svg width="640" height="800" viewBox="0 0 640 800" fill="none" xmlns="http://www.w3.org/2000/svg">
<path d="M591.995 400.772C591.582 433.428 564.981 459.773 532.227 459.773H432C429.899 459.773 427.818 459.946 425.877 460.279C423.936 460.613 422.172 461.102 420.687 461.719C419.201 462.335 418.022 463.067 417.218 463.873C416.414 464.679 416 465.543 416 466.415C416 467.287 416.414 468.151 417.218 468.957C418.022 469.763 419.201 470.495 420.687 471.111C422.172 471.728 423.936 472.217 425.877 472.551C427.818 472.885 429.899 473.057 432 473.057H576C584.837 473.057 592.101 480.254 591.05 489.028C583.161 554.857 527.125 605.887 459.17 605.887H432C429.899 605.887 427.818 606.059 425.877 606.393C423.936 606.726 422.172 607.215 420.687 607.832C419.201 608.449 418.022 609.181 417.218 609.986C416.414 610.792 416 611.656 416 612.528C416 613.4 416.414 614.265 417.218 615.07C418.022 615.876 419.201 616.608 420.687 617.225C422.172 617.841 423.936 618.33 425.877 618.664C427.818 618.998 429.899 619.17 432 619.17H576C584.837 619.17 592.101 626.367 591.05 635.141C583.161 700.971 527.125 752 459.17 752H331.773C304.236 752 281.048 733.379 274.115 708.042C271.782 699.519 279.163 692.227 288 692.227H432C434.101 692.227 436.182 692.054 438.123 691.721C440.064 691.387 441.828 690.898 443.313 690.281C444.799 689.665 445.978 688.933 446.782 688.127C447.586 687.321 448 686.457 448 685.585C448 684.713 447.586 683.849 446.782 683.043C445.978 682.237 444.799 681.505 443.313 680.889C441.828 680.272 440.064 679.783 438.123 679.449C436.182 679.115 434.101 678.943 432 678.943H180.83C112.875 678.943 56.8389 627.914 48.9503 562.084C47.8989 553.31 55.1635 546.113 64 546.113H432C434.101 546.113 436.182 545.941 438.123 545.607C440.064 545.274 441.828 544.785 443.313 544.168C444.799 543.551 445.978 542.819 446.782 542.014C447.586 541.208 448 540.344 448 539.472C448 538.6 447.586 537.735 446.782 536.93C445.978 536.124 444.799 535.392 443.313 534.775C441.828 534.159 440.064 533.67 438.123 533.336C436.182 533.002 434.101 532.83 432 532.83H180.83C107.47 532.83 48.0001 473.36 48 400C48 366.988 74.7615 340.227 107.773 340.227H208C210.101 340.227 212.182 340.054 214.123 339.721C216.064 339.387 217.828 338.898 219.313 338.281C220.799 337.665 221.978 336.933 222.782 336.127C223.586 335.321 224 334.457 224 333.585C224 332.713 223.586 331.849 222.782 331.043C221.978 330.237 220.799 329.505 219.313 328.889C217.828 328.272 216.064 327.783 214.123 327.449C212.182 327.115 210.101 326.943 208 326.943H64C55.1635 326.943 47.8989 319.746 48.9503 310.972C56.8389 245.143 112.875 194.113 180.83 194.113H208C210.101 194.113 212.182 193.941 214.123 193.607C216.064 193.274 217.828 192.785 219.313 192.168C220.799 191.551 221.978 190.819 222.782 190.014C223.586 189.208 224 188.344 224 187.472C224 186.6 223.586 185.735 222.782 184.93C221.978 184.124 220.799 183.392 219.313 182.775C217.828 182.159 216.064 181.67 214.123 181.336C212.182 181.002 210.101 180.83 208 180.83H64C55.1635 180.83 47.8989 173.633 48.9503 164.859C56.8389 99.0295 112.875 48 180.83 48H308.227C335.764 48.0001 358.952 66.6211 365.885 91.9582C368.218 100.481 360.837 107.773 352 107.773H208C205.899 107.773 203.818 107.946 201.877 108.279C199.936 108.613 198.172 109.102 196.687 109.719C195.201 110.335 194.022 111.067 193.218 111.873C192.414 112.679 192 113.543 192 114.415C192 115.287 192.414 116.151 193.218 116.957C194.022 117.763 195.201 118.495 196.687 119.111C198.172 119.728 199.936 120.217 201.877 120.551C203.818 120.885 205.899 121.057 208 121.057H459.17C527.125 121.057 583.161 172.086 591.05 237.916C592.101 246.69 584.837 253.887 576 253.887H208C205.899 253.887 203.818 254.059 201.877 254.393C199.936 254.726 198.172 255.215 196.687 255.832C195.201 256.449 194.022 257.181 193.218 257.986C192.414 258.792 192 259.656 192 260.528C192 261.4 192.414 262.265 193.218 263.07C194.022 263.876 195.201 264.608 196.687 265.225C198.172 265.841 199.936 266.33 201.877 266.664C203.818 266.998 205.899 267.17 208 267.17H459.17C532.53 267.17 592 326.64 592 400L591.995 400.772Z" fill="currentColor"/>
</svg>
