<svg width="520" height="300" viewBox="0 0 520 300" fill="none" xmlns="http://www.w3.org/2000/svg">
<rect width="520" height="300" fill="white"/>
<path d="M451.702 118.324C451.795 118.325 452.235 118.7 452.679 119.158C453.122 119.615 453.485 120.045 453.487 120.116C453.487 120.187 453.318 120.625 453.113 121.091C452.907 121.558 452.236 122.878 451.623 124.026C451.01 125.174 450.307 126.485 450.061 126.938C449.816 127.391 449.024 128.845 448.303 130.169C447.581 131.493 446.453 133.574 445.796 134.793C445.139 136.013 444.261 137.637 443.845 138.404C443.429 139.17 442.952 140.055 442.785 140.368C442.618 140.683 441.418 142.935 440.119 145.373C437.757 149.806 437.756 149.807 437.818 150.44C437.891 151.191 437.447 152.193 438.489 152.747C439.531 153.3 443.208 146.919 444.21 146.422C445.732 145.667 446.171 145.199 447.498 144.069C448.08 143.574 449.133 142.616 449.838 141.941C450.543 141.265 451.722 140.03 452.457 139.197C453.193 138.364 454.045 137.303 454.352 136.84C454.658 136.378 454.96 135.998 455.021 135.997C455.48 135.986 456.669 136.487 456.994 136.856C457.052 136.924 456.98 137.263 456.817 137.681C456.665 138.072 456.268 138.779 455.935 139.252C455.603 139.725 454.98 140.71 454.551 141.442C454.123 142.173 453.331 143.627 452.792 144.673C452.252 145.718 451.266 147.776 450.601 149.247C449.935 150.718 449.159 152.543 448.876 153.302C448.594 154.061 448.242 155.081 448.094 155.569C447.947 156.056 447.755 156.726 447.668 157.057C447.581 157.388 447.553 157.658 447.605 157.659C447.658 157.657 447.961 157.282 448.278 156.823C448.596 156.362 449.16 155.436 449.53 154.763C449.897 154.097 450.207 153.537 450.224 153.511C450.236 153.494 450.688 153.649 451.229 153.857C451.769 154.065 452.23 154.257 452.256 154.284C452.278 154.313 452.171 154.719 452.016 155.188C451.86 155.658 451.55 156.385 451.325 156.805C451.101 157.225 450.557 158.116 450.117 158.786C449.676 159.455 449.032 160.304 448.686 160.674C448.34 161.042 447.88 161.429 447.663 161.532C447.292 161.709 447.209 161.697 446.24 161.333C445.668 161.117 445.127 160.829 445.018 160.682C444.888 160.506 444.823 160.202 444.823 159.767C444.823 159.409 444.897 158.717 444.987 158.229C445.076 157.741 445.321 156.8 445.53 156.139C446.026 154.569 446.546 153.013 447.12 151.477C447.389 150.76 447.962 149.342 448.394 148.326C448.824 147.315 449.154 146.462 449.13 146.422C449.103 146.391 448.468 146.832 447.72 147.402C445.316 149.234 440.279 157.065 437.818 156.142C436.922 155.806 436.121 155.074 435.982 153.857C434.131 153.875 430.324 164.921 429.826 166.595C429.482 167.749 424.495 182.512 424.189 183.628C423.883 184.743 423.461 186.426 423.251 187.366C423.041 188.307 422.807 189.533 422.731 190.09C422.655 190.648 422.584 191.116 422.572 191.13C422.557 191.144 422.058 191.072 421.46 190.97C420.862 190.868 420.331 190.813 420.279 190.847C420.229 190.882 419.831 190.536 419.395 190.077C418.734 189.381 418.604 189.177 418.605 188.843C418.605 188.623 418.677 188.137 418.765 187.762C418.852 187.388 419.137 186.504 419.396 185.799C421.435 180.255 422.73 176.417 425.759 168.862C426.894 166.029 428.266 163.257 429.193 160.323C429.391 159.696 430.021 157.815 430.593 156.142C431.165 154.47 431.829 152.56 432.068 151.898C432.307 151.236 432.906 149.639 433.399 148.35C433.892 147.061 434.702 144.983 435.198 143.732C435.693 142.487 436.098 141.449 436.101 141.42C436.102 141.399 436.154 141.381 436.218 141.381C436.283 141.382 436.785 141.56 437.333 141.777C438.269 142.149 438.331 142.196 438.331 142.53C438.331 142.726 438.377 142.92 438.434 142.96C438.492 142.997 438.985 142.189 439.531 141.162C440.077 140.133 440.891 138.607 441.34 137.771C441.789 136.934 442.857 134.967 443.714 133.399C444.571 131.832 445.469 130.178 445.709 129.725C445.949 129.272 446.444 128.36 446.808 127.698C447.174 127.036 447.677 126.105 447.926 125.629C448.175 125.155 448.356 124.74 448.328 124.705C448.299 124.672 448.207 124.719 448.123 124.81C448.038 124.9 447.668 125.258 447.301 125.606C446.934 125.954 446.578 126.296 446.51 126.367C446.442 126.438 445.893 126.98 445.291 127.571C444.688 128.163 443.715 129.126 443.129 129.71C442.543 130.294 441.888 130.949 441.673 131.167C441.459 131.386 440.732 132.106 440.058 132.767C439.384 133.429 438.402 134.397 437.877 134.92C437.352 135.443 436.499 136.279 435.982 136.778C435.465 137.278 434.533 138.161 433.91 138.742C433.288 139.323 432.285 140.231 431.682 140.76C431.078 141.289 430.183 142.038 429.693 142.424C429.202 142.81 428.497 143.298 428.126 143.51C427.754 143.722 427.272 143.933 427.055 143.98C426.684 144.059 426.606 144.009 425.759 143.155C425.156 142.547 424.835 142.125 424.787 141.88C424.747 141.669 424.796 141.201 424.903 140.782C425.005 140.38 425.319 139.481 425.599 138.784C425.88 138.087 426.434 136.833 426.831 135.997C427.227 135.161 428.178 133.222 428.943 131.69C429.709 130.157 430.497 128.588 430.695 128.204C430.893 127.821 431.258 127.109 431.506 126.62C431.753 126.132 432.116 125.399 432.312 124.993C432.593 124.412 432.624 124.282 432.462 124.385C432.349 124.457 431.998 124.733 431.683 124.999C431.367 125.264 429.818 126.593 428.24 127.951C426.662 129.31 425.24 130.534 425.08 130.671C424.919 130.808 423.585 131.971 422.114 133.256C420.643 134.54 419.114 135.886 418.715 136.245C418.316 136.604 416.868 137.921 415.495 139.171C414.123 140.422 412.843 141.585 412.653 141.756C412.462 141.927 411.905 142.477 411.415 142.979C410.523 143.89 410.522 143.89 409.715 143.048C408.908 142.205 408.908 142.205 409.66 141.319C410.073 140.831 410.59 140.256 410.807 140.041C411.024 139.826 411.526 139.341 411.922 138.964C412.318 138.586 412.893 138.049 413.199 137.771C413.505 137.492 413.856 137.171 413.978 137.055C414.101 136.94 414.603 136.486 415.093 136.048C415.583 135.609 416.586 134.708 417.322 134.046C418.057 133.384 418.935 132.599 419.272 132.301C419.609 132.003 420.788 130.972 421.891 130.009C422.994 129.048 424.028 128.149 424.189 128.011C424.349 127.874 425.773 126.65 427.352 125.291C428.93 123.932 430.905 122.247 431.741 121.547C432.576 120.846 433.604 120.005 434.025 119.678C434.445 119.35 434.898 119.083 435.032 119.083C435.175 119.083 435.607 119.428 436.084 119.922C436.838 120.705 436.888 120.789 436.817 121.158C436.776 121.375 436.548 121.992 436.312 122.528C436.075 123.064 434.896 125.458 433.691 127.849C432.486 130.239 430.953 133.307 430.285 134.666C429.616 136.025 428.767 137.842 428.4 138.703C428.033 139.563 427.747 140.318 427.765 140.381C427.784 140.443 428.2 140.195 428.69 139.83C429.181 139.464 430.209 138.608 430.975 137.929C431.741 137.25 432.625 136.452 432.941 136.156C433.256 135.859 433.783 135.368 434.111 135.064C434.439 134.761 434.959 134.267 435.265 133.967C435.572 133.668 436.229 133.026 436.726 132.542C437.224 132.057 437.73 131.553 437.851 131.422C437.973 131.29 438.54 130.726 439.113 130.169C439.686 129.611 440.236 129.069 440.334 128.964C440.432 128.86 440.711 128.582 440.953 128.346C441.196 128.11 441.694 127.626 442.059 127.269C442.425 126.913 443.202 126.137 443.786 125.545C444.371 124.952 445.144 124.182 445.504 123.834C445.864 123.485 446.371 123.001 446.63 122.757C446.89 122.513 447.825 121.625 448.707 120.784C449.589 119.943 450.586 119.046 450.923 118.789C451.258 118.533 451.608 118.324 451.702 118.324Z" fill="black"/>
<path d="M394.963 180.849H392.393V119.152H394.963V180.849Z" fill="black"/>
<path fill-rule="evenodd" clip-rule="evenodd" d="M89.634 127.322C96.0357 127.322 99.1738 130.837 99.1738 137.96V161.841C99.1737 168.933 96.0356 172.448 89.634 172.448C83.2952 172.448 80.1571 168.933 80.157 161.841V137.96C80.157 130.837 83.2951 127.322 89.634 127.322ZM89.6654 132.249C87.5315 132.249 86.4959 133.881 86.4959 137.301V162.594C86.496 165.92 87.5316 167.521 89.6654 167.521C91.7992 167.521 92.8034 165.92 92.8035 162.594V137.301C92.8035 133.881 91.7993 132.249 89.6654 132.249Z" fill="black"/>
<path d="M210.404 127.322C216.398 127.322 219.599 130.46 219.599 137.74V143.703L213.417 144.801V138.086C213.417 133.567 212.413 132.155 210.467 132.155C208.459 132.155 207.486 133.755 207.486 137.113V162.563C207.486 165.92 208.459 167.521 210.498 167.521C212.381 167.521 213.48 166.046 213.48 161.402V153.839L219.724 155.063V161.935C219.724 169.31 216.367 172.448 210.404 172.448C204.128 172.448 201.147 168.933 201.147 161.872V137.929C201.147 130.837 204.16 127.322 210.404 127.322Z" fill="black"/>
<path fill-rule="evenodd" clip-rule="evenodd" d="M332.304 127.322C338.706 127.322 341.844 130.837 341.844 137.96V161.841C341.844 168.933 338.706 172.448 332.304 172.448C325.965 172.448 322.827 168.933 322.827 161.841V137.96C322.827 130.837 325.965 127.322 332.304 127.322ZM332.336 132.249C330.202 132.249 329.166 133.881 329.166 137.301V162.594C329.166 165.92 330.202 167.521 332.336 167.521C334.47 167.521 335.474 165.92 335.474 162.594V137.301C335.474 133.881 334.47 132.249 332.336 132.249Z" fill="black"/>
<path fill-rule="evenodd" clip-rule="evenodd" d="M49.0948 171.852H42.5362L41.7517 164.697H35.8834L35.0675 171.852H28.9482L34.8792 127.918H43.0069L49.0948 171.852ZM38.4881 136.768C38.2684 142.165 37.986 145.492 37.6408 148.975L36.4169 160.209H41.1868L39.9943 148.975C39.6492 145.492 39.3667 142.165 39.1471 136.768H38.4881Z" fill="black"/>
<path d="M66.9481 151.705C67.4502 154.09 68.0151 157.291 68.6113 161.496L69.2703 161.433C68.7682 155.565 68.3602 148.881 68.3602 143.797L68.3289 127.918H74.5423V171.852H66.6657L61.3623 148.222C60.8288 145.743 60.3581 143.075 59.6363 137.96L58.9773 138.023C59.3853 143.169 59.856 151.485 59.856 156.726L59.8874 171.852H53.7053V127.918H61.7388L66.9481 151.705Z" fill="black"/>
<path d="M121.012 133.096H115.207V171.852H108.899V133.096H103.063V127.918H121.012V133.096Z" fill="black"/>
<path d="M131.868 146.025H137.485V127.918H143.793V171.852H137.485V151.046H131.868V171.852H125.56V127.918H131.868V146.025Z" fill="black"/>
<path d="M163.811 133.096H156.029V146.245H162.995V151.015H156.029V166.674H164.219V171.852H149.721V127.918H163.811V133.096Z" fill="black"/>
<path fill-rule="evenodd" clip-rule="evenodd" d="M178.369 127.918C184.206 127.918 187.093 130.868 187.093 136.799V141.004C187.093 145.397 185.336 147.971 181.915 148.692V149.226C184.708 149.948 185.744 151.297 186.215 156.946L186.654 162.563C187.093 168.211 187.501 170.188 188.443 171.193L188.349 171.852H181.507C180.943 170 180.66 167.929 180.346 162.72L180.064 157.479C179.75 152.238 179.06 151.36 176.894 151.36H175.608V171.852H169.3V127.918H178.369ZM175.608 146.496H177.71C179.844 146.496 180.786 145.397 180.786 142.73V136.705C180.786 133.943 179.844 132.876 177.71 132.876H175.608V146.496Z" fill="black"/>
<path fill-rule="evenodd" clip-rule="evenodd" d="M234.22 127.918C240.057 127.918 242.944 130.868 242.944 136.799V141.004C242.944 145.397 241.186 147.971 237.766 148.692V149.226C240.559 149.948 241.595 151.297 242.065 156.946L242.505 162.563C242.944 168.211 243.352 170.188 244.293 171.193L244.199 171.852H237.358C236.793 170 236.511 167.929 236.197 162.72L235.915 157.479C235.601 152.238 234.91 151.36 232.745 151.36H231.458V171.852H225.151V127.918H234.22ZM231.458 146.496H233.561C235.695 146.496 236.636 145.397 236.636 142.73V136.705C236.636 133.943 235.695 132.876 233.561 132.876H231.458V146.496Z" fill="black"/>
<path d="M262.9 133.096H255.117V146.245H262.084V151.015H255.117V166.674H263.308V171.852H248.81V127.918H262.9V133.096Z" fill="black"/>
<path fill-rule="evenodd" clip-rule="evenodd" d="M287.186 171.852H280.627L279.843 164.697H273.975L273.159 171.852H267.039L272.97 127.918H281.098L287.186 171.852ZM276.579 136.768C276.36 142.165 276.077 145.492 275.732 148.975L274.508 160.209H279.278L278.086 148.975C277.74 145.492 277.458 142.165 277.238 136.768H276.579Z" fill="black"/>
<path d="M306.326 133.096H300.52V171.852H294.213V133.096H288.376V127.918H306.326V133.096Z" fill="black"/>
<path d="M317.181 171.852H310.874V127.918H317.181V171.852Z" fill="black"/>
<path d="M360.702 151.705C361.204 154.09 361.769 157.291 362.365 161.496L363.024 161.433C362.522 155.565 362.114 148.881 362.114 143.797L362.082 127.918H368.296V171.852H360.419L355.116 148.222C354.582 145.743 354.112 143.075 353.39 137.96L352.731 138.023C353.139 143.169 353.61 151.485 353.61 156.726L353.641 171.852H347.459V127.918H355.492L360.702 151.705Z" fill="black"/>
<path d="M465.148 139.787C466.179 138.768 466.18 138.769 467.043 139.215C467.518 139.46 467.976 139.739 468.06 139.834C468.189 139.979 468.162 140.119 467.886 140.746C467.707 141.153 466.916 142.654 466.128 144.083C465.341 145.511 464.61 146.852 464.505 147.061C464.399 147.27 464.081 147.864 463.799 148.382C463.516 148.899 463.307 149.348 463.334 149.379C463.366 149.403 464.032 148.67 464.819 147.745C466.255 146.056 466.255 146.056 467.248 146.572C468.022 146.974 468.249 147.15 468.278 147.374C468.313 147.642 468.352 147.655 468.891 147.572C469.208 147.523 470.061 147.435 470.787 147.376C471.926 147.284 472.165 147.224 472.539 146.943C472.777 146.763 473.018 146.617 473.073 146.617C473.129 146.617 473.453 146.762 473.793 146.939C474.3 147.203 474.45 147.234 474.615 147.11C474.726 147.027 475.325 146.326 475.945 145.552C476.566 144.779 477.575 143.46 478.189 142.621C478.802 141.784 479.386 141.022 479.486 140.926C479.641 140.78 479.798 140.822 480.585 141.228C481.09 141.487 481.573 141.775 481.658 141.867C481.788 142.009 481.739 142.264 481.338 143.534C481.077 144.358 480.645 145.746 480.377 146.617C480.109 147.488 479.889 148.273 479.888 148.362C479.888 148.484 479.971 148.475 480.23 148.323C480.558 148.13 480.607 148.138 481.392 148.51C481.934 148.766 482.401 148.898 482.768 148.898C483.074 148.897 484.118 148.721 485.088 148.505C486.058 148.29 487.304 148.084 487.856 148.048C488.85 147.982 488.868 147.986 489.86 148.508C490.41 148.797 490.974 149.156 491.113 149.305C491.252 149.453 491.366 149.665 491.366 149.774C491.365 149.885 491.245 150.267 491.098 150.624C490.952 150.981 490.78 151.31 490.716 151.355C490.652 151.4 490.222 151.224 489.761 150.965C488.922 150.493 488.921 150.493 488.11 150.637C487.664 150.717 486.747 150.902 486.072 151.049C485.398 151.195 484.446 151.324 483.955 151.337C483.196 151.355 482.966 151.308 482.409 151.015C482.051 150.827 481.737 150.673 481.709 150.671C481.683 150.672 481.159 151.213 480.545 151.874C479.931 152.536 479.312 153.11 479.17 153.152C478.995 153.202 478.594 153.042 477.91 152.651C477.359 152.337 476.876 151.986 476.837 151.871C476.798 151.757 476.767 151.483 476.768 151.263C476.769 151.042 476.912 150.248 477.087 149.5C477.26 148.755 477.384 148.145 477.362 148.138C477.335 148.141 476.791 148.703 476.15 149.39C475.507 150.08 474.796 150.744 474.571 150.865C474.162 151.086 474.161 151.086 473.04 150.459C471.919 149.833 471.919 149.833 470.637 149.989C469.933 150.075 469.104 150.15 468.798 150.154C468.426 150.16 468.043 150.057 467.645 149.847C467.317 149.673 466.985 149.531 466.905 149.531C466.826 149.531 465.743 150.771 464.499 152.287C463.254 153.802 461.707 155.657 461.059 156.409C460.412 157.16 459.691 157.926 459.458 158.11C459.033 158.445 459.033 158.445 458.037 157.89C457.204 157.426 457.04 157.285 457.04 157.037C457.04 156.873 457.241 156.296 457.486 155.754C457.731 155.214 457.931 154.731 457.932 154.681C457.933 154.631 458.166 154.123 458.45 153.551C458.735 152.978 459.203 152.052 459.49 151.495C459.777 150.937 460.304 149.911 460.662 149.214C461.019 148.517 461.432 147.728 461.58 147.46C461.727 147.194 461.823 146.947 461.794 146.91C461.762 146.875 461.044 147.47 460.197 148.231C459.35 148.993 458.073 150.111 457.361 150.717C456.242 151.668 456.038 151.897 455.871 152.395C455.765 152.711 455.61 152.999 455.527 153.036C455.444 153.072 454.848 152.816 454.202 152.465C453.558 152.115 453.03 151.772 453.028 151.703C453.028 151.635 453.123 151.332 453.239 151.03C453.355 150.729 453.543 150.394 453.657 150.288C453.771 150.181 454.818 149.273 455.982 148.27C457.146 147.267 458.6 145.989 459.213 145.431C459.826 144.872 461.181 143.604 462.223 142.611C463.265 141.618 464.581 140.347 465.148 139.787Z" fill="black"/>
<path d="M487.815 141.033C487.961 140.991 488.303 141.054 488.58 141.176C488.856 141.297 489.3 141.496 489.567 141.619C490.032 141.831 490.05 141.859 489.991 142.278C489.956 142.519 489.849 142.853 489.753 143.019C489.637 143.221 489.472 143.322 489.261 143.323C489.087 143.322 488.575 143.149 488.123 142.937C487.671 142.725 487.261 142.506 487.211 142.45C487.162 142.394 487.218 142.07 487.336 141.729C487.487 141.29 487.627 141.087 487.815 141.033Z" fill="black"/>
<path d="M472.209 140.409C472.324 140.41 472.848 140.651 473.374 140.947C474.289 141.462 474.328 141.501 474.268 141.844C474.233 142.042 474.101 142.37 473.974 142.573C473.847 142.776 473.641 142.942 473.517 142.942C473.392 142.942 472.869 142.681 472.354 142.362C471.839 142.043 471.418 141.727 471.417 141.659C471.418 141.591 471.499 141.354 471.598 141.131C471.698 140.908 471.83 140.655 471.891 140.567C471.952 140.48 472.095 140.409 472.209 140.409Z" fill="black"/>
<path d="M451.202 108.869C451.265 108.889 451.732 109.071 452.241 109.274C453.146 109.634 453.167 109.652 453.106 110.002C453.071 110.199 452.965 110.541 452.869 110.762C452.758 111.017 452.077 111.696 451.006 112.621C450.078 113.422 448.739 114.623 448.031 115.289C447.324 115.955 446.511 116.797 446.225 117.16C445.705 117.818 445.704 117.818 444.738 117.421C443.772 117.023 443.771 117.023 443.846 116.564C443.887 116.311 444.051 115.833 444.21 115.501C444.39 115.122 444.869 114.534 445.496 113.918C446.046 113.379 447.529 112.014 448.793 110.885C450.057 109.756 451.141 108.849 451.202 108.869Z" fill="black"/>
</svg>
