<svg width="520" height="300" viewBox="0 0 520 300" fill="none" xmlns="http://www.w3.org/2000/svg">
<rect width="520" height="300" fill="black"/>
<g opacity="0.6">
<path d="M25.9767 31H24.8441V23.6596H29.0753V24.5982H25.9767V26.9838H28.766V27.8961H25.9767V31ZM32.7975 31.1101C31.2665 31.1101 30.4801 30.1244 30.4801 28.2054V26.4595C30.4801 24.5405 31.2665 23.5495 32.7975 23.5495C34.3285 23.5495 35.115 24.5405 35.115 26.4595V28.2054C35.115 30.1244 34.3285 31.1101 32.7975 31.1101ZM32.7975 30.2345C33.5945 30.2345 33.9825 29.6368 33.9825 28.3942V26.2969C33.9825 25.0333 33.5945 24.4251 32.7975 24.4251C32.0006 24.4251 31.6126 25.0333 31.6126 26.2969V28.3942C31.6126 29.6368 32.0006 30.2345 32.7975 30.2345ZM38.8057 31.1153C37.3481 31.1153 36.5984 30.4442 36.5984 29.1072V23.6596H37.7309V29.0338C37.7309 29.8465 38.0926 30.2397 38.8057 30.2397C39.524 30.2397 39.8805 29.8465 39.8805 29.0338V23.6596H41.013V29.1072C41.013 30.4442 40.2685 31.1153 38.8057 31.1153ZM43.6761 31H42.6432V23.6596H43.9278L45.5689 28.0324C45.7314 28.4623 45.8415 28.8765 45.9726 29.4428L46.0827 29.4376C46.0093 28.6773 45.9569 27.9223 45.9569 27.2669V23.6596H46.9845V31H45.7262L44.1008 26.6902C43.9278 26.234 43.8072 25.8251 43.6604 25.1801L43.5555 25.1906C43.6237 25.9089 43.6709 26.7793 43.6709 27.4557L43.6761 31ZM50.6071 31H48.6724V23.6596H50.6071C52.3216 23.6596 53.1343 24.6558 53.1343 26.7216V27.9485C53.1343 30.0091 52.3216 31 50.6071 31ZM49.8049 24.551V30.1087H50.5599C51.5561 30.1087 51.986 29.5319 51.986 28.2002V26.47C51.986 25.1277 51.5561 24.551 50.5599 24.551H49.8049ZM58.9589 31H54.7907V23.6596H58.8751V24.6191H55.9232V26.7111H58.3822V27.6025H55.9232V30.0353H58.9589V31ZM61.8003 31H60.6625V23.6596H62.8804C64.2803 23.6596 65.03 24.2993 65.03 25.4843V25.6573C65.03 26.5538 64.5162 27.1201 63.5777 27.2302V27.3351C64.144 27.4976 64.3694 27.7598 64.5739 28.6354L64.7731 29.511C64.9776 30.3918 65.1454 30.7011 65.3918 30.8794L65.3761 31H64.0706C63.8923 30.7064 63.7927 30.3446 63.6301 29.5267L63.4624 28.7192C63.2946 27.9066 63.0901 27.6759 62.4714 27.6759H61.8003V31ZM61.8003 24.5562V26.8108H62.7545C63.5253 26.8108 63.8871 26.4857 63.8871 25.8041V25.5577C63.8871 24.8708 63.5253 24.5562 62.7545 24.5562H61.8003ZM75.6727 28.52H74.0369V27.0886H75.6727V28.52ZM86.6562 31H84.7215V23.6596H86.6562C88.3707 23.6596 89.1834 24.6558 89.1834 26.7216V27.9485C89.1834 30.0091 88.3707 31 86.6562 31ZM85.854 24.551V30.1087H86.609C87.6052 30.1087 88.0351 29.5319 88.0351 28.2002V26.47C88.0351 25.1277 87.6052 24.551 86.609 24.551H85.854ZM95.008 31H90.8398V23.6596H94.9242V24.6191H91.9723V26.7111H94.4313V27.6025H91.9723V30.0353H95.008V31ZM98.9504 31.1153C97.4929 31.1153 96.6644 30.3603 96.6225 28.6196L97.7026 28.4099C97.7183 29.8046 98.1273 30.2712 98.9819 30.2712C99.632 30.2712 100.046 29.878 100.046 29.2855C100.046 28.7507 99.7264 28.3889 98.9504 27.9013L98.1902 27.419C97.3775 26.9051 96.806 26.3913 96.8113 25.4004C96.8165 24.2888 97.6134 23.5443 98.8403 23.5443C100.214 23.5443 100.953 24.2888 100.985 25.8513L99.9571 26.0453C99.9466 24.8393 99.5849 24.3832 98.8351 24.3832C98.2531 24.3832 97.8704 24.745 97.8704 25.2903C97.8704 25.7621 98.1168 26.0767 98.9452 26.5801L99.7054 27.0467C100.481 27.5238 101.153 28.0796 101.153 29.1439C101.153 30.3184 100.282 31.1153 98.9504 31.1153ZM107.098 31H102.694V30.1034H104.329V24.5562H102.694V23.6596H107.098V24.5562H105.467V30.1034H107.098V31ZM110.595 31.0891C109.336 31.0891 108.676 30.0825 108.676 28.1425V26.4857C108.676 24.551 109.446 23.5495 110.988 23.5495C112.293 23.5495 113.096 24.2521 113.127 25.9299V25.9456L112.063 26.1659V26.1449C112.052 24.8184 111.675 24.4147 111.009 24.4147C110.201 24.4147 109.813 25.0386 109.813 26.3389V28.2421C109.813 29.5896 110.165 30.2135 110.904 30.2135C111.627 30.2135 112.052 29.5844 112.199 28.0376H111.045V27.1778H113.19V31H112.257C112.241 30.633 112.299 30.2293 112.503 29.3746L112.393 29.3484C112.036 30.5229 111.517 31.0891 110.595 31.0891ZM115.774 31H114.741V23.6596H116.026L117.667 28.0324C117.83 28.4623 117.94 28.8765 118.071 29.4428L118.181 29.4376C118.108 28.6773 118.055 27.9223 118.055 27.2669V23.6596H119.083V31H117.824L116.199 26.6902C116.026 26.234 115.905 25.8251 115.759 25.1801L115.654 25.1906C115.722 25.9089 115.769 26.7793 115.769 27.4557L115.774 31ZM125.049 31H120.881V23.6596H124.965V24.6191H122.013V26.7111H124.472V27.6025H122.013V30.0353H125.049V31ZM127.89 31H126.753V23.6596H128.97C130.37 23.6596 131.12 24.2993 131.12 25.4843V25.6573C131.12 26.5538 130.606 27.1201 129.668 27.2302V27.3351C130.234 27.4976 130.459 27.7598 130.664 28.6354L130.863 29.511C131.068 30.3918 131.235 30.7011 131.482 30.8794L131.466 31H130.161C129.982 30.7064 129.883 30.3446 129.72 29.5267L129.552 28.7192C129.385 27.9066 129.18 27.6759 128.561 27.6759H127.89V31ZM127.89 24.5562V26.8108H128.845C129.615 26.8108 129.977 26.4857 129.977 25.8041V25.5577C129.977 24.8708 129.615 24.5562 128.845 24.5562H127.89Z" fill="white"/>
</g>
<path d="M30.4595 46.33H28.558L29.9562 43.282H32.6826L30.4595 46.33ZM30.823 67.1067H28.0826V59.6685L24.1957 47.5324H27.062L28.6 52.9014C28.9215 53.9919 29.1313 55.1384 29.3829 56.5645H29.6626C29.9002 55.1384 30.124 54.0059 30.4315 52.9014L31.9416 47.5324H34.7099L30.823 59.6685V67.1067ZM37.716 67.1067H35.0595V52.426H37.73C37.7579 53.1251 37.6321 53.7403 37.1567 55.1943L37.4084 55.3062C38.3312 52.9853 39.1701 52.2442 40.9877 52.0764L41.3792 54.663C38.3451 54.9427 37.716 55.8095 37.716 59.4028V67.1067ZM48.8873 67.1067H46.1469V47.5324H48.8873V50.9719H50.7468C53.8368 50.9719 55.3887 52.5518 55.3887 55.7117V58.522C55.3887 61.6399 53.8228 63.2198 50.7468 63.2198H48.8873V67.1067ZM48.8873 53.1111V61.0806H50.4672C51.9632 61.0806 52.6763 60.3116 52.6763 58.6478V55.5719C52.6763 53.8801 51.9632 53.1111 50.4672 53.1111H48.8873ZM59.6112 67.1067H56.9547V52.426H59.6252C59.6531 53.1251 59.5273 53.7403 59.0519 55.1943L59.3036 55.3062C60.2264 52.9853 61.0653 52.2442 62.8829 52.0764L63.2744 54.663C60.2404 54.9427 59.6112 55.8095 59.6112 59.4028V67.1067ZM66.7977 67.3723C65.0081 67.3723 63.9874 66.1699 63.9874 64.1705V63.6532C63.9874 60.773 65.7072 59.6824 67.6366 58.8575L69.5661 58.0466V55.7536C69.5661 54.6211 69.1746 54.0758 68.3078 54.0758C67.2452 54.0758 66.8257 54.8448 66.8677 57.1518V57.9487L64.2531 57.5992V56.8861C64.2111 53.7542 65.5534 52.1603 68.3357 52.1603C70.8944 52.1603 72.2226 53.3628 72.2226 55.7396V64.2824C72.2226 65.1493 72.3764 65.2751 73.3272 65.317L72.9776 67.3024C72.8098 67.3584 72.5442 67.3723 72.3484 67.3723C70.4469 67.3723 69.9716 66.5195 70.3631 64.4642L70.0974 64.4082C69.636 66.3377 68.5175 67.3723 66.7977 67.3723ZM67.7765 65.317C68.8251 65.317 69.5661 64.2964 69.5661 62.5627V59.99L68.5175 60.4514C67.4689 60.8988 66.6719 61.6399 66.6719 63.1639V63.7231C66.6719 64.7578 67.0634 65.317 67.7765 65.317ZM78.2906 67.3863C75.6062 67.3863 74.0962 66.0441 74.0962 63.0241V62.6186L76.5989 62.0593V62.6326C76.5989 64.7019 77.1721 65.4848 78.2906 65.4848C79.1994 65.4848 79.6888 64.9815 79.6888 64.0028C79.6888 62.8703 79.1855 62.0174 77.8432 60.8849L76.515 59.7663C75.1867 58.6198 74.2639 57.3475 74.2639 55.7117C74.2639 53.3907 75.5782 52.1743 78.053 52.1743C80.6256 52.1743 81.9958 53.3767 81.9958 56.1032V56.4807L79.507 56.984V56.4527C79.507 54.6071 79.0177 54.0758 78.0669 54.0758C77.2141 54.0758 76.7666 54.4813 76.7666 55.2922C76.7666 56.2709 77.2001 57.0259 78.5143 58.1305L79.8426 59.2211C81.1569 60.3116 82.3034 61.542 82.3034 63.6952C82.3034 66.072 80.8772 67.3863 78.2906 67.3863ZM87.5465 67.3444C85.5471 67.3444 84.5404 66.3377 84.5404 64.1146V54.4673H82.9745V52.426H84.5404V49.0844L87.2109 48.1896V52.426H89.8954V54.4673H87.2109V63.863C87.2109 64.7997 87.5744 65.1632 88.3434 65.1632C88.8048 65.1632 89.3501 65.0374 89.9094 64.8137L89.7276 66.8271C89.1683 67.1486 88.3434 67.3444 87.5465 67.3444ZM93.6984 67.3723C91.9087 67.3723 90.8881 66.1699 90.8881 64.1705V63.6532C90.8881 60.773 92.6078 59.6824 94.5373 58.8575L96.4667 58.0466V55.7536C96.4667 54.6211 96.0753 54.0758 95.2084 54.0758C94.1458 54.0758 93.7263 54.8448 93.7683 57.1518V57.9487L91.1537 57.5992V56.8861C91.1118 53.7542 92.454 52.1603 95.2364 52.1603C97.795 52.1603 99.1233 53.3628 99.1233 55.7396V64.2824C99.1233 65.1493 99.2771 65.2751 100.228 65.317L99.8783 67.3024C99.7105 67.3584 99.4448 67.3723 99.2491 67.3723C97.3476 67.3723 96.8722 66.5195 97.2637 64.4642L96.998 64.4082C96.5367 66.3377 95.4181 67.3723 93.6984 67.3723ZM94.6771 65.317C95.7257 65.317 96.4667 64.2964 96.4667 62.5627V59.99L95.4181 60.4514C94.3695 60.8988 93.5726 61.6399 93.5726 63.1639V63.7231C93.5726 64.7578 93.964 65.317 94.6771 65.317ZM104.157 67.1067H101.5V52.426H104.171C104.199 53.1251 104.073 53.7403 103.597 55.1943L103.849 55.3062C104.772 52.9853 105.611 52.2442 107.428 52.0764L107.82 54.663C104.786 54.9427 104.157 55.8095 104.157 59.4028V67.1067ZM111.847 67.3024C109.763 67.3024 108.659 65.7085 108.659 62.6466V56.8861C108.659 53.8241 109.777 52.2302 111.805 52.2302C113.524 52.2302 114.503 53.2509 115.09 55.0825L115.356 54.9706C114.881 53.4606 114.727 52.426 114.727 51.2236V47.5324H117.383V67.1067H114.853C114.853 66.6313 115.006 65.8623 115.398 64.562L115.132 64.4642C114.489 66.3237 113.552 67.3024 111.847 67.3024ZM112.881 65.3869C114.07 65.3869 114.727 64.1146 114.727 61.7937V57.753C114.727 55.432 114.07 54.1457 112.895 54.1457C111.847 54.1457 111.343 55.0545 111.343 56.9141V62.6186C111.343 64.4781 111.847 65.3869 112.881 65.3869ZM124.528 51.2096H122.654L123.941 47.5324H126.527L124.528 51.2096ZM123.563 67.3863C120.697 67.3863 119.173 65.5407 119.173 62.311V57.2217C119.173 53.9919 120.697 52.1464 123.563 52.1464C126.429 52.1464 127.967 53.9919 127.967 57.2217V62.311C127.967 65.5407 126.429 67.3863 123.563 67.3863ZM123.563 65.4289C124.696 65.4289 125.255 64.5061 125.255 62.5906V56.956C125.255 55.0126 124.696 54.1038 123.563 54.1038C122.431 54.1038 121.885 55.0126 121.885 56.956V62.5906C121.885 64.5061 122.431 65.4289 123.563 65.4289ZM133.448 67.3444C131.435 67.3444 130.428 66.3377 130.428 64.1146V54.4673H128.862V52.426H130.428V49.0844L133.099 48.1896V52.426H135.07V54.4673H133.099V63.863C133.099 64.7997 133.476 65.1632 134.273 65.1632C134.72 65.1632 135.28 65.0374 135.839 64.8137L135.657 66.8271C135.098 67.1486 134.259 67.3444 133.448 67.3444ZM140.425 67.3444C138.426 67.3444 137.419 66.3377 137.419 64.1146V54.4673H135.853V52.426H137.419V49.0844L140.089 48.1896V52.426H142.774V54.4673H140.089V63.863C140.089 64.7997 140.453 65.1632 141.222 65.1632C141.683 65.1632 142.229 65.0374 142.788 64.8137L142.606 66.8271C142.047 67.1486 141.222 67.3444 140.425 67.3444ZM146.982 50.6783H144.018V48.0497H146.982V50.6783ZM146.829 67.1067H144.172V52.426H146.829V67.1067ZM151.526 67.1067H148.87V52.426H151.54C151.568 53.1251 151.442 53.7403 150.967 55.1943L151.219 55.3062C152.142 52.9853 152.98 52.2442 154.798 52.0764L155.19 54.663C152.156 54.9427 151.526 55.8095 151.526 59.4028V67.1067Z" fill="white"/>
<g opacity="0.8">
<path d="M25.7722 240.524H24.8808V233.184H25.7722V234.904C25.7722 235.365 25.7145 235.774 25.5153 236.414L25.6201 236.445C26.0081 235.375 26.5744 234.925 27.3766 234.925C28.2574 234.925 28.7188 235.423 28.7188 236.335V240.524H27.8275V236.497C27.8275 235.91 27.5548 235.585 27.062 235.585C26.3017 235.585 25.7722 236.44 25.7722 237.656V240.524ZM34.0034 238.705L34.8843 238.878C34.7375 240.021 33.9877 240.64 32.8814 240.64C31.4605 240.64 30.7055 239.67 30.7055 237.913V237.619C30.7055 235.863 31.4553 234.904 32.8709 234.904C34.1555 234.904 34.8685 235.748 34.8685 237.279C34.8685 237.478 34.8528 237.688 34.8318 237.882H31.6073V238.034C31.6073 239.36 32.0215 240.005 32.8762 240.005C33.5473 240.005 33.93 239.601 34.0034 238.705ZM32.8709 235.527C32.074 235.527 31.6598 236.109 31.6126 237.279H33.9667V237.163C33.9667 236.062 33.6102 235.527 32.8709 235.527ZM40.0011 240.629C38.8634 240.629 38.3338 239.968 38.3338 238.5V233.918H36.4515V233.184H39.2251V238.427C39.2251 239.418 39.5659 239.832 40.2633 239.832C40.6303 239.832 41.0183 239.748 41.2909 239.559L41.228 240.309C40.9554 240.503 40.5307 240.629 40.0011 240.629ZM46.0093 240.629C44.8716 240.629 44.342 239.968 44.342 238.5V233.918H42.4597V233.184H45.2333V238.427C45.2333 239.418 45.5741 239.832 46.2715 239.832C46.6385 239.832 47.0265 239.748 47.2991 239.559L47.2362 240.309C46.9636 240.503 46.5389 240.629 46.0093 240.629ZM50.8221 240.634C49.4746 240.634 48.7301 239.664 48.7301 237.992V237.551C48.7301 235.874 49.4746 234.909 50.8221 234.909C52.1695 234.909 52.9141 235.874 52.9141 237.551V237.992C52.9141 239.664 52.1695 240.634 50.8221 240.634ZM50.8221 240.005C51.6033 240.005 51.986 239.381 51.986 238.086V237.457C51.986 236.157 51.6033 235.533 50.8221 235.533C50.0408 235.533 49.6581 236.157 49.6581 237.457V238.086C49.6581 239.381 50.0408 240.005 50.8221 240.005ZM56.9771 241.657C55.2835 241.657 54.366 240.776 54.366 239.13V236.377C54.366 234.715 55.2678 233.844 56.846 233.844C58.3979 233.844 59.2945 234.715 59.2945 236.377V238.574C59.2945 239.575 58.9275 240.141 58.2459 240.141C57.795 240.141 57.5119 239.874 57.559 239.271L57.4647 239.25C57.2654 239.837 57.0242 240.126 56.5471 240.126C56.0071 240.126 55.682 239.685 55.682 238.873V236.655C55.682 235.842 56.0071 235.402 56.5471 235.402C57.0242 235.402 57.2654 235.69 57.4647 236.277L57.5643 236.246C57.4332 235.816 57.3913 235.611 57.4017 235.486H57.9837V239.114C57.9837 239.428 58.0571 239.565 58.2302 239.565C58.4923 239.565 58.6339 239.24 58.6339 238.558V236.377C58.6339 235.087 57.9732 234.432 56.846 234.432C55.6977 234.432 55.0266 235.087 55.0266 236.377V239.135C55.0266 240.388 55.7397 241.048 56.9875 241.048C57.5066 241.048 58.0362 240.933 58.4871 240.739L58.6181 241.332C58.1672 241.536 57.601 241.657 56.9771 241.657ZM56.7778 239.617C57.1291 239.617 57.3388 239.161 57.3388 238.369V237.158C57.3388 236.366 57.1291 235.915 56.7778 235.915C56.479 235.915 56.3322 236.188 56.3322 236.76V238.768C56.3322 239.339 56.479 239.617 56.7778 239.617ZM62.0782 240.64C61.234 240.64 60.7517 240.157 60.7517 239.329V239.303C60.7517 238.264 61.6168 237.793 62.6654 237.494L63.714 237.2V236.655C63.714 235.9 63.4309 235.533 62.7703 235.533C62.01 235.533 61.6587 236.02 61.7321 237.032L60.846 236.854C60.7884 235.627 61.4805 234.904 62.7808 234.904C64.0024 234.904 64.6211 235.496 64.6211 236.618V239.413C64.6211 239.89 64.6735 239.942 65.224 239.979L65.0615 240.613C64.9724 240.629 64.8675 240.64 64.7469 240.64C63.9133 240.64 63.7298 240.199 64.0024 239.13L63.8923 239.103C63.6301 240.099 63.0115 240.64 62.0782 240.64ZM62.3823 239.947C63.1478 239.947 63.714 239.25 63.714 238.27V237.761L62.9747 237.981C62.2302 238.201 61.6849 238.563 61.6849 239.198V239.224C61.6849 239.675 61.9471 239.947 62.3823 239.947ZM67.8294 240.524H66.9381V235.019H67.8557C67.8399 235.365 67.7718 235.753 67.5778 236.414L67.6774 236.445C68.0654 235.375 68.6316 234.925 69.4338 234.925C70.3147 234.925 70.7761 235.423 70.7761 236.335V240.524H69.8847V236.497C69.8847 235.91 69.6121 235.585 69.1193 235.585C68.359 235.585 67.8294 236.44 67.8294 237.656V240.524ZM74.8548 240.634C73.5073 240.634 72.7628 239.664 72.7628 237.992V237.551C72.7628 235.874 73.5073 234.909 74.8548 234.909C76.2023 234.909 76.9468 235.874 76.9468 237.551V237.992C76.9468 239.664 76.2023 240.634 74.8548 240.634ZM74.8548 240.005C75.636 240.005 76.0188 239.381 76.0188 238.086V237.457C76.0188 236.157 75.636 235.533 74.8548 235.533C74.0736 235.533 73.6908 236.157 73.6908 237.457V238.086C73.6908 239.381 74.0736 240.005 74.8548 240.005ZM81.7281 240.629C80.5536 240.629 79.9821 239.942 79.9821 238.5V235.748H78.4459V235.019H79.9821V233.567L80.8735 233.294V235.019H83.2224V235.748H80.8735V238.427C80.8735 239.434 81.2352 239.848 81.9693 239.848C82.394 239.848 82.8501 239.764 83.1752 239.559L83.1123 240.309C82.8029 240.503 82.3258 240.629 81.7281 240.629ZM85.854 240.524H84.9627V233.184H85.854V234.904C85.854 235.365 85.7963 235.774 85.5971 236.414L85.7019 236.445C86.0899 235.375 86.6562 234.925 87.4584 234.925C88.3392 234.925 88.8006 235.423 88.8006 236.335V240.524H87.9093V236.497C87.9093 235.91 87.6367 235.585 87.1438 235.585C86.3835 235.585 85.854 236.44 85.854 237.656V240.524ZM94.0853 238.705L94.9661 238.878C94.8193 240.021 94.0695 240.64 92.9632 240.64C91.5424 240.64 90.7873 239.67 90.7873 237.913V237.619C90.7873 235.863 91.5371 234.904 92.9527 234.904C94.2373 234.904 94.9504 235.748 94.9504 237.279C94.9504 237.478 94.9346 237.688 94.9137 237.882H91.6892V238.034C91.6892 239.36 92.1034 240.005 92.958 240.005C93.6291 240.005 94.0119 239.601 94.0853 238.705ZM92.9527 235.527C92.1558 235.527 91.7416 236.109 91.6944 237.279H94.0486V237.163C94.0486 236.062 93.692 235.527 92.9527 235.527ZM100.812 240.524H96.6173V239.785H97.9647V235.753H96.6697V235.019H98.8508C98.8561 235.391 98.8036 235.716 98.6201 236.576L98.7302 236.613C99.1969 235.396 99.8732 234.914 100.99 234.867L101.163 235.879C99.6111 235.915 98.8613 236.44 98.8613 238.049V239.785H100.812V240.524ZM104.932 240.64C103.543 240.64 102.804 239.664 102.804 237.84V237.609C102.804 235.853 103.574 234.904 104.948 234.904C106.133 234.904 106.809 235.611 106.935 236.948L106.033 237.106C105.971 235.999 105.64 235.533 104.932 235.533C104.125 235.533 103.732 236.172 103.732 237.509V237.945C103.732 239.339 104.13 240.005 104.948 240.005C105.63 240.005 105.997 239.538 106.075 238.548L106.998 238.71C106.846 239.968 106.117 240.64 104.932 240.64ZM112.828 240.524H108.634V239.785H109.981V235.753H108.686V235.019H110.867C110.872 235.391 110.82 235.716 110.636 236.576L110.747 236.613C111.213 235.396 111.89 234.914 113.006 234.867L113.179 235.879C111.627 235.915 110.878 236.44 110.878 238.049V239.785H112.828V240.524ZM118.118 238.705L118.999 238.878C118.852 240.021 118.102 240.64 116.996 240.64C115.575 240.64 114.82 239.67 114.82 237.913V237.619C114.82 235.863 115.57 234.904 116.985 234.904C118.27 234.904 118.983 235.748 118.983 237.279C118.983 237.478 118.967 237.688 118.946 237.882H115.722V238.034C115.722 239.36 116.136 240.005 116.991 240.005C117.662 240.005 118.045 239.601 118.118 238.705ZM116.985 235.527C116.189 235.527 115.774 236.109 115.727 237.279H118.081V237.163C118.081 236.062 117.725 235.527 116.985 235.527ZM122.16 240.64C121.316 240.64 120.833 240.157 120.833 239.329V239.303C120.833 238.264 121.699 237.793 122.747 237.494L123.796 237.2V236.655C123.796 235.9 123.513 235.533 122.852 235.533C122.092 235.533 121.741 236.02 121.814 237.032L120.928 236.854C120.87 235.627 121.562 234.904 122.863 234.904C124.084 234.904 124.703 235.496 124.703 236.618V239.413C124.703 239.89 124.755 239.942 125.306 239.979L125.143 240.613C125.054 240.629 124.949 240.64 124.829 240.64C123.995 240.64 123.812 240.199 124.084 239.13L123.974 239.103C123.712 240.099 123.093 240.64 122.16 240.64ZM122.464 239.947C123.23 239.947 123.796 239.25 123.796 238.27V237.761L123.057 237.981C122.312 238.201 121.767 238.563 121.767 239.198V239.224C121.767 239.675 122.029 239.947 122.464 239.947ZM129.794 240.629C128.619 240.629 128.048 239.942 128.048 238.5V235.748H126.511V235.019H128.048V233.567L128.939 233.294V235.019H131.288V235.748H128.939V238.427C128.939 239.434 129.301 239.848 130.035 239.848C130.459 239.848 130.916 239.764 131.241 239.559L131.178 240.309C130.868 240.503 130.391 240.629 129.794 240.629ZM135.597 234.159H134.423V233.184H135.597V234.159ZM137.008 240.524H132.866V239.785H134.564V235.753H132.918V235.019H135.456V239.785H137.008V240.524ZM140.945 240.634C139.597 240.634 138.853 239.664 138.853 237.992V237.551C138.853 235.874 139.597 234.909 140.945 234.909C142.292 234.909 143.037 235.874 143.037 237.551V237.992C143.037 239.664 142.292 240.634 140.945 240.634ZM140.945 240.005C141.726 240.005 142.109 239.381 142.109 238.086V237.457C142.109 236.157 141.726 235.533 140.945 235.533C140.164 235.533 139.781 236.157 139.781 237.457V238.086C139.781 239.381 140.164 240.005 140.945 240.005ZM145.936 240.524H145.044V235.019H145.962C145.946 235.365 145.878 235.753 145.684 236.414L145.784 236.445C146.172 235.375 146.738 234.925 147.54 234.925C148.421 234.925 148.882 235.423 148.882 236.335V240.524H147.991V236.497C147.991 235.91 147.718 235.585 147.226 235.585C146.465 235.585 145.936 236.44 145.936 237.656V240.524ZM153.669 240.524H152.253V239.245H153.669V240.524ZM159.006 240.64C157.617 240.64 156.877 239.664 156.877 237.84V237.609C156.877 235.853 157.648 234.904 159.022 234.904C160.207 234.904 160.883 235.611 161.009 236.948L160.107 237.106C160.044 235.999 159.714 235.533 159.006 235.533C158.199 235.533 157.805 236.172 157.805 237.509V237.945C157.805 239.339 158.204 240.005 159.022 240.005C159.703 240.005 160.07 239.538 160.149 238.548L161.072 238.71C160.92 239.968 160.191 240.64 159.006 240.64ZM164.978 240.634C163.63 240.634 162.886 239.664 162.886 237.992V237.551C162.886 235.874 163.63 234.909 164.978 234.909C166.325 234.909 167.07 235.874 167.07 237.551V237.992C167.07 239.664 166.325 240.634 164.978 240.634ZM164.978 240.005C165.759 240.005 166.142 239.381 166.142 238.086V237.457C166.142 236.157 165.759 235.533 164.978 235.533C164.196 235.533 163.814 236.157 163.814 237.457V238.086C163.814 239.381 164.196 240.005 164.978 240.005ZM169.481 240.524H168.689V235.019H169.481C169.481 235.239 169.429 235.517 169.271 236.031L169.366 236.068C169.643 235.25 169.99 234.946 170.503 234.946C171.064 234.946 171.3 235.333 171.164 236.036L171.253 236.062C171.51 235.265 171.893 234.946 172.428 234.946C173.004 234.946 173.282 235.271 173.282 235.942V240.524H172.49V236.157C172.49 235.805 172.354 235.627 172.082 235.627C171.631 235.627 171.358 236.324 171.358 237.231V240.524H170.613V236.167C170.613 235.816 170.477 235.627 170.225 235.627C169.785 235.627 169.481 236.298 169.481 237.252V240.524Z" fill="white"/>
</g>
<g opacity="0.8">
<path d="M27.1616 256.888H26.4223V254.948H24.4929V254.235H26.4223V252.295H27.1616V254.235H29.0858V254.948H27.1616V256.888ZM32.9024 258.367C31.45 258.367 30.6741 257.57 30.6216 255.908L31.5601 255.698C31.5654 257.067 31.9953 257.685 32.8919 257.685C33.6259 257.685 34.0139 257.25 34.0139 256.359V256.023C34.0139 255.163 33.5787 254.786 32.8657 254.765L32.1893 254.744V254.125L32.829 254.109C33.5158 254.094 33.8881 253.721 33.8881 252.972V252.689C33.8881 251.871 33.5211 251.493 32.8499 251.493C32.032 251.493 31.6388 252.07 31.6388 253.328L30.737 253.134C30.7632 251.572 31.4972 250.817 32.8657 250.817C34.1083 250.817 34.7951 251.446 34.7951 252.641V252.877C34.7951 253.664 34.4281 254.193 33.6941 254.372V254.466C34.5487 254.639 34.9629 255.205 34.9629 256.112V256.38C34.9629 257.669 34.2184 258.367 32.9024 258.367ZM38.8214 258.367C37.5002 258.367 36.7452 257.811 36.6403 256.474L37.5631 256.264C37.6155 257.271 38.0507 257.675 38.8162 257.675C39.6289 257.675 40.0326 257.203 40.0326 256.217V255.724C40.0326 254.781 39.6498 254.324 38.8739 254.324C38.2499 254.324 37.841 254.634 37.5683 255.268L36.7819 255.2L36.9811 250.922H40.7037V251.671H37.8462L37.7099 254.141C38.0402 253.826 38.4754 253.659 39.0731 253.659C40.3052 253.659 40.9763 254.361 40.9763 255.677V256.222C40.9763 257.628 40.2266 258.367 38.8214 258.367ZM46.3082 258.262H45.4168V256.469H42.423V255.918L44.903 250.922H46.3082V255.792H47.21V256.469H46.3082V258.262ZM44.7772 253.029L43.3668 255.792H45.4168V253.223C45.4168 252.636 45.4273 252.128 45.4535 251.698L45.3487 251.687C45.2019 252.101 45.0026 252.547 44.7772 253.029ZM56.846 258.367C55.5247 258.367 54.7697 257.811 54.6648 256.474L55.5876 256.264C55.6401 257.271 56.0752 257.675 56.8407 257.675C57.6534 257.675 58.0571 257.203 58.0571 256.217V255.724C58.0571 254.781 57.6744 254.324 56.8984 254.324C56.2745 254.324 55.8655 254.634 55.5929 255.268L54.8064 255.2L55.0056 250.922H58.7283V251.671H55.8708L55.7344 254.141C56.0648 253.826 56.4999 253.659 57.0976 253.659C58.3298 253.659 59.0009 254.361 59.0009 255.677V256.222C59.0009 257.628 58.2511 258.367 56.846 258.367ZM62.8542 258.367C61.5329 258.367 60.7779 257.811 60.673 256.474L61.5958 256.264C61.6482 257.271 62.0834 257.675 62.8489 257.675C63.6616 257.675 64.0653 257.203 64.0653 256.217V255.724C64.0653 254.781 63.6826 254.324 62.9066 254.324C62.2827 254.324 61.8737 254.634 61.6011 255.268L60.8146 255.2L61.0138 250.922H64.7364V251.671H61.8789L61.7426 254.141C62.0729 253.826 62.5081 253.659 63.1058 253.659C64.338 253.659 65.0091 254.361 65.0091 255.677V256.222C65.0091 257.628 64.2593 258.367 62.8542 258.367ZM68.8623 258.367C67.5411 258.367 66.7861 257.811 66.6812 256.474L67.604 256.264C67.6564 257.271 68.0916 257.675 68.8571 257.675C69.6698 257.675 70.0735 257.203 70.0735 256.217V255.724C70.0735 254.781 69.6908 254.324 68.9148 254.324C68.2908 254.324 67.8819 254.634 67.6092 255.268L66.8228 255.2L67.022 250.922H70.7446V251.671H67.8871L67.7508 254.141C68.0811 253.826 68.5163 253.659 69.114 253.659C70.3461 253.659 71.0173 254.361 71.0173 255.677V256.222C71.0173 257.628 70.2675 258.367 68.8623 258.367ZM80.863 258.367C79.3792 258.367 78.598 257.355 78.598 255.431V253.753C78.598 251.829 79.3792 250.817 80.863 250.817C82.3468 250.817 83.128 251.829 83.128 253.753V255.431C83.128 257.355 82.3468 258.367 80.863 258.367ZM80.863 257.643C81.7595 257.643 82.1947 256.967 82.1947 255.557V253.648C82.1947 252.222 81.7595 251.535 80.863 251.535C79.9664 251.535 79.5312 252.222 79.5312 253.648V255.557C79.5312 256.967 79.9664 257.643 80.863 257.643ZM81.2824 255.174H80.4435V254.01H81.2824V255.174ZM86.8712 258.367C85.3874 258.367 84.6061 257.355 84.6061 255.431V253.753C84.6061 251.829 85.3874 250.817 86.8712 250.817C88.355 250.817 89.1362 251.829 89.1362 253.753V255.431C89.1362 257.355 88.355 258.367 86.8712 258.367ZM86.8712 257.643C87.7677 257.643 88.2029 256.967 88.2029 255.557V253.648C88.2029 252.222 87.7677 251.535 86.8712 251.535C85.9746 251.535 85.5394 252.222 85.5394 253.648V255.557C85.5394 256.967 85.9746 257.643 86.8712 257.643ZM87.2906 255.174H86.4517V254.01H87.2906V255.174ZM92.8793 258.367C91.3955 258.367 90.6143 257.355 90.6143 255.431V253.753C90.6143 251.829 91.3955 250.817 92.8793 250.817C94.3631 250.817 95.1444 251.829 95.1444 253.753V255.431C95.1444 257.355 94.3631 258.367 92.8793 258.367ZM92.8793 257.643C93.7759 257.643 94.2111 256.967 94.2111 255.557V253.648C94.2111 252.222 93.7759 251.535 92.8793 251.535C91.9828 251.535 91.5476 252.222 91.5476 253.648V255.557C91.5476 256.967 91.9828 257.643 92.8793 257.643ZM93.2988 255.174H92.4599V254.01H93.2988V255.174ZM98.8875 258.367C97.4037 258.367 96.6225 257.355 96.6225 255.431V253.753C96.6225 251.829 97.4037 250.817 98.8875 250.817C100.371 250.817 101.153 251.829 101.153 253.753V255.431C101.153 257.355 100.371 258.367 98.8875 258.367ZM98.8875 257.643C99.7841 257.643 100.219 256.967 100.219 255.557V253.648C100.219 252.222 99.7841 251.535 98.8875 251.535C97.991 251.535 97.5558 252.222 97.5558 253.648V255.557C97.5558 256.967 97.991 257.643 98.8875 257.643ZM99.307 255.174H98.4681V254.01H99.307V255.174Z" fill="white"/>
</g>
<g opacity="0.8">
<path d="M25.6096 276H24.6764V268.66H26.7421C28.1316 268.66 28.8813 269.299 28.8813 270.474V270.621C28.8813 271.528 28.3518 272.099 27.3923 272.204V272.309C27.9376 272.461 28.1683 272.723 28.3937 273.604L28.6192 274.485C28.8446 275.366 29.0281 275.701 29.2955 275.885L29.2851 276H28.163C27.9795 275.696 27.8642 275.324 27.6702 274.479L27.4762 273.646C27.2769 272.802 27.0567 272.566 26.3909 272.566H25.6096V276ZM25.6096 269.394V271.853H26.632C27.5181 271.853 27.9376 271.486 27.9376 270.72V270.526C27.9376 269.75 27.5181 269.394 26.632 269.394H25.6096ZM34.0034 274.181L34.8843 274.354C34.7375 275.497 33.9877 276.115 32.8814 276.115C31.4605 276.115 30.7055 275.145 30.7055 273.389V273.095C30.7055 271.339 31.4553 270.379 32.8709 270.379C34.1555 270.379 34.8685 271.224 34.8685 272.755C34.8685 272.954 34.8528 273.163 34.8318 273.357H31.6073V273.51C31.6073 274.836 32.0215 275.481 32.8762 275.481C33.5473 275.481 33.93 275.077 34.0034 274.181ZM32.8709 271.003C32.074 271.003 31.6598 271.585 31.6126 272.755H33.9667V272.639C33.9667 271.538 33.6102 271.003 32.8709 271.003ZM36.7976 277.95L36.6298 277.133L37.3009 277.075C37.9563 277.022 38.1189 276.886 38.2394 276.509L38.3548 276.131L36.5407 270.495H37.4844L38.4125 273.714C38.554 274.202 38.6641 274.658 38.7795 275.245H38.8896C39.0312 274.658 39.1517 274.207 39.2828 273.714L40.1689 270.495H41.0707L39.3982 275.858C38.9315 277.374 38.3076 277.825 36.7976 277.95ZM43.9697 276H43.0784V268.66H43.9697V271.323C43.9697 271.931 43.9435 272.34 43.8491 272.88L43.9383 272.917L46.0775 270.495H47.1051L45.3329 272.461L47.168 276H46.1981L44.7038 273.038L43.9697 273.819V276ZM52.0909 269.635H50.9164V268.66H52.0909V269.635ZM48.7773 277.945L48.6619 277.064C50.8378 276.954 51.1419 276.807 51.1419 275.675V271.229H48.6567V270.495H52.0332V275.444C52.0332 277.164 51.252 277.772 48.7773 277.945ZM56.07 276.115C55.2259 276.115 54.7435 275.633 54.7435 274.805V274.778C54.7435 273.74 55.6086 273.268 56.6572 272.969L57.7058 272.676V272.131C57.7058 271.376 57.4227 271.009 56.7621 271.009C56.0018 271.009 55.6505 271.496 55.724 272.508L54.8379 272.33C54.7802 271.103 55.4723 270.379 56.7726 270.379C57.9942 270.379 58.6129 270.972 58.6129 272.094V274.888C58.6129 275.366 58.6653 275.418 59.2159 275.455L59.0533 276.089C58.9642 276.105 58.8593 276.115 58.7387 276.115C57.9051 276.115 57.7216 275.675 57.9942 274.605L57.8841 274.579C57.622 275.575 57.0033 276.115 56.07 276.115ZM56.3741 275.423C57.1396 275.423 57.7058 274.726 57.7058 273.745V273.237L56.9666 273.457C56.222 273.677 55.6768 274.039 55.6768 274.673V274.7C55.6768 275.151 55.9389 275.423 56.3741 275.423ZM63.3156 276H62.377L60.5786 270.495H61.5224L62.4347 273.499C62.571 273.955 62.6811 274.385 62.807 274.93H62.9118C63.0429 274.385 63.1478 273.96 63.2841 273.499L64.1859 270.495H65.0982L63.3156 276ZM69.2975 269.97H68.5635L69.2503 268.66H70.299L69.2975 269.97ZM70.9176 276H66.7756V275.261H68.4744V271.229H66.828V270.495H69.3657V275.261H70.9176V276ZM74.0107 276H73.1193V268.66H74.0107V271.323C74.0107 271.931 73.9844 272.34 73.8901 272.88L73.9792 272.917L76.1184 270.495H77.146L75.3739 272.461L77.2089 276H76.239L74.7447 273.038L74.0107 273.819V276ZM80.1027 277.741L79.9926 277.3C80.6061 277.174 80.9049 276.76 80.8682 276H80.1552V274.721H81.5708V275.927C81.5708 277.028 81.015 277.599 80.1027 277.741ZM95.0238 276H90.7349V275.261H92.418V269.394H90.7349V268.66H95.0238V269.394H93.346V275.261H95.0238V276ZM98.9242 276.115C97.5348 276.115 96.7955 275.14 96.7955 273.316V273.085C96.7955 271.328 97.5663 270.379 98.94 270.379C100.125 270.379 100.801 271.087 100.927 272.424L100.025 272.581C99.9624 271.475 99.632 271.009 98.9242 271.009C98.1168 271.009 97.7236 271.648 97.7236 272.985V273.42C97.7236 274.815 98.122 275.481 98.94 275.481C99.6216 275.481 99.9886 275.014 100.067 274.023L100.99 274.186C100.838 275.444 100.109 276.115 98.9242 276.115ZM106.102 274.181L106.982 274.354C106.836 275.497 106.086 276.115 104.98 276.115C103.559 276.115 102.804 275.145 102.804 273.389V273.095C102.804 271.339 103.553 270.379 104.969 270.379C106.254 270.379 106.967 271.224 106.967 272.755C106.967 272.954 106.951 273.163 106.93 273.357H103.706V273.51C103.706 274.836 104.12 275.481 104.974 275.481C105.645 275.481 106.028 275.077 106.102 274.181ZM104.969 271.003C104.172 271.003 103.758 271.585 103.711 272.755H106.065V272.639C106.065 271.538 105.708 271.003 104.969 271.003ZM112.099 276.105C110.962 276.105 110.432 275.444 110.432 273.976V269.394H108.55V268.66H111.323V273.903C111.323 274.894 111.664 275.308 112.361 275.308C112.728 275.308 113.116 275.224 113.389 275.035L113.326 275.785C113.054 275.979 112.629 276.105 112.099 276.105ZM116.152 276.115C115.308 276.115 114.825 275.633 114.825 274.805V274.778C114.825 273.74 115.69 273.268 116.739 272.969L117.788 272.676V272.131C117.788 271.376 117.505 271.009 116.844 271.009C116.084 271.009 115.732 271.496 115.806 272.508L114.92 272.33C114.862 271.103 115.554 270.379 116.854 270.379C118.076 270.379 118.695 270.972 118.695 272.094V274.888C118.695 275.366 118.747 275.418 119.298 275.455L119.135 276.089C119.046 276.105 118.941 276.115 118.821 276.115C117.987 276.115 117.803 275.675 118.076 274.605L117.966 274.579C117.704 275.575 117.085 276.115 116.152 276.115ZM116.456 275.423C117.221 275.423 117.788 274.726 117.788 273.745V273.237L117.048 273.457C116.304 273.677 115.759 274.039 115.759 274.673V274.7C115.759 275.151 116.021 275.423 116.456 275.423ZM121.903 276H121.012V270.495H121.929C121.914 270.841 121.845 271.229 121.651 271.889L121.751 271.921C122.139 270.851 122.705 270.4 123.507 270.4C124.388 270.4 124.85 270.898 124.85 271.811V276H123.958V271.973C123.958 271.386 123.686 271.061 123.193 271.061C122.433 271.061 121.903 271.916 121.903 273.132V276ZM128.467 276.094C127.361 276.094 126.763 275.198 126.763 273.53V272.964C126.763 271.297 127.361 270.4 128.467 270.4C129.353 270.4 129.877 270.94 130.134 271.811L130.239 271.774C130.05 271.113 129.988 270.657 129.988 270.175V268.66H130.884V276H129.998C129.998 275.738 130.077 275.329 130.244 274.721L130.134 274.684C129.856 275.591 129.327 276.094 128.467 276.094ZM128.771 275.465C129.547 275.465 129.988 274.763 129.988 273.473V273.022C129.988 271.732 129.547 271.024 128.771 271.024C128.042 271.024 127.681 271.648 127.681 272.938V273.562C127.681 274.847 128.042 275.465 128.771 275.465Z" fill="white"/>
</g>
</svg>
