<svg width="480" height="128" viewBox="0 0 480 128" fill="none" xmlns="http://www.w3.org/2000/svg">
<rect width="480" height="128" rx="4" fill="white"/>
<path d="M65.7135 27.034C65.8222 27.0354 66.3353 27.4735 66.8535 28.0076C67.3714 28.5413 67.7954 29.0445 67.7962 29.1264C67.7958 29.2084 67.5994 29.7202 67.3594 30.2639C67.119 30.8084 66.3368 32.3497 65.621 33.6894C64.9052 35.029 64.0852 36.5577 63.7985 37.0865C63.5118 37.6152 62.5882 39.3121 61.7464 40.8571C60.9045 42.4022 59.5881 44.8306 58.8212 46.2537C58.0543 47.6768 57.0295 49.573 56.544 50.4676C56.0586 51.3621 55.5022 52.3936 55.3076 52.7595C55.1127 53.126 53.7128 55.754 52.1963 58.5999C49.4394 63.7743 49.439 63.775 49.5107 64.514C49.5957 65.3895 49.0778 66.5595 50.2936 67.2061C51.5099 67.8513 55.8007 60.4042 56.9691 59.8247C58.7461 58.9435 59.2583 58.3974 60.8064 57.0793C61.4859 56.5009 62.7151 55.3829 63.5377 54.5947C64.3603 53.8063 65.736 52.3655 66.5944 51.3931C67.4527 50.4207 68.4476 49.1832 68.8053 48.6432C69.1629 48.1033 69.5144 47.6604 69.5859 47.6587C70.1219 47.6458 71.5094 48.2301 71.8887 48.6613C71.9568 48.7399 71.8724 49.1359 71.6826 49.6237C71.5048 50.0803 71.0416 50.9051 70.6535 51.4566C70.2653 52.0083 69.5385 53.1582 69.0382 54.0121C68.538 54.866 67.6137 56.5629 66.9844 57.7827C66.355 59.0026 65.2044 61.4051 64.4275 63.1215C63.6504 64.8381 62.7451 66.9671 62.4156 67.8528C62.086 68.7384 61.6755 69.9292 61.5034 70.4984C61.3313 71.0676 61.1072 71.8492 61.0053 72.2355C60.9037 72.6216 60.8706 72.9375 60.9318 72.9377C60.9935 72.9367 61.3473 72.4981 61.718 71.9618C62.0891 71.4248 62.7463 70.3432 63.1783 69.5587C63.6081 68.7782 63.9713 68.1228 63.9885 68.0965C64.002 68.0767 64.53 68.2584 65.1613 68.5012C65.7925 68.7437 66.3316 68.9681 66.3593 68.9993C66.3858 69.0328 66.2602 69.5063 66.079 70.0535C65.8974 70.6022 65.535 71.4517 65.2733 71.9414C65.0116 72.4311 64.3771 73.4712 63.8631 74.2526C63.3491 75.034 62.5976 76.0253 62.1938 76.4561C61.79 76.8867 61.253 77.3377 60.9998 77.4581C60.5662 77.6641 60.4697 77.6506 59.3399 77.2252C58.6713 76.9733 58.0407 76.6375 57.913 76.4658C57.7608 76.26 57.685 75.9059 57.6851 75.398C57.6851 74.9802 57.7714 74.1723 57.8762 73.6031C57.9812 73.0339 58.2668 71.9363 58.5108 71.1638C59.0897 69.3318 59.6955 67.5154 60.3663 65.7235C60.6797 64.8867 61.3487 63.2319 61.8528 62.0464C62.355 60.8652 62.7401 59.8682 62.7114 59.8247C62.6793 59.7883 61.9389 60.3025 61.0661 60.9678C58.2605 63.1058 52.3831 72.2443 49.5107 71.1677C48.465 70.7755 47.5305 69.9218 47.3684 68.5012C45.2088 68.5215 40.7657 81.4116 40.1841 83.366C39.7844 84.7094 33.9631 101.943 33.6061 103.244C33.2492 104.545 32.7566 106.508 32.5112 107.606C32.2659 108.703 31.9929 110.134 31.9044 110.784C31.8159 111.435 31.7321 111.981 31.7183 111.998C31.7028 112.015 31.1192 111.931 30.4207 111.811C29.7219 111.692 29.1027 111.628 29.0428 111.668C28.9845 111.709 28.5205 111.304 28.012 110.769C27.2402 109.957 27.0876 109.719 27.0888 109.329C27.0895 109.072 27.1738 108.505 27.276 108.068C27.3783 107.631 27.7098 106.6 28.0125 105.776C30.3918 99.3072 31.9041 94.8285 35.4381 86.0122C36.7633 82.7061 38.3642 79.4704 39.4458 76.0469C39.677 75.3149 40.4121 73.1192 41.0795 71.1677C41.747 69.2162 42.5216 66.987 42.8006 66.2143C43.0798 65.4416 43.7785 63.5789 44.3535 62.0747C44.9287 60.5704 45.8739 58.1453 46.4535 56.6854C47.0313 55.2301 47.5043 54.0179 47.5071 53.9866C47.5075 53.9623 47.5687 53.9424 47.6436 53.9423C47.7196 53.9427 48.3045 54.1504 48.9441 54.4043C50.0372 54.8382 50.1086 54.8918 50.1086 55.2827C50.1086 55.5117 50.1626 55.7376 50.2289 55.7843C50.2968 55.8279 50.8725 54.8844 51.5093 53.6856C52.1471 52.485 53.0974 50.7044 53.621 49.7285C54.1448 48.7527 55.3916 46.4569 56.3919 44.6272C57.392 42.7977 58.4394 40.8686 58.7192 40.3397C58.9988 39.8111 59.5765 38.7466 60.0024 37.974C60.4285 37.2015 61.0153 36.1149 61.3068 35.5597C61.5975 35.0058 61.8083 34.5209 61.7759 34.4805C61.7424 34.4423 61.6342 34.4976 61.5358 34.603C61.4373 34.7086 61.006 35.1268 60.5774 35.5324C60.1488 35.9382 59.7334 36.3378 59.6547 36.42C59.5756 36.5026 58.9352 37.1351 58.2317 37.8261C57.5281 38.5173 56.3926 39.6402 55.7088 40.3215C55.0248 41.0027 54.2603 41.7683 54.01 42.0229C53.7594 42.2778 52.9111 43.1175 52.1245 43.8892C51.3378 44.6612 50.1923 45.7917 49.5793 46.4017C48.9664 47.0115 47.9715 47.9874 47.3684 48.5701C46.7653 49.1528 45.6771 50.1843 44.9508 50.862C44.2244 51.5398 43.0541 52.5995 42.3499 53.2169C41.6456 53.8344 40.6009 54.7082 40.0287 55.1586C39.4565 55.609 38.6336 56.1793 38.2 56.4264C37.7665 56.6735 37.2039 56.9197 36.9503 56.9739C36.517 57.0663 36.4267 57.0089 35.4381 56.0121C34.7348 55.3031 34.3599 54.8107 34.3042 54.5238C34.2566 54.2778 34.314 53.7322 34.4391 53.2424C34.5589 52.7734 34.9247 51.7244 35.252 50.9113C35.5792 50.0982 36.2258 48.6346 36.6884 47.6587C37.1508 46.6829 38.2605 44.4207 39.1539 42.6316C40.0472 40.8427 40.967 39.0126 41.1982 38.5652C41.4293 38.1179 41.8552 37.2858 42.1443 36.7158C42.4332 36.1457 42.857 35.2913 43.0859 34.8172C43.4129 34.1396 43.4501 33.9879 43.2609 34.1076C43.1285 34.1916 42.7191 34.5138 42.351 34.8234C41.983 35.1333 40.1747 36.6836 38.3332 38.2693C36.4914 39.8551 34.8318 41.2836 34.6452 41.4431C34.4578 41.6034 32.9008 42.9604 31.1846 44.4594C29.4679 45.9588 27.6831 47.5286 27.218 47.9478C26.7531 48.3668 25.0622 49.9039 23.4604 51.363C21.8587 52.8224 20.3659 54.1797 20.1435 54.3793C19.9211 54.579 19.2706 55.2209 18.6982 55.8058C17.6574 56.8695 17.6572 56.8696 16.7152 55.8869C15.7727 54.9037 15.7726 54.9035 16.6506 53.8687C17.1332 53.2996 17.7354 52.6286 17.9889 52.3775C18.2423 52.1266 18.828 51.5608 19.2905 51.1205C19.7528 50.6802 20.4238 50.0537 20.7809 49.7285C21.1379 49.4034 21.547 49.0278 21.6902 48.8931C21.8333 48.7586 22.4185 48.2295 22.9907 47.7177C23.563 47.2059 24.7338 46.1548 25.5922 45.3821C26.4505 44.6093 27.4747 43.6928 27.8682 43.3452C28.2617 42.9977 29.6368 41.794 30.9244 40.6712C32.2117 39.5486 33.4184 38.4995 33.6061 38.339C33.7932 38.1789 35.4541 36.7504 37.2963 35.1646C39.1385 33.5789 41.4435 31.6124 42.4184 30.7949C43.3931 29.9775 44.5923 28.9962 45.0834 28.6141C45.5746 28.232 46.104 27.9198 46.2596 27.9198C46.4267 27.9205 46.9298 28.3223 47.4865 28.8997C48.3666 29.8129 48.4249 29.9108 48.3429 30.341C48.2944 30.595 48.029 31.3145 47.7534 31.9398C47.4774 32.5654 46.1012 35.3598 44.695 38.1497C43.2888 40.9397 41.4995 44.52 40.719 46.1058C39.9384 47.6916 38.9486 49.8113 38.5198 50.8161C38.0911 51.8208 37.7575 52.7025 37.7788 52.7754C37.8014 52.847 38.2869 52.5577 38.8586 52.1316C39.4313 51.7046 40.6315 50.7064 41.5252 49.9139C42.4189 49.1214 43.4512 48.19 43.8192 47.8441C44.1871 47.4981 44.8017 46.9245 45.1848 46.57C45.5679 46.2155 46.1739 45.6398 46.5315 45.2903C46.8891 44.9408 47.6568 44.1922 48.237 43.6268C48.8172 43.0615 49.4077 42.473 49.5492 42.3193C49.6908 42.1656 50.3535 41.5076 51.0224 40.8571C51.6913 40.2066 52.3321 39.5742 52.4465 39.4521C52.5608 39.3301 52.8863 39.0052 53.1697 38.7301C53.453 38.4548 54.0339 37.8895 54.4602 37.4736C54.8866 37.0576 55.7938 36.1517 56.476 35.4605C57.1583 34.7693 58.0602 33.8711 58.4802 33.4644C58.9001 33.0578 59.4917 32.4919 59.7946 32.2073C60.0976 31.9227 61.1882 30.8866 62.2178 29.9051C63.2474 28.9239 64.4111 27.8763 64.8036 27.5769C65.1957 27.2779 65.6048 27.0335 65.7135 27.034Z" fill="black"/>
<path d="M81.4048 52.0811C82.6082 50.8926 82.6082 50.8928 83.6157 51.4135C84.1699 51.7 84.7043 52.025 84.8024 52.1355C84.9533 52.3057 84.9222 52.4691 84.6002 53.1999C84.3908 53.6752 83.4676 55.4277 82.5487 57.0946C81.6298 58.7617 80.777 60.3255 80.6537 60.5694C80.5303 60.8136 80.1595 61.5074 79.8296 62.1116C79.4997 62.7156 79.2558 63.2392 79.2869 63.2751C79.3218 63.3065 80.1005 62.4502 81.0203 61.3685C82.6963 59.3974 82.6966 59.3975 83.8552 59.9993C84.7587 60.4687 85.023 60.6743 85.0571 60.935C85.0979 61.2483 85.1426 61.2633 85.7725 61.1662C86.1421 61.1094 87.1377 61.0065 87.9845 60.9378C89.3143 60.8299 89.5933 60.7606 90.0299 60.4323C90.3079 60.2231 90.5882 60.0521 90.6528 60.052C90.7178 60.0523 91.0958 60.2216 91.493 60.4283C92.0843 60.736 92.2595 60.7726 92.4519 60.6278C92.5815 60.5303 93.2801 59.7121 94.0042 58.8096C94.7285 57.9073 95.9067 56.3679 96.623 55.3893C97.3389 54.4111 98.0201 53.5211 98.1368 53.4107C98.3181 53.2397 98.5003 53.2895 99.4195 53.7627C100.008 54.0657 100.572 54.4016 100.671 54.5091C100.823 54.675 100.766 54.9726 100.298 56.4542C99.9934 57.4163 99.4885 59.0355 99.176 60.052C98.8633 61.0684 98.6073 61.9851 98.6065 62.0889C98.6057 62.2312 98.7023 62.22 99.0044 62.0424C99.387 61.8175 99.4451 61.8271 100.361 62.2606C100.993 62.5596 101.538 62.7134 101.966 62.7134C102.323 62.7133 103.541 62.5075 104.674 62.2561C105.806 62.0046 107.26 61.7642 107.904 61.7216C109.064 61.6451 109.085 61.6496 110.243 62.2589C110.885 62.5969 111.543 63.0155 111.706 63.189C111.868 63.3623 112.001 63.609 112 63.737C111.999 63.8656 111.859 64.3116 111.688 64.7283C111.517 65.1452 111.316 65.5294 111.242 65.5818C111.166 65.6336 110.665 65.4287 110.127 65.1261C109.148 64.5754 109.148 64.5755 108.201 64.7441C107.68 64.837 106.61 65.0527 105.823 65.2236C105.036 65.3943 103.924 65.5453 103.352 65.5597C102.466 65.5817 102.198 65.5262 101.548 65.1845C101.13 64.9648 100.763 64.7847 100.731 64.7832C100.702 64.7832 100.09 65.4153 99.3721 66.1877C98.6548 66.9596 97.9332 67.6301 97.768 67.6777C97.5638 67.7361 97.096 67.5503 96.2976 67.0945C95.6542 66.727 95.0907 66.3171 95.045 66.1837C95.0001 66.0507 94.9639 65.7311 94.9648 65.4735C94.9657 65.216 95.1332 64.2899 95.337 63.4157C95.5402 62.5442 95.6841 61.831 95.6579 61.8265C95.6267 61.8307 94.9919 62.487 94.2438 63.2887C93.4933 64.0931 92.664 64.8675 92.4013 65.0094C91.9235 65.267 91.9228 65.2668 90.6144 64.5356C89.3057 63.8043 89.3055 63.8042 87.8101 63.9869C86.9876 64.0875 86.0217 64.1743 85.6638 64.1796C85.2295 64.1861 84.7828 64.0667 84.3183 63.8209C83.9361 63.6187 83.5476 63.4529 83.4546 63.4525C83.3623 63.4525 82.0985 64.8997 80.6464 66.6683C79.1943 68.4369 77.3879 70.6024 76.6325 71.4794C75.8772 72.3564 75.0362 73.2495 74.7637 73.4642C74.2684 73.8548 74.2681 73.8548 73.1056 73.2069C72.1339 72.6654 71.943 72.5019 71.9427 72.2117C71.9427 72.0205 72.1771 71.3467 72.4632 70.7149C72.7488 70.0842 72.9823 69.5212 72.983 69.4629C72.9838 69.4048 73.2559 68.8115 73.5881 68.1435C73.9208 67.4745 74.4669 66.395 74.8016 65.7445C75.1364 65.0939 75.7517 63.8962 76.169 63.083C76.5861 62.27 77.0684 61.3491 77.241 61.0364C77.4132 60.7247 77.5248 60.4356 77.4895 60.3937C77.4531 60.353 76.6146 61.0471 75.6263 61.9359C74.6376 62.8248 73.1482 64.1302 72.3166 64.8371C71.011 65.947 70.7737 66.2143 70.5788 66.7946C70.4546 67.164 70.2739 67.5009 70.1771 67.5433C70.0802 67.5856 69.3843 67.2854 68.6309 66.8763C67.8784 66.4676 67.2626 66.068 67.2608 65.9876C67.2608 65.9081 67.3716 65.5544 67.5071 65.2021C67.6425 64.8499 67.8618 64.4603 67.9946 64.3361C68.1274 64.212 69.3484 63.1522 70.7075 61.9812C72.0666 60.8102 73.7637 59.3188 74.479 58.6674C75.1944 58.0159 76.7744 56.5353 77.9904 55.3768C79.2064 54.2182 80.743 52.735 81.4048 52.0811Z" fill="black"/>
<path d="M107.856 53.5354C108.026 53.4861 108.426 53.5606 108.749 53.7026C109.071 53.8438 109.59 54.0763 109.901 54.2189C110.444 54.4673 110.465 54.4991 110.395 54.9886C110.355 55.2694 110.23 55.6587 110.118 55.8534C109.982 56.0891 109.79 56.2076 109.545 56.2077C109.341 56.2075 108.743 56.005 108.216 55.7577C107.688 55.5105 107.21 55.2547 107.151 55.1892C107.094 55.124 107.16 54.7453 107.297 54.3476C107.474 53.8352 107.637 53.5987 107.856 53.5354Z" fill="black"/>
<path d="M89.6449 52.8071C89.7785 52.8074 90.39 53.0898 91.0038 53.4351C92.0715 54.0359 92.1175 54.0819 92.0474 54.4825C92.0071 54.713 91.8527 55.0961 91.7042 55.3332C91.5558 55.57 91.3155 55.7635 91.1704 55.7639C91.0253 55.7639 90.4147 55.4591 89.8137 55.0866C89.2133 54.7145 88.7216 54.3453 88.7205 54.266C88.7206 54.1871 88.8156 53.91 88.9317 53.6499C89.0479 53.3899 89.2013 53.0939 89.2727 52.9919C89.3441 52.8903 89.5116 52.8072 89.6449 52.8071Z" fill="black"/>
<path d="M65.1301 16.0004C65.2028 16.024 65.748 16.237 66.3425 16.4736C67.3987 16.8939 67.4231 16.9143 67.3516 17.3226C67.3112 17.5526 67.1869 17.9518 67.0747 18.2096C66.945 18.5073 66.1514 19.299 64.9011 20.3786C63.818 21.3137 62.2554 22.7153 61.4293 23.4929C60.6034 24.2704 59.6546 25.253 59.321 25.676C58.7147 26.4445 58.7141 26.4443 57.5865 25.9804C56.4587 25.5164 56.4585 25.516 56.5457 24.9806C56.5938 24.6859 56.7844 24.1279 56.9691 23.7405C57.1801 23.298 57.7383 22.6109 58.4707 21.8924C59.1122 21.2632 60.8437 19.6704 62.3186 18.353C63.7931 17.0358 65.0583 15.9773 65.1301 16.0004Z" fill="black"/>
<path d="M129 24V104" stroke="#121215" stroke-opacity="0.08"/>
<path d="M150.061 15.9395H148.865L149.744 14.0234H151.458L150.061 15.9395ZM150.289 29H148.566V24.3242L146.123 16.6953H147.925L148.892 20.0703C149.094 20.7559 149.226 21.4766 149.384 22.373H149.56C149.709 21.4766 149.85 20.7646 150.043 20.0703L150.992 16.6953H152.732L150.289 24.3242V29ZM154.622 29H152.952V19.7715H154.631C154.648 20.2109 154.569 20.5977 154.271 21.5117L154.429 21.582C155.009 20.123 155.536 19.6572 156.679 19.5518L156.925 21.1777C155.018 21.3535 154.622 21.8984 154.622 24.1572V29ZM161.645 29H159.922V16.6953H161.645V18.8574H162.813C164.756 18.8574 165.731 19.8506 165.731 21.8369V23.6035C165.731 25.5635 164.747 26.5566 162.813 26.5566H161.645V29ZM161.645 20.2021V25.2119H162.638C163.578 25.2119 164.026 24.7285 164.026 23.6826V21.749C164.026 20.6855 163.578 20.2021 162.638 20.2021H161.645ZM168.386 29H166.716V19.7715H168.395C168.412 20.2109 168.333 20.5977 168.034 21.5117L168.192 21.582C168.772 20.123 169.3 19.6572 170.442 19.5518L170.688 21.1777C168.781 21.3535 168.386 21.8984 168.386 24.1572V29ZM172.903 29.167C171.778 29.167 171.137 28.4111 171.137 27.1543V26.8291C171.137 25.0186 172.218 24.333 173.431 23.8145L174.644 23.3047V21.8633C174.644 21.1514 174.397 20.8086 173.853 20.8086C173.185 20.8086 172.921 21.292 172.947 22.7422V23.2432L171.304 23.0234V22.5752C171.277 20.6064 172.121 19.6045 173.87 19.6045C175.479 19.6045 176.313 20.3604 176.313 21.8545V27.2246C176.313 27.7695 176.41 27.8486 177.008 27.875L176.788 29.123C176.683 29.1582 176.516 29.167 176.393 29.167C175.197 29.167 174.898 28.6309 175.145 27.3389L174.978 27.3037C174.688 28.5166 173.984 29.167 172.903 29.167ZM173.519 27.875C174.178 27.875 174.644 27.2334 174.644 26.1436V24.5264L173.984 24.8164C173.325 25.0977 172.824 25.5635 172.824 26.5215V26.873C172.824 27.5234 173.07 27.875 173.519 27.875ZM180.128 29.1758C178.44 29.1758 177.491 28.332 177.491 26.4336V26.1787L179.064 25.8271V26.1875C179.064 27.4883 179.425 27.9805 180.128 27.9805C180.699 27.9805 181.007 27.6641 181.007 27.0488C181.007 26.3369 180.69 25.8008 179.847 25.0889L179.012 24.3857C178.177 23.665 177.597 22.8652 177.597 21.8369C177.597 20.3779 178.423 19.6133 179.979 19.6133C181.596 19.6133 182.457 20.3691 182.457 22.083V22.3203L180.893 22.6367V22.3027C180.893 21.1426 180.585 20.8086 179.987 20.8086C179.451 20.8086 179.17 21.0635 179.17 21.5732C179.17 22.1885 179.442 22.6631 180.269 23.3574L181.104 24.043C181.93 24.7285 182.65 25.502 182.65 26.8555C182.65 28.3496 181.754 29.1758 180.128 29.1758ZM185.946 29.1494C184.689 29.1494 184.057 28.5166 184.057 27.1191V21.0547H183.072V19.7715H184.057V17.6709L185.735 17.1084V19.7715H187.423V21.0547H185.735V26.9609C185.735 27.5498 185.964 27.7783 186.447 27.7783C186.737 27.7783 187.08 27.6992 187.432 27.5586L187.317 28.8242C186.966 29.0264 186.447 29.1494 185.946 29.1494ZM189.813 29.167C188.688 29.167 188.047 28.4111 188.047 27.1543V26.8291C188.047 25.0186 189.128 24.333 190.341 23.8145L191.554 23.3047V21.8633C191.554 21.1514 191.308 20.8086 190.763 20.8086C190.095 20.8086 189.831 21.292 189.857 22.7422V23.2432L188.214 23.0234V22.5752C188.188 20.6064 189.031 19.6045 190.78 19.6045C192.389 19.6045 193.224 20.3604 193.224 21.8545V27.2246C193.224 27.7695 193.32 27.8486 193.918 27.875L193.698 29.123C193.593 29.1582 193.426 29.167 193.303 29.167C192.107 29.167 191.809 28.6309 192.055 27.3389L191.888 27.3037C191.598 28.5166 190.895 29.167 189.813 29.167ZM190.429 27.875C191.088 27.875 191.554 27.2334 191.554 26.1436V24.5264L190.895 24.8164C190.235 25.0977 189.734 25.5635 189.734 26.5215V26.873C189.734 27.5234 189.98 27.875 190.429 27.875ZM196.388 29H194.718V19.7715H196.396C196.414 20.2109 196.335 20.5977 196.036 21.5117L196.194 21.582C196.774 20.123 197.302 19.6572 198.444 19.5518L198.69 21.1777C196.783 21.3535 196.388 21.8984 196.388 24.1572V29ZM201.222 29.123C199.912 29.123 199.218 28.1211 199.218 26.1963V22.5752C199.218 20.6504 199.921 19.6484 201.195 19.6484C202.276 19.6484 202.892 20.29 203.261 21.4414L203.428 21.3711C203.129 20.4219 203.032 19.7715 203.032 19.0156V16.6953H204.702V29H203.111C203.111 28.7012 203.208 28.2178 203.454 27.4004L203.287 27.3389C202.883 28.5078 202.294 29.123 201.222 29.123ZM201.872 27.9189C202.619 27.9189 203.032 27.1191 203.032 25.6602V23.1201C203.032 21.6611 202.619 20.8525 201.881 20.8525C201.222 20.8525 200.905 21.4238 200.905 22.5928V26.1787C200.905 27.3477 201.222 27.9189 201.872 27.9189ZM209.193 19.0068H208.016L208.824 16.6953H210.45L209.193 19.0068ZM208.587 29.1758C206.785 29.1758 205.827 28.0156 205.827 25.9854V22.7861C205.827 20.7559 206.785 19.5957 208.587 19.5957C210.389 19.5957 211.355 20.7559 211.355 22.7861V25.9854C211.355 28.0156 210.389 29.1758 208.587 29.1758ZM208.587 27.9453C209.299 27.9453 209.65 27.3652 209.65 26.1611V22.6191C209.65 21.3975 209.299 20.8262 208.587 20.8262C207.875 20.8262 207.532 21.3975 207.532 22.6191V26.1611C207.532 27.3652 207.875 27.9453 208.587 27.9453ZM214.801 29.1494C213.535 29.1494 212.902 28.5166 212.902 27.1191V21.0547H211.918V19.7715H212.902V17.6709L214.581 17.1084V19.7715H215.82V21.0547H214.581V26.9609C214.581 27.5498 214.818 27.7783 215.319 27.7783C215.601 27.7783 215.952 27.6992 216.304 27.5586L216.189 28.8242C215.838 29.0264 215.311 29.1494 214.801 29.1494ZM219.187 29.1494C217.93 29.1494 217.297 28.5166 217.297 27.1191V21.0547H216.312V19.7715H217.297V17.6709L218.976 17.1084V19.7715H220.663V21.0547H218.976V26.9609C218.976 27.5498 219.204 27.7783 219.688 27.7783C219.978 27.7783 220.32 27.6992 220.672 27.5586L220.558 28.8242C220.206 29.0264 219.688 29.1494 219.187 29.1494ZM223.309 18.6729H221.445V17.0205H223.309V18.6729ZM223.212 29H221.542V19.7715H223.212V29ZM226.165 29H224.495V19.7715H226.174C226.191 20.2109 226.112 20.5977 225.813 21.5117L225.972 21.582C226.552 20.123 227.079 19.6572 228.222 19.5518L228.468 21.1777C226.561 21.3535 226.165 21.8984 226.165 24.1572V29Z" fill="black"/>
<g opacity="0.6">
<path d="M147.473 43H146.629V37.5312H149.781V38.2305H147.473V40.0078H149.551V40.6875H147.473V43ZM152.874 43.082C151.734 43.082 151.148 42.3477 151.148 40.918V39.6172C151.148 38.1875 151.734 37.4492 152.874 37.4492C154.015 37.4492 154.601 38.1875 154.601 39.6172V40.918C154.601 42.3477 154.015 43.082 152.874 43.082ZM152.874 42.4297C153.468 42.4297 153.757 41.9844 153.757 41.0586V39.4961C153.757 38.5547 153.468 38.1016 152.874 38.1016C152.281 38.1016 151.992 38.5547 151.992 39.4961V41.0586C151.992 41.9844 152.281 42.4297 152.874 42.4297ZM157.671 43.0859C156.585 43.0859 156.026 42.5859 156.026 41.5898V37.5312H156.87V41.5352C156.87 42.1406 157.139 42.4336 157.671 42.4336C158.206 42.4336 158.471 42.1406 158.471 41.5352V37.5312H159.315V41.5898C159.315 42.5859 158.76 43.0859 157.671 43.0859ZM161.619 43H160.85V37.5312H161.807L163.029 40.7891C163.15 41.1094 163.233 41.418 163.33 41.8398L163.412 41.8359C163.358 41.2695 163.318 40.707 163.318 40.2188V37.5312H164.084V43H163.147L161.936 39.7891C161.807 39.4492 161.717 39.1445 161.608 38.6641L161.529 38.6719C161.58 39.207 161.615 39.8555 161.615 40.3594L161.619 43ZM167.103 43H165.662V37.5312H167.103C168.38 37.5312 168.986 38.2734 168.986 39.8125V40.7266C168.986 42.2617 168.38 43 167.103 43ZM166.505 38.1953V42.3359H167.068C167.81 42.3359 168.13 41.9062 168.13 40.9141V39.625C168.13 38.625 167.81 38.1953 167.068 38.1953H166.505ZM173.645 43H170.54V37.5312H173.583V38.2461H171.384V39.8047H173.216V40.4688H171.384V42.2812H173.645V43ZM176.082 43H175.235V37.5312H176.887C177.93 37.5312 178.488 38.0078 178.488 38.8906V39.0195C178.488 39.6875 178.106 40.1094 177.406 40.1914V40.2695C177.828 40.3906 177.996 40.5859 178.149 41.2383L178.297 41.8906C178.449 42.5469 178.574 42.7773 178.758 42.9102L178.746 43H177.774C177.641 42.7812 177.567 42.5117 177.445 41.9023L177.32 41.3008C177.195 40.6953 177.043 40.5234 176.582 40.5234H176.082V43ZM176.082 38.1992V39.8789H176.793C177.367 39.8789 177.637 39.6367 177.637 39.1289V38.9453C177.637 38.4336 177.367 38.1992 176.793 38.1992H176.082ZM187.057 41.1523H185.839V40.0859H187.057V41.1523ZM195.88 43H194.439V37.5312H195.88C197.158 37.5312 197.763 38.2734 197.763 39.8125V40.7266C197.763 42.2617 197.158 43 195.88 43ZM195.283 38.1953V42.3359H195.845C196.588 42.3359 196.908 41.9062 196.908 40.9141V39.625C196.908 38.625 196.588 38.1953 195.845 38.1953H195.283ZM202.423 43H199.317V37.5312H202.36V38.2461H200.161V39.8047H201.993V40.4688H200.161V42.2812H202.423V43ZM205.68 43.0859C204.594 43.0859 203.977 42.5234 203.946 41.2266L204.75 41.0703C204.762 42.1094 205.067 42.457 205.703 42.457C206.188 42.457 206.496 42.1641 206.496 41.7227C206.496 41.3242 206.258 41.0547 205.68 40.6914L205.114 40.332C204.508 39.9492 204.082 39.5664 204.086 38.8281C204.09 38 204.684 37.4453 205.598 37.4453C206.621 37.4453 207.172 38 207.196 39.1641L206.43 39.3086C206.422 38.4102 206.153 38.0703 205.594 38.0703C205.16 38.0703 204.875 38.3398 204.875 38.7461C204.875 39.0977 205.059 39.332 205.676 39.707L206.243 40.0547C206.821 40.4102 207.321 40.8242 207.321 41.6172C207.321 42.4922 206.672 43.0859 205.68 43.0859ZM212.07 43H208.789V42.332H210.007V38.1992H208.789V37.5312H212.07V38.1992H210.855V42.332H212.07V43ZM214.995 43.0664C214.058 43.0664 213.565 42.3164 213.565 40.8711V39.6367C213.565 38.1953 214.14 37.4492 215.288 37.4492C216.261 37.4492 216.858 37.9727 216.882 39.2227V39.2344L216.089 39.3984V39.3828C216.081 38.3945 215.8 38.0938 215.304 38.0938C214.702 38.0938 214.413 38.5586 214.413 39.5273V40.9453C214.413 41.9492 214.675 42.4141 215.226 42.4141C215.765 42.4141 216.081 41.9453 216.19 40.793H215.331V40.1523H216.929V43H216.233C216.222 42.7266 216.265 42.4258 216.417 41.7891L216.335 41.7695C216.069 42.6445 215.683 43.0664 214.995 43.0664ZM219.174 43H218.405V37.5312H219.362L220.584 40.7891C220.705 41.1094 220.787 41.418 220.885 41.8398L220.967 41.8359C220.912 41.2695 220.873 40.707 220.873 40.2188V37.5312H221.639V43H220.702L219.491 39.7891C219.362 39.4492 219.272 39.1445 219.162 38.6641L219.084 38.6719C219.135 39.207 219.17 39.8555 219.17 40.3594L219.174 43ZM226.404 43H223.299V37.5312H226.342V38.2461H224.142V39.8047H225.974V40.4688H224.142V42.2812H226.404V43ZM228.841 43H227.993V37.5312H229.646C230.689 37.5312 231.247 38.0078 231.247 38.8906V39.0195C231.247 39.6875 230.864 40.1094 230.165 40.1914V40.2695C230.587 40.3906 230.755 40.5859 230.907 41.2383L231.056 41.8906C231.208 42.5469 231.333 42.7773 231.517 42.9102L231.505 43H230.532C230.4 42.7812 230.325 42.5117 230.204 41.9023L230.079 41.3008C229.954 40.6953 229.802 40.5234 229.341 40.5234H228.841V43ZM228.841 38.1992V39.8789H229.552C230.126 39.8789 230.396 39.6367 230.396 39.1289V38.9453C230.396 38.4336 230.126 38.1992 229.552 38.1992H228.841Z" fill="black"/>
</g>
<path d="M147.41 109H146.59V103.531H147.41V104.773C147.41 105.121 147.359 105.426 147.207 105.891L147.285 105.918C147.574 105.16 147.996 104.832 148.586 104.832C149.242 104.832 149.582 105.191 149.582 105.871V109H148.762V106.035C148.762 105.641 148.586 105.422 148.254 105.422C147.754 105.422 147.41 105.992 147.41 106.828V109ZM153.355 107.621L154.152 107.746C154.05 108.625 153.472 109.09 152.601 109.09C151.519 109.09 150.945 108.383 150.945 107.09V106.812C150.945 105.516 151.519 104.809 152.601 104.809C153.601 104.809 154.148 105.441 154.148 106.586C154.148 106.746 154.136 106.926 154.121 107.086H151.761V107.227C151.761 108.098 152.039 108.516 152.605 108.516C153.05 108.516 153.308 108.25 153.355 107.621ZM152.597 105.379C152.062 105.379 151.789 105.77 151.765 106.562H153.324V106.453C153.324 105.727 153.09 105.379 152.597 105.379ZM157.91 109.078C156.999 109.078 156.589 108.582 156.589 107.449V104.199H155.253V103.531H157.41V107.387C157.41 108.062 157.648 108.348 158.163 108.348C158.413 108.348 158.683 108.293 158.878 108.164L158.828 108.844C158.617 108.992 158.3 109.078 157.91 109.078ZM162.386 109.078C161.476 109.078 161.065 108.582 161.065 107.449V104.199H159.73V103.531H161.886V107.387C161.886 108.062 162.124 108.348 162.64 108.348C162.89 108.348 163.159 108.293 163.355 108.164L163.304 108.844C163.093 108.992 162.776 109.078 162.386 109.078ZM165.983 109.09C164.944 109.09 164.374 108.363 164.374 107.137V106.758C164.374 105.531 164.944 104.809 165.983 104.809C167.018 104.809 167.593 105.531 167.593 106.758V107.137C167.593 108.363 167.018 109.09 165.983 109.09ZM165.983 108.512C166.495 108.512 166.745 108.102 166.745 107.246V106.656C166.745 105.793 166.495 105.383 165.983 105.383C165.468 105.383 165.221 105.793 165.221 106.656V107.246C165.221 108.102 165.468 108.512 165.983 108.512ZM170.577 109.855C169.268 109.855 168.6 109.215 168.6 107.988V105.891C168.6 104.652 169.268 103.992 170.467 103.992C171.647 103.992 172.323 104.652 172.323 105.891V107.59C172.323 108.32 172.034 108.727 171.502 108.727C171.155 108.727 170.936 108.527 170.963 108.094L170.893 108.078C170.741 108.504 170.561 108.707 170.217 108.707C169.823 108.707 169.584 108.398 169.584 107.812V106.078C169.584 105.492 169.823 105.184 170.217 105.184C170.561 105.184 170.741 105.387 170.893 105.809L170.963 105.785C170.87 105.48 170.834 105.332 170.842 105.246H171.338V107.926C171.338 108.141 171.389 108.234 171.502 108.234C171.678 108.234 171.772 108.02 171.772 107.574V105.891C171.772 104.965 171.295 104.484 170.467 104.484C169.631 104.484 169.147 104.965 169.147 105.891V107.992C169.147 108.887 169.659 109.348 170.58 109.348C170.955 109.348 171.342 109.266 171.678 109.129L171.776 109.629C171.44 109.773 171.03 109.855 170.577 109.855ZM170.424 108.281C170.651 108.281 170.788 107.977 170.788 107.441V106.449C170.788 105.914 170.651 105.609 170.424 105.609C170.233 105.609 170.139 105.789 170.139 106.156V107.734C170.139 108.102 170.233 108.281 170.424 108.281ZM174.318 109.09C173.678 109.09 173.311 108.719 173.311 108.09V108.074C173.311 107.254 173.986 106.922 174.736 106.719L175.486 106.512V106.117C175.486 105.621 175.303 105.379 174.873 105.379C174.381 105.379 174.154 105.703 174.197 106.406L173.389 106.289C173.346 105.355 173.877 104.809 174.885 104.809C175.826 104.809 176.315 105.25 176.315 106.098V108.121C176.315 108.441 176.354 108.48 176.733 108.504L176.608 109.062C176.533 109.078 176.443 109.09 176.346 109.09C175.709 109.09 175.541 108.777 175.717 108.004L175.635 107.984C175.451 108.707 175.01 109.09 174.318 109.09ZM174.615 108.469C175.123 108.469 175.486 108.004 175.486 107.348V107L175.002 107.145C174.514 107.289 174.154 107.531 174.154 107.961V107.98C174.154 108.289 174.326 108.469 174.615 108.469ZM178.744 109H177.924V104.898H178.748C178.74 105.156 178.689 105.426 178.545 105.891L178.619 105.918C178.908 105.16 179.33 104.832 179.92 104.832C180.576 104.832 180.916 105.191 180.916 105.871V109H180.095V106.035C180.095 105.641 179.92 105.422 179.588 105.422C179.088 105.422 178.744 105.996 178.744 106.828V109ZM183.888 109.09C182.849 109.09 182.279 108.363 182.279 107.137V106.758C182.279 105.531 182.849 104.809 183.888 104.809C184.923 104.809 185.498 105.531 185.498 106.758V107.137C185.498 108.363 184.923 109.09 183.888 109.09ZM183.888 108.512C184.4 108.512 184.65 108.102 184.65 107.246V106.656C184.65 105.793 184.4 105.383 183.888 105.383C183.373 105.383 183.126 105.793 183.126 106.656V107.246C183.126 108.102 183.373 108.512 183.888 108.512ZM189.001 109.078C188.079 109.078 187.634 108.551 187.634 107.449V105.559H186.552V104.898H187.634V103.836L188.454 103.609V104.898H190.142V105.559H188.454V107.387C188.454 108.078 188.708 108.367 189.235 108.367C189.54 108.367 189.864 108.309 190.114 108.164L190.06 108.844C189.814 108.992 189.45 109.078 189.001 109.078ZM192.173 109H191.352V103.531H192.173V104.773C192.173 105.121 192.122 105.426 191.97 105.891L192.048 105.918C192.337 105.16 192.759 104.832 193.348 104.832C194.005 104.832 194.345 105.191 194.345 105.871V109H193.524V106.035C193.524 105.641 193.348 105.422 193.016 105.422C192.516 105.422 192.173 105.992 192.173 106.828V109ZM198.118 107.621L198.915 107.746C198.813 108.625 198.235 109.09 197.364 109.09C196.282 109.09 195.708 108.383 195.708 107.09V106.812C195.708 105.516 196.282 104.809 197.364 104.809C198.364 104.809 198.911 105.441 198.911 106.586C198.911 106.746 198.899 106.926 198.883 107.086H196.524V107.227C196.524 108.098 196.801 108.516 197.368 108.516C197.813 108.516 198.071 108.25 198.118 107.621ZM197.36 105.379C196.825 105.379 196.551 105.77 196.528 106.562H198.086V106.453C198.086 105.727 197.852 105.379 197.36 105.379ZM203.266 109H200.09V108.332H201.055V105.566H200.129V104.898H201.844C201.848 105.176 201.809 105.438 201.684 106.047L201.766 106.074C202.133 105.16 202.621 104.809 203.371 104.781L203.5 105.699C202.375 105.742 201.875 106.117 201.875 107.254V108.332H203.266V109ZM206.289 109.09C205.219 109.09 204.66 108.383 204.66 107.035V106.809C204.66 105.5 205.234 104.809 206.297 104.809C207.238 104.809 207.762 105.332 207.836 106.367L207.015 106.48C206.976 105.699 206.754 105.379 206.289 105.379C205.762 105.379 205.504 105.801 205.504 106.691V107.152C205.504 108.074 205.765 108.516 206.301 108.516C206.754 108.516 206.996 108.195 207.039 107.473L207.883 107.59C207.785 108.582 207.222 109.09 206.289 109.09ZM212.218 109H209.042V108.332H210.007V105.566H209.082V104.898H210.796C210.8 105.176 210.761 105.438 210.636 106.047L210.718 106.074C211.085 105.16 211.574 104.809 212.324 104.781L212.453 105.699C211.328 105.742 210.828 106.117 210.828 107.254V108.332H212.218V109ZM216.023 107.621L216.82 107.746C216.718 108.625 216.14 109.09 215.269 109.09C214.187 109.09 213.613 108.383 213.613 107.09V106.812C213.613 105.516 214.187 104.809 215.269 104.809C216.269 104.809 216.816 105.441 216.816 106.586C216.816 106.746 216.804 106.926 216.788 107.086H214.429V107.227C214.429 108.098 214.706 108.516 215.273 108.516C215.718 108.516 215.976 108.25 216.023 107.621ZM215.265 105.379C214.73 105.379 214.456 105.77 214.433 106.562H215.991V106.453C215.991 105.727 215.757 105.379 215.265 105.379ZM219.081 109.09C218.44 109.09 218.073 108.719 218.073 108.09V108.074C218.073 107.254 218.749 106.922 219.499 106.719L220.249 106.512V106.117C220.249 105.621 220.065 105.379 219.636 105.379C219.143 105.379 218.917 105.703 218.96 106.406L218.151 106.289C218.108 105.355 218.64 104.809 219.647 104.809C220.589 104.809 221.077 105.25 221.077 106.098V108.121C221.077 108.441 221.116 108.48 221.495 108.504L221.37 109.062C221.296 109.078 221.206 109.09 221.108 109.09C220.472 109.09 220.304 108.777 220.479 108.004L220.397 107.984C220.214 108.707 219.772 109.09 219.081 109.09ZM219.378 108.469C219.886 108.469 220.249 108.004 220.249 107.348V107L219.765 107.145C219.276 107.289 218.917 107.531 218.917 107.961V107.98C218.917 108.289 219.089 108.469 219.378 108.469ZM224.811 109.078C223.889 109.078 223.444 108.551 223.444 107.449V105.559H222.362V104.898H223.444V103.836L224.264 103.609V104.898H225.952V105.559H224.264V107.387C224.264 108.078 224.518 108.367 225.045 108.367C225.35 108.367 225.674 108.309 225.924 108.164L225.87 108.844C225.624 108.992 225.26 109.078 224.811 109.078ZM229.221 104.332H228.166V103.531H229.221V104.332ZM230.252 109H227.049V108.332H228.283V105.566H227.088V104.898H229.104V108.332H230.252V109ZM233.127 109.09C232.088 109.09 231.518 108.363 231.518 107.137V106.758C231.518 105.531 232.088 104.809 233.127 104.809C234.162 104.809 234.736 105.531 234.736 106.758V107.137C234.736 108.363 234.162 109.09 233.127 109.09ZM233.127 108.512C233.639 108.512 233.889 108.102 233.889 107.246V106.656C233.889 105.793 233.639 105.383 233.127 105.383C232.611 105.383 232.365 105.793 232.365 106.656V107.246C232.365 108.102 232.611 108.512 233.127 108.512ZM236.935 109H236.115V104.898H236.939C236.931 105.156 236.88 105.426 236.736 105.891L236.81 105.918C237.099 105.16 237.521 104.832 238.111 104.832C238.767 104.832 239.107 105.191 239.107 105.871V109H238.287V106.035C238.287 105.641 238.111 105.422 237.779 105.422C237.279 105.422 236.935 105.996 236.935 106.828V109ZM242.689 109H241.47V107.934H242.689V109ZM246.575 109.09C245.505 109.09 244.946 108.383 244.946 107.035V106.809C244.946 105.5 245.52 104.809 246.583 104.809C247.524 104.809 248.048 105.332 248.122 106.367L247.302 106.48C247.263 105.699 247.04 105.379 246.575 105.379C246.048 105.379 245.79 105.801 245.79 106.691V107.152C245.79 108.074 246.052 108.516 246.587 108.516C247.04 108.516 247.282 108.195 247.325 107.473L248.169 107.59C248.071 108.582 247.509 109.09 246.575 109.09ZM251.032 109.09C249.993 109.09 249.423 108.363 249.423 107.137V106.758C249.423 105.531 249.993 104.809 251.032 104.809C252.067 104.809 252.641 105.531 252.641 106.758V107.137C252.641 108.363 252.067 109.09 251.032 109.09ZM251.032 108.512C251.544 108.512 251.794 108.102 251.794 107.246V106.656C251.794 105.793 251.544 105.383 251.032 105.383C250.516 105.383 250.27 105.793 250.27 106.656V107.246C250.27 108.102 250.516 108.512 251.032 108.512ZM254.461 109H253.762V104.898H254.446C254.446 105.059 254.41 105.246 254.293 105.613L254.364 105.637C254.571 105.07 254.825 104.848 255.2 104.848C255.602 104.848 255.774 105.133 255.684 105.621L255.75 105.645C255.946 105.082 256.223 104.848 256.625 104.848C257.051 104.848 257.254 105.086 257.254 105.582V109H256.555V105.801C256.555 105.57 256.469 105.453 256.293 105.453C256.004 105.453 255.828 105.902 255.828 106.52V109H255.188V105.805C255.188 105.578 255.098 105.453 254.934 105.453C254.653 105.453 254.461 105.887 254.461 106.527V109Z" fill="black" fill-opacity="0.64"/>
<path d="M318.688 107.152H317.469V106.086H318.688V107.152Z" fill="black" fill-opacity="0.64"/>
<path d="M380.461 109.09C379.82 109.09 379.453 108.719 379.453 108.09V108.074C379.453 107.254 380.129 106.922 380.879 106.719L381.629 106.512V106.117C381.629 105.621 381.445 105.379 381.016 105.379C380.523 105.379 380.297 105.703 380.34 106.406L379.531 106.289C379.488 105.355 380.02 104.809 381.027 104.809C381.969 104.809 382.457 105.25 382.457 106.098V108.121C382.457 108.441 382.496 108.48 382.875 108.504L382.75 109.062C382.676 109.078 382.586 109.09 382.488 109.09C381.852 109.09 381.684 108.777 381.859 108.004L381.777 107.984C381.594 108.707 381.152 109.09 380.461 109.09ZM380.758 108.469C381.266 108.469 381.629 108.004 381.629 107.348V107L381.145 107.145C380.656 107.289 380.297 107.531 380.297 107.961V107.98C380.297 108.289 380.469 108.469 380.758 108.469ZM384.886 109H384.066V104.898H384.89C384.883 105.156 384.832 105.426 384.687 105.891L384.761 105.918C385.05 105.16 385.472 104.832 386.062 104.832C386.718 104.832 387.058 105.191 387.058 105.871V109H386.238V106.035C386.238 105.641 386.062 105.422 385.73 105.422C385.23 105.422 384.886 105.996 384.886 106.828V109ZM390.031 109.09C388.992 109.09 388.421 108.363 388.421 107.137V106.758C388.421 105.531 388.992 104.809 390.031 104.809C391.066 104.809 391.64 105.531 391.64 106.758V107.137C391.64 108.363 391.066 109.09 390.031 109.09ZM390.031 108.512C390.542 108.512 390.792 108.102 390.792 107.246V106.656C390.792 105.793 390.542 105.383 390.031 105.383C389.515 105.383 389.269 105.793 389.269 106.656V107.246C389.269 108.102 389.515 108.512 390.031 108.512ZM395.144 109.078C394.222 109.078 393.776 108.551 393.776 107.449V105.559H392.694V104.898H393.776V103.836L394.597 103.609V104.898H396.284V105.559H394.597V107.387C394.597 108.078 394.851 108.367 395.378 108.367C395.683 108.367 396.007 108.309 396.257 108.164L396.202 108.844C395.956 108.992 395.593 109.078 395.144 109.078ZM398.315 109H397.495V103.531H398.315V104.773C398.315 105.121 398.264 105.426 398.112 105.891L398.19 105.918C398.479 105.16 398.901 104.832 399.491 104.832C400.147 104.832 400.487 105.191 400.487 105.871V109H399.667V106.035C399.667 105.641 399.491 105.422 399.159 105.422C398.659 105.422 398.315 105.992 398.315 106.828V109ZM404.26 107.621L405.057 107.746C404.955 108.625 404.377 109.09 403.506 109.09C402.424 109.09 401.85 108.383 401.85 107.09V106.812C401.85 105.516 402.424 104.809 403.506 104.809C404.506 104.809 405.053 105.441 405.053 106.586C405.053 106.746 405.041 106.926 405.026 107.086H402.666V107.227C402.666 108.098 402.944 108.516 403.51 108.516C403.955 108.516 404.213 108.25 404.26 107.621ZM403.502 105.379C402.967 105.379 402.694 105.77 402.67 106.562H404.229V106.453C404.229 105.727 403.995 105.379 403.502 105.379ZM409.408 109H406.233V108.332H407.197V105.566H406.272V104.898H407.986C407.99 105.176 407.951 105.438 407.826 106.047L407.908 106.074C408.275 105.16 408.764 104.809 409.514 104.781L409.643 105.699C408.518 105.742 408.018 106.117 408.018 107.254V108.332H409.408V109ZM412.431 109.09C411.361 109.09 410.802 108.383 410.802 107.035V106.809C410.802 105.5 411.377 104.809 412.439 104.809C413.381 104.809 413.904 105.332 413.978 106.367L413.158 106.48C413.119 105.699 412.896 105.379 412.431 105.379C411.904 105.379 411.646 105.801 411.646 106.691V107.152C411.646 108.074 411.908 108.516 412.443 108.516C412.896 108.516 413.138 108.195 413.181 107.473L414.025 107.59C413.927 108.582 413.365 109.09 412.431 109.09ZM418.361 109H415.185V108.332H416.15V105.566H415.224V104.898H416.939C416.943 105.176 416.904 105.438 416.779 106.047L416.861 106.074C417.228 105.16 417.716 104.809 418.466 104.781L418.595 105.699C417.47 105.742 416.97 106.117 416.97 107.254V108.332H418.361V109ZM422.165 107.621L422.962 107.746C422.86 108.625 422.282 109.09 421.411 109.09C420.329 109.09 419.755 108.383 419.755 107.09V106.812C419.755 105.516 420.329 104.809 421.411 104.809C422.411 104.809 422.958 105.441 422.958 106.586C422.958 106.746 422.946 106.926 422.931 107.086H420.571V107.227C420.571 108.098 420.849 108.516 421.415 108.516C421.86 108.516 422.118 108.25 422.165 107.621ZM421.407 105.379C420.872 105.379 420.599 105.77 420.575 106.562H422.134V106.453C422.134 105.727 421.9 105.379 421.407 105.379ZM425.223 109.09C424.583 109.09 424.216 108.719 424.216 108.09V108.074C424.216 107.254 424.891 106.922 425.641 106.719L426.391 106.512V106.117C426.391 105.621 426.208 105.379 425.778 105.379C425.286 105.379 425.059 105.703 425.102 106.406L424.294 106.289C424.251 105.355 424.782 104.809 425.79 104.809C426.731 104.809 427.22 105.25 427.22 106.098V108.121C427.22 108.441 427.259 108.48 427.638 108.504L427.513 109.062C427.438 109.078 427.348 109.09 427.251 109.09C426.614 109.09 426.446 108.777 426.622 108.004L426.54 107.984C426.356 108.707 425.915 109.09 425.223 109.09ZM425.52 108.469C426.028 108.469 426.391 108.004 426.391 107.348V107L425.907 107.145C425.419 107.289 425.059 107.531 425.059 107.961V107.98C425.059 108.289 425.231 108.469 425.52 108.469ZM430.954 109.078C430.032 109.078 429.586 108.551 429.586 107.449V105.559H428.504V104.898H429.586V103.836L430.407 103.609V104.898H432.094V105.559H430.407V107.387C430.407 108.078 430.661 108.367 431.188 108.367C431.493 108.367 431.817 108.309 432.067 108.164L432.012 108.844C431.766 108.992 431.403 109.078 430.954 109.078ZM435.363 104.332H434.309V103.531H435.363V104.332ZM436.395 109H433.192V108.332H434.426V105.566H433.231V104.898H435.246V108.332H436.395V109ZM439.269 109.09C438.23 109.09 437.66 108.363 437.66 107.137V106.758C437.66 105.531 438.23 104.809 439.269 104.809C440.305 104.809 440.879 105.531 440.879 106.758V107.137C440.879 108.363 440.305 109.09 439.269 109.09ZM439.269 108.512C439.781 108.512 440.031 108.102 440.031 107.246V106.656C440.031 105.793 439.781 105.383 439.269 105.383C438.754 105.383 438.508 105.793 438.508 106.656V107.246C438.508 108.102 438.754 108.512 439.269 108.512ZM443.078 109H442.257V104.898H443.082C443.074 105.156 443.023 105.426 442.878 105.891L442.953 105.918C443.242 105.16 443.664 104.832 444.253 104.832C444.91 104.832 445.25 105.191 445.25 105.871V109H444.429V106.035C444.429 105.641 444.253 105.422 443.921 105.422C443.421 105.422 443.078 105.996 443.078 106.828V109ZM448.831 109H447.613V107.934H448.831V109ZM452.718 109.09C451.647 109.09 451.089 108.383 451.089 107.035V106.809C451.089 105.5 451.663 104.809 452.725 104.809C453.667 104.809 454.19 105.332 454.265 106.367L453.444 106.48C453.405 105.699 453.183 105.379 452.718 105.379C452.19 105.379 451.933 105.801 451.933 106.691V107.152C451.933 108.074 452.194 108.516 452.729 108.516C453.183 108.516 453.425 108.195 453.468 107.473L454.311 107.59C454.214 108.582 453.651 109.09 452.718 109.09ZM457.174 109.09C456.135 109.09 455.565 108.363 455.565 107.137V106.758C455.565 105.531 456.135 104.809 457.174 104.809C458.21 104.809 458.784 105.531 458.784 106.758V107.137C458.784 108.363 458.21 109.09 457.174 109.09ZM457.174 108.512C457.686 108.512 457.936 108.102 457.936 107.246V106.656C457.936 105.793 457.686 105.383 457.174 105.383C456.659 105.383 456.413 105.793 456.413 106.656V107.246C456.413 108.102 456.659 108.512 457.174 108.512ZM460.604 109H459.905V104.898H460.588C460.588 105.059 460.553 105.246 460.436 105.613L460.506 105.637C460.713 105.07 460.967 104.848 461.342 104.848C461.744 104.848 461.916 105.133 461.826 105.621L461.893 105.645C462.088 105.082 462.365 104.848 462.768 104.848C463.194 104.848 463.397 105.086 463.397 105.582V109H462.698V105.801C462.698 105.57 462.612 105.453 462.436 105.453C462.147 105.453 461.971 105.902 461.971 106.52V109H461.33V105.805C461.33 105.578 461.24 105.453 461.076 105.453C460.795 105.453 460.604 105.887 460.604 106.527V109Z" fill="black" fill-opacity="0.64"/>
</svg>
