<svg width="640" height="320" viewBox="0 0 640 320" fill="none" xmlns="http://www.w3.org/2000/svg">
<g clip-path="url(#clip0_21_11801)">
<rect width="640" height="320" fill="white"/>
<path d="M73.7135 35.034C73.8222 35.0354 74.3353 35.4735 74.8535 36.0076C75.3714 36.5413 75.7954 37.0445 75.7962 37.1264C75.7958 37.2084 75.5994 37.7202 75.3594 38.2639C75.119 38.8084 74.3368 40.3497 73.621 41.6894C72.9052 43.029 72.0852 44.5577 71.7985 45.0865C71.5118 45.6152 70.5882 47.3121 69.7464 48.8571C68.9045 50.4022 67.5881 52.8306 66.8212 54.2537C66.0543 55.6768 65.0295 57.573 64.544 58.4676C64.0586 59.3621 63.5022 60.3936 63.3076 60.7595C63.1127 61.126 61.7128 63.754 60.1963 66.5999C57.4394 71.7743 57.439 71.775 57.5107 72.514C57.5957 73.3895 57.0778 74.5595 58.2936 75.2061C59.5099 75.8513 63.8007 68.4042 64.9691 67.8247C66.7461 66.9435 67.2583 66.3974 68.8064 65.0793C69.4859 64.5009 70.7151 63.3829 71.5377 62.5947C72.3603 61.8063 73.736 60.3655 74.5944 59.3931C75.4527 58.4207 76.4476 57.1832 76.8053 56.6432C77.1629 56.1033 77.5144 55.6604 77.5859 55.6587C78.1219 55.6458 79.5094 56.2301 79.8887 56.6613C79.9568 56.7399 79.8724 57.1359 79.6826 57.6237C79.5048 58.0803 79.0416 58.9051 78.6535 59.4566C78.2653 60.0083 77.5385 61.1582 77.0382 62.0121C76.538 62.866 75.6137 64.5629 74.9844 65.7827C74.355 67.0026 73.2044 69.4051 72.4275 71.1215C71.6504 72.8381 70.7451 74.9671 70.4156 75.8528C70.086 76.7384 69.6755 77.9292 69.5034 78.4984C69.3313 79.0676 69.1072 79.8492 69.0053 80.2355C68.9037 80.6216 68.8706 80.9375 68.9318 80.9377C68.9935 80.9367 69.3473 80.4981 69.718 79.9618C70.0891 79.4248 70.7463 78.3432 71.1783 77.5587C71.6081 76.7782 71.9713 76.1228 71.9885 76.0965C72.002 76.0767 72.53 76.2584 73.1613 76.5012C73.7925 76.7437 74.3316 76.9681 74.3593 76.9993C74.3858 77.0328 74.2602 77.5063 74.079 78.0535C73.8974 78.6022 73.535 79.4517 73.2733 79.9414C73.0116 80.4311 72.3771 81.4712 71.8631 82.2526C71.3491 83.034 70.5976 84.0253 70.1938 84.4561C69.79 84.8867 69.253 85.3377 68.9998 85.4581C68.5662 85.6641 68.4697 85.6506 67.3399 85.2252C66.6713 84.9733 66.0407 84.6375 65.913 84.4658C65.7608 84.26 65.685 83.9059 65.6851 83.398C65.6851 82.9802 65.7714 82.1723 65.8762 81.6031C65.9812 81.0339 66.2668 79.9363 66.5108 79.1638C67.0897 77.3318 67.6955 75.5154 68.3663 73.7235C68.6797 72.8867 69.3487 71.2319 69.8528 70.0464C70.355 68.8652 70.7401 67.8682 70.7114 67.8247C70.6793 67.7883 69.9389 68.3025 69.0661 68.9678C66.2605 71.1058 60.3831 80.2443 57.5107 79.1677C56.465 78.7755 55.5305 77.9218 55.3684 76.5012C53.2088 76.5215 48.7657 89.4116 48.1841 91.366C47.7844 92.7094 41.9631 109.943 41.6061 111.244C41.2492 112.545 40.7566 114.508 40.5112 115.606C40.2659 116.703 39.9929 118.134 39.9044 118.784C39.8159 119.435 39.7321 119.981 39.7183 119.998C39.7028 120.015 39.1192 119.931 38.4207 119.811C37.7219 119.692 37.1027 119.628 37.0428 119.668C36.9845 119.709 36.5205 119.304 36.012 118.769C35.2402 117.957 35.0876 117.719 35.0888 117.329C35.0895 117.072 35.1738 116.505 35.276 116.068C35.3783 115.631 35.7098 114.6 36.0125 113.776C38.3918 107.307 39.9041 102.828 43.4381 94.0122C44.7633 90.7061 46.3642 87.4704 47.4458 84.0469C47.677 83.3149 48.4121 81.1192 49.0795 79.1677C49.747 77.2162 50.5216 74.987 50.8006 74.2143C51.0798 73.4416 51.7785 71.5789 52.3535 70.0747C52.9287 68.5704 53.8739 66.1453 54.4535 64.6854C55.0313 63.2301 55.5043 62.0179 55.5071 61.9866C55.5075 61.9623 55.5687 61.9424 55.6436 61.9423C55.7196 61.9427 56.3045 62.1504 56.9441 62.4043C58.0372 62.8382 58.1086 62.8918 58.1086 63.2827C58.1086 63.5117 58.1626 63.7376 58.2289 63.7843C58.2968 63.8279 58.8725 62.8844 59.5093 61.6856C60.1471 60.485 61.0974 58.7044 61.621 57.7285C62.1448 56.7527 63.3916 54.4569 64.3919 52.6272C65.392 50.7977 66.4394 48.8686 66.7192 48.3397C66.9988 47.8111 67.5765 46.7466 68.0024 45.974C68.4285 45.2015 69.0153 44.1149 69.3068 43.5597C69.5975 43.0058 69.8083 42.5209 69.7759 42.4805C69.7424 42.4423 69.6342 42.4976 69.5358 42.603C69.4373 42.7086 69.006 43.1268 68.5774 43.5324C68.1488 43.9382 67.7334 44.3378 67.6547 44.42C67.5756 44.5026 66.9352 45.1351 66.2317 45.8261C65.5281 46.5173 64.3926 47.6402 63.7088 48.3215C63.0248 49.0027 62.2603 49.7683 62.01 50.0229C61.7594 50.2778 60.9111 51.1175 60.1245 51.8892C59.3378 52.6612 58.1923 53.7917 57.5793 54.4017C56.9664 55.0115 55.9715 55.9874 55.3684 56.5701C54.7653 57.1528 53.6771 58.1843 52.9508 58.862C52.2244 59.5398 51.0541 60.5995 50.3499 61.2169C49.6456 61.8344 48.6009 62.7082 48.0287 63.1586C47.4565 63.609 46.6336 64.1793 46.2 64.4264C45.7665 64.6735 45.2039 64.9197 44.9503 64.9739C44.517 65.0663 44.4267 65.0089 43.4381 64.0121C42.7348 63.3031 42.3599 62.8107 42.3042 62.5238C42.2566 62.2778 42.314 61.7322 42.4391 61.2424C42.5589 60.7734 42.9247 59.7244 43.252 58.9113C43.5792 58.0982 44.2258 56.6346 44.6884 55.6587C45.1508 54.6829 46.2605 52.4207 47.1539 50.6316C48.0472 48.8427 48.967 47.0126 49.1982 46.5652C49.4293 46.1179 49.8552 45.2858 50.1443 44.7158C50.4332 44.1457 50.857 43.2913 51.0859 42.8172C51.4129 42.1396 51.4501 41.9879 51.2609 42.1076C51.1285 42.1916 50.7191 42.5138 50.351 42.8234C49.983 43.1333 48.1747 44.6836 46.3332 46.2693C44.4914 47.8551 42.8318 49.2836 42.6452 49.4431C42.4578 49.6034 40.9008 50.9604 39.1846 52.4594C37.4679 53.9588 35.6831 55.5286 35.218 55.9478C34.7531 56.3668 33.0622 57.9039 31.4604 59.363C29.8587 60.8224 28.3659 62.1797 28.1435 62.3793C27.9211 62.579 27.2706 63.2209 26.6982 63.8058C25.6574 64.8695 25.6572 64.8696 24.7152 63.8869C23.7727 62.9037 23.7726 62.9035 24.6506 61.8687C25.1332 61.2996 25.7354 60.6286 25.9889 60.3775C26.2423 60.1266 26.828 59.5608 27.2905 59.1205C27.7528 58.6802 28.4238 58.0537 28.7809 57.7285C29.1379 57.4034 29.547 57.0278 29.6902 56.8931C29.8333 56.7586 30.4185 56.2295 30.9907 55.7177C31.563 55.2059 32.7338 54.1548 33.5922 53.3821C34.4505 52.6093 35.4747 51.6928 35.8682 51.3452C36.2617 50.9977 37.6368 49.794 38.9244 48.6712C40.2117 47.5486 41.4184 46.4995 41.6061 46.339C41.7932 46.1789 43.4541 44.7504 45.2963 43.1646C47.1385 41.5789 49.4435 39.6124 50.4184 38.7949C51.3931 37.9775 52.5923 36.9962 53.0834 36.6141C53.5746 36.232 54.104 35.9198 54.2596 35.9198C54.4267 35.9205 54.9298 36.3223 55.4865 36.8997C56.3666 37.8129 56.4249 37.9108 56.3429 38.341C56.2944 38.595 56.029 39.3145 55.7534 39.9398C55.4774 40.5654 54.1012 43.3598 52.695 46.1497C51.2888 48.9397 49.4995 52.52 48.719 54.1058C47.9384 55.6916 46.9486 57.8113 46.5198 58.8161C46.0911 59.8208 45.7575 60.7025 45.7788 60.7754C45.8014 60.847 46.2869 60.5577 46.8586 60.1316C47.4313 59.7046 48.6315 58.7064 49.5252 57.9139C50.4189 57.1214 51.4512 56.19 51.8192 55.8441C52.1871 55.4981 52.8017 54.9245 53.1848 54.57C53.5679 54.2155 54.1739 53.6398 54.5315 53.2903C54.8891 52.9408 55.6568 52.1922 56.237 51.6268C56.8172 51.0615 57.4077 50.473 57.5492 50.3193C57.6908 50.1656 58.3535 49.5076 59.0224 48.8571C59.6913 48.2066 60.3321 47.5742 60.4465 47.4521C60.5608 47.3301 60.8863 47.0052 61.1697 46.7301C61.453 46.4548 62.0339 45.8895 62.4602 45.4736C62.8866 45.0576 63.7938 44.1517 64.476 43.4605C65.1583 42.7693 66.0602 41.8711 66.4802 41.4644C66.9001 41.0578 67.4917 40.4919 67.7946 40.2073C68.0976 39.9227 69.1882 38.8866 70.2178 37.9051C71.2474 36.9239 72.4111 35.8763 72.8036 35.5769C73.1957 35.2779 73.6048 35.0335 73.7135 35.034Z" fill="black"/>
<path d="M89.4048 60.0811C90.6082 58.8926 90.6082 58.8928 91.6157 59.4135C92.1699 59.7 92.7043 60.025 92.8024 60.1355C92.9533 60.3057 92.9222 60.4691 92.6002 61.1999C92.3908 61.6752 91.4676 63.4277 90.5487 65.0946C89.6298 66.7617 88.777 68.3255 88.6537 68.5694C88.5303 68.8136 88.1595 69.5074 87.8296 70.1116C87.4997 70.7156 87.2558 71.2392 87.2869 71.2751C87.3218 71.3065 88.1005 70.4502 89.0203 69.3685C90.6963 67.3974 90.6966 67.3975 91.8552 67.9993C92.7587 68.4687 93.023 68.6743 93.0571 68.935C93.0979 69.2483 93.1426 69.2633 93.7725 69.1662C94.1421 69.1094 95.1377 69.0065 95.9845 68.9378C97.3143 68.8299 97.5933 68.7606 98.0299 68.4323C98.3079 68.2231 98.5882 68.0521 98.6528 68.052C98.7178 68.0523 99.0958 68.2216 99.493 68.4283C100.084 68.736 100.26 68.7726 100.452 68.6278C100.582 68.5303 101.28 67.7121 102.004 66.8096C102.729 65.9073 103.907 64.3679 104.623 63.3893C105.339 62.4111 106.02 61.5211 106.137 61.4107C106.318 61.2397 106.5 61.2895 107.419 61.7627C108.008 62.0657 108.572 62.4016 108.671 62.5091C108.823 62.675 108.766 62.9726 108.298 64.4542C107.993 65.4163 107.488 67.0355 107.176 68.052C106.863 69.0684 106.607 69.9851 106.607 70.0889C106.606 70.2312 106.702 70.22 107.004 70.0424C107.387 69.8175 107.445 69.8271 108.361 70.2606C108.993 70.5596 109.538 70.7134 109.966 70.7134C110.323 70.7133 111.541 70.5075 112.674 70.2561C113.806 70.0046 115.26 69.7642 115.904 69.7216C117.064 69.6451 117.085 69.6496 118.243 70.2589C118.885 70.5969 119.543 71.0155 119.706 71.189C119.868 71.3623 120.001 71.609 120 71.737C119.999 71.8656 119.859 72.3116 119.688 72.7283C119.517 73.1452 119.316 73.5294 119.242 73.5818C119.166 73.6336 118.665 73.4287 118.127 73.1261C117.148 72.5754 117.148 72.5755 116.201 72.7441C115.68 72.837 114.61 73.0527 113.823 73.2236C113.036 73.3943 111.924 73.5453 111.352 73.5597C110.466 73.5817 110.198 73.5262 109.548 73.1845C109.13 72.9648 108.763 72.7847 108.731 72.7832C108.702 72.7832 108.09 73.4153 107.372 74.1877C106.655 74.9596 105.933 75.6301 105.768 75.6777C105.564 75.7361 105.096 75.5503 104.298 75.0945C103.654 74.727 103.091 74.3171 103.045 74.1837C103 74.0507 102.964 73.7311 102.965 73.4735C102.966 73.216 103.133 72.2899 103.337 71.4157C103.54 70.5442 103.684 69.831 103.658 69.8265C103.627 69.8307 102.992 70.487 102.244 71.2887C101.493 72.0931 100.664 72.8675 100.401 73.0094C99.9235 73.267 99.9228 73.2668 98.6144 72.5356C97.3057 71.8043 97.3055 71.8042 95.8101 71.9869C94.9876 72.0875 94.0217 72.1743 93.6638 72.1796C93.2295 72.1861 92.7828 72.0667 92.3183 71.8209C91.9361 71.6187 91.5476 71.4529 91.4546 71.4525C91.3623 71.4525 90.0985 72.8997 88.6464 74.6683C87.1943 76.4369 85.3879 78.6024 84.6325 79.4794C83.8772 80.3564 83.0362 81.2495 82.7637 81.4642C82.2684 81.8548 82.2681 81.8548 81.1056 81.2069C80.1339 80.6654 79.943 80.5019 79.9427 80.2117C79.9427 80.0205 80.1771 79.3467 80.4632 78.7149C80.7488 78.0842 80.9823 77.5212 80.983 77.4629C80.9838 77.4048 81.2559 76.8115 81.5881 76.1435C81.9208 75.4745 82.4669 74.395 82.8016 73.7445C83.1364 73.0939 83.7517 71.8962 84.169 71.083C84.5861 70.27 85.0684 69.3491 85.241 69.0364C85.4132 68.7247 85.5248 68.4356 85.4895 68.3937C85.4531 68.353 84.6146 69.0471 83.6263 69.9359C82.6376 70.8248 81.1482 72.1302 80.3166 72.8371C79.011 73.947 78.7737 74.2143 78.5788 74.7946C78.4546 75.164 78.2739 75.5009 78.1771 75.5433C78.0802 75.5856 77.3843 75.2854 76.6309 74.8763C75.8784 74.4676 75.2626 74.068 75.2608 73.9876C75.2608 73.9081 75.3716 73.5544 75.5071 73.2021C75.6425 72.8499 75.8618 72.4603 75.9946 72.3361C76.1274 72.212 77.3484 71.1522 78.7075 69.9812C80.0666 68.8102 81.7637 67.3188 82.479 66.6674C83.1944 66.0159 84.7744 64.5353 85.9904 63.3768C87.2064 62.2182 88.743 60.735 89.4048 60.0811Z" fill="black"/>
<path d="M115.856 61.5354C116.026 61.4861 116.426 61.5606 116.749 61.7026C117.071 61.8438 117.59 62.0763 117.901 62.2189C118.444 62.4673 118.465 62.4991 118.395 62.9886C118.355 63.2694 118.23 63.6587 118.118 63.8534C117.982 64.0891 117.79 64.2076 117.545 64.2077C117.341 64.2075 116.743 64.005 116.216 63.7577C115.688 63.5105 115.21 63.2547 115.151 63.1892C115.094 63.124 115.16 62.7453 115.297 62.3476C115.474 61.8352 115.637 61.5987 115.856 61.5354Z" fill="black"/>
<path d="M97.6449 60.8071C97.7785 60.8074 98.39 61.0898 99.0038 61.4351C100.072 62.0359 100.117 62.0819 100.047 62.4825C100.007 62.713 99.8527 63.0961 99.7042 63.3332C99.5558 63.57 99.3155 63.7635 99.1704 63.7639C99.0253 63.7639 98.4147 63.4591 97.8137 63.0866C97.2133 62.7145 96.7216 62.3453 96.7205 62.266C96.7206 62.1871 96.8156 61.91 96.9317 61.6499C97.0479 61.3899 97.2013 61.0939 97.2727 60.9919C97.3441 60.8903 97.5116 60.8072 97.6449 60.8071Z" fill="black"/>
<path d="M73.1301 24.0004C73.2028 24.024 73.748 24.237 74.3425 24.4736C75.3987 24.8939 75.4231 24.9143 75.3516 25.3226C75.3112 25.5526 75.1869 25.9518 75.0747 26.2096C74.945 26.5073 74.1514 27.299 72.9011 28.3786C71.818 29.3137 70.2554 30.7153 69.4293 31.4929C68.6034 32.2704 67.6546 33.253 67.321 33.676C66.7147 34.4445 66.7141 34.4443 65.5865 33.9804C64.4587 33.5164 64.4585 33.516 64.5457 32.9806C64.5938 32.6859 64.7844 32.1279 64.9691 31.7405C65.1801 31.298 65.7383 30.6109 66.4707 29.8924C67.1122 29.2632 68.8437 27.6704 70.3186 26.353C71.7931 25.0358 73.0583 23.9773 73.1301 24.0004Z" fill="black"/>
<path d="M640 160L0 160" stroke="black" stroke-opacity="0.08" stroke-width="2" stroke-dasharray="5.13 3.42"/>
<path d="M545.035 256H544.227L545.457 250.531H546.668L547.93 256H547.059L546.805 254.934H545.289L545.035 256ZM545.75 252.746L545.418 254.332H546.68L546.348 252.746C546.246 252.254 546.172 251.832 546.082 251.242H546C545.922 251.832 545.852 252.254 545.75 252.746ZM549.886 256H549.066V251.898H549.89C549.883 252.156 549.832 252.426 549.687 252.891L549.761 252.918C550.05 252.16 550.472 251.832 551.062 251.832C551.718 251.832 552.058 252.191 552.058 252.871V256H551.238V253.035C551.238 252.641 551.062 252.422 550.73 252.422C550.23 252.422 549.886 252.996 549.886 253.828V256ZM555.031 256.09C553.992 256.09 553.421 255.363 553.421 254.137V253.758C553.421 252.531 553.992 251.809 555.031 251.809C556.066 251.809 556.64 252.531 556.64 253.758V254.137C556.64 255.363 556.066 256.09 555.031 256.09ZM555.031 255.512C555.542 255.512 555.792 255.102 555.792 254.246V253.656C555.792 252.793 555.542 252.383 555.031 252.383C554.515 252.383 554.269 252.793 554.269 253.656V254.246C554.269 255.102 554.515 255.512 555.031 255.512ZM560.144 256.078C559.222 256.078 558.776 255.551 558.776 254.449V252.559H557.694V251.898H558.776V250.836L559.597 250.609V251.898H561.284V252.559H559.597V254.387C559.597 255.078 559.851 255.367 560.378 255.367C560.683 255.367 561.007 255.309 561.257 255.164L561.202 255.844C560.956 255.992 560.593 256.078 560.144 256.078ZM563.315 256H562.495V250.531H563.315V251.773C563.315 252.121 563.264 252.426 563.112 252.891L563.19 252.918C563.479 252.16 563.901 251.832 564.491 251.832C565.147 251.832 565.487 252.191 565.487 252.871V256H564.667V253.035C564.667 252.641 564.491 252.422 564.159 252.422C563.659 252.422 563.315 252.992 563.315 253.828V256ZM569.26 254.621L570.057 254.746C569.955 255.625 569.377 256.09 568.506 256.09C567.424 256.09 566.85 255.383 566.85 254.09V253.812C566.85 252.516 567.424 251.809 568.506 251.809C569.506 251.809 570.053 252.441 570.053 253.586C570.053 253.746 570.041 253.926 570.026 254.086H567.666V254.227C567.666 255.098 567.944 255.516 568.51 255.516C568.955 255.516 569.213 255.25 569.26 254.621ZM568.502 252.379C567.967 252.379 567.694 252.77 567.67 253.562H569.229V253.453C569.229 252.727 568.995 252.379 568.502 252.379ZM574.408 256H571.233V255.332H572.197V252.566H571.272V251.898H572.986C572.99 252.176 572.951 252.438 572.826 253.047L572.908 253.074C573.275 252.16 573.764 251.809 574.514 251.781L574.643 252.699C573.518 252.742 573.018 253.117 573.018 254.254V255.332H574.408V256ZM581.892 256.086C580.736 256.086 580.162 255.312 580.162 253.816V252.715C580.162 251.219 580.744 250.445 581.888 250.445C582.919 250.445 583.525 251.059 583.552 252.473L582.736 252.645C582.728 251.477 582.447 251.102 581.904 251.102C581.306 251.102 581.021 251.57 581.021 252.574V253.953C581.021 254.953 581.31 255.422 581.912 255.422C582.447 255.422 582.755 255.043 582.767 253.832L583.595 254.035C583.564 255.48 582.915 256.086 581.892 256.086ZM587.837 256H584.661V255.332H585.626V252.566H584.7V251.898H586.415C586.419 252.176 586.38 252.438 586.255 253.047L586.337 253.074C586.704 252.16 587.193 251.809 587.943 251.781L588.071 252.699C586.946 252.742 586.446 253.117 586.446 254.254V255.332H587.837V256ZM591.641 254.621L592.438 254.746C592.337 255.625 591.759 256.09 590.888 256.09C589.805 256.09 589.231 255.383 589.231 254.09V253.812C589.231 252.516 589.805 251.809 590.888 251.809C591.888 251.809 592.434 252.441 592.434 253.586C592.434 253.746 592.423 253.926 592.407 254.086H590.048V254.227C590.048 255.098 590.325 255.516 590.891 255.516C591.337 255.516 591.595 255.25 591.641 254.621ZM590.884 252.379C590.348 252.379 590.075 252.77 590.052 253.562H591.61V253.453C591.61 252.727 591.376 252.379 590.884 252.379ZM594.7 256.09C594.059 256.09 593.692 255.719 593.692 255.09V255.074C593.692 254.254 594.368 253.922 595.118 253.719L595.868 253.512V253.117C595.868 252.621 595.684 252.379 595.254 252.379C594.762 252.379 594.536 252.703 594.579 253.406L593.77 253.289C593.727 252.355 594.258 251.809 595.266 251.809C596.208 251.809 596.696 252.25 596.696 253.098V255.121C596.696 255.441 596.735 255.48 597.114 255.504L596.989 256.062C596.915 256.078 596.825 256.09 596.727 256.09C596.09 256.09 595.922 255.777 596.098 255.004L596.016 254.984C595.833 255.707 595.391 256.09 594.7 256.09ZM594.997 255.469C595.504 255.469 595.868 255.004 595.868 254.348V254L595.383 254.145C594.895 254.289 594.536 254.531 594.536 254.961V254.98C594.536 255.289 594.708 255.469 594.997 255.469ZM600.43 256.078C599.508 256.078 599.063 255.551 599.063 254.449V252.559H597.981V251.898H599.063V250.836L599.883 250.609V251.898H601.57V252.559H599.883V254.387C599.883 255.078 600.137 255.367 600.664 255.367C600.969 255.367 601.293 255.309 601.543 255.164L601.488 255.844C601.242 255.992 600.879 256.078 600.43 256.078ZM604.84 251.332H603.785V250.531H604.84V251.332ZM605.871 256H602.668V255.332H603.902V252.566H602.707V251.898H604.722V255.332H605.871V256ZM608.746 256.09C607.707 256.09 607.136 255.363 607.136 254.137V253.758C607.136 252.531 607.707 251.809 608.746 251.809C609.781 251.809 610.355 252.531 610.355 253.758V254.137C610.355 255.363 609.781 256.09 608.746 256.09ZM608.746 255.512C609.257 255.512 609.507 255.102 609.507 254.246V253.656C609.507 252.793 609.257 252.383 608.746 252.383C608.23 252.383 607.984 252.793 607.984 253.656V254.246C607.984 255.102 608.23 255.512 608.746 255.512ZM612.554 256H611.734V251.898H612.558C612.55 252.156 612.499 252.426 612.355 252.891L612.429 252.918C612.718 252.16 613.14 251.832 613.73 251.832C614.386 251.832 614.726 252.191 614.726 252.871V256H613.905V253.035C613.905 252.641 613.73 252.422 613.398 252.422C612.898 252.422 612.554 252.996 612.554 253.828V256Z" fill="black" fill-opacity="0.8"/>
<path d="M533.125 268.086C532.039 268.086 531.422 267.523 531.391 266.227L532.195 266.07C532.207 267.109 532.512 267.457 533.148 267.457C533.633 267.457 533.941 267.164 533.941 266.723C533.941 266.324 533.703 266.055 533.125 265.691L532.559 265.332C531.953 264.949 531.527 264.566 531.531 263.828C531.535 263 532.129 262.445 533.043 262.445C534.066 262.445 534.617 263 534.641 264.164L533.875 264.309C533.867 263.41 533.598 263.07 533.039 263.07C532.605 263.07 532.32 263.34 532.32 263.746C532.32 264.098 532.504 264.332 533.121 264.707L533.688 265.055C534.266 265.41 534.766 265.824 534.766 266.617C534.766 267.492 534.117 268.086 533.125 268.086ZM537.004 268H536.183V262.531H537.004V264.344C537.004 264.84 536.972 265.172 536.894 265.609L536.961 265.641L538.386 263.898H539.293L538.066 265.359L539.343 268H538.476L537.496 265.887L537.004 266.438V268ZM542.386 263.527H541.703L542.214 262.531H543.16L542.386 263.527ZM542.031 268.09C540.992 268.09 540.421 267.363 540.421 266.137V265.758C540.421 264.531 540.992 263.809 542.031 263.809C543.066 263.809 543.64 264.531 543.64 265.758V266.137C543.64 267.363 543.066 268.09 542.031 268.09ZM542.031 267.512C542.542 267.512 542.792 267.102 542.792 266.246V265.656C542.792 264.793 542.542 264.383 542.031 264.383C541.515 264.383 541.269 264.793 541.269 265.656V266.246C541.269 267.102 541.515 267.512 542.031 267.512ZM547.386 268.078C546.476 268.078 546.065 267.582 546.065 266.449V263.199H544.73V262.531H546.886V266.387C546.886 267.062 547.124 267.348 547.64 267.348C547.89 267.348 548.159 267.293 548.355 267.164L548.304 267.844C548.093 267.992 547.776 268.078 547.386 268.078ZM550.366 268.09C549.725 268.09 549.358 267.719 549.358 267.09V267.074C549.358 266.254 550.034 265.922 550.784 265.719L551.534 265.512V265.117C551.534 264.621 551.35 264.379 550.921 264.379C550.428 264.379 550.202 264.703 550.245 265.406L549.436 265.289C549.393 264.355 549.925 263.809 550.932 263.809C551.874 263.809 552.362 264.25 552.362 265.098V267.121C552.362 267.441 552.401 267.48 552.78 267.504L552.655 268.062C552.581 268.078 552.491 268.09 552.393 268.09C551.757 268.09 551.589 267.777 551.764 267.004L551.682 266.984C551.499 267.707 551.057 268.09 550.366 268.09ZM550.663 267.469C551.171 267.469 551.534 267.004 551.534 266.348V266L551.05 266.145C550.561 266.289 550.202 266.531 550.202 266.961V266.98C550.202 267.289 550.374 267.469 550.663 267.469ZM555.905 268H555.022L553.725 263.898H554.58L555.19 266.055C555.284 266.383 555.358 266.688 555.44 267.082H555.522C555.604 266.688 555.678 266.387 555.768 266.055L556.37 263.898H557.194L555.905 268ZM559.592 263.398H558.674V262.594H559.592V263.398ZM561.197 263.398H560.279V262.594H561.197V263.398ZM559.936 268.09C558.897 268.09 558.326 267.363 558.326 266.137V265.758C558.326 264.531 558.897 263.809 559.936 263.809C560.971 263.809 561.545 264.531 561.545 265.758V266.137C561.545 267.363 560.971 268.09 559.936 268.09ZM559.936 267.512C560.447 267.512 560.697 267.102 560.697 266.246V265.656C560.697 264.793 560.447 264.383 559.936 264.383C559.42 264.383 559.174 264.793 559.174 265.656V266.246C559.174 267.102 559.42 267.512 559.936 267.512ZM565.885 268H562.709V267.332H563.674V264.566H562.748V263.898H564.463C564.467 264.176 564.427 264.438 564.302 265.047L564.385 265.074C564.752 264.16 565.24 263.809 565.99 263.781L566.119 264.699C564.994 264.742 564.494 265.117 564.494 266.254V267.332H565.885V268ZM570.392 263.199L569.97 263.281C570.353 263.961 570.537 264.742 570.537 265.66V266.023C570.537 267.359 569.951 268.094 568.865 268.094C567.818 268.094 567.24 267.383 567.24 266.09V265.844C567.24 264.578 567.716 263.875 568.568 263.875C569.205 263.875 569.478 264.188 569.673 264.645L569.748 264.617C569.677 264.305 569.501 263.879 569.201 263.43L568.283 263.605L568.177 263.059L568.826 262.934C568.74 262.836 568.646 262.734 568.548 262.637L569.345 262.445C569.447 262.555 569.544 262.664 569.63 262.777L570.287 262.652L570.392 263.199ZM569.646 266.203V265.77C569.646 264.902 569.369 264.434 568.853 264.434C568.376 264.434 568.142 264.848 568.142 265.711V266.203C568.142 267.062 568.376 267.473 568.865 267.473C569.392 267.473 569.646 267.062 569.646 266.203ZM574.032 263.898H574.853V268H574.028C574.036 267.742 574.087 267.473 574.232 267.008L574.157 266.98C573.868 267.738 573.45 268.066 572.857 268.066C572.2 268.066 571.86 267.707 571.86 267.027V263.898H572.681V266.863C572.681 267.258 572.857 267.477 573.189 267.477C573.689 267.477 574.032 266.902 574.032 266.07V263.898ZM577.915 268.09C576.872 268.09 576.27 267.625 576.239 266.781L577.024 266.605C577.02 267.219 577.325 267.559 577.911 267.559C578.341 267.559 578.63 267.355 578.63 267.008C578.63 266.664 578.38 266.48 577.841 266.277L577.302 266.074C576.766 265.871 576.348 265.562 576.348 264.996C576.348 264.258 576.864 263.812 577.794 263.812C578.774 263.812 579.305 264.238 579.325 265.004L578.552 265.156C578.567 264.621 578.305 264.34 577.805 264.34C577.38 264.34 577.126 264.547 577.126 264.871C577.126 265.16 577.321 265.316 577.86 265.516L578.399 265.711C578.934 265.91 579.442 266.199 579.442 266.918C579.442 267.621 578.884 268.09 577.915 268.09ZM582.954 268.078C582.032 268.078 581.586 267.551 581.586 266.449V264.559H580.504V263.898H581.586V262.836L582.407 262.609V263.898H584.094V264.559H582.407V266.387C582.407 267.078 582.661 267.367 583.188 267.367C583.493 267.367 583.817 267.309 584.067 267.164L584.012 267.844C583.766 267.992 583.403 268.078 582.954 268.078ZM587.192 263.527H586.508L587.02 262.531H587.965L587.192 263.527ZM588.395 268H585.192V267.332H586.426V264.566H585.231V263.898H587.246V267.332H588.395V268ZM591.047 267.016L591.691 267.098C592.332 267.188 593.055 267.34 593.055 268.238C593.055 269.074 592.465 269.457 591.222 269.457C590.047 269.457 589.488 269.125 589.488 268.457C589.488 267.992 589.703 267.742 590.199 267.629V267.551C589.859 267.418 589.633 267.188 589.633 266.828C589.633 266.5 589.847 266.285 590.25 266.215V266.148C589.933 265.93 589.765 265.578 589.765 265.109C589.765 264.27 590.301 263.809 591.269 263.809C591.465 263.809 591.64 263.828 591.797 263.863C591.691 263.25 592.023 262.809 592.863 262.75L592.976 263.469C592.324 263.539 592.09 263.648 592.097 263.965C592.531 264.164 592.765 264.555 592.765 265.109C592.765 265.949 592.23 266.41 591.269 266.41C590.996 266.41 590.758 266.375 590.558 266.301C590.324 266.348 590.234 266.441 590.234 266.578C590.234 266.797 590.406 266.926 591.047 267.016ZM591.269 264.297C590.816 264.297 590.597 264.555 590.597 265.109C590.597 265.664 590.816 265.918 591.269 265.918C591.719 265.918 591.933 265.664 591.933 265.109C591.933 264.555 591.719 264.297 591.269 264.297ZM591.262 268.871C592.023 268.871 592.355 268.703 592.355 268.305C592.355 267.922 592.07 267.84 591.426 267.762L590.781 267.688C590.719 267.68 590.652 267.672 590.594 267.66C590.234 267.785 590.117 267.969 590.117 268.254C590.117 268.672 590.445 268.871 591.262 268.871ZM596.414 263.898H597.234V268H596.41C596.417 267.742 596.468 267.473 596.613 267.008L596.539 266.98C596.25 267.738 595.832 268.066 595.238 268.066C594.582 268.066 594.242 267.707 594.242 267.027V263.898H595.062V266.863C595.062 267.258 595.238 267.477 595.57 267.477C596.07 267.477 596.414 266.902 596.414 266.07V263.898ZM601.695 268H598.519V267.332H599.484V264.566H598.558V263.898H600.273C600.277 264.176 600.238 264.438 600.113 265.047L600.195 265.074C600.562 264.16 601.05 263.809 601.8 263.781L601.929 264.699C600.804 264.742 600.304 265.117 600.304 266.254V267.332H601.695V268ZM610.897 268H607.452V267.379H608.846V264.109H607.452V263.562C608.76 263.527 608.928 263.465 608.995 262.531H609.69V267.379H610.897V268ZM615.381 268H611.963V267.449C613.842 265.652 614.35 264.867 614.35 263.961C614.35 263.371 614.147 263.086 613.643 263.086C613.041 263.086 612.776 263.531 612.819 264.594L612.01 264.445C611.963 263.082 612.526 262.441 613.67 262.441C614.658 262.441 615.194 262.934 615.194 263.863C615.194 264.914 614.658 265.758 613.061 267.273L613.076 267.34C613.291 267.328 613.494 267.32 613.721 267.32H615.381V268Z" fill="black" fill-opacity="0.8"/>
<path d="M561.801 280H558.355V279.379H559.75V276.109H558.355V275.562C559.664 275.527 559.832 275.465 559.898 274.531H560.594V279.379H561.801V280ZM564.554 280.082C563.414 280.082 562.828 279.348 562.828 277.918V276.617C562.828 275.188 563.414 274.449 564.554 274.449C565.695 274.449 566.281 275.188 566.281 276.617V277.918C566.281 279.348 565.695 280.082 564.554 280.082ZM564.554 279.43C565.148 279.43 565.437 278.984 565.437 278.059V276.496C565.437 275.555 565.148 275.102 564.554 275.102C563.961 275.102 563.672 275.555 563.672 276.496V278.059C563.672 278.984 563.961 279.43 564.554 279.43ZM564.871 277.75H564.238V276.781H564.871V277.75ZM570.753 280H567.308V279.379H568.703V276.109H567.308V275.562C568.617 275.527 568.785 275.465 568.851 274.531H569.546V279.379H570.753V280ZM577.21 280H576.362V274.531H578.014C579.057 274.531 579.616 275.008 579.616 275.891V276.02C579.616 276.688 579.233 277.109 578.534 277.191V277.27C578.956 277.391 579.124 277.586 579.276 278.238L579.425 278.891C579.577 279.547 579.702 279.777 579.885 279.91L579.874 280H578.901C578.768 279.781 578.694 279.512 578.573 278.902L578.448 278.301C578.323 277.695 578.171 277.523 577.71 277.523H577.21V280ZM577.21 275.199V276.879H577.921C578.495 276.879 578.764 276.637 578.764 276.129V275.945C578.764 275.434 578.495 275.199 577.921 275.199H577.21ZM583.26 278.621L584.057 278.746C583.955 279.625 583.377 280.09 582.506 280.09C581.424 280.09 580.85 279.383 580.85 278.09V277.812C580.85 276.516 581.424 275.809 582.506 275.809C583.506 275.809 584.053 276.441 584.053 277.586C584.053 277.746 584.041 277.926 584.026 278.086H581.666V278.227C581.666 279.098 581.944 279.516 582.51 279.516C582.955 279.516 583.213 279.25 583.26 278.621ZM582.502 276.379C581.967 276.379 581.694 276.77 581.67 277.562H583.229V277.453C583.229 276.727 582.995 276.379 582.502 276.379ZM585.404 281.457L585.279 280.746L585.764 280.707C586.236 280.668 586.361 280.562 586.436 280.305L586.51 280.051L585.197 275.898H586.053L586.674 278.23C586.768 278.582 586.842 278.914 586.924 279.34H587.002C587.096 278.914 587.174 278.59 587.268 278.23L587.854 275.898H588.674L587.483 279.836C587.131 281.016 586.623 281.387 585.404 281.457ZM590.861 280H590.041V274.531H590.861V276.344C590.861 276.84 590.83 277.172 590.752 277.609L590.818 277.641L592.244 275.898H593.15L591.924 277.359L593.201 280H592.334L591.353 277.887L590.861 278.438V280ZM596.923 275.332H595.869V274.531H596.923V275.332ZM594.349 281.449L594.255 280.672C595.857 280.578 596.083 280.465 596.083 279.555V276.566H594.244V275.898H596.9V279.441C596.9 280.859 596.259 281.34 594.349 281.449ZM599.747 280.09C599.107 280.09 598.739 279.719 598.739 279.09V279.074C598.739 278.254 599.415 277.922 600.165 277.719L600.915 277.512V277.117C600.915 276.621 600.732 276.379 600.302 276.379C599.81 276.379 599.583 276.703 599.626 277.406L598.818 277.289C598.775 276.355 599.306 275.809 600.314 275.809C601.255 275.809 601.743 276.25 601.743 277.098V279.121C601.743 279.441 601.782 279.48 602.161 279.504L602.036 280.062C601.962 280.078 601.872 280.09 601.775 280.09C601.138 280.09 600.97 279.777 601.146 279.004L601.064 278.984C600.88 279.707 600.439 280.09 599.747 280.09ZM600.044 279.469C600.552 279.469 600.915 279.004 600.915 278.348V278L600.431 278.145C599.943 278.289 599.583 278.531 599.583 278.961V278.98C599.583 279.289 599.755 279.469 600.044 279.469ZM605.286 280H604.403L603.106 275.898H603.962L604.571 278.055C604.665 278.383 604.739 278.688 604.821 279.082H604.903C604.985 278.688 605.059 278.387 605.149 278.055L605.751 275.898H606.575L605.286 280ZM609.715 275.527H609.032L609.543 274.531H610.489L609.715 275.527ZM610.918 280H607.715V279.332H608.95V276.566H607.754V275.898H609.77V279.332H610.918V280ZM613.242 280H612.422V274.531H613.242V276.344C613.242 276.84 613.211 277.172 613.133 277.609L613.199 277.641L614.625 275.898H615.531L614.305 277.359L615.582 280H614.715L613.735 277.887L613.242 278.438V280Z" fill="black" fill-opacity="0.8"/>
<path d="M587.719 292H584.438V291.332H585.656V287.199H584.438V286.531H587.719V287.199H586.504V291.332H587.719V292ZM590.574 292.09C589.504 292.09 588.945 291.383 588.945 290.035V289.809C588.945 288.5 589.519 287.809 590.582 287.809C591.523 287.809 592.047 288.332 592.121 289.367L591.3 289.48C591.261 288.699 591.039 288.379 590.574 288.379C590.047 288.379 589.789 288.801 589.789 289.691V290.152C589.789 291.074 590.05 291.516 590.586 291.516C591.039 291.516 591.281 291.195 591.324 290.473L592.168 290.59C592.07 291.582 591.508 292.09 590.574 292.09ZM595.831 290.621L596.628 290.746C596.527 291.625 595.949 292.09 595.078 292.09C593.995 292.09 593.421 291.383 593.421 290.09V289.812C593.421 288.516 593.995 287.809 595.078 287.809C596.078 287.809 596.624 288.441 596.624 289.586C596.624 289.746 596.613 289.926 596.597 290.086H594.238V290.227C594.238 291.098 594.515 291.516 595.081 291.516C595.527 291.516 595.785 291.25 595.831 290.621ZM595.074 288.379C594.538 288.379 594.265 288.77 594.242 289.562H595.8V289.453C595.8 288.727 595.566 288.379 595.074 288.379ZM600.386 292.078C599.476 292.078 599.065 291.582 599.065 290.449V287.199H597.73V286.531H599.886V290.387C599.886 291.062 600.124 291.348 600.64 291.348C600.89 291.348 601.159 291.293 601.355 291.164L601.304 291.844C601.093 291.992 600.776 292.078 600.386 292.078ZM603.366 292.09C602.725 292.09 602.358 291.719 602.358 291.09V291.074C602.358 290.254 603.034 289.922 603.784 289.719L604.534 289.512V289.117C604.534 288.621 604.35 288.379 603.921 288.379C603.428 288.379 603.202 288.703 603.245 289.406L602.436 289.289C602.393 288.355 602.925 287.809 603.932 287.809C604.874 287.809 605.362 288.25 605.362 289.098V291.121C605.362 291.441 605.401 291.48 605.78 291.504L605.655 292.062C605.581 292.078 605.491 292.09 605.393 292.09C604.757 292.09 604.589 291.777 604.764 291.004L604.682 290.984C604.499 291.707 604.057 292.09 603.366 292.09ZM603.663 291.469C604.171 291.469 604.534 291.004 604.534 290.348V290L604.05 290.145C603.561 290.289 603.202 290.531 603.202 290.961V290.98C603.202 291.289 603.374 291.469 603.663 291.469ZM607.791 292H606.971V287.898H607.795C607.788 288.156 607.737 288.426 607.592 288.891L607.666 288.918C607.955 288.16 608.377 287.832 608.967 287.832C609.623 287.832 609.963 288.191 609.963 288.871V292H609.143V289.035C609.143 288.641 608.967 288.422 608.635 288.422C608.135 288.422 607.791 288.996 607.791 289.828V292ZM612.518 292.066C611.709 292.066 611.279 291.422 611.279 290.199V289.699C611.279 288.477 611.709 287.832 612.518 287.832C613.162 287.832 613.545 288.223 613.744 288.855L613.826 288.824C613.682 288.34 613.631 288.004 613.631 287.633V286.531H614.451V292H613.643C613.647 291.812 613.705 291.512 613.83 291.074L613.748 291.047C613.537 291.703 613.158 292.066 612.518 292.066ZM612.83 291.5C613.346 291.5 613.631 291.031 613.631 290.16V289.742C613.631 288.871 613.346 288.395 612.83 288.395C612.354 288.395 612.115 288.809 612.115 289.668V290.234C612.115 291.09 612.35 291.5 612.83 291.5Z" fill="black" fill-opacity="0.8"/>
</g>
<defs>
<clipPath id="clip0_21_11801">
<rect width="640" height="320" fill="white"/>
</clipPath>
</defs>
</svg>
