<svg width="592" height="840" viewBox="0 0 592 840" fill="none" xmlns="http://www.w3.org/2000/svg">
<rect width="592" height="840" fill="white"/>
<rect width="528" height="96" transform="translate(32 32)" fill="white"/>
<path d="M81.7135 43.034C81.8222 43.0354 82.3353 43.4735 82.8535 44.0076C83.3714 44.5413 83.7954 45.0445 83.7962 45.1264C83.7958 45.2084 83.5994 45.7202 83.3594 46.2639C83.119 46.8084 82.3368 48.3497 81.621 49.6894C80.9052 51.029 80.0852 52.5577 79.7985 53.0865C79.5118 53.6152 78.5882 55.3121 77.7464 56.8571C76.9045 58.4022 75.5881 60.8306 74.8212 62.2537C74.0543 63.6768 73.0295 65.573 72.544 66.4676C72.0586 67.3621 71.5022 68.3936 71.3076 68.7595C71.1127 69.126 69.7128 71.754 68.1963 74.5999C65.4394 79.7743 65.439 79.775 65.5107 80.514C65.5957 81.3895 65.0778 82.5595 66.2936 83.2061C67.5099 83.8513 71.8007 76.4042 72.9691 75.8247C74.7461 74.9435 75.2583 74.3974 76.8064 73.0793C77.4859 72.5009 78.7151 71.3829 79.5377 70.5947C80.3603 69.8063 81.736 68.3655 82.5944 67.3931C83.4527 66.4207 84.4476 65.1832 84.8053 64.6432C85.1629 64.1033 85.5144 63.6604 85.5859 63.6587C86.1219 63.6458 87.5094 64.2301 87.8887 64.6613C87.9568 64.7399 87.8724 65.1359 87.6826 65.6237C87.5048 66.0803 87.0416 66.9051 86.6535 67.4566C86.2653 68.0083 85.5385 69.1582 85.0382 70.0121C84.538 70.866 83.6137 72.5629 82.9844 73.7827C82.355 75.0026 81.2044 77.4051 80.4275 79.1215C79.6504 80.8381 78.7451 82.9671 78.4156 83.8528C78.086 84.7384 77.6755 85.9292 77.5034 86.4984C77.3313 87.0676 77.1072 87.8492 77.0053 88.2355C76.9037 88.6216 76.8706 88.9375 76.9318 88.9377C76.9935 88.9367 77.3473 88.4981 77.718 87.9618C78.0891 87.4248 78.7463 86.3432 79.1783 85.5587C79.6081 84.7782 79.9713 84.1228 79.9885 84.0965C80.002 84.0767 80.53 84.2584 81.1613 84.5012C81.7925 84.7437 82.3316 84.9681 82.3593 84.9993C82.3858 85.0328 82.2602 85.5063 82.079 86.0535C81.8974 86.6022 81.535 87.4517 81.2733 87.9414C81.0116 88.4311 80.3771 89.4712 79.8631 90.2526C79.3491 91.034 78.5976 92.0253 78.1938 92.4561C77.79 92.8867 77.253 93.3377 76.9998 93.4581C76.5662 93.6641 76.4697 93.6506 75.3399 93.2252C74.6713 92.9733 74.0407 92.6375 73.913 92.4658C73.7608 92.26 73.685 91.9059 73.6851 91.398C73.6851 90.9802 73.7714 90.1723 73.8762 89.6031C73.9812 89.0339 74.2668 87.9363 74.5108 87.1638C75.0897 85.3318 75.6955 83.5154 76.3663 81.7235C76.6797 80.8867 77.3487 79.2319 77.8528 78.0464C78.355 76.8652 78.7401 75.8682 78.7114 75.8247C78.6793 75.7883 77.9389 76.3025 77.0661 76.9678C74.2605 79.1058 68.3831 88.2443 65.5107 87.1677C64.465 86.7755 63.5305 85.9218 63.3684 84.5012C61.2088 84.5215 56.7657 97.4116 56.1841 99.366C55.7844 100.709 49.9631 117.943 49.6061 119.244C49.2492 120.545 48.7566 122.508 48.5112 123.606C48.2659 124.703 47.9929 126.134 47.9044 126.784C47.8159 127.435 47.7321 127.981 47.7183 127.998C47.7028 128.015 47.1192 127.931 46.4207 127.811C45.7219 127.692 45.1027 127.628 45.0428 127.668C44.9845 127.709 44.5205 127.304 44.012 126.769C43.2402 125.957 43.0876 125.719 43.0888 125.329C43.0895 125.072 43.1738 124.505 43.276 124.068C43.3783 123.631 43.7098 122.6 44.0125 121.776C46.3918 115.307 47.9041 110.828 51.4381 102.012C52.7633 98.7061 54.3642 95.4704 55.4458 92.0469C55.677 91.3149 56.4121 89.1192 57.0795 87.1677C57.747 85.2162 58.5216 82.987 58.8006 82.2143C59.0798 81.4416 59.7785 79.5789 60.3535 78.0747C60.9287 76.5704 61.8739 74.1453 62.4535 72.6854C63.0313 71.2301 63.5043 70.0179 63.5071 69.9866C63.5075 69.9623 63.5687 69.9424 63.6436 69.9423C63.7196 69.9427 64.3045 70.1504 64.9441 70.4043C66.0372 70.8382 66.1086 70.8918 66.1086 71.2827C66.1086 71.5117 66.1626 71.7376 66.2289 71.7843C66.2968 71.8279 66.8725 70.8844 67.5093 69.6856C68.1471 68.485 69.0974 66.7044 69.621 65.7285C70.1448 64.7527 71.3916 62.4569 72.3919 60.6272C73.392 58.7977 74.4394 56.8686 74.7192 56.3397C74.9988 55.8111 75.5765 54.7466 76.0024 53.974C76.4285 53.2015 77.0153 52.1149 77.3068 51.5597C77.5975 51.0058 77.8083 50.5209 77.7759 50.4805C77.7424 50.4423 77.6342 50.4976 77.5358 50.603C77.4373 50.7086 77.006 51.1268 76.5774 51.5324C76.1488 51.9382 75.7334 52.3378 75.6547 52.42C75.5756 52.5026 74.9352 53.1351 74.2317 53.8261C73.5281 54.5173 72.3926 55.6402 71.7088 56.3215C71.0248 57.0027 70.2603 57.7683 70.01 58.0229C69.7594 58.2778 68.9111 59.1175 68.1245 59.8892C67.3378 60.6612 66.1923 61.7917 65.5793 62.4017C64.9664 63.0115 63.9715 63.9874 63.3684 64.5701C62.7653 65.1528 61.6771 66.1843 60.9508 66.862C60.2244 67.5398 59.0541 68.5995 58.3499 69.2169C57.6456 69.8344 56.6009 70.7082 56.0287 71.1586C55.4565 71.609 54.6336 72.1793 54.2 72.4264C53.7665 72.6735 53.2039 72.9197 52.9503 72.9739C52.517 73.0663 52.4267 73.0089 51.4381 72.0121C50.7348 71.3031 50.3599 70.8107 50.3042 70.5238C50.2566 70.2778 50.314 69.7322 50.4391 69.2424C50.5589 68.7734 50.9247 67.7244 51.252 66.9113C51.5792 66.0982 52.2258 64.6346 52.6884 63.6587C53.1508 62.6829 54.2605 60.4207 55.1539 58.6316C56.0472 56.8427 56.967 55.0126 57.1982 54.5652C57.4293 54.1179 57.8552 53.2858 58.1443 52.7158C58.4332 52.1457 58.857 51.2913 59.0859 50.8172C59.4129 50.1396 59.4501 49.9879 59.2609 50.1076C59.1285 50.1916 58.7191 50.5138 58.351 50.8234C57.983 51.1333 56.1747 52.6836 54.3332 54.2693C52.4914 55.8551 50.8318 57.2836 50.6452 57.4431C50.4578 57.6034 48.9008 58.9604 47.1846 60.4594C45.4679 61.9588 43.6831 63.5286 43.218 63.9478C42.7531 64.3668 41.0622 65.9039 39.4604 67.363C37.8587 68.8224 36.3659 70.1797 36.1435 70.3793C35.9211 70.579 35.2706 71.2209 34.6982 71.8058C33.6574 72.8695 33.6572 72.8696 32.7152 71.8869C31.7727 70.9037 31.7726 70.9035 32.6506 69.8687C33.1332 69.2996 33.7354 68.6286 33.9889 68.3775C34.2423 68.1266 34.828 67.5608 35.2905 67.1205C35.7528 66.6802 36.4238 66.0537 36.7809 65.7285C37.1379 65.4034 37.547 65.0278 37.6902 64.8931C37.8333 64.7586 38.4185 64.2295 38.9907 63.7177C39.563 63.2059 40.7338 62.1548 41.5922 61.3821C42.4505 60.6093 43.4747 59.6928 43.8682 59.3452C44.2617 58.9977 45.6368 57.794 46.9244 56.6712C48.2117 55.5486 49.4184 54.4995 49.6061 54.339C49.7932 54.1789 51.4541 52.7504 53.2963 51.1646C55.1385 49.5789 57.4435 47.6124 58.4184 46.7949C59.3931 45.9775 60.5923 44.9962 61.0834 44.6141C61.5746 44.232 62.104 43.9198 62.2596 43.9198C62.4267 43.9205 62.9298 44.3223 63.4865 44.8997C64.3666 45.8129 64.4249 45.9108 64.3429 46.341C64.2944 46.595 64.029 47.3145 63.7534 47.9398C63.4774 48.5654 62.1012 51.3598 60.695 54.1497C59.2888 56.9397 57.4995 60.52 56.719 62.1058C55.9384 63.6916 54.9486 65.8113 54.5198 66.8161C54.0911 67.8208 53.7575 68.7025 53.7788 68.7754C53.8014 68.847 54.2869 68.5577 54.8586 68.1316C55.4313 67.7046 56.6315 66.7064 57.5252 65.9139C58.4189 65.1214 59.4512 64.19 59.8192 63.8441C60.1871 63.4981 60.8017 62.9245 61.1848 62.57C61.5679 62.2155 62.1739 61.6398 62.5315 61.2903C62.8891 60.9408 63.6568 60.1922 64.237 59.6268C64.8172 59.0615 65.4077 58.473 65.5492 58.3193C65.6908 58.1656 66.3535 57.5076 67.0224 56.8571C67.6913 56.2066 68.3321 55.5742 68.4465 55.4521C68.5608 55.3301 68.8863 55.0052 69.1697 54.7301C69.453 54.4548 70.0339 53.8895 70.4602 53.4736C70.8866 53.0576 71.7938 52.1517 72.476 51.4605C73.1583 50.7693 74.0602 49.8711 74.4802 49.4644C74.9001 49.0578 75.4917 48.4919 75.7946 48.2073C76.0976 47.9227 77.1882 46.8866 78.2178 45.9051C79.2474 44.9239 80.4111 43.8763 80.8036 43.5769C81.1957 43.2779 81.6048 43.0335 81.7135 43.034Z" fill="black"/>
<path d="M97.4048 68.0811C98.6082 66.8926 98.6082 66.8928 99.6157 67.4135C100.17 67.7 100.704 68.025 100.802 68.1355C100.953 68.3057 100.922 68.4691 100.6 69.1999C100.391 69.6752 99.4676 71.4277 98.5487 73.0946C97.6298 74.7617 96.777 76.3255 96.6537 76.5694C96.5303 76.8136 96.1595 77.5074 95.8296 78.1116C95.4997 78.7156 95.2558 79.2392 95.2869 79.2751C95.3218 79.3065 96.1005 78.4502 97.0203 77.3685C98.6963 75.3974 98.6966 75.3975 99.8552 75.9993C100.759 76.4687 101.023 76.6743 101.057 76.935C101.098 77.2483 101.143 77.2633 101.772 77.1662C102.142 77.1094 103.138 77.0065 103.984 76.9378C105.314 76.8299 105.593 76.7606 106.03 76.4323C106.308 76.2231 106.588 76.0521 106.653 76.052C106.718 76.0523 107.096 76.2216 107.493 76.4283C108.084 76.736 108.26 76.7726 108.452 76.6278C108.582 76.5303 109.28 75.7121 110.004 74.8096C110.729 73.9073 111.907 72.3679 112.623 71.3893C113.339 70.4111 114.02 69.5211 114.137 69.4107C114.318 69.2397 114.5 69.2895 115.419 69.7627C116.008 70.0657 116.572 70.4016 116.671 70.5091C116.823 70.675 116.766 70.9726 116.298 72.4542C115.993 73.4163 115.488 75.0355 115.176 76.052C114.863 77.0684 114.607 77.9851 114.607 78.0889C114.606 78.2312 114.702 78.22 115.004 78.0424C115.387 77.8175 115.445 77.8271 116.361 78.2606C116.993 78.5596 117.538 78.7134 117.966 78.7134C118.323 78.7133 119.541 78.5075 120.674 78.2561C121.806 78.0046 123.26 77.7642 123.904 77.7216C125.064 77.6451 125.085 77.6496 126.243 78.2589C126.885 78.5969 127.543 79.0155 127.706 79.189C127.868 79.3623 128.001 79.609 128 79.737C127.999 79.8656 127.859 80.3116 127.688 80.7283C127.517 81.1452 127.316 81.5294 127.242 81.5818C127.166 81.6336 126.665 81.4287 126.127 81.1261C125.148 80.5754 125.148 80.5755 124.201 80.7441C123.68 80.837 122.61 81.0527 121.823 81.2236C121.036 81.3943 119.924 81.5453 119.352 81.5597C118.466 81.5817 118.198 81.5262 117.548 81.1845C117.13 80.9648 116.763 80.7847 116.731 80.7832C116.702 80.7832 116.09 81.4153 115.372 82.1877C114.655 82.9596 113.933 83.6301 113.768 83.6777C113.564 83.7361 113.096 83.5503 112.298 83.0945C111.654 82.727 111.091 82.3171 111.045 82.1837C111 82.0507 110.964 81.7311 110.965 81.4735C110.966 81.216 111.133 80.2899 111.337 79.4157C111.54 78.5442 111.684 77.831 111.658 77.8265C111.627 77.8307 110.992 78.487 110.244 79.2887C109.493 80.0931 108.664 80.8675 108.401 81.0094C107.923 81.267 107.923 81.2668 106.614 80.5356C105.306 79.8043 105.305 79.8042 103.81 79.9869C102.988 80.0875 102.022 80.1743 101.664 80.1796C101.23 80.1861 100.783 80.0667 100.318 79.8209C99.9361 79.6187 99.5476 79.4529 99.4546 79.4525C99.3623 79.4525 98.0985 80.8997 96.6464 82.6683C95.1943 84.4369 93.3879 86.6024 92.6325 87.4794C91.8772 88.3564 91.0362 89.2495 90.7637 89.4642C90.2684 89.8548 90.2681 89.8548 89.1056 89.2069C88.1339 88.6654 87.943 88.5019 87.9427 88.2117C87.9427 88.0205 88.1771 87.3467 88.4632 86.7149C88.7488 86.0842 88.9823 85.5212 88.983 85.4629C88.9838 85.4048 89.2559 84.8115 89.5881 84.1435C89.9208 83.4745 90.4669 82.395 90.8016 81.7445C91.1364 81.0939 91.7517 79.8962 92.169 79.083C92.5861 78.27 93.0684 77.3491 93.241 77.0364C93.4132 76.7247 93.5248 76.4356 93.4895 76.3937C93.4531 76.353 92.6146 77.0471 91.6263 77.9359C90.6376 78.8248 89.1482 80.1302 88.3166 80.8371C87.011 81.947 86.7737 82.2143 86.5788 82.7946C86.4546 83.164 86.2739 83.5009 86.1771 83.5433C86.0802 83.5856 85.3843 83.2854 84.6309 82.8763C83.8784 82.4676 83.2626 82.068 83.2608 81.9876C83.2608 81.9081 83.3716 81.5544 83.5071 81.2021C83.6425 80.8499 83.8618 80.4603 83.9946 80.3361C84.1274 80.212 85.3484 79.1522 86.7075 77.9812C88.0666 76.8102 89.7637 75.3188 90.479 74.6674C91.1944 74.0159 92.7744 72.5353 93.9904 71.3768C95.2064 70.2182 96.743 68.735 97.4048 68.0811Z" fill="black"/>
<path d="M123.856 69.5354C124.026 69.4861 124.426 69.5606 124.749 69.7026C125.071 69.8438 125.59 70.0763 125.901 70.2189C126.444 70.4673 126.465 70.4991 126.395 70.9886C126.355 71.2694 126.23 71.6587 126.118 71.8534C125.982 72.0891 125.79 72.2076 125.545 72.2077C125.341 72.2075 124.743 72.005 124.216 71.7577C123.688 71.5105 123.21 71.2547 123.151 71.1892C123.094 71.124 123.16 70.7453 123.297 70.3476C123.474 69.8352 123.637 69.5987 123.856 69.5354Z" fill="black"/>
<path d="M105.645 68.8071C105.778 68.8074 106.39 69.0898 107.004 69.4351C108.072 70.0359 108.117 70.0819 108.047 70.4825C108.007 70.713 107.853 71.0961 107.704 71.3332C107.556 71.57 107.315 71.7635 107.17 71.7639C107.025 71.7639 106.415 71.4591 105.814 71.0866C105.213 70.7145 104.722 70.3453 104.721 70.266C104.721 70.1871 104.816 69.91 104.932 69.6499C105.048 69.3899 105.201 69.0939 105.273 68.9919C105.344 68.8903 105.512 68.8072 105.645 68.8071Z" fill="black"/>
<path d="M81.1301 32.0004C81.2028 32.024 81.748 32.237 82.3425 32.4736C83.3987 32.8939 83.4231 32.9143 83.3516 33.3226C83.3112 33.5526 83.1869 33.9518 83.0747 34.2096C82.945 34.5073 82.1514 35.299 80.9011 36.3786C79.818 37.3137 78.2554 38.7153 77.4293 39.4929C76.6034 40.2704 75.6546 41.253 75.321 41.676C74.7147 42.4445 74.7141 42.4443 73.5865 41.9804C72.4587 41.5164 72.4585 41.516 72.5457 40.9806C72.5938 40.6859 72.7844 40.1279 72.9691 39.7405C73.1801 39.298 73.7383 38.6109 74.4707 37.8924C75.1122 37.2632 76.8437 35.6704 78.3186 34.353C79.7931 33.0358 81.0583 31.9773 81.1301 32.0004Z" fill="black"/>
<path d="M492.035 42H491.227L492.457 36.5312H493.668L494.93 42H494.059L493.805 40.9336H492.289L492.035 42ZM492.75 38.7461L492.418 40.332H493.68L493.348 38.7461C493.246 38.2539 493.172 37.832 493.082 37.2422H493C492.922 37.832 492.852 38.2539 492.75 38.7461ZM496.726 42H495.906V37.8984H496.73C496.722 38.1562 496.672 38.4258 496.527 38.8906L496.601 38.918C496.89 38.1602 497.312 37.832 497.902 37.832C498.558 37.832 498.898 38.1914 498.898 38.8711V42H498.078V39.0352C498.078 38.6406 497.902 38.4219 497.57 38.4219C497.07 38.4219 496.726 38.9961 496.726 39.8281V42ZM501.711 42.0898C500.672 42.0898 500.101 41.3633 500.101 40.1367V39.7578C500.101 38.5312 500.672 37.8086 501.711 37.8086C502.746 37.8086 503.32 38.5312 503.32 39.7578V40.1367C503.32 41.3633 502.746 42.0898 501.711 42.0898ZM501.711 41.5117C502.222 41.5117 502.472 41.1016 502.472 40.2461V39.6562C502.472 38.793 502.222 38.3828 501.711 38.3828C501.195 38.3828 500.949 38.793 500.949 39.6562V40.2461C500.949 41.1016 501.195 41.5117 501.711 41.5117ZM506.664 42.0781C505.742 42.0781 505.296 41.5508 505.296 40.4492V38.5586H504.214V37.8984H505.296V36.8359L506.117 36.6094V37.8984H507.804V38.5586H506.117V40.3867C506.117 41.0781 506.371 41.3672 506.898 41.3672C507.203 41.3672 507.527 41.3086 507.777 41.1641L507.722 41.8438C507.476 41.9922 507.113 42.0781 506.664 42.0781ZM509.675 42H508.855V36.5312H509.675V37.7734C509.675 38.1211 509.624 38.4258 509.472 38.8906L509.55 38.918C509.839 38.1602 510.261 37.832 510.851 37.832C511.507 37.832 511.847 38.1914 511.847 38.8711V42H511.027V39.0352C511.027 38.6406 510.851 38.4219 510.519 38.4219C510.019 38.4219 509.675 38.9922 509.675 39.8281V42ZM515.46 40.6211L516.257 40.7461C516.155 41.625 515.577 42.0898 514.706 42.0898C513.624 42.0898 513.05 41.3828 513.05 40.0898V39.8125C513.05 38.5156 513.624 37.8086 514.706 37.8086C515.706 37.8086 516.253 38.4414 516.253 39.5859C516.253 39.7461 516.241 39.9258 516.226 40.0859H513.866V40.2266C513.866 41.0977 514.144 41.5156 514.71 41.5156C515.155 41.5156 515.413 41.25 515.46 40.6211ZM514.702 38.3789C514.167 38.3789 513.894 38.7695 513.87 39.5625H515.429V39.4531C515.429 38.7266 515.195 38.3789 514.702 38.3789ZM520.448 42H517.272V41.332H518.237V38.5664H517.312V37.8984H519.026C519.03 38.1758 518.991 38.4375 518.866 39.0469L518.948 39.0742C519.315 38.1602 519.804 37.8086 520.554 37.7812L520.683 38.6992C519.558 38.7422 519.058 39.1172 519.058 40.2539V41.332H520.448V42ZM527.612 42.0859C526.456 42.0859 525.882 41.3125 525.882 39.8164V38.7148C525.882 37.2188 526.464 36.4453 527.608 36.4453C528.639 36.4453 529.245 37.0586 529.272 38.4727L528.456 38.6445C528.448 37.4766 528.167 37.1016 527.624 37.1016C527.026 37.1016 526.741 37.5703 526.741 38.5742V39.9531C526.741 40.9531 527.03 41.4219 527.632 41.4219C528.167 41.4219 528.475 41.043 528.487 39.832L529.315 40.0352C529.284 41.4805 528.635 42.0859 527.612 42.0859ZM533.397 42H530.221V41.332H531.186V38.5664H530.26V37.8984H531.975C531.979 38.1758 531.94 38.4375 531.815 39.0469L531.897 39.0742C532.264 38.1602 532.752 37.8086 533.502 37.7812L533.631 38.6992C532.506 38.7422 532.006 39.1172 532.006 40.2539V41.332H533.397V42ZM537.041 40.6211L537.838 40.7461C537.737 41.625 537.159 42.0898 536.287 42.0898C535.205 42.0898 534.631 41.3828 534.631 40.0898V39.8125C534.631 38.5156 535.205 37.8086 536.287 37.8086C537.287 37.8086 537.834 38.4414 537.834 39.5859C537.834 39.7461 537.823 39.9258 537.807 40.0859H535.448V40.2266C535.448 41.0977 535.725 41.5156 536.291 41.5156C536.737 41.5156 536.995 41.25 537.041 40.6211ZM536.284 38.3789C535.748 38.3789 535.475 38.7695 535.452 39.5625H537.01V39.4531C537.01 38.7266 536.776 38.3789 536.284 38.3789ZM539.94 42.0898C539.299 42.0898 538.932 41.7188 538.932 41.0898V41.0742C538.932 40.2539 539.608 39.9219 540.358 39.7188L541.108 39.5117V39.1172C541.108 38.6211 540.924 38.3789 540.494 38.3789C540.002 38.3789 539.776 38.7031 539.819 39.4062L539.01 39.2891C538.967 38.3555 539.498 37.8086 540.506 37.8086C541.447 37.8086 541.936 38.25 541.936 39.0977V41.1211C541.936 41.4414 541.975 41.4805 542.354 41.5039L542.229 42.0625C542.155 42.0781 542.065 42.0898 541.967 42.0898C541.33 42.0898 541.162 41.7773 541.338 41.0039L541.256 40.9844C541.072 41.707 540.631 42.0898 539.94 42.0898ZM540.237 41.4688C540.744 41.4688 541.108 41.0039 541.108 40.3477V40L540.623 40.1445C540.135 40.2891 539.776 40.5312 539.776 40.9609V40.9805C539.776 41.2891 539.947 41.4688 540.237 41.4688ZM545.51 42.0781C544.588 42.0781 544.143 41.5508 544.143 40.4492V38.5586H543.061V37.8984H544.143V36.8359L544.963 36.6094V37.8984H546.65V38.5586H544.963V40.3867C544.963 41.0781 545.217 41.3672 545.744 41.3672C546.049 41.3672 546.373 41.3086 546.623 41.1641L546.568 41.8438C546.322 41.9922 545.959 42.0781 545.51 42.0781ZM549.76 37.332H548.705V36.5312H549.76V37.332ZM550.791 42H547.588V41.332H548.822V38.5664H547.627V37.8984H549.643V41.332H550.791V42ZM553.506 42.0898C552.467 42.0898 551.896 41.3633 551.896 40.1367V39.7578C551.896 38.5312 552.467 37.8086 553.506 37.8086C554.541 37.8086 555.115 38.5312 555.115 39.7578V40.1367C555.115 41.3633 554.541 42.0898 553.506 42.0898ZM553.506 41.5117C554.017 41.5117 554.267 41.1016 554.267 40.2461V39.6562C554.267 38.793 554.017 38.3828 553.506 38.3828C552.99 38.3828 552.744 38.793 552.744 39.6562V40.2461C552.744 41.1016 552.99 41.5117 553.506 41.5117ZM557.154 42H556.334V37.8984H557.158C557.15 38.1562 557.099 38.4258 556.955 38.8906L557.029 38.918C557.318 38.1602 557.74 37.832 558.33 37.832C558.986 37.832 559.326 38.1914 559.326 38.8711V42H558.505V39.0352C558.505 38.6406 558.33 38.4219 557.998 38.4219C557.498 38.4219 557.154 38.9961 557.154 39.8281V42Z" fill="black" fill-opacity="0.48"/>
<path d="M480.125 54.0859C479.039 54.0859 478.422 53.5234 478.391 52.2266L479.195 52.0703C479.207 53.1094 479.512 53.457 480.148 53.457C480.633 53.457 480.941 53.1641 480.941 52.7227C480.941 52.3242 480.703 52.0547 480.125 51.6914L479.559 51.332C478.953 50.9492 478.527 50.5664 478.531 49.8281C478.535 49 479.129 48.4453 480.043 48.4453C481.066 48.4453 481.617 49 481.641 50.1641L480.875 50.3086C480.867 49.4102 480.598 49.0703 480.039 49.0703C479.605 49.0703 479.32 49.3398 479.32 49.7461C479.32 50.0977 479.504 50.332 480.121 50.707L480.688 51.0547C481.266 51.4102 481.766 51.8242 481.766 52.6172C481.766 53.4922 481.117 54.0859 480.125 54.0859ZM483.844 54H483.023V48.5312H483.844V50.3438C483.844 50.8398 483.812 51.1719 483.734 51.6094L483.801 51.6406L485.226 49.8984H486.133L484.906 51.3594L486.183 54H485.316L484.336 51.8867L483.844 52.4375V54ZM489.066 49.5273H488.382L488.894 48.5312H489.84L489.066 49.5273ZM488.711 54.0898C487.672 54.0898 487.101 53.3633 487.101 52.1367V51.7578C487.101 50.5312 487.672 49.8086 488.711 49.8086C489.746 49.8086 490.32 50.5312 490.32 51.7578V52.1367C490.32 53.3633 489.746 54.0898 488.711 54.0898ZM488.711 53.5117C489.222 53.5117 489.472 53.1016 489.472 52.2461V51.6562C489.472 50.793 489.222 50.3828 488.711 50.3828C488.195 50.3828 487.949 50.793 487.949 51.6562V52.2461C487.949 53.1016 488.195 53.5117 488.711 53.5117ZM493.906 54.0781C492.996 54.0781 492.585 53.582 492.585 52.4492V49.1992H491.25V48.5312H493.406V52.3867C493.406 53.0625 493.644 53.3477 494.16 53.3477C494.41 53.3477 494.679 53.293 494.875 53.1641L494.824 53.8438C494.613 53.9922 494.296 54.0781 493.906 54.0781ZM496.726 54.0898C496.085 54.0898 495.718 53.7188 495.718 53.0898V53.0742C495.718 52.2539 496.394 51.9219 497.144 51.7188L497.894 51.5117V51.1172C497.894 50.6211 497.71 50.3789 497.281 50.3789C496.788 50.3789 496.562 50.7031 496.605 51.4062L495.796 51.2891C495.753 50.3555 496.285 49.8086 497.292 49.8086C498.234 49.8086 498.722 50.25 498.722 51.0977V53.1211C498.722 53.4414 498.761 53.4805 499.14 53.5039L499.015 54.0625C498.941 54.0781 498.851 54.0898 498.753 54.0898C498.117 54.0898 497.949 53.7773 498.124 53.0039L498.042 52.9844C497.859 53.707 497.417 54.0898 496.726 54.0898ZM497.023 53.4688C497.531 53.4688 497.894 53.0039 497.894 52.3477V52L497.41 52.1445C496.921 52.2891 496.562 52.5312 496.562 52.9609V52.9805C496.562 53.2891 496.734 53.4688 497.023 53.4688ZM502.105 54H501.222L499.925 49.8984H500.78L501.39 52.0547C501.484 52.3828 501.558 52.6875 501.64 53.082H501.722C501.804 52.6875 501.878 52.3867 501.968 52.0547L502.57 49.8984H503.394L502.105 54ZM505.632 49.3984H504.714V48.5938H505.632V49.3984ZM507.237 49.3984H506.319V48.5938H507.237V49.3984ZM505.976 54.0898C504.937 54.0898 504.366 53.3633 504.366 52.1367V51.7578C504.366 50.5312 504.937 49.8086 505.976 49.8086C507.011 49.8086 507.585 50.5312 507.585 51.7578V52.1367C507.585 53.3633 507.011 54.0898 505.976 54.0898ZM505.976 53.5117C506.487 53.5117 506.737 53.1016 506.737 52.2461V51.6562C506.737 50.793 506.487 50.3828 505.976 50.3828C505.46 50.3828 505.214 50.793 505.214 51.6562V52.2461C505.214 53.1016 505.46 53.5117 505.976 53.5117ZM511.765 54H508.589V53.332H509.554V50.5664H508.628V49.8984H510.343C510.347 50.1758 510.308 50.4375 510.183 51.0469L510.265 51.0742C510.632 50.1602 511.12 49.8086 511.87 49.7812L511.999 50.6992C510.874 50.7422 510.374 51.1172 510.374 52.2539V53.332H511.765V54ZM516.112 49.1992L515.69 49.2812C516.073 49.9609 516.257 50.7422 516.257 51.6602V52.0234C516.257 53.3594 515.671 54.0938 514.585 54.0938C513.538 54.0938 512.96 53.3828 512.96 52.0898V51.8438C512.96 50.5781 513.436 49.875 514.288 49.875C514.925 49.875 515.198 50.1875 515.393 50.6445L515.467 50.6172C515.397 50.3047 515.221 49.8789 514.921 49.4297L514.003 49.6055L513.897 49.0586L514.546 48.9336C514.46 48.8359 514.366 48.7344 514.268 48.6367L515.065 48.4453C515.167 48.5547 515.264 48.6641 515.35 48.7773L516.007 48.6523L516.112 49.1992ZM515.366 52.2031V51.7695C515.366 50.9023 515.089 50.4336 514.573 50.4336C514.096 50.4336 513.862 50.8477 513.862 51.7109V52.2031C513.862 53.0625 514.096 53.4727 514.585 53.4727C515.112 53.4727 515.366 53.0625 515.366 52.2031ZM519.592 49.8984H520.413V54H519.588C519.596 53.7422 519.647 53.4727 519.792 53.0078L519.717 52.9805C519.428 53.7383 519.01 54.0664 518.417 54.0664C517.76 54.0664 517.42 53.707 517.42 53.0273V49.8984H518.241V52.8633C518.241 53.2578 518.417 53.4766 518.749 53.4766C519.249 53.4766 519.592 52.9023 519.592 52.0703V49.8984ZM523.315 54.0898C522.272 54.0898 521.67 53.625 521.639 52.7812L522.424 52.6055C522.42 53.2188 522.725 53.5586 523.311 53.5586C523.741 53.5586 524.03 53.3555 524.03 53.0078C524.03 52.6641 523.78 52.4805 523.241 52.2773L522.702 52.0742C522.166 51.8711 521.748 51.5625 521.748 50.9961C521.748 50.2578 522.264 49.8125 523.194 49.8125C524.174 49.8125 524.705 50.2383 524.725 51.0039L523.952 51.1562C523.967 50.6211 523.705 50.3398 523.205 50.3398C522.78 50.3398 522.526 50.5469 522.526 50.8711C522.526 51.1602 522.721 51.3164 523.26 51.5156L523.799 51.7109C524.334 51.9102 524.842 52.1992 524.842 52.918C524.842 53.6211 524.284 54.0898 523.315 54.0898ZM528.194 54.0781C527.272 54.0781 526.826 53.5508 526.826 52.4492V50.5586H525.744V49.8984H526.826V48.8359L527.647 48.6094V49.8984H529.334V50.5586H527.647V52.3867C527.647 53.0781 527.901 53.3672 528.428 53.3672C528.733 53.3672 529.057 53.3086 529.307 53.1641L529.252 53.8438C529.006 53.9922 528.643 54.0781 528.194 54.0781ZM532.272 49.5273H531.588L532.1 48.5312H533.045L532.272 49.5273ZM533.475 54H530.272V53.332H531.506V50.5664H530.311V49.8984H532.326V53.332H533.475V54ZM535.967 53.0156L536.611 53.0977C537.252 53.1875 537.975 53.3398 537.975 54.2383C537.975 55.0742 537.385 55.457 536.143 55.457C534.967 55.457 534.408 55.125 534.408 54.457C534.408 53.9922 534.623 53.7422 535.119 53.6289V53.5508C534.779 53.418 534.553 53.1875 534.553 52.8281C534.553 52.5 534.768 52.2852 535.17 52.2148V52.1484C534.853 51.9297 534.685 51.5781 534.685 51.1094C534.685 50.2695 535.221 49.8086 536.189 49.8086C536.385 49.8086 536.56 49.8281 536.717 49.8633C536.611 49.25 536.943 48.8086 537.783 48.75L537.896 49.4688C537.244 49.5391 537.01 49.6484 537.018 49.9648C537.451 50.1641 537.685 50.5547 537.685 51.1094C537.685 51.9492 537.15 52.4102 536.189 52.4102C535.916 52.4102 535.678 52.375 535.478 52.3008C535.244 52.3477 535.154 52.4414 535.154 52.5781C535.154 52.7969 535.326 52.9258 535.967 53.0156ZM536.189 50.2969C535.736 50.2969 535.518 50.5547 535.518 51.1094C535.518 51.6641 535.736 51.918 536.189 51.918C536.639 51.918 536.853 51.6641 536.853 51.1094C536.853 50.5547 536.639 50.2969 536.189 50.2969ZM536.182 54.8711C536.943 54.8711 537.275 54.7031 537.275 54.3047C537.275 53.9219 536.99 53.8398 536.346 53.7617L535.701 53.6875C535.639 53.6797 535.572 53.6719 535.514 53.6602C535.154 53.7852 535.037 53.9688 535.037 54.2539C535.037 54.6719 535.365 54.8711 536.182 54.8711ZM541.174 49.8984H541.994V54H541.17C541.178 53.7422 541.228 53.4727 541.373 53.0078L541.299 52.9805C541.01 53.7383 540.592 54.0664 539.998 54.0664C539.342 54.0664 539.002 53.707 539.002 53.0273V49.8984H539.822V52.8633C539.822 53.2578 539.998 53.4766 540.33 53.4766C540.83 53.4766 541.174 52.9023 541.174 52.0703V49.8984ZM546.295 54H543.119V53.332H544.084V50.5664H543.158V49.8984H544.873C544.877 50.1758 544.838 50.4375 544.713 51.0469L544.795 51.0742C545.162 50.1602 545.65 49.8086 546.4 49.7812L546.529 50.6992C545.404 50.7422 544.904 51.1172 544.904 52.2539V53.332H546.295V54ZM555.177 54H551.732V53.3789H553.126V50.1094H551.732V49.5625C553.04 49.5273 553.208 49.4648 553.275 48.5312H553.97V53.3789H555.177V54ZM559.501 54H556.083V53.4492C557.962 51.6523 558.47 50.8672 558.47 49.9609C558.47 49.3711 558.267 49.0859 557.763 49.0859C557.161 49.0859 556.896 49.5312 556.939 50.5938L556.13 50.4453C556.083 49.082 556.646 48.4414 557.79 48.4414C558.778 48.4414 559.314 48.9336 559.314 49.8633C559.314 50.9141 558.778 51.7578 557.181 53.2734L557.196 53.3398C557.411 53.3281 557.614 53.3203 557.841 53.3203H559.501V54Z" fill="black" fill-opacity="0.48"/>
<path d="M507.801 66H504.355V65.3789H505.75V62.1094H504.355V61.5625C505.664 61.5273 505.832 61.4648 505.898 60.5312H506.594V65.3789H507.801V66ZM510.394 66.082C509.254 66.082 508.668 65.3477 508.668 63.918V62.6172C508.668 61.1875 509.254 60.4492 510.394 60.4492C511.535 60.4492 512.121 61.1875 512.121 62.6172V63.918C512.121 65.3477 511.535 66.082 510.394 66.082ZM510.394 65.4297C510.988 65.4297 511.277 64.9844 511.277 64.0586V62.4961C511.277 61.5547 510.988 61.1016 510.394 61.1016C509.801 61.1016 509.512 61.5547 509.512 62.4961V64.0586C509.512 64.9844 509.801 65.4297 510.394 65.4297ZM510.711 63.75H510.078V62.7812H510.711V63.75ZM516.433 66H512.988V65.3789H514.382V62.1094H512.988V61.5625C514.297 61.5273 514.465 61.4648 514.531 60.5312H515.226V65.3789H516.433V66ZM522.57 66H521.722V60.5312H523.374C524.417 60.5312 524.976 61.0078 524.976 61.8906V62.0195C524.976 62.6875 524.593 63.1094 523.894 63.1914V63.2695C524.316 63.3906 524.484 63.5859 524.636 64.2383L524.785 64.8906C524.937 65.5469 525.062 65.7773 525.245 65.9102L525.234 66H524.261C524.128 65.7812 524.054 65.5117 523.933 64.9023L523.808 64.3008C523.683 63.6953 523.531 63.5234 523.07 63.5234H522.57V66ZM522.57 61.1992V62.8789H523.281C523.855 62.8789 524.124 62.6367 524.124 62.1289V61.9453C524.124 61.4336 523.855 61.1992 523.281 61.1992H522.57ZM528.46 64.6211L529.257 64.7461C529.155 65.625 528.577 66.0898 527.706 66.0898C526.624 66.0898 526.05 65.3828 526.05 64.0898V63.8125C526.05 62.5156 526.624 61.8086 527.706 61.8086C528.706 61.8086 529.253 62.4414 529.253 63.5859C529.253 63.7461 529.241 63.9258 529.226 64.0859H526.866V64.2266C526.866 65.0977 527.144 65.5156 527.71 65.5156C528.155 65.5156 528.413 65.25 528.46 64.6211ZM527.702 62.3789C527.167 62.3789 526.894 62.7695 526.87 63.5625H528.429V63.4531C528.429 62.7266 528.195 62.3789 527.702 62.3789ZM530.444 67.457L530.319 66.7461L530.804 66.707C531.276 66.668 531.401 66.5625 531.476 66.3047L531.55 66.0508L530.237 61.8984H531.093L531.714 64.2305C531.808 64.582 531.882 64.9141 531.964 65.3398H532.042C532.136 64.9141 532.214 64.5898 532.308 64.2305L532.894 61.8984H533.714L532.522 65.8359C532.171 67.0156 531.663 67.3867 530.444 67.457ZM535.741 66H534.921V60.5312H535.741V62.3438C535.741 62.8398 535.71 63.1719 535.632 63.6094L535.698 63.6406L537.124 61.8984H538.03L536.804 63.3594L538.081 66H537.214L536.233 63.8867L535.741 64.4375V66ZM541.643 61.332H540.589V60.5312H541.643V61.332ZM539.069 67.4492L538.975 66.6719C540.577 66.5781 540.803 66.4648 540.803 65.5547V62.5664H538.964V61.8984H541.62V65.4414C541.62 66.8594 540.979 67.3398 539.069 67.4492ZM544.307 66.0898C543.667 66.0898 543.299 65.7188 543.299 65.0898V65.0742C543.299 64.2539 543.975 63.9219 544.725 63.7188L545.475 63.5117V63.1172C545.475 62.6211 545.292 62.3789 544.862 62.3789C544.37 62.3789 544.143 62.7031 544.186 63.4062L543.377 63.2891C543.335 62.3555 543.866 61.8086 544.874 61.8086C545.815 61.8086 546.303 62.25 546.303 63.0977V65.1211C546.303 65.4414 546.342 65.4805 546.721 65.5039L546.596 66.0625C546.522 66.0781 546.432 66.0898 546.335 66.0898C545.698 66.0898 545.53 65.7773 545.706 65.0039L545.624 64.9844C545.44 65.707 544.999 66.0898 544.307 66.0898ZM544.604 65.4688C545.112 65.4688 545.475 65.0039 545.475 64.3477V64L544.991 64.1445C544.502 64.2891 544.143 64.5312 544.143 64.9609V64.9805C544.143 65.2891 544.315 65.4688 544.604 65.4688ZM549.686 66H548.803L547.506 61.8984H548.362L548.971 64.0547C549.065 64.3828 549.139 64.6875 549.221 65.082H549.303C549.385 64.6875 549.459 64.3867 549.549 64.0547L550.151 61.8984H550.975L549.686 66ZM553.955 61.5273H553.272L553.783 60.5312H554.729L553.955 61.5273ZM555.158 66H551.955V65.332H553.19V62.5664H551.994V61.8984H554.01V65.332H555.158V66ZM557.322 66H556.502V60.5312H557.322V62.3438C557.322 62.8398 557.291 63.1719 557.213 63.6094L557.279 63.6406L558.705 61.8984H559.611L558.385 63.3594L559.662 66H558.795L557.815 63.8867L557.322 64.4375V66Z" fill="black" fill-opacity="0.48"/>
<path d="M532.719 78H529.438V77.332H530.656V73.1992H529.438V72.5312H532.719V73.1992H531.504V77.332H532.719V78ZM535.414 78.0898C534.344 78.0898 533.785 77.3828 533.785 76.0352V75.8086C533.785 74.5 534.359 73.8086 535.422 73.8086C536.363 73.8086 536.887 74.332 536.961 75.3672L536.14 75.4805C536.101 74.6992 535.879 74.3789 535.414 74.3789C534.887 74.3789 534.629 74.8008 534.629 75.6914V76.1523C534.629 77.0742 534.89 77.5156 535.426 77.5156C535.879 77.5156 536.121 77.1953 536.164 76.4727L537.008 76.5898C536.91 77.582 536.347 78.0898 535.414 78.0898ZM540.511 76.6211L541.308 76.7461C541.207 77.625 540.629 78.0898 539.757 78.0898C538.675 78.0898 538.101 77.3828 538.101 76.0898V75.8125C538.101 74.5156 538.675 73.8086 539.757 73.8086C540.757 73.8086 541.304 74.4414 541.304 75.5859C541.304 75.7461 541.293 75.9258 541.277 76.0859H538.918V76.2266C538.918 77.0977 539.195 77.5156 539.761 77.5156C540.207 77.5156 540.465 77.25 540.511 76.6211ZM539.754 74.3789C539.218 74.3789 538.945 74.7695 538.922 75.5625H540.48V75.4531C540.48 74.7266 540.246 74.3789 539.754 74.3789ZM544.906 78.0781C543.996 78.0781 543.585 77.582 543.585 76.4492V73.1992H542.25V72.5312H544.406V76.3867C544.406 77.0625 544.644 77.3477 545.16 77.3477C545.41 77.3477 545.679 77.293 545.875 77.1641L545.824 77.8438C545.613 77.9922 545.296 78.0781 544.906 78.0781ZM547.726 78.0898C547.085 78.0898 546.718 77.7188 546.718 77.0898V77.0742C546.718 76.2539 547.394 75.9219 548.144 75.7188L548.894 75.5117V75.1172C548.894 74.6211 548.71 74.3789 548.281 74.3789C547.788 74.3789 547.562 74.7031 547.605 75.4062L546.796 75.2891C546.753 74.3555 547.285 73.8086 548.292 73.8086C549.234 73.8086 549.722 74.25 549.722 75.0977V77.1211C549.722 77.4414 549.761 77.4805 550.14 77.5039L550.015 78.0625C549.941 78.0781 549.851 78.0898 549.753 78.0898C549.117 78.0898 548.949 77.7773 549.124 77.0039L549.042 76.9844C548.859 77.707 548.417 78.0898 547.726 78.0898ZM548.023 77.4688C548.531 77.4688 548.894 77.0039 548.894 76.3477V76L548.41 76.1445C547.921 76.2891 547.562 76.5312 547.562 76.9609V76.9805C547.562 77.2891 547.734 77.4688 548.023 77.4688ZM551.991 78H551.171V73.8984H551.995C551.987 74.1562 551.937 74.4258 551.792 74.8906L551.866 74.918C552.155 74.1602 552.577 73.832 553.167 73.832C553.823 73.832 554.163 74.1914 554.163 74.8711V78H553.343V75.0352C553.343 74.6406 553.167 74.4219 552.835 74.4219C552.335 74.4219 551.991 74.9961 551.991 75.8281V78ZM556.558 78.0664C555.749 78.0664 555.319 77.4219 555.319 76.1992V75.6992C555.319 74.4766 555.749 73.832 556.558 73.832C557.202 73.832 557.585 74.2227 557.784 74.8555L557.866 74.8242C557.722 74.3398 557.671 74.0039 557.671 73.6328V72.5312H558.491V78H557.683C557.687 77.8125 557.745 77.5117 557.87 77.0742L557.788 77.0469C557.577 77.7031 557.198 78.0664 556.558 78.0664ZM556.87 77.5C557.386 77.5 557.671 77.0312 557.671 76.1602V75.7422C557.671 74.8711 557.386 74.3945 556.87 74.3945C556.394 74.3945 556.155 74.8086 556.155 75.668V76.2344C556.155 77.0898 556.39 77.5 556.87 77.5Z" fill="black" fill-opacity="0.48"/>
<path d="M32 784H560" stroke="#DBDBDB" stroke-width="0.5"/>
<path d="M32.7764 798H32.1699L33.0928 793.898H34.001L34.9473 798H34.2939L34.1035 797.2H32.9668L32.7764 798ZM33.3125 795.56L33.0635 796.749H34.0098L33.7607 795.56C33.6846 795.19 33.6289 794.874 33.5615 794.432H33.5C33.4414 794.874 33.3887 795.19 33.3125 795.56ZM36.2948 798H35.6796V794.924H36.2977C36.2919 795.117 36.2538 795.319 36.1454 795.668L36.2011 795.688C36.4179 795.12 36.7343 794.874 37.1766 794.874C37.6688 794.874 37.9237 795.144 37.9237 795.653V798H37.3085V795.776C37.3085 795.48 37.1766 795.316 36.9276 795.316C36.5526 795.316 36.2948 795.747 36.2948 796.371V798ZM40.033 798.067C39.2537 798.067 38.8259 797.522 38.8259 796.603V796.318C38.8259 795.398 39.2537 794.856 40.033 794.856C40.8093 794.856 41.24 795.398 41.24 796.318V796.603C41.24 797.522 40.8093 798.067 40.033 798.067ZM40.033 797.634C40.4168 797.634 40.6043 797.326 40.6043 796.685V796.242C40.6043 795.595 40.4168 795.287 40.033 795.287C39.6462 795.287 39.4617 795.595 39.4617 796.242V796.685C39.4617 797.326 39.6462 797.634 40.033 797.634ZM43.7477 798.059C43.0563 798.059 42.7223 797.663 42.7223 796.837V795.419H41.9108V794.924H42.7223V794.127L43.3375 793.957V794.924H44.6032V795.419H43.3375V796.79C43.3375 797.309 43.528 797.525 43.9235 797.525C44.152 797.525 44.3952 797.481 44.5827 797.373L44.5416 797.883C44.3571 797.994 44.0846 798.059 43.7477 798.059ZM46.0064 798H45.3911V793.898H46.0064V794.83C46.0064 795.091 45.9683 795.319 45.854 795.668L45.9126 795.688C46.1294 795.12 46.4458 794.874 46.8882 794.874C47.3804 794.874 47.6353 795.144 47.6353 795.653V798H47.02V795.776C47.02 795.48 46.8882 795.316 46.6392 795.316C46.2642 795.316 46.0064 795.744 46.0064 796.371V798ZM50.3451 796.966L50.9428 797.06C50.8666 797.719 50.433 798.067 49.7797 798.067C48.9682 798.067 48.5375 797.537 48.5375 796.567V796.359C48.5375 795.387 48.9682 794.856 49.7797 794.856C50.5297 794.856 50.9398 795.331 50.9398 796.189C50.9398 796.31 50.9311 796.444 50.9193 796.564H49.1498V796.67C49.1498 797.323 49.3578 797.637 49.7826 797.637C50.1166 797.637 50.31 797.438 50.3451 796.966ZM49.7768 795.284C49.3754 795.284 49.1703 795.577 49.1527 796.172H50.3217V796.09C50.3217 795.545 50.1459 795.284 49.7768 795.284ZM54.0862 798H51.7044V797.499H52.428V795.425H51.7337V794.924H53.0198C53.0227 795.132 52.9934 795.328 52.8997 795.785L52.9612 795.806C53.2366 795.12 53.6028 794.856 54.1653 794.836L54.262 795.524C53.4182 795.557 53.0432 795.838 53.0432 796.69V797.499H54.0862V798ZM59.459 798.064C58.5918 798.064 58.1612 797.484 58.1612 796.362V795.536C58.1612 794.414 58.5977 793.834 59.4561 793.834C60.2295 793.834 60.6836 794.294 60.7041 795.354L60.0918 795.483C60.086 794.607 59.875 794.326 59.4678 794.326C59.0196 794.326 58.8057 794.678 58.8057 795.431V796.465C58.8057 797.215 59.0225 797.566 59.4737 797.566C59.875 797.566 60.1065 797.282 60.1153 796.374L60.7364 796.526C60.7129 797.61 60.2266 798.064 59.459 798.064ZM63.7978 798H61.4159V797.499H62.1396V795.425H61.4452V794.924H62.7314C62.7343 795.132 62.705 795.328 62.6112 795.785L62.6728 795.806C62.9482 795.12 63.3144 794.856 63.8769 794.836L63.9736 795.524C63.1298 795.557 62.7548 795.838 62.7548 796.69V797.499H63.7978V798ZM66.5311 796.966L67.1287 797.06C67.0525 797.719 66.6189 798.067 65.9656 798.067C65.1541 798.067 64.7234 797.537 64.7234 796.567V796.359C64.7234 795.387 65.1541 794.856 65.9656 794.856C66.7156 794.856 67.1258 795.331 67.1258 796.189C67.1258 796.31 67.117 796.444 67.1053 796.564H65.3357V796.67C65.3357 797.323 65.5438 797.637 65.9686 797.637C66.3025 797.637 66.4959 797.438 66.5311 796.966ZM65.9627 795.284C65.5613 795.284 65.3563 795.577 65.3387 796.172H66.5076V796.09C66.5076 795.545 66.3318 795.284 65.9627 795.284ZM68.7048 798.067C68.2243 798.067 67.9489 797.789 67.9489 797.317V797.306C67.9489 796.69 68.4557 796.441 69.0182 796.289L69.5807 796.134V795.838C69.5807 795.466 69.443 795.284 69.1208 795.284C68.7516 795.284 68.5817 795.527 68.6139 796.055L68.0075 795.967C67.9753 795.267 68.3737 794.856 69.1296 794.856C69.8356 794.856 70.2018 795.188 70.2018 795.823V797.341C70.2018 797.581 70.2311 797.61 70.5153 797.628L70.4216 798.047C70.3659 798.059 70.2985 798.067 70.2253 798.067C69.7477 798.067 69.6218 797.833 69.7536 797.253L69.6921 797.238C69.5544 797.78 69.2233 798.067 68.7048 798.067ZM68.9274 797.602C69.3083 797.602 69.5807 797.253 69.5807 796.761V796.5L69.2175 796.608C68.8512 796.717 68.5817 796.898 68.5817 797.221V797.235C68.5817 797.467 68.7106 797.602 68.9274 797.602ZM72.8824 798.059C72.191 798.059 71.857 797.663 71.857 796.837V795.419H71.0455V794.924H71.857V794.127L72.4722 793.957V794.924H73.7379V795.419H72.4722V796.79C72.4722 797.309 72.6627 797.525 73.0582 797.525C73.2867 797.525 73.5298 797.481 73.7173 797.373L73.6763 797.883C73.4918 797.994 73.2193 798.059 72.8824 798.059ZM76.0698 794.499H75.2788V793.898H76.0698V794.499ZM76.8432 798H74.4409V797.499H75.3666V795.425H74.4702V794.924H75.9819V797.499H76.8432V798ZM78.8792 798.067C78.0999 798.067 77.6722 797.522 77.6722 796.603V796.318C77.6722 795.398 78.0999 794.856 78.8792 794.856C79.6556 794.856 80.0863 795.398 80.0863 796.318V796.603C80.0863 797.522 79.6556 798.067 78.8792 798.067ZM78.8792 797.634C79.263 797.634 79.4505 797.326 79.4505 796.685V796.242C79.4505 795.595 79.263 795.287 78.8792 795.287C78.4925 795.287 78.3079 795.595 78.3079 796.242V796.685C78.3079 797.326 78.4925 797.634 78.8792 797.634ZM81.6154 798H81.0002V794.924H81.6184C81.6125 795.117 81.5744 795.319 81.466 795.668L81.5217 795.688C81.7385 795.12 82.0549 794.874 82.4973 794.874C82.9895 794.874 83.2443 795.144 83.2443 795.653V798H82.6291V795.776C82.6291 795.48 82.4973 795.316 82.2482 795.316C81.8732 795.316 81.6154 795.747 81.6154 796.371V798ZM89.1914 796.966L89.789 797.06C89.7129 797.719 89.2793 798.067 88.6259 798.067C87.8144 798.067 87.3838 797.537 87.3838 796.567V796.359C87.3838 795.387 87.8144 794.856 88.6259 794.856C89.3759 794.856 89.7861 795.331 89.7861 796.189C89.7861 796.31 89.7773 796.444 89.7656 796.564H87.9961V796.67C87.9961 797.323 88.2041 797.637 88.6289 797.637C88.9629 797.637 89.1562 797.438 89.1914 796.966ZM88.623 795.284C88.2216 795.284 88.0166 795.577 87.999 796.172H89.1679V796.09C89.1679 795.545 88.9921 795.284 88.623 795.284ZM91.327 798H90.7118V793.898H91.327V794.83C91.327 795.091 91.2889 795.319 91.1746 795.668L91.2332 795.688C91.45 795.12 91.7664 794.874 92.2088 794.874C92.701 794.874 92.9559 795.144 92.9559 795.653V798H92.3407V795.776C92.3407 795.48 92.2088 795.316 91.9598 795.316C91.5848 795.316 91.327 795.744 91.327 796.371V798ZM95.197 798H94.5847V795.606H93.7058V795.111H94.5847V794.815C94.5847 794.162 95.0271 793.931 96.3425 793.834L96.4245 794.35C95.2058 794.405 95.156 794.435 95.1794 795.111H96.4011V795.606H95.197V798ZM101.997 796.614H101.082V795.814H101.997V796.614ZM107.539 798H106.906V793.898H107.539V794.906C107.539 795.229 107.522 795.463 107.466 795.776L107.519 795.794L108.697 793.898H109.367L108.36 795.472L109.4 798H108.708L107.929 795.987L107.539 796.553V798ZM111.729 798.059C111.037 798.059 110.703 797.663 110.703 796.837V795.419H109.892V794.924H110.703V794.127L111.318 793.957V794.924H112.584V795.419H111.318V796.79C111.318 797.309 111.509 797.525 111.904 797.525C112.133 797.525 112.376 797.481 112.564 797.373L112.523 797.883C112.338 797.994 112.066 798.059 111.729 798.059ZM114.945 798H114.031V797.2H114.945V798ZM120.977 798.064C120.183 798.064 119.759 797.736 119.715 796.957L120.342 796.849C120.368 797.37 120.585 797.587 120.969 797.587C121.373 797.587 121.575 797.353 121.575 796.86V796.562C121.575 796.087 121.385 795.861 120.998 795.861C120.681 795.861 120.476 796.02 120.347 796.348L119.785 796.307L119.885 793.898H122.067V794.411H120.479L120.415 795.647C120.599 795.489 120.834 795.407 121.144 795.407C121.842 795.407 122.214 795.791 122.214 796.526V796.863C122.214 797.654 121.789 798.064 120.977 798.064ZM124.2 798.064C123.382 798.064 122.946 797.692 122.946 797.01V796.805C122.946 796.318 123.177 795.996 123.608 795.888V795.829C123.233 795.709 123.037 795.428 123.037 795.003V794.824C123.037 794.18 123.441 793.834 124.2 793.834C124.962 793.834 125.363 794.18 125.363 794.824V795.003C125.363 795.428 125.17 795.709 124.795 795.829V795.888C125.222 795.996 125.454 796.318 125.454 796.805V797.01C125.454 797.692 125.02 798.064 124.2 798.064ZM124.2 795.647C124.572 795.647 124.751 795.46 124.751 795.079V794.865C124.751 794.481 124.572 794.294 124.2 794.294C123.831 794.294 123.649 794.481 123.649 794.865V795.079C123.649 795.46 123.831 795.647 124.2 795.647ZM124.2 797.602C124.61 797.602 124.812 797.396 124.812 796.978V796.723C124.812 796.301 124.61 796.096 124.2 796.096C123.79 796.096 123.59 796.301 123.59 796.723V796.978C123.59 797.396 123.79 797.602 124.2 797.602ZM127.437 798.062C126.582 798.062 126.142 797.511 126.142 796.438V795.463C126.142 794.391 126.582 793.837 127.437 793.837C128.293 793.837 128.732 794.391 128.732 795.463V796.438C128.732 797.511 128.293 798.062 127.437 798.062ZM127.437 797.572C127.882 797.572 128.099 797.238 128.099 796.544V795.372C128.099 794.666 127.882 794.326 127.437 794.326C126.992 794.326 126.775 794.666 126.775 795.372V796.544C126.775 797.238 126.992 797.572 127.437 797.572ZM127.674 796.312H127.2V795.586H127.674V796.312ZM131.966 798H129.382V797.534H130.428V795.082H129.382V794.672C130.364 794.646 130.49 794.599 130.539 793.898H131.061V797.534H131.966V798ZM135.209 798H132.646V797.587C134.055 796.239 134.436 795.65 134.436 794.971C134.436 794.528 134.283 794.314 133.906 794.314C133.454 794.314 133.255 794.648 133.287 795.445L132.681 795.334C132.646 794.312 133.068 793.831 133.926 793.831C134.667 793.831 135.069 794.2 135.069 794.897C135.069 795.686 134.667 796.318 133.469 797.455L133.481 797.505C133.642 797.496 133.794 797.49 133.964 797.49H135.209V798ZM137.181 793.834C137.878 793.834 138.32 794.186 138.35 795.044L137.717 795.158C137.705 794.546 137.503 794.32 137.166 794.32C136.736 794.32 136.53 794.687 136.53 795.492V795.809C136.712 795.565 137.005 795.442 137.348 795.442C137.992 795.442 138.364 795.847 138.364 796.591V796.884C138.364 797.648 137.937 798.064 137.163 798.064C136.322 798.064 135.924 797.537 135.924 796.523V795.595C135.924 794.42 136.334 793.834 137.181 793.834ZM137.157 795.896C136.815 795.896 136.592 796.119 136.592 796.559V796.846C136.592 797.341 136.797 797.575 137.175 797.575C137.538 797.575 137.735 797.353 137.735 796.881V796.594C137.735 796.119 137.532 795.896 137.157 795.896ZM141.32 796.562H139.451V796.002H141.32V796.562ZM144.921 798H142.357V797.587C143.767 796.239 144.147 795.65 144.147 794.971C144.147 794.528 143.995 794.314 143.617 794.314C143.166 794.314 142.967 794.648 142.999 795.445L142.393 795.334C142.357 794.312 142.779 793.831 143.638 793.831C144.379 793.831 144.78 794.2 144.78 794.897C144.78 795.686 144.379 796.318 143.181 797.455L143.192 797.505C143.353 797.496 143.506 797.49 143.676 797.49H144.921V798ZM148.158 798H145.595V797.587C147.004 796.239 147.385 795.65 147.385 794.971C147.385 794.528 147.232 794.314 146.854 794.314C146.403 794.314 146.204 794.648 146.236 795.445L145.63 795.334C145.595 794.312 146.016 793.831 146.875 793.831C147.616 793.831 148.017 794.2 148.017 794.897C148.017 795.686 147.616 796.318 146.418 797.455L146.429 797.505C146.591 797.496 146.743 797.49 146.913 797.49H148.158V798ZM150.982 798H150.382V797.062H148.738V796.688L150.001 793.898H150.982V796.611H151.457V797.062H150.982V798ZM150.039 795.179L149.365 796.611H150.382V795.305C150.382 794.953 150.39 794.646 150.402 794.385L150.343 794.379C150.261 794.634 150.156 794.9 150.039 795.179ZM153.335 798.062C152.479 798.062 152.04 797.511 152.04 796.438V795.463C152.04 794.391 152.479 793.837 153.335 793.837C154.19 793.837 154.629 794.391 154.629 795.463V796.438C154.629 797.511 154.19 798.062 153.335 798.062ZM153.335 797.572C153.78 797.572 153.997 797.238 153.997 796.544V795.372C153.997 794.666 153.78 794.326 153.335 794.326C152.889 794.326 152.672 794.666 152.672 795.372V796.544C152.672 797.238 152.889 797.572 153.335 797.572ZM153.572 796.312H153.097V795.586H153.572V796.312Z" fill="black" fill-opacity="0.24"/>
<path d="M308.086 798.067C307.605 798.067 307.33 797.789 307.33 797.317V797.306C307.33 796.69 307.837 796.441 308.399 796.289L308.962 796.134V795.838C308.962 795.466 308.824 795.284 308.502 795.284C308.133 795.284 307.963 795.527 307.995 796.055L307.389 795.967C307.356 795.267 307.755 794.856 308.511 794.856C309.217 794.856 309.583 795.188 309.583 795.823V797.341C309.583 797.581 309.612 797.61 309.896 797.628L309.803 798.047C309.747 798.059 309.68 798.067 309.606 798.067C309.129 798.067 309.003 797.833 309.135 797.253L309.073 797.238C308.936 797.78 308.604 798.067 308.086 798.067ZM308.309 797.602C308.689 797.602 308.962 797.253 308.962 796.761V796.5L308.599 796.608C308.232 796.717 307.963 796.898 307.963 797.221V797.235C307.963 797.467 308.092 797.602 308.309 797.602ZM311.285 798H310.67V794.924H311.288C311.282 795.117 311.244 795.319 311.136 795.668L311.191 795.688C311.408 795.12 311.724 794.874 312.167 794.874C312.659 794.874 312.914 795.144 312.914 795.653V798H312.299V795.776C312.299 795.48 312.167 795.316 311.918 795.316C311.543 795.316 311.285 795.747 311.285 796.371V798ZM315.023 798.067C314.244 798.067 313.816 797.522 313.816 796.603V796.318C313.816 795.398 314.244 794.856 315.023 794.856C315.8 794.856 316.23 795.398 316.23 796.318V796.603C316.23 797.522 315.8 798.067 315.023 798.067ZM315.023 797.634C315.407 797.634 315.594 797.326 315.594 796.685V796.242C315.594 795.595 315.407 795.287 315.023 795.287C314.636 795.287 314.452 795.595 314.452 796.242V796.685C314.452 797.326 314.636 797.634 315.023 797.634ZM318.738 798.059C318.047 798.059 317.713 797.663 317.713 796.837V795.419H316.901V794.924H317.713V794.127L318.328 793.957V794.924H319.593V795.419H318.328V796.79C318.328 797.309 318.518 797.525 318.914 797.525C319.142 797.525 319.385 797.481 319.573 797.373L319.532 797.883C319.347 797.994 319.075 798.059 318.738 798.059ZM320.997 798H320.381V793.898H320.997V794.83C320.997 795.091 320.959 795.319 320.844 795.668L320.903 795.688C321.12 795.12 321.436 794.874 321.878 794.874C322.371 794.874 322.626 795.144 322.626 795.653V798H322.01V795.776C322.01 795.48 321.878 795.316 321.629 795.316C321.254 795.316 320.997 795.744 320.997 796.371V798ZM325.335 796.966L325.933 797.06C325.857 797.719 325.423 798.067 324.77 798.067C323.958 798.067 323.528 797.537 323.528 796.567V796.359C323.528 795.387 323.958 794.856 324.77 794.856C325.52 794.856 325.93 795.331 325.93 796.189C325.93 796.31 325.921 796.444 325.91 796.564H324.14V796.67C324.14 797.323 324.348 797.637 324.773 797.637C325.107 797.637 325.3 797.438 325.335 796.966ZM324.767 795.284C324.366 795.284 324.161 795.577 324.143 796.172H325.312V796.09C325.312 795.545 325.136 795.284 324.767 795.284ZM329.076 798H326.695V797.499H327.418V795.425H326.724V794.924H328.01C328.013 795.132 327.984 795.328 327.89 795.785L327.951 795.806C328.227 795.12 328.593 794.856 329.156 794.836L329.252 795.524C328.408 795.557 328.033 795.838 328.033 796.69V797.499H329.076V798ZM331.224 798.067C330.421 798.067 330.002 797.537 330.002 796.526V796.356C330.002 795.375 330.433 794.856 331.23 794.856C331.936 794.856 332.328 795.249 332.384 796.025L331.769 796.11C331.739 795.524 331.572 795.284 331.224 795.284C330.828 795.284 330.635 795.601 330.635 796.269V796.614C330.635 797.306 330.831 797.637 331.233 797.637C331.572 797.637 331.754 797.396 331.786 796.854L332.419 796.942C332.346 797.687 331.924 798.067 331.224 798.067ZM335.551 798H333.169V797.499H333.893V795.425H333.198V794.924H334.484C334.487 795.132 334.458 795.328 334.364 795.785L334.426 795.806C334.701 795.12 335.067 794.856 335.63 794.836L335.727 795.524C334.883 795.557 334.508 795.838 334.508 796.69V797.499H335.551V798ZM338.284 796.966L338.882 797.06C338.806 797.719 338.372 798.067 337.719 798.067C336.907 798.067 336.476 797.537 336.476 796.567V796.359C336.476 795.387 336.907 794.856 337.719 794.856C338.469 794.856 338.879 795.331 338.879 796.189C338.879 796.31 338.87 796.444 338.858 796.564H337.089V796.67C337.089 797.323 337.297 797.637 337.722 797.637C338.056 797.637 338.249 797.438 338.284 796.966ZM337.716 795.284C337.314 795.284 337.109 795.577 337.092 796.172H338.261V796.09C338.261 795.545 338.085 795.284 337.716 795.284ZM340.458 798.067C339.977 798.067 339.702 797.789 339.702 797.317V797.306C339.702 796.69 340.209 796.441 340.771 796.289L341.334 796.134V795.838C341.334 795.466 341.196 795.284 340.874 795.284C340.505 795.284 340.335 795.527 340.367 796.055L339.761 795.967C339.728 795.267 340.127 794.856 340.883 794.856C341.589 794.856 341.955 795.188 341.955 795.823V797.341C341.955 797.581 341.984 797.61 342.268 797.628L342.175 798.047C342.119 798.059 342.052 798.067 341.978 798.067C341.501 798.067 341.375 797.833 341.507 797.253L341.445 797.238C341.307 797.78 340.976 798.067 340.458 798.067ZM340.68 797.602C341.061 797.602 341.334 797.253 341.334 796.761V796.5L340.971 796.608C340.604 796.717 340.335 796.898 340.335 797.221V797.235C340.335 797.467 340.464 797.602 340.68 797.602ZM344.635 798.059C343.944 798.059 343.61 797.663 343.61 796.837V795.419H342.799V794.924H343.61V794.127L344.225 793.957V794.924H345.491V795.419H344.225V796.79C344.225 797.309 344.416 797.525 344.811 797.525C345.04 797.525 345.283 797.481 345.47 797.373L345.429 797.883C345.245 797.994 344.972 798.059 344.635 798.059ZM347.823 794.499H347.032V793.898H347.823V794.499ZM348.596 798H346.194V797.499H347.12V795.425H346.223V794.924H347.735V797.499H348.596V798ZM350.632 798.067C349.853 798.067 349.425 797.522 349.425 796.603V796.318C349.425 795.398 349.853 794.856 350.632 794.856C351.409 794.856 351.839 795.398 351.839 796.318V796.603C351.839 797.522 351.409 798.067 350.632 798.067ZM350.632 797.634C351.016 797.634 351.204 797.326 351.204 796.685V796.242C351.204 795.595 351.016 795.287 350.632 795.287C350.246 795.287 350.061 795.595 350.061 796.242V796.685C350.061 797.326 350.246 797.634 350.632 797.634ZM353.368 798H352.753V794.924H353.371C353.366 795.117 353.327 795.319 353.219 795.668L353.275 795.688C353.492 795.12 353.808 794.874 354.25 794.874C354.743 794.874 354.997 795.144 354.997 795.653V798H354.382V795.776C354.382 795.48 354.25 795.316 354.001 795.316C353.626 795.316 353.368 795.747 353.368 796.371V798ZM357.564 798H356.65V797.2H357.564V798ZM360.358 798.067C359.556 798.067 359.137 797.537 359.137 796.526V796.356C359.137 795.375 359.567 794.856 360.364 794.856C361.07 794.856 361.463 795.249 361.519 796.025L360.903 796.11C360.874 795.524 360.707 795.284 360.358 795.284C359.963 795.284 359.77 795.601 359.77 796.269V796.614C359.77 797.306 359.966 797.637 360.367 797.637C360.707 797.637 360.889 797.396 360.921 796.854L361.554 796.942C361.481 797.687 361.059 798.067 360.358 798.067ZM363.581 798.067C362.802 798.067 362.374 797.522 362.374 796.603V796.318C362.374 795.398 362.802 794.856 363.581 794.856C364.357 794.856 364.788 795.398 364.788 796.318V796.603C364.788 797.522 364.357 798.067 363.581 798.067ZM363.581 797.634C363.965 797.634 364.152 797.326 364.152 796.685V796.242C364.152 795.595 363.965 795.287 363.581 795.287C363.194 795.287 363.01 795.595 363.01 796.242V796.685C363.01 797.326 363.194 797.634 363.581 797.634ZM366.033 798H365.509V794.924H366.021C366.021 795.044 365.995 795.185 365.907 795.46L365.96 795.478C366.115 795.053 366.306 794.886 366.587 794.886C366.889 794.886 367.017 795.1 366.95 795.466L367 795.483C367.146 795.062 367.354 794.886 367.656 794.886C367.975 794.886 368.128 795.064 368.128 795.437V798H367.603V795.601C367.603 795.428 367.539 795.34 367.407 795.34C367.19 795.34 367.058 795.677 367.058 796.14V798H366.578V795.604C366.578 795.434 366.511 795.34 366.388 795.34C366.177 795.34 366.033 795.665 366.033 796.146V798Z" fill="black" fill-opacity="0.24"/>
<path d="M522.041 798H521.408V793.898H522.653C523.464 793.898 523.886 794.3 523.886 795.073V795.234C523.886 795.999 523.464 796.4 522.653 796.4H522.041V798ZM522.041 794.388V795.911H522.583C523.04 795.911 523.259 795.697 523.259 795.249V795.056C523.259 794.602 523.04 794.388 522.583 794.388H522.041ZM525.313 798.067C524.832 798.067 524.557 797.789 524.557 797.317V797.306C524.557 796.69 525.064 796.441 525.626 796.289L526.189 796.134V795.838C526.189 795.466 526.051 795.284 525.729 795.284C525.36 795.284 525.19 795.527 525.222 796.055L524.616 795.967C524.583 795.267 524.982 794.856 525.738 794.856C526.444 794.856 526.81 795.188 526.81 795.823V797.341C526.81 797.581 526.839 797.61 527.123 797.628L527.03 798.047C526.974 798.059 526.907 798.067 526.833 798.067C526.356 798.067 526.23 797.833 526.362 797.253L526.3 797.238C526.162 797.78 525.831 798.067 525.313 798.067ZM525.536 797.602C525.916 797.602 526.189 797.253 526.189 796.761V796.5L525.826 796.608C525.459 796.717 525.19 796.898 525.19 797.221V797.235C525.19 797.467 525.319 797.602 525.536 797.602ZM528.846 797.262L529.329 797.323C529.81 797.391 530.352 797.505 530.352 798.179C530.352 798.806 529.909 799.093 528.978 799.093C528.096 799.093 527.677 798.844 527.677 798.343C527.677 797.994 527.838 797.807 528.21 797.722V797.663C527.955 797.563 527.785 797.391 527.785 797.121C527.785 796.875 527.947 796.714 528.248 796.661V796.611C528.011 796.447 527.885 796.184 527.885 795.832C527.885 795.202 528.286 794.856 529.013 794.856C529.159 794.856 529.291 794.871 529.408 794.897C529.329 794.438 529.578 794.106 530.208 794.062L530.293 794.602C529.804 794.654 529.628 794.736 529.634 794.974C529.959 795.123 530.135 795.416 530.135 795.832C530.135 796.462 529.734 796.808 529.013 796.808C528.808 796.808 528.629 796.781 528.48 796.726C528.304 796.761 528.237 796.831 528.237 796.934C528.237 797.098 528.365 797.194 528.846 797.262ZM529.013 795.223C528.673 795.223 528.509 795.416 528.509 795.832C528.509 796.248 528.673 796.438 529.013 796.438C529.35 796.438 529.511 796.248 529.511 795.832C529.511 795.416 529.35 795.223 529.013 795.223ZM529.007 798.653C529.578 798.653 529.827 798.527 529.827 798.229C529.827 797.941 529.614 797.88 529.13 797.821L528.647 797.766C528.6 797.76 528.55 797.754 528.506 797.745C528.237 797.839 528.149 797.977 528.149 798.19C528.149 798.504 528.395 798.653 529.007 798.653ZM532.851 796.966L533.448 797.06C533.372 797.719 532.939 798.067 532.285 798.067C531.474 798.067 531.043 797.537 531.043 796.567V796.359C531.043 795.387 531.474 794.856 532.285 794.856C533.035 794.856 533.445 795.331 533.445 796.189C533.445 796.31 533.437 796.444 533.425 796.564H531.655V796.67C531.655 797.323 531.863 797.637 532.288 797.637C532.622 797.637 532.816 797.438 532.851 796.966ZM532.282 795.284C531.881 795.284 531.676 795.577 531.658 796.172H532.827V796.09C532.827 795.545 532.652 795.284 532.282 795.284ZM538.725 798.062C537.869 798.062 537.43 797.511 537.43 796.438V795.463C537.43 794.391 537.869 793.837 538.725 793.837C539.58 793.837 540.019 794.391 540.019 795.463V796.438C540.019 797.511 539.58 798.062 538.725 798.062ZM538.725 797.572C539.17 797.572 539.387 797.238 539.387 796.544V795.372C539.387 794.666 539.17 794.326 538.725 794.326C538.279 794.326 538.062 794.666 538.062 795.372V796.544C538.062 797.238 538.279 797.572 538.725 797.572ZM538.962 796.312H538.487V795.586H538.962V796.312ZM543.254 798H540.67V797.534H541.716V795.082H540.67V794.672C541.651 794.646 541.777 794.599 541.827 793.898H542.348V797.534H543.254V798ZM547.645 798.586H547.056L549.224 793.752H549.816L547.645 798.586ZM554.91 798.062C554.055 798.062 553.616 797.511 553.616 796.438V795.463C553.616 794.391 554.055 793.837 554.91 793.837C555.766 793.837 556.205 794.391 556.205 795.463V796.438C556.205 797.511 555.766 798.062 554.91 798.062ZM554.91 797.572C555.356 797.572 555.573 797.238 555.573 796.544V795.372C555.573 794.666 555.356 794.326 554.91 794.326C554.465 794.326 554.248 794.666 554.248 795.372V796.544C554.248 797.238 554.465 797.572 554.91 797.572ZM555.148 796.312H554.673V795.586H555.148V796.312ZM559.44 798H556.856V797.534H557.902V795.082H556.856V794.672C557.837 794.646 557.963 794.599 558.013 793.898H558.534V797.534H559.44V798Z" fill="black" fill-opacity="0.24"/>
</svg>
