<svg width="420" height="128" viewBox="0 0 420 128" fill="none" xmlns="http://www.w3.org/2000/svg">
<path d="M92.2695 101.648H69.7266V22.3516H79.2988V93.7188H92.2695V101.648Z" fill="#262A33"/>
<path d="M49.5039 102.611C38.6855 102.611 33.3047 96.3242 33.3047 83.8066V40.1934C33.3047 27.6758 38.6855 21.3887 49.5039 21.3887C60.3789 21.3887 65.7598 27.6758 65.7598 40.1934V83.8066C65.7598 96.3242 60.3789 102.611 49.5039 102.611ZM49.5605 95.0781C53.9785 95.0781 56.1309 91.6797 56.1309 84.7129V39.457C56.1309 32.3203 53.9785 28.8652 49.5605 28.8652C45.0859 28.8652 42.9336 32.3203 42.9336 39.457V84.7129C42.9336 91.6797 45.0859 95.0781 49.5605 95.0781Z" fill="#262A33"/>
<path d="M11.5527 101.648H1.98047V22.3516H11.5527V35.3223C11.5527 42.459 11.2129 48.0664 10.0234 57.2422L11.043 57.4688L23.6738 22.3516H33.1895L22.2012 50.7285L33.416 101.648H23.3906L15.6875 60.6406L11.5527 69.9863V101.648Z" fill="#262A33"/>
<path fill-rule="evenodd" clip-rule="evenodd" d="M151.807 3.70114C147.841 9.94204 148.113 7.96736 148.545 27.4049L148.929 44.7336L151.874 48.0149C153.699 50.0476 154.72 51.5481 154.558 51.9581C154.172 52.9354 152.982 52.1671 150.426 49.2899C149.23 47.9436 148.013 46.8424 147.722 46.8424C147.116 46.8424 145.387 45.112 145.56 44.6788C145.623 44.5206 145.485 44.3913 145.253 44.3913C145.021 44.3913 144.063 43.3886 143.123 42.1631C142.184 40.9375 140.084 38.6063 138.455 36.9828L135.495 34.0308L134.558 18.2655C133.865 6.60055 133.46 2.33031 132.997 1.84678C132.522 1.34943 131.467 1.22688 128.589 1.33473C126.509 1.41227 120.138 1.61059 114.431 1.77503C106.763 1.99563 103.861 2.23093 103.309 2.67569C102.686 3.17839 102.563 4.2894 102.563 9.41751V15.5573L108.181 15.8371C111.271 15.9913 115.966 16.162 118.615 16.2164L123.431 16.3153L123.564 13.1957L123.696 10.0762L116.111 10.2259L108.525 10.3757V9.00885C108.525 7.95265 108.759 7.59301 109.557 7.42589C111.663 6.98514 126.196 6.37282 126.557 6.71017C126.762 6.90225 127.431 13.3535 128.042 21.0463C128.654 28.7387 129.253 35.4462 129.375 35.952C129.497 36.4579 131.702 38.8929 134.275 41.3631L138.952 45.8549L139.543 50.0253C139.868 52.319 140.276 57.7551 140.451 62.106L140.769 70.0163L126.367 70.0212C118.446 70.0239 111.242 70.1313 110.36 70.2601C109.477 70.3889 108.509 70.3323 108.209 70.1344C107.813 69.8728 107.54 64.0798 107.208 48.8461C106.956 37.3358 106.828 27.843 106.922 27.7521C107.015 27.6607 109.228 27.4802 111.838 27.351C116.254 27.1317 116.587 27.174 116.632 27.9544C116.658 28.4161 116.823 35.3112 116.998 43.2772L117.317 57.7609L118.382 58.1187C119.604 58.5287 122.557 57.8817 122.425 57.2332C122.376 56.9948 122.189 48.9365 122.009 39.3261C121.829 29.7156 121.545 21.7701 121.378 21.6698C121.211 21.5695 116.666 21.4541 111.277 21.4136L101.48 21.3396L101.518 26.1807C101.694 48.4887 102.298 75.3641 102.623 75.3641C102.842 75.3641 103.021 75.6681 103.021 76.0397C103.021 76.6378 105.274 76.6806 122.616 76.4114L142.21 76.1079L141.33 77.407C140.845 78.1218 137.989 82.4166 134.981 86.9511C131.974 91.4856 129.467 95.2482 129.409 95.3124C129.352 95.3766 124.726 95.1889 119.13 94.8957L108.953 94.3627L109.083 89.8768L109.213 85.3913L110.787 85.2456C111.653 85.1653 113.046 85.2246 113.883 85.377C115.327 85.6404 115.404 85.7523 115.404 87.5812C115.404 89.4619 115.446 89.5149 117.124 89.7845C120.194 90.2774 122.165 90.1228 122.464 89.3656C122.824 88.4542 122.815 84.2544 122.445 81.269C122.162 78.9797 121.315 78.1481 120.742 79.5978C120.52 80.1611 119.041 80.2663 111.345 80.2663C100.78 80.2663 101.599 79.8095 102.157 85.3913C102.353 87.3521 102.655 91.4869 102.828 94.5797L103.144 100.203L106.179 100.481C107.848 100.635 114.636 100.761 121.264 100.763L133.314 100.766L133.732 99.6976C134.282 98.292 147.272 79.7912 149.083 77.833C150.612 76.1814 153.386 75.1114 152.891 76.3646C152.742 76.743 150.524 79.695 147.963 82.9242L143.306 88.7956L143.361 96.7866L143.415 104.777H122.141H100.867L100.57 109.122C100.408 111.512 100.273 116.425 100.272 120.041L100.27 126.614H114.043C125.623 126.614 127.857 126.512 128.071 125.971C128.21 125.617 128.15 124.263 127.938 122.963L127.551 120.598L117.235 120.345C111.562 120.206 106.838 120.055 106.737 120.011C106.5 119.905 107.034 111.871 107.295 111.617C107.405 111.51 117.438 111.299 129.59 111.147L151.684 110.872L151.444 108.604C151.312 107.357 151.095 103.128 150.962 99.2065C150.751 92.9656 150.82 91.9009 151.522 90.6727C151.964 89.9008 154.792 86.4916 157.808 83.0966C160.823 79.7017 163.372 76.8236 163.471 76.7011C163.569 76.5785 164.198 77.0982 164.867 77.8558C165.536 78.6138 168.663 82.1184 171.817 85.6449L177.55 92.056V99.6419C177.55 103.815 177.38 108.381 177.173 109.791L176.796 112.353L193.913 112.412C203.327 112.444 213.403 112.594 216.304 112.746L221.578 113.022L221.711 117.144C221.783 119.411 221.783 121.303 221.711 121.348C221.638 121.392 216.935 121.543 211.259 121.682L200.94 121.935L200.641 124.609C200.477 126.079 200.442 127.383 200.564 127.505C200.686 127.628 206.97 127.789 214.527 127.864L228.27 128L228.134 117.168L227.999 106.337L206.532 106.221L185.065 106.105L185.149 98.0732L185.232 90.0408L180.359 83.8431C177.679 80.4343 175.486 77.5331 175.486 77.3963C175.486 76.7185 177.786 77.2737 178.814 78.1994C180.311 79.5479 194.748 100.176 194.748 100.967C194.748 101.294 195.091 101.69 195.511 101.847C195.931 102.003 202.845 101.993 210.875 101.824L225.477 101.516V100.508C225.477 99.9534 225.789 95.7603 226.17 91.1901C226.552 86.6199 226.699 82.5939 226.497 82.2436C226.203 81.7325 224.34 81.581 217.047 81.4758C209.041 81.3599 207.912 81.2539 207.525 80.5827C207.283 80.1633 206.921 79.8206 206.719 79.8206C206.235 79.8206 205.677 88.2408 206.043 90.0203C206.301 91.2734 206.49 91.4049 207.991 91.3817C208.906 91.3679 210.479 91.2142 211.486 91.0404C213.288 90.7297 213.316 90.6959 213.166 88.9997C212.976 86.8597 213.472 86.521 216.81 86.5121L219.379 86.5054L219.69 90.8001C219.861 93.1621 219.888 95.205 219.749 95.3396C219.448 95.6319 199.697 96.75 199.277 96.4983C198.872 96.2549 186.952 78.2595 186.952 77.8914C186.952 77.727 187.88 77.5924 189.015 77.5924C190.544 77.5924 191.079 77.7657 191.079 78.2609C191.079 78.6285 191.389 78.9293 191.767 78.9293C192.146 78.9293 192.455 78.596 192.455 78.1887C192.455 77.5064 193.761 77.4707 208.966 77.7354C222.953 77.9792 225.477 77.9275 225.477 77.3994C225.477 77.0563 225.681 76.7086 225.93 76.6266C226.209 76.5353 226.475 71.1598 226.621 62.6631C226.751 55.0647 226.962 42.9318 227.088 35.7011L227.318 22.5544L217.364 22.6649C211.888 22.7256 207.269 22.9261 207.097 23.1106C206.926 23.2951 206.673 31.5272 206.536 41.4046L206.286 59.363L208.742 59.2306L211.199 59.0978L211.47 45.0598C211.619 37.3389 211.855 30.4705 211.995 29.7963L212.249 28.5707H216.303C218.533 28.5707 220.699 28.6982 221.117 28.8542C221.811 29.1126 221.854 30.3221 221.604 42.5579C221.454 49.9393 221.209 59.4374 221.061 63.6658L220.792 71.3533H206.404H192.015L192.28 57.8723L192.544 44.3913L195.501 41.5392C197.128 39.97 198.655 38.3305 198.895 37.8946C199.135 37.4592 199.86 30.6212 200.507 22.6984C201.153 14.7756 201.838 8.14072 202.028 7.95399C202.352 7.6349 218.159 8.3622 219.4 8.75349C219.716 8.85287 219.973 9.56279 219.973 10.3306V11.7278L212.401 11.5704C206.234 11.4425 204.871 11.5232 205.063 12.0067C205.191 12.333 205.297 13.8072 205.297 15.2827V17.9655L208.393 17.7102C210.095 17.5698 214.728 17.3283 218.688 17.1736L225.887 16.892L226.026 10.8886C226.151 5.50602 226.077 4.80769 225.315 4.13832C224.599 3.50995 222.922 3.34684 214.766 3.11065C209.432 2.95601 203.087 2.75591 200.665 2.66589C195.197 2.46223 194.748 2.73051 194.748 6.20436C194.748 9.16705 193.486 30.6225 193.145 33.4524C192.929 35.2412 192.442 35.9097 188.209 40.2174C185.626 42.8467 181.988 46.616 180.126 48.5938C177.122 51.7838 175.027 53.0847 175.027 51.7597C175.027 51.5231 176.481 49.7289 178.258 47.7729L181.488 44.2162L181.231 37.8416C181.089 34.3357 180.871 24.9498 180.745 16.9838C180.62 9.01776 180.406 2.15963 180.271 1.74294C180.136 1.3267 179.674 0.890858 179.246 0.774989C178.817 0.65912 172.998 0.437184 166.313 0.282097L154.159 0L151.807 3.70114ZM191.077 54.5299C191.076 59.0029 190.941 64.6181 190.778 67.0082L190.482 71.3533H188.648H186.814L187.107 66.5625C187.268 63.9278 187.531 58.8639 187.692 55.3098C187.97 49.1848 188.046 48.7841 189.159 47.6223C189.805 46.9485 190.501 46.3968 190.706 46.3968C190.911 46.3968 191.078 50.0569 191.077 54.5299ZM142.626 49.4481C143.768 50.6064 143.915 51.1595 144.31 55.7987C144.548 58.5938 144.746 62.9362 144.75 65.4484L144.757 70.0163H143.39C141.655 70.0163 141.668 70.0814 141.33 59.7663C141.182 55.2318 140.941 50.77 140.795 49.8506C140.477 47.85 140.948 47.7467 142.626 49.4481ZM186.314 58.7636C186.139 63.1141 185.872 67.7368 185.72 69.0363C185.477 71.1157 185.328 71.3822 184.478 71.2646C183.566 71.138 183.504 70.8287 183.367 65.7826C183.157 58.0185 183.618 53.3538 184.732 51.9777C186.499 49.7944 186.647 50.429 186.314 58.7636ZM146.381 53.4158C146.571 53.845 146.817 57.3041 146.927 61.1033C147.096 66.8789 147.012 68.157 146.416 68.9022C145.76 69.7231 145.702 69.3853 145.689 64.6244C145.681 61.7811 145.541 57.9209 145.378 56.0456C145.182 53.7977 145.244 52.6359 145.558 52.6359C145.82 52.6359 146.19 52.9866 146.381 53.4158ZM148.885 60.9068C148.885 64.0089 148.705 66.0054 148.426 66.0054C148.146 66.0054 147.968 63.9171 147.968 60.6313C147.968 57.1619 148.13 55.3548 148.426 55.5326C148.689 55.6904 148.885 57.9882 148.885 60.9068ZM182.193 56.7025C182.035 57.4685 181.902 60.7271 181.896 63.9443L181.886 69.7935L181.007 68.682C180.216 67.6802 180.155 67.0416 180.392 62.2201C180.654 56.9075 181.021 55.3098 181.98 55.3098C182.295 55.3098 182.374 55.8241 182.193 56.7025ZM152.554 59.9891C152.554 60.3278 152.348 60.7289 152.095 60.8804C151.834 61.0373 151.637 60.6536 151.637 59.9891C151.637 59.3247 151.834 58.941 152.095 59.0978C152.348 59.2494 152.554 59.6505 152.554 59.9891ZM177.434 62.9536C177.196 63.1845 176.769 62.8828 176.41 62.2308C175.868 61.2459 175.899 60.9985 176.672 60.1638L177.55 59.2159L177.695 60.8867C177.776 61.8056 177.658 62.7357 177.434 62.9536Z" fill="#AD5038"/>
<path d="M418.018 101.648H408.445V22.3516H418.018V101.648Z" fill="#262A33"/>
<path d="M391.281 101.648H374.969V22.3516H390.658C400.23 22.3516 404.252 26.9395 404.252 37.0215V47.5C404.252 54.8066 401.08 58.375 395.812 59.5645V60.584C402.156 61.7734 405.328 65.5684 405.328 73.9512V86.2988C405.328 96.834 400.91 101.648 391.281 101.648ZM384.541 29.9414V56.6191H388.732C393.207 56.6191 394.906 54.5234 394.906 49.2559V37.418C394.906 32.0371 393.32 29.9414 388.846 29.9414H384.541ZM384.541 63.8691V94.002H389.242C393.604 94.002 395.529 91.7363 395.529 86.0723V72.1387C395.529 65.9648 393.49 63.8691 389.072 63.8691H384.541Z" fill="#262A33"/>
<path d="M357.805 101.648H341.492V22.3516H357.182C366.754 22.3516 370.775 26.9395 370.775 37.0215V47.5C370.775 54.8066 367.604 58.375 362.336 59.5645V60.584C368.68 61.7734 371.852 65.5684 371.852 73.9512V86.2988C371.852 96.834 367.434 101.648 357.805 101.648ZM351.064 29.9414V56.6191H355.256C359.73 56.6191 361.43 54.5234 361.43 49.2559V37.418C361.43 32.0371 359.844 29.9414 355.369 29.9414H351.064ZM351.064 63.8691V94.002H355.766C360.127 94.002 362.053 91.7363 362.053 86.0723V72.1387C362.053 65.9648 360.014 63.8691 355.596 63.8691H351.064Z" fill="#262A33"/>
<path d="M314.701 101.648H305.355L316.344 22.3516H328.465L339.68 101.648H329.768L327.955 87.2051H316.514L314.701 101.648ZM319.855 58.7148L317.363 80.1816H327.049L324.557 58.7148C323.82 52.0312 323.311 46.0273 322.801 36.5117H321.611C321.158 46.0273 320.592 52.0312 319.855 58.7148Z" fill="#262A33"/>
<path d="M283.092 101.648H273.52V22.3516H288.133C298.385 22.3516 303.369 27.5625 303.369 38.2109V46.1406C303.369 54.1836 300.084 58.7148 293.627 59.9043V60.8105C298.555 62 300.707 64.4922 301.557 74.5176L302.406 84.4863C303.312 94.5117 304.105 98.6465 305.918 100.516L305.691 101.648H295.213C294.08 98.25 293.57 94.2285 292.891 84.7129L292.268 75.1973C291.588 65.7383 290.059 63.9824 285.754 63.9824H283.092V101.648ZM283.092 29.998V56.5059H287.113C291.701 56.5059 293.797 54.0703 293.797 48.4629V38.0977C293.797 32.3203 291.701 29.998 287.113 29.998H283.092Z" fill="#262A33"/>
<path d="M249.842 101.648H240.27V22.3516H249.842V35.3223C249.842 42.459 249.502 48.0664 248.312 57.2422L249.332 57.4688L261.963 22.3516H271.479L260.49 50.7285L271.705 101.648H261.68L253.977 60.6406L249.842 69.9863V101.648Z" fill="#262A33"/>
</svg>
