<svg width="419" height="128" viewBox="0 0 419 128" fill="currentColor" xmlns="http://www.w3.org/2000/svg">
<path fill-rule="evenodd" clip-rule="evenodd" d="M51.5377 3.70114C47.5719 9.94204 47.8439 7.96736 48.275 27.4049L48.6593 44.7336L51.6042 48.0149C53.4291 50.0476 54.4505 51.5481 54.2886 51.9581C53.9025 52.9354 52.7128 52.1671 50.1563 49.2899C48.9602 47.9436 47.7434 46.8424 47.4522 46.8424C46.8464 46.8424 45.1173 45.112 45.2902 44.6788C45.353 44.5206 45.215 44.3913 44.9834 44.3913C44.7518 44.3913 43.7932 43.3886 42.8539 42.1631C41.9147 40.9375 39.8141 38.6063 38.1855 36.9828L35.225 34.0308L34.2885 18.2655C33.5959 6.60055 33.19 2.33031 32.7273 1.84678C32.2521 1.34943 31.1977 1.22688 28.3198 1.33473C26.2394 1.41227 19.8681 1.61059 14.1617 1.77503C6.49381 1.99563 3.59157 2.23093 3.03983 2.67569C2.41609 3.17839 2.29317 4.2894 2.29317 9.41751V15.5573L7.91145 15.8371C11.0013 15.9913 15.6968 16.162 18.3454 16.2164L23.1611 16.3153L23.2941 13.1957L23.4266 10.0762L15.8413 10.2259L8.25543 10.3757V9.00885C8.25543 7.95265 8.48979 7.59301 9.28736 7.42589C11.3934 6.98514 25.9262 6.37282 26.2871 6.71017C26.4926 6.90225 27.1613 13.3535 27.7726 21.0463C28.384 28.7387 28.9839 35.4462 29.1059 35.952C29.2274 36.4579 31.4321 38.8929 34.005 41.3631L38.6827 45.8549L39.2734 50.0253C39.5981 52.319 40.0067 57.7551 40.1815 62.106L40.4998 70.0163L26.0973 70.0212C18.1762 70.0239 10.9728 70.1313 10.09 70.2601C9.2071 70.3889 8.23938 70.3323 7.93989 70.1344C7.54317 69.8728 7.27028 64.0798 6.93823 48.8461C6.6869 37.3358 6.55802 27.843 6.65204 27.7521C6.7456 27.6607 8.95806 27.4802 11.5686 27.351C15.9843 27.1317 16.3178 27.174 16.3623 27.9544C16.3884 28.4161 16.5535 35.3112 16.7287 43.2772L17.0475 57.7609L18.1129 58.1187C19.3342 58.5287 22.2878 57.8817 22.1553 57.2332C22.1067 56.9948 21.9195 48.9365 21.7398 39.3261C21.5595 29.7156 21.2756 21.7701 21.1087 21.6698C20.9417 21.5695 16.3962 21.4541 11.0077 21.4136L1.21034 21.3396L1.2484 26.1807C1.42452 48.4887 2.02808 75.3641 2.35326 75.3641C2.57248 75.3641 2.75181 75.6681 2.75181 76.0397C2.75181 76.6378 5.00463 76.6806 22.3465 76.4114L41.9408 76.1079L41.0602 77.407C40.5759 78.1218 37.7191 82.4166 34.7118 86.9511C31.7045 91.4856 29.1972 95.2482 29.1398 95.3124C29.083 95.3766 24.4567 95.1889 18.86 94.8957L8.6838 94.3627L8.81359 89.8768L8.94338 85.3913L10.5179 85.2456C11.3838 85.1653 12.7767 85.2246 13.6137 85.377C15.0579 85.6404 15.135 85.7523 15.135 87.5812C15.135 89.4619 15.1762 89.5149 16.8548 89.7845C19.924 90.2774 21.8957 90.1228 22.1947 89.3656C22.5548 88.4542 22.5451 84.2544 22.1759 81.269C21.8929 78.9797 21.0454 78.1481 20.4726 79.5978C20.2501 80.1611 18.771 80.2663 11.0751 80.2663C0.51046 80.2663 1.32958 79.8095 1.88728 85.3913C2.08312 87.3521 2.38536 91.4869 2.55872 94.5797L2.87473 100.203L5.90905 100.481C7.57803 100.635 14.3663 100.761 20.994 100.763L33.0447 100.766L33.4625 99.6976C34.0124 98.292 47.0023 79.7912 48.8139 77.833C50.3421 76.1814 53.1168 75.1114 52.6219 76.3646C52.4724 76.743 50.2545 79.695 47.6935 82.9242L43.0365 88.7956L43.0911 96.7866L43.1452 104.777H21.8714H0.597142L0.300864 109.122C0.138048 111.512 0.00366997 116.425 0.00229407 120.041L0 126.614H13.7733C25.3533 126.614 27.5874 126.512 27.8011 125.971C27.9405 125.617 27.8809 124.263 27.6685 122.963L27.2814 120.598L16.9658 120.345C11.2925 120.206 6.56811 120.055 6.46767 120.011C6.2301 119.905 6.76441 111.871 7.02583 111.617C7.1359 111.51 17.1681 111.299 29.3201 111.147L51.4144 110.872L51.1745 108.604C51.0424 107.357 50.8255 103.128 50.6925 99.2065C50.481 92.9656 50.5508 91.9009 51.2529 90.6727C51.6941 89.9008 54.5225 86.4916 57.5381 83.0966C60.5536 79.7017 63.1022 76.8236 63.2013 76.7011C63.2999 76.5785 63.9287 77.0982 64.5978 77.8558C65.2665 78.6138 68.3939 82.1184 71.5471 85.6449L77.28 92.056V99.6419C77.28 103.815 77.1103 108.381 76.903 109.791L76.526 112.353L93.6432 112.412C103.058 112.444 113.134 112.594 116.035 112.746L121.309 113.022L121.441 117.144C121.514 119.411 121.514 121.303 121.441 121.348C121.368 121.392 116.665 121.543 110.99 121.682L100.67 121.935L100.371 124.609C100.207 126.079 100.172 127.383 100.294 127.505C100.416 127.628 106.7 127.789 114.258 127.864L128 128L127.865 117.168L127.73 106.337L106.263 106.221L84.7952 106.105L84.8791 98.0732L84.9626 90.0408L80.0896 83.8431C77.4093 80.4343 75.2162 77.5331 75.2162 77.3963C75.2162 76.7185 77.5162 77.2737 78.5445 78.1994C80.0419 79.5479 94.4788 100.176 94.4788 100.967C94.4788 101.294 94.8219 101.69 95.2415 101.847C95.6612 102.003 102.575 101.993 110.606 101.824L125.207 101.516V100.508C125.207 99.9534 125.52 95.7603 125.901 91.1901C126.282 86.6199 126.43 82.5939 126.228 82.2436C125.933 81.7325 124.071 81.581 116.778 81.4758C108.772 81.3599 107.642 81.2539 107.255 80.5827C107.014 80.1633 106.651 79.8206 106.45 79.8206C105.965 79.8206 105.408 88.2408 105.774 90.0203C106.032 91.2734 106.22 91.4049 107.722 91.3817C108.636 91.3679 110.209 91.2142 111.217 91.0404C113.019 90.7297 113.047 90.6959 112.896 88.9997C112.706 86.8597 113.202 86.521 116.54 86.5121L119.11 86.5054L119.42 90.8001C119.591 93.1621 119.618 95.205 119.479 95.3396C119.178 95.6319 99.4275 96.75 99.0078 96.4983C98.6029 96.2549 86.682 78.2595 86.682 77.8914C86.682 77.727 87.6108 77.5924 88.7459 77.5924C90.2745 77.5924 90.8097 77.7657 90.8097 78.2609C90.8097 78.6285 91.1193 78.9293 91.4977 78.9293C91.8761 78.9293 92.1856 78.596 92.1856 78.1887C92.1856 77.5064 93.4918 77.4707 108.697 77.7354C122.683 77.9792 125.207 77.9275 125.207 77.3994C125.207 77.0563 125.411 76.7086 125.661 76.6266C125.94 76.5353 126.205 71.1598 126.351 62.6631C126.482 55.0647 126.692 42.9318 126.819 35.7011L127.049 22.5544L117.094 22.6649C111.619 22.7256 106.999 22.9261 106.828 23.1106C106.656 23.2951 106.404 31.5272 106.266 41.4046L106.017 59.363L108.473 59.2306L110.929 59.0978L111.2 45.0598C111.35 37.3389 111.586 30.4705 111.726 29.7963L111.98 28.5707H116.034C118.263 28.5707 120.43 28.6982 120.848 28.8542C121.541 29.1126 121.584 30.3221 121.335 42.5579C121.184 49.9393 120.94 59.4374 120.792 63.6658L120.522 71.3533H106.134H91.7454L92.01 57.8723L92.2746 44.3913L95.2319 41.5392C96.8587 39.97 98.3859 38.3305 98.6253 37.8946C98.8652 37.4592 99.5908 30.6212 100.237 22.6984C100.884 14.7756 101.568 8.14072 101.758 7.95399C102.082 7.6349 117.89 8.3622 119.13 8.75349C119.446 8.85287 119.704 9.56279 119.704 10.3306V11.7278L112.131 11.5704C105.964 11.4425 104.602 11.5232 104.793 12.0067C104.922 12.333 105.027 13.8072 105.027 15.2827V17.9655L108.123 17.7102C109.826 17.5698 114.459 17.3283 118.418 17.1736L125.617 16.892L125.756 10.8886C125.881 5.50602 125.807 4.80769 125.045 4.13832C124.33 3.50995 122.652 3.34684 114.496 3.11065C109.162 2.95601 102.817 2.75591 100.396 2.66589C94.9278 2.46223 94.4788 2.73051 94.4788 6.20436C94.4788 9.16705 93.2162 30.6225 92.8754 33.4524C92.6599 35.2412 92.1723 35.9097 87.9391 40.2174C85.3561 42.8467 81.7182 46.616 79.8562 48.5938C76.8521 51.7838 74.7575 53.0847 74.7575 51.7597C74.7575 51.5231 76.2114 49.7289 77.9881 47.7729L81.2188 44.2162L80.9615 37.8416C80.8197 34.3357 80.6014 24.9498 80.4758 16.9838C80.3506 9.01776 80.1368 2.15963 80.0015 1.74294C79.8662 1.3267 79.4049 0.890858 78.9765 0.774989C78.5477 0.65912 72.728 0.437184 66.0434 0.282097L53.8896 0L51.5377 3.70114ZM90.8074 54.5299C90.8061 59.0029 90.6717 64.6181 90.5089 67.0082L90.2126 71.3533H88.3785H86.544L86.837 66.5625C86.998 63.9278 87.2617 58.8639 87.4227 55.3098C87.7006 49.1848 87.7768 48.7841 88.8899 47.6223C89.5357 46.9485 90.2319 46.3968 90.4369 46.3968C90.6419 46.3968 90.8088 50.0569 90.8074 54.5299ZM42.3563 49.4481C43.4988 50.6064 43.6451 51.1595 44.04 55.7987C44.278 58.5938 44.4761 62.9362 44.4803 65.4484L44.4876 70.0163H43.1204C41.3854 70.0163 41.3982 70.0814 41.0607 59.7663C40.9121 55.2318 40.6713 50.77 40.525 49.8506C40.2072 47.85 40.6786 47.7467 42.3563 49.4481ZM86.0441 58.7636C85.8698 63.1141 85.6024 67.7368 85.4506 69.0363C85.2075 71.1157 85.0589 71.3822 84.2082 71.2646C83.2968 71.138 83.234 70.8287 83.0973 65.7826C82.8873 58.0185 83.3487 53.3538 84.4622 51.9777C86.2298 49.7944 86.3779 50.429 86.0441 58.7636ZM46.1112 53.4158C46.301 53.845 46.5473 57.3041 46.6579 61.1033C46.8262 66.8789 46.7422 68.157 46.1465 68.9022C45.4902 69.7231 45.4328 69.3853 45.4195 64.6244C45.4113 61.7811 45.2714 57.9209 45.1081 56.0456C44.9127 53.7977 44.9742 52.6359 45.2884 52.6359C45.5507 52.6359 45.9208 52.9866 46.1112 53.4158ZM48.6153 60.9068C48.6153 64.0089 48.4355 66.0054 48.1567 66.0054C47.8765 66.0054 47.698 63.9171 47.698 60.6313C47.698 57.1619 47.8604 55.3548 48.1567 55.5326C48.419 55.6904 48.6153 57.9882 48.6153 60.9068ZM81.9237 56.7025C81.7659 57.4685 81.6324 60.7271 81.6269 63.9443L81.6169 69.7935L80.7377 68.682C79.9461 67.6802 79.8851 67.0416 80.1226 62.2201C80.384 56.9075 80.7514 55.3098 81.7104 55.3098C82.0255 55.3098 82.1044 55.8241 81.9237 56.7025ZM52.2844 59.9891C52.2844 60.3278 52.078 60.7289 51.8258 60.8804C51.5648 61.0373 51.3671 60.6536 51.3671 59.9891C51.3671 59.3247 51.5648 58.941 51.8258 59.0978C52.078 59.2494 52.2844 59.6505 52.2844 59.9891ZM77.1644 62.9536C76.9269 63.1845 76.4999 62.8828 76.1408 62.2308C75.5982 61.2459 75.6298 60.9985 76.4022 60.1638L77.28 59.2159L77.4259 60.8867C77.5061 61.8056 77.3887 62.7357 77.1644 62.9536Z" fill="currentColor"/>
<path d="M195.523 20.7402C206.398 20.7402 211.779 27.0273 211.779 39.5449V83.1582C211.779 95.6758 206.398 101.963 195.523 101.963C184.705 101.963 179.324 95.6758 179.324 83.1582V39.5449C179.324 27.0273 184.705 20.7402 195.523 20.7402ZM157.572 34.6738C157.572 41.8105 157.232 47.418 156.043 56.5938L157.062 56.8203L169.693 21.7031H179.209L168.221 50.0801L179.436 101H169.41L161.707 59.9922L157.572 69.3379V101H148V21.7031H157.572V34.6738ZM225.318 93.0703H238.289V101H215.746V21.7031H225.318V93.0703ZM250.299 34.6738C250.299 41.8105 249.959 47.418 248.77 56.5938L249.789 56.8203L262.42 21.7031H271.936L260.947 50.0801L272.162 101H262.137L254.434 59.9922L250.299 69.3379V101H240.727V21.7031H250.299V34.6738ZM288.59 21.7031C298.842 21.7031 303.826 26.9141 303.826 37.5625V45.4922C303.826 53.5352 300.541 58.0664 294.084 59.2559V60.1621C299.012 61.3516 301.164 63.8438 302.014 73.8691L302.863 83.8379C303.709 93.1926 304.457 97.4179 306.025 99.46L316.801 21.7031H328.922L340.137 101H330.225L328.412 86.5566H316.971L315.158 101H295.67C294.537 97.6016 294.027 93.5801 293.348 84.0645L292.725 74.5488C292.045 65.0898 290.516 63.334 286.211 63.334H283.549V101H273.977V21.7031H288.59ZM357.639 21.7031C367.211 21.7031 371.232 26.291 371.232 36.373V46.8516C371.232 54.1582 368.061 57.7266 362.793 58.916V59.9355C369.137 61.125 372.309 64.9199 372.309 73.3027V85.6504C372.309 96.1855 367.891 101 358.262 101H341.949V21.7031H357.639ZM391.119 21.7031C400.691 21.7031 404.713 26.291 404.713 36.373V46.8516C404.713 54.1582 401.541 57.7266 396.273 58.916V59.9355C402.617 61.125 405.789 64.9199 405.789 73.3027V85.6504C405.789 96.1855 401.371 101 391.742 101H375.43V21.7031H391.119ZM418.479 101H408.906V21.7031H418.479V101ZM195.58 28.2168C191.105 28.2168 188.953 31.6719 188.953 38.8086V84.0645C188.953 91.0312 191.105 94.4297 195.58 94.4297C199.998 94.4297 202.15 91.0312 202.15 84.0645V38.8086C202.15 31.6719 199.998 28.2168 195.58 28.2168ZM351.521 93.3535H356.223C360.584 93.3535 362.51 91.0879 362.51 85.4238V71.4902C362.51 65.3164 360.471 63.2207 356.053 63.2207H351.521V93.3535ZM385.002 93.3535H389.703C394.064 93.3535 395.99 91.0879 395.99 85.4238V71.4902C395.99 65.3164 393.951 63.2207 389.533 63.2207H385.002V93.3535ZM322.068 35.8633C321.615 45.3789 321.049 51.3828 320.312 58.0664L317.82 79.5332H327.506L325.014 58.0664C324.277 51.3828 323.768 45.3789 323.258 35.8633H322.068ZM351.521 55.9707H355.713C360.188 55.9707 361.887 53.875 361.887 48.6074V36.7695C361.887 31.3887 360.301 29.293 355.826 29.293H351.521V55.9707ZM385.002 55.9707H389.193C393.668 55.9707 395.367 53.875 395.367 48.6074V36.7695C395.367 31.3887 393.781 29.293 389.307 29.293H385.002V55.9707ZM283.549 55.8574H287.57C292.158 55.8574 294.254 53.4219 294.254 47.8145V37.4492C294.254 31.6719 292.158 29.3496 287.57 29.3496H283.549V55.8574Z" fill="currentColor"/>
</svg>
