<svg width="32" height="32" viewBox="0 0 32 32" fill="currentColor" xmlns="http://www.w3.org/2000/svg">
<path fill-rule="evenodd" clip-rule="evenodd" d="M12.8844 0.925284C11.893 2.48551 11.961 1.99184 12.0688 6.85122L12.1648 11.1834L12.9011 12.0037C13.3573 12.5119 13.6126 12.887 13.5722 12.9895C13.4756 13.2338 13.1782 13.0418 12.5391 12.3225C12.2401 11.9859 11.9359 11.7106 11.8631 11.7106C11.7116 11.7106 11.2793 11.278 11.3226 11.1697C11.3383 11.1301 11.3037 11.0978 11.2458 11.0978C11.1879 11.0978 10.9483 10.8472 10.7135 10.5408C10.4787 10.2344 9.95353 9.65159 9.54637 9.24571L8.80625 8.50771L8.57212 4.56637C8.39898 1.65014 8.29751 0.582578 8.18182 0.461695C8.06303 0.337358 7.79943 0.30672 7.07995 0.333681C6.55986 0.353067 4.96702 0.402646 3.54043 0.443758C1.62345 0.498907 0.897892 0.557733 0.759958 0.668923C0.604022 0.794597 0.573294 1.07235 0.573294 2.35438V3.88931L1.97786 3.95928C2.75032 3.99783 3.9242 4.0405 4.58635 4.05409L5.79027 4.07882L5.82352 3.29894L5.85665 2.51905L3.96031 2.55648L2.06386 2.59391V2.25221C2.06386 1.98816 2.12245 1.89825 2.32184 1.85647C2.84835 1.74629 6.48155 1.5932 6.57178 1.67754C6.62315 1.72556 6.79032 3.33837 6.94316 5.26158C7.096 7.18468 7.24597 8.86156 7.27647 8.98801C7.30686 9.11446 7.85802 9.72322 8.50126 10.3408L9.67066 11.4637L9.81834 12.5063C9.89952 13.0798 10.0017 14.4388 10.0454 15.5265L10.1249 17.5041L6.52431 17.5053C4.54404 17.506 2.74321 17.5328 2.52249 17.565C2.30177 17.5972 2.05984 17.5831 1.98497 17.5336C1.88579 17.4682 1.81757 16.0199 1.73456 12.2115C1.67172 9.33395 1.63951 6.96074 1.66301 6.93801C1.6864 6.91517 2.23951 6.87005 2.89215 6.83774C3.99609 6.78293 4.07944 6.79351 4.09057 6.9886C4.0971 7.10402 4.13838 8.8278 4.18218 10.8193L4.26187 14.4402L4.52822 14.5297C4.83355 14.6322 5.57196 14.4704 5.53882 14.3083C5.52667 14.2487 5.47989 12.2341 5.43494 9.83152C5.38988 7.4289 5.31891 5.44252 5.27717 5.41745C5.23543 5.39238 4.09905 5.36353 2.75192 5.35339L0.302584 5.33489L0.312101 6.54517C0.35613 12.1222 0.507021 18.841 0.588314 18.841C0.643121 18.841 0.687953 18.917 0.687953 19.0099C0.687953 19.1595 1.25116 19.1701 5.58663 19.1029L10.4852 19.027L10.2651 19.3517C10.144 19.5305 9.42977 20.6041 8.67795 21.7378C7.92613 22.8714 7.29929 23.8121 7.28496 23.8281C7.27074 23.8441 6.11418 23.7972 4.715 23.7239L2.17095 23.5907L2.2034 22.4692L2.23585 21.3478L2.62947 21.3114C2.84594 21.2913 3.19416 21.3062 3.40342 21.3443C3.76448 21.4101 3.78374 21.4381 3.78374 21.8953C3.78374 22.3655 3.79406 22.3787 4.21371 22.4461C4.98101 22.5694 5.47392 22.5307 5.54868 22.3414C5.63869 22.1136 5.63628 21.0636 5.54398 20.3173C5.47324 19.7449 5.26135 19.537 5.11814 19.8995C5.06253 20.0403 4.69275 20.0666 2.76878 20.0666C0.127615 20.0666 0.332396 19.9524 0.471821 21.3478C0.52078 21.838 0.59634 22.8717 0.639681 23.6449L0.718681 25.0507L1.47726 25.1204C1.89451 25.1587 3.59157 25.1903 5.2485 25.1908L8.26116 25.1916L8.36562 24.9244C8.50309 24.573 11.7506 19.9478 12.2035 19.4583C12.5855 19.0454 13.2792 18.7779 13.1555 19.0912C13.1181 19.1857 12.5636 19.9237 11.9234 20.731L10.7591 22.1989L10.7728 24.1966L10.7863 26.1943H5.46785H0.149285L0.075216 27.2806C0.0345121 27.8781 0.000917494 29.1063 0.000573517 30.0102L0 31.6535H3.44332C6.33834 31.6535 6.89684 31.6279 6.95027 31.4927C6.98513 31.4043 6.97022 31.0658 6.91713 30.7407L6.82036 30.1494L4.24146 30.0863C2.82313 30.0515 1.64203 30.0138 1.61692 30.0027C1.55752 29.9762 1.6911 27.9677 1.75646 27.9041C1.78398 27.8775 4.29202 27.8247 7.33002 27.7868L12.8536 27.7181L12.7936 27.1511C12.7606 26.8394 12.7064 25.7821 12.6731 24.8016C12.6203 23.2414 12.6377 22.9752 12.8132 22.6682C12.9235 22.4752 13.6306 21.6229 14.3845 20.7742C15.1384 19.9254 15.7756 19.2059 15.8003 19.1753C15.825 19.1446 15.9822 19.2745 16.1495 19.4639C16.3166 19.6535 17.0985 20.5296 17.8868 21.4112L19.32 23.014V24.9105C19.32 25.9536 19.2776 27.0953 19.2258 27.4477L19.1315 28.0883L23.4108 28.103C25.7644 28.111 28.2835 28.1486 29.0087 28.1866L30.3272 28.2554L30.3603 29.286C30.3784 29.8529 30.3784 30.3257 30.3603 30.3369C30.342 30.3481 29.1663 30.3857 27.7474 30.4205L25.1676 30.4837L25.0928 31.1522C25.0518 31.5198 25.0431 31.8457 25.0736 31.8763C25.1041 31.907 26.675 31.9473 28.5645 31.966L32 32L31.9662 29.2921L31.9325 26.5842L26.5656 26.5553L21.1988 26.5263L21.2198 24.5183L21.2407 22.5102L20.0224 20.9608C19.3523 20.1086 18.804 19.3833 18.804 19.3491C18.804 19.1796 19.3791 19.3184 19.6361 19.5498C20.0105 19.887 23.6197 25.0439 23.6197 25.2417C23.6197 25.3236 23.7055 25.4225 23.8104 25.4616C23.9153 25.5007 25.6438 25.4982 27.6515 25.4559L31.3018 25.3791V25.1269C31.3018 24.9883 31.3799 23.9401 31.4752 22.7975C31.5706 21.655 31.6074 20.6485 31.557 20.5609C31.4833 20.4331 31.0177 20.3952 29.1944 20.3689C27.1929 20.34 26.9105 20.3135 26.8138 20.1457C26.7534 20.0408 26.6629 19.9552 26.6124 19.9552C26.4913 19.9552 26.3519 22.0602 26.4434 22.5051C26.508 22.8184 26.5551 22.8512 26.9305 22.8454C27.1591 22.842 27.5523 22.8035 27.8042 22.7601C28.2547 22.6824 28.2617 22.674 28.2241 22.2499C28.1766 21.7149 28.3005 21.6303 29.135 21.628L29.7775 21.6264L29.8551 22.7C29.8978 23.2905 29.9045 23.8012 29.8699 23.8349C29.7945 23.908 24.8569 24.1875 24.752 24.1246C24.6507 24.0637 21.6705 19.5649 21.6705 19.4729C21.6705 19.4317 21.9027 19.3981 22.1865 19.3981C22.5686 19.3981 22.7024 19.4414 22.7024 19.5652C22.7024 19.6571 22.7798 19.7323 22.8744 19.7323C22.969 19.7323 23.0464 19.649 23.0464 19.5472C23.0464 19.3766 23.373 19.3677 27.1741 19.4339C30.6708 19.4948 31.3018 19.4819 31.3018 19.3499C31.3018 19.2641 31.3529 19.1772 31.4152 19.1567C31.485 19.1338 31.5513 17.79 31.5878 15.6658C31.6205 13.7662 31.673 10.733 31.7046 8.92529L31.7622 5.63861L29.2735 5.66624C27.9047 5.68139 26.7498 5.73152 26.7069 5.77765C26.6641 5.82377 26.6009 7.88179 26.5665 10.3511L26.5042 14.8408L27.1182 14.8077L27.7323 14.7745L27.8 11.265C27.8374 9.33473 27.8965 7.61763 27.9314 7.44907L27.995 7.14268H29.0084C29.5658 7.14268 30.1074 7.17454 30.2119 7.21354C30.3853 7.27816 30.396 7.58053 30.3337 10.6395C30.2961 12.4848 30.2349 14.8594 30.1979 15.9164L30.1306 17.8383H26.5335H22.9363L23.0025 14.4681L23.0687 11.0978L23.808 10.3848C24.2147 9.99251 24.5965 9.58262 24.6563 9.47366C24.7163 9.36481 24.8977 7.65529 25.0594 5.67459C25.2209 3.69389 25.3921 2.03518 25.4396 1.9885C25.5205 1.90873 29.4725 2.09055 29.7826 2.18837C29.8615 2.21322 29.9259 2.3907 29.9259 2.58266V2.93194L28.0328 2.89261C26.4911 2.86064 26.1505 2.8808 26.1983 3.00169C26.2305 3.08324 26.2569 3.45179 26.2569 3.82068V4.49139L27.0308 4.42755C27.4564 4.39245 28.6147 4.33207 29.6045 4.29341L31.4043 4.22299L31.4391 2.72215C31.4703 1.37651 31.4518 1.20192 31.2612 1.03458C31.0824 0.877488 30.6631 0.836711 28.6241 0.777662C27.2906 0.739002 25.7043 0.688977 25.0989 0.666472C23.732 0.615556 23.6197 0.682626 23.6197 1.55109C23.6197 2.29176 23.3041 7.65562 23.2189 8.3631C23.165 8.81031 23.0431 8.97743 21.9848 10.0543C21.339 10.7117 20.4296 11.654 19.964 12.1485C19.213 12.946 18.6894 13.2712 18.6894 12.9399C18.6894 12.8808 19.0528 12.4322 19.497 11.9432L20.3047 11.0541L20.2404 9.4604C20.2049 8.58392 20.1504 6.23745 20.1189 4.24594C20.0876 2.25444 20.0342 0.539907 20.0004 0.435736C19.9666 0.331676 19.8512 0.222715 19.7441 0.193747C19.6369 0.16478 18.182 0.109296 16.5109 0.0705242L13.4724 0L12.8844 0.925284ZM22.7019 13.6325C22.7015 14.7507 22.6679 16.1545 22.6272 16.752L22.5532 17.8383H22.0946H21.636L21.7093 16.6406C21.7495 15.982 21.8154 14.716 21.8557 13.8275C21.9252 12.2962 21.9442 12.196 22.2225 11.9056C22.3839 11.7371 22.558 11.5992 22.6092 11.5992C22.6605 11.5992 22.7022 12.5142 22.7019 13.6325ZM10.5891 12.362C10.8747 12.6516 10.9113 12.7899 11.01 13.9497C11.0695 14.6485 11.119 15.7341 11.1201 16.3621L11.1219 17.5041H10.7801C10.3463 17.5041 10.3496 17.5203 10.2652 14.9416C10.228 13.808 10.1678 12.6925 10.1312 12.4626C10.0518 11.9625 10.1697 11.9367 10.5891 12.362ZM21.511 14.6909C21.4674 15.7785 21.4006 16.9342 21.3626 17.2591C21.3019 17.7789 21.2647 17.8456 21.052 17.8161C20.8242 17.7845 20.8085 17.7072 20.7743 16.4457C20.7218 14.5046 20.8372 13.3385 21.1156 12.9944C21.5575 12.4486 21.5945 12.6073 21.511 14.6909ZM11.5278 13.3539C11.5753 13.4612 11.6368 14.326 11.6645 15.2758C11.7065 16.7197 11.6856 17.0393 11.5366 17.2255C11.3725 17.4308 11.3582 17.3463 11.3549 16.1561C11.3528 15.4453 11.3179 14.4802 11.277 14.0114C11.2282 13.4494 11.2436 13.159 11.3221 13.159C11.3877 13.159 11.4802 13.2467 11.5278 13.3539ZM12.1538 15.2267C12.1538 16.0022 12.1089 16.5014 12.0392 16.5014C11.9691 16.5014 11.9245 15.9793 11.9245 15.1578C11.9245 14.2905 11.9651 13.8387 12.0392 13.8832C12.1048 13.9226 12.1538 14.497 12.1538 15.2267ZM20.4809 14.1756C20.4415 14.3671 20.4081 15.1818 20.4067 15.9861L20.4042 17.4484L20.1844 17.1705C19.9865 16.92 19.9713 16.7604 20.0307 15.555C20.096 14.2269 20.1879 13.8275 20.4276 13.8275C20.5064 13.8275 20.5261 13.956 20.4809 14.1756ZM13.0711 14.9973C13.0711 15.082 13.0195 15.1822 12.9564 15.2201C12.8912 15.2593 12.8418 15.1634 12.8418 14.9973C12.8418 14.8312 12.8912 14.7352 12.9564 14.7745C13.0195 14.8123 13.0711 14.9126 13.0711 14.9973ZM19.2911 15.7384C19.2317 15.7961 19.125 15.7207 19.0352 15.5577C18.8995 15.3115 18.9075 15.2496 19.1005 15.041L19.32 14.804L19.3565 15.2217C19.3765 15.4514 19.3472 15.6839 19.2911 15.7384Z" fill="currentColor"/>
</svg>
