<svg width="135" height="40" viewBox="0 0 135 40" fill="none" xmlns="http://www.w3.org/2000/svg">
<path fill-rule="evenodd" clip-rule="evenodd" d="M23.7197 0C29.1476 7.2857e-07 31.8332 3.09624 31.8332 9.26081V30.7392C31.8332 36.9038 29.1476 40 23.7197 40C18.3201 40 15.6344 36.9038 15.6344 30.7392V9.26081C15.6344 3.09624 18.3201 0 23.7197 0ZM23.748 3.68201C21.5146 3.68201 20.4403 5.38354 20.4403 8.89819V31.1855C20.4403 34.6165 21.5146 36.2901 23.748 36.2901C25.953 36.2901 27.0273 34.6165 27.0273 31.1855V8.89819C27.0273 5.38354 25.953 3.68201 23.748 3.68201Z" fill="currentColor"/>
<path d="M4.77767 6.86192C4.77767 10.3766 4.60804 13.1381 4.01437 17.6569L4.52323 17.7685L10.8275 0.474198H15.5769L10.0925 14.4491L15.69 39.5258H10.6861L6.84139 19.3305L4.77767 23.9331V39.5258H0V0.474198H4.77767V6.86192Z" fill="currentColor"/>
<path d="M38.5908 35.6206H45.0647V39.5258H33.8131V0.474198H38.5908V35.6206Z" fill="currentColor"/>
<path d="M51.0589 6.86192C51.0589 10.3766 50.8893 13.1381 50.2956 17.6569L50.8045 17.7685L57.1087 0.474198H61.8581L56.3737 14.4491L61.9712 39.5258H56.9674L53.1227 19.3305L51.0589 23.9331V39.5258H46.2813V0.474198H51.0589V6.86192Z" fill="currentColor"/>
<path fill-rule="evenodd" clip-rule="evenodd" d="M70.1706 0.474198C75.2875 0.4742 77.7752 3.04045 77.7752 8.28452V12.1897C77.7752 16.1506 76.1356 18.3821 72.9128 18.9679V19.4142C75.3723 20 76.4465 21.2273 76.8706 26.1646L77.2947 31.0739C77.7167 35.6804 78.0901 37.7611 78.8729 38.7669L84.2511 0.474198H90.3009L95.8984 39.5258H90.9511L90.0465 32.4128H84.3359L83.4312 39.5258H73.7043C73.1389 37.8522 72.8845 35.8717 72.5453 31.1855L72.2343 26.4993C71.895 21.841 71.1317 20.9763 68.9832 20.9763H67.6545V39.5258H62.8768V0.474198H70.1706ZM86.8802 7.4477C86.654 12.1339 86.3713 15.0907 86.0038 18.3821L84.7599 28.954H89.5941L88.3503 18.3821C87.9827 15.0907 87.7283 12.1339 87.4739 7.4477H86.8802ZM67.6545 17.2943H69.6617C71.9516 17.2943 72.9976 16.0948 72.9976 13.3333V8.22873C72.9976 5.38354 71.9516 4.23989 69.6617 4.23989H67.6545V17.2943Z" fill="currentColor"/>
<path fill-rule="evenodd" clip-rule="evenodd" d="M104.634 0.474198C109.412 0.474201 111.419 2.73362 111.419 7.69874V12.8591C111.419 16.4575 109.836 18.2148 107.206 18.8006V19.3027C110.373 19.8884 111.956 21.7573 111.956 25.8856V31.9665C111.956 37.1548 109.751 39.5258 104.945 39.5258H96.803V0.474198H104.634ZM101.581 35.7601H103.927C106.104 35.7601 107.065 34.6443 107.065 31.8549V24.993C107.065 21.9526 106.047 20.9205 103.842 20.9205H101.581V35.7601ZM101.581 17.3501H103.673C105.906 17.3501 106.754 16.318 106.754 13.7238V7.894C106.754 5.24408 105.963 4.212 103.729 4.21199H101.581V17.3501Z" fill="currentColor"/>
<path fill-rule="evenodd" clip-rule="evenodd" d="M121.345 0.474198C126.122 0.474201 128.129 2.73362 128.129 7.69874V12.8591C128.129 16.4575 126.546 18.2148 123.917 18.8006V19.3027C127.083 19.8884 128.667 21.7573 128.667 25.8856V31.9665C128.667 37.1548 126.461 39.5258 121.655 39.5258H113.514V0.474198H121.345ZM118.291 35.7601H120.638C122.815 35.7601 123.776 34.6443 123.776 31.8549V24.993C123.776 21.9526 122.758 20.9205 120.553 20.9205H118.291V35.7601ZM118.291 17.3501H120.383C122.617 17.3501 123.465 16.318 123.465 13.7238V7.894C123.465 5.24408 122.673 4.212 120.44 4.21199H118.291V17.3501Z" fill="currentColor"/>
<path d="M135 39.5258H130.222V0.474198H135V39.5258Z" fill="currentColor"/>
</svg>
