<svg width="1008" height="512" viewBox="0 0 1008 512" fill="none" xmlns="http://www.w3.org/2000/svg">
<g opacity="0.6">
<g clip-path="url(#clip0_3225_12033)">
<rect y="58" width="680" height="400" rx="16" fill="#142438"/>
<rect width="680" height="32" transform="translate(0 58)" fill="#0D1825"/>
<circle cx="28" cy="74" r="4" fill="#CF3232"/>
<circle cx="42" cy="74" r="4" fill="#FFCC00"/>
<circle cx="56" cy="74" r="4" fill="#28BB5A"/>
<rect width="680" height="368" transform="translate(0 90)" fill="#142438"/>
<path d="M8 102C8 99.7909 9.79086 98 12 98H32.8C35.0091 98 36.8 99.7909 36.8 102V446C36.8 448.209 35.0091 450 32.8 450H12C9.79086 450 8 448.209 8 446V102Z" fill="white" fill-opacity="0.02"/>
<rect opacity="0.4" x="16" y="149.199" width="12.8" height="12.8" rx="6.4" fill="white"/>
<rect opacity="0.4" x="16" y="174.799" width="12.8" height="12.8" rx="6.4" fill="white"/>
<rect opacity="0.4" x="16" y="200.398" width="12.8" height="12.8" rx="6.4" fill="white"/>
<rect opacity="0.4" x="16" y="226" width="12.8" height="12.8" rx="6.4" fill="white"/>
<rect x="32.7998" y="141.199" width="8" height="8" rx="4" fill="#FFCC00"/>
<g clip-path="url(#clip1_3225_12033)">
<rect x="44.7998" y="98" width="579.2" height="352" rx="4" fill="white" fill-opacity="0.02"/>
<rect width="579.2" height="20" transform="translate(44.7998 98)" fill="white" fill-opacity="0.04"/>
<path d="M58.1328 131.334H134.799" stroke="white" stroke-opacity="0.6" stroke-width="3.33333" stroke-linecap="round"/>
<path d="M58.1328 144.666H251.466" stroke="white" stroke-opacity="0.6" stroke-width="3.33333" stroke-linecap="round"/>
<mask id="path-14-inside-1_3225_12033" fill="white">
<path d="M44.7998 158H624V174.667H44.7998V158Z"/>
</mask>
<path d="M44.7998 158V158.833H624V158V157.167H44.7998V158ZM624 174.667V173.833H44.7998V174.667V175.5H624V174.667Z" fill="white" fill-opacity="0.2" mask="url(#path-14-inside-1_3225_12033)"/>
<path d="M71.4668 158L71.4668 174.667" stroke="white" stroke-opacity="0.2" stroke-width="0.833333"/>
<rect x="78.1338" y="163.834" width="53.3333" height="5" rx="1.66667" fill="white" fill-opacity="0.2"/>
<path d="M225.633 158L225.633 174.667" stroke="white" stroke-opacity="0.2" stroke-width="0.833333"/>
<rect x="232.3" y="163.834" width="60" height="5" rx="1.66667" fill="white" fill-opacity="0.2"/>
<path d="M298.966 158L298.966 174.667" stroke="white" stroke-opacity="0.2" stroke-width="0.833333"/>
<rect x="305.633" y="163.834" width="60" height="5" rx="1.66667" fill="white" fill-opacity="0.2"/>
<path d="M372.3 158L372.3 174.667" stroke="white" stroke-opacity="0.2" stroke-width="0.833333"/>
<path d="M401.467 158L401.467 174.667" stroke="white" stroke-opacity="0.2" stroke-width="0.833333"/>
<rect x="408.134" y="163.834" width="53.3333" height="5" rx="1.66667" fill="white" fill-opacity="0.2"/>
<path d="M597.333 158L597.333 174.667" stroke="white" stroke-opacity="0.2" stroke-width="0.833333"/>
<g opacity="0.4">
<path d="M54.6338 197.643C54.3576 197.643 54.1338 197.859 54.1338 198.126V198.312C54.1338 198.338 54.1562 198.36 54.1838 198.36H56.0889C56.4117 198.36 56.6983 198.56 56.8004 198.856L57.0738 199.649C57.1078 199.748 57.2034 199.815 57.311 199.815H62.0478C62.4103 199.815 62.7209 200.066 62.7857 200.411L63.0346 201.735C63.0455 201.793 63.1338 201.785 63.1338 201.726V198.126C63.1338 197.859 62.9099 197.643 62.6338 197.643H54.6338Z" fill="#F8F9FA"/>
<path d="M53.2948 198.861C53.3 198.859 53.3056 198.858 53.3113 198.858H56.0455C56.1539 198.858 56.25 198.925 56.2843 199.024L56.5595 199.82C56.6623 200.117 56.9508 200.317 57.2757 200.317H62.0441C62.1657 200.317 62.2699 200.401 62.2917 200.517L63.133 204.977C63.1338 204.982 63.134 204.987 63.1334 204.991C63.1028 205.231 62.8908 205.416 62.6339 205.416H62.5994C62.5781 205.419 62.5563 205.42 62.5342 205.42H54.5046C54.2541 205.42 54.0417 205.243 54.0063 205.004L53.1364 199.121C53.1193 199.006 53.1892 198.9 53.2948 198.861Z" fill="#F8F9FA"/>
</g>
<path d="M81.4668 201.531H263.167" stroke="#15BB4C" stroke-width="3.33333" stroke-linecap="round"/>
<path d="M289.833 201.531H342.333" stroke="white" stroke-opacity="0.2" stroke-width="3.33333" stroke-linecap="round"/>
<path d="M369 201.531H420.667" stroke="#FFCC00" stroke-width="3.33333" stroke-linecap="round"/>
<path d="M457.333 201.531H494" stroke="white" stroke-opacity="0.2" stroke-width="3.33333" stroke-linecap="round"/>
<path d="M507.333 201.531H554" stroke="#0083F5" stroke-width="3.33333" stroke-linecap="round"/>
<path d="M567.333 201.531H600.666" stroke="white" stroke-opacity="0.2" stroke-width="3.33333" stroke-linecap="round"/>
<path d="M51.4668 229.232H617.334" stroke="#536175" stroke-width="0.833333"/>
<g opacity="0.4">
<path d="M54.6338 253.043C54.3576 253.043 54.1338 253.26 54.1338 253.527V253.712C54.1338 253.739 54.1562 253.76 54.1838 253.76H56.0889C56.4117 253.76 56.6983 253.96 56.8004 254.256L57.0738 255.05C57.1078 255.149 57.2034 255.215 57.311 255.215H62.0478C62.4103 255.215 62.7209 255.466 62.7857 255.811L63.0346 257.135C63.0455 257.193 63.1338 257.185 63.1338 257.127V253.527C63.1338 253.26 62.9099 253.043 62.6338 253.043H54.6338Z" fill="#F8F9FA"/>
<path d="M53.2948 254.261C53.3 254.259 53.3056 254.258 53.3113 254.258H56.0455C56.1539 254.258 56.25 254.325 56.2843 254.424L56.5595 255.22C56.6623 255.517 56.9508 255.718 57.2757 255.718H62.0441C62.1657 255.718 62.2699 255.802 62.2917 255.917L63.133 260.378C63.1338 260.382 63.134 260.387 63.1334 260.392C63.1028 260.631 62.8908 260.817 62.6339 260.817H62.5994C62.5781 260.819 62.5563 260.821 62.5342 260.821H54.5046C54.2541 260.821 54.0417 260.643 54.0063 260.404L53.1364 254.522C53.1193 254.406 53.1892 254.3 53.2948 254.261Z" fill="#F8F9FA"/>
</g>
<path d="M81.4668 256.932H263.167" stroke="white" stroke-opacity="0.2" stroke-width="3.33333" stroke-linecap="round"/>
<path d="M289.833 256.932H342.333" stroke="#15BB4C" stroke-width="3.33333" stroke-linecap="round"/>
<path d="M369 256.932H420.667" stroke="#FFCC00" stroke-width="3.33333" stroke-linecap="round"/>
<path d="M457.333 256.932H494" stroke="white" stroke-opacity="0.2" stroke-width="3.33333" stroke-linecap="round"/>
<path d="M507.333 256.932H554" stroke="white" stroke-opacity="0.2" stroke-width="3.33333" stroke-linecap="round"/>
<path d="M567.333 256.932H600.666" stroke="#0083F5" stroke-width="3.33333" stroke-linecap="round"/>
<path d="M51.4668 284.633H617.334" stroke="#536175" stroke-width="0.833333"/>
<g opacity="0.4">
<path d="M54.6338 308.443C54.3576 308.443 54.1338 308.66 54.1338 308.927V309.112C54.1338 309.139 54.1562 309.161 54.1838 309.161H56.0889C56.4117 309.161 56.6983 309.361 56.8004 309.657L57.0738 310.45C57.1078 310.549 57.2034 310.616 57.311 310.616H62.0478C62.4103 310.616 62.7209 310.866 62.7857 311.211L63.0346 312.536C63.0455 312.594 63.1338 312.586 63.1338 312.527V308.927C63.1338 308.66 62.9099 308.443 62.6338 308.443H54.6338Z" fill="#F8F9FA"/>
<path d="M53.2948 309.661C53.3 309.66 53.3056 309.659 53.3113 309.659H56.0455C56.1539 309.659 56.25 309.725 56.2843 309.825L56.5595 310.62C56.6623 310.918 56.9508 311.118 57.2757 311.118H62.0441C62.1657 311.118 62.2699 311.202 62.2917 311.317L63.133 315.778C63.1338 315.783 63.134 315.787 63.1334 315.792C63.1028 316.032 62.8908 316.217 62.6339 316.217H62.5994C62.5781 316.22 62.5563 316.221 62.5342 316.221H54.5046C54.2541 316.221 54.0417 316.044 54.0063 315.804L53.1364 309.922C53.1193 309.807 53.1892 309.701 53.2948 309.661Z" fill="#F8F9FA"/>
</g>
<path d="M81.4668 312.332H263.167" stroke="white" stroke-opacity="0.2" stroke-width="3.33333" stroke-linecap="round"/>
<path d="M289.833 312.332H342.333" stroke="#15BB4C" stroke-width="3.33333" stroke-linecap="round"/>
<path d="M369 312.332H420.667" stroke="#FFCC00" stroke-width="3.33333" stroke-linecap="round"/>
<path d="M457.333 312.332H494" stroke="#0083F5" stroke-width="3.33333" stroke-linecap="round"/>
<path d="M507.333 312.332H554" stroke="#0083F5" stroke-width="3.33333" stroke-linecap="round"/>
<path d="M567.333 312.332H600.666" stroke="white" stroke-opacity="0.2" stroke-width="3.33333" stroke-linecap="round"/>
<path d="M51.4668 340.033H617.334" stroke="#536175" stroke-width="0.833333"/>
<g opacity="0.4">
<path d="M54.6338 363.842C54.3576 363.842 54.1338 364.058 54.1338 364.325V364.511C54.1338 364.537 54.1562 364.559 54.1838 364.559H56.0889C56.4117 364.559 56.6983 364.759 56.8004 365.055L57.0738 365.849C57.1078 365.947 57.2034 366.014 57.311 366.014H62.0478C62.4103 366.014 62.7209 366.265 62.7857 366.61L63.0346 367.934C63.0455 367.992 63.1338 367.984 63.1338 367.925V364.325C63.1338 364.058 62.9099 363.842 62.6338 363.842H54.6338Z" fill="#F8F9FA"/>
<path d="M53.2948 365.06C53.3 365.058 53.3056 365.057 53.3113 365.057H56.0455C56.1539 365.057 56.25 365.124 56.2843 365.223L56.5595 366.019C56.6623 366.316 56.9508 366.517 57.2757 366.517H62.0441C62.1657 366.517 62.2699 366.6 62.2917 366.716L63.133 371.176C63.1338 371.181 63.134 371.186 63.1334 371.19C63.1028 371.43 62.8908 371.616 62.6339 371.616H62.5994C62.5781 371.618 62.5563 371.62 62.5342 371.62H54.5046C54.2541 371.62 54.0417 371.442 54.0063 371.203L53.1364 365.321C53.1193 365.205 53.1892 365.099 53.2948 365.06Z" fill="#F8F9FA"/>
</g>
<path d="M81.4668 367.73H263.167" stroke="#15BB4C" stroke-width="3.33333" stroke-linecap="round"/>
<path d="M289.833 367.73H342.333" stroke="white" stroke-opacity="0.2" stroke-width="3.33333" stroke-linecap="round"/>
<path d="M369 367.73H420.667" stroke="#FFCC00" stroke-width="3.33333" stroke-linecap="round"/>
<path d="M457.333 367.73H494" stroke="white" stroke-opacity="0.2" stroke-width="3.33333" stroke-linecap="round"/>
<path d="M507.333 367.73H554" stroke="#0083F5" stroke-width="3.33333" stroke-linecap="round"/>
<path d="M567.333 367.73H600.666" stroke="white" stroke-opacity="0.2" stroke-width="3.33333" stroke-linecap="round"/>
<path d="M51.4668 395.434H617.334" stroke="#536175" stroke-width="0.833333"/>
<g opacity="0.4">
<path d="M54.6338 419.243C54.3576 419.243 54.1338 419.46 54.1338 419.727V419.912C54.1338 419.939 54.1562 419.961 54.1838 419.961H56.0889C56.4117 419.961 56.6983 420.16 56.8004 420.457L57.0738 421.25C57.1078 421.349 57.2034 421.415 57.311 421.415H62.0478C62.4103 421.415 62.7209 421.666 62.7857 422.011L63.0346 423.335C63.0455 423.393 63.1338 423.386 63.1338 423.327V419.727C63.1338 419.46 62.9099 419.243 62.6338 419.243H54.6338Z" fill="#F8F9FA"/>
<path d="M53.2948 420.461C53.3 420.459 53.3056 420.458 53.3113 420.458H56.0455C56.1539 420.458 56.25 420.525 56.2843 420.624L56.5595 421.42C56.6623 421.717 56.9508 421.918 57.2757 421.918H62.0441C62.1657 421.918 62.2699 422.002 62.2917 422.117L63.133 426.578C63.1338 426.582 63.134 426.587 63.1334 426.592C63.1028 426.831 62.8908 427.017 62.6339 427.017H62.5994C62.5781 427.02 62.5563 427.021 62.5342 427.021H54.5046C54.2541 427.021 54.0417 426.843 54.0063 426.604L53.1364 420.722C53.1193 420.606 53.1892 420.501 53.2948 420.461Z" fill="#F8F9FA"/>
</g>
<path d="M81.4668 423.133H263.167" stroke="white" stroke-opacity="0.2" stroke-width="3.33333" stroke-linecap="round"/>
<path d="M289.833 423.133H342.333" stroke="#15BB4C" stroke-width="3.33333" stroke-linecap="round"/>
<path d="M369 423.133H420.667" stroke="#FFCC00" stroke-width="3.33333" stroke-linecap="round"/>
<path d="M457.333 423.133H494" stroke="white" stroke-opacity="0.2" stroke-width="3.33333" stroke-linecap="round"/>
<path d="M507.333 423.133H554" stroke="#0083F5" stroke-width="3.33333" stroke-linecap="round"/>
<path d="M567.333 423.133H600.666" stroke="white" stroke-opacity="0.2" stroke-width="3.33333" stroke-linecap="round"/>
</g>
<path d="M632 102C632 99.7909 633.791 98 636 98H668C670.209 98 672 99.7909 672 102V446C672 448.209 670.209 450 668 450H636C633.791 450 632 448.209 632 446V102Z" fill="white" fill-opacity="0.02"/>
<rect x="642" y="108" width="20" height="20" rx="10" fill="#1876E3"/>
<rect x="646" y="152" width="12" height="12" rx="6" fill="#FFCF33"/>
<rect x="646" y="188" width="12" height="12" rx="6" fill="#8491B2"/>
<rect x="646" y="224" width="12" height="12" rx="6" fill="#8491B2"/>
<rect x="646" y="260" width="12" height="12" rx="6" fill="#8491B2"/>
<rect x="646" y="296" width="12" height="12" rx="6" fill="#8491B2"/>
<path d="M640.75 354.5H663.25" stroke="#536175" stroke-width="0.833333"/>
<rect x="646" y="384" width="12" height="12" rx="6" fill="#8491B2"/>
<rect x="646" y="420" width="12" height="12" rx="6" fill="#CE4F46"/>
</g>
</g>
<g opacity="0.6">
<g clip-path="url(#clip2_3225_12033)">
<rect x="328" y="62" width="680" height="400" rx="16" fill="#142438"/>
<rect width="680" height="32" transform="translate(328 62)" fill="#0D1825"/>
<circle cx="356" cy="78" r="4" fill="#CF3232"/>
<circle cx="370" cy="78" r="4" fill="#FFCC00"/>
<circle cx="384" cy="78" r="4" fill="#28BB5A"/>
<rect width="680" height="368" transform="translate(328 94)" fill="#142438"/>
<path d="M336 106C336 103.791 337.791 102 340 102H360.8C363.009 102 364.8 103.791 364.8 106V450C364.8 452.209 363.009 454 360.8 454H340C337.791 454 336 452.209 336 450V106Z" fill="white" fill-opacity="0.02"/>
<rect opacity="0.4" x="344" y="153.199" width="12.8" height="12.8" rx="6.4" fill="white"/>
<rect opacity="0.4" x="344" y="178.799" width="12.8" height="12.8" rx="6.4" fill="white"/>
<rect opacity="0.4" x="344" y="204.398" width="12.8" height="12.8" rx="6.4" fill="white"/>
<rect opacity="0.4" x="344" y="230" width="12.8" height="12.8" rx="6.4" fill="white"/>
<rect x="360.8" y="145.199" width="8" height="8" rx="4" fill="#FFCC00"/>
<g clip-path="url(#clip3_3225_12033)">
<rect x="372.8" y="102" width="579.2" height="352" rx="4" fill="white" fill-opacity="0.02"/>
<rect width="579.2" height="20" transform="translate(372.8 102)" fill="white" fill-opacity="0.04"/>
<path d="M386.133 135.334H462.799" stroke="white" stroke-opacity="0.6" stroke-width="3.33333" stroke-linecap="round"/>
<path d="M386.133 148.666H579.466" stroke="white" stroke-opacity="0.6" stroke-width="3.33333" stroke-linecap="round"/>
<mask id="path-97-inside-2_3225_12033" fill="white">
<path d="M372.8 162H952V178.667H372.8V162Z"/>
</mask>
<path d="M372.8 162V162.833H952V162V161.167H372.8V162ZM952 178.667V177.833H372.8V178.667V179.5H952V178.667Z" fill="white" fill-opacity="0.2" mask="url(#path-97-inside-2_3225_12033)"/>
<path d="M399.467 162L399.467 178.667" stroke="white" stroke-opacity="0.2" stroke-width="0.833333"/>
<rect x="406.134" y="167.834" width="53.3333" height="5" rx="1.66667" fill="white" fill-opacity="0.2"/>
<path d="M553.633 162L553.633 178.667" stroke="white" stroke-opacity="0.2" stroke-width="0.833333"/>
<rect x="560.3" y="167.834" width="60" height="5" rx="1.66667" fill="white" fill-opacity="0.2"/>
<path d="M626.966 162L626.966 178.667" stroke="white" stroke-opacity="0.2" stroke-width="0.833333"/>
<rect x="633.633" y="167.834" width="60" height="5" rx="1.66667" fill="white" fill-opacity="0.2"/>
<path d="M700.3 162L700.3 178.667" stroke="white" stroke-opacity="0.2" stroke-width="0.833333"/>
<path d="M729.467 162L729.467 178.667" stroke="white" stroke-opacity="0.2" stroke-width="0.833333"/>
<rect x="736.134" y="167.834" width="53.3333" height="5" rx="1.66667" fill="white" fill-opacity="0.2"/>
<path d="M925.333 162L925.333 178.667" stroke="white" stroke-opacity="0.2" stroke-width="0.833333"/>
<g opacity="0.4">
<path d="M382.634 201.643C382.358 201.643 382.134 201.859 382.134 202.126V202.312C382.134 202.338 382.156 202.36 382.184 202.36H384.089C384.412 202.36 384.698 202.56 384.8 202.856L385.074 203.649C385.108 203.748 385.203 203.815 385.311 203.815H390.048C390.41 203.815 390.721 204.066 390.786 204.411L391.035 205.735C391.045 205.793 391.134 205.785 391.134 205.726V202.126C391.134 201.859 390.91 201.643 390.634 201.643H382.634Z" fill="#F8F9FA"/>
<path d="M381.295 202.861C381.3 202.859 381.306 202.858 381.311 202.858H384.046C384.154 202.858 384.25 202.925 384.284 203.024L384.559 203.82C384.662 204.117 384.951 204.317 385.276 204.317H390.044C390.166 204.317 390.27 204.401 390.292 204.517L391.133 208.977C391.134 208.982 391.134 208.987 391.133 208.991C391.103 209.231 390.891 209.416 390.634 209.416H390.599C390.578 209.419 390.556 209.42 390.534 209.42H382.505C382.254 209.42 382.042 209.243 382.006 209.004L381.136 203.121C381.119 203.006 381.189 202.9 381.295 202.861Z" fill="#F8F9FA"/>
</g>
<path d="M409.467 205.531H777.833" stroke="#15BB4C" stroke-width="3.33333" stroke-linecap="round"/>
<path d="M804.5 205.531H857" stroke="white" stroke-opacity="0.2" stroke-width="3.33333" stroke-linecap="round"/>
<path d="M883.666 205.531H935.333" stroke="#FFCC00" stroke-width="3.33333" stroke-linecap="round"/>
<path d="M379.467 233.232H945.334" stroke="#536175" stroke-width="0.833333"/>
<g opacity="0.4">
<path d="M382.634 257.043C382.358 257.043 382.134 257.26 382.134 257.527V257.712C382.134 257.739 382.156 257.76 382.184 257.76H384.089C384.412 257.76 384.698 257.96 384.8 258.256L385.074 259.05C385.108 259.149 385.203 259.215 385.311 259.215H390.048C390.41 259.215 390.721 259.466 390.786 259.811L391.035 261.135C391.045 261.193 391.134 261.185 391.134 261.127V257.527C391.134 257.26 390.91 257.043 390.634 257.043H382.634Z" fill="#F8F9FA"/>
<path d="M381.295 258.261C381.3 258.259 381.306 258.258 381.311 258.258H384.046C384.154 258.258 384.25 258.325 384.284 258.424L384.559 259.22C384.662 259.517 384.951 259.718 385.276 259.718H390.044C390.166 259.718 390.27 259.802 390.292 259.917L391.133 264.378C391.134 264.382 391.134 264.387 391.133 264.392C391.103 264.631 390.891 264.817 390.634 264.817H390.599C390.578 264.819 390.556 264.821 390.534 264.821H382.505C382.254 264.821 382.042 264.643 382.006 264.404L381.136 258.522C381.119 258.406 381.189 258.3 381.295 258.261Z" fill="#F8F9FA"/>
</g>
<path d="M409.467 260.932H777.833" stroke="white" stroke-opacity="0.2" stroke-width="3.33333" stroke-linecap="round"/>
<path d="M804.5 260.932H857" stroke="#15BB4C" stroke-width="3.33333" stroke-linecap="round"/>
<path d="M883.666 260.932H935.333" stroke="#FFCC00" stroke-width="3.33333" stroke-linecap="round"/>
<path d="M379.467 288.633H945.334" stroke="#536175" stroke-width="0.833333"/>
<g opacity="0.4">
<path d="M382.634 312.443C382.358 312.443 382.134 312.66 382.134 312.927V313.112C382.134 313.139 382.156 313.161 382.184 313.161H384.089C384.412 313.161 384.698 313.361 384.8 313.657L385.074 314.45C385.108 314.549 385.203 314.616 385.311 314.616H390.048C390.41 314.616 390.721 314.866 390.786 315.211L391.035 316.536C391.045 316.594 391.134 316.586 391.134 316.527V312.927C391.134 312.66 390.91 312.443 390.634 312.443H382.634Z" fill="#F8F9FA"/>
<path d="M381.295 313.661C381.3 313.66 381.306 313.659 381.311 313.659H384.046C384.154 313.659 384.25 313.725 384.284 313.825L384.559 314.62C384.662 314.918 384.951 315.118 385.276 315.118H390.044C390.166 315.118 390.27 315.202 390.292 315.317L391.133 319.778C391.134 319.783 391.134 319.787 391.133 319.792C391.103 320.032 390.891 320.217 390.634 320.217H390.599C390.578 320.22 390.556 320.221 390.534 320.221H382.505C382.254 320.221 382.042 320.044 382.006 319.804L381.136 313.922C381.119 313.807 381.189 313.701 381.295 313.661Z" fill="#F8F9FA"/>
</g>
<path d="M409.467 316.332H591.167" stroke="white" stroke-opacity="0.2" stroke-width="3.33333" stroke-linecap="round"/>
<path d="M617.833 316.332H670.333" stroke="#15BB4C" stroke-width="3.33333" stroke-linecap="round"/>
<path d="M697 316.332H748.667" stroke="#FFCC00" stroke-width="3.33333" stroke-linecap="round"/>
<path d="M785.333 316.332H822" stroke="#0083F5" stroke-width="3.33333" stroke-linecap="round"/>
<path d="M835.333 316.332H882" stroke="#0083F5" stroke-width="3.33333" stroke-linecap="round"/>
<path d="M895.333 316.332H928.666" stroke="white" stroke-opacity="0.2" stroke-width="3.33333" stroke-linecap="round"/>
<path d="M379.467 344.033H945.334" stroke="#536175" stroke-width="0.833333"/>
<g opacity="0.4">
<path d="M382.634 367.842C382.358 367.842 382.134 368.058 382.134 368.325V368.511C382.134 368.537 382.156 368.559 382.184 368.559H384.089C384.412 368.559 384.698 368.759 384.8 369.055L385.074 369.849C385.108 369.947 385.203 370.014 385.311 370.014H390.048C390.41 370.014 390.721 370.265 390.786 370.61L391.035 371.934C391.045 371.992 391.134 371.984 391.134 371.925V368.325C391.134 368.058 390.91 367.842 390.634 367.842H382.634Z" fill="#F8F9FA"/>
<path d="M381.295 369.06C381.3 369.058 381.306 369.057 381.311 369.057H384.046C384.154 369.057 384.25 369.124 384.284 369.223L384.559 370.019C384.662 370.316 384.951 370.517 385.276 370.517H390.044C390.166 370.517 390.27 370.6 390.292 370.716L391.133 375.176C391.134 375.181 391.134 375.186 391.133 375.19C391.103 375.43 390.891 375.616 390.634 375.616H390.599C390.578 375.618 390.556 375.62 390.534 375.62H382.505C382.254 375.62 382.042 375.442 382.006 375.203L381.136 369.321C381.119 369.205 381.189 369.099 381.295 369.06Z" fill="#F8F9FA"/>
</g>
<path d="M409.467 371.73H591.167" stroke="#15BB4C" stroke-width="3.33333" stroke-linecap="round"/>
<path d="M617.833 371.73H670.333" stroke="white" stroke-opacity="0.2" stroke-width="3.33333" stroke-linecap="round"/>
<path d="M697 371.73H748.667" stroke="#FFCC00" stroke-width="3.33333" stroke-linecap="round"/>
<path d="M785.333 371.73H822" stroke="white" stroke-opacity="0.2" stroke-width="3.33333" stroke-linecap="round"/>
<path d="M835.333 371.73H882" stroke="#0083F5" stroke-width="3.33333" stroke-linecap="round"/>
<path d="M895.333 371.73H928.666" stroke="white" stroke-opacity="0.2" stroke-width="3.33333" stroke-linecap="round"/>
<path d="M379.467 399.433H945.334" stroke="#536175" stroke-width="0.833333"/>
<g opacity="0.4">
<path d="M382.634 423.243C382.358 423.243 382.134 423.46 382.134 423.727V423.912C382.134 423.939 382.156 423.961 382.184 423.961H384.089C384.412 423.961 384.698 424.16 384.8 424.457L385.074 425.25C385.108 425.349 385.203 425.415 385.311 425.415H390.048C390.41 425.415 390.721 425.666 390.786 426.011L391.035 427.335C391.045 427.393 391.134 427.386 391.134 427.327V423.727C391.134 423.46 390.91 423.243 390.634 423.243H382.634Z" fill="#F8F9FA"/>
<path d="M381.295 424.461C381.3 424.459 381.306 424.458 381.311 424.458H384.046C384.154 424.458 384.25 424.525 384.284 424.624L384.559 425.42C384.662 425.717 384.951 425.918 385.276 425.918H390.044C390.166 425.918 390.27 426.002 390.292 426.117L391.133 430.578C391.134 430.582 391.134 430.587 391.133 430.592C391.103 430.831 390.891 431.017 390.634 431.017H390.599C390.578 431.02 390.556 431.021 390.534 431.021H382.505C382.254 431.021 382.042 430.843 382.006 430.604L381.136 424.722C381.119 424.606 381.189 424.501 381.295 424.461Z" fill="#F8F9FA"/>
</g>
<path d="M409.467 427.133H777.833" stroke="white" stroke-opacity="0.2" stroke-width="3.33333" stroke-linecap="round"/>
<path d="M804.5 427.133H857" stroke="#15BB4C" stroke-width="3.33333" stroke-linecap="round"/>
<path d="M883.666 427.133H935.333" stroke="#FFCC00" stroke-width="3.33333" stroke-linecap="round"/>
</g>
<path d="M960 106C960 103.791 961.791 102 964 102H996C998.209 102 1000 103.791 1000 106V450C1000 452.209 998.209 454 996 454H964C961.791 454 960 452.209 960 450V106Z" fill="white" fill-opacity="0.02"/>
<rect x="970" y="112" width="20" height="20" rx="10" fill="#1876E3"/>
<rect x="974" y="156" width="12" height="12" rx="6" fill="#FFCF33"/>
<rect x="974" y="192" width="12" height="12" rx="6" fill="#8491B2"/>
<rect x="974" y="228" width="12" height="12" rx="6" fill="#8491B2"/>
<rect x="974" y="264" width="12" height="12" rx="6" fill="#8491B2"/>
<path d="M968.75 358.5H991.25" stroke="#536175" stroke-width="0.833333"/>
<rect x="974" y="388" width="12" height="12" rx="6" fill="#8491B2"/>
<rect x="974" y="424" width="12" height="12" rx="6" fill="#CE4F46"/>
</g>
</g>
<g clip-path="url(#clip4_3225_12033)">
<rect x="164" y="16" width="680" height="480" rx="16" fill="#142438"/>
<rect width="680" height="32" transform="translate(164 16)" fill="#0D1825"/>
<circle cx="192" cy="32" r="4" fill="#CF3232"/>
<circle cx="206" cy="32" r="4" fill="#FFCC00"/>
<circle cx="220" cy="32" r="4" fill="#28BB5A"/>
<rect width="680" height="448" transform="translate(164 48)" fill="#142438"/>
<g clip-path="url(#clip5_3225_12033)">
<path d="M172 60C172 57.7909 173.791 56 176 56H296C298.209 56 300 57.7909 300 60V484C300 486.209 298.209 488 296 488H176C173.791 488 172 486.209 172 484V60Z" fill="white" fill-opacity="0.02"/>
<path fill-rule="evenodd" clip-rule="evenodd" d="M189.136 81.8857C189.136 84.1579 190.978 85.9999 193.25 85.9999V78.8643C193.25 76.5921 191.408 74.7501 189.136 74.7501L182 74.7501C182 77.0223 183.842 78.8643 186.114 78.8643H189.136V81.8857Z" fill="white"/>
<path d="M190.75 66C193.022 66 194.864 67.842 194.864 70.1142V73.1356L197.886 73.1356C200.158 73.1356 202 74.9776 202 77.2498C199.315 77.2498 196.629 77.2498 193.944 77.2498C193.455 75.7181 192.264 74.4999 190.75 73.9728V66Z" fill="white"/>
<path d="M264.377 74.2667C263.841 74.2667 263.404 74.1102 263.068 73.7973C262.731 73.4844 262.563 73.0965 262.563 72.6334C262.563 72.1703 262.731 71.7823 263.068 71.4694C263.404 71.1565 263.841 71.0001 264.377 71.0001C264.913 71.0001 265.349 71.1503 265.686 71.4507C266.022 71.7385 266.191 72.114 266.191 72.5771C266.191 73.0652 266.022 73.4719 265.686 73.7973C265.362 74.1102 264.925 74.2667 264.377 74.2667Z" fill="white"/>
<path d="M214.088 86C213.078 86 212.136 85.8373 211.264 85.5119C210.403 85.174 209.655 84.6984 209.019 84.0851C208.384 83.4719 207.885 82.7522 207.523 81.9262C207.174 81.1002 207 80.1928 207 79.2041C207 78.2153 207.174 77.3079 207.523 76.4819C207.885 75.6559 208.384 74.9362 209.019 74.323C209.668 73.7097 210.422 73.2404 211.282 72.915C212.143 72.5771 213.084 72.4081 214.106 72.4081C215.241 72.4081 216.263 72.6083 217.173 73.0088C218.096 73.3968 218.869 73.9725 219.492 74.736L217.547 76.5382C217.098 76.0251 216.6 75.6434 216.051 75.3931C215.503 75.1302 214.904 74.9988 214.256 74.9988C213.645 74.9988 213.084 75.0989 212.573 75.2992C212.062 75.4994 211.619 75.7873 211.245 76.1628C210.871 76.5382 210.578 76.9825 210.366 77.4957C210.166 78.0088 210.067 78.5783 210.067 79.2041C210.067 79.8298 210.166 80.3993 210.366 80.9124C210.578 81.4256 210.871 81.8699 211.245 82.2453C211.619 82.6208 212.062 82.9087 212.573 83.1089C213.084 83.3092 213.645 83.4093 214.256 83.4093C214.904 83.4093 215.503 83.2841 216.051 83.0338C216.6 82.771 217.098 82.3767 217.547 81.8511L219.492 83.6533C218.869 84.4168 218.096 84.9988 217.173 85.3993C216.263 85.7998 215.235 86 214.088 86Z" fill="white"/>
<path fill-rule="evenodd" clip-rule="evenodd" d="M228.908 76.6133C229.756 77.3392 230.18 78.4719 230.18 80.0113V85.7747H227.449V84.5197C227.23 84.8904 226.93 85.1899 226.552 85.418C225.99 85.7559 225.267 85.9249 224.382 85.9249C223.597 85.9249 222.923 85.7935 222.362 85.5307C221.801 85.2553 221.371 84.8861 221.072 84.423C220.773 83.96 220.623 83.4406 220.623 82.8649C220.623 82.2641 220.767 81.7385 221.053 81.2879C221.352 80.8373 221.82 80.4869 222.456 80.2366C223.092 79.9738 223.921 79.8423 224.943 79.8423H227.262C227.262 79.2166 227.069 78.7285 226.682 78.378C226.308 78.0276 225.729 77.8524 224.943 77.8524C224.407 77.8524 223.877 77.94 223.354 78.1152C222.842 78.2779 222.406 78.5032 222.044 78.791L220.997 76.7447C221.546 76.3568 222.207 76.0564 222.98 75.8436C223.753 75.6309 224.538 75.5245 225.336 75.5245C226.869 75.5245 228.06 75.8874 228.908 76.6133ZM223.84 81.8886C224.102 81.6634 224.575 81.5507 225.261 81.5507H227.262V82.5833C227.088 83.0338 226.807 83.378 226.421 83.6158C226.034 83.8411 225.598 83.9537 225.112 83.9537C224.6 83.9537 224.195 83.8473 223.896 83.6346C223.609 83.4093 223.466 83.1089 223.466 82.7334C223.466 82.3955 223.59 82.1139 223.84 81.8886Z" fill="white"/>
<path d="M241.067 76.0126C240.444 75.6872 239.733 75.5245 238.935 75.5245C238.075 75.5245 237.308 75.706 236.635 76.0689C236.238 76.283 235.895 76.5514 235.607 76.8743V75.6747H232.82V85.7747H235.738V80.781C235.738 80.1552 235.837 79.6421 236.037 79.2416C236.249 78.8411 236.535 78.547 236.897 78.3593C237.271 78.159 237.689 78.0589 238.15 78.0589C238.798 78.0589 239.297 78.2529 239.646 78.6409C240.008 79.0288 240.188 79.6296 240.188 80.4431V85.7747H243.106V79.9925C243.106 78.9663 242.925 78.1277 242.564 77.4769C242.202 76.8136 241.703 76.3255 241.067 76.0126Z" fill="white"/>
<path fill-rule="evenodd" clip-rule="evenodd" d="M253.381 76.6133C254.229 77.3392 254.652 78.4719 254.652 80.0113V85.7747H251.922V84.5197C251.702 84.8904 251.403 85.1899 251.024 85.418C250.463 85.7559 249.74 85.9249 248.855 85.9249C248.069 85.9249 247.396 85.7935 246.835 85.5307C246.274 85.2553 245.844 84.8861 245.545 84.423C245.246 83.96 245.096 83.4406 245.096 82.8649C245.096 82.2641 245.239 81.7385 245.526 81.2879C245.825 80.8373 246.293 80.4869 246.929 80.2366C247.565 79.9738 248.394 79.8423 249.416 79.8423H251.735C251.735 79.2166 251.542 78.7285 251.155 78.378C250.781 78.0276 250.201 77.8524 249.416 77.8524C248.88 77.8524 248.35 77.94 247.826 78.1152C247.315 78.2779 246.879 78.5032 246.517 78.791L245.47 76.7447C246.019 76.3568 246.679 76.0564 247.452 75.8436C248.225 75.6309 249.011 75.5245 249.809 75.5245C251.342 75.5245 252.533 75.8874 253.381 76.6133ZM248.313 81.8886C248.574 81.6634 249.048 81.5507 249.734 81.5507H251.735V82.5833C251.56 83.0338 251.28 83.378 250.893 83.6158C250.507 83.8411 250.071 83.9537 249.584 83.9537C249.073 83.9537 248.668 83.8473 248.369 83.6346C248.082 83.4093 247.939 83.1089 247.939 82.7334C247.939 82.3955 248.063 82.1139 248.313 81.8886Z" fill="white"/>
<path d="M271.142 80.6801L267.271 85.7747H270.451L272.736 82.6811L274.939 85.7747H278.249L274.357 80.6139L278.1 75.6747H274.995L272.809 78.6243L270.675 75.6747H267.402L271.142 80.6801Z" fill="white"/>
<path d="M262.918 85.7747V75.6747H265.835V85.7747H262.918Z" fill="white"/>
<path d="M257.293 71.8449V85.7747H260.21V71.8449H257.293Z" fill="white"/>
<rect x="172" y="101" width="128" height="10" fill="#2752E7"/>
<rect x="285.167" y="96" width="10" height="10" rx="5" fill="#FFCC00"/>
<rect x="182" y="121" width="10" height="10" rx="5" fill="#0083F5"/>
<path d="M202 126H290" stroke="white" stroke-opacity="0.2" stroke-width="3.33333" stroke-linecap="round"/>
<path d="M178.667 141.834H293.334" stroke="white" stroke-opacity="0.2" stroke-width="0.833333"/>
<rect x="182" y="152.666" width="10" height="10" rx="5" fill="#0083F5"/>
<path d="M202 157.666H290" stroke="white" stroke-opacity="0.2" stroke-width="3.33333" stroke-linecap="round"/>
<path d="M178.667 173.5H293.334" stroke="white" stroke-opacity="0.2" stroke-width="0.833333"/>
<rect x="182" y="184.334" width="10" height="10" rx="5" fill="#0083F5"/>
<path d="M202 189.334H290" stroke="white" stroke-opacity="0.2" stroke-width="3.33333" stroke-linecap="round"/>
<path d="M178.667 205.168H293.334" stroke="white" stroke-opacity="0.2" stroke-width="0.833333"/>
<rect x="182" y="216" width="10" height="10" rx="5" fill="#0083F5"/>
<path d="M202 221H290" stroke="white" stroke-opacity="0.2" stroke-width="3.33333" stroke-linecap="round"/>
<path d="M178.667 236.834H293.334" stroke="white" stroke-opacity="0.2" stroke-width="0.833333"/>
<rect x="182" y="247.666" width="10" height="10" rx="5" fill="#0083F5"/>
<path d="M202 252.666H290" stroke="white" stroke-opacity="0.2" stroke-width="3.33333" stroke-linecap="round"/>
<path d="M178.667 268.5H293.334" stroke="white" stroke-opacity="0.2" stroke-width="0.833333"/>
<path d="M178.667 453.833H293.334" stroke="white" stroke-opacity="0.2" stroke-width="0.833333"/>
<path d="M182 471.334H266.667" stroke="white" stroke-opacity="0.2" stroke-width="3.33333" stroke-linecap="round"/>
<path fill-rule="evenodd" clip-rule="evenodd" d="M278.774 467.608C278.991 467.391 279.343 467.391 279.56 467.608L282.893 470.941C283.11 471.158 283.11 471.51 282.893 471.727L279.56 475.06C279.343 475.277 278.991 475.277 278.774 475.06C278.557 474.843 278.557 474.492 278.774 474.275L281.715 471.334L278.774 468.394C278.557 468.177 278.557 467.825 278.774 467.608Z" fill="#B3B7C1"/>
<path fill-rule="evenodd" clip-rule="evenodd" d="M283.774 467.608C283.991 467.391 284.343 467.391 284.56 467.608L287.893 470.941C288.11 471.158 288.11 471.51 287.893 471.727L284.56 475.06C284.343 475.277 283.991 475.277 283.774 475.06C283.557 474.843 283.557 474.492 283.774 474.275L286.715 471.334L283.774 468.394C283.557 468.177 283.557 467.825 283.774 467.608Z" fill="#B3B7C1"/>
</g>
<g filter="url(#filter0_d_3225_12033)">
<g clip-path="url(#clip6_3225_12033)">
<rect x="308" y="56" width="392" height="285" rx="4" fill="white" fill-opacity="0.02"/>
<rect x="476" y="61.875" width="56" height="4" rx="2" fill="#2752E7"/>
<rect x="316" y="79.75" width="32" height="8" rx="2" fill="#0073CC"/>
<rect x="352" y="79.75" width="32" height="8" rx="2" fill="white" fill-opacity="0.2" stroke="white" stroke-opacity="0.2" stroke-width="0.4014"/>
<path d="M316 96.75H692" stroke="white" stroke-opacity="0.2"/>
<g opacity="0.2">
<path d="M319.8 116.609C319.469 116.609 319.2 116.869 319.2 117.19V117.412C319.2 117.444 319.227 117.47 319.26 117.47H321.546C321.934 117.47 322.277 117.71 322.4 118.066L322.728 119.018C322.769 119.136 322.884 119.216 323.013 119.216H328.697C329.132 119.216 329.504 119.517 329.582 119.931L329.881 121.52C329.894 121.59 330 121.58 330 121.51V117.19C330 116.869 329.731 116.609 329.4 116.609H319.8Z" fill="#F8F9FA"/>
<path d="M318.193 118.071C318.199 118.069 318.206 118.068 318.213 118.068H321.494C321.624 118.068 321.739 118.148 321.781 118.267L322.111 119.222C322.234 119.578 322.58 119.819 322.97 119.819H328.692C328.838 119.819 328.963 119.92 328.989 120.058L329.999 125.411C330 125.416 330 125.422 330 125.428C329.963 125.715 329.708 125.938 329.4 125.938H329.359C329.333 125.941 329.307 125.943 329.28 125.943H319.645C319.344 125.943 319.089 125.73 319.047 125.443L318.003 118.384C317.983 118.245 318.066 118.118 318.193 118.071Z" fill="#F8F9FA"/>
</g>
<path d="M344 121.275H516" stroke="white" stroke-opacity="0.2" stroke-width="4" stroke-linecap="round"/>
<path d="M528 121.275H688" stroke="white" stroke-opacity="0.2" stroke-width="4" stroke-linecap="round"/>
<path d="M316 145.801H692" stroke="white" stroke-opacity="0.2"/>
<g opacity="0.2">
<path d="M319.8 165.66C319.469 165.66 319.2 165.92 319.2 166.241V166.463C319.2 166.495 319.227 166.521 319.26 166.521H321.546C321.934 166.521 322.277 166.761 322.4 167.116L322.728 168.068C322.769 168.187 322.884 168.267 323.013 168.267H328.697C329.132 168.267 329.504 168.568 329.582 168.982L329.881 170.571C329.894 170.64 330 170.631 330 170.56V166.241C330 165.92 329.731 165.66 329.4 165.66H319.8Z" fill="#F8F9FA"/>
<path d="M318.193 167.122C318.199 167.12 318.206 167.118 318.213 167.118H321.494C321.624 167.118 321.739 167.199 321.781 167.318L322.111 168.273C322.234 168.629 322.58 168.87 322.97 168.87H328.692C328.838 168.87 328.963 168.97 328.989 169.109L329.999 174.462C330 174.467 330 174.473 330 174.478C329.963 174.766 329.708 174.989 329.4 174.989H329.359C329.333 174.992 329.307 174.993 329.28 174.993H319.645C319.344 174.993 319.089 174.78 319.047 174.493L318.003 167.435C317.983 167.296 318.066 167.169 318.193 167.122Z" fill="#F8F9FA"/>
</g>
<path d="M344 170.326H504" stroke="white" stroke-opacity="0.2" stroke-width="4" stroke-linecap="round"/>
<path d="M516 170.326H688" stroke="white" stroke-opacity="0.2" stroke-width="4" stroke-linecap="round"/>
<path d="M316 194.85H692" stroke="white" stroke-opacity="0.2"/>
<g opacity="0.2">
<path d="M319.8 214.709C319.469 214.709 319.2 214.969 319.2 215.289V215.512C319.2 215.544 319.227 215.57 319.26 215.57H321.546C321.934 215.57 322.277 215.81 322.4 216.165L322.728 217.117C322.769 217.236 322.884 217.316 323.013 217.316H328.697C329.132 217.316 329.504 217.617 329.582 218.031L329.881 219.62C329.894 219.689 330 219.68 330 219.609V215.289C330 214.969 329.731 214.709 329.4 214.709H319.8Z" fill="#F8F9FA"/>
<path d="M318.193 216.171C318.199 216.168 318.206 216.167 318.213 216.167H321.494C321.624 216.167 321.739 216.248 321.781 216.366L322.111 217.321C322.234 217.678 322.58 217.919 322.97 217.919H328.692C328.838 217.919 328.963 218.019 328.989 218.158L329.999 223.511C330 223.516 330 223.522 330 223.527C329.963 223.815 329.708 224.038 329.4 224.038H329.359C329.333 224.041 329.307 224.042 329.28 224.042H319.645C319.344 224.042 319.089 223.829 319.047 223.542L318.003 216.483C317.983 216.345 318.066 216.218 318.193 216.171Z" fill="#F8F9FA"/>
</g>
<path d="M344 219.375H469" stroke="white" stroke-opacity="0.2" stroke-width="4" stroke-linecap="round"/>
<path d="M481 219.375H688" stroke="white" stroke-opacity="0.2" stroke-width="4" stroke-linecap="round"/>
<path d="M316 243.9H692" stroke="white" stroke-opacity="0.2"/>
<g opacity="0.2">
<path d="M319.8 263.76C319.469 263.76 319.2 264.02 319.2 264.34V264.563C319.2 264.595 319.227 264.621 319.26 264.621H321.546C321.934 264.621 322.277 264.86 322.4 265.216L322.728 266.168C322.769 266.287 322.884 266.366 323.013 266.366H328.697C329.132 266.366 329.504 266.667 329.582 267.081L329.881 268.67C329.894 268.74 330 268.731 330 268.66V264.34C330 264.02 329.731 263.76 329.4 263.76H319.8Z" fill="#F8F9FA"/>
<path d="M318.193 265.221C318.199 265.219 318.206 265.218 318.213 265.218H321.494C321.624 265.218 321.739 265.298 321.781 265.417L322.111 266.372C322.234 266.729 322.58 266.969 322.97 266.969H328.692C328.838 266.969 328.963 267.07 328.989 267.208L329.999 272.561C330 272.567 330 272.573 330 272.578C329.963 272.866 329.708 273.088 329.4 273.088H329.359C329.333 273.091 329.307 273.093 329.28 273.093H319.645C319.344 273.093 319.089 272.88 319.047 272.593L318.003 265.534C317.983 265.396 318.066 265.269 318.193 265.221Z" fill="#F8F9FA"/>
</g>
<path d="M344 268.426H504" stroke="white" stroke-opacity="0.2" stroke-width="4" stroke-linecap="round"/>
<path d="M516 268.426H688" stroke="white" stroke-opacity="0.2" stroke-width="4" stroke-linecap="round"/>
<path d="M316 292.949H692" stroke="white" stroke-opacity="0.2"/>
<g opacity="0.2">
<path d="M319.8 312.809C319.469 312.809 319.2 313.068 319.2 313.389V313.611C319.2 313.643 319.227 313.669 319.26 313.669H321.546C321.934 313.669 322.277 313.909 322.4 314.265L322.728 315.217C322.769 315.335 322.884 315.415 323.013 315.415H328.697C329.132 315.415 329.504 315.716 329.582 316.13L329.881 317.719C329.894 317.789 330 317.78 330 317.709V313.389C330 313.068 329.731 312.809 329.4 312.809H319.8Z" fill="#F8F9FA"/>
<path d="M318.193 314.27C318.199 314.268 318.206 314.267 318.213 314.267H321.494C321.624 314.267 321.739 314.347 321.781 314.466L322.111 315.421C322.234 315.778 322.58 316.018 322.97 316.018H328.692C328.838 316.018 328.963 316.119 328.989 316.257L329.999 321.61C330 321.616 330 321.621 330 321.627C329.963 321.914 329.708 322.137 329.4 322.137H329.359C329.333 322.14 329.307 322.142 329.28 322.142H319.645C319.344 322.142 319.089 321.929 319.047 321.642L318.003 314.583C317.983 314.445 318.066 314.317 318.193 314.27Z" fill="#F8F9FA"/>
</g>
<path d="M344 317.475H475" stroke="white" stroke-opacity="0.2" stroke-width="4" stroke-linecap="round"/>
<path d="M487 317.475L688 317.475" stroke="white" stroke-opacity="0.2" stroke-width="4" stroke-linecap="round"/>
</g>
</g>
<g filter="url(#filter1_d_3225_12033)">
<g clip-path="url(#clip7_3225_12033)">
<path d="M314 363C314 361.895 314.895 361 316 361H352C353.105 361 354 361.895 354 363V377H314V363Z" fill="white" fill-opacity="0.1"/>
<rect x="330" y="365" width="8" height="8" rx="4" fill="#202A42"/>
<rect x="362" y="365" width="8" height="8" rx="4" fill="#2752E7"/>
<rect x="386" y="365" width="8" height="8" rx="2" fill="#2752E7"/>
<g clip-path="url(#clip8_3225_12033)">
<rect x="308" y="377" width="392" height="111" rx="4" fill="white" fill-opacity="0.02"/>
<g opacity="0.2">
<path d="M324 396.168C325.472 396.168 326.666 394.974 326.666 393.501C326.666 392.029 325.472 390.835 324 390.835C322.527 390.835 321.333 392.029 321.333 393.501C321.333 394.974 322.527 396.168 324 396.168Z" fill="#F8F9FA"/>
<path fill-rule="evenodd" clip-rule="evenodd" d="M317.333 394.835C317.333 396.437 317.898 397.907 318.84 399.056C320.062 400.549 321.92 401.501 324 401.501C327.681 401.501 330.666 398.517 330.666 394.835C330.666 391.153 327.682 388.168 324 388.168C320.318 388.168 317.333 391.153 317.333 394.835ZM324 397.501C322.454 397.501 320.997 397.877 319.713 398.541C318.853 397.548 318.333 396.252 318.333 394.835C318.333 391.705 320.87 389.168 324 389.168C327.129 389.168 329.666 391.705 329.666 394.835C329.666 396.252 329.146 397.548 328.286 398.542C327.002 397.877 325.545 397.501 324 397.501Z" fill="#F8F9FA"/>
</g>
<path d="M344 394.834H516" stroke="white" stroke-opacity="0.2" stroke-width="4" stroke-linecap="round"/>
<path d="M528 394.834H688" stroke="white" stroke-opacity="0.2" stroke-width="4" stroke-linecap="round"/>
<path d="M316 413.667H692" stroke="white" stroke-opacity="0.2"/>
<g opacity="0.2">
<path d="M324 433.833C325.472 433.833 326.666 432.639 326.666 431.166C326.666 429.694 325.472 428.5 324 428.5C322.527 428.5 321.333 429.694 321.333 431.166C321.333 432.639 322.527 433.833 324 433.833Z" fill="#F8F9FA"/>
<path fill-rule="evenodd" clip-rule="evenodd" d="M317.333 432.5C317.333 434.102 317.898 435.572 318.84 436.721C320.062 438.214 321.92 439.166 324 439.166C327.681 439.166 330.666 436.182 330.666 432.5C330.666 428.818 327.682 425.833 324 425.833C320.318 425.833 317.333 428.818 317.333 432.5ZM324 435.166C322.454 435.166 320.997 435.542 319.713 436.206C318.853 435.213 318.333 433.917 318.333 432.5C318.333 429.37 320.87 426.833 324 426.833C327.129 426.833 329.666 429.37 329.666 432.5C329.666 433.917 329.146 435.213 328.286 436.207C327.002 435.542 325.545 435.166 324 435.166Z" fill="#F8F9FA"/>
</g>
<path d="M344 432.5H504" stroke="white" stroke-opacity="0.2" stroke-width="4" stroke-linecap="round"/>
<path d="M516 432.5H688" stroke="white" stroke-opacity="0.2" stroke-width="4" stroke-linecap="round"/>
<path d="M316 451.333H692" stroke="white" stroke-opacity="0.2"/>
<g opacity="0.2">
<path d="M319.8 465.499C319.469 465.499 319.2 465.759 319.2 466.079V466.302C319.2 466.334 319.227 466.36 319.26 466.36H321.546C321.934 466.36 322.277 466.6 322.4 466.955L322.728 467.907C322.769 468.026 322.884 468.106 323.013 468.106H328.697C329.132 468.106 329.504 468.407 329.582 468.821L329.881 470.41C329.894 470.479 330 470.47 330 470.399V466.079C330 465.759 329.731 465.499 329.4 465.499H319.8Z" fill="#F8F9FA"/>
<path d="M318.193 466.961C318.199 466.958 318.206 466.957 318.213 466.957H321.494C321.624 466.957 321.739 467.038 321.781 467.156L322.111 468.112C322.234 468.468 322.58 468.709 322.97 468.709H328.692C328.838 468.709 328.963 468.809 328.989 468.948L329.999 474.301C330 474.306 330 474.312 330 474.317C329.963 474.605 329.708 474.828 329.4 474.828H329.359C329.333 474.831 329.307 474.832 329.28 474.832H319.645C319.344 474.832 319.089 474.619 319.047 474.332L318.003 467.274C317.983 467.135 318.066 467.008 318.193 466.961Z" fill="#F8F9FA"/>
</g>
<path d="M344 470.166H469" stroke="white" stroke-opacity="0.2" stroke-width="4" stroke-linecap="round"/>
<path d="M481 470.166H688" stroke="white" stroke-opacity="0.2" stroke-width="4" stroke-linecap="round"/>
</g>
</g>
</g>
<g clip-path="url(#clip9_3225_12033)">
<g clip-path="url(#clip10_3225_12033)">
<rect x="708" y="56" width="128" height="96" rx="4" fill="white" fill-opacity="0.02"/>
<g opacity="0.2">
<path d="M719.8 67.334C719.469 67.334 719.2 67.5938 719.2 67.9144V68.1368C719.2 68.1688 719.227 68.1948 719.26 68.1948H721.546C721.934 68.1948 722.277 68.4346 722.4 68.7901L722.728 69.7422C722.769 69.8607 722.884 69.9407 723.013 69.9407H728.697C729.132 69.9407 729.504 70.2416 729.582 70.6556L729.881 72.2446C729.894 72.3142 730 72.305 730 72.2343V67.9144C730 67.5938 729.731 67.334 729.4 67.334H719.8Z" fill="#F8F9FA"/>
<path d="M718.193 68.7957C718.199 68.7934 718.206 68.7923 718.213 68.7923H721.494C721.624 68.7923 721.739 68.8725 721.781 68.9914L722.111 69.9465C722.234 70.3031 722.58 70.5437 722.97 70.5437H728.692C728.838 70.5437 728.963 70.6443 728.989 70.7827L729.999 76.1356C730 76.1411 730 76.1467 730 76.1523C729.963 76.4399 729.708 76.6625 729.4 76.6625H729.359C729.333 76.6657 729.307 76.6673 729.28 76.6673H719.645C719.344 76.6673 719.089 76.4542 719.047 76.1673L718.003 69.1085C717.983 68.9699 718.066 68.8429 718.193 68.7957Z" fill="#F8F9FA"/>
</g>
<path d="M744 72H824" stroke="white" stroke-opacity="0.2" stroke-width="4" stroke-linecap="round"/>
<path d="M720 104H800" stroke="white" stroke-opacity="0.2" stroke-width="4" stroke-linecap="round"/>
<g opacity="0.2">
<path fill-rule="evenodd" clip-rule="evenodd" d="M817.528 99.5292C817.789 99.2689 818.211 99.2689 818.471 99.5292L822.471 103.529C822.731 103.79 822.731 104.212 822.471 104.472L818.471 108.472C818.211 108.732 817.789 108.732 817.528 108.472C817.268 108.212 817.268 107.79 817.528 107.529L821.057 104.001L817.528 100.472C817.268 100.212 817.268 99.7896 817.528 99.5292Z" fill="#F8F9FA"/>
</g>
<path d="M720 136H800" stroke="white" stroke-opacity="0.2" stroke-width="4" stroke-linecap="round"/>
<g opacity="0.2">
<path fill-rule="evenodd" clip-rule="evenodd" d="M815.528 133.529C815.789 133.269 816.211 133.269 816.471 133.529L820 137.058L823.528 133.529C823.789 133.269 824.211 133.269 824.471 133.529C824.731 133.79 824.731 134.212 824.471 134.472L820.471 138.472C820.211 138.732 819.789 138.732 819.528 138.472L815.528 134.472C815.268 134.212 815.268 133.79 815.528 133.529Z" fill="#F8F9FA"/>
</g>
</g>
<g clip-path="url(#clip11_3225_12033)">
<rect x="708" y="164" width="128" height="324" rx="4" fill="white" fill-opacity="0.02"/>
<g clip-path="url(#clip12_3225_12033)">
<rect x="716" y="180.285" width="12" height="12" rx="6" fill="#0083F5"/>
<path d="M740 186.285H828" stroke="white" stroke-opacity="0.2" stroke-width="4" stroke-linecap="round"/>
<path d="M716 209.572H828" stroke="white" stroke-opacity="0.2"/>
<rect x="716" y="226.857" width="12" height="12" rx="6" fill="#0083F5"/>
<path d="M740 232.857H828" stroke="white" stroke-opacity="0.2" stroke-width="4" stroke-linecap="round"/>
<path d="M716 256.143H828" stroke="white" stroke-opacity="0.2"/>
<rect x="716" y="273.428" width="12" height="12" rx="6" fill="#0083F5"/>
<path d="M740 279.428H828" stroke="white" stroke-opacity="0.2" stroke-width="4" stroke-linecap="round"/>
<path d="M716 302.715H828" stroke="white" stroke-opacity="0.2"/>
<rect x="716" y="320" width="12" height="12" rx="6" fill="#0083F5"/>
<path d="M740 326H828" stroke="white" stroke-opacity="0.2" stroke-width="4" stroke-linecap="round"/>
<path d="M716 349.285H828" stroke="white" stroke-opacity="0.2"/>
<rect x="716" y="366.57" width="12" height="12" rx="6" fill="#0083F5"/>
<path d="M740 372.57H828" stroke="white" stroke-opacity="0.2" stroke-width="4" stroke-linecap="round"/>
<path d="M716 395.857H828" stroke="white" stroke-opacity="0.2"/>
<rect x="716" y="413.144" width="12" height="12" rx="6" fill="#0083F5"/>
<path d="M740 419.144H828" stroke="white" stroke-opacity="0.2" stroke-width="4" stroke-linecap="round"/>
<path d="M716 442.429H828" stroke="white" stroke-opacity="0.2"/>
<rect x="716" y="459.715" width="12" height="12" rx="6" fill="#0083F5"/>
<path d="M740 465.715H828" stroke="white" stroke-opacity="0.2" stroke-width="4" stroke-linecap="round"/>
</g>
</g>
</g>
</g>
<defs>
<filter id="filter0_d_3225_12033" x="292" y="44" width="424" height="317" filterUnits="userSpaceOnUse" color-interpolation-filters="sRGB">
<feFlood flood-opacity="0" result="BackgroundImageFix"/>
<feColorMatrix in="SourceAlpha" type="matrix" values="0 0 0 0 0 0 0 0 0 0 0 0 0 0 0 0 0 0 127 0" result="hardAlpha"/>
<feOffset dy="4"/>
<feGaussianBlur stdDeviation="8"/>
<feColorMatrix type="matrix" values="0 0 0 0 0.12549 0 0 0 0 0.164706 0 0 0 0 0.258824 0 0 0 0.16 0"/>
<feBlend mode="normal" in2="BackgroundImageFix" result="effect1_dropShadow_3225_12033"/>
<feBlend mode="normal" in="SourceGraphic" in2="effect1_dropShadow_3225_12033" result="shape"/>
</filter>
<filter id="filter1_d_3225_12033" x="292" y="341" width="424" height="167" filterUnits="userSpaceOnUse" color-interpolation-filters="sRGB">
<feFlood flood-opacity="0" result="BackgroundImageFix"/>
<feColorMatrix in="SourceAlpha" type="matrix" values="0 0 0 0 0 0 0 0 0 0 0 0 0 0 0 0 0 0 127 0" result="hardAlpha"/>
<feOffset dy="4"/>
<feGaussianBlur stdDeviation="8"/>
<feColorMatrix type="matrix" values="0 0 0 0 0.12549 0 0 0 0 0.164706 0 0 0 0 0.258824 0 0 0 0.16 0"/>
<feBlend mode="normal" in2="BackgroundImageFix" result="effect1_dropShadow_3225_12033"/>
<feBlend mode="normal" in="SourceGraphic" in2="effect1_dropShadow_3225_12033" result="shape"/>
</filter>
<clipPath id="clip0_3225_12033">
<rect y="58" width="680" height="400" rx="16" fill="white"/>
</clipPath>
<clipPath id="clip1_3225_12033">
<rect x="44.7998" y="98" width="579.2" height="352" rx="4" fill="white"/>
</clipPath>
<clipPath id="clip2_3225_12033">
<rect x="328" y="62" width="680" height="400" rx="16" fill="white"/>
</clipPath>
<clipPath id="clip3_3225_12033">
<rect x="372.8" y="102" width="579.2" height="352" rx="4" fill="white"/>
</clipPath>
<clipPath id="clip4_3225_12033">
<rect x="164" y="16" width="680" height="480" rx="16" fill="white"/>
</clipPath>
<clipPath id="clip5_3225_12033">
<path d="M172 60C172 57.7909 173.791 56 176 56H296C298.209 56 300 57.7909 300 60V484C300 486.209 298.209 488 296 488H176C173.791 488 172 486.209 172 484V60Z" fill="white"/>
</clipPath>
<clipPath id="clip6_3225_12033">
<rect x="308" y="56" width="392" height="285" rx="4" fill="white"/>
</clipPath>
<clipPath id="clip7_3225_12033">
<rect x="308" y="353" width="392" height="135" rx="4" fill="white"/>
</clipPath>
<clipPath id="clip8_3225_12033">
<rect x="308" y="377" width="392" height="111" rx="4" fill="white"/>
</clipPath>
<clipPath id="clip9_3225_12033">
<rect width="128" height="432" fill="white" transform="translate(708 56)"/>
</clipPath>
<clipPath id="clip10_3225_12033">
<rect x="708" y="56" width="128" height="96" rx="4" fill="white"/>
</clipPath>
<clipPath id="clip11_3225_12033">
<rect x="708" y="164" width="128" height="324" rx="4" fill="white"/>
</clipPath>
<clipPath id="clip12_3225_12033">
<rect x="708" y="164" width="128" height="324" rx="4" fill="white"/>
</clipPath>
</defs>
</svg>
