<svg width="880" height="544" viewBox="0 0 880 544" fill="none" xmlns="http://www.w3.org/2000/svg">
<g clip-path="url(#clip0_3225_18789)">
<rect width="880" height="544" rx="16" fill="#142438"/>
<rect width="880" height="32" fill="#0D1825"/>
<circle cx="28" cy="16" r="4" fill="#CF3232"/>
<circle cx="42" cy="16" r="4" fill="#FFCC00"/>
<circle cx="56" cy="16" r="4" fill="#28BB5A"/>
<rect width="880" height="512" transform="translate(0 32)" fill="#142438"/>
<g clip-path="url(#clip1_3225_18789)">
<path d="M12 48C12 45.7909 13.7909 44 16 44H168C170.209 44 172 45.7909 172 48V528C172 530.209 170.209 532 168 532H16C13.7909 532 12 530.209 12 528V48Z" fill="white" fill-opacity="0.02"/>
<path fill-rule="evenodd" clip-rule="evenodd" d="M29.1357 69.8857C29.1357 72.1579 30.9777 73.9999 33.2499 73.9999V66.8643C33.2499 64.5921 31.4079 62.7501 29.1357 62.7501L22 62.7501C22 65.0223 23.842 66.8643 26.1143 66.8643H29.1357V69.8857Z" fill="white"/>
<path d="M30.7499 54C33.0222 54 34.8642 55.842 34.8642 58.1142V61.1356L37.8856 61.1356C40.1579 61.1356 41.9999 62.9776 41.9999 65.2498C39.3147 65.2498 36.6295 65.2498 33.9443 65.2498C33.4547 63.7181 32.2644 62.4999 30.7499 61.9728V54Z" fill="white"/>
<path d="M104.377 62.2667C103.841 62.2667 103.404 62.1102 103.068 61.7973C102.731 61.4844 102.563 61.0965 102.563 60.6334C102.563 60.1703 102.731 59.7823 103.068 59.4694C103.404 59.1565 103.841 59.0001 104.377 59.0001C104.913 59.0001 105.349 59.1503 105.686 59.4507C106.022 59.7385 106.191 60.114 106.191 60.5771C106.191 61.0652 106.022 61.4719 105.686 61.7973C105.362 62.1102 104.925 62.2667 104.377 62.2667Z" fill="white"/>
<path d="M54.0875 74C53.0776 74 52.1363 73.8373 51.2636 73.5119C50.4033 73.174 49.6552 72.6984 49.0194 72.0851C48.3835 71.4719 47.8848 70.7522 47.5233 69.9262C47.1742 69.1002 46.9996 68.1928 46.9996 67.2041C46.9996 66.2153 47.1742 65.3079 47.5233 64.4819C47.8848 63.6559 48.3835 62.9362 49.0194 62.323C49.6677 61.7097 50.422 61.2404 51.2823 60.915C52.1425 60.5771 53.0839 60.4081 54.1062 60.4081C55.2408 60.4081 56.2631 60.6083 57.1733 61.0088C58.0959 61.3968 58.8689 61.9725 59.4923 62.736L57.5473 64.5382C57.0985 64.0251 56.5998 63.6434 56.0512 63.3931C55.5026 63.1302 54.9041 62.9988 54.2558 62.9988C53.6449 62.9988 53.0839 63.0989 52.5727 63.2992C52.0615 63.4994 51.6189 63.7873 51.2449 64.1628C50.8708 64.5382 50.5778 64.9825 50.3659 65.4957C50.1664 66.0088 50.0667 66.5783 50.0667 67.2041C50.0667 67.8298 50.1664 68.3993 50.3659 68.9124C50.5778 69.4256 50.8708 69.8699 51.2449 70.2453C51.6189 70.6208 52.0615 70.9087 52.5727 71.1089C53.0839 71.3092 53.6449 71.4093 54.2558 71.4093C54.9041 71.4093 55.5026 71.2841 56.0512 71.0338C56.5998 70.771 57.0985 70.3767 57.5473 69.8511L59.4923 71.6533C58.8689 72.4168 58.0959 72.9988 57.1733 73.3993C56.2631 73.7998 55.2345 74 54.0875 74Z" fill="white"/>
<path fill-rule="evenodd" clip-rule="evenodd" d="M68.9079 64.6133C69.7557 65.3392 70.1796 66.4719 70.1796 68.0113V73.7747H67.4492V72.5197C67.2295 72.8904 66.9303 73.1899 66.5515 73.418C65.9905 73.7559 65.2674 73.9249 64.3822 73.9249C63.5967 73.9249 62.9234 73.7935 62.3624 73.5307C61.8013 73.2553 61.3712 72.8861 61.072 72.423C60.7727 71.96 60.6231 71.4406 60.6231 70.8649C60.6231 70.2641 60.7665 69.7385 61.0533 69.2879C61.3525 68.8373 61.82 68.4869 62.4559 68.2366C63.0917 67.9738 63.9208 67.8423 64.9432 67.8423H67.2622C67.2622 67.2166 67.0689 66.7285 66.6824 66.378C66.3084 66.0276 65.7287 65.8524 64.9432 65.8524C64.4071 65.8524 63.8772 65.94 63.3536 66.1152C62.8424 66.2779 62.406 66.5032 62.0445 66.791L60.9972 64.7447C61.5457 64.3568 62.2065 64.0564 62.9795 63.8436C63.7525 63.6309 64.538 63.5245 65.3359 63.5245C66.8695 63.5245 68.0601 63.8874 68.9079 64.6133ZM63.8398 69.8886C64.1016 69.6634 64.5754 69.5507 65.2611 69.5507H67.2622V70.5833C67.0876 71.0338 66.8071 71.378 66.4206 71.6158C66.0341 71.8411 65.5978 71.9537 65.1115 71.9537C64.6003 71.9537 64.1951 71.8473 63.8959 71.6346C63.6092 71.4093 63.4658 71.1089 63.4658 70.7334C63.4658 70.3955 63.5905 70.1139 63.8398 69.8886Z" fill="white"/>
<path d="M81.0675 64.0126C80.4441 63.6872 79.7334 63.5245 78.9355 63.5245C78.0752 63.5245 77.3085 63.706 76.6352 64.0689C76.2381 64.283 75.8953 64.5514 75.6066 64.8743V63.6747H72.8201V73.7747H75.7375V68.781C75.7375 68.1552 75.8373 67.6421 76.0367 67.2416C76.2487 66.8411 76.5355 66.547 76.897 66.3593C77.2711 66.159 77.6887 66.0589 78.15 66.0589C78.7984 66.0589 79.2971 66.2529 79.6462 66.6409C80.0077 67.0288 80.1885 67.6296 80.1885 68.4431V73.7747H83.1059V67.9925C83.1059 66.9663 82.9252 66.1277 82.5636 65.4769C82.202 64.8136 81.7033 64.3255 81.0675 64.0126Z" fill="white"/>
<path fill-rule="evenodd" clip-rule="evenodd" d="M93.3807 64.6133C94.2285 65.3392 94.6524 66.4719 94.6524 68.0113V73.7747H91.922V72.5197C91.7023 72.8904 91.4031 73.1899 91.0243 73.418C90.4633 73.7559 89.7401 73.9249 88.8549 73.9249C88.0695 73.9249 87.3962 73.7935 86.8352 73.5307C86.2741 73.2553 85.844 72.8861 85.5447 72.423C85.2455 71.96 85.0959 71.4406 85.0959 70.8649C85.0959 70.2641 85.2393 69.7385 85.5261 69.2879C85.8253 68.8373 86.2928 68.4869 86.9287 68.2366C87.5645 67.9738 88.3936 67.8423 89.416 67.8423H91.735C91.735 67.2166 91.5417 66.7285 91.1552 66.378C90.7812 66.0276 90.2014 65.8524 89.416 65.8524C88.8799 65.8524 88.35 65.94 87.8263 66.1152C87.3152 66.2779 86.8788 66.5032 86.5172 66.791L85.4699 64.7447C86.0185 64.3568 86.6793 64.0564 87.4523 63.8436C88.2253 63.6309 89.0108 63.5245 89.8087 63.5245C91.3422 63.5245 92.5329 63.8874 93.3807 64.6133ZM88.3126 69.8886C88.5744 69.6634 89.0482 69.5507 89.7339 69.5507H91.735V70.5833C91.5604 71.0338 91.2799 71.378 90.8934 71.6158C90.5069 71.8411 90.0705 71.9537 89.5843 71.9537C89.0731 71.9537 88.6679 71.8473 88.3687 71.6346C88.0819 71.4093 87.9386 71.1089 87.9386 70.7334C87.9386 70.3955 88.0632 70.1139 88.3126 69.8886Z" fill="white"/>
<path d="M111.142 68.6801L107.271 73.7747H110.451L112.736 70.6811L114.939 73.7747H118.249L114.357 68.6139L118.1 63.6747H114.995L112.809 66.6243L110.675 63.6747H107.402L111.142 68.6801Z" fill="white"/>
<path d="M102.918 73.7747V63.6747H105.835V73.7747H102.918Z" fill="white"/>
<path d="M97.2929 59.8449V73.7747H100.21V59.8449H97.2929Z" fill="white"/>
<rect x="12" y="89" width="160" height="10" fill="#2752E7"/>
<rect x="157.167" y="84" width="10" height="10" rx="5" fill="#FFCC00"/>
<rect x="22" y="109" width="10" height="10" rx="5" fill="#0083F5"/>
<path d="M42 114H162" stroke="white" stroke-opacity="0.2" stroke-width="3.33333" stroke-linecap="round"/>
<path d="M18.667 129.833H165.334" stroke="white" stroke-opacity="0.2" stroke-width="0.833333"/>
<rect x="22" y="140.667" width="10" height="10" rx="5" fill="#0083F5"/>
<path d="M42 145.667H162" stroke="white" stroke-opacity="0.2" stroke-width="3.33333" stroke-linecap="round"/>
<path d="M18.667 161.5H165.334" stroke="white" stroke-opacity="0.2" stroke-width="0.833333"/>
<rect x="22" y="172.333" width="10" height="10" rx="5" fill="#0083F5"/>
<path d="M42 177.333H162" stroke="white" stroke-opacity="0.2" stroke-width="3.33333" stroke-linecap="round"/>
<path d="M18.667 193.166H165.334" stroke="white" stroke-opacity="0.2" stroke-width="0.833333"/>
<rect x="22" y="204" width="10" height="10" rx="5" fill="#0083F5"/>
<path d="M42 209H162" stroke="white" stroke-opacity="0.2" stroke-width="3.33333" stroke-linecap="round"/>
<path d="M18.667 224.833H165.334" stroke="white" stroke-opacity="0.2" stroke-width="0.833333"/>
<rect x="22" y="235.667" width="10" height="10" rx="5" fill="#0083F5"/>
<path d="M42 240.667H162" stroke="white" stroke-opacity="0.2" stroke-width="3.33333" stroke-linecap="round"/>
<path d="M18.667 256.5H165.334" stroke="white" stroke-opacity="0.2" stroke-width="0.833333"/>
<path d="M18.667 497.833H165.334" stroke="white" stroke-opacity="0.2" stroke-width="0.833333"/>
<path d="M22 515.334H138.667" stroke="white" stroke-opacity="0.2" stroke-width="3.33333" stroke-linecap="round"/>
<path fill-rule="evenodd" clip-rule="evenodd" d="M150.774 511.607C150.991 511.39 151.343 511.39 151.56 511.607L154.893 514.94C155.11 515.157 155.11 515.509 154.893 515.726L151.56 519.059C151.343 519.276 150.991 519.276 150.774 519.059C150.557 518.842 150.557 518.491 150.774 518.274L153.715 515.333L150.774 512.393C150.557 512.176 150.557 511.824 150.774 511.607Z" fill="#B3B7C1"/>
<path fill-rule="evenodd" clip-rule="evenodd" d="M155.774 511.607C155.991 511.39 156.343 511.39 156.56 511.607L159.893 514.94C160.11 515.157 160.11 515.509 159.893 515.726L156.56 519.059C156.343 519.276 155.991 519.276 155.774 519.059C155.557 518.842 155.557 518.491 155.774 518.274L158.715 515.333L155.774 512.393C155.557 512.176 155.557 511.824 155.774 511.607Z" fill="#B3B7C1"/>
</g>
<g clip-path="url(#clip2_3225_18789)">
<rect x="184" y="44" width="574" height="488" rx="4" fill="white" fill-opacity="0.02"/>
<rect width="574" height="20" transform="translate(184 44)" fill="white" fill-opacity="0.04"/>
<path d="M197.333 77.333H274" stroke="white" stroke-opacity="0.6" stroke-width="3.33333" stroke-linecap="round"/>
<path d="M197.333 90.667H390.666" stroke="white" stroke-opacity="0.6" stroke-width="3.33333" stroke-linecap="round"/>
<mask id="path-31-inside-1_3225_18789" fill="white">
<path d="M184 104H758V120.667H184V104Z"/>
</mask>
<path d="M184 104V104.833H758V104V103.167H184V104ZM758 120.667V119.833H184V120.667V121.5H758V120.667Z" fill="white" fill-opacity="0.2" mask="url(#path-31-inside-1_3225_18789)"/>
<path d="M210.667 104L210.667 120.667" stroke="white" stroke-opacity="0.2" stroke-width="0.833333"/>
<rect x="217.334" y="109.833" width="53.3333" height="5" rx="1.66667" fill="white" fill-opacity="0.2"/>
<path d="M364.833 104L364.833 120.667" stroke="white" stroke-opacity="0.2" stroke-width="0.833333"/>
<rect x="371.5" y="109.833" width="60" height="5" rx="1.66667" fill="white" fill-opacity="0.2"/>
<path d="M438.166 104L438.166 120.667" stroke="white" stroke-opacity="0.2" stroke-width="0.833333"/>
<rect x="444.833" y="109.833" width="60" height="5" rx="1.66667" fill="white" fill-opacity="0.2"/>
<path d="M511.5 104L511.5 120.667" stroke="white" stroke-opacity="0.2" stroke-width="0.833333"/>
<path d="M540.667 104L540.667 120.667" stroke="white" stroke-opacity="0.2" stroke-width="0.833333"/>
<rect x="547.334" y="109.833" width="53.3333" height="5" rx="1.66667" fill="white" fill-opacity="0.2"/>
<path d="M731.334 104L731.334 120.667" stroke="white" stroke-opacity="0.2" stroke-width="0.833333"/>
<g opacity="0.4">
<path d="M193.834 157.244C193.558 157.244 193.334 157.461 193.334 157.728V157.913C193.334 157.94 193.356 157.961 193.384 157.961H195.289C195.612 157.961 195.899 158.161 196.001 158.458L196.274 159.251C196.308 159.35 196.404 159.416 196.511 159.416H201.248C201.61 159.416 201.921 159.667 201.986 160.012L202.235 161.336C202.246 161.394 202.334 161.387 202.334 161.328V157.728C202.334 157.461 202.11 157.244 201.834 157.244H193.834Z" fill="#F8F9FA"/>
<path d="M192.495 158.462C192.5 158.46 192.506 158.459 192.511 158.459H195.246C195.354 158.459 195.45 158.526 195.484 158.625L195.76 159.421C195.862 159.718 196.151 159.919 196.476 159.919H201.244C201.366 159.919 201.47 160.003 201.492 160.118L202.333 164.579C202.334 164.583 202.334 164.588 202.334 164.593C202.303 164.832 202.091 165.018 201.834 165.018H201.8C201.778 165.021 201.757 165.022 201.734 165.022H193.705C193.454 165.022 193.242 164.844 193.207 164.605L192.337 158.723C192.319 158.607 192.389 158.502 192.495 158.462Z" fill="#F8F9FA"/>
</g>
<path d="M220.667 161.134H397.167" stroke="#15BB4C" stroke-width="3.33333" stroke-linecap="round"/>
<path d="M423.833 161.134H476.333" stroke="white" stroke-opacity="0.2" stroke-width="3.33333" stroke-linecap="round"/>
<path d="M503 161.134H554.667" stroke="#FFCC00" stroke-width="3.33333" stroke-linecap="round"/>
<path d="M591.333 161.133H628" stroke="white" stroke-opacity="0.2" stroke-width="3.33333" stroke-linecap="round"/>
<path d="M641.333 161.133H688" stroke="#0083F5" stroke-width="3.33333" stroke-linecap="round"/>
<path d="M701.333 161.133H734.666" stroke="white" stroke-opacity="0.2" stroke-width="3.33333" stroke-linecap="round"/>
<path d="M190.667 202.434H751.334" stroke="#536175" stroke-width="0.833333"/>
<g opacity="0.4">
<path d="M193.834 239.844C193.558 239.844 193.334 240.06 193.334 240.327V240.513C193.334 240.539 193.356 240.561 193.384 240.561H195.289C195.612 240.561 195.899 240.761 196.001 241.057L196.274 241.851C196.308 241.949 196.404 242.016 196.511 242.016H201.248C201.61 242.016 201.921 242.267 201.986 242.612L202.235 243.936C202.246 243.994 202.334 243.986 202.334 243.927V240.327C202.334 240.06 202.11 239.844 201.834 239.844H193.834Z" fill="#F8F9FA"/>
<path d="M192.495 241.062C192.5 241.06 192.506 241.059 192.511 241.059H195.246C195.354 241.059 195.45 241.126 195.484 241.225L195.76 242.021C195.862 242.318 196.151 242.518 196.476 242.518H201.244C201.366 242.518 201.47 242.602 201.492 242.718L202.333 247.178C202.334 247.183 202.334 247.188 202.334 247.192C202.303 247.432 202.091 247.618 201.834 247.618H201.8C201.778 247.62 201.757 247.622 201.734 247.622H193.705C193.454 247.622 193.242 247.444 193.207 247.205L192.337 241.323C192.319 241.207 192.389 241.101 192.495 241.062Z" fill="#F8F9FA"/>
</g>
<path d="M220.667 243.733H397.167" stroke="white" stroke-opacity="0.2" stroke-width="3.33333" stroke-linecap="round"/>
<path d="M423.833 243.733H476.333" stroke="#15BB4C" stroke-width="3.33333" stroke-linecap="round"/>
<path d="M503 243.733H554.667" stroke="#FFCC00" stroke-width="3.33333" stroke-linecap="round"/>
<path d="M591.333 243.733H628" stroke="white" stroke-opacity="0.2" stroke-width="3.33333" stroke-linecap="round"/>
<path d="M641.333 243.733H688" stroke="white" stroke-opacity="0.2" stroke-width="3.33333" stroke-linecap="round"/>
<path d="M701.333 243.733H734.666" stroke="#0083F5" stroke-width="3.33333" stroke-linecap="round"/>
<path d="M190.667 285.033H751.334" stroke="#536175" stroke-width="0.833333"/>
<g opacity="0.4">
<path d="M193.834 322.444C193.558 322.444 193.334 322.661 193.334 322.928V323.113C193.334 323.14 193.356 323.162 193.384 323.162H195.289C195.612 323.162 195.899 323.362 196.001 323.658L196.274 324.451C196.308 324.55 196.404 324.617 196.511 324.617H201.248C201.61 324.617 201.921 324.867 201.986 325.212L202.235 326.537C202.246 326.595 202.334 326.587 202.334 326.528V322.928C202.334 322.661 202.11 322.444 201.834 322.444H193.834Z" fill="#F8F9FA"/>
<path d="M192.495 323.662C192.5 323.66 192.506 323.66 192.511 323.66H195.246C195.354 323.66 195.45 323.726 195.484 323.825L195.76 324.621C195.862 324.919 196.151 325.119 196.476 325.119H201.244C201.366 325.119 201.47 325.203 201.492 325.318L202.333 329.779C202.334 329.784 202.334 329.788 202.334 329.793C202.303 330.033 202.091 330.218 201.834 330.218H201.8C201.778 330.221 201.757 330.222 201.734 330.222H193.705C193.454 330.222 193.242 330.044 193.207 329.805L192.337 323.923C192.319 323.808 192.389 323.702 192.495 323.662Z" fill="#F8F9FA"/>
</g>
<path d="M220.667 326.334H397.167" stroke="white" stroke-opacity="0.2" stroke-width="3.33333" stroke-linecap="round"/>
<path d="M423.833 326.334H476.333" stroke="#15BB4C" stroke-width="3.33333" stroke-linecap="round"/>
<path d="M503 326.334H554.667" stroke="#FFCC00" stroke-width="3.33333" stroke-linecap="round"/>
<path d="M591.333 326.334H628" stroke="#0083F5" stroke-width="3.33333" stroke-linecap="round"/>
<path d="M641.333 326.334H688" stroke="#0083F5" stroke-width="3.33333" stroke-linecap="round"/>
<path d="M701.333 326.334H734.666" stroke="white" stroke-opacity="0.2" stroke-width="3.33333" stroke-linecap="round"/>
<path d="M190.667 367.634H751.334" stroke="#536175" stroke-width="0.833333"/>
<g opacity="0.4">
<path d="M193.834 405.044C193.558 405.044 193.334 405.26 193.334 405.528V405.713C193.334 405.74 193.356 405.761 193.384 405.761H195.289C195.612 405.761 195.899 405.961 196.001 406.257L196.274 407.051C196.308 407.15 196.404 407.216 196.511 407.216H201.248C201.61 407.216 201.921 407.467 201.986 407.812L202.235 409.136C202.246 409.194 202.334 409.186 202.334 409.128V405.528C202.334 405.26 202.11 405.044 201.834 405.044H193.834Z" fill="#F8F9FA"/>
<path d="M192.495 406.262C192.5 406.26 192.506 406.259 192.511 406.259H195.246C195.354 406.259 195.45 406.326 195.484 406.425L195.76 407.221C195.862 407.518 196.151 407.719 196.476 407.719H201.244C201.366 407.719 201.47 407.803 201.492 407.918L202.333 412.379C202.334 412.383 202.334 412.388 202.334 412.393C202.303 412.632 202.091 412.818 201.834 412.818H201.8C201.778 412.82 201.757 412.822 201.734 412.822H193.705C193.454 412.822 193.242 412.644 193.207 412.405L192.337 406.523C192.319 406.407 192.389 406.301 192.495 406.262Z" fill="#F8F9FA"/>
</g>
<path d="M220.667 408.934H397.167" stroke="#15BB4C" stroke-width="3.33333" stroke-linecap="round"/>
<path d="M423.833 408.934H476.333" stroke="white" stroke-opacity="0.2" stroke-width="3.33333" stroke-linecap="round"/>
<path d="M503 408.934H554.667" stroke="#FFCC00" stroke-width="3.33333" stroke-linecap="round"/>
<path d="M591.333 408.934H628" stroke="white" stroke-opacity="0.2" stroke-width="3.33333" stroke-linecap="round"/>
<path d="M641.333 408.934H688" stroke="#0083F5" stroke-width="3.33333" stroke-linecap="round"/>
<path d="M701.333 408.934H734.666" stroke="white" stroke-opacity="0.2" stroke-width="3.33333" stroke-linecap="round"/>
<path d="M190.667 450.233H751.334" stroke="#536175" stroke-width="0.833333"/>
<g opacity="0.4">
<path d="M193.834 487.645C193.558 487.645 193.334 487.861 193.334 488.128V488.314C193.334 488.34 193.356 488.362 193.384 488.362H195.289C195.612 488.362 195.899 488.562 196.001 488.858L196.274 489.651C196.308 489.75 196.404 489.817 196.511 489.817H201.248C201.61 489.817 201.921 490.068 201.986 490.413L202.235 491.737C202.246 491.795 202.334 491.787 202.334 491.728V488.128C202.334 487.861 202.11 487.645 201.834 487.645H193.834Z" fill="#F8F9FA"/>
<path d="M192.495 488.863C192.5 488.861 192.506 488.86 192.511 488.86H195.246C195.354 488.86 195.45 488.927 195.484 489.026L195.76 489.822C195.862 490.119 196.151 490.319 196.476 490.319H201.244C201.366 490.319 201.47 490.403 201.492 490.518L202.333 494.979C202.334 494.984 202.334 494.989 202.334 494.993C202.303 495.233 202.091 495.418 201.834 495.418H201.8C201.778 495.421 201.757 495.422 201.734 495.422H193.705C193.454 495.422 193.242 495.245 193.207 495.006L192.337 489.123C192.319 489.008 192.389 488.902 192.495 488.863Z" fill="#F8F9FA"/>
</g>
<path d="M220.667 491.534H397.167" stroke="white" stroke-opacity="0.2" stroke-width="3.33333" stroke-linecap="round"/>
<path d="M423.833 491.534H476.333" stroke="#15BB4C" stroke-width="3.33333" stroke-linecap="round"/>
<path d="M503 491.534H554.667" stroke="#FFCC00" stroke-width="3.33333" stroke-linecap="round"/>
<path d="M591.333 491.533H628" stroke="white" stroke-opacity="0.2" stroke-width="3.33333" stroke-linecap="round"/>
<path d="M641.333 491.533H688" stroke="#0083F5" stroke-width="3.33333" stroke-linecap="round"/>
<path d="M701.333 491.533H734.666" stroke="white" stroke-opacity="0.2" stroke-width="3.33333" stroke-linecap="round"/>
</g>
<rect x="770" y="44" width="54" height="488" rx="4" fill="white" fill-opacity="0.02"/>
<rect x="785" y="62" width="24" height="24" rx="12" fill="#1876E3"/>
<rect x="791" y="122" width="12" height="12" rx="6" fill="#FFCF33"/>
<rect x="791" y="167" width="12" height="12" rx="6" fill="#8491B2"/>
<rect x="791" y="209" width="12" height="12" rx="6" fill="#8491B2"/>
<rect x="791" y="251" width="12" height="12" rx="6" fill="#8491B2"/>
<rect x="791" y="293" width="12" height="12" rx="6" fill="#8491B2"/>
<path d="M785.75 381H808.25" stroke="#536175" stroke-width="0.833333"/>
<rect x="791" y="457" width="12" height="12" rx="6" fill="#8491B2"/>
<rect x="791" y="499" width="12" height="12" rx="6" fill="#CE4F46"/>
<path d="M836 48C836 45.7909 837.791 44 840 44H864C866.209 44 868 45.7909 868 48V528C868 530.209 866.209 532 864 532H840C837.791 532 836 530.209 836 528V48Z" fill="white" fill-opacity="0.02"/>
<rect opacity="0.4" x="845.6" y="95.2002" width="12.8" height="12.8" rx="6.4" fill="white"/>
<rect opacity="0.4" x="845.6" y="120.8" width="12.8" height="12.8" rx="6.4" fill="white"/>
<rect opacity="0.4" x="845.6" y="146.4" width="12.8" height="12.8" rx="6.4" fill="white"/>
<rect opacity="0.4" x="845.6" y="172" width="12.8" height="12.8" rx="6.4" fill="white"/>
<rect x="863.203" y="84.002" width="9.6" height="9.6" rx="4.8" fill="#FFCC00"/>
</g>
<defs>
<clipPath id="clip0_3225_18789">
<rect width="880" height="544" rx="16" fill="white"/>
</clipPath>
<clipPath id="clip1_3225_18789">
<path d="M12 48C12 45.7909 13.7909 44 16 44H168C170.209 44 172 45.7909 172 48V528C172 530.209 170.209 532 168 532H16C13.7909 532 12 530.209 12 528V48Z" fill="white"/>
</clipPath>
<clipPath id="clip2_3225_18789">
<rect x="184" y="44" width="574" height="488" rx="4" fill="white"/>
</clipPath>
</defs>
</svg>
