<svg width="1200" height="800" viewBox="0 0 1200 800" fill="none" xmlns="http://www.w3.org/2000/svg">
<g filter="url(#filter0_d_138_211704)">
<g clip-path="url(#clip0_138_211704)">
<rect x="96" y="186" width="680" height="400" rx="16" fill="#142438"/>
<rect width="680" height="32" transform="translate(96 186)" fill="#0D1825"/>
<circle cx="124" cy="202" r="4" fill="#CF3232"/>
<circle cx="138" cy="202" r="4" fill="#FFCC00"/>
<circle cx="152" cy="202" r="4" fill="#28BB5A"/>
<rect width="680" height="368" transform="translate(96 218)" fill="#142438"/>
<path d="M104 230C104 227.791 105.791 226 108 226H128.8C131.009 226 132.8 227.791 132.8 230V574C132.8 576.209 131.009 578 128.8 578H108C105.791 578 104 576.209 104 574V230Z" fill="white" fill-opacity="0.02"/>
<rect opacity="0.4" x="112" y="277.2" width="12.8" height="12.8" rx="6.4" fill="white"/>
<rect opacity="0.4" x="112" y="302.8" width="12.8" height="12.8" rx="6.4" fill="white"/>
<rect opacity="0.4" x="112" y="328.4" width="12.8" height="12.8" rx="6.4" fill="white"/>
<rect opacity="0.4" x="112" y="354" width="12.8" height="12.8" rx="6.4" fill="white"/>
<rect x="128.8" y="269.2" width="8" height="8" rx="4" fill="#FFCC00"/>
<g clip-path="url(#clip1_138_211704)">
<rect x="140.8" y="226" width="579.2" height="352" rx="4" fill="white" fill-opacity="0.02"/>
<rect width="579.2" height="20" transform="translate(140.8 226)" fill="white" fill-opacity="0.04"/>
<path d="M154.133 259.333H230.799" stroke="white" stroke-opacity="0.6" stroke-width="3.33333" stroke-linecap="round"/>
<path d="M154.133 272.667H347.466" stroke="white" stroke-opacity="0.6" stroke-width="3.33333" stroke-linecap="round"/>
<mask id="path-14-inside-1_138_211704" fill="white">
<path d="M140.8 286H720V302.667H140.8V286Z"/>
</mask>
<path d="M140.8 286.833H720V285.167H140.8V286.833ZM720 301.833H140.8V303.5H720V301.833Z" fill="white" fill-opacity="0.2" mask="url(#path-14-inside-1_138_211704)"/>
<path d="M167.467 286L167.467 302.667" stroke="white" stroke-opacity="0.2" stroke-width="0.833333"/>
<rect x="174.134" y="291.833" width="53.3333" height="5" rx="1.66667" fill="white" fill-opacity="0.2"/>
<path d="M321.633 286L321.633 302.667" stroke="white" stroke-opacity="0.2" stroke-width="0.833333"/>
<rect x="328.3" y="291.833" width="60" height="5" rx="1.66667" fill="white" fill-opacity="0.2"/>
<path d="M394.966 286L394.966 302.667" stroke="white" stroke-opacity="0.2" stroke-width="0.833333"/>
<rect x="401.633" y="291.833" width="60" height="5" rx="1.66667" fill="white" fill-opacity="0.2"/>
<path d="M468.3 286L468.3 302.667" stroke="white" stroke-opacity="0.2" stroke-width="0.833333"/>
<path d="M497.467 286L497.467 302.667" stroke="white" stroke-opacity="0.2" stroke-width="0.833333"/>
<rect x="504.134" y="291.833" width="53.3333" height="5" rx="1.66667" fill="white" fill-opacity="0.2"/>
<path d="M693.333 286L693.333 302.667" stroke="white" stroke-opacity="0.2" stroke-width="0.833333"/>
<g opacity="0.4">
<path d="M150.634 325.645C150.358 325.645 150.134 325.861 150.134 326.128V326.314C150.134 326.34 150.156 326.362 150.184 326.362H152.089C152.412 326.362 152.698 326.562 152.8 326.858L153.074 327.651C153.108 327.75 153.203 327.817 153.311 327.817H158.048C158.41 327.817 158.721 328.068 158.786 328.413L159.035 329.737C159.045 329.795 159.134 329.787 159.134 329.728V326.128C159.134 325.861 158.91 325.645 158.634 325.645H150.634Z" fill="#F8F9FA"/>
<path d="M149.295 326.863C149.3 326.861 149.306 326.86 149.311 326.86H152.046C152.154 326.86 152.25 326.927 152.284 327.026L152.559 327.822C152.662 328.119 152.951 328.319 153.276 328.319H158.044C158.166 328.319 158.27 328.403 158.292 328.518L159.133 332.979C159.134 332.984 159.134 332.989 159.133 332.993C159.103 333.233 158.891 333.418 158.634 333.418H158.599C158.578 333.421 158.556 333.422 158.534 333.422H150.505C150.254 333.422 150.042 333.245 150.006 333.006L149.136 327.123C149.119 327.008 149.189 326.902 149.295 326.863Z" fill="#F8F9FA"/>
</g>
<path d="M177.467 329.533H359.167" stroke="#15BB4C" stroke-width="3.33333" stroke-linecap="round"/>
<path d="M385.833 329.533H438.333" stroke="white" stroke-opacity="0.2" stroke-width="3.33333" stroke-linecap="round"/>
<path d="M465 329.533H516.667" stroke="#FFCC00" stroke-width="3.33333" stroke-linecap="round"/>
<path d="M553.333 329.533H590" stroke="white" stroke-opacity="0.2" stroke-width="3.33333" stroke-linecap="round"/>
<path d="M603.333 329.533H650" stroke="#0083F5" stroke-width="3.33333" stroke-linecap="round"/>
<path d="M663.333 329.533H696.666" stroke="white" stroke-opacity="0.2" stroke-width="3.33333" stroke-linecap="round"/>
<path d="M147.467 357.233H713.334" stroke="#536175" stroke-width="0.833333"/>
<g opacity="0.4">
<path d="M150.634 381.044C150.358 381.044 150.134 381.261 150.134 381.528V381.713C150.134 381.74 150.156 381.762 150.184 381.762H152.089C152.412 381.762 152.698 381.962 152.8 382.258L153.074 383.051C153.108 383.15 153.203 383.217 153.311 383.217H158.048C158.41 383.217 158.721 383.467 158.786 383.812L159.035 385.137C159.045 385.195 159.134 385.187 159.134 385.128V381.528C159.134 381.261 158.91 381.044 158.634 381.044H150.634Z" fill="#F8F9FA"/>
<path d="M149.295 382.263C149.3 382.261 149.306 382.26 149.311 382.26H152.046C152.154 382.26 152.25 382.327 152.284 382.426L152.559 383.222C152.662 383.519 152.951 383.719 153.276 383.719H158.044C158.166 383.719 158.27 383.803 158.292 383.918L159.133 388.379C159.134 388.384 159.134 388.388 159.133 388.393C159.103 388.633 158.891 388.818 158.634 388.818H158.599C158.578 388.821 158.556 388.822 158.534 388.822H150.505C150.254 388.822 150.042 388.645 150.006 388.405L149.136 382.523C149.119 382.408 149.189 382.302 149.295 382.263Z" fill="#F8F9FA"/>
</g>
<path d="M177.467 384.933H359.167" stroke="white" stroke-opacity="0.2" stroke-width="3.33333" stroke-linecap="round"/>
<path d="M385.833 384.933H438.333" stroke="#15BB4C" stroke-width="3.33333" stroke-linecap="round"/>
<path d="M465 384.933H516.667" stroke="#FFCC00" stroke-width="3.33333" stroke-linecap="round"/>
<path d="M553.333 384.933H590" stroke="white" stroke-opacity="0.2" stroke-width="3.33333" stroke-linecap="round"/>
<path d="M603.333 384.933H650" stroke="white" stroke-opacity="0.2" stroke-width="3.33333" stroke-linecap="round"/>
<path d="M663.333 384.933H696.666" stroke="#0083F5" stroke-width="3.33333" stroke-linecap="round"/>
<path d="M147.467 412.633H713.334" stroke="#536175" stroke-width="0.833333"/>
<g opacity="0.4">
<path d="M150.634 436.444C150.358 436.444 150.134 436.661 150.134 436.928V437.113C150.134 437.14 150.156 437.162 150.184 437.162H152.089C152.412 437.162 152.698 437.362 152.8 437.658L153.074 438.451C153.108 438.55 153.203 438.617 153.311 438.617H158.048C158.41 438.617 158.721 438.867 158.786 439.212L159.035 440.537C159.045 440.595 159.134 440.587 159.134 440.528V436.928C159.134 436.661 158.91 436.444 158.634 436.444H150.634Z" fill="#F8F9FA"/>
<path d="M149.295 437.662C149.3 437.66 149.306 437.66 149.311 437.66H152.046C152.154 437.66 152.25 437.726 152.284 437.825L152.559 438.621C152.662 438.919 152.951 439.119 153.276 439.119H158.044C158.166 439.119 158.27 439.203 158.292 439.318L159.133 443.779C159.134 443.784 159.134 443.788 159.133 443.793C159.103 444.033 158.891 444.218 158.634 444.218H158.599C158.578 444.221 158.556 444.222 158.534 444.222H150.505C150.254 444.222 150.042 444.044 150.006 443.805L149.136 437.923C149.119 437.808 149.189 437.702 149.295 437.662Z" fill="#F8F9FA"/>
</g>
<path d="M177.467 440.333H359.167" stroke="white" stroke-opacity="0.2" stroke-width="3.33333" stroke-linecap="round"/>
<path d="M385.833 440.333H438.333" stroke="#15BB4C" stroke-width="3.33333" stroke-linecap="round"/>
<path d="M465 440.333H516.667" stroke="#FFCC00" stroke-width="3.33333" stroke-linecap="round"/>
<path d="M553.333 440.333H590" stroke="#0083F5" stroke-width="3.33333" stroke-linecap="round"/>
<path d="M603.333 440.333H650" stroke="#0083F5" stroke-width="3.33333" stroke-linecap="round"/>
<path d="M663.333 440.333H696.666" stroke="white" stroke-opacity="0.2" stroke-width="3.33333" stroke-linecap="round"/>
<path d="M147.467 468.033H713.334" stroke="#536175" stroke-width="0.833333"/>
<g opacity="0.4">
<path d="M150.634 491.845C150.358 491.845 150.134 492.061 150.134 492.328V492.514C150.134 492.54 150.156 492.562 150.184 492.562H152.089C152.412 492.562 152.698 492.762 152.8 493.058L153.074 493.852C153.108 493.95 153.203 494.017 153.311 494.017H158.048C158.41 494.017 158.721 494.268 158.786 494.613L159.035 495.937C159.045 495.995 159.134 495.987 159.134 495.928V492.328C159.134 492.061 158.91 491.845 158.634 491.845H150.634Z" fill="#F8F9FA"/>
<path d="M149.295 493.063C149.3 493.061 149.306 493.06 149.311 493.06H152.046C152.154 493.06 152.25 493.127 152.284 493.226L152.559 494.022C152.662 494.319 152.951 494.519 153.276 494.519H158.044C158.166 494.519 158.27 494.603 158.292 494.719L159.133 499.179C159.134 499.184 159.134 499.189 159.133 499.193C159.103 499.433 158.891 499.618 158.634 499.618H158.599C158.578 499.621 158.556 499.623 158.534 499.623H150.505C150.254 499.623 150.042 499.445 150.006 499.206L149.136 493.323C149.119 493.208 149.189 493.102 149.295 493.063Z" fill="#F8F9FA"/>
</g>
<path d="M177.467 495.733H359.167" stroke="#15BB4C" stroke-width="3.33333" stroke-linecap="round"/>
<path d="M385.833 495.733H438.333" stroke="white" stroke-opacity="0.2" stroke-width="3.33333" stroke-linecap="round"/>
<path d="M465 495.733H516.667" stroke="#FFCC00" stroke-width="3.33333" stroke-linecap="round"/>
<path d="M553.333 495.733H590" stroke="white" stroke-opacity="0.2" stroke-width="3.33333" stroke-linecap="round"/>
<path d="M603.333 495.733H650" stroke="#0083F5" stroke-width="3.33333" stroke-linecap="round"/>
<path d="M663.333 495.733H696.666" stroke="white" stroke-opacity="0.2" stroke-width="3.33333" stroke-linecap="round"/>
<path d="M147.467 523.434H713.334" stroke="#536175" stroke-width="0.833333"/>
<g opacity="0.4">
<path d="M150.634 547.245C150.358 547.245 150.134 547.461 150.134 547.728V547.914C150.134 547.94 150.156 547.962 150.184 547.962H152.089C152.412 547.962 152.698 548.162 152.8 548.458L153.074 549.251C153.108 549.35 153.203 549.417 153.311 549.417H158.048C158.41 549.417 158.721 549.668 158.786 550.013L159.035 551.337C159.045 551.395 159.134 551.387 159.134 551.328V547.728C159.134 547.461 158.91 547.245 158.634 547.245H150.634Z" fill="#F8F9FA"/>
<path d="M149.295 548.463C149.3 548.461 149.306 548.46 149.311 548.46H152.046C152.154 548.46 152.25 548.527 152.284 548.626L152.559 549.422C152.662 549.719 152.951 549.919 153.276 549.919H158.044C158.166 549.919 158.27 550.003 158.292 550.119L159.133 554.579C159.134 554.584 159.134 554.589 159.133 554.593C159.103 554.833 158.891 555.018 158.634 555.018H158.599C158.578 555.021 158.556 555.022 158.534 555.022H150.505C150.254 555.022 150.042 554.845 150.006 554.606L149.136 548.723C149.119 548.608 149.189 548.502 149.295 548.463Z" fill="#F8F9FA"/>
</g>
<path d="M177.467 551.133H359.167" stroke="white" stroke-opacity="0.2" stroke-width="3.33333" stroke-linecap="round"/>
<path d="M385.833 551.133H438.333" stroke="#15BB4C" stroke-width="3.33333" stroke-linecap="round"/>
<path d="M465 551.133H516.667" stroke="#FFCC00" stroke-width="3.33333" stroke-linecap="round"/>
<path d="M553.333 551.133H590" stroke="white" stroke-opacity="0.2" stroke-width="3.33333" stroke-linecap="round"/>
<path d="M603.333 551.133H650" stroke="#0083F5" stroke-width="3.33333" stroke-linecap="round"/>
<path d="M663.333 551.133H696.666" stroke="white" stroke-opacity="0.2" stroke-width="3.33333" stroke-linecap="round"/>
</g>
<path d="M728 230C728 227.791 729.791 226 732 226H764C766.209 226 768 227.791 768 230V574C768 576.209 766.209 578 764 578H732C729.791 578 728 576.209 728 574V230Z" fill="white" fill-opacity="0.02"/>
<rect x="738" y="236" width="20" height="20" rx="10" fill="#1876E3"/>
<rect x="742" y="280" width="12" height="12" rx="6" fill="#FFCF33"/>
<rect x="742" y="316" width="12" height="12" rx="6" fill="#8491B2"/>
<rect x="742" y="352" width="12" height="12" rx="6" fill="#8491B2"/>
<rect x="742" y="388" width="12" height="12" rx="6" fill="#8491B2"/>
<rect x="742" y="424" width="12" height="12" rx="6" fill="#8491B2"/>
<path d="M736.75 482.5H759.25" stroke="#536175" stroke-width="0.833333"/>
<rect x="742" y="512" width="12" height="12" rx="6" fill="#8491B2"/>
<rect x="742" y="548" width="12" height="12" rx="6" fill="#CE4F46"/>
</g>
</g>
<g filter="url(#filter1_d_138_211704)">
<g clip-path="url(#clip2_138_211704)">
<rect x="424" y="190" width="680" height="400" rx="16" fill="#142438"/>
<rect width="680" height="32" transform="translate(424 190)" fill="#0D1825"/>
<circle cx="452" cy="206" r="4" fill="#CF3232"/>
<circle cx="466" cy="206" r="4" fill="#FFCC00"/>
<circle cx="480" cy="206" r="4" fill="#28BB5A"/>
<rect width="680" height="368" transform="translate(424 222)" fill="#142438"/>
<path d="M432 234C432 231.791 433.791 230 436 230H456.8C459.009 230 460.8 231.791 460.8 234V578C460.8 580.209 459.009 582 456.8 582H436C433.791 582 432 580.209 432 578V234Z" fill="white" fill-opacity="0.02"/>
<rect opacity="0.4" x="440" y="281.2" width="12.8" height="12.8" rx="6.4" fill="white"/>
<rect opacity="0.4" x="440" y="306.8" width="12.8" height="12.8" rx="6.4" fill="white"/>
<rect opacity="0.4" x="440" y="332.4" width="12.8" height="12.8" rx="6.4" fill="white"/>
<rect opacity="0.4" x="440" y="358" width="12.8" height="12.8" rx="6.4" fill="white"/>
<rect x="456.8" y="273.2" width="8" height="8" rx="4" fill="#FFCC00"/>
<g clip-path="url(#clip3_138_211704)">
<rect x="468.8" y="230" width="579.2" height="352" rx="4" fill="white" fill-opacity="0.02"/>
<rect width="579.2" height="20" transform="translate(468.8 230)" fill="white" fill-opacity="0.04"/>
<path d="M482.133 263.333H558.799" stroke="white" stroke-opacity="0.6" stroke-width="3.33333" stroke-linecap="round"/>
<path d="M482.133 276.667H675.466" stroke="white" stroke-opacity="0.6" stroke-width="3.33333" stroke-linecap="round"/>
<mask id="path-97-inside-2_138_211704" fill="white">
<path d="M468.8 290H1048V306.667H468.8V290Z"/>
</mask>
<path d="M468.8 290.833H1048V289.167H468.8V290.833ZM1048 305.833H468.8V307.5H1048V305.833Z" fill="white" fill-opacity="0.2" mask="url(#path-97-inside-2_138_211704)"/>
<path d="M495.467 290L495.467 306.667" stroke="white" stroke-opacity="0.2" stroke-width="0.833333"/>
<rect x="502.134" y="295.833" width="53.3333" height="5" rx="1.66667" fill="white" fill-opacity="0.2"/>
<path d="M649.633 290L649.633 306.667" stroke="white" stroke-opacity="0.2" stroke-width="0.833333"/>
<rect x="656.3" y="295.833" width="60" height="5" rx="1.66667" fill="white" fill-opacity="0.2"/>
<path d="M722.966 290L722.966 306.667" stroke="white" stroke-opacity="0.2" stroke-width="0.833333"/>
<rect x="729.633" y="295.833" width="60" height="5" rx="1.66667" fill="white" fill-opacity="0.2"/>
<path d="M796.3 290L796.3 306.667" stroke="white" stroke-opacity="0.2" stroke-width="0.833333"/>
<path d="M825.467 290L825.467 306.667" stroke="white" stroke-opacity="0.2" stroke-width="0.833333"/>
<rect x="832.134" y="295.833" width="53.3333" height="5" rx="1.66667" fill="white" fill-opacity="0.2"/>
<path d="M1021.33 290L1021.33 306.667" stroke="white" stroke-opacity="0.2" stroke-width="0.833333"/>
<g opacity="0.4">
<path d="M478.634 329.645C478.358 329.645 478.134 329.861 478.134 330.128V330.314C478.134 330.34 478.156 330.362 478.184 330.362H480.089C480.412 330.362 480.698 330.562 480.8 330.858L481.074 331.651C481.108 331.75 481.203 331.817 481.311 331.817H486.048C486.41 331.817 486.721 332.068 486.786 332.413L487.035 333.737C487.045 333.795 487.134 333.787 487.134 333.728V330.128C487.134 329.861 486.91 329.645 486.634 329.645H478.634Z" fill="#F8F9FA"/>
<path d="M477.295 330.863C477.3 330.861 477.306 330.86 477.311 330.86H480.046C480.154 330.86 480.25 330.927 480.284 331.026L480.559 331.822C480.662 332.119 480.951 332.319 481.276 332.319H486.044C486.166 332.319 486.27 332.403 486.292 332.518L487.133 336.979C487.134 336.984 487.134 336.989 487.133 336.993C487.103 337.233 486.891 337.418 486.634 337.418H486.599C486.578 337.421 486.556 337.422 486.534 337.422H478.505C478.254 337.422 478.042 337.245 478.006 337.006L477.136 331.123C477.119 331.008 477.189 330.902 477.295 330.863Z" fill="#F8F9FA"/>
</g>
<path d="M505.467 333.533H873.833" stroke="#15BB4C" stroke-width="3.33333" stroke-linecap="round"/>
<path d="M900.5 333.533H953" stroke="white" stroke-opacity="0.2" stroke-width="3.33333" stroke-linecap="round"/>
<path d="M979.666 333.533H1031.33" stroke="#FFCC00" stroke-width="3.33333" stroke-linecap="round"/>
<path d="M475.467 361.233H1041.33" stroke="#536175" stroke-width="0.833333"/>
<g opacity="0.4">
<path d="M478.634 385.044C478.358 385.044 478.134 385.261 478.134 385.528V385.713C478.134 385.74 478.156 385.762 478.184 385.762H480.089C480.412 385.762 480.698 385.962 480.8 386.258L481.074 387.051C481.108 387.15 481.203 387.217 481.311 387.217H486.048C486.41 387.217 486.721 387.467 486.786 387.812L487.035 389.137C487.045 389.195 487.134 389.187 487.134 389.128V385.528C487.134 385.261 486.91 385.044 486.634 385.044H478.634Z" fill="#F8F9FA"/>
<path d="M477.295 386.263C477.3 386.261 477.306 386.26 477.311 386.26H480.046C480.154 386.26 480.25 386.327 480.284 386.426L480.559 387.222C480.662 387.519 480.951 387.719 481.276 387.719H486.044C486.166 387.719 486.27 387.803 486.292 387.918L487.133 392.379C487.134 392.384 487.134 392.388 487.133 392.393C487.103 392.633 486.891 392.818 486.634 392.818H486.599C486.578 392.821 486.556 392.822 486.534 392.822H478.505C478.254 392.822 478.042 392.645 478.006 392.405L477.136 386.523C477.119 386.408 477.189 386.302 477.295 386.263Z" fill="#F8F9FA"/>
</g>
<path d="M505.467 388.933H873.833" stroke="white" stroke-opacity="0.2" stroke-width="3.33333" stroke-linecap="round"/>
<path d="M900.5 388.933H953" stroke="#15BB4C" stroke-width="3.33333" stroke-linecap="round"/>
<path d="M979.666 388.933H1031.33" stroke="#FFCC00" stroke-width="3.33333" stroke-linecap="round"/>
<path d="M475.467 416.633H1041.33" stroke="#536175" stroke-width="0.833333"/>
<g opacity="0.4">
<path d="M478.634 440.444C478.358 440.444 478.134 440.661 478.134 440.928V441.113C478.134 441.14 478.156 441.162 478.184 441.162H480.089C480.412 441.162 480.698 441.362 480.8 441.658L481.074 442.451C481.108 442.55 481.203 442.617 481.311 442.617H486.048C486.41 442.617 486.721 442.867 486.786 443.212L487.035 444.537C487.045 444.595 487.134 444.587 487.134 444.528V440.928C487.134 440.661 486.91 440.444 486.634 440.444H478.634Z" fill="#F8F9FA"/>
<path d="M477.295 441.662C477.3 441.66 477.306 441.66 477.311 441.66H480.046C480.154 441.66 480.25 441.726 480.284 441.825L480.559 442.621C480.662 442.919 480.951 443.119 481.276 443.119H486.044C486.166 443.119 486.27 443.203 486.292 443.318L487.133 447.779C487.134 447.784 487.134 447.788 487.133 447.793C487.103 448.033 486.891 448.218 486.634 448.218H486.599C486.578 448.221 486.556 448.222 486.534 448.222H478.505C478.254 448.222 478.042 448.044 478.006 447.805L477.136 441.923C477.119 441.808 477.189 441.702 477.295 441.662Z" fill="#F8F9FA"/>
</g>
<path d="M505.467 444.333H687.167" stroke="white" stroke-opacity="0.2" stroke-width="3.33333" stroke-linecap="round"/>
<path d="M713.833 444.333H766.333" stroke="#15BB4C" stroke-width="3.33333" stroke-linecap="round"/>
<path d="M793 444.333H844.667" stroke="#FFCC00" stroke-width="3.33333" stroke-linecap="round"/>
<path d="M881.333 444.333H918" stroke="#0083F5" stroke-width="3.33333" stroke-linecap="round"/>
<path d="M931.333 444.333H978" stroke="#0083F5" stroke-width="3.33333" stroke-linecap="round"/>
<path d="M991.333 444.333H1024.67" stroke="white" stroke-opacity="0.2" stroke-width="3.33333" stroke-linecap="round"/>
<path d="M475.467 472.033H1041.33" stroke="#536175" stroke-width="0.833333"/>
<g opacity="0.4">
<path d="M478.634 495.845C478.358 495.845 478.134 496.061 478.134 496.328V496.514C478.134 496.54 478.156 496.562 478.184 496.562H480.089C480.412 496.562 480.698 496.762 480.8 497.058L481.074 497.852C481.108 497.95 481.203 498.017 481.311 498.017H486.048C486.41 498.017 486.721 498.268 486.786 498.613L487.035 499.937C487.045 499.995 487.134 499.987 487.134 499.928V496.328C487.134 496.061 486.91 495.845 486.634 495.845H478.634Z" fill="#F8F9FA"/>
<path d="M477.295 497.063C477.3 497.061 477.306 497.06 477.311 497.06H480.046C480.154 497.06 480.25 497.127 480.284 497.226L480.559 498.022C480.662 498.319 480.951 498.519 481.276 498.519H486.044C486.166 498.519 486.27 498.603 486.292 498.719L487.133 503.179C487.134 503.184 487.134 503.189 487.133 503.193C487.103 503.433 486.891 503.618 486.634 503.618H486.599C486.578 503.621 486.556 503.623 486.534 503.623H478.505C478.254 503.623 478.042 503.445 478.006 503.206L477.136 497.323C477.119 497.208 477.189 497.102 477.295 497.063Z" fill="#F8F9FA"/>
</g>
<path d="M505.467 499.733H687.167" stroke="#15BB4C" stroke-width="3.33333" stroke-linecap="round"/>
<path d="M713.833 499.733H766.333" stroke="white" stroke-opacity="0.2" stroke-width="3.33333" stroke-linecap="round"/>
<path d="M793 499.733H844.667" stroke="#FFCC00" stroke-width="3.33333" stroke-linecap="round"/>
<path d="M881.333 499.733H918" stroke="white" stroke-opacity="0.2" stroke-width="3.33333" stroke-linecap="round"/>
<path d="M931.333 499.733H978" stroke="#0083F5" stroke-width="3.33333" stroke-linecap="round"/>
<path d="M991.333 499.733H1024.67" stroke="white" stroke-opacity="0.2" stroke-width="3.33333" stroke-linecap="round"/>
<path d="M475.467 527.434H1041.33" stroke="#536175" stroke-width="0.833333"/>
<g opacity="0.4">
<path d="M478.634 551.245C478.358 551.245 478.134 551.461 478.134 551.728V551.914C478.134 551.94 478.156 551.962 478.184 551.962H480.089C480.412 551.962 480.698 552.162 480.8 552.458L481.074 553.251C481.108 553.35 481.203 553.417 481.311 553.417H486.048C486.41 553.417 486.721 553.668 486.786 554.013L487.035 555.337C487.045 555.395 487.134 555.387 487.134 555.328V551.728C487.134 551.461 486.91 551.245 486.634 551.245H478.634Z" fill="#F8F9FA"/>
<path d="M477.295 552.463C477.3 552.461 477.306 552.46 477.311 552.46H480.046C480.154 552.46 480.25 552.527 480.284 552.626L480.559 553.422C480.662 553.719 480.951 553.919 481.276 553.919H486.044C486.166 553.919 486.27 554.003 486.292 554.119L487.133 558.579C487.134 558.584 487.134 558.589 487.133 558.593C487.103 558.833 486.891 559.018 486.634 559.018H486.599C486.578 559.021 486.556 559.022 486.534 559.022H478.505C478.254 559.022 478.042 558.845 478.006 558.606L477.136 552.723C477.119 552.608 477.189 552.502 477.295 552.463Z" fill="#F8F9FA"/>
</g>
<path d="M505.467 555.133H873.833" stroke="white" stroke-opacity="0.2" stroke-width="3.33333" stroke-linecap="round"/>
<path d="M900.5 555.133H953" stroke="#15BB4C" stroke-width="3.33333" stroke-linecap="round"/>
<path d="M979.666 555.133H1031.33" stroke="#FFCC00" stroke-width="3.33333" stroke-linecap="round"/>
</g>
<path d="M1056 234C1056 231.791 1057.79 230 1060 230H1092C1094.21 230 1096 231.791 1096 234V578C1096 580.209 1094.21 582 1092 582H1060C1057.79 582 1056 580.209 1056 578V234Z" fill="white" fill-opacity="0.02"/>
<rect x="1066" y="240" width="20" height="20" rx="10" fill="#1876E3"/>
<rect x="1070" y="284" width="12" height="12" rx="6" fill="#FFCF33"/>
<rect x="1070" y="320" width="12" height="12" rx="6" fill="#8491B2"/>
<rect x="1070" y="356" width="12" height="12" rx="6" fill="#8491B2"/>
<rect x="1070" y="392" width="12" height="12" rx="6" fill="#8491B2"/>
<path d="M1064.75 486.5H1087.25" stroke="#536175" stroke-width="0.833333"/>
<rect x="1070" y="516" width="12" height="12" rx="6" fill="#8491B2"/>
<rect x="1070" y="552" width="12" height="12" rx="6" fill="#CE4F46"/>
</g>
</g>
<g filter="url(#filter2_d_138_211704)">
<g clip-path="url(#clip4_138_211704)">
<rect x="260" y="144" width="680" height="480" rx="16" fill="#142438"/>
<rect width="680" height="32" transform="translate(260 144)" fill="#0D1825"/>
<circle cx="288" cy="160" r="4" fill="#CF3232"/>
<circle cx="302" cy="160" r="4" fill="#FFCC00"/>
<circle cx="316" cy="160" r="4" fill="#28BB5A"/>
<rect width="680" height="448" transform="translate(260 176)" fill="#142438"/>
<g clip-path="url(#clip5_138_211704)">
<path d="M268 188C268 185.791 269.791 184 272 184H392C394.209 184 396 185.791 396 188V612C396 614.209 394.209 616 392 616H272C269.791 616 268 614.209 268 612V188Z" fill="white" fill-opacity="0.02"/>
<path fill-rule="evenodd" clip-rule="evenodd" d="M285.136 209.886C285.136 212.158 286.978 214 289.25 214V206.864C289.25 204.592 287.408 202.75 285.136 202.75L278 202.75C278 205.022 279.842 206.864 282.114 206.864H285.136V209.886Z" fill="white"/>
<path d="M286.75 194C289.022 194 290.864 195.842 290.864 198.114V201.136L293.886 201.136C296.158 201.136 298 202.978 298 205.25C295.315 205.25 292.629 205.25 289.944 205.25C289.455 203.718 288.264 202.5 286.75 201.973V194Z" fill="white"/>
<path d="M360.377 202.267C359.841 202.267 359.404 202.11 359.068 201.797C358.731 201.484 358.563 201.096 358.563 200.633C358.563 200.17 358.731 199.782 359.068 199.469C359.404 199.157 359.841 199 360.377 199C360.913 199 361.349 199.15 361.686 199.451C362.022 199.739 362.191 200.114 362.191 200.577C362.191 201.065 362.022 201.472 361.686 201.797C361.362 202.11 360.925 202.267 360.377 202.267Z" fill="white"/>
<path d="M310.088 214C309.078 214 308.136 213.837 307.264 213.512C306.403 213.174 305.655 212.698 305.019 212.085C304.384 211.472 303.885 210.752 303.523 209.926C303.174 209.1 303 208.193 303 207.204C303 206.215 303.174 205.308 303.523 204.482C303.885 203.656 304.384 202.936 305.019 202.323C305.668 201.71 306.422 201.24 307.282 200.915C308.143 200.577 309.084 200.408 310.106 200.408C311.241 200.408 312.263 200.608 313.173 201.009C314.096 201.397 314.869 201.973 315.492 202.736L313.547 204.538C313.098 204.025 312.6 203.643 312.051 203.393C311.503 203.13 310.904 202.999 310.256 202.999C309.645 202.999 309.084 203.099 308.573 203.299C308.062 203.499 307.619 203.787 307.245 204.163C306.871 204.538 306.578 204.983 306.366 205.496C306.166 206.009 306.067 206.578 306.067 207.204C306.067 207.83 306.166 208.399 306.366 208.912C306.578 209.426 306.871 209.87 307.245 210.245C307.619 210.621 308.062 210.909 308.573 211.109C309.084 211.309 309.645 211.409 310.256 211.409C310.904 211.409 311.503 211.284 312.051 211.034C312.6 210.771 313.098 210.377 313.547 209.851L315.492 211.653C314.869 212.417 314.096 212.999 313.173 213.399C312.263 213.8 311.235 214 310.088 214Z" fill="white"/>
<path fill-rule="evenodd" clip-rule="evenodd" d="M324.908 204.613C325.756 205.339 326.18 206.472 326.18 208.011V213.775H323.449V212.52C323.23 212.89 322.93 213.19 322.552 213.418C321.99 213.756 321.267 213.925 320.382 213.925C319.597 213.925 318.923 213.793 318.362 213.531C317.801 213.255 317.371 212.886 317.072 212.423C316.773 211.96 316.623 211.441 316.623 210.865C316.623 210.264 316.767 209.738 317.053 209.288C317.352 208.837 317.82 208.487 318.456 208.237C319.092 207.974 319.921 207.842 320.943 207.842H323.262C323.262 207.217 323.069 206.728 322.682 206.378C322.308 206.028 321.729 205.852 320.943 205.852C320.407 205.852 319.877 205.94 319.354 206.115C318.842 206.278 318.406 206.503 318.044 206.791L316.997 204.745C317.546 204.357 318.207 204.056 318.98 203.844C319.753 203.631 320.538 203.524 321.336 203.524C322.869 203.524 324.06 203.887 324.908 204.613ZM319.84 209.889C320.102 209.663 320.575 209.551 321.261 209.551H323.262V210.583C323.088 211.034 322.807 211.378 322.421 211.616C322.034 211.841 321.598 211.954 321.112 211.954C320.6 211.954 320.195 211.847 319.896 211.635C319.609 211.409 319.466 211.109 319.466 210.733C319.466 210.396 319.59 210.114 319.84 209.889Z" fill="white"/>
<path d="M337.067 204.013C336.444 203.687 335.733 203.524 334.935 203.524C334.075 203.524 333.308 203.706 332.635 204.069C332.238 204.283 331.895 204.551 331.607 204.874V203.675H328.82V213.775H331.738V208.781C331.738 208.155 331.837 207.642 332.037 207.242C332.249 206.841 332.535 206.547 332.897 206.359C333.271 206.159 333.689 206.059 334.15 206.059C334.798 206.059 335.297 206.253 335.646 206.641C336.008 207.029 336.188 207.63 336.188 208.443V213.775H339.106V207.993C339.106 206.966 338.925 206.128 338.564 205.477C338.202 204.814 337.703 204.325 337.067 204.013Z" fill="white"/>
<path fill-rule="evenodd" clip-rule="evenodd" d="M349.381 204.613C350.229 205.339 350.652 206.472 350.652 208.011V213.775H347.922V212.52C347.702 212.89 347.403 213.19 347.024 213.418C346.463 213.756 345.74 213.925 344.855 213.925C344.069 213.925 343.396 213.793 342.835 213.531C342.274 213.255 341.844 212.886 341.545 212.423C341.246 211.96 341.096 211.441 341.096 210.865C341.096 210.264 341.239 209.738 341.526 209.288C341.825 208.837 342.293 208.487 342.929 208.237C343.565 207.974 344.394 207.842 345.416 207.842H347.735C347.735 207.217 347.542 206.728 347.155 206.378C346.781 206.028 346.201 205.852 345.416 205.852C344.88 205.852 344.35 205.94 343.826 206.115C343.315 206.278 342.879 206.503 342.517 206.791L341.47 204.745C342.019 204.357 342.679 204.056 343.452 203.844C344.225 203.631 345.011 203.524 345.809 203.524C347.342 203.524 348.533 203.887 349.381 204.613ZM344.313 209.889C344.574 209.663 345.048 209.551 345.734 209.551H347.735V210.583C347.56 211.034 347.28 211.378 346.893 211.616C346.507 211.841 346.071 211.954 345.584 211.954C345.073 211.954 344.668 211.847 344.369 211.635C344.082 211.409 343.939 211.109 343.939 210.733C343.939 210.396 344.063 210.114 344.313 209.889Z" fill="white"/>
<path d="M367.142 208.68L363.271 213.775H366.451L368.736 210.681L370.939 213.775H374.249L370.357 208.614L374.1 203.675H370.995L368.809 206.624L366.675 203.675H363.402L367.142 208.68Z" fill="white"/>
<path d="M358.918 213.775V203.675H361.835V213.775H358.918Z" fill="white"/>
<path d="M353.293 199.845V213.775H356.21V199.845H353.293Z" fill="white"/>
<rect x="268" y="229" width="128" height="10" fill="#2752E7"/>
<rect x="381.167" y="224" width="10" height="10" rx="5" fill="#FFCC00"/>
<rect x="278" y="249" width="10" height="10" rx="5" fill="#0083F5"/>
<path d="M298 254H386" stroke="white" stroke-opacity="0.2" stroke-width="3.33333" stroke-linecap="round"/>
<path d="M274.667 269.833H389.334" stroke="white" stroke-opacity="0.2" stroke-width="0.833333"/>
<rect x="278" y="280.667" width="10" height="10" rx="5" fill="#0083F5"/>
<path d="M298 285.667H386" stroke="white" stroke-opacity="0.2" stroke-width="3.33333" stroke-linecap="round"/>
<path d="M274.667 301.5H389.334" stroke="white" stroke-opacity="0.2" stroke-width="0.833333"/>
<rect x="278" y="312.333" width="10" height="10" rx="5" fill="#0083F5"/>
<path d="M298 317.333H386" stroke="white" stroke-opacity="0.2" stroke-width="3.33333" stroke-linecap="round"/>
<path d="M274.667 333.167H389.334" stroke="white" stroke-opacity="0.2" stroke-width="0.833333"/>
<rect x="278" y="344" width="10" height="10" rx="5" fill="#0083F5"/>
<path d="M298 349H386" stroke="white" stroke-opacity="0.2" stroke-width="3.33333" stroke-linecap="round"/>
<path d="M274.667 364.833H389.334" stroke="white" stroke-opacity="0.2" stroke-width="0.833333"/>
<rect x="278" y="375.667" width="10" height="10" rx="5" fill="#0083F5"/>
<path d="M298 380.667H386" stroke="white" stroke-opacity="0.2" stroke-width="3.33333" stroke-linecap="round"/>
<path d="M274.667 396.5H389.334" stroke="white" stroke-opacity="0.2" stroke-width="0.833333"/>
<path d="M274.667 581.833H389.334" stroke="white" stroke-opacity="0.2" stroke-width="0.833333"/>
<path d="M278 599.333H362.667" stroke="white" stroke-opacity="0.2" stroke-width="3.33333" stroke-linecap="round"/>
<path fill-rule="evenodd" clip-rule="evenodd" d="M374.774 595.607C374.991 595.39 375.343 595.39 375.56 595.607L378.893 598.94C379.11 599.157 379.11 599.509 378.893 599.726L375.56 603.059C375.343 603.276 374.991 603.276 374.774 603.059C374.557 602.842 374.557 602.491 374.774 602.274L377.715 599.333L374.774 596.393C374.557 596.176 374.557 595.824 374.774 595.607Z" fill="#B3B7C1"/>
<path fill-rule="evenodd" clip-rule="evenodd" d="M379.774 595.607C379.991 595.39 380.343 595.39 380.56 595.607L383.893 598.94C384.11 599.157 384.11 599.509 383.893 599.726L380.56 603.059C380.343 603.276 379.991 603.276 379.774 603.059C379.557 602.842 379.557 602.491 379.774 602.274L382.715 599.333L379.774 596.393C379.557 596.176 379.557 595.824 379.774 595.607Z" fill="#B3B7C1"/>
</g>
<g filter="url(#filter3_d_138_211704)">
<g clip-path="url(#clip6_138_211704)">
<rect x="404" y="184" width="392" height="285" rx="4" fill="white" fill-opacity="0.02"/>
<rect x="572" y="189.875" width="56" height="4" rx="2" fill="#2752E7"/>
<rect x="412" y="207.75" width="32" height="8" rx="2" fill="#0073CC"/>
<rect x="448" y="207.75" width="32" height="8" rx="2" fill="white" fill-opacity="0.2" stroke="white" stroke-opacity="0.2" stroke-width="0.4014"/>
<path d="M412 224.75H788" stroke="white" stroke-opacity="0.2"/>
<g opacity="0.2">
<path d="M415.8 244.608C415.469 244.608 415.2 244.868 415.2 245.189V245.411C415.2 245.443 415.227 245.469 415.26 245.469H417.546C417.934 245.469 418.277 245.709 418.4 246.065L418.728 247.017C418.769 247.135 418.884 247.215 419.013 247.215H424.697C425.132 247.215 425.504 247.516 425.582 247.93L425.881 249.519C425.894 249.589 426 249.579 426 249.509V245.189C426 244.868 425.731 244.608 425.4 244.608H415.8Z" fill="#F8F9FA"/>
<path d="M414.193 246.07C414.199 246.068 414.206 246.067 414.213 246.067H417.494C417.624 246.067 417.739 246.147 417.781 246.266L418.111 247.221C418.234 247.578 418.58 247.818 418.97 247.818H424.692C424.838 247.818 424.963 247.919 424.989 248.057L425.999 253.41C426 253.416 426 253.421 426 253.427C425.963 253.714 425.708 253.937 425.4 253.937H425.359C425.333 253.94 425.307 253.942 425.28 253.942H415.645C415.344 253.942 415.089 253.729 415.047 253.442L414.003 246.383C413.983 246.244 414.066 246.117 414.193 246.07Z" fill="#F8F9FA"/>
</g>
<path d="M440 249.275H612" stroke="white" stroke-opacity="0.2" stroke-width="4" stroke-linecap="round"/>
<path d="M624 249.275H784" stroke="white" stroke-opacity="0.2" stroke-width="4" stroke-linecap="round"/>
<path d="M412 273.8H788" stroke="white" stroke-opacity="0.2"/>
<g opacity="0.2">
<path d="M415.8 293.658C415.469 293.658 415.2 293.918 415.2 294.239V294.461C415.2 294.493 415.227 294.519 415.26 294.519H417.546C417.934 294.519 418.277 294.759 418.4 295.114L418.728 296.066C418.769 296.185 418.884 296.265 419.013 296.265H424.697C425.132 296.265 425.504 296.566 425.582 296.98L425.881 298.569C425.894 298.638 426 298.629 426 298.558V294.239C426 293.918 425.731 293.658 425.4 293.658H415.8Z" fill="#F8F9FA"/>
<path d="M414.193 295.12C414.199 295.118 414.206 295.117 414.213 295.117H417.494C417.624 295.117 417.739 295.197 417.781 295.316L418.111 296.271C418.234 296.627 418.58 296.868 418.97 296.868H424.692C424.838 296.868 424.963 296.968 424.989 297.107L425.999 302.46C426 302.465 426 302.471 426 302.477C425.963 302.764 425.708 302.987 425.4 302.987H425.359C425.333 302.99 425.307 302.992 425.28 302.992H415.645C415.344 302.992 415.089 302.778 415.047 302.491L414.003 295.433C413.983 295.294 414.066 295.167 414.193 295.12Z" fill="#F8F9FA"/>
</g>
<path d="M440 298.325H600" stroke="white" stroke-opacity="0.2" stroke-width="4" stroke-linecap="round"/>
<path d="M612 298.325H784" stroke="white" stroke-opacity="0.2" stroke-width="4" stroke-linecap="round"/>
<path d="M412 322.85H788" stroke="white" stroke-opacity="0.2"/>
<g opacity="0.2">
<path d="M415.8 342.708C415.469 342.708 415.2 342.968 415.2 343.289V343.511C415.2 343.543 415.227 343.569 415.26 343.569H417.546C417.934 343.569 418.277 343.809 418.4 344.165L418.728 345.117C418.769 345.235 418.884 345.315 419.013 345.315H424.697C425.132 345.315 425.504 345.616 425.582 346.03L425.881 347.619C425.894 347.689 426 347.679 426 347.609V343.289C426 342.968 425.731 342.708 425.4 342.708H415.8Z" fill="#F8F9FA"/>
<path d="M414.193 344.17C414.199 344.168 414.206 344.167 414.213 344.167H417.494C417.624 344.167 417.739 344.247 417.781 344.366L418.111 345.321C418.234 345.678 418.58 345.918 418.97 345.918H424.692C424.838 345.918 424.963 346.019 424.989 346.157L425.999 351.51C426 351.516 426 351.521 426 351.527C425.963 351.814 425.708 352.037 425.4 352.037H425.359C425.333 352.04 425.307 352.042 425.28 352.042H415.645C415.344 352.042 415.089 351.829 415.047 351.542L414.003 344.483C413.983 344.344 414.066 344.217 414.193 344.17Z" fill="#F8F9FA"/>
</g>
<path d="M440 347.375H565" stroke="white" stroke-opacity="0.2" stroke-width="4" stroke-linecap="round"/>
<path d="M577 347.375H784" stroke="white" stroke-opacity="0.2" stroke-width="4" stroke-linecap="round"/>
<path d="M412 371.9H788" stroke="white" stroke-opacity="0.2"/>
<g opacity="0.2">
<path d="M415.8 391.758C415.469 391.758 415.2 392.018 415.2 392.339V392.561C415.2 392.593 415.227 392.619 415.26 392.619H417.546C417.934 392.619 418.277 392.859 418.4 393.214L418.728 394.167C418.769 394.285 418.884 394.365 419.013 394.365H424.697C425.132 394.365 425.504 394.666 425.582 395.08L425.881 396.669C425.894 396.739 426 396.729 426 396.659V392.339C426 392.018 425.731 391.758 425.4 391.758H415.8Z" fill="#F8F9FA"/>
<path d="M414.193 393.22C414.199 393.218 414.206 393.217 414.213 393.217H417.494C417.624 393.217 417.739 393.297 417.781 393.416L418.111 394.371C418.234 394.727 418.58 394.968 418.97 394.968H424.692C424.838 394.968 424.963 395.069 424.989 395.207L425.999 400.56C426 400.565 426 400.571 426 400.577C425.963 400.864 425.708 401.087 425.4 401.087H425.359C425.333 401.09 425.307 401.092 425.28 401.092H415.645C415.344 401.092 415.089 400.878 415.047 400.592L414.003 393.533C413.983 393.394 414.066 393.267 414.193 393.22Z" fill="#F8F9FA"/>
</g>
<path d="M440 396.425H600" stroke="white" stroke-opacity="0.2" stroke-width="4" stroke-linecap="round"/>
<path d="M612 396.425H784" stroke="white" stroke-opacity="0.2" stroke-width="4" stroke-linecap="round"/>
<path d="M412 420.95H788" stroke="white" stroke-opacity="0.2"/>
<g opacity="0.2">
<path d="M415.8 440.809C415.469 440.809 415.2 441.068 415.2 441.389V441.611C415.2 441.643 415.227 441.669 415.26 441.669H417.546C417.934 441.669 418.277 441.909 418.4 442.265L418.728 443.217C418.769 443.335 418.884 443.415 419.013 443.415H424.697C425.132 443.415 425.504 443.716 425.582 444.13L425.881 445.719C425.894 445.789 426 445.78 426 445.709V441.389C426 441.068 425.731 440.809 425.4 440.809H415.8Z" fill="#F8F9FA"/>
<path d="M414.193 442.27C414.199 442.268 414.206 442.267 414.213 442.267H417.494C417.624 442.267 417.739 442.347 417.781 442.466L418.111 443.421C418.234 443.778 418.58 444.018 418.97 444.018H424.692C424.838 444.018 424.963 444.119 424.989 444.257L425.999 449.61C426 449.616 426 449.621 426 449.627C425.963 449.914 425.708 450.137 425.4 450.137H425.359C425.333 450.14 425.307 450.142 425.28 450.142H415.645C415.344 450.142 415.089 449.929 415.047 449.642L414.003 442.583C413.983 442.445 414.066 442.317 414.193 442.27Z" fill="#F8F9FA"/>
</g>
<path d="M440 445.475H571" stroke="white" stroke-opacity="0.2" stroke-width="4" stroke-linecap="round"/>
<path d="M583 445.475L784 445.475" stroke="white" stroke-opacity="0.2" stroke-width="4" stroke-linecap="round"/>
</g>
</g>
<g filter="url(#filter4_d_138_211704)">
<g clip-path="url(#clip7_138_211704)">
<path d="M410 491C410 489.895 410.895 489 412 489H448C449.105 489 450 489.895 450 491V505H410V491Z" fill="white" fill-opacity="0.1"/>
<rect x="426" y="493" width="8" height="8" rx="4" fill="#202A42"/>
<rect x="458" y="493" width="8" height="8" rx="4" fill="#2752E7"/>
<rect x="482" y="493" width="8" height="8" rx="2" fill="#2752E7"/>
<g clip-path="url(#clip8_138_211704)">
<rect x="404" y="505" width="392" height="111" rx="4" fill="white" fill-opacity="0.02"/>
<g opacity="0.2">
<path d="M420 524.167C421.472 524.167 422.666 522.973 422.666 521.5C422.666 520.028 421.472 518.834 420 518.834C418.527 518.834 417.333 520.028 417.333 521.5C417.333 522.973 418.527 524.167 420 524.167Z" fill="#F8F9FA"/>
<path fill-rule="evenodd" clip-rule="evenodd" d="M413.333 522.834C413.333 524.436 413.898 525.906 414.84 527.055C416.062 528.548 417.92 529.5 420 529.5C423.681 529.5 426.666 526.516 426.666 522.834C426.666 519.152 423.682 516.167 420 516.167C416.318 516.167 413.333 519.152 413.333 522.834ZM420 525.5C418.454 525.5 416.997 525.876 415.713 526.54C414.853 525.547 414.333 524.251 414.333 522.834C414.333 519.704 416.87 517.167 420 517.167C423.129 517.167 425.666 519.704 425.666 522.834C425.666 524.251 425.146 525.547 424.286 526.541C423.002 525.876 421.545 525.5 420 525.5Z" fill="#F8F9FA"/>
</g>
<path d="M440 522.833H612" stroke="white" stroke-opacity="0.2" stroke-width="4" stroke-linecap="round"/>
<path d="M624 522.833H784" stroke="white" stroke-opacity="0.2" stroke-width="4" stroke-linecap="round"/>
<path d="M412 541.667H788" stroke="white" stroke-opacity="0.2"/>
<g opacity="0.2">
<path d="M420 561.833C421.472 561.833 422.666 560.64 422.666 559.167C422.666 557.694 421.472 556.5 420 556.5C418.527 556.5 417.333 557.694 417.333 559.167C417.333 560.64 418.527 561.833 420 561.833Z" fill="#F8F9FA"/>
<path fill-rule="evenodd" clip-rule="evenodd" d="M413.333 560.5C413.333 562.102 413.898 563.572 414.84 564.722C416.062 566.214 417.92 567.167 420 567.167C423.681 567.167 426.666 564.182 426.666 560.5C426.666 556.818 423.682 553.833 420 553.833C416.318 553.833 413.333 556.818 413.333 560.5ZM420 563.167C418.454 563.167 416.997 563.542 415.713 564.207C414.853 563.213 414.333 561.918 414.333 560.5C414.333 557.371 416.87 554.833 420 554.833C423.129 554.833 425.666 557.371 425.666 560.5C425.666 561.918 425.146 563.213 424.286 564.207C423.002 563.542 421.545 563.167 420 563.167Z" fill="#F8F9FA"/>
</g>
<path d="M440 560.5H600" stroke="white" stroke-opacity="0.2" stroke-width="4" stroke-linecap="round"/>
<path d="M612 560.5H784" stroke="white" stroke-opacity="0.2" stroke-width="4" stroke-linecap="round"/>
<path d="M412 579.333H788" stroke="white" stroke-opacity="0.2"/>
<g opacity="0.2">
<path d="M415.8 593.5C415.469 593.5 415.2 593.76 415.2 594.081V594.303C415.2 594.335 415.227 594.361 415.26 594.361H417.546C417.934 594.361 418.277 594.601 418.4 594.957L418.728 595.909C418.769 596.027 418.884 596.107 419.013 596.107H424.697C425.132 596.107 425.504 596.408 425.582 596.822L425.881 598.411C425.894 598.481 426 598.471 426 598.401V594.081C426 593.76 425.731 593.5 425.4 593.5H415.8Z" fill="#F8F9FA"/>
<path d="M414.193 594.962C414.199 594.96 414.206 594.959 414.213 594.959H417.494C417.624 594.959 417.739 595.039 417.781 595.158L418.111 596.113C418.234 596.47 418.58 596.71 418.97 596.71H424.692C424.838 596.71 424.963 596.811 424.989 596.949L425.999 602.302C426 602.308 426 602.313 426 602.319C425.963 602.606 425.708 602.829 425.4 602.829H425.359C425.333 602.832 425.307 602.834 425.28 602.834H415.645C415.344 602.834 415.089 602.621 415.047 602.334L414.003 595.275C413.983 595.136 414.066 595.009 414.193 594.962Z" fill="#F8F9FA"/>
</g>
<path d="M440 598.167H565" stroke="white" stroke-opacity="0.2" stroke-width="4" stroke-linecap="round"/>
<path d="M577 598.167H784" stroke="white" stroke-opacity="0.2" stroke-width="4" stroke-linecap="round"/>
</g>
</g>
</g>
<g clip-path="url(#clip9_138_211704)">
<g clip-path="url(#clip10_138_211704)">
<rect x="804" y="184" width="128" height="96" rx="4" fill="white" fill-opacity="0.02"/>
<g opacity="0.2">
<path d="M815.8 195.333C815.469 195.333 815.2 195.593 815.2 195.914V196.136C815.2 196.168 815.227 196.194 815.26 196.194H817.546C817.934 196.194 818.277 196.434 818.4 196.79L818.728 197.742C818.769 197.86 818.884 197.94 819.013 197.94H824.697C825.132 197.94 825.504 198.241 825.582 198.655L825.881 200.244C825.894 200.314 826 200.304 826 200.234V195.914C826 195.593 825.731 195.333 825.4 195.333H815.8Z" fill="#F8F9FA"/>
<path d="M814.193 196.795C814.199 196.793 814.206 196.792 814.213 196.792H817.494C817.624 196.792 817.739 196.872 817.781 196.991L818.111 197.946C818.234 198.303 818.58 198.543 818.97 198.543H824.692C824.838 198.543 824.963 198.644 824.989 198.782L825.999 204.135C826 204.141 826 204.146 826 204.152C825.963 204.439 825.708 204.662 825.4 204.662H825.359C825.333 204.665 825.307 204.667 825.28 204.667H815.645C815.344 204.667 815.089 204.454 815.047 204.167L814.003 197.108C813.983 196.969 814.066 196.842 814.193 196.795Z" fill="#F8F9FA"/>
</g>
<path d="M840 200H920" stroke="white" stroke-opacity="0.2" stroke-width="4" stroke-linecap="round"/>
<path d="M816 232H896" stroke="white" stroke-opacity="0.2" stroke-width="4" stroke-linecap="round"/>
<g opacity="0.2">
<path fill-rule="evenodd" clip-rule="evenodd" d="M913.528 227.529C913.789 227.268 914.211 227.268 914.471 227.529L918.471 231.529C918.731 231.789 918.731 232.211 918.471 232.472L914.471 236.472C914.211 236.732 913.789 236.732 913.528 236.472C913.268 236.211 913.268 235.789 913.528 235.529L917.057 232L913.528 228.472C913.268 228.211 913.268 227.789 913.528 227.529Z" fill="#F8F9FA"/>
</g>
<path d="M816 264H896" stroke="white" stroke-opacity="0.2" stroke-width="4" stroke-linecap="round"/>
<g opacity="0.2">
<path fill-rule="evenodd" clip-rule="evenodd" d="M911.528 261.529C911.789 261.268 912.211 261.268 912.471 261.529L916 265.057L919.528 261.529C919.789 261.268 920.211 261.268 920.471 261.529C920.731 261.789 920.731 262.211 920.471 262.472L916.471 266.472C916.211 266.732 915.789 266.732 915.528 266.472L911.528 262.472C911.268 262.211 911.268 261.789 911.528 261.529Z" fill="#F8F9FA"/>
</g>
</g>
<g clip-path="url(#clip11_138_211704)">
<rect x="804" y="292" width="128" height="324" rx="4" fill="white" fill-opacity="0.02"/>
<g clip-path="url(#clip12_138_211704)">
<rect x="812" y="308.286" width="12" height="12" rx="6" fill="#0083F5"/>
<path d="M836 314.286H924" stroke="white" stroke-opacity="0.2" stroke-width="4" stroke-linecap="round"/>
<path d="M812 337.571H924" stroke="white" stroke-opacity="0.2"/>
<rect x="812" y="354.857" width="12" height="12" rx="6" fill="#0083F5"/>
<path d="M836 360.857H924" stroke="white" stroke-opacity="0.2" stroke-width="4" stroke-linecap="round"/>
<path d="M812 384.143H924" stroke="white" stroke-opacity="0.2"/>
<rect x="812" y="401.429" width="12" height="12" rx="6" fill="#0083F5"/>
<path d="M836 407.429H924" stroke="white" stroke-opacity="0.2" stroke-width="4" stroke-linecap="round"/>
<path d="M812 430.714H924" stroke="white" stroke-opacity="0.2"/>
<rect x="812" y="448" width="12" height="12" rx="6" fill="#0083F5"/>
<path d="M836 454H924" stroke="white" stroke-opacity="0.2" stroke-width="4" stroke-linecap="round"/>
<path d="M812 477.286H924" stroke="white" stroke-opacity="0.2"/>
<rect x="812" y="494.571" width="12" height="12" rx="6" fill="#0083F5"/>
<path d="M836 500.571H924" stroke="white" stroke-opacity="0.2" stroke-width="4" stroke-linecap="round"/>
<path d="M812 523.857H924" stroke="white" stroke-opacity="0.2"/>
<rect x="812" y="541.143" width="12" height="12" rx="6" fill="#0083F5"/>
<path d="M836 547.143H924" stroke="white" stroke-opacity="0.2" stroke-width="4" stroke-linecap="round"/>
<path d="M812 570.429H924" stroke="white" stroke-opacity="0.2"/>
<rect x="812" y="587.714" width="12" height="12" rx="6" fill="#0083F5"/>
<path d="M836 593.714H924" stroke="white" stroke-opacity="0.2" stroke-width="4" stroke-linecap="round"/>
</g>
</g>
</g>
</g>
</g>
<defs>
<filter id="filter0_d_138_211704" x="16" y="122" width="840" height="560" filterUnits="userSpaceOnUse" color-interpolation-filters="sRGB">
<feFlood flood-opacity="0" result="BackgroundImageFix"/>
<feColorMatrix in="SourceAlpha" type="matrix" values="0 0 0 0 0 0 0 0 0 0 0 0 0 0 0 0 0 0 127 0" result="hardAlpha"/>
<feMorphology radius="48" operator="erode" in="SourceAlpha" result="effect1_dropShadow_138_211704"/>
<feOffset dy="16"/>
<feGaussianBlur stdDeviation="64"/>
<feComposite in2="hardAlpha" operator="out"/>
<feColorMatrix type="matrix" values="0 0 0 0 1 0 0 0 0 1 0 0 0 0 1 0 0 0 0.16 0"/>
<feBlend mode="normal" in2="BackgroundImageFix" result="effect1_dropShadow_138_211704"/>
<feBlend mode="normal" in="SourceGraphic" in2="effect1_dropShadow_138_211704" result="shape"/>
</filter>
<filter id="filter1_d_138_211704" x="344" y="126" width="840" height="560" filterUnits="userSpaceOnUse" color-interpolation-filters="sRGB">
<feFlood flood-opacity="0" result="BackgroundImageFix"/>
<feColorMatrix in="SourceAlpha" type="matrix" values="0 0 0 0 0 0 0 0 0 0 0 0 0 0 0 0 0 0 127 0" result="hardAlpha"/>
<feMorphology radius="48" operator="erode" in="SourceAlpha" result="effect1_dropShadow_138_211704"/>
<feOffset dy="16"/>
<feGaussianBlur stdDeviation="64"/>
<feComposite in2="hardAlpha" operator="out"/>
<feColorMatrix type="matrix" values="0 0 0 0 1 0 0 0 0 1 0 0 0 0 1 0 0 0 0.16 0"/>
<feBlend mode="normal" in2="BackgroundImageFix" result="effect1_dropShadow_138_211704"/>
<feBlend mode="normal" in="SourceGraphic" in2="effect1_dropShadow_138_211704" result="shape"/>
</filter>
<filter id="filter2_d_138_211704" x="180" y="80" width="840" height="640" filterUnits="userSpaceOnUse" color-interpolation-filters="sRGB">
<feFlood flood-opacity="0" result="BackgroundImageFix"/>
<feColorMatrix in="SourceAlpha" type="matrix" values="0 0 0 0 0 0 0 0 0 0 0 0 0 0 0 0 0 0 127 0" result="hardAlpha"/>
<feMorphology radius="48" operator="erode" in="SourceAlpha" result="effect1_dropShadow_138_211704"/>
<feOffset dy="16"/>
<feGaussianBlur stdDeviation="64"/>
<feComposite in2="hardAlpha" operator="out"/>
<feColorMatrix type="matrix" values="0 0 0 0 1 0 0 0 0 1 0 0 0 0 1 0 0 0 0.16 0"/>
<feBlend mode="normal" in2="BackgroundImageFix" result="effect1_dropShadow_138_211704"/>
<feBlend mode="normal" in="SourceGraphic" in2="effect1_dropShadow_138_211704" result="shape"/>
</filter>
<filter id="filter3_d_138_211704" x="388" y="172" width="424" height="317" filterUnits="userSpaceOnUse" color-interpolation-filters="sRGB">
<feFlood flood-opacity="0" result="BackgroundImageFix"/>
<feColorMatrix in="SourceAlpha" type="matrix" values="0 0 0 0 0 0 0 0 0 0 0 0 0 0 0 0 0 0 127 0" result="hardAlpha"/>
<feOffset dy="4"/>
<feGaussianBlur stdDeviation="8"/>
<feColorMatrix type="matrix" values="0 0 0 0 0.12549 0 0 0 0 0.164706 0 0 0 0 0.258824 0 0 0 0.16 0"/>
<feBlend mode="normal" in2="BackgroundImageFix" result="effect1_dropShadow_138_211704"/>
<feBlend mode="normal" in="SourceGraphic" in2="effect1_dropShadow_138_211704" result="shape"/>
</filter>
<filter id="filter4_d_138_211704" x="388" y="469" width="424" height="167" filterUnits="userSpaceOnUse" color-interpolation-filters="sRGB">
<feFlood flood-opacity="0" result="BackgroundImageFix"/>
<feColorMatrix in="SourceAlpha" type="matrix" values="0 0 0 0 0 0 0 0 0 0 0 0 0 0 0 0 0 0 127 0" result="hardAlpha"/>
<feOffset dy="4"/>
<feGaussianBlur stdDeviation="8"/>
<feColorMatrix type="matrix" values="0 0 0 0 0.12549 0 0 0 0 0.164706 0 0 0 0 0.258824 0 0 0 0.16 0"/>
<feBlend mode="normal" in2="BackgroundImageFix" result="effect1_dropShadow_138_211704"/>
<feBlend mode="normal" in="SourceGraphic" in2="effect1_dropShadow_138_211704" result="shape"/>
</filter>
<clipPath id="clip0_138_211704">
<rect x="96" y="186" width="680" height="400" rx="16" fill="white"/>
</clipPath>
<clipPath id="clip1_138_211704">
<rect x="140.8" y="226" width="579.2" height="352" rx="4" fill="white"/>
</clipPath>
<clipPath id="clip2_138_211704">
<rect x="424" y="190" width="680" height="400" rx="16" fill="white"/>
</clipPath>
<clipPath id="clip3_138_211704">
<rect x="468.8" y="230" width="579.2" height="352" rx="4" fill="white"/>
</clipPath>
<clipPath id="clip4_138_211704">
<rect x="260" y="144" width="680" height="480" rx="16" fill="white"/>
</clipPath>
<clipPath id="clip5_138_211704">
<path d="M268 188C268 185.791 269.791 184 272 184H392C394.209 184 396 185.791 396 188V612C396 614.209 394.209 616 392 616H272C269.791 616 268 614.209 268 612V188Z" fill="white"/>
</clipPath>
<clipPath id="clip6_138_211704">
<rect x="404" y="184" width="392" height="285" rx="4" fill="white"/>
</clipPath>
<clipPath id="clip7_138_211704">
<rect x="404" y="481" width="392" height="135" rx="4" fill="white"/>
</clipPath>
<clipPath id="clip8_138_211704">
<rect x="404" y="505" width="392" height="111" rx="4" fill="white"/>
</clipPath>
<clipPath id="clip9_138_211704">
<rect width="128" height="432" fill="white" transform="translate(804 184)"/>
</clipPath>
<clipPath id="clip10_138_211704">
<rect x="804" y="184" width="128" height="96" rx="4" fill="white"/>
</clipPath>
<clipPath id="clip11_138_211704">
<rect x="804" y="292" width="128" height="324" rx="4" fill="white"/>
</clipPath>
<clipPath id="clip12_138_211704">
<rect x="804" y="292" width="128" height="324" rx="4" fill="white"/>
</clipPath>
</defs>
</svg>
