<svg width="423" height="558" viewBox="0 0 423 558" fill="none" xmlns="http://www.w3.org/2000/svg">
<g opacity="0.6">
<g clip-path="url(#clip0_3225_12042)">
<rect x="0.954102" y="18.0527" width="256" height="512" rx="8" transform="rotate(-4 0.954102 18.0527)" fill="#142438"/>
<g clip-path="url(#clip1_3225_12042)">
<mask id="path-2-inside-1_3225_12042" fill="white">
<path d="M0.954102 18.0527L62.404 13.7557L98.1194 524.509L36.6694 528.806L0.954102 18.0527Z"/>
</mask>
<path d="M0.954102 18.0527L62.404 13.7557L98.1194 524.509L36.6694 528.806L0.954102 18.0527Z" fill="white" fill-opacity="0.04"/>
<rect width="61.6" height="65.6" transform="translate(0.954102 18.0527) rotate(-4)" fill="#152438"/>
<path fill-rule="evenodd" clip-rule="evenodd" d="M29.2285 54.7645C29.5138 58.8446 33.0527 61.9208 37.1328 61.6355L36.2368 48.8227C35.9515 44.7427 32.4126 41.6664 28.3325 41.9517L15.5195 42.8477C15.8048 46.9278 19.3437 50.004 23.4238 49.7187L28.8491 49.3393L29.2285 54.7645Z" fill="white"/>
<path d="M30.1328 26.0371C34.2129 25.7518 37.7518 28.828 38.0371 32.9081L38.4165 38.3334L43.8418 37.9541C47.9219 37.6688 51.4607 40.745 51.746 44.825C46.9244 45.1622 42.1028 45.4993 37.2813 45.8364C36.2097 43.1477 33.9196 41.1095 31.1339 40.3533L30.1328 26.0371Z" fill="white"/>
<rect x="4.86035" y="73.916" width="61.6" height="9.6" transform="rotate(-4 4.86035 73.916)" fill="#2752E7"/>
<rect x="51.6094" y="65.8359" width="9.6" height="9.6" rx="4.8" transform="rotate(-4 51.6094 65.8359)" fill="#FFCC00"/>
<rect x="15.7764" y="92.4004" width="9.6" height="9.6" rx="4.8" transform="rotate(-4 15.7764 92.4004)" fill="#0083F5"/>
<path d="M35.2646 95.8486L58.4081 94.2303" stroke="white" stroke-opacity="0.2" stroke-width="3.2" stroke-linecap="round"/>
<path d="M13.9795 112.574L62.6606 109.17" stroke="white" stroke-opacity="0.2" stroke-width="0.8"/>
<rect x="17.8965" y="122.727" width="9.6" height="9.6" rx="4.8" transform="rotate(-4 17.8965 122.727)" fill="#0083F5"/>
<path d="M37.3848 126.175L60.5283 124.556" stroke="white" stroke-opacity="0.2" stroke-width="3.2" stroke-linecap="round"/>
<path d="M16.1006 142.9L64.7817 139.496" stroke="white" stroke-opacity="0.2" stroke-width="0.8"/>
<rect x="20.0176" y="153.053" width="9.6" height="9.6" rx="4.8" transform="rotate(-4 20.0176 153.053)" fill="#0083F5"/>
<path d="M39.5059 156.501L62.6493 154.883" stroke="white" stroke-opacity="0.2" stroke-width="3.2" stroke-linecap="round"/>
<path d="M18.2207 173.227L66.9018 169.822" stroke="white" stroke-opacity="0.2" stroke-width="0.8"/>
<rect x="22.1377" y="183.378" width="9.6" height="9.6" rx="4.8" transform="rotate(-4 22.1377 183.378)" fill="#0083F5"/>
<path d="M41.626 186.826L64.7695 185.208" stroke="white" stroke-opacity="0.2" stroke-width="3.2" stroke-linecap="round"/>
<path d="M20.3418 203.553L69.0229 200.149" stroke="white" stroke-opacity="0.2" stroke-width="0.8"/>
<rect x="24.2588" y="213.704" width="9.6" height="9.6" rx="4.8" transform="rotate(-4 24.2588 213.704)" fill="#0083F5"/>
<path d="M43.7471 217.152L66.8906 215.534" stroke="white" stroke-opacity="0.2" stroke-width="3.2" stroke-linecap="round"/>
<path d="M22.4619 233.878L71.143 230.474" stroke="white" stroke-opacity="0.2" stroke-width="0.8"/>
<path d="M40.7666 495.64L89.4477 492.236" stroke="white" stroke-opacity="0.2" stroke-width="0.8"/>
<path d="M45.1299 512.175L65.0812 510.78" stroke="white" stroke-opacity="0.2" stroke-width="3.2" stroke-linecap="round"/>
<path fill-rule="evenodd" clip-rule="evenodd" d="M76.4265 506.4C76.6197 506.178 76.9566 506.154 77.1789 506.347L80.5943 509.316C80.8166 509.509 80.8402 509.846 80.6469 510.069L77.678 513.484C77.4847 513.706 77.1478 513.73 76.9255 513.537C76.7032 513.343 76.6797 513.007 76.8729 512.784L79.492 509.771L76.4791 507.152C76.2568 506.959 76.2332 506.622 76.4265 506.4Z" fill="#B3B7C1"/>
<path fill-rule="evenodd" clip-rule="evenodd" d="M81.2156 506.066C81.4088 505.844 81.7457 505.82 81.968 506.013L85.3834 508.982C85.6057 509.175 85.6292 509.512 85.436 509.735L82.467 513.15C82.2738 513.372 81.9369 513.396 81.7146 513.203C81.4923 513.009 81.4688 512.673 81.662 512.45L84.2811 509.437L81.2682 506.818C81.0459 506.625 81.0223 506.288 81.2156 506.066Z" fill="#B3B7C1"/>
</g>
<path d="M62.404 13.7557L61.606 13.8115L97.3213 524.564L98.1194 524.509L98.9174 524.453L63.2021 13.6999L62.404 13.7557Z" fill="white" fill-opacity="0.2" mask="url(#path-2-inside-1_3225_12042)"/>
<g clip-path="url(#clip2_3225_12042)">
<rect width="194.4" height="512" transform="translate(62.4043 13.7559) rotate(-4)" fill="#142438"/>
<path d="M80.8896 39.7793L241.647 28.538" stroke="#8491B2" stroke-width="1.25" stroke-linecap="round" stroke-linejoin="round"/>
<path d="M84.1836 60.0156L159.001 54.7839" stroke="#F2F4F7" stroke-width="5" stroke-linecap="round" stroke-linejoin="round"/>
<rect x="83.0273" y="79.3105" width="162.4" height="111.667" rx="3.33333" transform="rotate(-4 83.0273 79.3105)" fill="white" fill-opacity="0.04"/>
<path d="M97.3164 211.97L149.065 208.351" stroke="#FFCF33" stroke-width="10" stroke-linecap="round" stroke-linejoin="round"/>
<path d="M95.1318 243.448L255.889 232.207" stroke="#8491B2" stroke-width="1.25" stroke-linecap="round" stroke-linejoin="round"/>
<rect x="105.248" y="268.054" width="15" height="15" rx="7.5" transform="rotate(-4 105.248 268.054)" fill="white" fill-opacity="0.3"/>
<path d="M117.191 271.604L111.875 277.719L109.096 275.303" stroke="white" stroke-width="1.25" stroke-linecap="round" stroke-linejoin="round"/>
<rect width="121.9" height="3.75001" transform="translate(128.086 272.096) rotate(-4)" fill="white" fill-opacity="0.01"/>
<path d="M130.087 273.835L247.949 265.593" stroke="#F2F4F7" stroke-width="3.75" stroke-linecap="round" stroke-linejoin="round"/>
<rect x="106.991" y="292.993" width="15" height="15" rx="7.5" transform="rotate(-4 106.991 292.993)" fill="white" fill-opacity="0.3"/>
<path d="M118.934 296.544L113.619 302.659L110.839 300.242" stroke="white" stroke-width="1.25" stroke-linecap="round" stroke-linejoin="round"/>
<rect width="121.9" height="3.75001" transform="translate(129.829 297.035) rotate(-4)" fill="white" fill-opacity="0.01"/>
<path d="M131.83 298.774L249.692 290.533" stroke="#F2F4F7" stroke-width="3.75" stroke-linecap="round" stroke-linejoin="round"/>
<rect x="108.735" y="317.932" width="15" height="15" rx="7.5" transform="rotate(-4 108.735 317.932)" fill="white" fill-opacity="0.3"/>
<path d="M120.678 321.482L115.363 327.597L112.583 325.181" stroke="white" stroke-width="1.25" stroke-linecap="round" stroke-linejoin="round"/>
<rect width="121.9" height="3.75001" transform="translate(131.573 321.974) rotate(-4)" fill="white" fill-opacity="0.01"/>
<path d="M133.574 323.713L251.436 315.471" stroke="#F2F4F7" stroke-width="3.75" stroke-linecap="round" stroke-linejoin="round"/>
<path d="M105.216 360.781L180.033 355.55" stroke="#F2F4F7" stroke-width="5" stroke-linecap="round" stroke-linejoin="round"/>
<rect x="104.06" y="380.076" width="162.4" height="74.3333" rx="3.33333" transform="rotate(-4 104.06 380.076)" fill="white" fill-opacity="0.04"/>
<rect width="107.4" height="10" transform="translate(110.872 477.504) rotate(-4)" fill="white" fill-opacity="0.01"/>
<path d="M116.209 482.143L213.372 475.348" stroke="#FFCF33" stroke-width="10" stroke-linecap="round" stroke-linejoin="round"/>
</g>
</g>
</g>
<g clip-path="url(#clip3_3225_12042)">
<rect x="166.513" y="37.1885" width="256" height="512" rx="8" transform="rotate(2 166.513 37.1885)" fill="#142438"/>
<mask id="path-48-inside-2_3225_12042" fill="white">
<path d="M166.513 37.1885L198.493 38.3053L180.625 549.993L148.644 548.877L166.513 37.1885Z"/>
</mask>
<path d="M166.513 37.1885L198.493 38.3053L180.625 549.993L148.644 548.877L166.513 37.1885Z" fill="white" fill-opacity="0.04"/>
<path d="M198.493 38.3053L197.694 38.2773L179.825 549.965L180.625 549.993L181.424 550.021L199.293 38.3332L198.493 38.3053Z" fill="#536175" fill-opacity="0.2" mask="url(#path-48-inside-2_3225_12042)"/>
<rect opacity="0.4" x="174.32" y="88.6924" width="12.8" height="12.8" rx="6.4" transform="rotate(2 174.32 88.6924)" fill="white"/>
<rect opacity="0.4" x="173.427" y="114.276" width="12.8" height="12.8" rx="6.4" transform="rotate(2 173.427 114.276)" fill="white"/>
<rect opacity="0.4" x="172.533" y="139.861" width="12.8" height="12.8" rx="6.4" transform="rotate(2 172.533 139.861)" fill="white"/>
<rect opacity="0.4" x="171.64" y="165.445" width="12.8" height="12.8" rx="6.4" transform="rotate(2 171.64 165.445)" fill="white"/>
<rect x="192.303" y="78.1152" width="9.6" height="9.6" rx="4.8" transform="rotate(2 192.303 78.1152)" fill="#FFCC00"/>
<g filter="url(#filter0_d_3225_12042)">
<g clip-path="url(#clip4_3225_12042)">
<rect width="208" height="19.2" transform="translate(206.209 46.5801) rotate(2)" fill="white" fill-opacity="0.04"/>
<path d="M217.326 94.998L290.881 97.5666" stroke="white" stroke-opacity="0.6" stroke-width="3.2" stroke-linecap="round"/>
<path d="M216.879 107.79L402.366 114.267" stroke="white" stroke-opacity="0.6" stroke-width="3.2" stroke-linecap="round"/>
<path d="M209.45 137.148L385.343 143.291" stroke="#536175" stroke-width="0.8"/>
<g opacity="0.4">
<path d="M211.201 174.138C210.936 174.129 210.714 174.329 210.705 174.585L210.699 174.763C210.698 174.789 210.719 174.81 210.745 174.811L212.573 174.875C212.883 174.886 213.151 175.087 213.239 175.375L213.475 176.145C213.504 176.241 213.593 176.308 213.697 176.312L218.241 176.471C218.589 176.483 218.879 176.734 218.929 177.067L219.124 178.346C219.132 178.402 219.217 178.397 219.219 178.341L219.34 174.887C219.349 174.631 219.141 174.415 218.876 174.406L211.201 174.138Z" fill="#F8F9FA"/>
<path d="M209.875 175.262C209.88 175.26 209.886 175.26 209.891 175.26L212.515 175.351C212.618 175.355 212.709 175.422 212.738 175.519L212.975 176.291C213.064 176.58 213.334 176.782 213.646 176.793L218.221 176.953C218.337 176.957 218.435 177.041 218.452 177.152L219.109 181.46C219.11 181.464 219.11 181.469 219.109 181.473C219.072 181.702 218.862 181.873 218.616 181.864L218.583 181.863C218.562 181.865 218.541 181.866 218.52 181.865L210.816 181.596C210.576 181.588 210.378 181.41 210.352 181.179L209.715 175.507C209.702 175.395 209.773 175.296 209.875 175.262Z" fill="#F8F9FA"/>
</g>
<path d="M236.814 178.769L242.411 178.964" stroke="#15BB4C" stroke-width="3.2" stroke-linecap="round"/>
<path d="M267.995 179.857L318.364 181.616" stroke="white" stroke-opacity="0.2" stroke-width="3.2" stroke-linecap="round"/>
<path d="M343.949 182.51L393.519 184.241" stroke="#FFCC00" stroke-width="3.2" stroke-linecap="round"/>
<path d="M206.613 218.379L382.506 224.521" stroke="#536175" stroke-width="0.8"/>
<g opacity="0.4">
<path d="M208.364 255.369C208.099 255.359 207.877 255.56 207.868 255.816L207.862 255.994C207.861 256.019 207.882 256.041 207.908 256.042L209.736 256.106C210.046 256.116 210.314 256.318 210.402 256.605L210.638 257.376C210.667 257.472 210.756 257.539 210.86 257.542L215.404 257.701C215.752 257.713 216.042 257.964 216.092 258.297L216.287 259.576C216.295 259.632 216.38 259.628 216.382 259.571L216.503 256.117C216.512 255.861 216.304 255.646 216.039 255.637L208.364 255.369Z" fill="#F8F9FA"/>
<path d="M207.038 256.492C207.044 256.491 207.049 256.49 207.054 256.49L209.678 256.582C209.782 256.585 209.872 256.653 209.901 256.749L210.139 257.522C210.227 257.81 210.497 258.012 210.809 258.023L215.384 258.183C215.501 258.187 215.598 258.271 215.615 258.382L216.272 262.69C216.273 262.695 216.273 262.699 216.272 262.704C216.235 262.933 216.025 263.104 215.779 263.095L215.746 263.094C215.725 263.096 215.704 263.096 215.683 263.095L207.979 262.826C207.739 262.818 207.541 262.64 207.515 262.41L206.878 256.737C206.865 256.626 206.936 256.527 207.038 256.492Z" fill="#F8F9FA"/>
</g>
<path d="M233.978 259.999L239.574 260.194" stroke="white" stroke-opacity="0.2" stroke-width="3.2" stroke-linecap="round"/>
<path d="M265.158 261.088L315.528 262.847" stroke="#15BB4C" stroke-width="3.2" stroke-linecap="round"/>
<path d="M341.112 263.74L390.682 265.471" stroke="#FFCC00" stroke-width="3.2" stroke-linecap="round"/>
<path d="M203.777 299.609L379.67 305.752" stroke="#536175" stroke-width="0.8"/>
<g opacity="0.4">
<path d="M205.527 336.599C205.262 336.59 205.04 336.79 205.031 337.046L205.025 337.224C205.024 337.25 205.045 337.271 205.071 337.272L206.899 337.336C207.209 337.347 207.477 337.548 207.565 337.836L207.801 338.606C207.83 338.702 207.92 338.769 208.023 338.773L212.567 338.932C212.915 338.944 213.205 339.195 213.255 339.528L213.45 340.807C213.458 340.863 213.543 340.858 213.545 340.802L213.666 337.348C213.675 337.092 213.467 336.876 213.202 336.867L205.527 336.599Z" fill="#F8F9FA"/>
<path d="M204.202 337.723C204.207 337.721 204.212 337.721 204.217 337.721L206.841 337.812C206.945 337.816 207.035 337.883 207.064 337.979L207.302 338.752C207.39 339.041 207.66 339.243 207.972 339.254L212.547 339.414C212.664 339.418 212.761 339.502 212.778 339.613L213.436 343.921C213.436 343.925 213.436 343.93 213.436 343.934C213.398 344.163 213.188 344.334 212.942 344.325L212.909 344.324C212.888 344.326 212.867 344.327 212.846 344.326L205.143 344.057C204.902 344.048 204.704 343.871 204.678 343.64L204.041 337.968C204.028 337.856 204.099 337.757 204.202 337.723Z" fill="#F8F9FA"/>
</g>
<path d="M231.141 341.229L236.737 341.425" stroke="white" stroke-opacity="0.2" stroke-width="3.2" stroke-linecap="round"/>
<path d="M262.321 342.318L312.691 344.077" stroke="#15BB4C" stroke-width="3.2" stroke-linecap="round"/>
<path d="M338.275 344.971L387.845 346.702" stroke="#FFCC00" stroke-width="3.2" stroke-linecap="round"/>
<path d="M200.94 380.84L376.833 386.982" stroke="#536175" stroke-width="0.8"/>
<g opacity="0.4">
<path d="M202.691 417.83C202.426 417.82 202.204 418.021 202.195 418.277L202.189 418.455C202.188 418.48 202.209 418.502 202.235 418.503L204.063 418.567C204.373 418.577 204.641 418.779 204.729 419.066L204.965 419.837C204.994 419.933 205.084 420 205.187 420.003L209.731 420.162C210.079 420.174 210.369 420.425 210.419 420.758L210.614 422.037C210.622 422.093 210.707 422.089 210.709 422.032L210.83 418.578C210.839 418.322 210.631 418.107 210.366 418.098L202.691 417.83Z" fill="#F8F9FA"/>
<path d="M201.366 418.953C201.371 418.952 201.376 418.951 201.382 418.951L204.005 419.043C204.109 419.046 204.199 419.114 204.228 419.21L204.466 419.983C204.554 420.271 204.824 420.473 205.136 420.484L209.711 420.644C209.828 420.648 209.925 420.732 209.942 420.843L210.6 425.151C210.6 425.156 210.6 425.16 210.6 425.165C210.562 425.394 210.353 425.564 210.106 425.556L210.073 425.555C210.052 425.557 210.031 425.557 210.01 425.556L202.307 425.287C202.066 425.279 201.868 425.101 201.842 424.871L201.205 419.198C201.192 419.087 201.263 418.988 201.366 418.953Z" fill="#F8F9FA"/>
</g>
<path d="M228.305 422.46L233.901 422.655" stroke="#15BB4C" stroke-width="3.2" stroke-linecap="round"/>
<path d="M259.485 423.549L309.855 425.308" stroke="white" stroke-opacity="0.2" stroke-width="3.2" stroke-linecap="round"/>
<path d="M335.439 426.201L385.009 427.932" stroke="#FFCC00" stroke-width="3.2" stroke-linecap="round"/>
<path d="M198.104 462.07L373.996 468.213" stroke="#536175" stroke-width="0.8"/>
<g opacity="0.4">
<path d="M199.854 499.06C199.589 499.051 199.367 499.251 199.358 499.507L199.352 499.685C199.351 499.711 199.372 499.732 199.398 499.733L201.226 499.797C201.536 499.808 201.804 500.009 201.892 500.297L202.128 501.067C202.157 501.163 202.247 501.23 202.35 501.234L206.895 501.392C207.242 501.405 207.532 501.656 207.582 501.989L207.777 503.268C207.785 503.324 207.87 503.319 207.872 503.263L207.993 499.809C208.002 499.553 207.794 499.337 207.529 499.328L199.854 499.06Z" fill="#F8F9FA"/>
<path d="M198.529 500.184C198.534 500.182 198.539 500.181 198.545 500.182L201.168 500.273C201.272 500.277 201.362 500.344 201.391 500.44L201.629 501.213C201.717 501.502 201.987 501.704 202.299 501.715L206.874 501.874C206.991 501.879 207.088 501.962 207.105 502.074L207.763 506.382C207.763 506.386 207.763 506.391 207.763 506.395C207.725 506.624 207.516 506.795 207.269 506.786L207.236 506.785C207.216 506.787 207.195 506.788 207.173 506.787L199.47 506.518C199.229 506.509 199.031 506.332 199.006 506.101L198.368 500.429C198.355 500.317 198.426 500.218 198.529 500.184Z" fill="#F8F9FA"/>
</g>
<path d="M225.468 503.69L231.064 503.886" stroke="white" stroke-opacity="0.2" stroke-width="3.2" stroke-linecap="round"/>
<path d="M256.648 504.779L307.018 506.538" stroke="#15BB4C" stroke-width="3.2" stroke-linecap="round"/>
<path d="M332.603 507.432L382.172 509.163" stroke="#FFCC00" stroke-width="3.2" stroke-linecap="round"/>
</g>
</g>
</g>
<defs>
<filter id="filter0_d_3225_12042" x="176.098" y="36.9801" width="250.784" height="528.557" filterUnits="userSpaceOnUse" color-interpolation-filters="sRGB">
<feFlood flood-opacity="0" result="BackgroundImageFix"/>
<feColorMatrix in="SourceAlpha" type="matrix" values="0 0 0 0 0 0 0 0 0 0 0 0 0 0 0 0 0 0 127 0" result="hardAlpha"/>
<feOffset dy="3.2"/>
<feGaussianBlur stdDeviation="6.4"/>
<feColorMatrix type="matrix" values="0 0 0 0 0.12549 0 0 0 0 0.164706 0 0 0 0 0.258824 0 0 0 0.16 0"/>
<feBlend mode="normal" in2="BackgroundImageFix" result="effect1_dropShadow_3225_12042"/>
<feBlend mode="normal" in="SourceGraphic" in2="effect1_dropShadow_3225_12042" result="shape"/>
</filter>
<clipPath id="clip0_3225_12042">
<rect x="0.954102" y="18.0527" width="256" height="512" rx="8" transform="rotate(-4 0.954102 18.0527)" fill="white"/>
</clipPath>
<clipPath id="clip1_3225_12042">
<path d="M0.954102 18.0527L62.404 13.7557L98.1194 524.509L36.6694 528.806L0.954102 18.0527Z" fill="white"/>
</clipPath>
<clipPath id="clip2_3225_12042">
<rect width="194.4" height="512" fill="white" transform="translate(62.4043 13.7559) rotate(-4)"/>
</clipPath>
<clipPath id="clip3_3225_12042">
<rect x="166.513" y="37.1885" width="256" height="512" rx="8" transform="rotate(2 166.513 37.1885)" fill="white"/>
</clipPath>
<clipPath id="clip4_3225_12042">
<rect x="206.209" y="46.5801" width="208" height="496" rx="3.2" transform="rotate(2 206.209 46.5801)" fill="white"/>
</clipPath>
</defs>
</svg>
