<svg width="640" height="800" viewBox="0 0 640 800" fill="none" xmlns="http://www.w3.org/2000/svg">
<path d="M214.123 339.215C212.182 339.883 210.101 340.226 208 340.226C119.634 340.226 48 399.697 48 473.057L48 589.887C48 598.723 55.1634 605.887 64 605.887H208C210.101 605.887 212.182 606.23 214.123 606.898C216.064 607.565 217.828 608.544 219.314 609.777C220.799 611.011 221.978 612.475 222.782 614.087C223.586 615.698 224 617.425 224 619.17C224 620.914 223.586 622.641 222.782 624.253C221.978 625.865 220.799 627.329 219.314 628.562C217.828 629.796 216.064 630.774 214.123 631.442C212.182 632.109 210.101 632.453 208 632.453H192C118.981 632.453 58.6555 677.572 49.2688 736.061C47.8686 744.785 55.1634 752 64 752H576C584.837 752 592.06 744.817 591.429 736.003C581.466 596.731 442.261 486.34 272 486.34H208C205.899 486.34 203.818 485.996 201.877 485.329C199.936 484.661 198.172 483.683 196.686 482.449C195.201 481.216 194.022 479.751 193.218 478.14C192.414 476.528 192 474.801 192 473.057C192 471.312 192.414 469.585 193.218 467.973C194.022 466.362 195.201 464.898 196.686 463.664C198.172 462.431 199.936 461.452 201.877 460.785C203.818 460.117 205.899 459.774 208 459.774L576 459.774C584.837 459.774 592.06 452.59 591.429 443.776C581.466 304.505 442.261 194.113 272 194.113H208C205.899 194.113 203.818 193.77 201.877 193.102C199.936 192.435 198.172 191.456 196.686 190.223C195.201 188.989 194.022 187.525 193.218 185.913C192.414 184.302 192 182.575 192 180.83C192 179.086 192.414 177.359 193.218 175.747C194.022 174.135 195.201 172.671 196.686 171.438C198.172 170.204 199.936 169.226 201.877 168.558C203.818 167.891 205.899 167.547 208 167.547L352 167.547C360.837 167.547 368.131 160.333 366.731 151.608C357.345 93.1194 297.019 48 224 48L208 48C119.634 48 48 107.47 48 180.83L48 297.66C48 306.497 55.1635 313.66 64 313.66H208C210.101 313.66 212.182 314.004 214.123 314.671C216.064 315.339 217.828 316.317 219.314 317.551C220.799 318.784 221.978 320.249 222.782 321.86C223.586 323.472 224 325.199 224 326.943C224 328.688 223.586 330.415 222.782 332.027C221.978 333.638 220.799 335.102 219.314 336.336C217.828 337.569 216.064 338.548 214.123 339.215Z" fill="currentColor"/>
</svg>
