<svg width="640" height="800" viewBox="0 0 640 800" fill="none" xmlns="http://www.w3.org/2000/svg">
<path d="M591.998 656.037C591.998 707.715 551.164 749.856 500.002 751.955C497.794 752.046 495.998 750.246 495.998 748.037V494.524C495.998 492.315 494.207 490.524 491.998 490.524H484C481.791 490.524 480 492.315 480 494.524V544.038C480 657.572 389.037 749.86 276.014 751.999C273.806 752.041 272 750.246 272 748.037V494.524C272 492.315 270.209 490.524 268 490.524H260C257.791 490.524 256 492.315 256 494.524V544.038C256 657.572 165.037 749.86 52.0143 751.999C49.8056 752.041 48 750.246 48 748.037V325.011C48 273.333 88.8338 231.192 139.996 229.093C142.204 229.002 144 230.802 144 233.011V486.524C144 488.734 145.791 490.524 148 490.524H156C158.209 490.524 160 488.734 160 486.524V255.963C160 142.429 250.963 50.1402 363.986 48.0008C366.194 47.959 368 49.7537 368 51.9629V486.524C368 488.734 369.791 490.524 372 490.524H380C382.209 490.524 384 488.734 384 486.524V255.963C384 142.429 474.963 50.1402 587.986 48.0008C590.194 47.959 592 49.7537 592 51.9629V490.523L591.998 490.525V656.037Z" fill="currentColor"/>
</svg>
