<svg width="640" height="800" viewBox="0 0 640 800" fill="none" xmlns="http://www.w3.org/2000/svg">
<path d="M279.529 48C332.809 48 376 91.1915 376 144.471V165.019C376 173.855 368.837 181.019 360 181.019H279.529C278.263 181.019 277.008 181.191 275.838 181.525C274.667 181.86 273.604 182.349 272.708 182.967C271.812 183.584 271.101 184.317 270.616 185.124C270.131 185.931 269.883 186.797 269.883 187.67C269.883 188.543 270.132 189.408 270.616 190.215C271.101 191.022 271.812 191.755 272.708 192.372C273.604 192.99 274.667 193.48 275.838 193.814C277.008 194.149 278.263 194.32 279.529 194.32L280.776 194.329C333.481 194.997 376 237.928 376 290.791V311.339C376 320.175 368.837 327.339 360 327.339H279.53C279.53 327.339 279.53 327.339 279.53 327.339C279.53 327.339 279.529 327.34 279.529 327.34C278.262 327.34 277.008 327.512 275.838 327.847C274.667 328.181 273.604 328.67 272.708 329.288C271.812 329.906 271.101 330.638 270.616 331.445C270.131 332.252 269.883 333.118 269.883 333.991C269.883 334.864 270.132 335.729 270.616 336.536C271.101 337.343 271.812 338.076 272.708 338.693C273.604 339.311 274.668 339.802 275.838 340.136C277.008 340.47 278.263 340.642 279.529 340.642H316.142C348.865 340.642 375.455 366.9 375.991 399.496C375.991 399.498 375.993 399.5 375.996 399.5C375.998 399.5 376 399.502 376 399.504C376 399.67 375.997 399.835 375.996 400C375.997 400.165 376 400.33 376 400.496C376 400.498 375.998 400.5 375.996 400.5C375.993 400.5 375.991 400.502 375.991 400.504C375.455 433.1 348.865 459.358 316.142 459.358H279.529C278.263 459.358 277.008 459.53 275.838 459.864C274.668 460.198 273.604 460.689 272.708 461.307C271.812 461.924 271.101 462.657 270.616 463.464C270.132 464.271 269.883 465.136 269.883 466.009C269.883 466.882 270.132 467.748 270.616 468.555C271.101 469.362 271.812 470.094 272.708 470.712C273.604 471.33 274.668 471.819 275.838 472.153C277.008 472.488 278.263 472.661 279.529 472.661L360 472.661C368.837 472.661 376 479.825 376 488.661V509.209C376 562.072 333.481 605.003 280.776 605.671L279.529 605.68C278.263 605.68 277.008 605.851 275.838 606.186C274.667 606.52 273.604 607.01 272.708 607.628C271.812 608.245 271.101 608.978 270.616 609.785C270.132 610.592 269.883 611.457 269.883 612.33C269.883 613.203 270.131 614.069 270.616 614.876C271.101 615.683 271.812 616.416 272.708 617.033C273.604 617.651 274.667 618.14 275.838 618.475C277.008 618.809 278.263 618.981 279.529 618.981H360C368.837 618.981 376 626.145 376 634.981V655.529C376 708.809 332.809 752 279.529 752H242.917C215.333 752 192.107 733.342 185.17 707.957C182.841 699.433 190.222 692.142 199.059 692.142H279.529C280.796 692.142 282.05 691.969 283.221 691.635C284.391 691.301 285.455 690.811 286.351 690.193C287.246 689.576 287.958 688.843 288.442 688.036C288.927 687.229 289.177 686.364 289.177 685.49C289.177 684.617 288.927 683.752 288.442 682.945C287.958 682.138 287.246 681.406 286.351 680.788C285.455 680.171 284.391 679.68 283.221 679.346C282.197 679.053 281.109 678.885 280.004 678.848L279.529 678.84H181.019C112.96 678.84 56.8389 627.726 48.949 561.792C47.8991 553.018 55.1635 545.821 64.0001 545.821H279.529C280.796 545.821 282.05 545.649 283.221 545.314C284.391 544.98 285.455 544.491 286.351 543.873C287.246 543.256 287.958 542.523 288.442 541.716C288.927 540.909 289.177 540.043 289.177 539.17C289.177 538.297 288.927 537.432 288.442 536.625C287.958 535.818 287.246 535.085 286.351 534.468C285.455 533.85 284.391 533.36 283.221 533.025C282.05 532.691 280.796 532.52 279.529 532.52L181.019 532.519C107.889 532.518 48.545 473.505 48.0059 400.503C48.0059 400.501 48.0046 400.5 48.0029 400.5C48.0013 400.5 48 400.499 48 400.497C48 400.331 48.0023 400.166 48.0029 400C48.0023 399.834 48 399.669 48 399.503C48 399.501 48.0013 399.5 48.0029 399.5C48.0046 399.5 48.0059 399.499 48.0059 399.497C48.545 326.495 107.889 267.482 181.019 267.481L279.529 267.48C280.796 267.48 282.05 267.309 283.221 266.975C284.391 266.64 285.455 266.15 286.351 265.532C287.246 264.915 287.958 264.182 288.442 263.375C288.927 262.568 289.177 261.703 289.177 260.83C289.177 259.957 288.927 259.091 288.442 258.284C287.958 257.477 287.246 256.744 286.351 256.127C285.455 255.509 284.391 255.02 283.221 254.686C282.05 254.351 280.796 254.179 279.529 254.179H64.0001C55.1635 254.179 47.8991 246.982 48.949 238.208C56.8389 172.274 112.96 121.16 181.019 121.16H279.529L280.004 121.152C281.109 121.115 282.197 120.947 283.221 120.654C284.391 120.32 285.455 119.829 286.351 119.212C287.246 118.594 287.958 117.862 288.442 117.055C288.927 116.248 289.177 115.383 289.177 114.51C289.177 113.636 288.927 112.771 288.442 111.964C287.958 111.157 287.246 110.424 286.351 109.807C285.455 109.189 284.391 108.699 283.221 108.365C282.05 108.031 280.796 107.858 279.529 107.858H199.059C190.222 107.858 182.841 100.567 185.17 92.0426C192.107 66.6584 215.333 48.0001 242.917 48H279.529Z" fill="currentColor"/>
<path d="M456.471 48C487.658 48.0001 512.941 73.2829 512.941 104.471C512.941 106.342 511.425 107.858 509.554 107.858H456.471C455.729 107.858 454.995 108.031 454.31 108.365C453.625 108.699 453.002 109.189 452.478 109.807C451.953 110.424 451.538 111.157 451.254 111.964C450.97 112.771 450.823 113.636 450.823 114.51C450.823 115.383 450.97 116.248 451.254 117.055C451.538 117.861 451.953 118.594 452.478 119.212C453.002 119.829 453.624 120.32 454.31 120.654C454.995 120.989 455.729 121.16 456.471 121.16H458.981C527.04 121.16 583.161 172.274 591.051 238.208C592.101 246.982 584.837 254.179 576 254.179H456.471C455.729 254.179 454.995 254.351 454.31 254.686C453.625 255.02 453.002 255.51 452.478 256.127C451.953 256.744 451.538 257.478 451.254 258.284C450.97 259.091 450.823 259.957 450.823 260.83C450.823 261.703 450.97 262.568 451.254 263.375C451.538 264.182 451.953 264.915 452.478 265.532C453.002 266.15 453.624 266.64 454.31 266.975C454.995 267.309 455.729 267.481 456.471 267.481L458.981 267.481C532.111 267.482 591.455 326.495 591.994 399.497C591.994 399.499 591.995 399.5 591.997 399.5C591.999 399.5 592 399.501 592 399.503C592 399.669 591.997 399.834 591.996 400C591.997 400.166 592 400.331 592 400.497C592 400.499 591.999 400.5 591.997 400.5C591.995 400.5 591.994 400.501 591.994 400.503C591.455 473.505 532.111 532.518 458.981 532.519L456.471 532.519C455.729 532.519 454.995 532.691 454.31 533.025C453.624 533.36 453.002 533.85 452.478 534.468C451.953 535.085 451.538 535.818 451.254 536.625C450.97 537.432 450.823 538.297 450.823 539.17C450.823 540.043 450.97 540.909 451.254 541.716C451.538 542.522 451.953 543.256 452.478 543.873C453.002 544.49 453.625 544.98 454.31 545.314C454.995 545.649 455.729 545.821 456.471 545.821H576C584.837 545.821 592.101 553.018 591.051 561.792C583.161 627.726 527.04 678.84 458.981 678.84H456.471C455.729 678.84 454.995 679.011 454.31 679.346C453.624 679.68 453.002 680.171 452.478 680.788C451.953 681.406 451.538 682.139 451.254 682.945C450.97 683.752 450.823 684.617 450.823 685.49C450.823 686.364 450.97 687.229 451.254 688.036C451.538 688.843 451.953 689.576 452.478 690.193C453.002 690.811 453.625 691.301 454.31 691.635C454.995 691.969 455.729 692.142 456.471 692.142H509.554C511.425 692.142 512.941 693.658 512.941 695.529C512.941 726.717 487.658 752 456.471 752C425.283 752 400 726.717 400 695.529V634.981C400 626.145 407.163 618.981 416 618.981H456.471L456.748 618.974C457.395 618.936 458.032 618.767 458.632 618.475C459.317 618.14 459.94 617.651 460.464 617.033C460.988 616.416 461.404 615.683 461.688 614.876C461.971 614.069 462.117 613.203 462.117 612.33C462.117 611.457 461.971 610.592 461.688 609.785C461.404 608.978 460.988 608.245 460.464 607.628C459.94 607.01 459.317 606.52 458.632 606.186C458.032 605.893 457.395 605.725 456.748 605.688L456.471 605.68C425.283 605.68 400 580.397 400 549.209V488.661C400 479.825 407.163 472.661 416 472.661H456.47C456.47 472.661 456.47 472.661 456.47 472.661C456.47 472.661 456.471 472.66 456.471 472.66C457.213 472.66 457.947 472.487 458.632 472.153C459.317 471.819 459.94 471.329 460.464 470.712C460.988 470.095 461.404 469.361 461.688 468.555C461.971 467.748 462.117 466.882 462.117 466.009C462.117 465.136 461.971 464.271 461.688 463.464C461.404 462.657 460.988 461.924 460.464 461.307C459.94 460.689 459.317 460.198 458.632 459.864C458.032 459.572 457.395 459.405 456.748 459.367L456.471 459.358C425.283 459.358 400 434.076 400 402.888V397.112C400 365.924 425.283 340.642 456.471 340.642L456.748 340.633C457.395 340.595 458.032 340.428 458.632 340.136C459.317 339.802 459.94 339.311 460.464 338.693C460.988 338.076 461.404 337.343 461.688 336.536C461.971 335.729 462.117 334.864 462.117 333.991C462.117 333.118 461.971 332.252 461.688 331.445C461.404 330.639 460.988 329.905 460.464 329.288C459.94 328.671 459.317 328.181 458.632 327.847C457.947 327.513 457.212 327.339 456.471 327.339L416 327.339C407.163 327.339 400 320.175 400 311.339V250.791C400 219.603 425.283 194.32 456.471 194.32L456.748 194.312C457.395 194.275 458.032 194.107 458.632 193.814C459.317 193.48 459.94 192.99 460.464 192.372C460.988 191.755 461.404 191.022 461.688 190.215C461.971 189.408 462.117 188.543 462.117 187.67C462.117 186.797 461.971 185.931 461.688 185.124C461.404 184.317 460.988 183.584 460.464 182.967C459.94 182.349 459.317 181.86 458.632 181.525C458.032 181.233 457.395 181.064 456.748 181.026L456.471 181.019H416C407.163 181.019 400 173.855 400 165.019V104.471C400 73.2829 425.283 48 456.471 48Z" fill="currentColor"/>
</svg>
