<svg width="288" height="288" viewBox="0 0 288 288" fill="none" xmlns="http://www.w3.org/2000/svg">
<g opacity="0.3">
<path d="M142.407 239.269C142.862 241.463 143.166 243.611 143.419 246.766H144.48C144.784 243.611 145.138 241.417 145.593 239.314L149.03 224H159.09L150.395 253.942L160 288H149.03L145.087 268.663C144.581 266.012 144.329 264 144.076 261.714H143.015C142.812 264 142.559 266.012 142.003 268.709L138.161 288H128L136.948 254.537L128.606 224H139.223L142.407 239.269ZM34.0576 137.605L64 128.91V138.97L48.6855 142.407C46.5827 142.862 44.3886 143.216 41.2344 143.52V144.581C44.3886 144.834 46.5372 145.138 48.7314 145.593L64 148.777V159.394L33.4629 151.052L0 160V149.839L19.291 145.997C21.9882 145.441 24.0004 145.188 26.2861 144.985V143.924C24.0004 143.671 21.9883 143.419 19.3369 142.913L0 138.97V128L34.0576 137.605ZM288 138.97L268.663 142.913C266.012 143.419 264 143.671 261.714 143.924V144.985C264 145.188 266.012 145.441 268.709 145.997L288 149.839V160L254.537 151.052L224 159.394V148.777L239.269 145.593C241.463 145.138 243.611 144.834 246.766 144.581V143.52C243.611 143.216 241.417 142.862 239.314 142.407L224 138.97V128.91L253.942 137.605L288 128V138.97ZM142.003 19.291C142.559 21.9882 142.812 24.0004 143.015 26.2861H144.076C144.329 24.0004 144.581 21.9883 145.087 19.3369L149.03 0H160L150.395 34.0576L159.09 64H149.03L145.593 48.6855C145.138 46.5827 144.784 44.3886 144.48 41.2344H143.419C143.166 44.3886 142.862 46.5372 142.407 48.7314L139.223 64H128.606L136.948 33.4629L128 0H138.161L142.003 19.291Z" fill="currentColor" fill-opacity="0.1"/>
</g>
</svg>
