<svg width="288" height="288" viewBox="0 0 288 288" fill="none" xmlns="http://www.w3.org/2000/svg">
<path d="M146.856 82.3899C147.037 82.3924 147.892 83.1225 148.756 84.0127C149.619 84.9022 150.326 85.7409 150.327 85.8774C150.326 86.0141 149.999 86.867 149.599 87.7731C149.198 88.6806 147.895 91.2495 146.702 93.4823C145.509 95.715 144.142 98.2628 143.664 99.1441C143.186 100.025 141.647 102.854 140.244 105.429C138.841 108.004 136.647 112.051 135.369 114.423C134.09 116.795 132.383 119.955 131.573 121.446C130.764 122.937 129.837 124.656 129.513 125.266C129.188 125.877 126.855 130.257 124.327 135C119.732 143.624 119.732 143.625 119.851 144.857C119.993 146.316 119.13 148.266 121.156 149.344C123.183 150.419 130.334 138.007 132.282 137.041C135.244 135.573 136.097 134.662 138.677 132.466C139.81 131.502 141.858 129.638 143.23 128.324C144.601 127.011 146.893 124.609 148.324 122.988C149.754 121.368 151.413 119.305 152.009 118.405C152.605 117.505 153.191 116.767 153.31 116.765C154.203 116.743 156.516 117.717 157.148 118.436C157.261 118.566 157.121 119.226 156.804 120.039C156.508 120.8 155.736 122.175 155.089 123.094C154.442 124.014 153.231 125.93 152.397 127.353C151.563 128.777 150.023 131.605 148.974 133.638C147.925 135.671 146.007 139.675 144.713 142.536C143.417 145.397 141.909 148.945 141.359 150.421C140.81 151.897 140.126 153.882 139.839 154.831C139.552 155.779 139.179 157.082 139.009 157.726C138.84 158.369 138.784 158.896 138.886 158.896C138.989 158.895 139.579 158.163 140.197 157.27C140.815 156.375 141.91 154.572 142.631 153.265C143.347 151.964 143.952 150.871 143.981 150.827C144.003 150.794 144.883 151.097 145.936 151.502C146.988 151.906 147.886 152.28 147.932 152.332C147.976 152.388 147.767 153.177 147.465 154.089C147.162 155.004 146.558 156.42 146.122 157.236C145.686 158.052 144.628 159.785 143.772 161.088C142.915 162.39 141.663 164.042 140.99 164.76C140.317 165.478 139.422 166.23 139 166.43C138.277 166.773 138.116 166.751 136.233 166.042C135.119 165.622 134.068 165.063 133.855 164.776C133.601 164.433 133.475 163.843 133.475 162.997C133.475 162.3 133.619 160.954 133.794 160.005C133.969 159.056 134.445 157.227 134.851 155.94C135.816 152.886 136.826 149.859 137.944 146.872C138.466 145.478 139.581 142.72 140.421 140.744C141.258 138.775 141.9 137.114 141.852 137.041C141.799 136.981 140.565 137.838 139.11 138.946C134.434 142.51 124.638 157.74 119.851 155.946C118.108 155.293 116.551 153.87 116.281 151.502C112.681 151.536 105.276 173.019 104.307 176.277C103.641 178.516 93.9384 207.238 93.3434 209.406C92.7487 211.575 91.9277 214.846 91.5187 216.676C91.1099 218.506 90.6548 220.89 90.5074 221.974C90.3598 223.058 90.2202 223.968 90.1972 223.996C90.1713 224.024 89.1987 223.885 88.0345 223.686C86.8699 223.487 85.8378 223.379 85.738 223.447C85.6409 223.515 84.8675 222.841 84.02 221.949C82.7336 220.595 82.4793 220.198 82.4813 219.548C82.4826 219.121 82.623 218.175 82.7933 217.447C82.9639 216.719 83.5163 215 84.0209 213.627C87.9863 202.845 90.5069 195.381 96.3968 180.687C98.6055 175.177 101.274 169.784 103.076 164.078C103.462 162.858 104.687 159.199 105.799 155.946C106.912 152.694 108.203 148.978 108.668 147.69C109.133 146.403 110.297 143.298 111.256 140.791C112.214 138.284 113.79 134.242 114.756 131.809C115.719 129.384 116.507 127.363 116.512 127.311C116.512 127.27 116.615 127.237 116.739 127.237C116.866 127.238 117.841 127.584 118.907 128.007C120.729 128.73 120.848 128.82 120.848 129.471C120.848 129.853 120.938 130.229 121.048 130.307C121.161 130.38 122.121 128.807 123.182 126.809C124.245 124.808 125.829 121.841 126.702 120.214C127.575 118.588 129.653 114.761 131.32 111.712C132.987 108.663 134.732 105.448 135.199 104.566C135.665 103.685 136.627 101.911 137.337 100.623C138.047 99.3359 139.025 97.5248 139.511 96.5994C139.996 95.6764 140.347 94.8682 140.293 94.8009C140.237 94.7371 140.057 94.8293 139.893 95.0049C139.729 95.181 139.01 95.878 138.296 96.5541C137.581 97.2303 136.889 97.8963 136.758 98.0333C136.626 98.1709 135.559 99.2252 134.386 100.377C133.213 101.529 131.321 103.4 130.181 104.536C129.041 105.671 127.767 106.947 127.35 107.372C126.932 107.796 125.519 109.196 124.207 110.482C122.896 111.769 120.987 113.653 119.965 114.669C118.944 115.686 117.286 117.312 116.281 118.283C115.275 119.255 113.462 120.974 112.251 122.103C111.041 123.233 109.09 124.999 107.916 126.028C106.743 127.057 105.002 128.514 104.048 129.264C103.094 130.015 101.723 130.966 101 131.377C100.277 131.789 99.3399 132.2 98.9171 132.29C98.1949 132.444 98.0445 132.348 96.3968 130.687C95.2247 129.505 94.5999 128.685 94.507 128.206C94.4277 127.796 94.5233 126.887 94.7318 126.071C94.9315 125.289 95.5411 123.541 96.0866 122.186C96.6319 120.83 97.7096 118.391 98.4806 116.765C99.2514 115.138 101.101 111.368 102.59 108.386C104.079 105.405 105.612 102.354 105.997 101.609C106.382 100.863 107.092 99.4763 107.574 98.5264C108.055 97.5762 108.762 96.1521 109.143 95.362C109.688 94.2327 109.75 93.9798 109.435 94.1794C109.214 94.3193 108.532 94.8564 107.918 95.3724C107.305 95.8888 104.291 98.4727 101.222 101.116C98.1523 103.758 95.3864 106.139 95.0753 106.405C94.763 106.672 92.1679 108.934 89.3076 111.432C86.4465 113.931 83.4719 116.548 82.6967 117.246C81.9218 117.945 79.1036 120.506 76.434 122.938C73.7646 125.371 71.2765 127.633 70.9059 127.966C70.5352 128.298 69.451 129.368 68.497 130.343C66.7623 132.116 66.762 132.116 65.192 130.478C63.6211 128.839 63.6211 128.839 65.0843 127.114C65.8886 126.166 66.8924 125.048 67.3149 124.629C67.7371 124.211 68.7133 123.268 69.4841 122.534C70.2547 121.8 71.373 120.756 71.9682 120.214C72.5631 119.672 73.2451 119.046 73.4837 118.822C73.7222 118.598 74.6975 117.716 75.6512 116.863C76.6049 116.01 78.5563 114.258 79.9869 112.97C81.4174 111.682 83.1246 110.155 83.7804 109.575C84.4361 108.996 86.728 106.99 88.874 105.119C91.0195 103.248 93.0307 101.499 93.3434 101.232C93.6554 100.965 96.4235 98.584 99.4938 95.941C102.564 93.2981 106.406 90.0207 108.031 88.6582C109.655 87.2959 111.654 85.6603 112.472 85.0234C113.291 84.3867 114.173 83.8663 114.433 83.8663C114.711 83.8675 115.55 84.5371 116.478 85.4995C117.944 87.0214 118.041 87.1846 117.905 87.9016C117.824 88.3251 117.382 89.5242 116.922 90.5663C116.462 91.609 114.169 96.2663 111.825 100.916C109.481 105.566 106.499 111.533 105.198 114.176C103.897 116.819 102.248 120.352 101.533 122.027C100.819 123.701 100.263 125.171 100.298 125.292C100.336 125.412 101.145 124.93 102.098 124.219C103.052 123.508 105.052 121.844 106.542 120.523C108.032 119.202 109.752 117.65 110.365 117.073C110.978 116.497 112.003 115.541 112.641 114.95C113.28 114.359 114.29 113.4 114.886 112.817C115.482 112.235 116.761 110.987 117.728 110.045C118.695 109.102 119.68 108.122 119.915 107.866C120.151 107.609 121.256 106.513 122.371 105.429C123.486 104.344 124.554 103.29 124.744 103.087C124.935 102.884 125.477 102.342 125.95 101.883C126.422 101.425 127.39 100.482 128.1 99.7893C128.811 99.0959 130.323 97.5861 131.46 96.4341C132.597 95.2822 134.1 93.7851 134.8 93.1073C135.5 92.4296 136.486 91.4866 136.991 91.0122C137.496 90.5378 139.314 88.811 141.03 87.1752C142.746 85.5398 144.685 83.7938 145.339 83.2948C145.993 82.7965 146.675 82.3891 146.856 82.3899Z" fill="currentColor"/>
<path d="M173.008 124.135C175.014 122.154 175.014 122.155 176.693 123.022C177.616 123.5 178.507 124.042 178.671 124.226C178.922 124.509 178.87 124.782 178.334 126C177.985 126.792 176.446 129.713 174.914 132.491C173.383 135.269 171.962 137.876 171.756 138.282C171.55 138.689 170.932 139.846 170.383 140.853C169.833 141.859 169.426 142.732 169.478 142.792C169.536 142.844 170.834 141.417 172.367 139.614C175.161 136.329 175.161 136.329 177.092 137.332C178.598 138.114 179.038 138.457 179.095 138.892C179.163 139.414 179.238 139.439 180.287 139.277C180.904 139.182 182.563 139.011 183.974 138.896C186.19 138.716 186.655 138.601 187.383 138.054C187.846 137.705 188.314 137.42 188.421 137.42C188.53 137.421 189.16 137.703 189.822 138.047C190.807 138.56 191.099 138.621 191.42 138.38C191.636 138.217 192.8 136.854 194.007 135.349C195.214 133.845 197.178 131.28 198.372 129.649C199.565 128.018 200.7 126.535 200.895 126.351C201.197 126.066 201.501 126.149 203.032 126.938C204.014 127.443 204.953 128.003 205.118 128.182C205.372 128.458 205.277 128.954 204.496 131.424C203.989 133.027 203.147 135.726 202.627 137.42C202.106 139.114 201.679 140.642 201.678 140.815C201.676 141.052 201.837 141.033 202.341 140.737C202.978 140.363 203.075 140.379 204.602 141.101C205.655 141.599 206.564 141.856 207.277 141.856C207.872 141.855 209.902 141.512 211.789 141.093C213.677 140.674 216.101 140.274 217.174 140.203C219.107 140.075 219.142 140.083 221.071 141.098C222.142 141.661 223.239 142.359 223.51 142.648C223.78 142.937 224.001 143.348 224 143.562C223.999 143.776 223.764 144.519 223.48 145.214C223.195 145.909 222.86 146.549 222.736 146.636C222.611 146.723 221.775 146.381 220.879 145.877C219.247 144.959 219.246 144.959 217.669 145.24C216.801 145.395 215.017 145.754 213.705 146.039C212.394 146.324 210.541 146.576 209.587 146.599C208.109 146.636 207.664 146.544 206.58 145.974C205.883 145.608 205.272 145.308 205.218 145.305C205.169 145.305 204.15 146.359 202.954 147.646C201.758 148.933 200.555 150.05 200.28 150.129C199.94 150.227 199.16 149.917 197.829 149.157C196.757 148.545 195.818 147.862 195.742 147.639C195.667 147.418 195.607 146.885 195.608 146.456C195.61 146.027 195.889 144.483 196.228 143.026C196.567 141.574 196.807 140.385 196.763 140.377C196.711 140.385 195.653 141.478 194.406 142.815C193.156 144.155 191.773 145.446 191.335 145.682C190.539 146.112 190.538 146.111 188.357 144.893C186.176 143.674 186.176 143.674 183.683 143.978C182.313 144.146 180.703 144.29 180.106 144.299C179.383 144.31 178.638 144.111 177.864 143.701C177.227 143.365 176.579 143.088 176.424 143.087C176.27 143.087 174.164 145.499 171.744 148.447C169.324 151.395 166.313 155.004 165.054 156.466C163.795 157.927 162.394 159.416 161.94 159.774C161.114 160.425 161.114 160.425 159.176 159.345C157.557 158.442 157.238 158.17 157.238 157.686C157.238 157.368 157.628 156.244 158.105 155.191C158.581 154.14 158.97 153.202 158.972 153.105C158.973 153.008 159.427 152.019 159.98 150.906C160.535 149.791 161.445 147.992 162.003 146.907C162.561 145.823 163.586 143.827 164.282 142.472C164.977 141.117 165.781 139.582 166.068 139.061C166.355 138.541 166.541 138.059 166.482 137.99C166.422 137.922 165.024 139.079 163.377 140.56C161.729 142.041 159.247 144.217 157.861 145.395C155.685 147.245 155.29 147.691 154.965 148.658C154.758 149.273 154.457 149.835 154.295 149.906C154.134 149.976 152.974 149.476 151.718 148.794C150.464 148.113 149.438 147.447 149.435 147.313C149.435 147.18 149.619 146.591 149.845 146.003C150.071 145.417 150.436 144.767 150.658 144.56C150.879 144.353 152.914 142.587 155.179 140.635C157.444 138.684 160.273 136.198 161.465 135.112C162.657 134.027 165.291 131.559 167.317 129.628C169.344 127.697 171.905 125.225 173.008 124.135Z" fill="currentColor"/>
<path d="M217.093 126.559C217.377 126.477 218.043 126.601 218.582 126.838C219.119 127.073 219.983 127.46 220.502 127.698C221.407 128.112 221.442 128.165 221.326 128.981C221.259 129.449 221.051 130.098 220.864 130.422C220.637 130.815 220.317 131.013 219.908 131.013C219.569 131.013 218.572 130.675 217.693 130.263C216.814 129.851 216.016 129.425 215.919 129.315C215.823 129.207 215.933 128.575 216.161 127.913C216.456 127.059 216.728 126.665 217.093 126.559Z" fill="currentColor"/>
<path d="M186.741 125.345C186.964 125.346 187.983 125.816 189.006 126.392C190.786 127.393 190.862 127.47 190.746 128.137C190.678 128.522 190.421 129.16 190.174 129.555C189.926 129.95 189.526 130.273 189.284 130.273C189.042 130.273 188.025 129.765 187.023 129.144C186.022 128.524 185.203 127.909 185.201 127.777C185.201 127.645 185.359 127.183 185.553 126.75C185.746 126.316 186.002 125.823 186.121 125.653C186.24 125.484 186.519 125.345 186.741 125.345Z" fill="currentColor"/>
<path d="M145.884 64.0006C146.005 64.04 146.913 64.3951 147.904 64.7893C149.665 65.4898 149.705 65.5238 149.586 66.2043C149.519 66.5877 149.311 67.253 149.124 67.6826C148.908 68.1788 147.586 69.4984 145.502 71.2976C143.697 72.8562 141.092 75.1921 139.716 76.4881C138.339 77.7841 136.758 79.4217 136.202 80.1267C135.191 81.4075 135.19 81.4072 133.311 80.6339C131.431 79.8606 131.431 79.8601 131.576 78.9677C131.656 78.4766 131.974 77.5465 132.282 76.9009C132.633 76.1634 133.564 75.0181 134.785 73.8206C135.854 72.772 138.74 70.1173 141.198 67.9216C143.655 65.7263 145.764 63.9622 145.884 64.0006Z" fill="currentColor"/>
</svg>
