<svg width="656" height="256" viewBox="0 0 656 256" fill="none" xmlns="http://www.w3.org/2000/svg">
<path d="M73.0098 162H63.4883L72.7168 93.6406H85.3633L94.8359 162H84.6309L83.4102 150.867H74.2793L73.0098 162ZM77.0137 126.404L75.1094 143.885H82.5312L80.6758 126.404C80.1387 120.984 79.6992 115.809 79.3574 107.41H78.332C77.9902 115.809 77.5508 120.984 77.0137 126.404ZM111.629 162H102.01V93.6406H114.51L122.615 130.652C123.396 134.363 124.275 139.344 125.203 145.887L126.229 145.789C125.447 136.658 124.812 126.258 124.812 118.348L124.764 93.6406H134.432V162H122.176L113.924 125.232C113.094 121.375 112.361 117.225 111.238 109.266L110.213 109.363C110.848 117.371 111.58 130.311 111.58 138.465L111.629 162ZM157.914 162.928C148.051 162.928 143.168 157.459 143.168 146.424V109.266C143.168 98.1816 148.051 92.7129 157.914 92.7129C167.875 92.7129 172.758 98.1816 172.758 109.266V146.424C172.758 157.459 167.875 162.928 157.914 162.928ZM157.963 155.262C161.283 155.262 162.846 152.771 162.846 147.596V108.24C162.846 102.918 161.283 100.379 157.963 100.379C154.643 100.379 153.031 102.918 153.031 108.24V147.596C153.031 152.771 154.643 155.262 157.963 155.262ZM197.705 162H187.891V101.697H178.809V93.6406H206.738V101.697H197.705V162ZM223.629 162H213.814V93.6406H223.629V121.814H232.369V93.6406H242.184V162H232.369V129.627H223.629V162ZM273.967 162H251.408V93.6406H273.332V101.697H261.223V122.156H272.062V129.578H261.223V153.943H273.967V162ZM291.688 162H281.873V93.6406H295.984C305.066 93.6406 309.559 98.2305 309.559 107.459V114.002C309.559 120.838 306.824 124.842 301.502 125.965V126.795C305.848 127.918 307.459 130.018 308.191 138.807L308.875 147.547C309.559 156.336 310.193 159.412 311.658 160.975L311.512 162H300.867C299.988 159.119 299.549 155.896 299.061 147.791L298.621 139.637C298.133 131.482 297.059 130.115 293.689 130.115H291.688V162ZM291.688 101.355V122.547H294.959C298.279 122.547 299.744 120.838 299.744 116.688V107.312C299.744 103.016 298.279 101.355 294.959 101.355H291.688ZM345.83 162.928C336.064 162.928 331.426 157.459 331.426 146.473V109.217C331.426 98.1816 336.113 92.7129 345.83 92.7129C355.156 92.7129 360.137 97.5957 360.137 108.924V118.201L350.518 119.91V109.461C350.518 102.43 348.955 100.232 345.928 100.232C342.803 100.232 341.289 102.723 341.289 107.947V147.547C341.289 152.771 342.803 155.262 345.977 155.262C348.906 155.262 350.615 152.967 350.615 145.74V133.973L360.332 135.877V146.57C360.332 158.045 355.107 162.928 345.83 162.928ZM378.59 162H368.775V93.6406H382.887C391.969 93.6406 396.461 98.2305 396.461 107.459V114.002C396.461 120.838 393.727 124.842 388.404 125.965V126.795C392.75 127.918 394.361 130.018 395.094 138.807L395.777 147.547C396.461 156.336 397.096 159.412 398.561 160.975L398.414 162H387.77C386.891 159.119 386.451 155.896 385.963 147.791L385.523 139.637C385.035 131.482 383.961 130.115 380.592 130.115H378.59V162ZM378.59 101.355V122.547H381.861C385.182 122.547 386.646 120.838 386.646 116.688V107.312C386.646 103.016 385.182 101.355 381.861 101.355H378.59ZM428.146 162H405.588V93.6406H427.512V101.697H415.402V122.156H426.242V129.578H415.402V153.943H428.146V162ZM443.475 162H433.953L443.182 93.6406H455.828L465.301 162H455.096L453.875 150.867H444.744L443.475 162ZM447.479 126.404L445.574 143.885H452.996L451.141 126.404C450.604 120.984 450.164 115.809 449.822 107.41H448.797C448.455 115.809 448.016 120.984 447.479 126.404ZM486.049 162H476.234V101.697H467.152V93.6406H495.082V101.697H486.049V162ZM511.973 162H502.158V93.6406H511.973V162ZM535.504 162.928C525.641 162.928 520.758 157.459 520.758 146.424V109.266C520.758 98.1816 525.641 92.7129 535.504 92.7129C545.465 92.7129 550.348 98.1816 550.348 109.266V146.424C550.348 157.459 545.465 162.928 535.504 162.928ZM535.553 155.262C538.873 155.262 540.436 152.771 540.436 147.596V108.24C540.436 102.918 538.873 100.379 535.553 100.379C532.232 100.379 530.621 102.918 530.621 108.24V147.596C530.621 152.771 532.232 155.262 535.553 155.262ZM568.703 162H559.084V93.6406H571.584L579.689 130.652C580.471 134.363 581.35 139.344 582.277 145.887L583.303 145.789C582.521 136.658 581.887 126.258 581.887 118.348L581.838 93.6406H591.506V162H579.25L570.998 125.232C570.168 121.375 569.436 117.225 568.312 109.266L567.287 109.363C567.922 117.371 568.654 130.311 568.654 138.465L568.703 162Z" fill="currentColor"/>
</svg>
