<svg width="616" height="288" viewBox="0 0 616 288" fill="none" xmlns="http://www.w3.org/2000/svg">
<path d="M303.553 154.713C312.879 154.713 317.859 159.596 317.859 170.924V180.201L308.24 181.91V171.461C308.24 164.43 306.678 162.232 303.65 162.232C300.525 162.232 299.012 164.723 299.012 169.947V209.547C299.012 214.771 300.525 217.262 303.699 217.262C306.629 217.262 308.338 214.967 308.338 207.74V195.973L318.055 197.877V208.57C318.055 220.045 312.83 224.928 303.553 224.928C293.787 224.928 289.149 219.459 289.149 208.473V171.217C289.149 160.182 293.836 154.713 303.553 154.713Z" fill="currentColor"/>
<path fill-rule="evenodd" clip-rule="evenodd" d="M493.227 154.713C503.188 154.713 508.07 160.182 508.07 171.266V208.424C508.07 219.459 503.188 224.928 493.227 224.928C483.363 224.928 478.481 219.459 478.481 208.424V171.266C478.481 160.182 483.363 154.713 493.227 154.713ZM493.275 162.379C489.955 162.379 488.344 164.918 488.344 170.24V209.596C488.344 214.771 489.955 217.262 493.275 217.262C496.596 217.262 498.158 214.771 498.158 209.596V170.24C498.158 164.918 496.596 162.379 493.275 162.379Z" fill="currentColor"/>
<path fill-rule="evenodd" clip-rule="evenodd" d="M340.609 155.641C349.691 155.641 354.184 160.23 354.184 169.459V176.002C354.184 182.838 351.449 186.842 346.127 187.965V188.795C350.473 189.918 352.084 192.018 352.816 200.807L353.5 209.547C354.184 218.336 354.818 221.412 356.283 222.975L356.137 224H345.492C344.613 221.119 344.174 217.896 343.686 209.791L343.246 201.637C342.758 193.482 341.684 192.115 338.315 192.115H336.313V224H326.498V155.641H340.609ZM336.313 184.547H339.584C342.904 184.547 344.369 182.838 344.369 178.688V169.312C344.369 165.016 342.904 163.355 339.584 163.355H336.313V184.547Z" fill="currentColor"/>
<path d="M385.234 163.697H373.125V184.156H383.965V191.578H373.125V215.943H385.869V224H363.311V155.641H385.234V163.697Z" fill="currentColor"/>
<path fill-rule="evenodd" clip-rule="evenodd" d="M423.024 224H412.818L411.598 212.867H402.467L401.197 224H391.676L400.904 155.641H413.551L423.024 224ZM406.52 169.41C406.178 177.809 405.738 182.984 405.201 188.404L403.297 205.885H410.719L408.863 188.404C408.326 182.984 407.887 177.809 407.545 169.41H406.52Z" fill="currentColor"/>
<path d="M452.805 163.697H443.772V224H433.957V163.697H424.875V155.641H452.805V163.697Z" fill="currentColor"/>
<path d="M469.695 224H459.881V155.641H469.695V224Z" fill="currentColor"/>
<path d="M537.412 192.652C538.193 196.363 539.072 201.344 540 207.887L541.025 207.789C540.244 198.658 539.609 188.258 539.609 180.348L539.561 155.641H549.229V224H536.973L528.721 187.232C527.891 183.375 527.158 179.225 526.035 171.266L525.01 171.363C525.645 179.371 526.377 192.311 526.377 200.465L526.426 224H516.807V155.641H529.307L537.412 192.652Z" fill="currentColor"/>
<path d="M146.856 82.3896C147.037 82.3921 147.892 83.1225 148.756 84.0127C149.618 84.9013 150.325 85.7393 150.327 85.877C150.327 86.0137 149.999 86.8673 149.599 87.7734C149.198 88.6812 147.894 91.2499 146.701 93.4824C145.508 95.7151 144.142 98.2632 143.664 99.1445C143.186 100.026 141.647 102.854 140.244 105.429C138.841 108.004 136.646 112.051 135.368 114.423C134.09 116.795 132.383 119.955 131.573 121.446C130.765 122.937 129.837 124.656 129.513 125.266C129.188 125.876 126.855 130.257 124.327 135C119.733 143.623 119.732 143.625 119.852 144.856C119.993 146.316 119.13 148.266 121.156 149.344C123.184 150.417 130.335 138.007 132.282 137.041C135.244 135.572 136.098 134.662 138.678 132.466C139.81 131.502 141.859 129.638 143.23 128.324C144.601 127.01 146.894 124.609 148.324 122.988C149.755 121.368 151.413 119.305 152.009 118.405C152.605 117.506 153.19 116.768 153.31 116.765C154.203 116.743 156.515 117.717 157.148 118.436C157.261 118.566 157.12 119.226 156.804 120.039C156.508 120.8 155.736 122.176 155.089 123.095C154.442 124.014 153.23 125.931 152.397 127.354C151.563 128.777 150.023 131.605 148.974 133.638C147.925 135.671 146.008 139.675 144.713 142.536C143.418 145.397 141.909 148.945 141.359 150.421C140.81 151.897 140.126 153.882 139.839 154.831C139.552 155.78 139.179 157.082 139.009 157.726C138.84 158.369 138.785 158.896 138.887 158.896C138.991 158.893 139.579 158.162 140.196 157.27C140.815 156.375 141.911 154.572 142.631 153.265C143.347 151.964 143.952 150.871 143.981 150.827C144.005 150.795 144.884 151.098 145.936 151.502C146.986 151.905 147.882 152.279 147.932 152.332C147.976 152.388 147.767 153.177 147.465 154.089C147.162 155.003 146.558 156.419 146.122 157.235C145.686 158.052 144.628 159.786 143.772 161.088C142.915 162.39 141.662 164.042 140.989 164.76C140.316 165.477 139.422 166.23 139 166.431C138.278 166.774 138.116 166.751 136.233 166.042C135.119 165.622 134.067 165.063 133.855 164.776C133.601 164.433 133.476 163.843 133.476 162.997C133.476 162.301 133.619 160.954 133.794 160.005C133.969 159.056 134.445 157.227 134.852 155.939C135.816 152.886 136.826 149.858 137.943 146.872C138.466 145.477 139.581 142.72 140.421 140.744C141.258 138.776 141.9 137.114 141.853 137.041C141.799 136.98 140.565 137.838 139.11 138.946C134.435 142.509 124.639 157.74 119.852 155.946C118.109 155.293 116.551 153.87 116.28 151.502C112.681 151.537 105.276 173.018 104.307 176.276C103.641 178.515 93.9393 207.236 93.3438 209.406C92.749 211.575 91.9276 214.846 91.5186 216.676C91.1098 218.505 90.6553 220.89 90.5079 221.975C90.3608 223.055 90.221 223.962 90.1973 223.996C90.1714 224.024 89.1985 223.885 88.0343 223.686C86.8716 223.487 85.841 223.379 85.7384 223.446C85.6413 223.514 84.8671 222.84 84.0196 221.948C82.7338 220.595 82.4797 220.198 82.4815 219.549C82.4828 219.121 82.6227 218.174 82.793 217.446C82.9637 216.718 83.5161 215 84.0206 213.627C87.986 202.846 90.5067 195.38 96.3966 180.687C98.6052 175.177 101.273 169.784 103.076 164.078C103.462 162.858 104.687 159.199 105.799 155.946C106.911 152.694 108.203 148.978 108.668 147.69C109.133 146.403 110.298 143.298 111.256 140.791C112.215 138.284 113.79 134.242 114.756 131.809C115.719 129.383 116.507 127.363 116.512 127.311C116.513 127.27 116.615 127.237 116.739 127.237C116.866 127.238 117.841 127.584 118.906 128.007C120.728 128.73 120.848 128.82 120.848 129.472C120.848 129.853 120.937 130.23 121.048 130.308C121.161 130.38 122.121 128.808 123.183 126.81C124.246 124.808 125.83 121.84 126.702 120.214C127.575 118.587 129.652 114.761 131.319 111.712C132.986 108.663 134.732 105.449 135.198 104.566C135.664 103.686 136.627 101.911 137.337 100.623C138.047 99.3357 139.025 97.5251 139.511 96.5996C139.995 95.6765 140.347 94.8681 140.293 94.8008C140.237 94.7373 140.057 94.8294 139.893 95.0049C139.728 95.1811 139.01 95.8779 138.296 96.5537C137.582 97.2298 136.889 97.8961 136.758 98.0332C136.626 98.1708 135.558 99.2253 134.386 100.377C133.213 101.529 131.321 103.401 130.182 104.536C129.042 105.671 127.767 106.947 127.35 107.371C126.932 107.796 125.518 109.196 124.207 110.482C122.896 111.769 120.987 113.653 119.966 114.67C118.944 115.686 117.286 117.312 116.28 118.283C115.275 119.254 113.462 120.974 112.251 122.104C111.04 123.233 109.09 124.999 107.916 126.028C106.742 127.057 105.002 128.514 104.048 129.265C103.094 130.015 101.723 130.965 101 131.377C100.278 131.789 99.3399 132.2 98.9171 132.29C98.195 132.444 98.0442 132.348 96.3966 130.687C95.2247 129.505 94.5998 128.684 94.5069 128.206C94.4277 127.796 94.5231 126.886 94.7315 126.07C94.9313 125.288 95.5416 123.541 96.087 122.186C96.6323 120.83 97.7096 118.391 98.4805 116.765C99.2513 115.138 101.101 111.367 102.59 108.386C104.079 105.404 105.612 102.354 105.997 101.608C106.382 100.863 107.092 99.4762 107.573 98.5264C108.055 97.5763 108.762 96.1524 109.144 95.3623C109.689 94.233 109.75 93.9801 109.435 94.1797C109.214 94.3199 108.531 94.8562 107.918 95.3721C107.305 95.8885 104.291 98.4724 101.222 101.115C98.1521 103.758 95.3863 106.139 95.0753 106.405C94.7627 106.673 92.1678 108.934 89.3077 111.433C86.4467 113.932 83.4715 116.547 82.6964 117.246C81.9213 117.945 79.1032 120.507 76.4337 122.938C73.7646 125.37 71.2774 127.633 70.9063 127.966C70.5357 128.299 69.4511 129.368 68.4971 130.343C66.7627 132.115 66.7621 132.116 65.1925 130.479C63.6216 128.84 63.6209 128.839 65.0841 127.114C65.8885 126.166 66.892 125.047 67.3145 124.629C67.7368 124.211 68.7136 123.268 69.4844 122.534C70.255 121.8 71.3726 120.756 71.9678 120.214C72.5625 119.672 73.2445 119.047 73.4835 118.822C73.7219 118.598 74.6978 117.716 75.6514 116.863C76.6052 116.01 78.5567 114.258 79.9874 112.97C81.4178 111.682 83.1246 110.155 83.7803 109.575C84.4361 108.996 86.7282 106.99 88.8741 105.119C91.0196 103.248 93.0311 101.499 93.3438 101.231C93.6574 100.963 96.4251 98.5834 99.4942 95.9414C102.565 93.2986 106.405 90.0208 108.03 88.6582C109.655 87.2958 111.654 85.6602 112.473 85.0234C113.291 84.3868 114.173 83.8662 114.433 83.8662C114.711 83.8675 115.55 84.5376 116.478 85.5C117.944 87.0215 118.041 87.1845 117.904 87.9014C117.824 88.3248 117.381 89.5243 116.922 90.5664C116.462 91.6096 114.169 96.2666 111.825 100.916C109.482 105.566 106.499 111.534 105.198 114.177C103.897 116.82 102.248 120.353 101.533 122.027C100.819 123.7 100.264 125.168 100.298 125.292C100.336 125.411 101.145 124.93 102.098 124.22C103.052 123.508 105.052 121.844 106.542 120.523C108.032 119.203 109.752 117.65 110.365 117.073C110.979 116.497 112.003 115.541 112.642 114.95C113.28 114.359 114.29 113.4 114.886 112.817C115.482 112.235 116.762 110.987 117.729 110.045C118.696 109.103 119.679 108.121 119.915 107.865C120.151 107.609 121.256 106.513 122.37 105.429C123.485 104.345 124.554 103.29 124.744 103.087C124.935 102.884 125.477 102.342 125.949 101.884C126.421 101.425 127.39 100.482 128.101 99.7891C128.811 99.0956 130.323 97.5864 131.46 96.4346C132.597 95.2829 134.1 93.7854 134.8 93.1074C135.5 92.4298 136.486 91.4861 136.991 91.0117C137.497 90.5368 139.314 88.8102 141.029 87.1748C142.745 85.5396 144.685 83.7942 145.339 83.2949C145.992 82.7968 146.674 82.3892 146.856 82.3896Z" fill="currentColor"/>
<path d="M258 208H254V80H258V208Z" fill="currentColor"/>
<path d="M173.008 124.135C175.013 122.154 175.014 122.155 176.692 123.022C177.616 123.5 178.507 124.041 178.671 124.226C178.922 124.509 178.871 124.782 178.334 126C177.985 126.792 176.446 129.713 174.914 132.491C173.383 135.27 171.961 137.876 171.756 138.282C171.55 138.689 170.933 139.846 170.383 140.853C169.833 141.859 169.427 142.732 169.479 142.792C169.541 142.839 170.837 141.414 172.367 139.614C175.161 136.329 175.161 136.329 177.092 137.332C178.598 138.114 179.038 138.457 179.095 138.892C179.163 139.414 179.238 139.439 180.287 139.277C180.903 139.183 182.562 139.011 183.974 138.896C186.19 138.717 186.655 138.601 187.383 138.054C187.846 137.706 188.313 137.421 188.421 137.42C188.529 137.421 189.159 137.702 189.821 138.047C190.807 138.56 191.099 138.621 191.42 138.38C191.636 138.217 192.8 136.854 194.007 135.35C195.214 133.846 197.177 131.28 198.371 129.648C199.564 128.019 200.699 126.536 200.895 126.352C201.197 126.066 201.501 126.149 203.032 126.938C204.014 127.443 204.953 128.002 205.118 128.182C205.372 128.458 205.277 128.954 204.496 131.424C203.989 133.027 203.148 135.726 202.627 137.42C202.106 139.113 201.68 140.64 201.678 140.814C201.676 141.052 201.837 141.033 202.341 140.737C202.978 140.363 203.076 140.378 204.602 141.101C205.655 141.599 206.564 141.855 207.277 141.855C207.873 141.855 209.902 141.513 211.789 141.094C213.677 140.675 216.101 140.274 217.174 140.203C219.107 140.076 219.142 140.083 221.071 141.099C222.142 141.662 223.239 142.359 223.51 142.648C223.78 142.937 224.001 143.348 224 143.562C223.999 143.776 223.764 144.519 223.48 145.214C223.195 145.909 222.861 146.549 222.736 146.637C222.611 146.723 221.775 146.381 220.879 145.877C219.247 144.959 219.246 144.959 217.669 145.24C216.801 145.395 215.017 145.754 213.705 146.039C212.394 146.324 210.541 146.576 209.587 146.6C208.11 146.636 207.664 146.544 206.58 145.975C205.885 145.609 205.275 145.31 205.219 145.306C205.17 145.306 204.15 146.359 202.953 147.646C201.758 148.933 200.556 150.05 200.28 150.13C199.94 150.227 199.16 149.917 197.829 149.157C196.757 148.545 195.817 147.862 195.741 147.64C195.666 147.418 195.607 146.885 195.608 146.456C195.61 146.027 195.889 144.483 196.229 143.026C196.567 141.574 196.806 140.385 196.763 140.378C196.704 140.392 195.649 141.483 194.406 142.814C193.155 144.155 191.773 145.446 191.335 145.683C190.539 146.112 190.538 146.111 188.357 144.893C186.176 143.674 186.176 143.674 183.684 143.979C182.313 144.146 180.703 144.291 180.107 144.3C179.383 144.311 178.638 144.111 177.863 143.701C177.227 143.364 176.579 143.089 176.424 143.088C176.266 143.093 174.162 145.503 171.744 148.447C169.324 151.395 166.313 155.004 165.054 156.466C163.795 157.927 162.394 159.416 161.94 159.773C161.114 160.424 161.113 160.425 159.176 159.345C157.557 158.442 157.239 158.17 157.238 157.687C157.238 157.368 157.629 156.244 158.106 155.191C158.582 154.14 158.971 153.202 158.972 153.104C158.974 153.005 159.428 152.018 159.981 150.906C160.535 149.791 161.445 147.991 162.003 146.907C162.561 145.823 163.586 143.827 164.281 142.472C164.977 141.117 165.781 139.582 166.068 139.061C166.355 138.541 166.541 138.059 166.482 137.989C166.42 137.923 165.023 139.079 163.377 140.56C161.729 142.041 159.247 144.217 157.861 145.396C155.685 147.245 155.29 147.691 154.965 148.658C154.758 149.274 154.456 149.834 154.295 149.905C154.134 149.976 152.974 149.476 151.718 148.794C150.464 148.113 149.438 147.446 149.435 147.312C149.435 147.18 149.619 146.591 149.845 146.004C150.07 145.417 150.436 144.768 150.657 144.561C150.879 144.354 152.914 142.587 155.179 140.636C157.444 138.684 160.273 136.198 161.465 135.112C162.657 134.027 165.291 131.559 167.317 129.628C169.344 127.697 171.905 125.224 173.008 124.135Z" fill="currentColor"/>
<path fill-rule="evenodd" clip-rule="evenodd" d="M381.914 62.7129C391.875 62.7129 396.758 68.1817 396.758 79.2656V116.424C396.758 127.459 391.875 132.928 381.914 132.928C372.051 132.928 367.168 127.459 367.168 116.424V79.2656C367.168 68.1816 372.051 62.7129 381.914 62.7129ZM381.963 70.3789C378.643 70.3789 377.031 72.918 377.031 78.2402V117.596C377.031 122.771 378.643 125.262 381.963 125.262C385.283 125.262 386.846 122.771 386.846 117.596V78.2402C386.846 72.918 385.283 70.3789 381.963 70.3789Z" fill="currentColor"/>
<path fill-rule="evenodd" clip-rule="evenodd" d="M318.836 132H308.631L307.41 120.867H298.279L297.01 132H287.488L296.717 63.6406H309.363L318.836 132ZM302.332 77.4102C301.99 85.8086 301.551 90.9844 301.014 96.4043L299.109 113.885H306.531L304.676 96.4043C304.139 90.9844 303.699 85.8086 303.357 77.4102H302.332Z" fill="currentColor"/>
<path d="M346.615 100.652C347.397 104.363 348.275 109.344 349.203 115.887L350.229 115.789C349.447 106.658 348.813 96.2578 348.813 88.3477L348.764 63.6406H358.432V132H346.176L337.924 95.2324C337.094 91.375 336.361 87.2246 335.238 79.2656L334.213 79.3633C334.848 87.3711 335.58 100.311 335.58 108.465L335.629 132H326.01V63.6406H338.51L346.615 100.652Z" fill="currentColor"/>
<path d="M430.738 71.6973H421.705V132H411.891V71.6973H402.809V63.6406H430.738V71.6973Z" fill="currentColor"/>
<path d="M447.629 91.8145H456.369V63.6406H466.184V132H456.369V99.627H447.629V132H437.815V63.6406H447.629V91.8145Z" fill="currentColor"/>
<path d="M497.332 71.6973H485.223V92.1562H496.063V99.5781H485.223V123.943H497.967V132H475.408V63.6406H497.332V71.6973Z" fill="currentColor"/>
<path fill-rule="evenodd" clip-rule="evenodd" d="M519.984 63.6406C529.066 63.6407 533.559 68.2305 533.559 77.459V84.002C533.559 90.8379 530.824 94.8418 525.502 95.9648V96.7949C529.848 97.918 531.459 100.018 532.191 108.807L532.875 117.547C533.559 126.336 534.193 129.412 535.658 130.975L535.512 132H524.867C523.988 129.119 523.549 125.896 523.061 117.791L522.621 109.637C522.133 101.482 521.059 100.115 517.69 100.115H515.688V132H505.873V63.6406H519.984ZM515.688 92.5469H518.959C522.279 92.5468 523.744 90.8379 523.744 86.6875V77.3125C523.744 73.0157 522.279 71.3555 518.959 71.3555H515.688V92.5469Z" fill="currentColor"/>
<path d="M217.093 126.559C217.377 126.477 218.043 126.601 218.582 126.838C219.119 127.073 219.983 127.46 220.502 127.698C221.407 128.112 221.442 128.166 221.325 128.981C221.258 129.449 221.051 130.098 220.864 130.423C220.638 130.816 220.317 131.013 219.907 131.013C219.568 131.012 218.572 130.675 217.692 130.263C216.814 129.851 216.016 129.425 215.919 129.315C215.823 129.207 215.932 128.576 216.161 127.913C216.456 127.059 216.728 126.664 217.093 126.559Z" fill="currentColor"/>
<path d="M186.741 125.346C186.964 125.346 187.983 125.816 189.006 126.392C190.785 127.393 190.863 127.47 190.746 128.138C190.679 128.522 190.421 129.161 190.174 129.556C189.927 129.95 189.526 130.273 189.284 130.273C189.042 130.273 188.024 129.765 187.023 129.145C186.022 128.524 185.203 127.909 185.201 127.776C185.202 127.645 185.359 127.183 185.553 126.75C185.746 126.317 186.002 125.823 186.121 125.653C186.24 125.484 186.519 125.346 186.741 125.346Z" fill="currentColor"/>
<path d="M145.884 64.001C146.006 64.041 146.915 64.3952 147.904 64.7891C149.664 65.4894 149.705 65.5238 149.586 66.2041C149.519 66.5875 149.311 67.253 149.124 67.6826C148.908 68.1789 147.586 69.4988 145.502 71.2979C143.697 72.8565 141.093 75.1923 139.716 76.4883C138.339 77.7842 136.757 79.4219 136.201 80.127C135.191 81.4074 135.19 81.407 133.311 80.6338C131.431 79.8606 131.431 79.86 131.576 78.9678C131.656 78.4767 131.974 77.5469 132.282 76.9014C132.634 76.1639 133.564 75.0178 134.784 73.8203C135.853 72.7718 138.739 70.1175 141.197 67.9219C143.655 65.7266 145.764 63.9626 145.884 64.001Z" fill="currentColor"/>
</svg>
