<svg width="616" height="288" viewBox="0 0 616 288" fill="none" xmlns="http://www.w3.org/2000/svg">
<g opacity="0.3">
<path d="M144.308 239.269C144.791 241.463 145.113 243.611 145.382 246.766H146.511C146.833 243.611 147.209 241.417 147.692 239.314L151.345 224H162.033L152.795 253.942L163 288H151.345L147.155 268.663C146.618 266.012 146.35 264 146.081 261.714H144.952C144.737 264 144.469 266.012 143.878 268.709L139.796 288H129L138.507 254.537L129.645 224H140.924L144.308 239.269Z" fill="currentColor" fill-opacity="0.1"/>
<path d="M420.308 239.269C420.791 241.463 421.113 243.611 421.382 246.766H422.511C422.833 243.611 423.209 241.417 423.692 239.314L427.345 224H438.033L428.795 253.942L439 288H427.345L423.155 268.663C422.618 266.012 422.35 264 422.081 261.714H420.952C420.737 264 420.469 266.012 419.878 268.709L415.796 288H405L414.507 254.537L405.645 224H416.924L420.308 239.269Z" fill="currentColor" fill-opacity="0.1"/>
<path d="M34.0576 166.205L64 156.967V167.655L48.6855 171.308C46.5827 171.791 44.3886 172.167 41.2344 172.489V173.618C44.3886 173.887 46.5372 174.209 48.7314 174.692L64 178.076V189.355L33.4629 180.493L0 190V179.204L19.291 175.122C21.9882 174.531 24.0004 174.263 26.2861 174.048V172.919C24.0004 172.65 21.9883 172.382 19.3369 171.845L0 167.655V156L34.0576 166.205Z" fill="currentColor" fill-opacity="0.1"/>
<path d="M616 109.655L596.663 113.845C594.012 114.382 592 114.65 589.714 114.919V116.048C592 116.263 594.012 116.531 596.709 117.122L616 121.204V132L582.537 122.493L552 131.355V120.076L567.269 116.692C569.463 116.209 571.611 115.887 574.766 115.618V114.489C571.611 114.167 569.417 113.791 567.314 113.308L552 109.655V98.9668L581.942 108.205L616 98V109.655Z" fill="currentColor" fill-opacity="0.1"/>
<path d="M143.878 19.291C144.469 21.9882 144.737 24.0004 144.952 26.2861H146.081C146.35 24.0004 146.618 21.9883 147.155 19.3369L151.345 0H163L152.795 34.0576L162.033 64H151.345L147.692 48.6855C147.209 46.5827 146.833 44.3886 146.511 41.2344H145.382C145.113 44.3886 144.791 46.5372 144.308 48.7314L140.924 64H129.645L138.507 33.4629L129 0H139.796L143.878 19.291Z" fill="currentColor" fill-opacity="0.1"/>
<path d="M419.878 19.291C420.469 21.9882 420.737 24.0004 420.952 26.2861H422.081C422.35 24.0004 422.618 21.9883 423.155 19.3369L427.345 0H439L428.795 34.0576L438.033 64H427.345L423.692 48.6855C423.209 46.5827 422.833 44.3886 422.511 41.2344H421.382C421.113 44.3886 420.791 46.5372 420.308 48.7314L416.924 64H405.645L414.507 33.4629L405 0H415.796L419.878 19.291Z" fill="currentColor" fill-opacity="0.1"/>
</g>
</svg>
