<svg width="832" height="256" viewBox="0 0 832 256" fill="none" xmlns="http://www.w3.org/2000/svg">
<path d="M73.0098 162H63.4883L72.7168 93.6406H85.3633L94.8359 162H84.6309L83.4102 150.867H74.2793L73.0098 162ZM77.0137 126.404L75.1094 143.885H82.5312L80.6758 126.404C80.1387 120.984 79.6992 115.809 79.3574 107.41H78.332C77.9902 115.809 77.5508 120.984 77.0137 126.404ZM111.629 162H102.01V93.6406H114.51L122.615 130.652C123.396 134.363 124.275 139.344 125.203 145.887L126.229 145.789C125.447 136.658 124.812 126.258 124.812 118.348L124.764 93.6406H134.432V162H122.176L113.924 125.232C113.094 121.375 112.361 117.225 111.238 109.266L110.213 109.363C110.848 117.371 111.58 130.311 111.58 138.465L111.629 162ZM157.914 162.928C148.051 162.928 143.168 157.459 143.168 146.424V109.266C143.168 98.1816 148.051 92.7129 157.914 92.7129C167.875 92.7129 172.758 98.1816 172.758 109.266V146.424C172.758 157.459 167.875 162.928 157.914 162.928ZM157.963 155.262C161.283 155.262 162.846 152.771 162.846 147.596V108.24C162.846 102.918 161.283 100.379 157.963 100.379C154.643 100.379 153.031 102.918 153.031 108.24V147.596C153.031 152.771 154.643 155.262 157.963 155.262ZM197.705 162H187.891V101.697H178.809V93.6406H206.738V101.697H197.705V162ZM223.629 162H213.814V93.6406H223.629V121.814H232.369V93.6406H242.184V162H232.369V129.627H223.629V162ZM273.967 162H251.408V93.6406H273.332V101.697H261.223V122.156H272.062V129.578H261.223V153.943H273.967V162ZM291.688 162H281.873V93.6406H295.984C305.066 93.6406 309.559 98.2305 309.559 107.459V114.002C309.559 120.838 306.824 124.842 301.502 125.965V126.795C305.848 127.918 307.459 130.018 308.191 138.807L308.875 147.547C309.559 156.336 310.193 159.412 311.658 160.975L311.512 162H300.867C299.988 159.119 299.549 155.896 299.061 147.791L298.621 139.637C298.133 131.482 297.059 130.115 293.689 130.115H291.688V162ZM291.688 101.355V122.547H294.959C298.279 122.547 299.744 120.838 299.744 116.688V107.312C299.744 103.016 298.279 101.355 294.959 101.355H291.688ZM345.83 162.928C336.064 162.928 331.426 157.459 331.426 146.473V109.217C331.426 98.1816 336.113 92.7129 345.83 92.7129C355.156 92.7129 360.137 97.5957 360.137 108.924V118.201L350.518 119.91V109.461C350.518 102.43 348.955 100.232 345.928 100.232C342.803 100.232 341.289 102.723 341.289 107.947V147.547C341.289 152.771 342.803 155.262 345.977 155.262C348.906 155.262 350.615 152.967 350.615 145.74V133.973L360.332 135.877V146.57C360.332 158.045 355.107 162.928 345.83 162.928ZM378.59 162H368.775V93.6406H382.887C391.969 93.6406 396.461 98.2305 396.461 107.459V114.002C396.461 120.838 393.727 124.842 388.404 125.965V126.795C392.75 127.918 394.361 130.018 395.094 138.807L395.777 147.547C396.461 156.336 397.096 159.412 398.561 160.975L398.414 162H387.77C386.891 159.119 386.451 155.896 385.963 147.791L385.523 139.637C385.035 131.482 383.961 130.115 380.592 130.115H378.59V162ZM378.59 101.355V122.547H381.861C385.182 122.547 386.646 120.838 386.646 116.688V107.312C386.646 103.016 385.182 101.355 381.861 101.355H378.59ZM428.146 162H405.588V93.6406H427.512V101.697H415.402V122.156H426.242V129.578H415.402V153.943H428.146V162ZM443.475 162H433.953L443.182 93.6406H455.828L465.301 162H455.096L453.875 150.867H444.744L443.475 162ZM447.479 126.404L445.574 143.885H452.996L451.141 126.404C450.604 120.984 450.164 115.809 449.822 107.41H448.797C448.455 115.809 448.016 120.984 447.479 126.404ZM486.049 162H476.234V101.697H467.152V93.6406H495.082V101.697H486.049V162ZM511.973 162H502.158V93.6406H511.973V162ZM535.504 162.928C525.641 162.928 520.758 157.459 520.758 146.424V109.266C520.758 98.1816 525.641 92.7129 535.504 92.7129C545.465 92.7129 550.348 98.1816 550.348 109.266V146.424C550.348 157.459 545.465 162.928 535.504 162.928ZM535.553 155.262C538.873 155.262 540.436 152.771 540.436 147.596V108.24C540.436 102.918 538.873 100.379 535.553 100.379C532.232 100.379 530.621 102.918 530.621 108.24V147.596C530.621 152.771 532.232 155.262 535.553 155.262ZM568.703 162H559.084V93.6406H571.584L579.689 130.652C580.471 134.363 581.35 139.344 582.277 145.887L583.303 145.789C582.521 136.658 581.887 126.258 581.887 118.348L581.838 93.6406H591.506V162H579.25L570.998 125.232C570.168 121.375 569.436 117.225 568.312 109.266L567.287 109.363C567.922 117.371 568.654 130.311 568.654 138.465L568.703 162Z" fill="currentColor"/>
<path d="M616 80V176" stroke="white" stroke-width="4"/>
<path d="M706.285 78.7119C706.43 78.7139 707.114 79.298 707.805 80.0102C708.495 80.7218 709.061 81.3927 709.062 81.5019C709.061 81.6113 708.799 82.2936 708.479 83.0185C708.159 83.7445 707.116 85.7996 706.161 87.5858C705.207 89.372 704.114 91.4103 703.731 92.1153C703.349 92.8203 702.118 95.0828 700.995 97.1428C699.873 99.2029 698.118 102.441 697.095 104.338C696.072 106.236 694.706 108.764 694.059 109.957C693.412 111.149 692.67 112.525 692.41 113.013C692.15 113.501 690.284 117.005 688.262 120.8C684.586 127.699 684.585 127.7 684.681 128.685C684.794 129.853 684.104 131.413 685.725 132.275C687.347 133.135 693.068 123.206 694.626 122.433C696.995 121.258 697.678 120.53 699.742 118.772C700.648 118.001 702.287 116.511 703.384 115.46C704.48 114.408 706.315 112.487 707.459 111.191C708.604 109.894 709.93 108.244 710.407 107.524C710.884 106.804 711.352 106.214 711.448 106.212C712.163 106.194 714.013 106.974 714.518 107.548C714.609 107.653 714.496 108.181 714.243 108.832C714.006 109.44 713.389 110.54 712.871 111.275C712.354 112.011 711.385 113.544 710.718 114.683C710.051 115.821 708.818 118.084 707.979 119.71C707.14 121.337 705.606 124.54 704.57 126.829C703.534 129.117 702.327 131.956 701.887 133.137C701.448 134.318 700.901 135.906 700.671 136.665C700.442 137.423 700.143 138.466 700.007 138.981C699.872 139.495 699.828 139.917 699.909 139.917C699.991 139.916 700.463 139.331 700.957 138.616C701.452 137.9 702.328 136.458 702.904 135.412C703.477 134.371 703.962 133.497 703.985 133.462C704.003 133.436 704.707 133.678 705.548 134.002C706.39 134.325 707.109 134.624 707.146 134.666C707.181 134.71 707.014 135.342 706.772 136.071C706.53 136.803 706.047 137.936 705.698 138.588C705.349 139.241 704.503 140.628 703.817 141.67C703.132 142.712 702.13 144.034 701.592 144.608C701.053 145.182 700.337 145.784 700 145.944C699.422 146.219 699.293 146.201 697.787 145.634C696.895 145.298 696.054 144.85 695.884 144.621C695.681 144.347 695.58 143.875 695.58 143.197C695.58 142.64 695.695 141.563 695.835 140.804C695.975 140.045 696.356 138.582 696.681 137.552C697.453 135.109 698.261 132.687 699.155 130.298C699.573 129.182 700.465 126.976 701.137 125.395C701.807 123.82 702.32 122.491 702.282 122.433C702.239 122.384 701.252 123.07 700.088 123.957C696.347 126.808 688.511 138.992 684.681 137.557C683.287 137.034 682.041 135.896 681.825 134.002C678.945 134.029 673.021 151.216 672.245 153.821C671.713 155.613 663.951 178.59 663.475 180.325C662.999 182.06 662.342 184.677 662.015 186.141C661.688 187.604 661.324 189.512 661.206 190.379C661.088 191.247 660.976 191.975 660.958 191.997C660.937 192.019 660.159 191.908 659.228 191.749C658.296 191.59 657.47 191.503 657.39 191.557C657.313 191.612 656.694 191.072 656.016 190.359C654.987 189.276 654.783 188.958 654.785 188.439C654.786 188.097 654.898 187.34 655.035 186.757C655.171 186.175 655.613 184.8 656.017 183.701C659.189 175.076 661.205 169.105 665.917 157.35C667.684 152.941 669.819 148.627 671.261 144.063C671.569 143.086 672.549 140.159 673.439 137.557C674.329 134.955 675.362 131.983 675.734 130.952C676.106 129.922 677.038 127.439 677.805 125.433C678.572 123.427 679.832 120.194 680.605 118.247C681.375 116.307 682.006 114.691 682.009 114.649C682.01 114.616 682.092 114.59 682.192 114.59C682.293 114.59 683.073 114.867 683.925 115.206C685.383 115.784 685.478 115.856 685.478 116.377C685.478 116.682 685.55 116.983 685.639 117.046C685.729 117.104 686.497 115.846 687.346 114.247C688.196 112.647 689.463 110.273 690.161 108.971C690.86 107.67 692.522 104.609 693.856 102.17C695.189 99.7303 696.586 97.1581 696.959 96.4529C697.332 95.7482 698.102 94.3288 698.67 93.2987C699.238 92.2687 700.02 90.8199 700.409 90.0795C700.797 89.3411 701.078 88.6946 701.035 88.6407C700.99 88.5897 700.846 88.6635 700.714 88.804C700.583 88.9448 700.008 89.5024 699.437 90.0433C698.865 90.5842 698.311 91.117 698.206 91.2266C698.101 91.3367 697.247 92.1802 696.309 93.1015C695.371 94.0231 693.857 95.5203 692.945 96.4287C692.033 97.3369 691.014 98.3578 690.68 98.6972C690.346 99.037 689.215 100.157 688.166 101.186C687.117 102.215 685.59 103.722 684.772 104.536C683.955 105.349 682.629 106.65 681.825 107.427C681.02 108.204 679.57 109.579 678.601 110.483C677.633 111.386 676.072 112.799 675.133 113.623C674.194 114.446 672.801 115.611 672.038 116.211C671.275 116.812 670.178 117.572 669.6 117.902C669.022 118.231 668.272 118.56 667.934 118.632C667.356 118.755 667.236 118.679 665.917 117.35C664.98 116.404 664.48 115.748 664.406 115.365C664.342 115.037 664.419 114.31 664.585 113.657C664.745 113.031 665.233 111.633 665.669 110.548C666.106 109.464 666.968 107.513 667.585 106.212C668.201 104.911 669.681 101.894 670.872 99.5088C672.063 97.1236 673.289 94.6835 673.598 94.0869C673.906 93.4906 674.474 92.381 674.859 91.6211C675.244 90.861 675.809 89.7217 676.115 89.0896C676.551 88.1861 676.6 87.9838 676.348 88.1435C676.171 88.2555 675.625 88.6851 675.135 89.0979C674.644 89.511 672.233 91.5782 669.778 93.6924C667.322 95.8068 665.109 97.7115 664.86 97.9242C664.61 98.1379 662.534 99.9471 660.246 101.946C657.957 103.945 655.578 106.038 654.957 106.597C654.337 107.156 652.083 109.205 649.947 111.151C647.812 113.097 645.821 114.906 645.525 115.172C645.228 115.439 644.361 116.294 643.598 117.074C642.21 118.493 642.21 118.493 640.954 117.183C639.697 115.872 639.697 115.871 640.867 114.492C641.511 113.733 642.314 112.838 642.652 112.503C642.99 112.169 643.771 111.414 644.387 110.827C645.004 110.24 645.898 109.405 646.375 108.971C646.851 108.538 647.396 108.037 647.587 107.858C647.778 107.678 648.558 106.973 649.321 106.29C650.084 105.608 651.645 104.206 652.79 103.176C653.934 102.146 655.3 100.924 655.824 100.46C656.349 99.9969 658.182 98.3921 659.899 96.895C661.616 95.3981 663.225 93.9993 663.475 93.7854C663.724 93.5718 665.939 91.6672 668.395 89.5528C670.851 87.4385 673.925 84.8166 675.225 83.7266C676.524 82.6367 678.123 81.3282 678.778 80.8188C679.433 80.3093 680.139 79.8931 680.346 79.8931C680.569 79.894 681.24 80.4297 681.982 81.1996C683.155 82.4172 683.233 82.5477 683.124 83.1213C683.059 83.46 682.705 84.4194 682.338 85.253C681.97 86.0872 680.135 89.8131 678.26 93.533C676.385 97.2529 673.999 102.027 672.959 104.141C671.918 106.255 670.598 109.082 670.026 110.422C669.455 111.761 669.01 112.937 669.038 113.034C669.069 113.129 669.716 112.744 670.478 112.175C671.242 111.606 672.842 110.275 674.034 109.218C675.225 108.162 676.602 106.92 677.092 106.459C677.583 105.997 678.402 105.233 678.913 104.76C679.424 104.287 680.232 103.52 680.709 103.054C681.186 102.588 682.209 101.59 682.983 100.836C683.756 100.082 684.544 99.2974 684.732 99.0925C684.921 98.8875 685.805 98.0101 686.696 97.1428C687.588 96.2755 688.443 95.4322 688.595 95.2695C688.748 95.1069 689.182 94.6736 689.56 94.3068C689.937 93.9397 690.712 93.186 691.28 92.6314C691.849 92.0767 693.058 90.8689 693.968 89.9473C694.878 89.0258 696.08 87.8281 696.64 87.2858C697.2 86.7437 697.989 85.9893 698.393 85.6097C698.797 85.2302 700.251 83.8488 701.624 82.5402C702.997 81.2318 704.548 79.8351 705.071 79.4359C705.594 79.0372 706.14 78.7113 706.285 78.7119Z" fill="currentColor"/>
<path d="M727.206 112.108C728.811 110.523 728.811 110.524 730.154 111.218C730.893 111.6 731.606 112.033 731.737 112.181C731.938 112.408 731.896 112.625 731.467 113.6C731.188 114.234 729.957 116.57 728.732 118.793C727.506 121.016 726.369 123.101 726.205 123.426C726.04 123.751 725.546 124.677 725.106 125.482C724.666 126.287 724.341 126.986 724.383 127.033C724.429 127.075 725.467 125.934 726.694 124.491C728.928 121.863 728.929 121.863 730.474 122.666C731.678 123.292 732.031 123.566 732.076 123.913C732.131 124.331 732.19 124.351 733.03 124.222C733.523 124.146 734.85 124.009 735.979 123.917C737.752 123.773 738.124 123.681 738.707 123.243C739.077 122.964 739.451 122.736 739.537 122.736C739.624 122.736 740.128 122.962 740.657 123.238C741.446 123.648 741.679 123.697 741.936 123.504C742.109 123.374 743.04 122.283 744.006 121.08C744.971 119.876 746.542 117.824 747.497 116.519C748.452 115.215 749.36 114.028 749.516 113.881C749.758 113.653 750 113.719 751.226 114.35C752.011 114.754 752.762 115.202 752.894 115.345C753.097 115.567 753.021 115.963 752.397 117.939C751.991 119.222 751.318 121.381 750.901 122.736C750.484 124.091 750.143 125.313 750.142 125.452C750.141 125.642 750.27 125.627 750.672 125.39C751.183 125.09 751.26 125.103 752.481 125.681C753.324 126.08 754.051 126.285 754.622 126.285C755.098 126.284 756.722 126.01 758.232 125.675C759.742 125.339 761.681 125.019 762.539 124.962C764.086 124.86 764.113 124.866 765.657 125.679C766.513 126.129 767.391 126.687 767.608 126.919C767.824 127.15 768.001 127.479 768 127.649C767.999 127.821 767.812 128.415 767.584 128.971C767.356 129.527 767.088 130.039 766.989 130.109C766.889 130.178 766.22 129.905 765.503 129.502C764.198 128.767 764.197 128.767 762.935 128.992C762.24 129.116 760.813 129.404 759.764 129.631C758.715 129.859 757.232 130.06 756.469 130.08C755.287 130.109 754.931 130.035 754.064 129.579C753.506 129.286 753.018 129.046 752.975 129.044C752.935 129.044 752.12 129.887 751.163 130.917C750.206 131.946 749.244 132.84 749.024 132.904C748.752 132.981 748.128 132.734 747.063 132.126C746.206 131.636 745.454 131.089 745.393 130.912C745.333 130.734 745.285 130.308 745.286 129.965C745.288 129.621 745.511 128.386 745.783 127.221C746.054 126.059 746.245 125.108 746.211 125.102C746.169 125.108 745.323 125.983 744.325 127.052C743.324 128.124 742.219 129.157 741.868 129.346C741.231 129.689 741.23 129.689 739.486 128.714C737.741 127.739 737.741 127.739 735.747 127.983C734.65 128.117 733.362 128.232 732.885 128.24C732.306 128.248 731.71 128.089 731.091 127.761C730.581 127.492 730.063 127.271 729.939 127.27C729.816 127.27 728.131 129.2 726.195 131.558C724.259 133.916 721.851 136.803 720.843 137.973C719.836 139.142 718.715 140.333 718.352 140.619C717.691 141.14 717.691 141.14 716.141 140.276C714.845 139.554 714.591 139.336 714.59 138.949C714.59 138.694 714.903 137.796 715.284 136.953C715.665 136.112 715.976 135.362 715.977 135.284C715.978 135.206 716.341 134.415 716.784 133.525C717.228 132.633 717.956 131.193 718.402 130.326C718.849 129.459 719.669 127.862 720.225 126.777C720.781 125.693 721.425 124.465 721.655 124.049C721.884 123.633 722.033 123.248 721.986 123.192C721.937 123.137 720.819 124.063 719.502 125.248C718.183 126.433 716.198 128.174 715.089 129.116C713.348 130.596 713.032 130.952 712.772 131.726C712.606 132.219 712.365 132.668 712.236 132.724C712.107 132.781 711.179 132.381 710.174 131.835C709.171 131.29 708.35 130.757 708.348 130.65C708.348 130.544 708.495 130.072 708.676 129.603C708.857 129.133 709.149 128.614 709.326 128.448C709.503 128.283 711.131 126.87 712.943 125.308C714.755 123.747 717.018 121.758 717.972 120.89C718.926 120.021 721.033 118.047 722.654 116.502C724.275 114.958 726.324 112.98 727.206 112.108Z" fill="currentColor"/>
<path d="M762.474 114.047C762.702 113.981 763.234 114.081 763.666 114.27C764.095 114.458 764.786 114.768 765.201 114.959C765.925 115.29 765.954 115.332 765.86 115.985C765.807 116.359 765.641 116.878 765.491 117.138C765.31 117.452 765.054 117.61 764.726 117.61C764.455 117.61 763.658 117.34 762.954 117.01C762.251 116.681 761.613 116.34 761.535 116.252C761.459 116.165 761.546 115.66 761.729 115.13C761.965 114.447 762.183 114.132 762.474 114.047Z" fill="currentColor"/>
<path d="M738.193 113.076C738.371 113.077 739.187 113.453 740.005 113.913C741.429 114.714 741.49 114.776 741.397 115.31C741.343 115.617 741.137 116.128 740.939 116.444C740.741 116.76 740.421 117.018 740.227 117.019C740.034 117.019 739.22 116.612 738.418 116.116C737.618 115.619 736.962 115.127 736.961 115.021C736.961 114.916 737.087 114.547 737.242 114.2C737.397 113.853 737.602 113.458 737.697 113.323C737.792 113.187 738.015 113.076 738.193 113.076Z" fill="currentColor"/>
<path d="M705.507 64.0005C705.604 64.032 706.331 64.3161 707.123 64.6315C708.532 65.1918 708.564 65.219 708.469 65.7635C708.415 66.0702 708.249 66.6024 708.1 66.9461C707.927 67.3431 706.869 68.3987 705.202 69.8381C703.757 71.085 701.674 72.9537 700.572 73.9905C699.471 75.0272 698.206 76.3373 697.761 76.9013C696.953 77.926 696.952 77.9257 695.449 77.3071C693.945 76.6885 693.945 76.688 694.061 75.9741C694.125 75.5812 694.379 74.8372 694.626 74.3207C694.907 73.7307 695.651 72.8145 696.628 71.8565C697.483 71.0176 699.792 68.8938 701.758 67.1373C703.724 65.381 705.411 63.9698 705.507 64.0005Z" fill="currentColor"/>
</svg>
