<svg width="832" height="256" viewBox="0 0 832 256" fill="none" xmlns="http://www.w3.org/2000/svg">
<g opacity="0.3">
<path d="M188.407 207.269C188.862 209.463 189.166 211.611 189.419 214.766H190.48C190.784 211.611 191.138 209.417 191.593 207.314L195.03 192H205.09L196.395 221.942L206 256H195.03L191.087 236.663C190.581 234.012 190.329 232 190.076 229.714H189.015C188.812 232 188.559 234.012 188.003 236.709L184.161 256H174L182.948 222.537L174.606 192H185.223L188.407 207.269ZM450.407 207.269C450.862 209.463 451.166 211.611 451.419 214.766H452.48C452.784 211.611 453.138 209.417 453.593 207.314L457.03 192H467.09L458.395 221.942L468 256H457.03L453.087 236.663C452.581 234.012 452.329 232 452.076 229.714H451.015C450.812 232 450.559 234.012 450.003 236.709L446.161 256H436L444.948 222.537L436.606 192H447.223L450.407 207.269ZM702.407 207.269C702.862 209.463 703.166 211.611 703.419 214.766H704.48C704.784 211.611 705.138 209.417 705.593 207.314L709.03 192H719.09L710.395 221.942L720 256H709.03L705.087 236.663C704.581 234.012 704.329 232 704.076 229.714H703.015C702.812 232 702.559 234.012 702.003 236.709L698.161 256H688L696.948 222.537L688.606 192H699.223L702.407 207.269ZM34.0576 121.605L64 112.91V122.97L48.6855 126.407C46.5827 126.862 44.3886 127.216 41.2344 127.52V128.581C44.3886 128.834 46.5372 129.138 48.7314 129.593L64 132.777V143.394L33.4629 135.052L0 144V133.839L19.291 129.997C21.9882 129.441 24.0004 129.188 26.2861 128.985V127.924C24.0004 127.671 21.9883 127.419 19.3369 126.913L0 122.97V112L34.0576 121.605ZM832 122.97L812.663 126.913C810.012 127.419 808 127.671 805.714 127.924V128.985C808 129.188 810.012 129.441 812.709 129.997L832 133.839V144L798.537 135.052L768 143.394V132.777L783.269 129.593C785.463 129.138 787.611 128.834 790.766 128.581V127.52C787.611 127.216 785.417 126.862 783.314 126.407L768 122.97V112.91L797.942 121.605L832 112V122.97ZM188.003 19.291C188.559 21.9882 188.812 24.0004 189.015 26.2861H190.076C190.329 24.0004 190.581 21.9883 191.087 19.3369L195.03 0H206L196.395 34.0576L205.09 64H195.03L191.593 48.6855C191.138 46.5827 190.784 44.3886 190.48 41.2344H189.419C189.166 44.3886 188.862 46.5372 188.407 48.7314L185.223 64H174.606L182.948 33.4629L174 0H184.161L188.003 19.291ZM450.003 19.291C450.559 21.9882 450.812 24.0004 451.015 26.2861H452.076C452.329 24.0004 452.581 21.9883 453.087 19.3369L457.03 0H468L458.395 34.0576L467.09 64H457.03L453.593 48.6855C453.138 46.5827 452.784 44.3886 452.48 41.2344H451.419C451.166 44.3886 450.862 46.5372 450.407 48.7314L447.223 64H436.606L444.948 33.4629L436 0H446.161L450.003 19.291ZM702.003 19.291C702.559 21.9882 702.812 24.0004 703.015 26.2861H704.076C704.329 24.0004 704.581 21.9883 705.087 19.3369L709.03 0H720L710.395 34.0576L719.09 64H709.03L705.593 48.6855C705.138 46.5827 704.784 44.3886 704.48 41.2344H703.419C703.166 44.3886 702.862 46.5372 702.407 48.7314L699.223 64H688.606L696.948 33.4629L688 0H698.161L702.003 19.291Z" fill="currentColor" fill-opacity="0.1"/>
</g>
</svg>
