<svg width="180" height="288" viewBox="0 0 180 288" fill="none" xmlns="http://www.w3.org/2000/svg">
<rect width="180" height="288" fill="white"/>
<path fill-rule="evenodd" clip-rule="evenodd" d="M27.2683 15.7388C29.2904 15.7388 30.2817 16.849 30.2817 19.0991V26.6425C30.2817 28.8827 29.2904 29.9929 27.2683 29.9929C25.2659 29.9929 24.2747 28.8827 24.2747 26.6425V19.0991C24.2747 16.849 25.2659 15.7388 27.2683 15.7388ZM27.2782 17.295C26.6041 17.295 26.277 17.8105 26.277 18.8909V26.8804C26.277 27.9311 26.6041 28.4367 27.2782 28.4367C27.9522 28.4367 28.2694 27.9311 28.2694 26.8804V18.8909C28.2694 17.8105 27.9522 17.295 27.2782 17.295Z" fill="black"/>
<path d="M65.4166 15.7388C67.3099 15.7388 68.321 16.73 68.321 19.0297V20.9131L66.3682 21.26V19.1387C66.3682 17.7114 66.051 17.2653 65.4364 17.2653C64.8021 17.2653 64.4948 17.7708 64.4948 18.8315V26.8705C64.4948 27.9311 64.8021 28.4367 65.4464 28.4367C66.0411 28.4367 66.388 27.9708 66.388 26.5037V24.1148L68.3606 24.5014V26.6722C68.3606 29.0017 67.3 29.9929 65.4166 29.9929C63.4341 29.9929 62.4924 28.8827 62.4924 26.6524V19.0892C62.4924 16.849 63.444 15.7388 65.4166 15.7388Z" fill="black"/>
<path fill-rule="evenodd" clip-rule="evenodd" d="M103.922 15.7388C105.944 15.7388 106.935 16.849 106.935 19.0991V26.6425C106.935 28.8827 105.944 29.9929 103.922 29.9929C101.92 29.9929 100.928 28.8827 100.928 26.6425V19.0991C100.928 16.849 101.92 15.7388 103.922 15.7388ZM103.932 17.295C103.258 17.295 102.931 17.8105 102.931 18.8909V26.8804C102.931 27.9311 103.258 28.4367 103.932 28.4367C104.606 28.4367 104.923 27.9311 104.923 26.8804V18.8909C104.923 17.8105 104.606 17.295 103.932 17.295Z" fill="black"/>
<path fill-rule="evenodd" clip-rule="evenodd" d="M14.4629 29.8046H12.3912L12.1434 27.5445H10.2898L10.0321 29.8046H8.09912L9.97258 15.9271H12.5399L14.4629 29.8046ZM11.1125 18.7224C11.0431 20.4274 10.9539 21.4781 10.8449 22.5784L10.4583 26.127H11.965L11.5883 22.5784C11.4793 21.4781 11.3901 20.4274 11.3207 18.7224H11.1125Z" fill="black"/>
<path d="M20.1023 23.4408C20.2609 24.1941 20.4394 25.2052 20.6277 26.5335L20.8359 26.5136C20.6773 24.66 20.5484 22.5486 20.5484 20.9428L20.5385 15.9271H22.5012V29.8046H20.0131L18.3379 22.3405C18.1694 21.5574 18.0207 20.7148 17.7927 19.0991L17.5846 19.1189C17.7134 20.7446 17.8621 23.3714 17.8621 25.0268L17.872 29.8046H15.9193V15.9271H18.4569L20.1023 23.4408Z" fill="black"/>
<path d="M37.1799 17.5627H35.3461V29.8046H33.3537V17.5627H31.51V15.9271H37.1799V17.5627Z" fill="black"/>
<path d="M40.6089 21.6466H42.3832V15.9271H44.3756V29.8046H42.3832V23.2326H40.6089V29.8046H38.6165V15.9271H40.6089V21.6466Z" fill="black"/>
<path d="M50.699 17.5627H48.2407V21.716H50.4413V23.2227H48.2407V28.169H50.8278V29.8046H46.2483V15.9271H50.699V17.5627Z" fill="black"/>
<path fill-rule="evenodd" clip-rule="evenodd" d="M55.2976 15.9271C57.1413 15.9271 58.0532 16.8589 58.0532 18.7323V20.0606C58.0532 21.4484 57.4981 22.2612 56.4177 22.4892V22.6577C57.2999 22.8857 57.627 23.3119 57.7757 25.0961L57.9145 26.8705C58.0532 28.6547 58.1821 29.2792 58.4795 29.5964L58.4497 29.8046H56.2888C56.1104 29.2197 56.0212 28.5655 55.9221 26.92L55.8328 25.2647C55.7337 23.6093 55.5156 23.3317 54.8317 23.3317H54.4253V29.8046H52.4329V15.9271H55.2976ZM54.4253 21.7953H55.0894C55.7635 21.7953 56.0608 21.4484 56.0608 20.6058V18.7026C56.0608 17.8303 55.7635 17.4933 55.0894 17.4933H54.4253V21.7953Z" fill="black"/>
<path fill-rule="evenodd" clip-rule="evenodd" d="M72.9394 15.9271C74.7831 15.9271 75.6951 16.8589 75.6951 18.7323V20.0606C75.6951 21.4484 75.14 22.2612 74.0595 22.4892V22.6577C74.9417 22.8857 75.2688 23.3119 75.4175 25.0961L75.5563 26.8705C75.6951 28.6547 75.8239 29.2792 76.1213 29.5964L76.0916 29.8046H73.9306C73.7522 29.2197 73.663 28.5655 73.5639 26.92L73.4747 25.2647C73.3755 23.6093 73.1575 23.3317 72.4735 23.3317H72.0671V29.8046H70.0747V15.9271H72.9394ZM72.0671 21.7953H72.7312C73.4053 21.7953 73.7027 21.4484 73.7027 20.6058V18.7026C73.7027 17.8303 73.4053 17.4933 72.7312 17.4933H72.0671V21.7953Z" fill="black"/>
<path d="M81.9986 17.5627H79.5403V21.716H81.7409V23.2227H79.5403V28.169H82.1275V29.8046H77.5479V15.9271H81.9986V17.5627Z" fill="black"/>
<path fill-rule="evenodd" clip-rule="evenodd" d="M89.6701 29.8046H87.5984L87.3506 27.5445H85.4969L85.2392 29.8046H83.3063L85.1797 15.9271H87.7471L89.6701 29.8046ZM86.3197 18.7224C86.2503 20.4274 86.1611 21.4781 86.052 22.5784L85.6654 26.127H87.1721L86.7955 22.5784C86.6864 21.4781 86.5972 20.4274 86.5278 18.7224H86.3197Z" fill="black"/>
<path d="M95.7159 17.5627H93.8821V29.8046H91.8897V17.5627H90.046V15.9271H95.7159V17.5627Z" fill="black"/>
<path d="M99.1448 29.8046H97.1524V15.9271H99.1448V29.8046Z" fill="black"/>
<path d="M112.892 23.4408C113.05 24.1941 113.229 25.2052 113.417 26.5335L113.625 26.5136C113.467 24.66 113.338 22.5486 113.338 20.9428L113.328 15.9271H115.291V29.8046H112.803L111.127 22.3405C110.959 21.5574 110.81 20.7148 110.582 19.0991L110.374 19.1189C110.503 20.7446 110.652 23.3714 110.652 25.0268L110.662 29.8046H108.709V15.9271H111.246L112.892 23.4408Z" fill="black"/>
<path d="M8.82727 41.2046H8.31311V36.5903H9.01514L9.526 38.502C9.60181 38.792 9.65454 39.0128 9.71387 39.2765H9.77979C9.83911 39.0128 9.89514 38.792 9.97095 38.4987L10.4752 36.5903H11.1937V41.2046H10.6532L10.6631 39.5369C10.6664 38.9008 10.6796 38.2976 10.7257 37.5099L10.6598 37.5L9.92151 40.1664H9.55896L8.83386 37.4967L8.76794 37.5033C8.8042 38.2811 8.82068 38.8909 8.82397 39.5369L8.82727 41.2046ZM13.0523 41.2771C12.5217 41.2771 12.2185 40.9739 12.2185 40.4531V40.4366C12.2185 39.7841 12.7623 39.4874 13.4215 39.2996L14.0807 39.115V38.7722C14.0807 38.2976 13.9027 38.0669 13.4874 38.0669C13.0095 38.0669 12.7887 38.3734 12.8348 39.0095L12.2778 38.8975C12.2416 38.1262 12.6766 37.6714 13.494 37.6714C14.2619 37.6714 14.6509 38.0438 14.6509 38.7491V40.5059C14.6509 40.8058 14.6838 40.8387 15.0299 40.8618L14.9277 41.2606C14.8717 41.2705 14.8058 41.2771 14.73 41.2771C14.2059 41.2771 14.0906 41.0002 14.2619 40.3279L14.1927 40.3114C14.0279 40.9376 13.639 41.2771 13.0523 41.2771ZM13.2435 40.842C13.7247 40.842 14.0807 40.4037 14.0807 39.7874V39.4677L13.6159 39.6061C13.1479 39.7445 12.8052 39.9719 12.8052 40.3707V40.3872C12.8052 40.6707 12.97 40.842 13.2435 40.842ZM17.0171 41.2639C16.3216 41.2639 15.9459 40.7003 15.9459 39.6522V39.2963C15.9459 38.2482 16.3216 37.6846 17.0171 37.6846C17.5741 37.6846 17.9036 38.024 18.0651 38.5712L18.1311 38.5481C18.0124 38.1328 17.9729 37.8461 17.9729 37.5428V36.5903H18.5365V41.2046H17.9795C17.9795 41.0398 18.0289 40.7827 18.1344 40.4004L18.0651 40.3773C17.8905 40.9475 17.5576 41.2639 17.0171 41.2639ZM17.2082 40.8684C17.696 40.8684 17.9729 40.4268 17.9729 39.616V39.3325C17.9729 38.5217 17.696 38.0768 17.2082 38.0768C16.7501 38.0768 16.5227 38.469 16.5227 39.2798V39.672C16.5227 40.4795 16.7501 40.8684 17.2082 40.8684ZM21.842 40.0609L22.3957 40.1697C22.3034 40.8882 21.8321 41.2771 21.1367 41.2771C20.2435 41.2771 19.7689 40.6674 19.7689 39.5632V39.3787C19.7689 38.2745 20.2402 37.6714 21.1301 37.6714C21.9376 37.6714 22.3858 38.202 22.3858 39.1644C22.3858 39.2897 22.3759 39.4215 22.3627 39.5435H20.3358V39.639C20.3358 40.4729 20.5961 40.8783 21.1334 40.8783C21.5552 40.8783 21.7958 40.6245 21.842 40.0609ZM21.1301 38.0636C20.6291 38.0636 20.3687 38.4294 20.3391 39.1644H21.8189V39.0919C21.8189 38.3998 21.5948 38.0636 21.1301 38.0636ZM29.0529 37.2034H28.3146V36.5903H29.0529V37.2034ZM29.9395 41.2046H27.3357V40.7399H28.4036V38.2053H27.3687V37.7439H28.9639V40.7399H29.9395V41.2046ZM31.775 41.2046H31.2147V37.7439H31.7915C31.7816 37.9614 31.7388 38.2053 31.6168 38.6206L31.6794 38.6404C31.9233 37.968 32.2793 37.6846 32.7836 37.6846C33.3373 37.6846 33.6273 37.9977 33.6273 38.5712V41.2046H33.067V38.6733C33.067 38.3042 32.8956 38.0999 32.5858 38.0999C32.1079 38.0999 31.775 38.6371 31.775 39.4017V41.2046ZM41.3161 41.2046H38.6201V40.7399H39.6781V37.0518H38.6201V36.5903H41.3161V37.0518H40.2614V40.7399H41.3161V41.2046ZM43.768 41.2771C42.8946 41.2771 42.4299 40.6641 42.4299 39.5171V39.3721C42.4299 38.2679 42.9144 37.6714 43.7779 37.6714C44.5228 37.6714 44.9479 38.1163 45.027 38.9568L44.4602 39.0557C44.4206 38.3602 44.213 38.0669 43.768 38.0669C43.2604 38.0669 43.0133 38.469 43.0133 39.3094V39.583C43.0133 40.4597 43.2637 40.8783 43.7779 40.8783C44.2064 40.8783 44.4371 40.585 44.4865 39.962L45.0666 40.0642C44.971 40.8552 44.5129 41.2771 43.768 41.2771ZM48.2798 40.0609L48.8335 40.1697C48.7413 40.8882 48.2699 41.2771 47.5745 41.2771C46.6813 41.2771 46.2067 40.6674 46.2067 39.5632V39.3787C46.2067 38.2745 46.678 37.6714 47.5679 37.6714C48.3754 37.6714 48.8237 38.202 48.8237 39.1644C48.8237 39.2897 48.8138 39.4215 48.8006 39.5435H46.7736V39.639C46.7736 40.4729 47.034 40.8783 47.5712 40.8783C47.9931 40.8783 48.2337 40.6245 48.2798 40.0609ZM47.5679 38.0636C47.0669 38.0636 46.8066 38.4294 46.7769 39.1644H48.2568V39.0919C48.2568 38.3998 48.0326 38.0636 47.5679 38.0636ZM52.0501 41.2705C51.3349 41.2705 51.002 40.8552 51.002 39.9324V37.0518H49.8188V36.5903H51.5623V39.8862C51.5623 40.5092 51.7765 40.7695 52.2149 40.7695C52.4456 40.7695 52.6895 40.7168 52.8609 40.5981L52.8213 41.0695C52.6499 41.1914 52.383 41.2705 52.0501 41.2705ZM54.5975 41.2771C54.0669 41.2771 53.7637 40.9739 53.7637 40.4531V40.4366C53.7637 39.7841 54.3075 39.4874 54.9667 39.2996L55.6259 39.115V38.7722C55.6259 38.2976 55.4479 38.0669 55.0326 38.0669C54.5547 38.0669 54.3339 38.3734 54.38 39.0095L53.823 38.8975C53.7868 38.1262 54.2218 37.6714 55.0392 37.6714C55.8071 37.6714 56.1961 38.0438 56.1961 38.7491V40.5059C56.1961 40.8058 56.229 40.8387 56.5751 40.8618L56.4729 41.2606C56.4169 41.2705 56.351 41.2771 56.2752 41.2771C55.7511 41.2771 55.6358 41.0002 55.8071 40.3279L55.7379 40.3114C55.5731 40.9376 55.1842 41.2771 54.5975 41.2771ZM54.7887 40.842C55.2699 40.842 55.6259 40.4037 55.6259 39.7874V39.4677L55.1611 39.6061C54.6931 39.7445 54.3504 39.9719 54.3504 40.3707V40.3872C54.3504 40.6707 54.5151 40.842 54.7887 40.842ZM58.2129 41.2046H57.6526V37.7439H58.2294C58.2195 37.9614 58.1766 38.2053 58.0547 38.6206L58.1173 38.6404C58.3612 37.968 58.7172 37.6846 59.2214 37.6846C59.7751 37.6846 60.0652 37.9977 60.0652 38.5712V41.2046H59.5049V38.6733C59.5049 38.3042 59.3335 38.0999 59.0237 38.0999C58.5458 38.0999 58.2129 38.6371 58.2129 39.4017V41.2046ZM62.3391 41.2639C61.6436 41.2639 61.2679 40.7003 61.2679 39.6522V39.2963C61.2679 38.2482 61.6436 37.6846 62.3391 37.6846C62.8961 37.6846 63.2257 38.024 63.3872 38.5712L63.4531 38.5481C63.3344 38.1328 63.2949 37.8461 63.2949 37.5428V36.5903H63.8585V41.2046H63.3015C63.3015 41.0398 63.3509 40.7827 63.4564 40.4004L63.3872 40.3773C63.2125 40.9475 62.8796 41.2639 62.3391 41.2639ZM62.5302 40.8684C63.018 40.8684 63.2949 40.4268 63.2949 39.616V39.3325C63.2949 38.5217 63.018 38.0768 62.5302 38.0768C62.0721 38.0768 61.8447 38.469 61.8447 39.2798V39.672C61.8447 40.4795 62.0721 40.8684 62.5302 40.8684Z" fill="black" fill-opacity="0.6"/>
<path d="M11.5 82.8354C11.5 79.3354 13.8333 78.1687 17.3333 78.1687H26.6667C30.1667 78.1687 32.5 79.3354 32.5 82.8354V94.502C32.5 95.6687 31.3333 96.8354 30.1667 96.8354H13.8333C12.6667 96.8354 11.5 95.6687 11.5 94.502V82.8354Z" stroke="black" stroke-width="1.16667" stroke-linecap="round" stroke-linejoin="round"/>
<path d="M19.0493 90.9166C18.6163 90.9166 18.2307 90.8422 17.8924 90.6934C17.5561 90.5426 17.2903 90.3358 17.0951 90.0729C16.9018 89.8081 16.8022 89.5027 16.7964 89.1567H18.0606C18.0683 89.3017 18.1157 89.4292 18.2026 89.5394C18.2916 89.6477 18.4095 89.7318 18.5564 89.7917C18.7033 89.8516 18.8685 89.8816 19.0522 89.8816C19.2435 89.8816 19.4127 89.8477 19.5596 89.7801C19.7065 89.7124 19.8215 89.6187 19.9046 89.4988C19.9877 89.379 20.0293 89.2408 20.0293 89.0842C20.0293 88.9257 19.9848 88.7856 19.8959 88.6638C19.8089 88.5401 19.6833 88.4435 19.519 88.3739C19.3566 88.3043 19.1633 88.2695 18.9391 88.2695H18.3853V87.3475H18.9391C19.1285 87.3475 19.2957 87.3146 19.4407 87.2489C19.5876 87.1832 19.7016 87.0923 19.7828 86.9764C19.864 86.8585 19.9046 86.7212 19.9046 86.5647C19.9046 86.4158 19.8688 86.2854 19.7973 86.1732C19.7277 86.0592 19.6291 85.9703 19.5016 85.9065C19.3759 85.8427 19.229 85.8108 19.0609 85.8108C18.8908 85.8108 18.7352 85.8417 18.5941 85.9036C18.453 85.9635 18.3399 86.0495 18.2548 86.1616C18.1698 86.2738 18.1244 86.4052 18.1186 86.556H16.9153C16.9211 86.2138 17.0187 85.9123 17.2082 85.6514C17.3976 85.3904 17.6527 85.1865 17.9736 85.0396C18.2964 84.8908 18.6607 84.8163 19.0667 84.8163C19.4764 84.8163 19.835 84.8908 20.1423 85.0396C20.4497 85.1884 20.6884 85.3894 20.8585 85.6427C21.0305 85.8939 21.1156 86.1761 21.1136 86.4893C21.1156 86.8217 21.0121 87.0991 20.8034 87.3214C20.5966 87.5437 20.3269 87.6848 19.9945 87.7447V87.7911C20.4313 87.8472 20.7638 87.9989 20.9918 88.2463C21.2219 88.4918 21.3359 88.7991 21.334 89.1683C21.3359 89.5066 21.2383 89.8071 21.0411 90.07C20.8459 90.3329 20.5763 90.5397 20.2322 90.6905C19.8882 90.8412 19.4938 90.9166 19.0493 90.9166ZM24.5646 90.9659C24.0659 90.964 23.6368 90.8412 23.2773 90.5977C22.9197 90.3542 22.6443 90.0014 22.451 89.5394C22.2596 89.0775 22.1649 88.5217 22.1668 87.8723C22.1668 87.2248 22.2625 86.6729 22.4539 86.2167C22.6472 85.7606 22.9226 85.4136 23.2802 85.1759C23.6397 84.9362 24.0679 84.8163 24.5646 84.8163C25.0614 84.8163 25.4885 84.9362 25.8461 85.1759C26.2057 85.4155 26.4821 85.7635 26.6754 86.2196C26.8687 86.6739 26.9643 87.2248 26.9624 87.8723C26.9624 88.5237 26.8658 89.0804 26.6725 89.5423C26.4811 90.0043 26.2066 90.3571 25.849 90.6006C25.4914 90.8441 25.0633 90.9659 24.5646 90.9659ZM24.5646 89.925C24.9048 89.925 25.1764 89.754 25.3793 89.4119C25.5823 89.0697 25.6828 88.5565 25.6809 87.8723C25.6809 87.4219 25.6345 87.0469 25.5417 86.7473C25.4509 86.4477 25.3213 86.2225 25.1532 86.0718C24.987 85.921 24.7908 85.8456 24.5646 85.8456C24.2264 85.8456 23.9557 86.0147 23.7528 86.353C23.5498 86.6913 23.4474 87.1977 23.4455 87.8723C23.4455 88.3285 23.4909 88.7092 23.5817 89.0146C23.6745 89.3181 23.805 89.5462 23.9731 89.6989C24.1413 89.8497 24.3385 89.925 24.5646 89.925Z" fill="black"/>
<path d="M45.5005 80.5022H66.5005L61.8338 94.5022H50.1672L45.5005 80.5022Z" stroke="black" stroke-width="1.16667" stroke-linecap="round"/>
<path d="M46.667 78.1687L65.3337 96.8354" stroke="black" stroke-width="1.16667" stroke-linecap="round"/>
<path d="M90.0003 96.8354C95.155 96.8354 99.3337 92.6567 99.3337 87.502C99.3337 82.3474 95.155 78.1687 90.0003 78.1687C84.8457 78.1687 80.667 82.3474 80.667 87.502C80.667 92.6567 84.8457 96.8354 90.0003 96.8354Z" stroke="black" stroke-width="1.16667" stroke-linecap="round" stroke-linejoin="round"/>
<path d="M89.9999 89.252C90.9663 89.252 91.7498 88.4685 91.7498 87.5021C91.7498 86.5356 90.9663 85.7522 89.9999 85.7522C89.0334 85.7522 88.25 86.5356 88.25 87.5021C88.25 88.4685 89.0334 89.252 89.9999 89.252Z" fill="black" stroke="black" stroke-width="1.16667" stroke-linecap="round" stroke-linejoin="round"/>
<path d="M114.667 94.502L124 78.1687L133.334 94.502H114.667Z" stroke="black" stroke-width="1.16667" stroke-linecap="round" stroke-linejoin="round"/>
<path d="M117 89.8354H131" stroke="black" stroke-width="1.16667" stroke-linecap="round" stroke-linejoin="round"/>
<path d="M168.5 81.6687H147.5V95.6687H168.5V81.6687Z" stroke="black" stroke-width="1.16667" stroke-linecap="round" stroke-linejoin="round"/>
<path d="M147.5 86.3354H168.5" stroke="black" stroke-width="1.16667" stroke-linecap="round" stroke-linejoin="round"/>
<path d="M158.001 92.4026C158.774 92.4026 159.401 91.7757 159.401 91.0024C159.401 90.2292 158.774 89.6023 158.001 89.6023C157.227 89.6023 156.601 90.2292 156.601 91.0024C156.601 91.7757 157.227 92.4026 158.001 92.4026Z" fill="black" stroke="black" stroke-width="1.16667" stroke-linecap="round" stroke-linejoin="round"/>
<path d="M9.75012 118.381C8.74487 118.381 8.26038 117.745 8.26038 116.49V115.501C8.26038 114.245 8.75146 113.612 9.74683 113.612C10.6664 113.612 11.1904 114.126 11.2036 115.356L10.3796 115.501C10.373 114.565 10.1687 114.281 9.7666 114.281C9.33813 114.281 9.13379 114.617 9.13379 115.333V116.651C9.13379 117.366 9.34143 117.702 9.7699 117.702C10.1621 117.702 10.3895 117.412 10.3961 116.427L11.2366 116.615C11.2168 117.87 10.6565 118.381 9.75012 118.381ZM13.527 118.381C12.6239 118.381 12.1229 117.768 12.1229 116.753V116.387C12.1229 115.369 12.6239 114.762 13.527 114.762C14.4366 114.762 14.9376 115.369 14.9376 116.387V116.753C14.9376 117.768 14.4366 118.381 13.527 118.381ZM13.5303 117.795C13.8961 117.795 14.0708 117.501 14.0708 116.882V116.265C14.0708 115.642 13.8961 115.349 13.5303 115.349C13.1644 115.349 12.9897 115.642 12.9897 116.265V116.882C12.9897 117.501 13.1644 117.795 13.5303 117.795ZM16.493 118.302H15.8009V114.842H16.4666C16.4666 114.97 16.4403 115.115 16.3447 115.405L16.404 115.425C16.5754 114.983 16.7896 114.802 17.0994 114.802C17.4224 114.802 17.5609 115.039 17.5015 115.422L17.5543 115.438C17.7191 115 17.9465 114.802 18.2893 114.802C18.6485 114.802 18.8133 115 18.8133 115.415V118.302H18.1212V115.656C18.1212 115.491 18.0619 115.408 17.9399 115.408C17.7389 115.408 17.6202 115.722 17.6202 116.18V118.302H16.994V115.656C16.994 115.494 16.9314 115.405 16.8193 115.405C16.6215 115.405 16.493 115.712 16.493 116.186V118.302ZM21.5091 114.789C22.1749 114.789 22.5242 115.31 22.5242 116.325V116.819C22.5242 117.831 22.1749 118.355 21.5091 118.355C20.9752 118.355 20.6621 118.039 20.4841 117.518L20.4182 117.547C20.5401 117.946 20.5862 118.226 20.5862 118.556V119.456H19.7425V114.842H20.5731C20.5698 114.996 20.517 115.244 20.4116 115.596L20.4808 115.619C20.6588 115.085 20.9719 114.789 21.5091 114.789ZM21.1597 115.362C20.7873 115.362 20.5862 115.705 20.5862 116.354V116.783C20.5862 117.435 20.7873 117.785 21.1564 117.785C21.4992 117.785 21.6706 117.485 21.6706 116.859V116.282C21.6706 115.662 21.5025 115.362 21.1597 115.362ZM24.8575 118.381C23.9544 118.381 23.4534 117.768 23.4534 116.753V116.387C23.4534 115.369 23.9544 114.762 24.8575 114.762C25.7671 114.762 26.2681 115.369 26.2681 116.387V116.753C26.2681 117.768 25.7671 118.381 24.8575 118.381ZM24.8608 117.795C25.2266 117.795 25.4013 117.501 25.4013 116.882V116.265C25.4013 115.642 25.2266 115.349 24.8608 115.349C24.4949 115.349 24.3202 115.642 24.3202 116.265V116.882C24.3202 117.501 24.4949 117.795 24.8608 117.795ZM28.6804 118.385C27.7609 118.385 27.2434 117.989 27.2237 117.287L28.0279 117.135C28.0213 117.594 28.2454 117.851 28.6771 117.851C28.9969 117.851 29.2045 117.699 29.2045 117.445C29.2045 117.195 29.01 117.056 28.5684 116.892L28.1201 116.724C27.6785 116.559 27.3061 116.288 27.3061 115.797C27.3061 115.151 27.7642 114.766 28.598 114.766C29.4682 114.766 29.9362 115.125 29.9461 115.771L29.1616 115.906C29.1781 115.504 28.9837 115.293 28.6079 115.293C28.2948 115.293 28.107 115.445 28.107 115.679C28.107 115.896 28.2652 116.015 28.7101 116.173L29.1551 116.335C29.6 116.493 30.0515 116.733 30.0515 117.356C30.0515 117.979 29.5506 118.385 28.6804 118.385ZM32.9681 114.439H31.9069V113.688H32.9681V114.439ZM33.8218 118.302H31.0104V117.627H32.0189V115.517H31.0433V114.842H32.8594V117.627H33.8218V118.302ZM36.7219 118.371C35.8979 118.371 35.5057 117.91 35.5057 116.954V115.517H34.6488V114.842H35.5057V113.962L36.3462 113.747V114.842H37.714V115.517H36.3462V116.892C36.3462 117.422 36.5472 117.643 36.9691 117.643C37.213 117.643 37.4767 117.6 37.6909 117.482L37.6415 118.174C37.4206 118.299 37.1042 118.371 36.7219 118.371ZM40.5218 114.439H39.4605V113.688H40.5218V114.439ZM41.3755 118.302H38.5641V117.627H39.5726V115.517H38.597V114.842H40.4131V117.627H41.3755V118.302ZM43.7416 118.381C42.8386 118.381 42.3376 117.768 42.3376 116.753V116.387C42.3376 115.369 42.8386 114.762 43.7416 114.762C44.6513 114.762 45.1523 115.369 45.1523 116.387V116.753C45.1523 117.768 44.6513 118.381 43.7416 118.381ZM43.7449 117.795C44.1108 117.795 44.2855 117.501 44.2855 116.882V116.265C44.2855 115.642 44.1108 115.349 43.7449 115.349C43.3791 115.349 43.2044 115.642 43.2044 116.265V116.882C43.2044 117.501 43.3791 117.795 43.7449 117.795ZM47.0439 118.302H46.2034V114.842H47.034C47.0307 115.062 46.9911 115.267 46.8659 115.636L46.9318 115.659C47.1724 115.056 47.5251 114.789 48.0195 114.789C48.5732 114.789 48.8533 115.085 48.8533 115.656V118.302H48.0129V115.837C48.0129 115.544 47.8876 115.385 47.647 115.385C47.2845 115.385 47.0439 115.804 47.0439 116.437V118.302Z" fill="black"/>
<path d="M56.5026 118.302H53.6516V117.864H54.8645V114.947H53.6516V114.571C54.8184 114.542 54.9271 114.502 54.9865 113.688H55.4512V117.864H56.5026V118.302ZM58.8523 118.368C57.9195 118.368 57.4285 117.732 57.4285 116.522V115.468C57.4285 114.258 57.9195 113.622 58.8523 113.622C59.785 113.622 60.2761 114.258 60.2761 115.468V116.522C60.2761 117.732 59.785 118.368 58.8523 118.368ZM58.8523 117.913C59.4159 117.913 59.6894 117.488 59.6894 116.602V115.402C59.6894 114.505 59.4159 114.074 58.8523 114.074C58.2887 114.074 58.0151 114.505 58.0151 115.402V116.602C58.0151 117.488 58.2887 117.913 58.8523 117.913ZM59.116 116.361H58.5886V115.629H59.116V116.361ZM62.6291 118.368C61.6964 118.368 61.2053 117.732 61.2053 116.522V115.468C61.2053 114.258 61.6964 113.622 62.6291 113.622C63.5619 113.622 64.0529 114.258 64.0529 115.468V116.522C64.0529 117.732 63.5619 118.368 62.6291 118.368ZM62.6291 117.913C63.1927 117.913 63.4663 117.488 63.4663 116.602V115.402C63.4663 114.505 63.1927 114.074 62.6291 114.074C62.0655 114.074 61.792 114.505 61.792 115.402V116.602C61.792 117.488 62.0655 117.913 62.6291 117.913ZM62.8928 116.361H62.3654V115.629H62.8928V116.361ZM65.7633 115.507C65.1898 115.507 64.8569 115.161 64.8569 114.561C64.8569 113.958 65.1898 113.612 65.7633 113.612C66.34 113.612 66.6729 113.958 66.6729 114.561C66.6729 115.161 66.34 115.507 65.7633 115.507ZM65.7666 115.155C66.0467 115.155 66.2115 114.95 66.2115 114.598V114.525C66.2115 114.169 66.0467 113.965 65.7666 113.965C65.4831 113.965 65.3216 114.169 65.3216 114.525V114.598C65.3216 114.95 65.4831 115.155 65.7666 115.155ZM67.9385 115.178L64.8701 117.353L64.8668 116.812L67.9353 114.637L67.9385 115.178ZM67.052 118.378C66.4785 118.378 66.1456 118.032 66.1456 117.429C66.1456 116.829 66.4785 116.483 67.052 116.483C67.6287 116.483 67.9616 116.829 67.9616 117.429C67.9616 118.032 67.6287 118.378 67.052 118.378ZM67.052 118.025C67.3354 118.025 67.5002 117.818 67.5002 117.468V117.393C67.5002 117.04 67.3354 116.832 67.052 116.832C66.7718 116.832 66.607 117.04 66.607 117.393V117.468C66.607 117.818 66.7718 118.025 67.052 118.025ZM75.2648 118.302H72.7698V113.688H73.3532V117.811H75.2648V118.302ZM78.1517 114.301H77.4135V113.688H78.1517V114.301ZM79.0383 118.302H76.4346V117.838H77.5025V115.303H76.4675V114.842H78.0628V117.838H79.0383V118.302ZM80.8739 118.302H80.3136V114.842H80.8904C80.8805 115.059 80.8376 115.303 80.7157 115.718L80.7783 115.738C81.0222 115.066 81.3782 114.782 81.8824 114.782C82.4361 114.782 82.7262 115.095 82.7262 115.669V118.302H82.1659V115.771C82.1659 115.402 81.9945 115.198 81.6847 115.198C81.2068 115.198 80.8739 115.735 80.8739 116.499V118.302ZM86.0482 117.159L86.6019 117.267C86.5096 117.986 86.0383 118.375 85.3429 118.375C84.4497 118.375 83.9751 117.765 83.9751 116.661V116.476C83.9751 115.372 84.4464 114.769 85.3363 114.769C86.1438 114.769 86.592 115.3 86.592 116.262C86.592 116.387 86.5821 116.519 86.5689 116.641H84.542V116.737C84.542 117.571 84.8023 117.976 85.3396 117.976C85.7615 117.976 86.0021 117.722 86.0482 117.159ZM85.3363 115.161C84.8353 115.161 84.5749 115.527 84.5453 116.262H86.0251V116.19C86.0251 115.497 85.801 115.161 85.3363 115.161ZM88.4276 118.302H87.8673V114.842H88.444C88.4342 115.059 88.3913 115.303 88.2694 115.718L88.332 115.738C88.5759 115.066 88.9318 114.782 89.4361 114.782C89.9898 114.782 90.2799 115.095 90.2799 115.669V118.302H89.7196V115.771C89.7196 115.402 89.5482 115.198 89.2384 115.198C88.7605 115.198 88.4276 115.735 88.4276 116.499V118.302ZM95.6385 118.961H95.0782L97.6028 113.523H98.1631L95.6385 118.961ZM105.479 118.302H102.984V113.688H103.568V117.811H105.479V118.302ZM108.366 114.301H107.628V113.688H108.366V114.301ZM109.253 118.302H106.649V117.838H107.717V115.303H106.682V114.842H108.277V117.838H109.253V118.302ZM111.089 118.302H110.528V114.842H111.105C111.095 115.059 111.052 115.303 110.93 115.718L110.993 115.738C111.237 115.066 111.593 114.782 112.097 114.782C112.651 114.782 112.941 115.095 112.941 115.669V118.302H112.381V115.771C112.381 115.402 112.209 115.198 111.899 115.198C111.421 115.198 111.089 115.735 111.089 116.499V118.302ZM118.299 118.961H117.739L120.264 113.523H120.824L118.299 118.961ZM128.141 118.302H125.646V113.688H126.229V117.811H128.141V118.302ZM131.37 117.159L131.924 117.267C131.832 117.986 131.36 118.375 130.665 118.375C129.772 118.375 129.297 117.765 129.297 116.661V116.476C129.297 115.372 129.768 114.769 130.658 114.769C131.466 114.769 131.914 115.3 131.914 116.262C131.914 116.387 131.904 116.519 131.891 116.641H129.864V116.737C129.864 117.571 130.124 117.976 130.662 117.976C131.083 117.976 131.324 117.722 131.37 117.159ZM130.658 115.161C130.157 115.161 129.897 115.527 129.867 116.262H131.347V116.19C131.347 115.497 131.123 115.161 130.658 115.161ZM134.804 114.301H134.066V113.688H134.804V114.301ZM135.691 118.302H133.087V117.838H134.155V115.303H133.12V114.842H134.715V117.838H135.691V118.302ZM137.526 118.302H136.966V114.842H137.543C137.533 115.059 137.49 115.303 137.368 115.718L137.431 115.738C137.675 115.066 138.031 114.782 138.535 114.782C139.089 114.782 139.379 115.095 139.379 115.669V118.302H138.818V115.771C138.818 115.402 138.647 115.198 138.337 115.198C137.859 115.198 137.526 115.735 137.526 116.499V118.302ZM142.701 117.159L143.254 117.267C143.162 117.986 142.691 118.375 141.995 118.375C141.102 118.375 140.628 117.765 140.628 116.661V116.476C140.628 115.372 141.099 114.769 141.989 114.769C142.796 114.769 143.245 115.3 143.245 116.262C143.245 116.387 143.235 116.519 143.221 116.641H141.195V116.737C141.195 117.571 141.455 117.976 141.992 117.976C142.414 117.976 142.655 117.722 142.701 117.159ZM141.989 115.161C141.488 115.161 141.227 115.527 141.198 116.262H142.678V116.19C142.678 115.497 142.454 115.161 141.989 115.161ZM145.08 118.302H144.52V114.842H145.097C145.087 115.059 145.044 115.303 144.922 115.718L144.985 115.738C145.228 115.066 145.584 114.782 146.089 114.782C146.642 114.782 146.932 115.095 146.932 115.669V118.302H146.372V115.771C146.372 115.402 146.201 115.198 145.891 115.198C145.413 115.198 145.08 115.735 145.08 116.499V118.302Z" fill="black" fill-opacity="0.8"/>
<path d="M11.6464 234.735C9.95891 234.735 9.03898 233.885 9.00383 231.975L10.4452 231.752C10.4687 233.135 10.8554 233.598 11.6991 233.598C12.3202 233.598 12.7245 233.223 12.7245 232.655C12.7245 232.11 12.3964 231.747 11.5585 231.219L10.7323 230.704C9.86516 230.159 9.17375 229.579 9.17961 228.395C9.18547 227.118 10.1288 226.262 11.5585 226.262C13.1757 226.262 14.0136 227.088 14.0429 228.84L12.6777 229.045C12.6659 227.838 12.3085 227.393 11.5468 227.393C10.9902 227.393 10.6152 227.745 10.6152 228.26C10.6152 228.711 10.8495 229.034 11.746 229.573L12.578 230.077C13.4218 230.586 14.2187 231.184 14.2187 232.461C14.2187 233.821 13.1933 234.735 11.6464 234.735ZM19.5732 234.6H18.0439V227.68H16.081V226.397H21.5302V227.68H19.5732V234.6ZM26.7676 234.6H25.2324V232.11L23.1816 226.397H24.793L25.5723 228.952C25.7129 229.409 25.8418 229.889 25.9766 230.493H26.0996C26.2344 229.889 26.3633 229.409 26.4922 228.958L27.2656 226.397H28.8184L26.7676 232.11V234.6ZM35.6377 234.6H30.9209V226.397H32.4502V233.282H35.6377V234.6ZM42.8907 234.6H38.0274V226.397H42.8028V227.709H39.5567V229.749H42.1583V230.956H39.5567V233.282H42.8907V234.6Z" fill="black"/>
<path d="M10.2902 249.686C9.36047 249.686 8.77062 249.217 8.73156 248.073L9.57531 247.92C9.59094 248.737 9.86047 249.038 10.3097 249.038C10.8839 249.038 11.1573 248.549 11.1573 247.475V247.053C10.9152 247.377 10.5245 247.542 10.0714 247.542C9.20812 247.542 8.71203 247.002 8.71203 246.01V245.62C8.71203 244.6 9.28234 244.045 10.3136 244.045C11.4347 244.045 11.9659 244.749 11.9659 246.096V247.338C11.9659 248.905 11.4191 249.686 10.2902 249.686ZM10.3214 246.936C10.7784 246.936 11.0753 246.639 11.0753 246.053V245.67C11.0753 245.01 10.8019 244.698 10.298 244.698C9.81359 244.698 9.55187 244.991 9.55187 245.624V246.006C9.55187 246.639 9.82141 246.936 10.3214 246.936ZM14.8289 249.686C13.7703 249.686 13.2039 249.249 13.1453 248.209L13.9812 248.065C14.0164 248.76 14.3055 249.049 14.8172 249.049C15.3562 249.049 15.6258 248.737 15.6258 248.081V247.682C15.6258 247.049 15.3719 246.749 14.8562 246.749C14.4344 246.749 14.1609 246.959 13.9891 247.397L13.2391 247.342L13.3719 244.131H16.282V244.815H14.1648L14.0789 246.463C14.325 246.252 14.6375 246.143 15.0516 246.143C15.9812 246.143 16.4773 246.655 16.4773 247.635V248.084C16.4773 249.139 15.9109 249.686 14.8289 249.686ZM18.5161 246.295C17.8247 246.295 17.4302 245.885 17.4302 245.167C17.4302 244.444 17.8247 244.034 18.5161 244.034C19.2153 244.034 19.6098 244.444 19.6098 245.167C19.6098 245.885 19.2153 246.295 18.5161 246.295ZM18.52 245.799C18.8091 245.799 18.977 245.588 18.977 245.225V245.108C18.977 244.741 18.8091 244.53 18.52 244.53C18.2309 244.53 18.063 244.741 18.063 245.108V245.225C18.063 245.588 18.2309 245.799 18.52 245.799ZM21.1137 245.956L17.4536 248.514V247.776L21.1098 245.217L21.1137 245.956ZM20.0552 249.698C19.3637 249.698 18.9692 249.288 18.9692 248.565C18.9692 247.846 19.3637 247.436 20.0552 247.436C20.7505 247.436 21.145 247.846 21.145 248.565C21.145 249.288 20.7505 249.698 20.0552 249.698ZM20.0591 249.202C20.3481 249.202 20.5122 248.991 20.5122 248.627V248.51C20.5122 248.143 20.3481 247.932 20.0591 247.932C19.77 247.932 19.602 248.143 19.602 248.51V248.627C19.602 248.991 19.77 249.202 20.0591 249.202ZM27.7811 249.6H26.9491L26.3397 245.499H27.1014L27.3553 247.514C27.4061 247.905 27.4373 248.17 27.4764 248.596H27.5506C27.5936 248.292 27.6248 248.104 27.6756 247.823L27.9452 246.37H28.535L28.8045 247.823C28.8592 248.104 28.8866 248.292 28.9334 248.596H29.0116C29.0467 248.17 29.0741 247.905 29.1248 247.514L29.3787 245.499H30.1366L29.535 249.6H28.6991L28.4061 248.225C28.3592 247.991 28.3241 247.792 28.2811 247.514H28.2069C28.16 247.792 28.1287 247.995 28.078 248.225L27.7811 249.6ZM32.7144 249.69C31.6753 249.69 31.105 248.963 31.105 247.737V247.358C31.105 246.131 31.6753 245.409 32.7144 245.409C33.7495 245.409 34.3237 246.131 34.3237 247.358V247.737C34.3237 248.963 33.7495 249.69 32.7144 249.69ZM32.7144 249.112C33.2261 249.112 33.4761 248.702 33.4761 247.846V247.256C33.4761 246.393 33.2261 245.983 32.7144 245.983C32.1987 245.983 31.9527 246.393 31.9527 247.256V247.846C31.9527 248.702 32.1987 249.112 32.7144 249.112ZM37.1906 249.69C36.1516 249.69 35.5812 248.963 35.5812 247.737V247.358C35.5812 246.131 36.1516 245.409 37.1906 245.409C38.2258 245.409 38.8 246.131 38.8 247.358V247.737C38.8 248.963 38.2258 249.69 37.1906 249.69ZM37.1906 249.112C37.7023 249.112 37.9523 248.702 37.9523 247.846V247.256C37.9523 246.393 37.7023 245.983 37.1906 245.983C36.675 245.983 36.4289 246.393 36.4289 247.256V247.846C36.4289 248.702 36.675 249.112 37.1906 249.112ZM42.5458 249.678C41.6356 249.678 41.2255 249.182 41.2255 248.049V244.799H39.8895V244.131H42.0458V247.987C42.0458 248.663 42.2841 248.948 42.7997 248.948C43.0497 248.948 43.3192 248.893 43.5145 248.764L43.4637 249.444C43.2528 249.592 42.9364 249.678 42.5458 249.678Z" fill="black" fill-opacity="0.38"/>
<path d="M54.3527 249.686C53.2941 249.686 52.7277 249.249 52.6691 248.209L53.505 248.065C53.5402 248.76 53.8292 249.049 54.3409 249.049C54.88 249.049 55.1495 248.737 55.1495 248.081V247.682C55.1495 247.049 54.8956 246.749 54.38 246.749C53.9581 246.749 53.6847 246.959 53.5128 247.397L52.7628 247.342L52.8956 244.131H55.8058V244.815H53.6886L53.6027 246.463C53.8487 246.252 54.1612 246.143 54.5753 246.143C55.505 246.143 56.0011 246.655 56.0011 247.635V248.084C56.0011 249.139 55.4347 249.686 54.3527 249.686ZM58.0398 246.295C57.3484 246.295 56.9539 245.885 56.9539 245.167C56.9539 244.444 57.3484 244.034 58.0398 244.034C58.7391 244.034 59.1336 244.444 59.1336 245.167C59.1336 245.885 58.7391 246.295 58.0398 246.295ZM58.0437 245.799C58.3328 245.799 58.5008 245.588 58.5008 245.225V245.108C58.5008 244.741 58.3328 244.53 58.0437 244.53C57.7547 244.53 57.5867 244.741 57.5867 245.108V245.225C57.5867 245.588 57.7547 245.799 58.0437 245.799ZM60.6375 245.956L56.9773 248.514V247.776L60.6336 245.217L60.6375 245.956ZM59.5789 249.698C58.8875 249.698 58.493 249.288 58.493 248.565C58.493 247.846 58.8875 247.436 59.5789 247.436C60.2742 247.436 60.6687 247.846 60.6687 248.565C60.6687 249.288 60.2742 249.698 59.5789 249.698ZM59.5828 249.202C59.8719 249.202 60.0359 248.991 60.0359 248.627V248.51C60.0359 248.143 59.8719 247.932 59.5828 247.932C59.2937 247.932 59.1258 248.143 59.1258 248.51V248.627C59.1258 248.991 59.2937 249.202 59.5828 249.202ZM68.6408 249.678C67.7306 249.678 67.3205 249.182 67.3205 248.049V244.799H65.9845V244.131H68.1408V247.987C68.1408 248.663 68.3791 248.948 68.8947 248.948C69.1447 248.948 69.4142 248.893 69.6095 248.764L69.5587 249.444C69.3478 249.592 69.0314 249.678 68.6408 249.678ZM72.8084 244.932H71.7537V244.131H72.8084V244.932ZM73.8397 249.6H70.6366V248.932H71.8709V246.167H70.6756V245.499H72.6912V248.932H73.8397V249.6ZM76.0464 249.6H75.2261V245.499H76.0503C76.0425 245.756 75.9917 246.026 75.8472 246.491L75.9214 246.518C76.2105 245.76 76.6323 245.432 77.2222 245.432C77.8784 245.432 78.2183 245.792 78.2183 246.471V249.6H77.398V246.635C77.398 246.241 77.2222 246.022 76.8902 246.022C76.3902 246.022 76.0464 246.596 76.0464 247.428V249.6ZM81.9914 248.221L82.7883 248.346C82.6867 249.225 82.1086 249.69 81.2375 249.69C80.1555 249.69 79.5812 248.983 79.5812 247.69V247.413C79.5812 246.116 80.1555 245.409 81.2375 245.409C82.2375 245.409 82.7844 246.042 82.7844 247.186C82.7844 247.346 82.7727 247.526 82.757 247.686H80.3977V247.827C80.3977 248.698 80.675 249.116 81.2414 249.116C81.6867 249.116 81.9445 248.85 81.9914 248.221ZM81.2336 245.979C80.6984 245.979 80.425 246.37 80.4016 247.163H81.9602V247.053C81.9602 246.327 81.7258 245.979 81.2336 245.979ZM84.9989 249.6H84.1786V245.499H85.0028C84.995 245.756 84.9442 246.026 84.7997 246.491L84.8739 246.518C85.163 245.76 85.5848 245.432 86.1747 245.432C86.8309 245.432 87.1708 245.792 87.1708 246.471V249.6H86.3505V246.635C86.3505 246.241 86.1747 246.022 85.8427 246.022C85.3427 246.022 84.9989 246.596 84.9989 247.428V249.6Z" fill="black" fill-opacity="0.38"/>
<path d="M8 266.6H173.6" stroke="black" stroke-opacity="0.8" stroke-width="0.18"/>
<path d="M10.4812 277H8.32432V276.628H9.1707V273.678H8.32432V273.309H10.4812V273.678H9.6374V276.628H10.4812V277ZM12.4427 277.058C11.7439 277.058 11.3722 276.568 11.3722 275.65V275.534C11.3722 274.651 11.7597 274.173 12.4506 274.173C13.0465 274.173 13.3866 274.529 13.4499 275.202L12.9964 275.281C12.9647 274.725 12.7986 274.49 12.4427 274.49C12.0366 274.49 11.8389 274.812 11.8389 275.484V275.703C11.8389 276.404 12.0392 276.739 12.4506 276.739C12.7933 276.739 12.9779 276.504 13.0175 276.006L13.4815 276.088C13.4051 276.721 13.0386 277.058 12.4427 277.058ZM16.0521 276.085L16.4951 276.172C16.4213 276.747 16.0442 277.058 15.4879 277.058C14.7733 277.058 14.3936 276.57 14.3936 275.687V275.539C14.3936 274.656 14.7707 274.173 15.4826 274.173C16.1286 274.173 16.4872 274.598 16.4872 275.368C16.4872 275.468 16.4793 275.574 16.4687 275.671H14.8471V275.748C14.8471 276.415 15.0554 276.739 15.4852 276.739C15.8227 276.739 16.0152 276.536 16.0521 276.085ZM15.4826 274.487C15.0818 274.487 14.8735 274.78 14.8498 275.368H16.0337V275.31C16.0337 274.756 15.8544 274.487 15.4826 274.487ZM19.0683 277.053C18.4961 277.053 18.2298 276.721 18.2298 275.982V273.678H17.2833V273.309H18.6781V275.945C18.6781 276.444 18.8495 276.652 19.2001 276.652C19.3847 276.652 19.5798 276.61 19.7169 276.515L19.6853 276.892C19.5482 276.989 19.3346 277.053 19.0683 277.053ZM21.1063 277.058C20.6818 277.058 20.4392 276.815 20.4392 276.399V276.386C20.4392 275.864 20.8743 275.626 21.4016 275.476L21.9289 275.328V275.054C21.9289 274.674 21.7866 274.49 21.4543 274.49C21.072 274.49 20.8953 274.735 20.9323 275.244L20.4867 275.154C20.4577 274.537 20.8057 274.173 21.4596 274.173C22.074 274.173 22.3851 274.471 22.3851 275.036V276.441C22.3851 276.681 22.4115 276.707 22.6883 276.726L22.6066 277.045C22.5618 277.053 22.509 277.058 22.4484 277.058C22.0291 277.058 21.9369 276.837 22.074 276.299L22.0186 276.285C21.8868 276.786 21.5756 277.058 21.1063 277.058ZM21.2592 276.71C21.6442 276.71 21.9289 276.359 21.9289 275.866V275.61L21.5572 275.721C21.1827 275.832 20.9085 276.014 20.9085 276.333V276.346C20.9085 276.573 21.0404 276.71 21.2592 276.71ZM23.9986 277H23.5503V274.231H24.0117C24.0038 274.405 23.9695 274.601 23.872 274.933L23.9221 274.949C24.1172 274.411 24.402 274.184 24.8054 274.184C25.2484 274.184 25.4804 274.434 25.4804 274.893V277H25.0321V274.975C25.0321 274.68 24.895 274.516 24.6472 274.516C24.2649 274.516 23.9986 274.946 23.9986 275.558V277ZM27.2995 277.047C26.7432 277.047 26.4426 276.597 26.4426 275.758V275.473C26.4426 274.635 26.7432 274.184 27.2995 274.184C27.7451 274.184 28.0088 274.456 28.138 274.893L28.1907 274.875C28.0958 274.543 28.0642 274.313 28.0642 274.071V273.309H28.515V277H28.0694C28.0694 276.868 28.109 276.663 28.1934 276.357L28.138 276.338C27.9982 276.794 27.7319 277.047 27.2995 277.047ZM27.4524 276.731C27.8427 276.731 28.0642 276.378 28.0642 275.729V275.502C28.0642 274.854 27.8427 274.498 27.4524 274.498C27.0859 274.498 26.904 274.812 26.904 275.46V275.774C26.904 276.42 27.0859 276.731 27.4524 276.731Z" fill="black" fill-opacity="0.6"/>
<path d="M145.633 277H145.179L146.081 273.309H146.709L147.626 277H147.144L146.938 276.201H145.836L145.633 277ZM146.168 274.769L145.912 275.858H146.864L146.611 274.769C146.535 274.432 146.477 274.155 146.411 273.759H146.355C146.297 274.155 146.245 274.432 146.168 274.769ZM149.432 277.055C148.673 277.055 148.285 276.52 148.285 275.505V274.804C148.285 273.791 148.675 273.256 149.427 273.256C150.089 273.256 150.492 273.67 150.513 274.601L150.06 274.711C150.052 273.891 149.838 273.617 149.435 273.617C148.979 273.617 148.76 273.973 148.76 274.743V275.563C148.76 276.33 148.981 276.689 149.443 276.689C149.846 276.689 150.075 276.412 150.086 275.571L150.547 275.692C150.521 276.644 150.094 277.055 149.432 277.055ZM153.54 275.629H151.351V275.268H153.54V275.629ZM156.601 277H154.354V276.702C155.644 275.421 155.984 274.875 155.984 274.25C155.984 273.812 155.836 273.604 155.459 273.604C155.014 273.604 154.816 273.92 154.845 274.677L154.394 274.572C154.37 273.68 154.742 273.253 155.47 273.253C156.108 273.253 156.453 273.585 156.453 274.192C156.453 274.906 156.087 275.487 154.958 276.591L154.971 276.639C155.111 276.631 155.251 276.628 155.399 276.628H156.601V277ZM158.518 273.253C159.114 273.253 159.504 273.575 159.535 274.334L159.069 274.442C159.056 273.844 158.852 273.609 158.51 273.609C158.069 273.609 157.869 273.984 157.869 274.798V275.088C158.022 274.848 158.296 274.725 158.615 274.725C159.193 274.725 159.541 275.096 159.541 275.753V276.011C159.541 276.678 159.161 277.053 158.502 277.053C157.771 277.053 157.426 276.581 157.426 275.69V274.856C157.426 273.791 157.785 273.253 158.518 273.253ZM158.489 275.059C158.151 275.059 157.919 275.291 157.919 275.713V275.966C157.919 276.454 158.13 276.697 158.507 276.697C158.874 276.697 159.074 276.47 159.074 276.009V275.755C159.074 275.291 158.868 275.059 158.489 275.059ZM162.604 275.629H160.416V275.268H162.604V275.629ZM164.532 277.053C163.785 277.053 163.392 276.544 163.392 275.576V274.732C163.392 273.765 163.785 273.256 164.532 273.256C165.278 273.256 165.671 273.765 165.671 274.732V275.576C165.671 276.544 165.278 277.053 164.532 277.053ZM164.532 276.689C164.982 276.689 165.201 276.349 165.201 275.639V274.68C165.201 273.963 164.982 273.617 164.532 273.617C164.081 273.617 163.862 273.963 163.862 274.68V275.639C163.862 276.349 164.081 276.689 164.532 276.689ZM164.742 275.447H164.321V274.862H164.742V275.447ZM168.695 277H166.414V276.649H167.384V274.316H166.414V274.015C167.347 273.992 167.434 273.96 167.482 273.309H167.854V276.649H168.695V277ZM171.326 277H170.878V276.098H169.372V275.821L170.619 273.309H171.326V275.758H171.779V276.098H171.326V277ZM170.556 274.369L169.847 275.758H170.878V274.466C170.878 274.171 170.883 273.915 170.896 273.699L170.843 273.694C170.77 273.902 170.669 274.126 170.556 274.369Z" fill="black" fill-opacity="0.6"/>
</svg>
