<svg width="392" height="520" viewBox="0 0 392 520" fill="none" xmlns="http://www.w3.org/2000/svg">
<rect width="392" height="520" fill="white"/>
<path d="M17.875 20H17.2422V18.7139L16.1846 15.8984H16.8555L17.3096 17.2607C17.3887 17.501 17.4648 17.7529 17.5439 18.0547H17.6055C17.6846 17.7529 17.7607 17.5039 17.8369 17.2666L18.2881 15.8984H18.9326L17.875 18.7139V20ZM22.1052 20H19.7761V15.8984H22.0584V16.4346H20.4089V17.6035H21.783V18.1016H20.4089V19.4609H22.1052V20ZM23.4907 20H22.8843L23.8071 15.8984H24.7154L25.6616 20H25.0083L24.8179 19.2002H23.6812L23.4907 20ZM24.0269 17.5596L23.7779 18.749H24.7241L24.4751 17.5596C24.3989 17.1904 24.3433 16.874 24.2759 16.4316H24.2144C24.1558 16.874 24.103 17.1904 24.0269 17.5596ZM27.0501 20H26.4143V15.8984H27.6536C28.4358 15.8984 28.8548 16.2559 28.8548 16.918V17.0146C28.8548 17.5156 28.5677 17.832 28.0432 17.8936V17.9521C28.3596 18.043 28.4856 18.1895 28.5999 18.6787L28.7112 19.168C28.8255 19.6602 28.9192 19.833 29.0569 19.9326L29.0481 20H28.3186C28.219 19.8359 28.1634 19.6338 28.0725 19.1768L27.9788 18.7256C27.885 18.2715 27.7708 18.1426 27.4251 18.1426H27.0501V20ZM27.0501 16.3994V17.6592H27.5833C28.0139 17.6592 28.2161 17.4775 28.2161 17.0967V16.959C28.2161 16.5752 28.0139 16.3994 27.5833 16.3994H27.0501Z" fill="black" fill-opacity="0.5"/>
<path d="M21.4453 39H16.3438V38.0312C18.9453 34.6797 19.8672 32.5156 19.8672 30.3594C19.8672 29.4922 19.6094 29.0859 19 29.0859C18.2578 29.0859 17.9219 29.6016 17.9219 31.5234V32.1094L16.4531 31.875V31.3359C16.4531 28.8125 17.3281 27.9141 19.0156 27.9141C20.5703 27.9141 21.3672 28.6875 21.3672 30.2969C21.3672 32.5859 20.5 34.6719 18.2109 37.6719L18.25 37.7969C18.5703 37.7734 18.8516 37.7656 19.1719 37.7656H21.4453V39ZM25 39.1562C23.1562 39.1562 22.2188 37.9375 22.2188 35.5625V31.5C22.2188 29.125 23.1562 27.9062 25 27.9062C26.8438 27.9062 27.7812 29.125 27.7812 31.5V35.5625C27.7812 37.9375 26.8438 39.1562 25 39.1562ZM25 37.9609C25.8438 37.9609 26.25 37.25 26.25 35.7656V31.2969C26.25 29.8047 25.8438 29.1016 25 29.1016C24.1562 29.1016 23.75 29.8047 23.75 31.2969V35.7656C23.75 37.25 24.1562 37.9609 25 37.9609ZM33.6953 39H28.5938V38.0312C31.1953 34.6797 32.1172 32.5156 32.1172 30.3594C32.1172 29.4922 31.8594 29.0859 31.25 29.0859C30.5078 29.0859 30.1719 29.6016 30.1719 31.5234V32.1094L28.7031 31.875V31.3359C28.7031 28.8125 29.5781 27.9141 31.2656 27.9141C32.8203 27.9141 33.6172 28.6875 33.6172 30.2969C33.6172 32.5859 32.75 34.6719 30.4609 37.6719L30.5 37.7969C30.8203 37.7734 31.1016 37.7656 31.4219 37.7656H33.6953V39ZM37.2266 27.9062C38.8125 27.9062 39.8125 28.7031 39.8125 30.75V31.1484L38.2969 31.4219V30.9688C38.2969 29.5469 37.8906 29.0938 37.2031 29.0938C36.3438 29.0938 35.9531 29.8047 35.9531 31.3594V32.8828C36.3438 32.4062 36.9375 32.1641 37.6484 32.1641C39.0625 32.1641 39.8438 33.0469 39.8438 34.7109V36.4766C39.8438 38.2344 38.9297 39.1484 37.1875 39.1484C35.3516 39.1484 34.4844 38.0234 34.4844 35.8438V31.5625C34.4844 29.1172 35.375 27.9062 37.2266 27.9062ZM37.1875 33.2812C36.5 33.2812 36.0625 33.7266 36.0625 34.6719V36.4141C36.0625 37.4844 36.4531 37.9688 37.2031 37.9688C37.9531 37.9688 38.3359 37.5078 38.3359 36.4766V34.7344C38.3359 33.7266 37.9453 33.2812 37.1875 33.2812Z" fill="black"/>
<path d="M18.748 68H16.4189V63.8984H18.7012V64.4346H17.0518V65.6035H18.4258V66.1016H17.0518V67.4609H18.748V68ZM20.7957 68H19.7146V63.8984H20.7957C21.7537 63.8984 22.2078 64.4551 22.2078 65.6094V66.2949C22.2078 67.4463 21.7537 68 20.7957 68ZM20.3474 64.3965V67.502H20.7693C21.3259 67.502 21.5662 67.1797 21.5662 66.4355V65.4688C21.5662 64.7188 21.3259 64.3965 20.7693 64.3965H20.3474ZM25.5034 68H23.0425V67.499H23.9566V64.3994H23.0425V63.8984H25.5034V64.3994H24.5923V67.499H25.5034V68ZM27.9495 68H27.3138V64.4258H26.2649V63.8984H28.9954V64.4258H27.9495V68ZM32.2178 68H29.7569V67.499H30.6709V64.3994H29.7569V63.8984H32.2178V64.3994H31.3067V67.499H32.2178V68ZM34.3445 68.0615C33.4891 68.0615 33.0496 67.5107 33.0496 66.4385V65.4629C33.0496 64.3906 33.4891 63.8369 34.3445 63.8369C35.2 63.8369 35.6395 64.3906 35.6395 65.4629V66.4385C35.6395 67.5107 35.2 68.0615 34.3445 68.0615ZM34.3445 67.5723C34.7898 67.5723 35.0066 67.2383 35.0066 66.5439V65.3721C35.0066 64.666 34.7898 64.3262 34.3445 64.3262C33.8992 64.3262 33.6824 64.666 33.6824 65.3721V66.5439C33.6824 67.2383 33.8992 67.5723 34.3445 67.5723ZM37.066 68H36.4888V63.8984H37.2066L38.1236 66.3418C38.2144 66.582 38.2759 66.8135 38.3492 67.1299L38.4107 67.127C38.3697 66.7021 38.3404 66.2803 38.3404 65.9141V63.8984H38.9146V68H38.2115L37.3033 65.5918C37.2066 65.3369 37.1392 65.1084 37.0572 64.748L36.9986 64.7539C37.0367 65.1553 37.063 65.6416 37.063 66.0195L37.066 68Z" fill="black" fill-opacity="0.5"/>
<path d="M21.1094 96H18.8477V83.7422H16.3047V82.2188C18.7891 82.1016 19.0703 81.9258 19.2461 79.5938H21.1094V96ZM29.5469 96H27.2734V92.6367H22.4102V91.2305L26.2188 79.5938H29.5469V90.9492H30.8359V92.6367H29.5469V96ZM26.3945 85.2539L24.6016 90.9492H27.2734L27.2969 85.5C27.2969 84.5039 27.3203 83.2617 27.3672 81.9492L27.1445 81.9375C26.9336 83.1094 26.6758 84.2812 26.3945 85.2539ZM36.3555 98.3438H34.1641L37.6797 79.0078H39.8711L36.3555 98.3438ZM51.0039 96H43.3516V94.5469C47.2539 89.5195 48.6367 86.2734 48.6367 83.0391C48.6367 81.7383 48.25 81.1289 47.3359 81.1289C46.2227 81.1289 45.7188 81.9023 45.7188 84.7852V85.6641L43.5156 85.3125V84.5039C43.5156 80.7188 44.8281 79.3711 47.3594 79.3711C49.6914 79.3711 50.8867 80.5312 50.8867 82.9453C50.8867 86.3789 49.5859 89.5078 46.1523 94.0078L46.2109 94.1953C46.6914 94.1602 47.1133 94.1484 47.5938 94.1484H51.0039V96ZM58.5859 96H56.3125V92.6367H51.4492V91.2305L55.2578 79.5938H58.5859V90.9492H59.875V92.6367H58.5859V96ZM55.4336 85.2539L53.6406 90.9492H56.3125L56.3359 85.5C56.3359 84.5039 56.3594 83.2617 56.4062 81.9492L56.1836 81.9375C55.9727 83.1094 55.7148 84.2812 55.4336 85.2539Z" fill="black"/>
<path d="M189.562 20.0645C188.694 20.0645 188.264 19.4844 188.264 18.3623V17.5361C188.264 16.4141 188.7 15.834 189.559 15.834C190.332 15.834 190.786 16.2939 190.807 17.3545L190.194 17.4834C190.188 16.6074 189.978 16.3262 189.57 16.3262C189.122 16.3262 188.908 16.6777 188.908 17.4307V18.4648C188.908 19.2148 189.125 19.5664 189.576 19.5664C189.978 19.5664 190.209 19.2822 190.218 18.374L190.839 18.5264C190.815 19.6104 190.329 20.0645 189.562 20.0645ZM194.105 20H191.776V15.8984H194.058V16.4346H192.409V17.6035H193.783V18.1016H192.409V19.4609H194.105V20ZM195.693 20H195.057V15.8984H196.296C197.079 15.8984 197.498 16.2559 197.498 16.918V17.0146C197.498 17.5156 197.21 17.832 196.686 17.8936V17.9521C197.002 18.043 197.128 18.1895 197.243 18.6787L197.354 19.168C197.468 19.6602 197.562 19.833 197.7 19.9326L197.691 20H196.961C196.862 19.8359 196.806 19.6338 196.715 19.1768L196.622 18.7256C196.528 18.2715 196.414 18.1426 196.068 18.1426H195.693V20ZM195.693 16.3994V17.6592H196.226C196.657 17.6592 196.859 17.4775 196.859 17.0967V16.959C196.859 16.5752 196.657 16.3994 196.226 16.3994H195.693ZM199.949 20H199.314V16.4258H198.265V15.8984H200.995V16.4258H199.949V20ZM204.218 20H201.757V19.499H202.671V16.3994H201.757V15.8984H204.218V16.3994H203.307V19.499H204.218V20ZM205.89 20H205.258V15.8984H207.622V16.4229H205.89V17.7559H207.449V18.2656H205.89V20ZM210.932 20H208.471V19.499H209.385V16.3994H208.471V15.8984H210.932V16.3994H210.021V19.499H210.932V20ZM213.062 20.0645C212.195 20.0645 211.764 19.4844 211.764 18.3623V17.5361C211.764 16.4141 212.201 15.834 213.059 15.834C213.832 15.834 214.286 16.2939 214.307 17.3545L213.695 17.4834C213.689 16.6074 213.478 16.3262 213.071 16.3262C212.622 16.3262 212.409 16.6777 212.409 17.4307V18.4648C212.409 19.2148 212.625 19.5664 213.076 19.5664C213.478 19.5664 213.709 19.2822 213.718 18.374L214.339 18.5264C214.316 19.6104 213.829 20.0645 213.062 20.0645ZM215.634 20H215.027L215.95 15.8984H216.858L217.805 20H217.151L216.961 19.2002H215.824L215.634 20ZM216.17 17.5596L215.921 18.749H216.867L216.618 17.5596C216.542 17.1904 216.486 16.874 216.419 16.4316H216.358C216.299 16.874 216.246 17.1904 216.17 17.5596ZM220.093 20H219.457V16.4258H218.408V15.8984H221.139V16.4258H220.093V20ZM224.32 20H221.991V15.8984H224.273V16.4346H222.624V17.6035H223.998V18.1016H222.624V19.4609H224.32V20ZM229.845 20.0615C228.989 20.0615 228.55 19.5107 228.55 18.4385V17.4629C228.55 16.3906 228.989 15.8369 229.845 15.8369C230.7 15.8369 231.14 16.3906 231.14 17.4629V18.4385C231.14 19.5107 230.7 20.0615 229.845 20.0615ZM229.845 19.5723C230.29 19.5723 230.507 19.2383 230.507 18.5439V17.3721C230.507 16.666 230.29 16.3262 229.845 16.3262C229.4 16.3262 229.183 16.666 229.183 17.3721V18.5439C229.183 19.2383 229.4 19.5723 229.845 19.5723ZM232.748 20H232.115V15.8984H234.479V16.4229H232.748V17.7559H234.307V18.2656H232.748V20ZM239.134 20H238.528L239.451 15.8984H240.359L241.305 20H240.652L240.461 19.2002H239.325L239.134 20ZM239.67 17.5596L239.421 18.749H240.368L240.119 17.5596C240.042 17.1904 239.987 16.874 239.919 16.4316H239.858C239.799 16.874 239.746 17.1904 239.67 17.5596ZM243.274 20.0645C242.459 20.0645 242.04 19.6895 242.04 18.9424V15.8984H242.673V18.9014C242.673 19.3555 242.875 19.5752 243.274 19.5752C243.675 19.5752 243.874 19.3555 243.874 18.9014V15.8984H244.507V18.9424C244.507 19.6895 244.091 20.0645 243.274 20.0645ZM246.95 20H246.314V16.4258H245.266V15.8984H247.996V16.4258H246.95V20ZM249.405 20H248.772V15.8984H249.405V17.5713H250.574V15.8984H251.204V20H250.574V18.0811H249.405V20ZM254.535 20H252.206V15.8984H254.488V16.4346H252.838V17.6035H254.212V18.1016H252.838V19.4609H254.535V20ZM256.067 20H255.489V15.8984H256.207L257.124 18.3418C257.215 18.582 257.277 18.8135 257.35 19.1299L257.411 19.127C257.37 18.7021 257.341 18.2803 257.341 17.9141V15.8984H257.915V20H257.212L256.304 17.5918C256.207 17.3369 256.14 17.1084 256.058 16.748L255.999 16.7539C256.037 17.1553 256.064 17.6416 256.064 18.0195L256.067 20ZM260.379 20H259.743V16.4258H258.694V15.8984H261.425V16.4258H260.379V20ZM264.647 20H262.186V19.499H263.1V16.3994H262.186V15.8984H264.647V16.3994H263.736V19.499H264.647V20ZM266.777 20.0645C265.91 20.0645 265.479 19.4844 265.479 18.3623V17.5361C265.479 16.4141 265.916 15.834 266.774 15.834C267.547 15.834 268.001 16.2939 268.022 17.3545L267.41 17.4834C267.404 16.6074 267.193 16.3262 266.786 16.3262C266.337 16.3262 266.124 16.6777 266.124 17.4307V18.4648C266.124 19.2148 266.34 19.5664 266.791 19.5664C267.193 19.5664 267.424 19.2822 267.433 18.374L268.054 18.5264C268.031 19.6104 267.544 20.0645 266.777 20.0645ZM271.362 20H268.901V19.499H269.815V16.3994H268.901V15.8984H271.362V16.3994H270.45V19.499H271.362V20ZM273.808 20H273.172V16.4258H272.123V15.8984H274.854V16.4258H273.808V20ZM277.162 20H276.529V18.7139L275.471 15.8984H276.142L276.596 17.2607C276.676 17.501 276.752 17.7529 276.831 18.0547H276.892C276.971 17.7529 277.048 17.5039 277.124 17.2666L277.575 15.8984H278.219L277.162 18.7139V20Z" fill="black" fill-opacity="0.5"/>
<g clip-path="url(#clip0_49_26830)">
<path d="M352.571 75.6781C352.607 75.6786 352.778 75.8245 352.951 76.0026C353.124 76.1802 353.265 76.3477 353.265 76.3754C353.265 76.4027 353.2 76.5733 353.12 76.7545C353.04 76.936 352.779 77.4498 352.54 77.8964C352.302 78.3429 352.028 78.8527 351.933 79.0289C351.837 79.2052 351.529 79.7708 351.249 80.2858C350.968 80.8008 350.529 81.6102 350.274 82.0846C350.018 82.5589 349.676 83.1909 349.515 83.4891C349.353 83.7873 349.167 84.1313 349.103 84.2533C349.037 84.3758 348.571 85.2517 348.065 86.2001C347.147 87.9246 347.146 87.925 347.17 88.1713C347.198 88.4631 347.026 88.8532 347.431 89.0687C347.837 89.2838 349.267 86.8015 349.656 86.6083C350.249 86.3146 350.42 86.1323 350.936 85.693C351.162 85.5002 351.572 85.1276 351.846 84.8649C352.12 84.6021 352.579 84.1219 352.865 83.7977C353.151 83.4736 353.483 83.061 353.602 82.881C353.721 82.701 353.838 82.5534 353.862 82.5529C354.041 82.5486 354.503 82.7434 354.63 82.8871C354.652 82.9133 354.624 83.0453 354.561 83.2079C354.502 83.3601 354.347 83.6352 354.218 83.819C354.088 84.0029 353.846 84.3862 353.679 84.6708C353.513 84.9554 353.205 85.5211 352.995 85.9276C352.785 86.3343 352.402 87.135 352.143 87.7072C351.884 88.2793 351.582 88.9891 351.472 89.2843C351.362 89.5795 351.225 89.9764 351.168 90.1661C351.11 90.3559 351.036 90.6165 351.002 90.7452C350.968 90.8739 350.957 90.9791 350.977 90.9791C350.998 90.9786 351.116 90.8326 351.239 90.6539C351.363 90.4749 351.582 90.1144 351.726 89.8529C351.869 89.5936 351.99 89.3758 351.996 89.3656C352.001 89.359 352.177 89.4195 352.387 89.5004C352.597 89.5811 352.777 89.6557 352.786 89.6664C352.795 89.6776 352.754 89.8355 352.693 90.0179C352.633 90.2008 352.512 90.4839 352.425 90.6471C352.337 90.8103 352.126 91.1571 351.954 91.4176C351.783 91.678 351.533 92.0084 351.398 92.152C351.263 92.2954 351.084 92.4458 351 92.486C350.855 92.5546 350.823 92.5501 350.447 92.4083C350.224 92.3244 350.013 92.2124 349.971 92.1552C349.92 92.0866 349.895 91.9686 349.895 91.7994C349.895 91.6602 349.924 91.3908 349.959 91.201C349.994 91.0113 350.089 90.6453 350.17 90.3878C350.363 89.7772 350.565 89.1718 350.789 88.5746C350.893 88.2956 351.116 87.7439 351.284 87.3488C351.451 86.9556 351.58 86.6237 351.571 86.6083C351.56 86.5962 351.313 86.7676 351.022 86.9894C350.087 87.7021 348.128 90.7481 347.17 90.3893C346.822 90.2585 346.51 89.9739 346.456 89.5004C345.736 89.5074 344.255 93.804 344.061 94.4554C343.928 94.9042 341.988 100.647 341.869 101.081C341.75 101.515 341.585 102.169 341.504 102.535C341.422 102.901 341.331 103.378 341.302 103.595C341.272 103.812 341.244 103.994 341.24 103.999C341.234 104.005 341.039 103.977 340.807 103.937C340.574 103.897 340.368 103.876 340.348 103.889C340.328 103.903 340.173 103.768 340.004 103.59C339.747 103.319 339.696 103.24 339.696 103.11C339.697 103.024 339.724 102.835 339.759 102.689C339.793 102.544 339.903 102.2 340.004 101.925C340.797 99.7691 341.301 98.2761 342.479 95.3373C342.921 94.2353 343.455 93.1568 343.815 92.0157C343.892 91.7717 344.137 91.0398 344.36 90.3893C344.582 89.7388 344.841 88.9958 344.934 88.7382C345.027 88.4806 345.259 87.8597 345.451 87.3583C345.643 86.8569 345.958 86.0485 346.151 85.5619C346.344 85.0773 346.501 84.6736 346.502 84.6622C346.503 84.6541 346.523 84.6473 346.548 84.6473C346.573 84.6475 346.768 84.7168 346.981 84.8014C347.346 84.946 347.37 84.9641 347.37 85.0944C347.37 85.1706 347.388 85.2458 347.41 85.2614C347.432 85.2759 347.624 84.9615 347.836 84.5619C348.049 84.1617 348.366 83.5681 348.54 83.2428C348.715 82.9175 349.13 82.1523 349.464 81.5424C349.797 80.9325 350.146 80.2895 350.24 80.1132C350.333 79.937 350.526 79.5821 350.667 79.3246C350.809 79.0671 351.005 78.705 351.102 78.5199C351.199 78.3353 351.269 78.1738 351.259 78.1603C351.247 78.1475 351.212 78.1659 351.179 78.2011C351.146 78.2363 351.002 78.3757 350.859 78.5109C350.716 78.6461 350.578 78.7794 350.552 78.8068C350.525 78.8346 350.311 79.0452 350.077 79.2753C349.843 79.5057 349.464 79.8802 349.236 80.1073C349.008 80.3343 348.753 80.5893 348.67 80.6742C348.586 80.7591 348.304 81.0393 348.042 81.2965C347.779 81.5538 347.397 81.9306 347.193 82.1339C346.989 82.3372 346.657 82.6626 346.456 82.8568C346.255 83.0511 345.892 83.3948 345.65 83.6207C345.408 83.8466 345.018 84.1998 344.783 84.4056C344.548 84.6115 344.2 84.9027 344.01 85.0529C343.819 85.203 343.544 85.3931 343.4 85.4755C343.255 85.5578 343.068 85.64 342.983 85.6581C342.839 85.6889 342.809 85.6695 342.479 85.3373C342.245 85.101 342.12 84.9368 342.101 84.8412C342.085 84.7591 342.105 84.5774 342.146 84.4142C342.186 84.2578 342.308 83.9081 342.417 83.6371C342.526 83.366 342.742 82.8781 342.896 82.5529C343.05 82.2275 343.42 81.4736 343.718 80.8773C344.016 80.281 344.322 79.6708 344.399 79.5216C344.476 79.3725 344.618 79.0953 344.715 78.9054C344.811 78.7154 344.952 78.4304 345.029 78.2723C345.138 78.0465 345.15 77.9959 345.087 78.0358C345.043 78.0638 344.906 78.1713 344.784 78.2745C344.661 78.3778 344.058 78.8947 343.444 79.4232C342.83 79.9518 342.277 80.4279 342.215 80.4811C342.153 80.5345 341.634 80.9868 341.062 81.4865C340.489 81.9863 339.894 82.5096 339.739 82.6493C339.584 82.789 339.021 83.3014 338.487 83.7877C337.953 84.2742 337.455 84.7266 337.381 84.7931C337.307 84.8597 337.09 85.0737 336.899 85.2687C336.553 85.6232 336.552 85.6231 336.238 85.2955C335.924 84.9679 335.924 84.9678 336.217 84.6229C336.378 84.4332 336.579 84.2096 336.663 84.1259C336.748 84.0422 336.943 83.8536 337.097 83.7069C337.251 83.5601 337.475 83.3512 337.594 83.2428C337.713 83.1345 337.849 83.0094 337.897 82.9645C337.944 82.9196 338.14 82.7432 338.33 82.5726C338.521 82.4021 338.911 82.0516 339.197 81.7941C339.483 81.5365 339.825 81.231 339.956 81.1151C340.087 80.9993 340.546 80.598 340.975 80.2238C341.404 79.8497 341.806 79.5001 341.869 79.4464C341.931 79.393 342.485 78.9169 343.099 78.3883C343.713 77.8597 344.481 77.2043 344.806 76.9318C345.131 76.6593 345.531 76.3321 345.695 76.2047C345.858 76.0775 346.034 75.9734 346.086 75.9733C346.142 75.9735 346.31 76.1074 346.496 76.2999C346.789 76.6043 346.808 76.637 346.781 76.7804C346.765 76.8651 346.676 77.105 346.584 77.3134C346.492 77.522 346.034 78.4533 345.565 79.3832C345.096 80.3131 344.5 81.5066 344.24 82.0353C343.98 82.5639 343.65 83.2704 343.507 83.6053C343.364 83.94 343.253 84.2337 343.26 84.2584C343.267 84.2823 343.429 84.1859 343.62 84.0438C343.811 83.9015 344.21 83.5687 344.508 83.3046C344.806 83.0404 345.15 82.73 345.273 82.6146C345.396 82.4993 345.601 82.3082 345.728 82.1901C345.856 82.0719 346.058 81.8798 346.177 81.7633C346.297 81.6468 346.552 81.3973 346.746 81.2089C346.939 81.0204 347.136 80.8243 347.183 80.7731C347.23 80.7217 347.451 80.5025 347.674 80.2858C347.897 80.0689 348.111 79.8579 348.149 79.8173C348.187 79.7765 348.296 79.6684 348.39 79.5768C348.484 79.485 348.678 79.2965 348.82 79.1578C348.962 79.0192 349.265 78.7173 349.492 78.4869C349.719 78.2566 350.02 77.957 350.16 77.8214C350.3 77.6859 350.497 77.4973 350.598 77.4025C350.699 77.3076 351.063 76.9623 351.406 76.6351C351.749 76.3081 352.137 75.9589 352.268 75.859C352.398 75.7594 352.535 75.6781 352.571 75.6781Z" fill="black"/>
<path d="M330.5 100H329.5V76.0001H330.5V100Z" fill="black"/>
<path fill-rule="evenodd" clip-rule="evenodd" d="M211.729 79.1783C214.219 79.1783 215.439 80.5455 215.439 83.3165V92.6061C215.439 95.3648 214.219 96.7321 211.729 96.7321C209.263 96.7321 208.042 95.3648 208.042 92.6061V83.3165C208.042 80.5455 209.263 79.1783 211.729 79.1783ZM211.741 81.0948C210.911 81.0948 210.508 81.7296 210.508 83.0602V92.899C210.508 94.1929 210.911 94.8156 211.741 94.8156C212.571 94.8156 212.961 94.1929 212.961 92.899V83.0602C212.961 81.7296 212.571 81.0948 211.741 81.0948Z" fill="black"/>
<path d="M258.708 79.1783C261.039 79.1783 262.284 80.399 262.284 83.2311V85.5504L259.879 85.9777V83.3654C259.879 81.6075 259.489 81.0582 258.732 81.0582C257.951 81.0582 257.572 81.6808 257.572 82.9869V92.8868C257.572 94.1929 257.951 94.8156 258.744 94.8156C259.477 94.8156 259.904 94.2417 259.904 92.4352V89.4933L262.333 89.9694V92.6427C262.333 95.5113 261.027 96.7321 258.708 96.7321C256.266 96.7321 255.106 95.3648 255.106 92.6183V83.3043C255.106 80.5455 256.278 79.1783 258.708 79.1783Z" fill="black"/>
<path fill-rule="evenodd" clip-rule="evenodd" d="M306.126 79.1783C308.616 79.1783 309.837 80.5455 309.837 83.3165V92.6061C309.837 95.3648 308.616 96.7321 306.126 96.7321C303.66 96.7321 302.439 95.3648 302.439 92.6061V83.3165C302.439 80.5455 303.66 79.1783 306.126 79.1783ZM306.138 81.0948C305.308 81.0948 304.905 81.7296 304.905 83.0602V92.899C304.905 94.1929 305.308 94.8156 306.138 94.8156C306.968 94.8156 307.359 94.1929 307.359 92.899V83.0602C307.359 81.7296 306.968 81.0948 306.138 81.0948Z" fill="black"/>
<path fill-rule="evenodd" clip-rule="evenodd" d="M195.959 96.5001H193.408L193.103 93.7169H190.82L190.502 96.5001H188.122L190.429 79.4103H193.591L195.959 96.5001ZM191.833 82.8527C191.748 84.9522 191.638 86.2462 191.503 87.6012L191.027 91.9713H192.883L192.419 87.6012C192.285 86.2462 192.175 84.9522 192.089 82.8527H191.833Z" fill="black"/>
<path d="M202.904 88.6632C203.099 89.5909 203.319 90.8361 203.551 92.4718L203.807 92.4474C203.612 90.1647 203.453 87.5646 203.453 85.587L203.441 79.4103H205.858V96.5001H202.794L200.731 87.3082C200.523 86.3439 200.34 85.3062 200.06 83.3165L199.803 83.3409C199.962 85.3429 200.145 88.5778 200.145 90.6163L200.157 96.5001H197.752V79.4103H200.877L202.904 88.6632Z" fill="black"/>
<path d="M223.935 81.4244H221.676V96.5001H219.223V81.4244H216.952V79.4103H223.935V81.4244Z" fill="black"/>
<path d="M228.157 86.4537H230.342V79.4103H232.796V96.5001H230.342V88.4069H228.157V96.5001H225.704V79.4103H228.157V86.4537Z" fill="black"/>
<path d="M240.583 81.4244H237.556V86.5392H240.266V88.3947H237.556V94.486H240.742V96.5001H235.102V79.4103H240.583V81.4244Z" fill="black"/>
<path fill-rule="evenodd" clip-rule="evenodd" d="M246.246 79.4103C248.517 79.4103 249.64 80.5577 249.64 82.8649V84.5006C249.64 86.2095 248.956 87.2106 247.625 87.4913V87.6989C248.712 87.9796 249.115 88.5045 249.298 90.7018L249.469 92.8868C249.64 95.084 249.798 95.8532 250.165 96.2438L250.128 96.5001H247.467C247.247 95.7799 247.137 94.9742 247.015 92.9479L246.905 90.9093C246.783 88.8707 246.515 88.5289 245.672 88.5289H245.172V96.5001H242.718V79.4103H246.246ZM245.172 86.6368H245.99C246.82 86.6368 247.186 86.2095 247.186 85.172V82.8282C247.186 81.754 246.82 81.339 245.99 81.339H245.172V86.6368Z" fill="black"/>
<path fill-rule="evenodd" clip-rule="evenodd" d="M267.972 79.4103C270.242 79.4103 271.365 80.5577 271.365 82.8649V84.5006C271.365 86.2095 270.682 87.2106 269.351 87.4913V87.6989C270.437 87.9796 270.84 88.5045 271.023 90.7018L271.194 92.8868C271.365 95.084 271.524 95.8532 271.89 96.2438L271.854 96.5001H269.192C268.973 95.7799 268.863 94.9742 268.741 92.9479L268.631 90.9093C268.509 88.8707 268.24 88.5289 267.398 88.5289H266.897V96.5001H264.444V79.4103H267.972ZM266.897 86.6368H267.715C268.545 86.6368 268.912 86.2095 268.912 85.172V82.8282C268.912 81.754 268.545 81.339 267.715 81.339H266.897V86.6368Z" fill="black"/>
<path d="M279.128 81.4244H276.101V86.5392H278.811V88.3947H276.101V94.486H279.287V96.5001H273.647V79.4103H279.128V81.4244Z" fill="black"/>
<path fill-rule="evenodd" clip-rule="evenodd" d="M288.575 96.5001H286.024L285.719 93.7169H283.436L283.119 96.5001H280.738L283.045 79.4103H286.207L288.575 96.5001ZM284.449 82.8527C284.364 84.9522 284.254 86.2462 284.12 87.6012L283.644 91.9713H285.499L285.035 87.6012C284.901 86.2462 284.791 84.9522 284.706 82.8527H284.449Z" fill="black"/>
<path d="M296.021 81.4244H293.762V96.5001H291.309V81.4244H289.038V79.4103H296.021V81.4244Z" fill="black"/>
<path d="M300.243 96.5001H297.79V79.4103H300.243V96.5001Z" fill="black"/>
<path d="M317.172 88.6632C317.368 89.5909 317.587 90.8361 317.819 92.4718L318.076 92.4474C317.88 90.1647 317.722 87.5646 317.722 85.587L317.709 79.4103H320.126V96.5001H317.062L315 87.3082C314.792 86.3439 314.609 85.3062 314.328 83.3165L314.072 83.3409C314.23 85.3429 314.414 88.5778 314.414 90.6163L314.426 96.5001H312.021V79.4103H315.146L317.172 88.6632Z" fill="black"/>
<path d="M357.802 84.027C358.203 83.6308 358.203 83.631 358.539 83.8046C358.723 83.9001 358.901 84.0084 358.934 84.0453C358.984 84.102 358.974 84.1565 358.867 84.4C358.797 84.5585 358.489 85.1426 358.183 85.6981C357.877 86.2538 357.592 86.7752 357.551 86.8566C357.51 86.938 357.387 87.1692 357.277 87.3705C357.167 87.5718 357.085 87.7464 357.096 87.7584C357.108 87.7678 357.367 87.4828 357.673 87.1229C358.232 86.4659 358.232 86.4658 358.618 86.6664C358.92 86.8228 359.008 86.8915 359.019 86.9784C359.033 87.0828 359.048 87.0877 359.258 87.0553C359.381 87.0364 359.713 87.0023 359.995 86.9794C360.438 86.9434 360.531 86.9201 360.677 86.8107C360.769 86.741 360.863 86.684 360.884 86.684C360.906 86.6841 361.032 86.7406 361.164 86.8094C361.361 86.912 361.42 86.9241 361.484 86.8759C361.527 86.8434 361.76 86.5707 362.001 86.2699C362.243 85.9691 362.636 85.456 362.874 85.1298C363.113 84.8039 363.34 84.5074 363.379 84.4703C363.439 84.4133 363.5 84.4299 363.806 84.5875C364.003 84.6885 364.191 84.8004 364.224 84.8363C364.274 84.8916 364.255 84.9909 364.099 85.4847C363.998 85.8054 363.83 86.3451 363.725 86.684C363.621 87.0226 363.536 87.3281 363.535 87.3629C363.535 87.4104 363.568 87.4067 363.668 87.3475C363.796 87.2726 363.815 87.2758 364.12 87.4203C364.331 87.52 364.513 87.5712 364.656 87.5712C364.775 87.5711 365.181 87.5024 365.558 87.4186C365.935 87.3348 366.42 87.2548 366.635 87.2406C367.021 87.2151 367.028 87.2165 367.414 87.4196C367.628 87.5322 367.848 87.6718 367.902 87.7296C367.956 87.7874 368 87.8695 368 87.9122C368 87.9551 367.953 88.1039 367.896 88.2428C367.839 88.3816 367.772 88.5095 367.747 88.5272C367.722 88.5445 367.555 88.4762 367.376 88.3754C367.049 88.1918 367.049 88.1917 366.734 88.2479C366.56 88.2789 366.203 88.3509 365.941 88.4078C365.679 88.4647 365.308 88.5151 365.117 88.5199C364.822 88.5272 364.733 88.5088 364.516 88.3949C364.376 88.3217 364.254 88.2616 364.244 88.2611C364.233 88.2616 364.03 88.472 363.791 88.7291C363.552 88.9863 363.311 89.2099 363.256 89.226C363.188 89.2454 363.032 89.1833 362.766 89.0314C362.551 88.9089 362.364 88.7724 362.348 88.7279C362.333 88.6836 362.321 88.577 362.322 88.4911C362.322 88.4051 362.378 88.0966 362.446 87.8053C362.513 87.5158 362.561 87.2786 362.553 87.2755C362.542 87.2769 362.331 87.4956 362.081 87.7628C361.831 88.031 361.555 88.2893 361.467 88.3365C361.308 88.4224 361.307 88.4223 360.871 88.1786C360.435 87.9349 360.435 87.9348 359.937 87.9957C359.663 88.0292 359.34 88.0582 359.221 88.0599C359.076 88.0621 358.928 88.0222 358.773 87.9403C358.645 87.8729 358.516 87.8176 358.485 87.8175C358.454 87.8176 358.033 88.3001 357.549 88.8895C357.065 89.479 356.463 90.2006 356.211 90.493C355.959 90.7853 355.679 91.0831 355.588 91.1547C355.423 91.2849 355.423 91.2849 355.035 91.069C354.711 90.8885 354.648 90.8339 354.647 90.7372C354.648 90.6734 354.726 90.4489 354.821 90.2384C354.916 90.0282 354.994 89.8403 354.994 89.8209C354.995 89.8012 355.085 89.6037 355.196 89.3812C355.307 89.1582 355.489 88.7983 355.601 88.5814C355.712 88.3646 355.917 87.9653 356.056 87.6942C356.195 87.4232 356.356 87.1163 356.414 87.0121C356.471 86.9084 356.508 86.8122 356.497 86.798C356.484 86.7844 356.205 87.0157 355.875 87.3119C355.546 87.6082 355.049 88.0433 354.772 88.2789C354.337 88.6489 354.258 88.7381 354.193 88.9315C354.152 89.0545 354.091 89.1667 354.059 89.181C354.027 89.1951 353.795 89.0952 353.544 88.9589C353.293 88.8226 353.088 88.6893 353.087 88.6625C353.087 88.6359 353.124 88.5181 353.169 88.4008C353.214 88.2834 353.287 88.1533 353.332 88.1119C353.376 88.0704 353.783 87.7172 354.236 87.327C354.689 86.9367 355.254 86.4397 355.493 86.2225C355.731 86.0054 356.258 85.5118 356.664 85.1256C357.069 84.7394 357.581 84.2449 357.802 84.027Z" fill="black"/>
<path d="M366.619 84.5118C366.676 84.4954 366.809 84.5202 366.917 84.5675C367.024 84.6146 367.196 84.6921 367.3 84.7396C367.481 84.8224 367.488 84.8331 367.465 84.9962C367.452 85.0898 367.41 85.2196 367.373 85.2845C367.327 85.3631 367.263 85.4024 367.181 85.4025C367.114 85.4023 366.914 85.335 366.739 85.2526C366.563 85.1702 366.403 85.085 366.384 85.0631C366.365 85.0414 366.387 84.9151 366.432 84.7826C366.491 84.6118 366.546 84.5329 366.619 84.5118Z" fill="black"/>
<path d="M360.548 84.2692C360.593 84.2693 360.797 84.3633 361.001 84.4784C361.357 84.6786 361.372 84.694 361.349 84.8275C361.336 84.9044 361.284 85.0319 361.235 85.111C361.185 85.1899 361.105 85.2543 361.057 85.2545C361.009 85.2545 360.805 85.1531 360.604 85.0289C360.404 84.9049 360.241 84.7817 360.24 84.7552C360.24 84.7289 360.272 84.6365 360.311 84.5499C360.349 84.4633 360.401 84.3647 360.424 84.3307C360.448 84.2968 360.504 84.2692 360.548 84.2692Z" fill="black"/>
<path d="M352.377 72.0001C352.401 72.008 352.583 72.079 352.781 72.1578C353.133 72.2979 353.141 72.3048 353.117 72.4408C353.104 72.5175 353.062 72.6505 353.025 72.7365C352.982 72.8357 352.717 73.0998 352.3 73.4596C351.939 73.7713 351.418 74.2385 351.143 74.4977C350.868 74.7568 350.552 75.0842 350.44 75.2252C350.238 75.4814 350.238 75.4814 349.862 75.3268C349.486 75.1722 349.486 75.172 349.515 74.9935C349.531 74.8953 349.595 74.7093 349.656 74.5802C349.727 74.4327 349.913 74.2037 350.157 73.9642C350.371 73.7545 350.948 73.2234 351.439 72.7843C351.931 72.3452 352.353 71.9924 352.377 72.0001Z" fill="black"/>
</g>
<path d="M16 128H376" stroke="black" stroke-opacity="0.8" stroke-width="0.2"/>
<path d="M18.0156 161.078C16.8867 161.078 16.3086 160.289 16.3086 158.781V157.746C16.3086 156.246 16.8906 155.453 18.0078 155.453C18.9922 155.453 19.5859 156.066 19.6133 157.445L18.9375 157.609C18.9258 156.402 18.6094 155.996 18.0156 155.996C17.3438 155.996 17.0195 156.523 17.0195 157.652V158.875C17.0195 160.004 17.3477 160.531 18.0234 160.531C18.6211 160.531 18.957 160.121 18.9727 158.883L19.6641 159.062C19.6289 160.469 18.9961 161.078 18.0156 161.078ZM21.3591 161H20.6794V156.898H21.3747C21.3825 157.137 21.3473 157.32 21.1833 157.84L21.2575 157.871C21.5466 157.098 21.8552 156.836 22.4919 156.793L22.613 157.43C21.613 157.477 21.3591 157.82 21.3591 158.941V161ZM25.3783 159.574L26.0384 159.691C25.9994 160.66 25.4369 161.078 24.6556 161.078C23.7337 161.078 23.2494 160.477 23.2494 159.363V158.535C23.2494 157.422 23.7455 156.82 24.6791 156.82C25.5462 156.82 26.0189 157.363 26.0189 158.367C26.0189 158.59 26.0111 158.871 25.9994 159.098H23.9252V159.441C23.9252 160.219 24.1556 160.598 24.6634 160.598C25.0697 160.598 25.3587 160.34 25.3783 159.574ZM24.6791 157.301C24.1752 157.301 23.9252 157.684 23.9252 158.457V158.594H25.3392V158.273C25.3392 157.617 25.1244 157.301 24.6791 157.301ZM27.792 161.078C27.2256 161.078 26.8975 160.727 26.8975 160.145V160.09C26.8975 159.266 27.4522 158.934 28.1241 158.707L28.7959 158.48V157.961C28.7959 157.512 28.6241 157.297 28.253 157.297C27.7998 157.297 27.6163 157.598 27.6397 158.414L26.9756 158.301C26.9522 157.316 27.3858 156.82 28.2647 156.82C29.0616 156.82 29.4678 157.199 29.4678 157.941V160.203C29.4678 160.508 29.5108 160.547 29.8545 160.566L29.7452 161.066C29.7061 161.074 29.6358 161.078 29.5811 161.078C28.9717 161.078 28.8467 160.793 29.0069 160.113L28.9288 160.094C28.7608 160.734 28.3702 161.078 27.792 161.078ZM28.0186 160.559C28.46 160.559 28.7959 160.148 28.7959 159.523V158.965L28.3545 159.117C27.9131 159.266 27.5889 159.508 27.5889 159.996V160.055C27.5889 160.371 27.7413 160.559 28.0186 160.559ZM31.7722 161.07C31.1628 161.07 30.8503 160.766 30.8503 160.086V157.414H30.3152V156.898H30.8503V155.926L31.53 155.695V156.898H32.5066V157.414H31.53V160.012C31.53 160.379 31.6745 160.516 31.9675 160.516C32.1316 160.516 32.3269 160.469 32.5105 160.383L32.4675 160.906C32.3034 161.004 32.0261 161.07 31.7722 161.07ZM34.1234 156.348H33.3344V155.648H34.1234V156.348ZM34.0688 161H33.3891V156.898H34.0688V161ZM36.4864 161.082C35.5723 161.082 35.0723 160.441 35.0723 159.336V158.562C35.0723 157.453 35.5723 156.816 36.4864 156.816C37.4044 156.816 37.9044 157.453 37.9044 158.562V159.336C37.9044 160.441 37.4005 161.082 36.4864 161.082ZM36.4903 160.594C36.9708 160.594 37.2052 160.207 37.2052 159.402V158.496C37.2052 157.688 36.9708 157.301 36.4903 157.301C36.0059 157.301 35.7716 157.688 35.7716 158.496V159.402C35.7716 160.207 36.0059 160.594 36.4903 160.594ZM39.5837 161H38.9041V156.898H39.5955C39.5916 157.129 39.5447 157.383 39.4041 157.836L39.4783 157.863C39.7439 157.137 40.1267 156.836 40.6619 156.836C41.2556 156.836 41.5642 157.168 41.5642 157.789V161H40.8845V157.918C40.8845 157.543 40.7166 157.336 40.4041 157.336C39.9197 157.336 39.5837 157.918 39.5837 158.75V161ZM44.9581 161H44.2862V155.531H45.1339L46.4855 158.984C46.6183 159.328 46.7003 159.609 46.798 160L46.8761 159.992C46.8292 159.527 46.8019 159.07 46.8019 158.648V155.531H47.4737V161H46.6456L45.3019 157.582C45.1612 157.219 45.0714 156.93 44.9659 156.516L44.8878 156.523C44.9347 156.996 44.9542 157.438 44.9542 157.844L44.9581 161ZM49.3836 161.078C48.8172 161.078 48.4891 160.727 48.4891 160.145V160.09C48.4891 159.266 49.0438 158.934 49.7156 158.707L50.3875 158.48V157.961C50.3875 157.512 50.2156 157.297 49.8445 157.297C49.3914 157.297 49.2078 157.598 49.2313 158.414L48.5672 158.301C48.5438 157.316 48.9773 156.82 49.8563 156.82C50.6531 156.82 51.0594 157.199 51.0594 157.941V160.203C51.0594 160.508 51.1023 160.547 51.4461 160.566L51.3367 161.066C51.2977 161.074 51.2273 161.078 51.1727 161.078C50.5633 161.078 50.4383 160.793 50.5984 160.113L50.5203 160.094C50.3523 160.734 49.9617 161.078 49.3836 161.078ZM49.6102 160.559C50.0516 160.559 50.3875 160.148 50.3875 159.523V158.965L49.9461 159.117C49.5047 159.266 49.1805 159.508 49.1805 159.996V160.055C49.1805 160.371 49.3328 160.559 49.6102 160.559ZM52.9653 161H52.2856V156.898H52.977C52.9848 157.105 52.9419 157.305 52.7856 157.816L52.8598 157.844C53.145 157.105 53.4692 156.836 53.9536 156.836C54.4888 156.836 54.727 157.195 54.5903 157.836L54.6645 157.859C54.9028 157.125 55.2739 156.836 55.7817 156.836C56.3325 156.836 56.5981 157.145 56.5981 157.777V161H55.9184V157.887C55.9184 157.527 55.7778 157.344 55.4927 157.344C55.0473 157.344 54.7856 157.949 54.7856 158.73V161H54.1059V157.895C54.1059 157.539 53.9575 157.34 53.6958 157.34C53.2622 157.34 52.9653 157.922 52.9653 158.75V161ZM59.7111 159.574L60.3713 159.691C60.3322 160.66 59.7697 161.078 58.9884 161.078C58.0666 161.078 57.5822 160.477 57.5822 159.363V158.535C57.5822 157.422 58.0783 156.82 59.0119 156.82C59.8791 156.82 60.3517 157.363 60.3517 158.367C60.3517 158.59 60.3439 158.871 60.3322 159.098H58.258V159.441C58.258 160.219 58.4884 160.598 58.9963 160.598C59.4025 160.598 59.6916 160.34 59.7111 159.574ZM59.0119 157.301C58.508 157.301 58.258 157.684 58.258 158.457V158.594H59.672V158.273C59.672 157.617 59.4572 157.301 59.0119 157.301ZM62.1405 157.723H61.2577V156.898H62.1405V157.723ZM62.1405 161H61.2577V160.176H62.1405V161Z" fill="black"/>
<path d="M17.1367 177H16.4375V171.531H17.8672C18.8516 171.531 19.3594 172.031 19.3594 173.004V173.398C19.3594 174.355 18.8477 174.859 17.8672 174.859H17.1367V177ZM17.1367 172.078V174.312H17.7852C18.3789 174.312 18.6641 174.027 18.6641 173.414V172.984C18.6641 172.363 18.3789 172.078 17.7852 172.078H17.1367ZM20.9528 177H20.2731V172.898H20.9684C20.9762 173.137 20.9411 173.32 20.777 173.84L20.8512 173.871C21.1403 173.098 21.4489 172.836 22.0856 172.793L22.2067 173.43C21.2067 173.477 20.9528 173.82 20.9528 174.941V177ZM24.2533 177.082C23.3392 177.082 22.8392 176.441 22.8392 175.336V174.562C22.8392 173.453 23.3392 172.816 24.2533 172.816C25.1712 172.816 25.6712 173.453 25.6712 174.562V175.336C25.6712 176.441 25.1673 177.082 24.2533 177.082ZM24.2572 176.594C24.7377 176.594 24.972 176.207 24.972 175.402V174.496C24.972 173.688 24.7377 173.301 24.2572 173.301C23.7728 173.301 23.5384 173.688 23.5384 174.496V175.402C23.5384 176.207 23.7728 176.594 24.2572 176.594ZM27.6788 177.062C26.9444 177.062 26.5498 176.48 26.5498 175.387V174.512C26.5498 173.418 26.9444 172.836 27.6748 172.836C28.2647 172.836 28.6084 173.195 28.7881 173.793L28.8663 173.762C28.7295 173.297 28.6827 172.977 28.6827 172.633V171.531H29.3623V177H28.6983C28.6983 176.828 28.753 176.555 28.8702 176.133L28.792 176.109C28.5967 176.727 28.2569 177.062 27.6788 177.062ZM27.917 176.586C28.4092 176.586 28.6827 176.117 28.6827 175.262V174.641C28.6827 173.785 28.4092 173.309 27.917 173.309C27.4639 173.309 27.2413 173.699 27.2413 174.504V175.398C27.2413 176.199 27.4639 176.586 27.917 176.586ZM32.448 172.898H33.1277V177H32.4362C32.4441 176.77 32.487 176.516 32.6277 176.062L32.5534 176.035C32.2917 176.762 31.905 177.062 31.3698 177.062C30.78 177.062 30.4675 176.73 30.4675 176.109V172.898H31.1511V175.98C31.1511 176.355 31.3191 176.562 31.6277 176.562C32.112 176.562 32.448 175.98 32.448 175.148V172.898ZM35.5375 177.078C34.6117 177.078 34.1313 176.457 34.1313 175.289V174.566C34.1313 173.422 34.6234 172.82 35.5492 172.82C36.35 172.82 36.8461 173.285 36.8734 174.332L36.1938 174.441C36.1781 173.602 35.9711 173.301 35.5414 173.301C35.0609 173.301 34.8266 173.688 34.8266 174.488V175.363C34.8266 176.195 35.0609 176.594 35.5453 176.594C35.975 176.594 36.1977 176.312 36.2133 175.477L36.9086 175.586C36.8734 176.641 36.3422 177.082 35.5375 177.078ZM39.0059 177.07C38.3966 177.07 38.0841 176.766 38.0841 176.086V173.414H37.5489V172.898H38.0841V171.926L38.7638 171.695V172.898H39.7403V173.414H38.7638V176.012C38.7638 176.379 38.9083 176.516 39.2013 176.516C39.3653 176.516 39.5606 176.469 39.7442 176.383L39.7013 176.906C39.5372 177.004 39.2598 177.07 39.0059 177.07ZM41.3572 172.348H40.5681V171.648H41.3572V172.348ZM41.3025 177H40.6228V172.898H41.3025V177ZM43.7202 177.082C42.8061 177.082 42.3061 176.441 42.3061 175.336V174.562C42.3061 173.453 42.8061 172.816 43.7202 172.816C44.6381 172.816 45.1381 173.453 45.1381 174.562V175.336C45.1381 176.441 44.6342 177.082 43.7202 177.082ZM43.7241 176.594C44.2045 176.594 44.4389 176.207 44.4389 175.402V174.496C44.4389 173.688 44.2045 173.301 43.7241 173.301C43.2397 173.301 43.0053 173.688 43.0053 174.496V175.402C43.0053 176.207 43.2397 176.594 43.7241 176.594ZM46.8175 177H46.1378V172.898H46.8292C46.8253 173.129 46.7784 173.383 46.6378 173.836L46.712 173.863C46.9777 173.137 47.3605 172.836 47.8956 172.836C48.4894 172.836 48.798 173.168 48.798 173.789V177H48.1183V173.918C48.1183 173.543 47.9503 173.336 47.6378 173.336C47.1534 173.336 46.8175 173.918 46.8175 174.75V177ZM52.852 177H51.52V171.531H52.852C54.102 171.531 54.7036 172.273 54.7036 173.801V174.738C54.7036 176.262 54.102 177 52.852 177ZM52.2192 172.082V176.445H52.8286C53.6411 176.445 53.9888 175.969 53.9888 174.859V173.68C53.9888 172.562 53.6411 172.082 52.8286 172.082H52.2192ZM56.4845 177.078C55.9181 177.078 55.59 176.727 55.59 176.145V176.09C55.59 175.266 56.1447 174.934 56.8166 174.707L57.4884 174.48V173.961C57.4884 173.512 57.3166 173.297 56.9455 173.297C56.4923 173.297 56.3088 173.598 56.3322 174.414L55.6681 174.301C55.6447 173.316 56.0783 172.82 56.9572 172.82C57.7541 172.82 58.1603 173.199 58.1603 173.941V176.203C58.1603 176.508 58.2033 176.547 58.547 176.566L58.4377 177.066C58.3986 177.074 58.3283 177.078 58.2736 177.078C57.6642 177.078 57.5392 176.793 57.6994 176.113L57.6213 176.094C57.4533 176.734 57.0627 177.078 56.4845 177.078ZM56.7111 176.559C57.1525 176.559 57.4884 176.148 57.4884 175.523V174.965L57.047 175.117C56.6056 175.266 56.2814 175.508 56.2814 175.996V176.055C56.2814 176.371 56.4338 176.559 56.7111 176.559ZM60.4647 177.07C59.8553 177.07 59.5428 176.766 59.5428 176.086V173.414H59.0077V172.898H59.5428V171.926L60.2225 171.695V172.898H61.1991V173.414H60.2225V176.012C60.2225 176.379 60.367 176.516 60.66 176.516C60.8241 176.516 61.0194 176.469 61.203 176.383L61.16 176.906C60.9959 177.004 60.7186 177.07 60.4647 177.07ZM64.0542 175.574L64.7144 175.691C64.6753 176.66 64.1128 177.078 63.3316 177.078C62.4097 177.078 61.9253 176.477 61.9253 175.363V174.535C61.9253 173.422 62.4214 172.82 63.355 172.82C64.2222 172.82 64.6948 173.363 64.6948 174.367C64.6948 174.59 64.687 174.871 64.6753 175.098H62.6011V175.441C62.6011 176.219 62.8316 176.598 63.3394 176.598C63.7456 176.598 64.0347 176.34 64.0542 175.574ZM63.355 173.301C62.8511 173.301 62.6011 173.684 62.6011 174.457V174.594H64.0152V174.273C64.0152 173.617 63.8003 173.301 63.355 173.301ZM66.4836 173.723H65.6008V172.898H66.4836V173.723ZM66.4836 177H65.6008V176.176H66.4836V177Z" fill="black"/>
<path d="M19.0273 193H16.4375V187.531H18.957V188.098H17.1367V189.84H18.7969V190.359H17.1367V192.43H19.0273V193ZM20.945 193.062C20.2106 193.062 19.8161 192.48 19.8161 191.387V190.512C19.8161 189.418 20.2106 188.836 20.9411 188.836C21.5309 188.836 21.8747 189.195 22.0544 189.793L22.1325 189.762C21.9958 189.297 21.9489 188.977 21.9489 188.633V187.531H22.6286V193H21.9645C21.9645 192.828 22.0192 192.555 22.1364 192.133L22.0583 192.109C21.863 192.727 21.5231 193.062 20.945 193.062ZM21.1833 192.586C21.6755 192.586 21.9489 192.117 21.9489 191.262V190.641C21.9489 189.785 21.6755 189.309 21.1833 189.309C20.7302 189.309 20.5075 189.699 20.5075 190.504V191.398C20.5075 192.199 20.7302 192.586 21.1833 192.586ZM24.4837 188.348H23.6947V187.648H24.4837V188.348ZM24.4291 193H23.7494V188.898H24.4291V193ZM26.7413 193.07C26.1319 193.07 25.8194 192.766 25.8194 192.086V189.414H25.2842V188.898H25.8194V187.926L26.4991 187.695V188.898H27.4756V189.414H26.4991V192.012C26.4991 192.379 26.6436 192.516 26.9366 192.516C27.1006 192.516 27.2959 192.469 27.4795 192.383L27.4366 192.906C27.2725 193.004 26.9952 193.07 26.7413 193.07ZM29.0925 188.348H28.3034V187.648H29.0925V188.348ZM29.0378 193H28.3581V188.898H29.0378V193ZM31.4555 193.082C30.5414 193.082 30.0414 192.441 30.0414 191.336V190.562C30.0414 189.453 30.5414 188.816 31.4555 188.816C32.3734 188.816 32.8734 189.453 32.8734 190.562V191.336C32.8734 192.441 32.3695 193.082 31.4555 193.082ZM31.4594 192.594C31.9398 192.594 32.1742 192.207 32.1742 191.402V190.496C32.1742 189.688 31.9398 189.301 31.4594 189.301C30.975 189.301 30.7406 189.688 30.7406 190.496V191.402C30.7406 192.207 30.975 192.594 31.4594 192.594ZM34.5528 193H33.8731V188.898H34.5645C34.5606 189.129 34.5138 189.383 34.3731 189.836L34.4473 189.863C34.713 189.137 35.0958 188.836 35.6309 188.836C36.2247 188.836 36.5333 189.168 36.5333 189.789V193H35.8536V189.918C35.8536 189.543 35.6856 189.336 35.3731 189.336C34.8888 189.336 34.5528 189.918 34.5528 190.75V193ZM39.9272 193H39.2553V187.531H40.103L41.4545 190.984C41.5873 191.328 41.6694 191.609 41.767 192L41.8452 191.992C41.7983 191.527 41.7709 191.07 41.7709 190.648V187.531H42.4428V193H41.6147L40.2709 189.582C40.1303 189.219 40.0405 188.93 39.935 188.516L39.8569 188.523C39.9037 188.996 39.9233 189.438 39.9233 189.844L39.9272 193ZM45.5636 188.898H46.2433V193H45.5519C45.5597 192.77 45.6027 192.516 45.7433 192.062L45.6691 192.035C45.4073 192.762 45.0206 193.062 44.4855 193.062C43.8956 193.062 43.5831 192.73 43.5831 192.109V188.898H44.2667V191.98C44.2667 192.355 44.4347 192.562 44.7433 192.562C45.2277 192.562 45.5636 191.98 45.5636 191.148V188.898ZM48.0438 193H47.3641V188.898H48.0555C48.0633 189.105 48.0203 189.305 47.8641 189.816L47.9383 189.844C48.2234 189.105 48.5477 188.836 49.032 188.836C49.5672 188.836 49.8055 189.195 49.6688 189.836L49.743 189.859C49.9813 189.125 50.3523 188.836 50.8602 188.836C51.4109 188.836 51.6766 189.145 51.6766 189.777V193H50.9969V189.887C50.9969 189.527 50.8563 189.344 50.5711 189.344C50.1258 189.344 49.8641 189.949 49.8641 190.73V193H49.1844V189.895C49.1844 189.539 49.0359 189.34 48.7742 189.34C48.3406 189.34 48.0438 189.922 48.0438 190.75V193ZM54.4653 193.062C53.8833 193.062 53.5473 192.727 53.352 192.109L53.2739 192.133C53.3911 192.555 53.4419 192.828 53.4419 193H52.7778V187.531H53.4575V188.633C53.4575 188.977 53.4106 189.297 53.2778 189.762L53.3559 189.793C53.5317 189.195 53.8794 188.836 54.4692 188.836C55.1958 188.836 55.5903 189.418 55.5903 190.512V191.387C55.5903 192.48 55.1958 193.062 54.4653 193.062ZM54.2231 192.586C54.6763 192.586 54.8989 192.199 54.8989 191.398V190.504C54.8989 189.699 54.6763 189.309 54.2231 189.309C53.7309 189.309 53.4575 189.785 53.4575 190.641V191.262C53.4575 192.117 53.7309 192.586 54.2231 192.586ZM58.6017 191.574L59.2619 191.691C59.2228 192.66 58.6603 193.078 57.8791 193.078C56.9572 193.078 56.4728 192.477 56.4728 191.363V190.535C56.4728 189.422 56.9689 188.82 57.9025 188.82C58.7697 188.82 59.2423 189.363 59.2423 190.367C59.2423 190.59 59.2345 190.871 59.2228 191.098H57.1486V191.441C57.1486 192.219 57.3791 192.598 57.8869 192.598C58.2931 192.598 58.5822 192.34 58.6017 191.574ZM57.9025 189.301C57.3986 189.301 57.1486 189.684 57.1486 190.457V190.594H58.5627V190.273C58.5627 189.617 58.3478 189.301 57.9025 189.301ZM60.9412 193H60.2616V188.898H60.9569C60.9647 189.137 60.9295 189.32 60.7655 189.84L60.8397 189.871C61.1287 189.098 61.4373 188.836 62.0741 188.793L62.1952 189.43C61.1952 189.477 60.9412 189.82 60.9412 190.941V193ZM63.898 189.723H63.0152V188.898H63.898V189.723ZM63.898 193H63.0152V192.176H63.898V193Z" fill="black"/>
<path d="M17.0938 209H16.4375V203.531H17.375L18.2031 206.578C18.3203 207.004 18.4062 207.418 18.4805 207.953H18.5586C18.6406 207.418 18.7227 207 18.8359 206.578L19.6562 203.531H20.6055V209H19.918V205.984C19.918 205.539 19.9336 205.137 19.9805 204.59L19.9023 204.582L18.7773 209H18.2422L17.1211 204.578L17.043 204.586C17.082 205.133 17.0938 205.539 17.0938 205.984V209ZM23.0505 209.082C22.1364 209.082 21.6364 208.441 21.6364 207.336V206.562C21.6364 205.453 22.1364 204.816 23.0505 204.816C23.9684 204.816 24.4684 205.453 24.4684 206.562V207.336C24.4684 208.441 23.9645 209.082 23.0505 209.082ZM23.0544 208.594C23.5348 208.594 23.7692 208.207 23.7692 207.402V206.496C23.7692 205.688 23.5348 205.301 23.0544 205.301C22.57 205.301 22.3356 205.688 22.3356 206.496V207.402C22.3356 208.207 22.57 208.594 23.0544 208.594ZM26.4759 209.062C25.7416 209.062 25.347 208.48 25.347 207.387V206.512C25.347 205.418 25.7416 204.836 26.472 204.836C27.0619 204.836 27.4056 205.195 27.5853 205.793L27.6634 205.762C27.5267 205.297 27.4798 204.977 27.4798 204.633V203.531H28.1595V209H27.4955C27.4955 208.828 27.5502 208.555 27.6673 208.133L27.5892 208.109C27.3939 208.727 27.0541 209.062 26.4759 209.062ZM26.7142 208.586C27.2064 208.586 27.4798 208.117 27.4798 207.262V206.641C27.4798 205.785 27.2064 205.309 26.7142 205.309C26.2611 205.309 26.0384 205.699 26.0384 206.504V207.398C26.0384 208.199 26.2611 208.586 26.7142 208.586ZM31.292 207.574L31.9522 207.691C31.9131 208.66 31.3506 209.078 30.5694 209.078C29.6475 209.078 29.1631 208.477 29.1631 207.363V206.535C29.1631 205.422 29.6592 204.82 30.5928 204.82C31.46 204.82 31.9327 205.363 31.9327 206.367C31.9327 206.59 31.9248 206.871 31.9131 207.098H29.8389V207.441C29.8389 208.219 30.0694 208.598 30.5772 208.598C30.9834 208.598 31.2725 208.34 31.292 207.574ZM30.5928 205.301C30.0889 205.301 29.8389 205.684 29.8389 206.457V206.594H31.253V206.273C31.253 205.617 31.0381 205.301 30.5928 205.301ZM33.6316 209H32.9519V203.531H33.6316V209ZM37.9513 209.078C36.8223 209.078 36.2442 208.289 36.2442 206.781V205.746C36.2442 204.246 36.8263 203.453 37.9434 203.453C38.9278 203.453 39.5216 204.066 39.5489 205.445L38.8731 205.609C38.8614 204.402 38.545 203.996 37.9513 203.996C37.2794 203.996 36.9552 204.523 36.9552 205.652V206.875C36.9552 208.004 37.2833 208.531 37.9591 208.531C38.5567 208.531 38.8927 208.121 38.9083 206.883L39.5997 207.062C39.5645 208.469 38.9317 209.078 37.9513 209.078ZM41.908 209.082C40.9939 209.082 40.4939 208.441 40.4939 207.336V206.562C40.4939 205.453 40.9939 204.816 41.908 204.816C42.8259 204.816 43.3259 205.453 43.3259 206.562V207.336C43.3259 208.441 42.822 209.082 41.908 209.082ZM41.9119 208.594C42.3923 208.594 42.6267 208.207 42.6267 207.402V206.496C42.6267 205.688 42.3923 205.301 41.9119 205.301C41.4275 205.301 41.1931 205.688 41.1931 206.496V207.402C41.1931 208.207 41.4275 208.594 41.9119 208.594ZM45.3334 209.062C44.5991 209.062 44.2045 208.48 44.2045 207.387V206.512C44.2045 205.418 44.5991 204.836 45.3295 204.836C45.9194 204.836 46.2631 205.195 46.4428 205.793L46.5209 205.762C46.3842 205.297 46.3373 204.977 46.3373 204.633V203.531H47.017V209H46.353C46.353 208.828 46.4077 208.555 46.5248 208.133L46.4467 208.109C46.2514 208.727 45.9116 209.062 45.3334 209.062ZM45.5717 208.586C46.0639 208.586 46.3373 208.117 46.3373 207.262V206.641C46.3373 205.785 46.0639 205.309 45.5717 205.309C45.1186 205.309 44.8959 205.699 44.8959 206.504V207.398C44.8959 208.199 45.1186 208.586 45.5717 208.586ZM50.1495 207.574L50.8097 207.691C50.7706 208.66 50.2081 209.078 49.4269 209.078C48.505 209.078 48.0206 208.477 48.0206 207.363V206.535C48.0206 205.422 48.5167 204.82 49.4503 204.82C50.3175 204.82 50.7902 205.363 50.7902 206.367C50.7902 206.59 50.7823 206.871 50.7706 207.098H48.6964V207.441C48.6964 208.219 48.9269 208.598 49.4347 208.598C49.8409 208.598 50.13 208.34 50.1495 207.574ZM49.4503 205.301C48.9464 205.301 48.6964 205.684 48.6964 206.457V206.594H50.1105V206.273C50.1105 205.617 49.8956 205.301 49.4503 205.301ZM52.5789 205.723H51.6961V204.898H52.5789V205.723ZM52.5789 209H51.6961V208.176H52.5789V209Z" fill="black"/>
<path d="M17.9922 225.082C16.9492 225.082 16.4219 224.594 16.4219 223.605V219.531H17.1211V223.555C17.1211 224.219 17.4102 224.535 17.9922 224.535C18.5742 224.535 18.8633 224.219 18.8633 223.555V219.531H19.5625V223.605C19.5625 224.594 19.0352 225.082 17.9922 225.082ZM21.3825 225H20.7028V220.898H21.3942C21.3903 221.129 21.3434 221.383 21.2028 221.836L21.277 221.863C21.5427 221.137 21.9255 220.836 22.4606 220.836C23.0544 220.836 23.363 221.168 23.363 221.789V225H22.6833V221.918C22.6833 221.543 22.5153 221.336 22.2028 221.336C21.7184 221.336 21.3825 221.918 21.3825 222.75V225ZM25.2025 220.348H24.4134V219.648H25.2025V220.348ZM25.1478 225H24.4681V220.898H25.1478V225ZM27.2803 220.836C27.8584 220.836 28.1983 221.172 28.3936 221.789L28.4717 221.766C28.3545 221.344 28.2998 221.07 28.2998 220.898H28.9639V226.367H28.2842V225.266C28.2842 224.922 28.3311 224.602 28.4678 224.137L28.3897 224.105C28.21 224.703 27.8663 225.062 27.2764 225.062C26.5459 225.062 26.1514 224.48 26.1514 223.387V222.512C26.1514 221.418 26.5459 220.836 27.2803 220.836ZM27.5186 221.312C27.0655 221.312 26.8428 221.699 26.8428 222.5V223.395C26.8428 224.199 27.0655 224.59 27.5186 224.59C28.0108 224.59 28.2842 224.113 28.2842 223.258V222.637C28.2842 221.781 28.0108 221.312 27.5186 221.312ZM32.0495 220.898H32.7292V225H32.0378C32.0456 224.77 32.0886 224.516 32.2292 224.062L32.155 224.035C31.8933 224.762 31.5066 225.062 30.9714 225.062C30.3816 225.062 30.0691 224.73 30.0691 224.109V220.898H30.7527V223.98C30.7527 224.355 30.9206 224.562 31.2292 224.562C31.7136 224.562 32.0495 223.98 32.0495 223.148V220.898ZM35.8617 223.574L36.5219 223.691C36.4828 224.66 35.9203 225.078 35.1391 225.078C34.2172 225.078 33.7328 224.477 33.7328 223.363V222.535C33.7328 221.422 34.2289 220.82 35.1625 220.82C36.0297 220.82 36.5023 221.363 36.5023 222.367C36.5023 222.59 36.4945 222.871 36.4828 223.098H34.4086V223.441C34.4086 224.219 34.6391 224.598 35.1469 224.598C35.5531 224.598 35.8422 224.34 35.8617 223.574ZM35.1625 221.301C34.6586 221.301 34.4086 221.684 34.4086 222.457V222.594H35.8227V222.273C35.8227 221.617 35.6078 221.301 35.1625 221.301ZM39.8377 225H39.1384V219.531H39.8377V225ZM42.3686 225H41.0366V219.531H42.3686C43.6186 219.531 44.2202 220.273 44.2202 221.801V222.738C44.2202 224.262 43.6186 225 42.3686 225ZM41.7358 220.082V224.445H42.3452C43.1577 224.445 43.5053 223.969 43.5053 222.859V221.68C43.5053 220.562 43.1577 220.082 42.3452 220.082H41.7358ZM46.0167 221.723H45.1339V220.898H46.0167V221.723ZM46.0167 225H45.1339V224.176H46.0167V225Z" fill="black"/>
<path d="M108.844 161.781H107.438V155.336H108.844V155.898H108.117V161.219H108.844V161.781ZM110.418 161H109.718V155.531H111.148C112.132 155.531 112.64 156.031 112.64 157.004V157.398C112.64 158.355 112.129 158.859 111.148 158.859H110.418V161ZM110.418 156.078V158.312H111.066C111.66 158.312 111.945 158.027 111.945 157.414V156.984C111.945 156.363 111.66 156.078 111.066 156.078H110.418ZM114.234 161H113.554V156.898H114.249C114.257 157.137 114.222 157.32 114.058 157.84L114.132 157.871C114.421 157.098 114.73 156.836 115.367 156.793L115.488 157.43C114.488 157.477 114.234 157.82 114.234 158.941V161ZM117.534 161.082C116.62 161.082 116.12 160.441 116.12 159.336V158.562C116.12 157.453 116.62 156.816 117.534 156.816C118.452 156.816 118.952 157.453 118.952 158.562V159.336C118.952 160.441 118.448 161.082 117.534 161.082ZM117.538 160.594C118.019 160.594 118.253 160.207 118.253 159.402V158.496C118.253 157.688 118.019 157.301 117.538 157.301C117.054 157.301 116.819 157.688 116.819 158.496V159.402C116.819 160.207 117.054 160.594 117.538 160.594ZM120.96 161.062C120.225 161.062 119.831 160.48 119.831 159.387V158.512C119.831 157.418 120.225 156.836 120.956 156.836C121.546 156.836 121.889 157.195 122.069 157.793L122.147 157.762C122.01 157.297 121.964 156.977 121.964 156.633V155.531H122.643V161H121.979C121.979 160.828 122.034 160.555 122.151 160.133L122.073 160.109C121.878 160.727 121.538 161.062 120.96 161.062ZM121.198 160.586C121.69 160.586 121.964 160.117 121.964 159.262V158.641C121.964 157.785 121.69 157.309 121.198 157.309C120.745 157.309 120.522 157.699 120.522 158.504V159.398C120.522 160.199 120.745 160.586 121.198 160.586ZM125.729 156.898H126.409V161H125.717C125.725 160.77 125.768 160.516 125.909 160.062L125.834 160.035C125.573 160.762 125.186 161.062 124.651 161.062C124.061 161.062 123.748 160.73 123.748 160.109V156.898H124.432V159.98C124.432 160.355 124.6 160.562 124.909 160.562C125.393 160.562 125.729 159.98 125.729 159.148V156.898ZM128.818 161.078C127.893 161.078 127.412 160.457 127.412 159.289V158.566C127.412 157.422 127.904 156.82 128.83 156.82C129.631 156.82 130.127 157.285 130.154 158.332L129.475 158.441C129.459 157.602 129.252 157.301 128.822 157.301C128.342 157.301 128.108 157.688 128.108 158.488V159.363C128.108 160.195 128.342 160.594 128.826 160.594C129.256 160.594 129.479 160.312 129.494 159.477L130.19 159.586C130.154 160.641 129.623 161.082 128.818 161.078ZM132.287 161.07C131.677 161.07 131.365 160.766 131.365 160.086V157.414H130.83V156.898H131.365V155.926L132.045 155.695V156.898H133.021V157.414H132.045V160.012C132.045 160.379 132.189 160.516 132.482 160.516C132.646 160.516 132.842 160.469 133.025 160.383L132.982 160.906C132.818 161.004 132.541 161.07 132.287 161.07ZM136.192 161H135.521V155.531H136.368L137.72 158.984C137.853 159.328 137.935 159.609 138.032 160L138.11 159.992C138.064 159.527 138.036 159.07 138.036 158.648V155.531H138.708V161H137.88L136.536 157.582C136.396 157.219 136.306 156.93 136.2 156.516L136.122 156.523C136.169 156.996 136.189 157.438 136.189 157.844L136.192 161ZM140.618 161.078C140.052 161.078 139.723 160.727 139.723 160.145V160.09C139.723 159.266 140.278 158.934 140.95 158.707L141.622 158.48V157.961C141.622 157.512 141.45 157.297 141.079 157.297C140.626 157.297 140.442 157.598 140.466 158.414L139.802 158.301C139.778 157.316 140.212 156.82 141.091 156.82C141.888 156.82 142.294 157.199 142.294 157.941V160.203C142.294 160.508 142.337 160.547 142.68 160.566L142.571 161.066C142.532 161.074 142.462 161.078 142.407 161.078C141.798 161.078 141.673 160.793 141.833 160.113L141.755 160.094C141.587 160.734 141.196 161.078 140.618 161.078ZM140.845 160.559C141.286 160.559 141.622 160.148 141.622 159.523V158.965L141.18 159.117C140.739 159.266 140.415 159.508 140.415 159.996V160.055C140.415 160.371 140.567 160.559 140.845 160.559ZM144.2 161H143.52V156.898H144.211C144.219 157.105 144.176 157.305 144.02 157.816L144.094 157.844C144.379 157.105 144.704 156.836 145.188 156.836C145.723 156.836 145.961 157.195 145.825 157.836L145.899 157.859C146.137 157.125 146.508 156.836 147.016 156.836C147.567 156.836 147.833 157.145 147.833 157.777V161H147.153V157.887C147.153 157.527 147.012 157.344 146.727 157.344C146.282 157.344 146.02 157.949 146.02 158.73V161H145.34V157.895C145.34 157.539 145.192 157.34 144.93 157.34C144.497 157.34 144.2 157.922 144.2 158.75V161ZM150.945 159.574L151.606 159.691C151.567 160.66 151.004 161.078 150.223 161.078C149.301 161.078 148.817 160.477 148.817 159.363V158.535C148.817 157.422 149.313 156.82 150.246 156.82C151.113 156.82 151.586 157.363 151.586 158.367C151.586 158.59 151.578 158.871 151.567 159.098H149.492V159.441C149.492 160.219 149.723 160.598 150.231 160.598C150.637 160.598 150.926 160.34 150.945 159.574ZM150.246 157.301C149.742 157.301 149.492 157.684 149.492 158.457V158.594H150.906V158.273C150.906 157.617 150.692 157.301 150.246 157.301ZM154.453 161.781H153.785L155.25 155.336H155.917L154.453 161.781ZM159.831 161.078C158.702 161.078 158.124 160.289 158.124 158.781V157.746C158.124 156.246 158.706 155.453 159.823 155.453C160.807 155.453 161.401 156.066 161.429 157.445L160.753 157.609C160.741 156.402 160.425 155.996 159.831 155.996C159.159 155.996 158.835 156.523 158.835 157.652V158.875C158.835 160.004 159.163 160.531 159.839 160.531C160.436 160.531 160.772 160.121 160.788 158.883L161.479 159.062C161.444 160.469 160.811 161.078 159.831 161.078ZM163.788 161.082C162.874 161.082 162.374 160.441 162.374 159.336V158.562C162.374 157.453 162.874 156.816 163.788 156.816C164.706 156.816 165.206 157.453 165.206 158.562V159.336C165.206 160.441 164.702 161.082 163.788 161.082ZM163.792 160.594C164.272 160.594 164.506 160.207 164.506 159.402V158.496C164.506 157.688 164.272 157.301 163.792 157.301C163.307 157.301 163.073 157.688 163.073 158.496V159.402C163.073 160.207 163.307 160.594 163.792 160.594ZM166.885 161H166.205V155.531H166.885V161ZM168.689 161H168.01V155.531H168.689V161ZM171.826 159.574L172.486 159.691C172.447 160.66 171.884 161.078 171.103 161.078C170.181 161.078 169.697 160.477 169.697 159.363V158.535C169.697 157.422 170.193 156.82 171.127 156.82C171.994 156.82 172.466 157.363 172.466 158.367C172.466 158.59 172.459 158.871 172.447 159.098H170.373V159.441C170.373 160.219 170.603 160.598 171.111 160.598C171.517 160.598 171.806 160.34 171.826 159.574ZM171.127 157.301C170.623 157.301 170.373 157.684 170.373 158.457V158.594H171.787V158.273C171.787 157.617 171.572 157.301 171.127 157.301ZM174.775 161.078C173.849 161.078 173.368 160.457 173.368 159.289V158.566C173.368 157.422 173.861 156.82 174.786 156.82C175.587 156.82 176.083 157.285 176.111 158.332L175.431 158.441C175.415 157.602 175.208 157.301 174.779 157.301C174.298 157.301 174.064 157.688 174.064 158.488V159.363C174.064 160.195 174.298 160.594 174.783 160.594C175.212 160.594 175.435 160.312 175.45 159.477L176.146 159.586C176.111 160.641 175.579 161.082 174.775 161.078ZM178.243 161.07C177.634 161.07 177.321 160.766 177.321 160.086V157.414H176.786V156.898H177.321V155.926L178.001 155.695V156.898H178.978V157.414H178.001V160.012C178.001 160.379 178.145 160.516 178.438 160.516C178.603 160.516 178.798 160.469 178.981 160.383L178.938 160.906C178.774 161.004 178.497 161.07 178.243 161.07ZM180.594 156.348H179.805V155.648H180.594V156.348ZM180.54 161H179.86V156.898H180.54V161ZM182.957 161.082C182.043 161.082 181.543 160.441 181.543 159.336V158.562C181.543 157.453 182.043 156.816 182.957 156.816C183.875 156.816 184.375 157.453 184.375 158.562V159.336C184.375 160.441 183.871 161.082 182.957 161.082ZM182.961 160.594C183.442 160.594 183.676 160.207 183.676 159.402V158.496C183.676 157.688 183.442 157.301 182.961 157.301C182.477 157.301 182.243 157.688 182.243 158.496V159.402C182.243 160.207 182.477 160.594 182.961 160.594ZM186.055 161H185.375V156.898H186.066C186.062 157.129 186.016 157.383 185.875 157.836L185.949 157.863C186.215 157.137 186.598 156.836 187.133 156.836C187.727 156.836 188.035 157.168 188.035 157.789V161H187.355V157.918C187.355 157.543 187.188 157.336 186.875 157.336C186.391 157.336 186.055 157.918 186.055 158.75V161ZM188.754 155.336H190.16V161.781H188.754V161.219H189.48V155.898H188.754V155.336Z" fill="black"/>
<path d="M108.844 177.781H107.438V171.336H108.844V171.898H108.117V177.219H108.844V177.781ZM110.375 177H109.718V171.531H110.656L111.484 174.578C111.601 175.004 111.687 175.418 111.761 175.953H111.84C111.922 175.418 112.004 175 112.117 174.578L112.937 171.531H113.886V177H113.199V173.984C113.199 173.539 113.215 173.137 113.261 172.59L113.183 172.582L112.058 177H111.523L110.402 172.578L110.324 172.586C110.363 173.133 110.375 173.539 110.375 173.984V177ZM115.734 177H115.077V171.531H116.015L116.843 174.578C116.96 175.004 117.046 175.418 117.12 175.953H117.199C117.281 175.418 117.363 175 117.476 174.578L118.296 171.531H119.245V177H118.558V173.984C118.558 173.539 118.574 173.137 118.62 172.59L118.542 172.582L117.417 177H116.882L115.761 172.578L115.683 172.586C115.722 173.133 115.734 173.539 115.734 173.984V177ZM121.167 177H120.284V176.176H121.167V177ZM123.542 177H122.21V171.531H123.542C124.792 171.531 125.393 172.273 125.393 173.801V174.738C125.393 176.262 124.792 177 123.542 177ZM122.909 172.082V176.445H123.518C124.331 176.445 124.678 175.969 124.678 174.859V173.68C124.678 172.562 124.331 172.082 123.518 172.082H122.909ZM127.791 177H126.459V171.531H127.791C129.041 171.531 129.643 172.273 129.643 173.801V174.738C129.643 176.262 129.041 177 127.791 177ZM127.159 172.082V176.445H127.768C128.58 176.445 128.928 175.969 128.928 174.859V173.68C128.928 172.562 128.58 172.082 127.768 172.082H127.159ZM131.291 177H130.408V176.176H131.291V177ZM133.51 177H132.806V174.797L131.459 171.531H132.205L132.818 173.07C132.943 173.383 133.033 173.68 133.135 174.07H133.213C133.318 173.68 133.412 173.391 133.533 173.078L134.146 171.531H134.861L133.51 174.797V177ZM137.47 177H136.767V174.797L135.419 171.531H136.165L136.779 173.07C136.904 173.383 136.994 173.68 137.095 174.07H137.173C137.279 173.68 137.372 173.391 137.494 173.078L138.107 171.531H138.822L137.47 174.797V177ZM141.431 177H140.728V174.797L139.38 171.531H140.126L140.739 173.07C140.864 173.383 140.954 173.68 141.056 174.07H141.134C141.239 173.68 141.333 173.391 141.454 173.078L142.068 171.531H142.782L141.431 174.797V177ZM145.391 177H144.688V174.797L143.341 171.531H144.087L144.7 173.07C144.825 173.383 144.915 173.68 145.016 174.07H145.095C145.2 173.68 145.294 173.391 145.415 173.078L146.028 171.531H146.743L145.391 174.797V177ZM147.243 171.336H148.649V177.781H147.243V177.219H147.969V171.898H147.243V171.336Z" fill="black"/>
<path d="M108.844 193.781H107.438V187.336H108.844V187.898H108.117V193.219H108.844V193.781ZM111.074 193.082C109.996 193.082 109.433 192.289 109.433 190.785V189.75C109.433 188.242 109.996 187.449 111.074 187.449C112.152 187.449 112.715 188.242 112.715 189.75V190.785C112.715 192.289 112.152 193.082 111.074 193.082ZM111.074 192.539C111.703 192.539 112.004 192.004 112.004 190.875V189.656C112.004 188.523 111.703 187.988 111.074 187.988C110.449 187.988 110.144 188.523 110.144 189.656V190.875C110.144 192.004 110.449 192.539 111.074 192.539ZM115.292 193.082C114.214 193.082 113.652 192.289 113.652 190.785V189.75C113.652 188.242 114.214 187.449 115.292 187.449C116.37 187.449 116.933 188.242 116.933 189.75V190.785C116.933 192.289 116.37 193.082 115.292 193.082ZM115.292 192.539C115.921 192.539 116.222 192.004 116.222 190.875V189.656C116.222 188.523 115.921 187.988 115.292 187.988C114.667 187.988 114.363 188.523 114.363 189.656V190.875C114.363 192.004 114.667 192.539 115.292 192.539ZM119.511 193.082C118.433 193.082 117.87 192.289 117.87 190.785V189.75C117.87 188.242 118.433 187.449 119.511 187.449C120.589 187.449 121.151 188.242 121.151 189.75V190.785C121.151 192.289 120.589 193.082 119.511 193.082ZM119.511 192.539C120.14 192.539 120.44 192.004 120.44 190.875V189.656C120.44 188.523 120.14 187.988 119.511 187.988C118.886 187.988 118.581 188.523 118.581 189.656V190.875C118.581 192.004 118.886 192.539 119.511 192.539ZM121.745 187.336H123.151V193.781H121.745V193.219H122.471V187.898H121.745V187.336ZM127.557 193.082C126.4 193.082 125.791 192.285 125.791 190.777V189.754C125.791 188.246 126.4 187.449 127.557 187.449C128.717 187.449 129.326 188.246 129.326 189.754V190.777C129.326 192.285 128.717 193.082 127.557 193.082ZM127.561 192.531C128.268 192.531 128.611 191.992 128.611 190.879V189.672C128.611 188.543 128.268 188 127.557 188C126.85 188 126.506 188.543 126.506 189.672V190.879C126.506 191.992 126.85 192.531 127.561 192.531ZM131.095 193H130.396V187.531H132.865V188.098H131.095V189.887H132.701V190.426H131.095V193ZM136.825 193.781H135.419V187.336H136.825V187.898H136.099V193.219H136.825V193.781ZM139.055 193.082C137.977 193.082 137.415 192.289 137.415 190.785V189.75C137.415 188.242 137.977 187.449 139.055 187.449C140.134 187.449 140.696 188.242 140.696 189.75V190.785C140.696 192.289 140.134 193.082 139.055 193.082ZM139.055 192.539C139.684 192.539 139.985 192.004 139.985 190.875V189.656C139.985 188.523 139.684 187.988 139.055 187.988C138.43 187.988 138.126 188.523 138.126 189.656V190.875C138.126 192.004 138.43 192.539 139.055 192.539ZM143.274 193.082C142.196 193.082 141.633 192.289 141.633 190.785V189.75C141.633 188.242 142.196 187.449 143.274 187.449C144.352 187.449 144.915 188.242 144.915 189.75V190.785C144.915 192.289 144.352 193.082 143.274 193.082ZM143.274 192.539C143.903 192.539 144.204 192.004 144.204 190.875V189.656C144.204 188.523 143.903 187.988 143.274 187.988C142.649 187.988 142.344 188.523 142.344 189.656V190.875C142.344 192.004 142.649 192.539 143.274 192.539ZM147.492 193.082C146.414 193.082 145.852 192.289 145.852 190.785V189.75C145.852 188.242 146.414 187.449 147.492 187.449C148.57 187.449 149.133 188.242 149.133 189.75V190.785C149.133 192.289 148.57 193.082 147.492 193.082ZM147.492 192.539C148.121 192.539 148.422 192.004 148.422 190.875V189.656C148.422 188.523 148.121 187.988 147.492 187.988C146.867 187.988 146.563 188.523 146.563 189.656V190.875C146.563 192.004 146.867 192.539 147.492 192.539ZM149.726 187.336H151.133V193.781H149.726V193.219H150.453V187.898H149.726V187.336Z" fill="black"/>
<path d="M108.844 209.781H107.438V203.336H108.844V203.898H108.117V209.219H108.844V209.781ZM111.093 209.078C110.062 209.078 109.453 208.531 109.425 207.207L110.097 207.047C110.113 208.188 110.441 208.555 111.113 208.555C111.64 208.555 111.965 208.27 111.965 207.793C111.965 207.332 111.707 207.039 111.132 206.648L110.57 206.266C109.965 205.852 109.574 205.473 109.578 204.73C109.578 203.934 110.117 203.453 110.992 203.453C111.957 203.453 112.496 203.988 112.511 205.168L111.867 205.316C111.859 204.332 111.574 203.973 110.988 203.973C110.523 203.973 110.23 204.227 110.23 204.648C110.23 205.09 110.425 205.344 111.039 205.746L111.597 206.121C112.172 206.504 112.644 206.926 112.644 207.695C112.644 208.559 112.058 209.078 111.093 209.078ZM114.339 209H113.64V203.531H114.339V204.922C114.339 205.359 114.316 205.668 114.253 206.07L114.324 206.09L115.87 203.531H116.617L115.327 205.605L116.652 209H115.89L114.855 206.195L114.339 206.961V209ZM119.023 209.082C117.98 209.082 117.452 208.594 117.452 207.605V203.531H118.151V207.555C118.151 208.219 118.44 208.535 119.023 208.535C119.605 208.535 119.894 208.219 119.894 207.555V203.531H120.593V207.605C120.593 208.594 120.065 209.082 119.023 209.082ZM123.58 209.781H122.913L124.377 203.336H125.045L123.58 209.781ZM128.849 209.078C127.818 209.078 127.209 208.531 127.181 207.207L127.853 207.047C127.869 208.188 128.197 208.555 128.869 208.555C129.396 208.555 129.72 208.27 129.72 207.793C129.72 207.332 129.463 207.039 128.888 206.648L128.326 206.266C127.72 205.852 127.33 205.473 127.334 204.73C127.334 203.934 127.873 203.453 128.748 203.453C129.713 203.453 130.252 203.988 130.267 205.168L129.623 205.316C129.615 204.332 129.33 203.973 128.744 203.973C128.279 203.973 127.986 204.227 127.986 204.648C127.986 205.09 128.181 205.344 128.795 205.746L129.353 206.121C129.927 206.504 130.4 206.926 130.4 207.695C130.4 208.559 129.814 209.078 128.849 209.078ZM132.521 209.07C131.912 209.07 131.599 208.766 131.599 208.086V205.414H131.064V204.898H131.599V203.926L132.279 203.695V204.898H133.255V205.414H132.279V208.012C132.279 208.379 132.423 208.516 132.716 208.516C132.88 208.516 133.076 208.469 133.259 208.383L133.216 208.906C133.052 209.004 132.775 209.07 132.521 209.07ZM133.97 210.445L133.849 209.805L134.298 209.758C134.712 209.719 134.837 209.609 134.884 209.348L134.931 209.082L133.806 204.898H134.509L135.028 207.234C135.11 207.605 135.177 207.965 135.243 208.441H135.321C135.388 207.965 135.454 207.609 135.536 207.238L136.04 204.898H136.708L135.704 208.832C135.419 209.949 135.021 210.324 133.97 210.445ZM138.177 209H137.497V203.531H138.177V209ZM141.313 207.574L141.973 207.691C141.934 208.66 141.372 209.078 140.59 209.078C139.668 209.078 139.184 208.477 139.184 207.363V206.535C139.184 205.422 139.68 204.82 140.614 204.82C141.481 204.82 141.954 205.363 141.954 206.367C141.954 206.59 141.946 206.871 141.934 207.098H139.86V207.441C139.86 208.219 140.09 208.598 140.598 208.598C141.004 208.598 141.293 208.34 141.313 207.574ZM140.614 205.301C140.11 205.301 139.86 205.684 139.86 206.457V206.594H141.274V206.273C141.274 205.617 141.059 205.301 140.614 205.301ZM145.289 209H144.59V203.531H146.039C147.012 203.531 147.531 203.988 147.531 204.84V205.039C147.531 205.695 147.172 206.098 146.515 206.176V206.246C146.918 206.355 147.09 206.551 147.234 207.207L147.379 207.859C147.523 208.516 147.644 208.777 147.828 208.914L147.816 209H146.996C146.871 208.773 146.797 208.488 146.672 207.867L146.551 207.242C146.426 206.621 146.265 206.453 145.808 206.453H145.289V209ZM145.289 204.086V205.914H145.957C146.543 205.914 146.824 205.656 146.824 205.117V204.879C146.824 204.336 146.543 204.086 145.957 204.086H145.289ZM150.539 207.574L151.199 207.691C151.16 208.66 150.597 209.078 149.816 209.078C148.894 209.078 148.41 208.477 148.41 207.363V206.535C148.41 205.422 148.906 204.82 149.839 204.82C150.707 204.82 151.179 205.363 151.179 206.367C151.179 206.59 151.171 206.871 151.16 207.098H149.085V207.441C149.085 208.219 149.316 208.598 149.824 208.598C150.23 208.598 150.519 208.34 150.539 207.574ZM149.839 205.301C149.335 205.301 149.085 205.684 149.085 206.457V206.594H150.5V206.273C150.5 205.617 150.285 205.301 149.839 205.301ZM153.073 209H152.394V205.414H151.866V204.898H152.394V204.672C152.394 203.918 152.827 203.602 153.804 203.449L153.909 204.043C153.042 204.086 153.019 204.109 153.054 204.898H153.882V205.414H153.073V209ZM156.647 207.574L157.307 207.691C157.268 208.66 156.706 209.078 155.925 209.078C155.003 209.078 154.518 208.477 154.518 207.363V206.535C154.518 205.422 155.015 204.82 155.948 204.82C156.815 204.82 157.288 205.363 157.288 206.367C157.288 206.59 157.28 206.871 157.268 207.098H155.194V207.441C155.194 208.219 155.425 208.598 155.932 208.598C156.339 208.598 156.628 208.34 156.647 207.574ZM155.948 205.301C155.444 205.301 155.194 205.684 155.194 206.457V206.594H156.608V206.273C156.608 205.617 156.393 205.301 155.948 205.301ZM158.987 209H158.307V204.898H159.002C159.01 205.137 158.975 205.32 158.811 205.84L158.885 205.871C159.174 205.098 159.483 204.836 160.12 204.793L160.241 205.43C159.241 205.477 158.987 205.82 158.987 206.941V209ZM163.006 207.574L163.666 207.691C163.627 208.66 163.065 209.078 162.283 209.078C161.362 209.078 160.877 208.477 160.877 207.363V206.535C160.877 205.422 161.373 204.82 162.307 204.82C163.174 204.82 163.647 205.363 163.647 206.367C163.647 206.59 163.639 206.871 163.627 207.098H161.553V207.441C161.553 208.219 161.783 208.598 162.291 208.598C162.697 208.598 162.987 208.34 163.006 207.574ZM162.307 205.301C161.803 205.301 161.553 205.684 161.553 206.457V206.594H162.967V206.273C162.967 205.617 162.752 205.301 162.307 205.301ZM165.346 209H164.666V204.898H165.357C165.353 205.129 165.307 205.383 165.166 205.836L165.24 205.863C165.506 205.137 165.889 204.836 166.424 204.836C167.017 204.836 167.326 205.168 167.326 205.789V209H166.646V205.918C166.646 205.543 166.478 205.336 166.166 205.336C165.682 205.336 165.346 205.918 165.346 206.75V209ZM169.72 209.078C168.795 209.078 168.314 208.457 168.314 207.289V206.566C168.314 205.422 168.806 204.82 169.732 204.82C170.533 204.82 171.029 205.285 171.056 206.332L170.377 206.441C170.361 205.602 170.154 205.301 169.724 205.301C169.244 205.301 169.009 205.688 169.009 206.488V207.363C169.009 208.195 169.244 208.594 169.728 208.594C170.158 208.594 170.38 208.312 170.396 207.477L171.091 207.586C171.056 208.641 170.525 209.082 169.72 209.078ZM174.083 207.574L174.743 207.691C174.704 208.66 174.142 209.078 173.361 209.078C172.439 209.078 171.954 208.477 171.954 207.363V206.535C171.954 205.422 172.45 204.82 173.384 204.82C174.251 204.82 174.724 205.363 174.724 206.367C174.724 206.59 174.716 206.871 174.704 207.098H172.63V207.441C172.63 208.219 172.861 208.598 173.368 208.598C173.775 208.598 174.064 208.34 174.083 207.574ZM173.384 205.301C172.88 205.301 172.63 205.684 172.63 206.457V206.594H174.044V206.273C174.044 205.617 173.829 205.301 173.384 205.301ZM175.302 203.336H176.708V209.781H175.302V209.219H176.028V203.898H175.302V203.336Z" fill="black"/>
<path d="M108.844 225.781H107.438V219.336H108.844V219.898H108.117V225.219H108.844V225.781ZM110.418 225H109.718V219.531H110.418V225ZM112.257 225H111.577V220.898H112.269C112.265 221.129 112.218 221.383 112.077 221.836L112.152 221.863C112.417 221.137 112.8 220.836 113.335 220.836C113.929 220.836 114.238 221.168 114.238 221.789V225H113.558V221.918C113.558 221.543 113.39 221.336 113.077 221.336C112.593 221.336 112.257 221.918 112.257 222.75V225ZM116.351 225.062C115.616 225.062 115.222 224.48 115.222 223.387V222.512C115.222 221.418 115.616 220.836 116.347 220.836C116.937 220.836 117.28 221.195 117.46 221.793L117.538 221.762C117.401 221.297 117.355 220.977 117.355 220.633V219.531H118.034V225H117.37C117.37 224.828 117.425 224.555 117.542 224.133L117.464 224.109C117.269 224.727 116.929 225.062 116.351 225.062ZM116.589 224.586C117.081 224.586 117.355 224.117 117.355 223.262V222.641C117.355 221.785 117.081 221.309 116.589 221.309C116.136 221.309 115.913 221.699 115.913 222.504V223.398C115.913 224.199 116.136 224.586 116.589 224.586ZM119.889 220.348H119.1V219.648H119.889V220.348ZM119.835 225H119.155V220.898H119.835V225ZM122.455 225H121.721L120.631 220.898H121.33L121.776 222.707C121.909 223.238 121.995 223.656 122.061 224.137H122.139C122.205 223.656 122.295 223.238 122.424 222.707L122.862 220.898H123.545L122.455 225ZM125.068 220.348H124.279V219.648H125.068V220.348ZM125.014 225H124.334V220.898H125.014V225ZM127.146 225.062C126.412 225.062 126.017 224.48 126.017 223.387V222.512C126.017 221.418 126.412 220.836 127.142 220.836C127.732 220.836 128.076 221.195 128.256 221.793L128.334 221.762C128.197 221.297 128.15 220.977 128.15 220.633V219.531H128.83V225H128.166C128.166 224.828 128.22 224.555 128.338 224.133L128.26 224.109C128.064 224.727 127.724 225.062 127.146 225.062ZM127.385 224.586C127.877 224.586 128.15 224.117 128.15 223.262V222.641C128.15 221.785 127.877 221.309 127.385 221.309C126.931 221.309 126.709 221.699 126.709 222.504V223.398C126.709 224.199 126.931 224.586 127.385 224.586ZM131.915 220.898H132.595V225H131.904C131.912 224.77 131.955 224.516 132.095 224.062L132.021 224.035C131.759 224.762 131.372 225.062 130.837 225.062C130.247 225.062 129.935 224.73 129.935 224.109V220.898H130.619V223.98C130.619 224.355 130.787 224.562 131.095 224.562C131.58 224.562 131.915 223.98 131.915 223.148V220.898ZM134.47 225.078C133.903 225.078 133.575 224.727 133.575 224.145V224.09C133.575 223.266 134.13 222.934 134.802 222.707L135.474 222.48V221.961C135.474 221.512 135.302 221.297 134.931 221.297C134.478 221.297 134.294 221.598 134.317 222.414L133.653 222.301C133.63 221.316 134.064 220.82 134.942 220.82C135.739 220.82 136.146 221.199 136.146 221.941V224.203C136.146 224.508 136.189 224.547 136.532 224.566L136.423 225.066C136.384 225.074 136.314 225.078 136.259 225.078C135.65 225.078 135.525 224.793 135.685 224.113L135.607 224.094C135.439 224.734 135.048 225.078 134.47 225.078ZM134.696 224.559C135.138 224.559 135.474 224.148 135.474 223.523V222.965L135.032 223.117C134.591 223.266 134.267 223.508 134.267 223.996V224.055C134.267 224.371 134.419 224.559 134.696 224.559ZM138.052 225H137.372V219.531H138.052V225ZM142.262 225.078C141.231 225.078 140.621 224.531 140.594 223.207L141.266 223.047C141.281 224.188 141.61 224.555 142.281 224.555C142.809 224.555 143.133 224.27 143.133 223.793C143.133 223.332 142.875 223.039 142.301 222.648L141.738 222.266C141.133 221.852 140.742 221.473 140.746 220.73C140.746 219.934 141.285 219.453 142.16 219.453C143.125 219.453 143.664 219.988 143.68 221.168L143.035 221.316C143.028 220.332 142.742 219.973 142.156 219.973C141.692 219.973 141.399 220.227 141.399 220.648C141.399 221.09 141.594 221.344 142.207 221.746L142.766 222.121C143.34 222.504 143.813 222.926 143.813 223.695C143.813 224.559 143.227 225.078 142.262 225.078ZM146.781 223.574L147.441 223.691C147.402 224.66 146.84 225.078 146.058 225.078C145.137 225.078 144.652 224.477 144.652 223.363V222.535C144.652 221.422 145.148 220.82 146.082 220.82C146.949 220.82 147.422 221.363 147.422 222.367C147.422 222.59 147.414 222.871 147.402 223.098H145.328V223.441C145.328 224.219 145.558 224.598 146.066 224.598C146.472 224.598 146.762 224.34 146.781 223.574ZM146.082 221.301C145.578 221.301 145.328 221.684 145.328 222.457V222.594H146.742V222.273C146.742 221.617 146.527 221.301 146.082 221.301ZM149.121 225H148.441V220.898H149.136C149.144 221.137 149.109 221.32 148.945 221.84L149.019 221.871C149.308 221.098 149.617 220.836 150.253 220.793L150.375 221.43C149.375 221.477 149.121 221.82 149.121 222.941V225ZM151.948 220.348H151.159V219.648H151.948V220.348ZM151.894 225H151.214V220.898H151.894V225ZM153.772 225.078C153.206 225.078 152.878 224.727 152.878 224.145V224.09C152.878 223.266 153.432 222.934 154.104 222.707L154.776 222.48V221.961C154.776 221.512 154.604 221.297 154.233 221.297C153.78 221.297 153.597 221.598 153.62 222.414L152.956 222.301C152.932 221.316 153.366 220.82 154.245 220.82C155.042 220.82 155.448 221.199 155.448 221.941V224.203C155.448 224.508 155.491 224.547 155.835 224.566L155.725 225.066C155.686 225.074 155.616 225.078 155.561 225.078C154.952 225.078 154.827 224.793 154.987 224.113L154.909 224.094C154.741 224.734 154.35 225.078 153.772 225.078ZM153.999 224.559C154.44 224.559 154.776 224.148 154.776 223.523V222.965L154.335 223.117C153.893 223.266 153.569 223.508 153.569 223.996V224.055C153.569 224.371 153.722 224.559 153.999 224.559ZM157.354 225H156.674V219.531H157.354V225ZM160.767 225H160.096V219.531H160.943L162.295 222.984C162.428 223.328 162.51 223.609 162.607 224L162.685 223.992C162.639 223.527 162.611 223.07 162.611 222.648V219.531H163.283V225H162.455L161.111 221.582C160.971 221.219 160.881 220.93 160.775 220.516L160.697 220.523C160.744 220.996 160.764 221.438 160.764 221.844L160.767 225ZM166.404 220.898H167.084V225H166.392C166.4 224.77 166.443 224.516 166.584 224.062L166.509 224.035C166.248 224.762 165.861 225.062 165.326 225.062C164.736 225.062 164.423 224.73 164.423 224.109V220.898H165.107V223.98C165.107 224.355 165.275 224.562 165.584 224.562C166.068 224.562 166.404 223.98 166.404 223.148V220.898ZM168.884 225H168.204V220.898H168.896C168.904 221.105 168.861 221.305 168.704 221.816L168.779 221.844C169.064 221.105 169.388 220.836 169.872 220.836C170.408 220.836 170.646 221.195 170.509 221.836L170.583 221.859C170.822 221.125 171.193 220.836 171.7 220.836C172.251 220.836 172.517 221.145 172.517 221.777V225H171.837V221.887C171.837 221.527 171.697 221.344 171.411 221.344C170.966 221.344 170.704 221.949 170.704 222.73V225H170.025V221.895C170.025 221.539 169.876 221.34 169.615 221.34C169.181 221.34 168.884 221.922 168.884 222.75V225ZM175.306 225.062C174.724 225.062 174.388 224.727 174.192 224.109L174.114 224.133C174.231 224.555 174.282 224.828 174.282 225H173.618V219.531H174.298V220.633C174.298 220.977 174.251 221.297 174.118 221.762L174.196 221.793C174.372 221.195 174.72 220.836 175.31 220.836C176.036 220.836 176.431 221.418 176.431 222.512V223.387C176.431 224.48 176.036 225.062 175.306 225.062ZM175.063 224.586C175.517 224.586 175.739 224.199 175.739 223.398V222.504C175.739 221.699 175.517 221.309 175.063 221.309C174.571 221.309 174.298 221.785 174.298 222.641V223.262C174.298 224.117 174.571 224.586 175.063 224.586ZM179.442 223.574L180.102 223.691C180.063 224.66 179.501 225.078 178.719 225.078C177.798 225.078 177.313 224.477 177.313 223.363V222.535C177.313 221.422 177.809 220.82 178.743 220.82C179.61 220.82 180.083 221.363 180.083 222.367C180.083 222.59 180.075 222.871 180.063 223.098H177.989V223.441C177.989 224.219 178.219 224.598 178.727 224.598C179.133 224.598 179.423 224.34 179.442 223.574ZM178.743 221.301C178.239 221.301 177.989 221.684 177.989 222.457V222.594H179.403V222.273C179.403 221.617 179.188 221.301 178.743 221.301ZM181.782 225H181.102V220.898H181.797C181.805 221.137 181.77 221.32 181.606 221.84L181.68 221.871C181.969 221.098 182.278 220.836 182.914 220.793L183.035 221.43C182.035 221.477 181.782 221.82 181.782 222.941V225ZM183.496 219.336H184.902V225.781H183.496V225.219H184.223V219.898H183.496V219.336Z" fill="black"/>
<path d="M16 432H376" stroke="black" stroke-opacity="0.8" stroke-width="0.2"/>
<path d="M40.8567 461.517C40.9111 461.518 41.1676 461.737 41.4267 462.004C41.6857 462.271 41.8977 462.522 41.8981 462.563C41.8979 462.604 41.7997 462.86 41.6797 463.132C41.5595 463.404 41.1684 464.175 40.8105 464.845C40.4526 465.514 40.0426 466.279 39.8992 466.543C39.7559 466.808 39.2941 467.656 38.8732 468.429C38.4523 469.201 37.7941 470.415 37.4106 471.127C37.0271 471.838 36.5148 472.787 36.272 473.234C36.0293 473.681 35.7511 474.197 35.6538 474.38C35.5563 474.563 34.8564 475.877 34.0982 477.3C32.7197 479.887 32.7195 479.887 32.7554 480.257C32.7979 480.695 32.5389 481.28 33.1468 481.603C33.755 481.926 35.9003 478.202 36.4846 477.912C37.3731 477.472 37.6291 477.199 38.4032 476.54C38.743 476.25 39.3575 475.691 39.7689 475.297C40.1802 474.903 40.868 474.183 41.2972 473.697C41.7263 473.21 42.2238 472.592 42.4026 472.322C42.5815 472.052 42.7572 471.83 42.7929 471.829C43.061 471.823 43.7547 472.115 43.9444 472.331C43.9784 472.37 43.9362 472.568 43.8413 472.812C43.7524 473.04 43.5208 473.453 43.3267 473.728C43.1327 474.004 42.7692 474.579 42.5191 475.006C42.269 475.433 41.8069 476.281 41.4922 476.891C41.1775 477.501 40.6022 478.703 40.2138 479.561C39.8252 480.419 39.3726 481.484 39.2078 481.926C39.043 482.369 38.8377 482.965 38.7517 483.249C38.6656 483.534 38.5536 483.925 38.5027 484.118C38.4519 484.311 38.4353 484.469 38.4659 484.469C38.4968 484.468 38.6736 484.249 38.859 483.981C39.0446 483.712 39.3731 483.172 39.5892 482.779C39.804 482.389 39.9857 482.061 39.9942 482.048C40.001 482.038 40.265 482.129 40.5807 482.251C40.8963 482.372 41.1658 482.484 41.1796 482.5C41.1929 482.516 41.1301 482.753 41.0395 483.027C40.9487 483.301 40.7675 483.726 40.6367 483.971C40.5058 484.216 40.1885 484.736 39.9316 485.126C39.6746 485.517 39.2988 486.013 39.0969 486.228C38.895 486.443 38.6265 486.669 38.4999 486.729C38.2831 486.832 38.2349 486.825 37.67 486.613C37.3357 486.487 37.0203 486.319 36.9565 486.233C36.8804 486.13 36.8425 485.953 36.8426 485.699C36.8426 485.49 36.8857 485.086 36.9381 484.802C36.9906 484.517 37.1334 483.968 37.2554 483.582C37.5449 482.666 37.8478 481.758 38.1831 480.862C38.3398 480.443 38.6744 479.616 38.9264 479.023C39.1775 478.433 39.3701 477.934 39.3557 477.912C39.3396 477.894 38.9695 478.151 38.533 478.484C37.1302 479.553 34.1915 484.122 32.7554 483.584C32.2325 483.388 31.7653 482.961 31.6842 482.251C30.6044 482.261 28.3828 488.706 28.0921 489.683C27.8922 490.355 24.9815 498.971 24.803 499.622C24.6246 500.272 24.3783 501.254 24.2556 501.803C24.133 502.352 23.9964 503.067 23.9522 503.392C23.9079 503.717 23.8661 503.991 23.8592 503.999C23.8514 504.007 23.5596 503.965 23.2103 503.906C22.861 503.846 22.5513 503.814 22.5214 503.834C22.4923 503.854 22.2603 503.652 22.006 503.385C21.6201 502.978 21.5438 502.859 21.5444 502.665C21.5448 502.536 21.5869 502.252 21.638 502.034C21.6892 501.816 21.8549 501.3 22.0063 500.888C23.1959 497.654 23.9521 495.414 25.719 491.006C26.3816 489.353 27.1821 487.735 27.7229 486.023C27.8385 485.657 28.2061 484.56 28.5397 483.584C28.8735 482.608 29.2608 481.494 29.4003 481.107C29.5399 480.721 29.8892 479.789 30.1767 479.037C30.4643 478.285 30.937 477.073 31.2267 476.343C31.5157 475.615 31.7522 475.009 31.7536 474.993C31.7537 474.981 31.7844 474.971 31.8218 474.971C31.8598 474.971 32.1523 475.075 32.472 475.202C33.0186 475.419 33.0543 475.446 33.0543 475.641C33.0543 475.756 33.0813 475.869 33.1145 475.892C33.1484 475.914 33.4362 475.442 33.7547 474.843C34.0735 474.242 34.5487 473.352 34.8105 472.864C35.0724 472.376 35.6958 471.228 36.196 470.314C36.696 469.399 37.2197 468.434 37.3596 468.17C37.4994 467.906 37.7882 467.373 38.0012 466.987C38.2142 466.601 38.5076 466.057 38.6534 465.78C38.7988 465.503 38.9042 465.26 38.888 465.24C38.8712 465.221 38.8171 465.249 38.7679 465.301C38.7186 465.354 38.503 465.563 38.2887 465.766C38.0744 465.969 37.8667 466.169 37.8274 466.21C37.7878 466.251 37.4676 466.568 37.1158 466.913C36.764 467.259 36.1963 467.82 35.8544 468.161C35.5124 468.501 35.1302 468.884 35.005 469.011C34.8797 469.139 34.4556 469.559 34.0622 469.945C33.6689 470.331 33.0961 470.896 32.7896 471.201C32.4832 471.506 31.9857 471.994 31.6842 472.285C31.3826 472.576 30.8386 473.092 30.4754 473.431C30.1122 473.77 29.5271 474.3 29.1749 474.608C28.8228 474.917 28.3005 475.354 28.0143 475.579C27.7283 475.805 27.3168 476.09 27.1 476.213C26.8832 476.337 26.602 476.46 26.4751 476.487C26.2585 476.533 26.2133 476.504 25.719 476.006C25.3674 475.652 25.18 475.405 25.1521 475.262C25.1283 475.139 25.157 474.866 25.2195 474.621C25.2794 474.387 25.4623 473.862 25.626 473.456C25.7896 473.049 26.1129 472.317 26.3442 471.829C26.5754 471.341 27.1303 470.21 27.5769 469.316C28.0236 468.421 28.4835 467.506 28.5991 467.283C28.7146 467.059 28.9276 466.643 29.0721 466.358C29.2166 466.073 29.4285 465.646 29.543 465.409C29.7065 465.07 29.725 464.994 29.6304 465.054C29.5642 465.096 29.3595 465.257 29.1755 465.412C28.9915 465.567 28.0874 466.342 27.1666 467.135C26.2457 467.928 25.4159 468.642 25.3226 468.722C25.2289 468.802 24.4504 469.48 23.5923 470.23C22.734 470.979 21.8416 471.764 21.609 471.974C21.3765 472.183 20.5311 472.952 19.7302 473.682C18.9294 474.411 18.183 475.09 18.0718 475.19C17.9606 475.29 17.6353 475.61 17.3491 475.903C16.8287 476.435 16.8286 476.435 16.3576 475.943C15.8863 475.452 15.8863 475.452 16.3253 474.934C16.5666 474.65 16.8677 474.314 16.9945 474.189C17.1211 474.063 17.414 473.78 17.6452 473.56C17.8764 473.34 18.2119 473.027 18.3905 472.864C18.5689 472.702 18.7735 472.514 18.8451 472.447C18.9166 472.379 19.2092 472.115 19.4953 471.859C19.7815 471.603 20.3669 471.077 20.7961 470.691C21.2252 470.305 21.7374 469.846 21.9341 469.673C22.1308 469.499 22.8184 468.897 23.4622 468.336C24.1059 467.774 24.7092 467.25 24.803 467.17C24.8966 467.089 25.7271 466.375 26.6481 465.582C27.5693 464.789 28.7217 463.806 29.2092 463.397C29.6966 462.989 30.2961 462.498 30.5417 462.307C30.7873 462.116 31.052 461.96 31.1298 461.96C31.2133 461.96 31.4649 462.161 31.7433 462.45C32.1833 462.906 32.2124 462.955 32.1714 463.17C32.1472 463.298 32.0145 463.657 31.8767 463.97C31.7387 464.283 31.0506 465.68 30.3475 467.075C29.6444 468.47 28.7498 470.26 28.3595 471.053C27.9692 471.846 27.4743 472.906 27.2599 473.408C27.0456 473.91 26.8788 474.351 26.8894 474.388C26.9007 474.424 27.1434 474.279 27.4293 474.066C27.7156 473.852 28.3157 473.353 28.7626 472.957C29.2095 472.561 29.7256 472.095 29.9096 471.922C30.0935 471.749 30.4008 471.462 30.5924 471.285C30.7839 471.108 31.0869 470.82 31.2657 470.645C31.4446 470.47 31.8284 470.096 32.1185 469.813C32.4086 469.531 32.7039 469.237 32.7746 469.16C32.8454 469.083 33.1767 468.754 33.5112 468.429C33.8457 468.103 34.1661 467.787 34.2233 467.726C34.2804 467.665 34.4432 467.503 34.5849 467.365C34.7265 467.227 35.0169 466.945 35.2301 466.737C35.4433 466.529 35.8969 466.076 36.238 465.73C36.5792 465.385 37.0301 464.936 37.2401 464.732C37.4501 464.529 37.7458 464.246 37.8973 464.104C38.0488 463.961 38.5941 463.443 39.1089 462.953C39.6237 462.462 40.2056 461.938 40.4018 461.788C40.5978 461.639 40.8024 461.517 40.8567 461.517Z" fill="black"/>
<path d="M48.7024 474.041C49.3041 473.446 49.3041 473.446 49.8078 473.707C50.0849 473.85 50.3521 474.012 50.4012 474.068C50.4767 474.153 50.4611 474.235 50.3001 474.6C50.1954 474.838 49.7338 475.714 49.2743 476.547C48.8149 477.381 48.3885 478.163 48.3268 478.285C48.2651 478.407 48.0797 478.754 47.9148 479.056C47.7498 479.358 47.6279 479.62 47.6435 479.638C47.6609 479.653 48.0503 479.225 48.5101 478.684C49.3482 477.699 49.3483 477.699 49.9276 478C50.3793 478.234 50.5115 478.337 50.5285 478.467C50.5489 478.624 50.5713 478.632 50.8862 478.583C51.0711 478.555 51.5688 478.503 51.9922 478.469C52.6571 478.415 52.7966 478.38 53.0149 478.216C53.1539 478.112 53.2941 478.026 53.3264 478.026C53.3589 478.026 53.5479 478.111 53.7465 478.214C54.0421 478.368 54.1298 478.386 54.226 478.314C54.2908 478.265 54.6401 477.856 55.0021 477.405C55.3643 476.954 55.9534 476.184 56.3115 475.695C56.6694 475.206 57.01 474.761 57.0684 474.705C57.1591 474.62 57.2502 474.645 57.7097 474.881C58.0042 475.033 58.2859 475.201 58.3354 475.255C58.4115 475.338 58.383 475.486 58.1488 476.227C57.9967 476.708 57.7442 477.518 57.588 478.026C57.4317 478.534 57.3037 478.993 57.3033 479.044C57.3028 479.116 57.3511 479.11 57.5022 479.021C57.6935 478.909 57.7226 478.914 58.1805 479.13C58.4965 479.28 58.7692 479.357 58.9832 479.357C59.1617 479.357 59.7707 479.254 60.3368 479.128C60.9032 479.002 61.6302 478.882 61.9521 478.861C62.5321 478.823 62.5425 478.825 63.1213 479.129C63.4425 479.298 63.7717 479.508 63.8529 479.594C63.934 479.681 64.0004 479.805 64 479.869C63.9996 479.933 63.9293 480.156 63.844 480.364C63.7586 480.573 63.6581 480.765 63.6208 480.791C63.5832 480.817 63.3326 480.714 63.0637 480.563C62.5741 480.288 62.5739 480.288 62.1006 480.372C61.8402 480.418 61.305 480.526 60.9116 480.612C60.5182 480.697 59.9622 480.773 59.676 480.78C59.2328 480.791 59.0992 480.763 58.7739 480.592C58.5649 480.482 58.3816 480.392 58.3655 480.392C58.3508 480.392 58.045 480.708 57.6861 481.094C57.3274 481.48 56.9666 481.815 56.884 481.839C56.7819 481.868 56.548 481.775 56.1488 481.547C55.8271 481.364 55.5453 481.159 55.5225 481.092C55.5 481.025 55.482 480.866 55.4824 480.737C55.4829 480.608 55.5666 480.145 55.6685 479.708C55.7701 479.272 55.842 478.916 55.829 478.913C55.8133 478.915 55.496 479.244 55.1219 479.644C54.7467 480.047 54.332 480.434 54.2006 480.505C53.9617 480.634 53.9614 480.633 53.3072 480.268C52.6529 479.902 52.6527 479.902 51.905 479.993C51.4938 480.044 51.0108 480.087 50.8319 480.09C50.6148 480.093 50.3914 480.033 50.1591 479.91C49.9681 479.809 49.7738 479.726 49.7273 479.726C49.6811 479.726 49.0492 480.45 48.3232 481.334C47.5972 482.218 46.694 483.301 46.3163 483.74C45.9386 484.178 45.5181 484.625 45.3819 484.732C45.1342 484.927 45.1341 484.927 44.5528 484.603C44.067 484.333 43.9715 484.251 43.9714 484.106C43.9714 484.01 44.0885 483.673 44.2316 483.357C44.3744 483.042 44.4911 482.761 44.4915 482.731C44.4919 482.702 44.628 482.406 44.7941 482.072C44.9604 481.737 45.2334 481.198 45.4008 480.872C45.5682 480.547 45.8759 479.948 46.0845 479.541C46.293 479.135 46.5342 478.675 46.6205 478.518C46.7066 478.362 46.7624 478.218 46.7447 478.197C46.7265 478.176 46.3073 478.524 45.8131 478.968C45.3188 479.412 44.5741 480.065 44.1583 480.419C43.5055 480.974 43.3869 481.107 43.2894 481.397C43.2273 481.582 43.137 481.75 43.0885 481.772C43.0401 481.793 42.6922 481.643 42.3154 481.438C41.9392 481.234 41.6313 481.034 41.6304 480.994C41.6304 480.954 41.6858 480.777 41.7535 480.601C41.8213 480.425 41.9309 480.23 41.9973 480.168C42.0637 480.106 42.6742 479.576 43.3537 478.991C44.0333 478.405 44.8819 477.659 45.2395 477.334C45.5972 477.008 46.3872 476.268 46.9952 475.688C47.6032 475.109 48.3715 474.367 48.7024 474.041Z" fill="black"/>
<path d="M61.9279 474.768C62.0132 474.743 62.2129 474.78 62.3747 474.851C62.5356 474.922 62.7948 475.038 62.9506 475.109C63.2221 475.234 63.2326 475.25 63.1977 475.494C63.1776 475.635 63.1152 475.829 63.0592 475.927C62.9912 476.045 62.8952 476.104 62.7723 476.104C62.6707 476.104 62.3716 476.002 62.1078 475.879C61.8442 475.755 61.6049 475.627 61.5757 475.595C61.547 475.562 61.5798 475.373 61.6484 475.174C61.7369 474.918 61.8185 474.799 61.9279 474.768Z" fill="black"/>
<path d="M52.8224 474.404C52.8892 474.404 53.195 474.545 53.5019 474.718C54.0358 475.018 54.0587 475.041 54.0237 475.241C54.0035 475.357 53.9263 475.548 53.8521 475.667C53.7779 475.785 53.6577 475.882 53.5852 475.882C53.5127 475.882 53.2074 475.73 52.9069 475.543C52.6066 475.357 52.3608 475.173 52.3603 475.133C52.3603 475.094 52.4078 474.955 52.4658 474.825C52.5239 474.695 52.6007 474.547 52.6363 474.496C52.672 474.445 52.7558 474.404 52.8224 474.404Z" fill="black"/>
<path d="M40.5651 456C40.6014 456.012 40.874 456.119 41.1713 456.237C41.6994 456.447 41.7116 456.457 41.6758 456.661C41.6556 456.776 41.5934 456.976 41.5373 457.105C41.4725 457.254 41.0757 457.65 40.4506 458.189C39.909 458.657 39.1277 459.358 38.7147 459.746C38.3017 460.135 37.8273 460.627 37.6605 460.838C37.3573 461.222 37.357 461.222 36.7932 460.99C36.2293 460.758 36.2292 460.758 36.2728 460.49C36.2969 460.343 36.3922 460.064 36.4846 459.87C36.59 459.649 36.8692 459.305 37.2354 458.946C37.5561 458.632 38.4219 457.835 39.1593 457.176C39.8966 456.518 40.5291 455.989 40.5651 456Z" fill="black"/>
<defs>
<clipPath id="clip0_49_26830">
<rect width="180" height="32" fill="white" transform="translate(188 72)"/>
</clipPath>
</defs>
</svg>
