<svg width="392" height="256" viewBox="0 0 392 256" fill="none" xmlns="http://www.w3.org/2000/svg">
<rect width="392" height="256" fill="white"/>
<path d="M17.875 20H17.2422V18.7139L16.1846 15.8984H16.8555L17.3096 17.2607C17.3887 17.501 17.4648 17.7529 17.5439 18.0547H17.6055C17.6846 17.7529 17.7607 17.5039 17.8369 17.2666L18.2881 15.8984H18.9326L17.875 18.7139V20ZM22.1052 20H19.7761V15.8984H22.0584V16.4346H20.4089V17.6035H21.783V18.1016H20.4089V19.4609H22.1052V20ZM23.4907 20H22.8843L23.8071 15.8984H24.7154L25.6616 20H25.0083L24.8179 19.2002H23.6812L23.4907 20ZM24.0269 17.5596L23.7779 18.749H24.7241L24.4751 17.5596C24.3989 17.1904 24.3433 16.874 24.2759 16.4316H24.2144C24.1558 16.874 24.103 17.1904 24.0269 17.5596ZM27.0501 20H26.4143V15.8984H27.6536C28.4358 15.8984 28.8548 16.2559 28.8548 16.918V17.0146C28.8548 17.5156 28.5677 17.832 28.0432 17.8936V17.9521C28.3596 18.043 28.4856 18.1895 28.5999 18.6787L28.7112 19.168C28.8255 19.6602 28.9192 19.833 29.0569 19.9326L29.0481 20H28.3186C28.219 19.8359 28.1634 19.6338 28.0725 19.1768L27.9788 18.7256C27.885 18.2715 27.7708 18.1426 27.4251 18.1426H27.0501V20ZM27.0501 16.3994V17.6592H27.5833C28.0139 17.6592 28.2161 17.4775 28.2161 17.0967V16.959C28.2161 16.5752 28.0139 16.3994 27.5833 16.3994H27.0501Z" fill="black" fill-opacity="0.5"/>
<path d="M20.084 32H16.2578V31.2734C18.209 28.7598 18.9004 27.1367 18.9004 25.5195C18.9004 24.8691 18.707 24.5645 18.25 24.5645C17.6934 24.5645 17.4414 24.9512 17.4414 26.3926V26.832L16.3398 26.6562V26.252C16.3398 24.3594 16.9961 23.6855 18.2617 23.6855C19.4277 23.6855 20.0254 24.2656 20.0254 25.4727C20.0254 27.1895 19.375 28.7539 17.6582 31.0039L17.6875 31.0977C17.9277 31.0801 18.1387 31.0742 18.3789 31.0742H20.084V32ZM22.75 32.1172C21.3672 32.1172 20.6641 31.2031 20.6641 29.4219V26.375C20.6641 24.5938 21.3672 23.6797 22.75 23.6797C24.1328 23.6797 24.8359 24.5938 24.8359 26.375V29.4219C24.8359 31.2031 24.1328 32.1172 22.75 32.1172ZM22.75 31.2207C23.3828 31.2207 23.6875 30.6875 23.6875 29.5742V26.2227C23.6875 25.1035 23.3828 24.5762 22.75 24.5762C22.1172 24.5762 21.8125 25.1035 21.8125 26.2227V29.5742C21.8125 30.6875 22.1172 31.2207 22.75 31.2207ZM29.2715 32H25.4453V31.2734C27.3965 28.7598 28.0879 27.1367 28.0879 25.5195C28.0879 24.8691 27.8945 24.5645 27.4375 24.5645C26.8809 24.5645 26.6289 24.9512 26.6289 26.3926V26.832L25.5273 26.6562V26.252C25.5273 24.3594 26.1836 23.6855 27.4492 23.6855C28.6152 23.6855 29.2129 24.2656 29.2129 25.4727C29.2129 27.1895 28.5625 28.7539 26.8457 31.0039L26.875 31.0977C27.1152 31.0801 27.3262 31.0742 27.5664 31.0742H29.2715V32ZM31.9199 23.6797C33.1094 23.6797 33.8594 24.2773 33.8594 25.8125V26.1113L32.7227 26.3164V25.9766C32.7227 24.9102 32.418 24.5703 31.9023 24.5703C31.2578 24.5703 30.9648 25.1035 30.9648 26.2695V27.4121C31.2578 27.0547 31.7031 26.873 32.2363 26.873C33.2969 26.873 33.8828 27.5352 33.8828 28.7832V30.1074C33.8828 31.4258 33.1973 32.1113 31.8906 32.1113C30.5137 32.1113 29.8633 31.2676 29.8633 29.6328V26.4219C29.8633 24.5879 30.5312 23.6797 31.9199 23.6797ZM31.8906 27.7109C31.375 27.7109 31.0469 28.0449 31.0469 28.7539V30.0605C31.0469 30.8633 31.3398 31.2266 31.9023 31.2266C32.4648 31.2266 32.752 30.8809 32.752 30.1074V28.8008C32.752 28.0449 32.459 27.7109 31.8906 27.7109Z" fill="black"/>
<path d="M18.748 50H16.4189V45.8984H18.7012V46.4346H17.0518V47.6035H18.4258V48.1016H17.0518V49.4609H18.748V50ZM20.7957 50H19.7146V45.8984H20.7957C21.7537 45.8984 22.2078 46.4551 22.2078 47.6094V48.2949C22.2078 49.4463 21.7537 50 20.7957 50ZM20.3474 46.3965V49.502H20.7693C21.3259 49.502 21.5662 49.1797 21.5662 48.4355V47.4688C21.5662 46.7188 21.3259 46.3965 20.7693 46.3965H20.3474ZM25.5034 50H23.0425V49.499H23.9566V46.3994H23.0425V45.8984H25.5034V46.3994H24.5923V49.499H25.5034V50ZM27.9495 50H27.3138V46.4258H26.2649V45.8984H28.9954V46.4258H27.9495V50ZM32.2178 50H29.7569V49.499H30.6709V46.3994H29.7569V45.8984H32.2178V46.3994H31.3067V49.499H32.2178V50ZM34.3445 50.0615C33.4891 50.0615 33.0496 49.5107 33.0496 48.4385V47.4629C33.0496 46.3906 33.4891 45.8369 34.3445 45.8369C35.2 45.8369 35.6395 46.3906 35.6395 47.4629V48.4385C35.6395 49.5107 35.2 50.0615 34.3445 50.0615ZM34.3445 49.5723C34.7898 49.5723 35.0066 49.2383 35.0066 48.5439V47.3721C35.0066 46.666 34.7898 46.3262 34.3445 46.3262C33.8992 46.3262 33.6824 46.666 33.6824 47.3721V48.5439C33.6824 49.2383 33.8992 49.5723 34.3445 49.5723ZM37.066 50H36.4888V45.8984H37.2066L38.1236 48.3418C38.2144 48.582 38.2759 48.8135 38.3492 49.1299L38.4107 49.127C38.3697 48.7021 38.3404 48.2803 38.3404 47.9141V45.8984H38.9146V50H38.2115L37.3033 47.5918C37.2066 47.3369 37.1392 47.1084 37.0572 46.748L36.9986 46.7539C37.0367 47.1553 37.063 47.6416 37.063 48.0195L37.066 50Z" fill="black" fill-opacity="0.5"/>
<path d="M20.2578 72H18.373V61.7852H16.2539V60.5156C18.3242 60.418 18.5586 60.2715 18.7051 58.3281H20.2578V72ZM27.2891 72H25.3945V69.1973H21.3418V68.0254L24.5156 58.3281H27.2891V67.791H28.3633V69.1973H27.2891V72ZM24.6621 63.0449L23.168 67.791H25.3945L25.4141 63.25C25.4141 62.4199 25.4336 61.3848 25.4727 60.291L25.2871 60.2812C25.1113 61.2578 24.8965 62.2344 24.6621 63.0449ZM32.9629 73.9531H31.1367L34.0664 57.8398H35.8926L32.9629 73.9531ZM45.1699 72H38.793V70.7891C42.0449 66.5996 43.1973 63.8945 43.1973 61.1992C43.1973 60.1152 42.875 59.6074 42.1133 59.6074C41.1855 59.6074 40.7656 60.252 40.7656 62.6543V63.3867L38.9297 63.0938V62.4199C38.9297 59.2656 40.0234 58.1426 42.1328 58.1426C44.0762 58.1426 45.0723 59.1094 45.0723 61.1211C45.0723 63.9824 43.9883 66.5898 41.127 70.3398L41.1758 70.4961C41.5762 70.4668 41.9277 70.457 42.3281 70.457H45.1699V72ZM51.4883 72H49.5938V69.1973H45.541V68.0254L48.7148 58.3281H51.4883V67.791H52.5625V69.1973H51.4883V72ZM48.8613 63.0449L47.3672 67.791H49.5938L49.6133 63.25C49.6133 62.4199 49.6328 61.3848 49.6719 60.291L49.4863 60.2812C49.3105 61.2578 49.0957 62.2344 48.8613 63.0449Z" fill="black"/>
<path d="M113.562 20.0645C112.694 20.0645 112.264 19.4844 112.264 18.3623V17.5361C112.264 16.4141 112.7 15.834 113.559 15.834C114.332 15.834 114.786 16.2939 114.807 17.3545L114.194 17.4834C114.188 16.6074 113.978 16.3262 113.57 16.3262C113.122 16.3262 112.908 16.6777 112.908 17.4307V18.4648C112.908 19.2148 113.125 19.5664 113.576 19.5664C113.978 19.5664 114.209 19.2822 114.218 18.374L114.839 18.5264C114.815 19.6104 114.329 20.0645 113.562 20.0645ZM118.105 20H115.776V15.8984H118.058V16.4346H116.409V17.6035H117.783V18.1016H116.409V19.4609H118.105V20ZM119.693 20H119.057V15.8984H120.296C121.079 15.8984 121.498 16.2559 121.498 16.918V17.0146C121.498 17.5156 121.21 17.832 120.686 17.8936V17.9521C121.002 18.043 121.128 18.1895 121.243 18.6787L121.354 19.168C121.468 19.6602 121.562 19.833 121.7 19.9326L121.691 20H120.961C120.862 19.8359 120.806 19.6338 120.715 19.1768L120.622 18.7256C120.528 18.2715 120.414 18.1426 120.068 18.1426H119.693V20ZM119.693 16.3994V17.6592H120.226C120.657 17.6592 120.859 17.4775 120.859 17.0967V16.959C120.859 16.5752 120.657 16.3994 120.226 16.3994H119.693ZM123.949 20H123.314V16.4258H122.265V15.8984H124.995V16.4258H123.949V20ZM128.218 20H125.757V19.499H126.671V16.3994H125.757V15.8984H128.218V16.3994H127.307V19.499H128.218V20ZM129.89 20H129.258V15.8984H131.622V16.4229H129.89V17.7559H131.449V18.2656H129.89V20ZM134.932 20H132.471V19.499H133.385V16.3994H132.471V15.8984H134.932V16.3994H134.021V19.499H134.932V20ZM137.062 20.0645C136.195 20.0645 135.764 19.4844 135.764 18.3623V17.5361C135.764 16.4141 136.201 15.834 137.059 15.834C137.832 15.834 138.286 16.2939 138.307 17.3545L137.695 17.4834C137.689 16.6074 137.478 16.3262 137.071 16.3262C136.622 16.3262 136.409 16.6777 136.409 17.4307V18.4648C136.409 19.2148 136.625 19.5664 137.076 19.5664C137.478 19.5664 137.709 19.2822 137.718 18.374L138.339 18.5264C138.316 19.6104 137.829 20.0645 137.062 20.0645ZM139.634 20H139.027L139.95 15.8984H140.858L141.805 20H141.151L140.961 19.2002H139.824L139.634 20ZM140.17 17.5596L139.921 18.749H140.867L140.618 17.5596C140.542 17.1904 140.486 16.874 140.419 16.4316H140.358C140.299 16.874 140.246 17.1904 140.17 17.5596ZM144.093 20H143.457V16.4258H142.408V15.8984H145.139V16.4258H144.093V20ZM148.32 20H145.991V15.8984H148.273V16.4346H146.624V17.6035H147.998V18.1016H146.624V19.4609H148.32V20ZM153.845 20.0615C152.989 20.0615 152.55 19.5107 152.55 18.4385V17.4629C152.55 16.3906 152.989 15.8369 153.845 15.8369C154.7 15.8369 155.14 16.3906 155.14 17.4629V18.4385C155.14 19.5107 154.7 20.0615 153.845 20.0615ZM153.845 19.5723C154.29 19.5723 154.507 19.2383 154.507 18.5439V17.3721C154.507 16.666 154.29 16.3262 153.845 16.3262C153.4 16.3262 153.183 16.666 153.183 17.3721V18.5439C153.183 19.2383 153.4 19.5723 153.845 19.5723ZM156.748 20H156.115V15.8984H158.479V16.4229H156.748V17.7559H158.307V18.2656H156.748V20ZM163.134 20H162.528L163.451 15.8984H164.359L165.305 20H164.652L164.461 19.2002H163.325L163.134 20ZM163.67 17.5596L163.421 18.749H164.368L164.119 17.5596C164.042 17.1904 163.987 16.874 163.919 16.4316H163.858C163.799 16.874 163.746 17.1904 163.67 17.5596ZM167.274 20.0645C166.459 20.0645 166.04 19.6895 166.04 18.9424V15.8984H166.673V18.9014C166.673 19.3555 166.875 19.5752 167.274 19.5752C167.675 19.5752 167.874 19.3555 167.874 18.9014V15.8984H168.507V18.9424C168.507 19.6895 168.091 20.0645 167.274 20.0645ZM170.95 20H170.314V16.4258H169.266V15.8984H171.996V16.4258H170.95V20ZM173.405 20H172.772V15.8984H173.405V17.5713H174.574V15.8984H175.204V20H174.574V18.0811H173.405V20ZM178.535 20H176.206V15.8984H178.488V16.4346H176.838V17.6035H178.212V18.1016H176.838V19.4609H178.535V20ZM180.067 20H179.489V15.8984H180.207L181.124 18.3418C181.215 18.582 181.277 18.8135 181.35 19.1299L181.411 19.127C181.37 18.7021 181.341 18.2803 181.341 17.9141V15.8984H181.915V20H181.212L180.304 17.5918C180.207 17.3369 180.14 17.1084 180.058 16.748L179.999 16.7539C180.037 17.1553 180.064 17.6416 180.064 18.0195L180.067 20ZM184.379 20H183.743V16.4258H182.694V15.8984H185.425V16.4258H184.379V20ZM188.647 20H186.186V19.499H187.1V16.3994H186.186V15.8984H188.647V16.3994H187.736V19.499H188.647V20ZM190.777 20.0645C189.91 20.0645 189.479 19.4844 189.479 18.3623V17.5361C189.479 16.4141 189.916 15.834 190.774 15.834C191.547 15.834 192.001 16.2939 192.022 17.3545L191.41 17.4834C191.404 16.6074 191.193 16.3262 190.786 16.3262C190.337 16.3262 190.124 16.6777 190.124 17.4307V18.4648C190.124 19.2148 190.34 19.5664 190.791 19.5664C191.193 19.5664 191.424 19.2822 191.433 18.374L192.054 18.5264C192.031 19.6104 191.544 20.0645 190.777 20.0645ZM195.362 20H192.901V19.499H193.815V16.3994H192.901V15.8984H195.362V16.3994H194.45V19.499H195.362V20ZM197.808 20H197.172V16.4258H196.123V15.8984H198.854V16.4258H197.808V20ZM201.162 20H200.529V18.7139L199.471 15.8984H200.142L200.596 17.2607C200.676 17.501 200.752 17.7529 200.831 18.0547H200.892C200.971 17.7529 201.048 17.5039 201.124 17.2666L201.575 15.8984H202.219L201.162 18.7139V20Z" fill="black" fill-opacity="0.5"/>
<path fill-rule="evenodd" clip-rule="evenodd" d="M133.052 58.7161C135.262 58.7161 136.345 59.9224 136.345 62.3674V70.5641C136.345 72.9983 135.262 74.2046 133.052 74.2046C130.865 74.2046 129.782 72.9983 129.782 70.5641V62.3674C129.782 59.9224 130.865 58.7161 133.052 58.7161ZM133.063 60.4071C132.327 60.4071 131.969 60.9672 131.969 62.1412V70.8226C131.969 71.9643 132.327 72.5136 133.063 72.5136C133.8 72.5136 134.146 71.9643 134.146 70.8226V62.1412C134.146 60.9672 133.8 60.4071 133.063 60.4071Z" fill="black"/>
<path d="M174.733 58.7161C176.802 58.7161 177.906 59.7932 177.906 62.292V64.3385L175.773 64.7155V62.4105C175.773 60.8595 175.426 60.3748 174.755 60.3748C174.062 60.3748 173.726 60.9241 173.726 62.0766V70.8118C173.726 71.9643 174.062 72.5136 174.766 72.5136C175.415 72.5136 175.794 72.0074 175.794 70.4133V67.8175L177.95 68.2375V70.5964C177.95 73.1275 176.791 74.2046 174.733 74.2046C172.567 74.2046 171.538 72.9983 171.538 70.5748V62.3566C171.538 59.9224 172.578 58.7161 174.733 58.7161Z" fill="black"/>
<path fill-rule="evenodd" clip-rule="evenodd" d="M216.804 58.7161C219.013 58.7161 220.096 59.9224 220.096 62.3674V70.5641C220.096 72.9983 219.013 74.2046 216.804 74.2046C214.616 74.2046 213.533 72.9983 213.533 70.5641V62.3674C213.533 59.9224 214.616 58.7161 216.804 58.7161ZM216.814 60.4071C216.078 60.4071 215.721 60.9672 215.721 62.1412V70.8226C215.721 71.9643 216.078 72.5136 216.814 72.5136C217.551 72.5136 217.897 71.9643 217.897 70.8226V62.1412C217.897 60.9672 217.551 60.4071 216.814 60.4071Z" fill="black"/>
<path fill-rule="evenodd" clip-rule="evenodd" d="M119.061 74H116.798L116.527 71.5442H114.502L114.22 74H112.108L114.155 58.9207H116.96L119.061 74ZM115.401 61.9581C115.325 63.8107 115.228 64.9524 115.108 66.148L114.686 70.004H116.332L115.921 66.148C115.802 64.9524 115.704 63.8107 115.628 61.9581H115.401Z" fill="black"/>
<path d="M125.223 67.0851C125.396 67.9037 125.591 69.0023 125.797 70.4456L126.024 70.424C125.851 68.4099 125.71 66.1157 125.71 64.3708L125.7 58.9207H127.844V74H125.126L123.295 65.8895C123.111 65.0386 122.949 64.1231 122.7 62.3674L122.472 62.3889C122.613 64.1554 122.775 67.0097 122.775 68.8084L122.786 74H120.653V58.9207H123.425L125.223 67.0851Z" fill="black"/>
<path d="M143.882 60.6979H141.878V74H139.701V60.6979H137.687V58.9207H143.882V60.6979Z" fill="black"/>
<path d="M147.628 65.1355H149.567V58.9207H151.744V74H149.567V66.8589H147.628V74H145.451V58.9207H147.628V65.1355Z" fill="black"/>
<path d="M158.653 60.6979H155.967V65.2109H158.371V66.8481H155.967V72.2228H158.793V74H153.79V58.9207H158.653V60.6979Z" fill="black"/>
<path fill-rule="evenodd" clip-rule="evenodd" d="M163.677 58.9207C165.692 58.9207 166.688 59.9332 166.688 61.9689V63.4122C166.688 64.9201 166.081 65.8033 164.901 66.0511V66.2342C165.865 66.4819 166.222 66.945 166.385 68.8838L166.536 70.8118C166.688 72.7506 166.829 73.4291 167.154 73.7738L167.121 74H164.76C164.565 73.3645 164.468 72.6536 164.359 70.8657L164.262 69.0669C164.154 67.2682 163.915 66.9666 163.168 66.9666H162.724V74H160.547V58.9207H163.677ZM162.724 65.2971H163.45C164.186 65.2971 164.511 64.9201 164.511 64.0046V61.9366C164.511 60.9887 164.186 60.6225 163.45 60.6225H162.724V65.2971Z" fill="black"/>
<path fill-rule="evenodd" clip-rule="evenodd" d="M182.952 58.9207C184.967 58.9207 185.963 59.9332 185.963 61.9689V63.4122C185.963 64.9201 185.357 65.8033 184.176 66.0511V66.2342C185.14 66.4819 185.498 66.945 185.66 68.8838L185.812 70.8118C185.963 72.7506 186.104 73.4291 186.429 73.7738L186.396 74H184.035C183.84 73.3645 183.743 72.6536 183.635 70.8657L183.537 69.0669C183.429 67.2682 183.191 66.9666 182.443 66.9666H181.999V74H179.822V58.9207H182.952ZM181.999 65.2971H182.725C183.461 65.2971 183.786 64.9201 183.786 64.0046V61.9366C183.786 60.9887 183.461 60.6225 182.725 60.6225H181.999V65.2971Z" fill="black"/>
<path d="M192.85 60.6979H190.165V65.2109H192.569V66.8481H190.165V72.2228H192.991V74H187.988V58.9207H192.85V60.6979Z" fill="black"/>
<path fill-rule="evenodd" clip-rule="evenodd" d="M201.232 74H198.969L198.698 71.5442H196.673L196.391 74H194.279L196.326 58.9207H199.131L201.232 74ZM197.572 61.9581C197.496 63.8107 197.398 64.9524 197.279 66.148L196.857 70.004H198.503L198.091 66.148C197.972 64.9524 197.875 63.8107 197.799 61.9581H197.572Z" fill="black"/>
<path d="M207.838 60.6979H205.834V74H203.657V60.6979H201.643V58.9207H207.838V60.6979Z" fill="black"/>
<path d="M211.584 74H209.407V58.9207H211.584V74Z" fill="black"/>
<path d="M226.604 67.0851C226.777 67.9037 226.972 69.0023 227.178 70.4456L227.406 70.424C227.232 68.4099 227.092 66.1157 227.092 64.3708L227.081 58.9207H229.225V74H226.507L224.676 65.8895C224.492 65.0386 224.33 64.1231 224.081 62.3674L223.853 62.3889C223.994 64.1554 224.157 67.0097 224.157 68.8084L224.167 74H222.034V58.9207H224.806L226.604 67.0851Z" fill="black"/>
<path d="M345.142 23.356C345.215 23.357 345.557 23.649 345.902 24.0051C346.248 24.3609 346.53 24.6964 346.531 24.7509C346.531 24.8056 346.4 25.1468 346.24 25.5093C346.079 25.8723 345.558 26.8998 345.081 27.7929C344.603 28.686 344.057 29.7051 343.866 30.0577C343.674 30.4101 343.059 31.5414 342.498 32.5714C341.936 33.6015 341.059 35.2204 340.547 36.1692C340.036 37.1179 339.353 38.382 339.029 38.9784C338.706 39.5747 338.335 40.2624 338.205 40.5064C338.075 40.7506 337.142 42.5027 336.131 44.4C334.293 47.8495 334.293 47.85 334.34 48.3427C334.397 48.9263 334.052 49.7063 334.862 50.1374C335.673 50.5676 338.534 45.6028 339.313 45.2165C340.497 44.629 340.839 44.2649 341.871 43.3862C342.324 43.0006 343.143 42.2553 343.692 41.7298C344.24 41.2042 345.157 40.2437 345.73 39.5954C346.302 38.9471 346.965 38.1221 347.204 37.7621C347.442 37.4022 347.676 37.1069 347.724 37.1058C348.081 37.0972 349.006 37.4868 349.259 37.7742C349.305 37.8266 349.248 38.0906 349.122 38.4158C349.003 38.7202 348.694 39.2701 348.436 39.6377C348.177 40.0055 347.692 40.7722 347.359 41.3414C347.025 41.9107 346.409 43.042 345.99 43.8551C345.57 44.6684 344.803 46.27 344.285 47.4143C343.767 48.5587 343.163 49.9781 342.944 50.5685C342.724 51.159 342.45 51.9528 342.336 52.3323C342.221 52.7117 342.071 53.2328 342.004 53.4903C341.936 53.7477 341.914 53.9583 341.955 53.9585C341.996 53.9578 342.232 53.6654 342.479 53.3078C342.726 52.9498 343.164 52.2288 343.452 51.7058C343.739 51.1855 343.981 50.7485 343.992 50.731C344.001 50.7178 344.353 50.8389 344.774 51.0008C345.195 51.1625 345.554 51.312 345.573 51.3329C345.591 51.3552 345.507 51.6709 345.386 52.0357C345.265 52.4014 345.023 52.9678 344.849 53.2942C344.674 53.6207 344.251 54.3141 343.909 54.8351C343.566 55.356 343.065 56.0169 342.796 56.3041C342.527 56.5911 342.169 56.8918 342 56.9721C341.711 57.1094 341.646 57.1004 340.893 56.8168C340.448 56.6489 340.027 56.425 339.942 56.3105C339.841 56.1733 339.79 55.9373 339.79 55.5987C339.79 55.3201 339.848 54.7815 339.917 54.4021C339.987 54.0226 340.178 53.2908 340.341 52.7758C340.726 51.5545 341.13 50.3436 341.577 49.149C341.786 48.5911 342.232 47.4879 342.569 46.6976C342.903 45.9101 343.16 45.2455 343.141 45.2165C343.12 45.1922 342.626 45.535 342.044 45.9786C340.174 47.4038 336.255 53.4962 334.34 52.7785C333.643 52.517 333.02 51.9479 332.912 51.0008C331.473 51.0144 328.51 59.6078 328.123 60.9107C327.856 61.8063 323.975 73.2952 323.737 74.1625C323.499 75.03 323.171 76.3385 323.007 77.0704C322.844 77.8022 322.662 78.756 322.603 79.1897C322.544 79.6233 322.488 79.9874 322.479 79.9986C322.469 80.0097 322.079 79.9539 321.614 79.8743C321.148 79.7948 320.735 79.7517 320.695 79.7787C320.656 79.8059 320.347 79.5362 320.008 79.1795C319.493 78.6378 319.392 78.479 319.393 78.2194C319.393 78.0483 319.449 77.6699 319.517 77.3787C319.586 77.0875 319.807 76.3998 320.008 75.8507C321.595 71.5381 322.603 68.5523 324.959 62.6748C325.842 60.4707 326.909 58.3136 327.631 56.0313C327.785 55.5432 328.275 54.0795 328.72 52.7785C329.165 51.4774 329.681 49.9913 329.867 49.4762C330.053 48.9611 330.519 47.7193 330.902 46.7165C331.286 45.7136 331.916 44.0969 332.302 43.1236C332.688 42.1534 333.003 41.3453 333.005 41.3244C333.005 41.3082 333.046 41.2949 333.096 41.2949C333.146 41.2952 333.536 41.4336 333.963 41.6028C334.691 41.8921 334.739 41.9279 334.739 42.1885C334.739 42.3411 334.775 42.4917 334.819 42.5229C334.865 42.5519 335.248 41.9229 335.673 41.1237C336.098 40.3233 336.732 39.1363 337.081 38.4857C337.43 37.8351 338.261 36.3046 338.928 35.0848C339.595 33.8651 340.293 32.5791 340.479 32.2264C340.666 31.8741 341.051 31.1644 341.335 30.6494C341.619 30.1344 342.01 29.4099 342.205 29.0398C342.398 28.6705 342.539 28.3473 342.517 28.3204C342.495 28.2948 342.423 28.3317 342.357 28.402C342.292 28.4724 342.004 28.7512 341.718 29.0216C341.433 29.2921 341.156 29.5585 341.103 29.6133C341.05 29.6684 340.623 30.0901 340.154 30.5507C339.685 31.0116 338.928 31.7602 338.473 32.2144C338.017 32.6685 337.507 33.1789 337.34 33.3486C337.173 33.5185 336.607 34.0783 336.083 34.5928C335.559 35.1074 334.795 35.8612 334.386 36.2678C333.978 36.6743 333.314 37.3249 332.912 37.7134C332.51 38.1019 331.785 38.7895 331.301 39.2414C330.816 39.6932 330.036 40.3996 329.567 40.8113C329.097 41.2229 328.401 41.8055 328.019 42.1057C327.638 42.406 327.089 42.7862 326.8 42.951C326.511 43.1156 326.136 43.2798 325.967 43.3159C325.678 43.3775 325.618 43.3393 324.959 42.6748C324.49 42.202 324.24 41.8738 324.203 41.6826C324.171 41.5186 324.209 41.1548 324.293 40.8283C324.373 40.5156 324.616 39.8163 324.835 39.2742C325.053 38.7321 325.484 37.7564 325.792 37.1058C326.101 36.4553 326.84 34.9471 327.436 33.7544C328.031 32.5618 328.645 31.3418 328.799 31.0434C328.953 30.7453 329.237 30.1905 329.43 29.8106C329.622 29.4305 329.905 28.8608 330.057 28.5448C330.275 28.0931 330.3 27.9919 330.174 28.0717C330.086 28.1277 329.813 28.3425 329.567 28.549C329.322 28.7555 328.116 29.7891 326.889 30.8462C325.661 31.9034 324.555 32.8557 324.43 32.9621C324.305 33.069 323.267 33.9736 322.123 34.9729C320.979 35.9726 319.789 37.0191 319.479 37.2985C319.169 37.5779 318.041 38.6026 316.974 39.5754C315.906 40.5483 314.911 41.4531 314.762 41.5862C314.614 41.7194 314.18 42.1472 313.799 42.5372C313.105 43.2463 313.105 43.2464 312.477 42.5913C311.848 41.9358 311.848 41.9357 312.434 41.2458C312.755 40.8664 313.157 40.4191 313.326 40.2517C313.495 40.0844 313.885 39.7072 314.194 39.4137C314.502 39.1201 314.949 38.7024 315.187 38.4857C315.425 38.2689 315.698 38.0185 315.793 37.9288C315.889 37.8391 316.279 37.4863 316.66 37.1451C317.042 36.804 317.823 36.1032 318.395 35.5881C318.967 35.0729 319.65 34.4619 319.912 34.2301C320.174 33.9985 321.091 33.196 321.95 32.4475C322.808 31.6991 323.612 30.9996 323.737 30.8927C323.862 30.7859 324.969 29.8336 326.198 28.7764C327.426 27.7192 328.962 26.4083 329.612 25.8633C330.262 25.3183 331.062 24.6641 331.389 24.4094C331.716 24.1547 332.069 23.9465 332.173 23.9465C332.284 23.947 332.62 24.2148 332.991 24.5998C333.578 25.2086 333.617 25.2738 333.562 25.5606C333.53 25.73 333.353 26.2097 333.169 26.6265C332.985 27.0436 332.067 28.9065 331.13 30.7665C330.193 32.6264 329 35.0133 328.479 36.0706C327.959 37.1277 327.299 38.5409 327.013 39.2108C326.727 39.8805 326.505 40.4683 326.519 40.5169C326.534 40.5647 326.858 40.3718 327.239 40.0877C327.621 39.803 328.421 39.1376 329.017 38.6092C329.613 38.0809 330.301 37.46 330.546 37.2294C330.791 36.9987 331.201 36.6164 331.457 36.38C331.712 36.1437 332.116 35.7598 332.354 35.5268C332.593 35.2938 333.105 34.7948 333.491 34.4179C333.878 34.041 334.272 33.6487 334.366 33.5462C334.461 33.4437 334.902 33.005 335.348 32.5714C335.794 32.1377 336.221 31.7161 336.298 31.6348C336.374 31.5534 336.591 31.3368 336.78 31.1534C336.969 30.9698 337.356 30.593 337.64 30.3157C337.924 30.0384 338.529 29.4345 338.984 28.9736C339.439 28.5129 340.04 27.914 340.32 27.6429C340.6 27.3719 340.994 26.9946 341.196 26.8049C341.398 26.6151 342.125 25.9244 342.812 25.2701C343.498 24.6159 344.274 23.9175 344.536 23.7179C344.797 23.5186 345.07 23.3556 345.142 23.356Z" fill="black"/>
<path d="M355.603 40.0541C356.405 39.2617 356.405 39.2619 357.077 39.609C357.447 39.8 357.803 40.0166 357.868 40.0904C357.969 40.2038 357.948 40.3127 357.733 40.7999C357.594 41.1168 356.978 42.2851 356.366 43.3964C355.753 44.5078 355.185 45.5503 355.102 45.7129C355.02 45.8757 354.773 46.3383 354.553 46.741C354.333 47.1437 354.171 47.4928 354.191 47.5167C354.215 47.5377 354.734 46.9668 355.347 46.2457C356.464 44.9316 356.464 44.9317 357.237 45.3328C357.839 45.6458 358.015 45.7829 358.038 45.9566C358.065 46.1655 358.095 46.1755 358.515 46.1108C358.761 46.0729 359.425 46.0044 359.99 45.9585C360.876 45.8866 361.062 45.8404 361.353 45.6215C361.539 45.4821 361.725 45.3681 361.769 45.368C361.812 45.3682 362.064 45.481 362.329 45.6189C362.723 45.824 362.84 45.8484 362.968 45.7519C363.054 45.6869 363.52 45.1414 364.003 44.5398C364.486 43.9382 365.271 42.912 365.749 42.2595C366.226 41.6074 366.68 41.0141 366.758 40.9405C366.879 40.8264 367 40.8597 367.613 41.1751C368.006 41.3771 368.381 41.6011 368.447 41.6727C368.549 41.7834 368.511 41.9817 368.198 42.9695C367.996 43.6109 367.659 44.6903 367.451 45.368C367.242 46.0456 367.072 46.6567 367.071 46.7259C367.07 46.8208 367.135 46.8133 367.336 46.6949C367.591 46.545 367.63 46.5514 368.241 46.8404C368.662 47.0398 369.026 47.1423 369.311 47.1423C369.549 47.1422 370.361 47.005 371.116 46.8374C371.871 46.6697 372.84 46.5095 373.269 46.4811C374.043 46.43 374.057 46.4331 374.828 46.8393C375.257 47.0646 375.696 47.3437 375.804 47.4593C375.912 47.5749 376 47.7393 376 47.8247C375.999 47.9104 375.906 48.2077 375.792 48.4855C375.678 48.7635 375.544 49.0196 375.494 49.0545C375.444 49.089 375.11 48.9524 374.752 48.7508C374.099 48.3836 374.099 48.3837 373.467 48.4961C373.12 48.558 372.407 48.7018 371.882 48.8157C371.358 48.9296 370.616 49.0302 370.235 49.0398C369.644 49.0545 369.466 49.0175 369.032 48.7897C368.753 48.6432 368.509 48.5231 368.487 48.5222C368.468 48.5222 368.06 48.9435 367.581 49.4584C367.103 49.9731 366.622 50.4201 366.512 50.4518C366.376 50.4907 366.064 50.3669 365.532 50.063C365.103 49.818 364.727 49.5447 364.697 49.4558C364.667 49.3672 364.643 49.1541 364.643 48.9824C364.644 48.8107 364.755 48.1932 364.891 47.6104C365.027 47.0294 365.123 46.554 365.105 46.551C365.084 46.5538 364.661 46.9914 364.163 47.5258C363.662 48.0621 363.109 48.5783 362.934 48.6729C362.616 48.8447 362.615 48.8446 361.743 48.357C360.87 47.8695 360.87 47.8695 359.873 47.9913C359.325 48.0583 358.681 48.1162 358.443 48.1198C358.153 48.1241 357.855 48.0445 357.545 47.8806C357.291 47.7458 357.032 47.6353 356.97 47.635C356.908 47.635 356.066 48.5998 355.098 49.7788C354.13 50.9579 352.925 52.4016 352.422 52.9863C351.918 53.571 351.357 54.1664 351.176 54.3095C350.846 54.5699 350.845 54.5699 350.07 54.1379C349.423 53.7769 349.295 53.6679 349.295 53.4745C349.295 53.347 349.451 52.8978 349.642 52.4766C349.833 52.0561 349.988 51.6808 349.989 51.642C349.989 51.6032 350.171 51.2077 350.392 50.7624C350.614 50.3164 350.978 49.5967 351.201 49.163C351.424 48.7293 351.834 47.9308 352.113 47.3887C352.391 46.8467 352.712 46.2327 352.827 46.0243C352.942 45.8164 353.017 45.6238 352.993 45.5958C352.969 45.5686 352.41 46.0314 351.751 46.6239C351.092 47.2165 350.099 48.0868 349.544 48.5581C348.674 49.298 348.516 49.4762 348.386 49.8631C348.303 50.1093 348.183 50.3339 348.118 50.3622C348.053 50.3904 347.59 50.1903 347.087 49.9175C346.586 49.6451 346.175 49.3786 346.174 49.3251C346.174 49.272 346.248 49.0362 346.338 48.8014C346.428 48.5666 346.575 48.3068 346.663 48.224C346.752 48.1413 347.566 47.4348 348.472 46.6541C349.378 45.8735 350.509 44.8792 350.986 44.4449C351.463 44.0106 352.516 43.0235 353.327 42.2512C354.138 41.4788 355.162 40.49 355.603 40.0541Z" fill="black"/>
<path d="M373.237 41.0236C373.351 40.9907 373.617 41.0404 373.833 41.1351C374.048 41.2292 374.393 41.3842 374.601 41.4793C374.963 41.6449 374.977 41.6661 374.93 41.9924C374.904 42.1796 374.82 42.4391 374.746 42.569C374.655 42.7261 374.527 42.8051 374.363 42.8051C374.228 42.805 373.829 42.67 373.477 42.5051C373.126 42.3403 372.806 42.1698 372.768 42.1261C372.729 42.0827 372.773 41.8302 372.865 41.5651C372.983 41.2234 373.091 41.0658 373.237 41.0236Z" fill="black"/>
<path d="M361.097 40.5381C361.186 40.5383 361.593 40.7265 362.003 40.9567C362.714 41.3572 362.745 41.3879 362.698 41.655C362.671 41.8087 362.568 42.0641 362.469 42.2221C362.371 42.38 362.21 42.509 362.114 42.5093C362.017 42.5093 361.61 42.3061 361.209 42.0578C360.809 41.8096 360.481 41.5636 360.48 41.5106C360.48 41.4581 360.544 41.2733 360.621 41.0999C360.699 40.9266 360.801 40.7292 360.848 40.6613C360.896 40.5936 361.008 40.5381 361.097 40.5381Z" fill="black"/>
<path d="M344.753 16.0002C344.802 16.016 345.165 16.158 345.562 16.3157C346.266 16.5959 346.282 16.6095 346.234 16.8817C346.207 17.0351 346.125 17.3012 346.05 17.4731C345.963 17.6715 345.434 18.1994 344.601 18.919C343.879 19.5425 342.837 20.4769 342.286 20.9952C341.736 21.5136 341.103 22.1687 340.881 22.4507C340.476 22.963 340.476 22.9629 339.724 22.6536C338.972 22.3442 338.972 22.344 339.03 21.9871C339.063 21.7906 339.19 21.4186 339.313 21.1604C339.453 20.8654 339.826 20.4072 340.314 19.9282C340.741 19.5088 341.896 18.4469 342.879 17.5686C343.862 16.6905 344.706 15.9849 344.753 16.0002Z" fill="black"/>
<path d="M16 88H376" stroke="black" stroke-opacity="0.8" stroke-width="0.2"/>
<path d="M18.0156 113.078C16.8867 113.078 16.3086 112.289 16.3086 110.781V109.746C16.3086 108.246 16.8906 107.453 18.0078 107.453C18.9922 107.453 19.5859 108.066 19.6133 109.445L18.9375 109.609C18.9258 108.402 18.6094 107.996 18.0156 107.996C17.3438 107.996 17.0195 108.523 17.0195 109.652V110.875C17.0195 112.004 17.3477 112.531 18.0234 112.531C18.6211 112.531 18.957 112.121 18.9727 110.883L19.6641 111.062C19.6289 112.469 18.9961 113.078 18.0156 113.078ZM21.3591 113H20.6794V108.898H21.3747C21.3825 109.137 21.3473 109.32 21.1833 109.84L21.2575 109.871C21.5466 109.098 21.8552 108.836 22.4919 108.793L22.613 109.43C21.613 109.477 21.3591 109.82 21.3591 110.941V113ZM25.3783 111.574L26.0384 111.691C25.9994 112.66 25.4369 113.078 24.6556 113.078C23.7337 113.078 23.2494 112.477 23.2494 111.363V110.535C23.2494 109.422 23.7455 108.82 24.6791 108.82C25.5462 108.82 26.0189 109.363 26.0189 110.367C26.0189 110.59 26.0111 110.871 25.9994 111.098H23.9252V111.441C23.9252 112.219 24.1556 112.598 24.6634 112.598C25.0697 112.598 25.3587 112.34 25.3783 111.574ZM24.6791 109.301C24.1752 109.301 23.9252 109.684 23.9252 110.457V110.594H25.3392V110.273C25.3392 109.617 25.1244 109.301 24.6791 109.301ZM27.792 113.078C27.2256 113.078 26.8975 112.727 26.8975 112.145V112.09C26.8975 111.266 27.4522 110.934 28.1241 110.707L28.7959 110.48V109.961C28.7959 109.512 28.6241 109.297 28.253 109.297C27.7998 109.297 27.6163 109.598 27.6397 110.414L26.9756 110.301C26.9522 109.316 27.3858 108.82 28.2647 108.82C29.0616 108.82 29.4678 109.199 29.4678 109.941V112.203C29.4678 112.508 29.5108 112.547 29.8545 112.566L29.7452 113.066C29.7061 113.074 29.6358 113.078 29.5811 113.078C28.9717 113.078 28.8467 112.793 29.0069 112.113L28.9288 112.094C28.7608 112.734 28.3702 113.078 27.792 113.078ZM28.0186 112.559C28.46 112.559 28.7959 112.148 28.7959 111.523V110.965L28.3545 111.117C27.9131 111.266 27.5889 111.508 27.5889 111.996V112.055C27.5889 112.371 27.7413 112.559 28.0186 112.559ZM31.7722 113.07C31.1628 113.07 30.8503 112.766 30.8503 112.086V109.414H30.3152V108.898H30.8503V107.926L31.53 107.695V108.898H32.5066V109.414H31.53V112.012C31.53 112.379 31.6745 112.516 31.9675 112.516C32.1316 112.516 32.3269 112.469 32.5105 112.383L32.4675 112.906C32.3034 113.004 32.0261 113.07 31.7722 113.07ZM34.1234 108.348H33.3344V107.648H34.1234V108.348ZM34.0688 113H33.3891V108.898H34.0688V113ZM36.4864 113.082C35.5723 113.082 35.0723 112.441 35.0723 111.336V110.562C35.0723 109.453 35.5723 108.816 36.4864 108.816C37.4044 108.816 37.9044 109.453 37.9044 110.562V111.336C37.9044 112.441 37.4005 113.082 36.4864 113.082ZM36.4903 112.594C36.9708 112.594 37.2052 112.207 37.2052 111.402V110.496C37.2052 109.688 36.9708 109.301 36.4903 109.301C36.0059 109.301 35.7716 109.688 35.7716 110.496V111.402C35.7716 112.207 36.0059 112.594 36.4903 112.594ZM39.5837 113H38.9041V108.898H39.5955C39.5916 109.129 39.5447 109.383 39.4041 109.836L39.4783 109.863C39.7439 109.137 40.1267 108.836 40.6619 108.836C41.2556 108.836 41.5642 109.168 41.5642 109.789V113H40.8845V109.918C40.8845 109.543 40.7166 109.336 40.4041 109.336C39.9197 109.336 39.5837 109.918 39.5837 110.75V113ZM44.9581 113H44.2862V107.531H45.1339L46.4855 110.984C46.6183 111.328 46.7003 111.609 46.798 112L46.8761 111.992C46.8292 111.527 46.8019 111.07 46.8019 110.648V107.531H47.4737V113H46.6456L45.3019 109.582C45.1612 109.219 45.0714 108.93 44.9659 108.516L44.8878 108.523C44.9347 108.996 44.9542 109.438 44.9542 109.844L44.9581 113ZM49.3836 113.078C48.8172 113.078 48.4891 112.727 48.4891 112.145V112.09C48.4891 111.266 49.0438 110.934 49.7156 110.707L50.3875 110.48V109.961C50.3875 109.512 50.2156 109.297 49.8445 109.297C49.3914 109.297 49.2078 109.598 49.2313 110.414L48.5672 110.301C48.5438 109.316 48.9773 108.82 49.8563 108.82C50.6531 108.82 51.0594 109.199 51.0594 109.941V112.203C51.0594 112.508 51.1023 112.547 51.4461 112.566L51.3367 113.066C51.2977 113.074 51.2273 113.078 51.1727 113.078C50.5633 113.078 50.4383 112.793 50.5984 112.113L50.5203 112.094C50.3523 112.734 49.9617 113.078 49.3836 113.078ZM49.6102 112.559C50.0516 112.559 50.3875 112.148 50.3875 111.523V110.965L49.9461 111.117C49.5047 111.266 49.1805 111.508 49.1805 111.996V112.055C49.1805 112.371 49.3328 112.559 49.6102 112.559ZM52.9653 113H52.2856V108.898H52.977C52.9848 109.105 52.9419 109.305 52.7856 109.816L52.8598 109.844C53.145 109.105 53.4692 108.836 53.9536 108.836C54.4888 108.836 54.727 109.195 54.5903 109.836L54.6645 109.859C54.9028 109.125 55.2739 108.836 55.7817 108.836C56.3325 108.836 56.5981 109.145 56.5981 109.777V113H55.9184V109.887C55.9184 109.527 55.7778 109.344 55.4927 109.344C55.0473 109.344 54.7856 109.949 54.7856 110.73V113H54.1059V109.895C54.1059 109.539 53.9575 109.34 53.6958 109.34C53.2622 109.34 52.9653 109.922 52.9653 110.75V113ZM59.7111 111.574L60.3713 111.691C60.3322 112.66 59.7697 113.078 58.9884 113.078C58.0666 113.078 57.5822 112.477 57.5822 111.363V110.535C57.5822 109.422 58.0783 108.82 59.0119 108.82C59.8791 108.82 60.3517 109.363 60.3517 110.367C60.3517 110.59 60.3439 110.871 60.3322 111.098H58.258V111.441C58.258 112.219 58.4884 112.598 58.9963 112.598C59.4025 112.598 59.6916 112.34 59.7111 111.574ZM59.0119 109.301C58.508 109.301 58.258 109.684 58.258 110.457V110.594H59.672V110.273C59.672 109.617 59.4572 109.301 59.0119 109.301ZM62.1405 109.723H61.2577V108.898H62.1405V109.723ZM62.1405 113H61.2577V112.176H62.1405V113Z" fill="black"/>
<path d="M17.1367 129H16.4375V123.531H17.8672C18.8516 123.531 19.3594 124.031 19.3594 125.004V125.398C19.3594 126.355 18.8477 126.859 17.8672 126.859H17.1367V129ZM17.1367 124.078V126.312H17.7852C18.3789 126.312 18.6641 126.027 18.6641 125.414V124.984C18.6641 124.363 18.3789 124.078 17.7852 124.078H17.1367ZM20.9528 129H20.2731V124.898H20.9684C20.9762 125.137 20.9411 125.32 20.777 125.84L20.8512 125.871C21.1403 125.098 21.4489 124.836 22.0856 124.793L22.2067 125.43C21.2067 125.477 20.9528 125.82 20.9528 126.941V129ZM24.2533 129.082C23.3392 129.082 22.8392 128.441 22.8392 127.336V126.562C22.8392 125.453 23.3392 124.816 24.2533 124.816C25.1712 124.816 25.6712 125.453 25.6712 126.562V127.336C25.6712 128.441 25.1673 129.082 24.2533 129.082ZM24.2572 128.594C24.7377 128.594 24.972 128.207 24.972 127.402V126.496C24.972 125.688 24.7377 125.301 24.2572 125.301C23.7728 125.301 23.5384 125.688 23.5384 126.496V127.402C23.5384 128.207 23.7728 128.594 24.2572 128.594ZM27.6788 129.062C26.9444 129.062 26.5498 128.48 26.5498 127.387V126.512C26.5498 125.418 26.9444 124.836 27.6748 124.836C28.2647 124.836 28.6084 125.195 28.7881 125.793L28.8663 125.762C28.7295 125.297 28.6827 124.977 28.6827 124.633V123.531H29.3623V129H28.6983C28.6983 128.828 28.753 128.555 28.8702 128.133L28.792 128.109C28.5967 128.727 28.2569 129.062 27.6788 129.062ZM27.917 128.586C28.4092 128.586 28.6827 128.117 28.6827 127.262V126.641C28.6827 125.785 28.4092 125.309 27.917 125.309C27.4639 125.309 27.2413 125.699 27.2413 126.504V127.398C27.2413 128.199 27.4639 128.586 27.917 128.586ZM32.448 124.898H33.1277V129H32.4362C32.4441 128.77 32.487 128.516 32.6277 128.062L32.5534 128.035C32.2917 128.762 31.905 129.062 31.3698 129.062C30.78 129.062 30.4675 128.73 30.4675 128.109V124.898H31.1511V127.98C31.1511 128.355 31.3191 128.562 31.6277 128.562C32.112 128.562 32.448 127.98 32.448 127.148V124.898ZM35.5375 129.078C34.6117 129.078 34.1313 128.457 34.1313 127.289V126.566C34.1313 125.422 34.6234 124.82 35.5492 124.82C36.35 124.82 36.8461 125.285 36.8734 126.332L36.1938 126.441C36.1781 125.602 35.9711 125.301 35.5414 125.301C35.0609 125.301 34.8266 125.688 34.8266 126.488V127.363C34.8266 128.195 35.0609 128.594 35.5453 128.594C35.975 128.594 36.1977 128.312 36.2133 127.477L36.9086 127.586C36.8734 128.641 36.3422 129.082 35.5375 129.078ZM39.0059 129.07C38.3966 129.07 38.0841 128.766 38.0841 128.086V125.414H37.5489V124.898H38.0841V123.926L38.7638 123.695V124.898H39.7403V125.414H38.7638V128.012C38.7638 128.379 38.9083 128.516 39.2013 128.516C39.3653 128.516 39.5606 128.469 39.7442 128.383L39.7013 128.906C39.5372 129.004 39.2598 129.07 39.0059 129.07ZM41.3572 124.348H40.5681V123.648H41.3572V124.348ZM41.3025 129H40.6228V124.898H41.3025V129ZM43.7202 129.082C42.8061 129.082 42.3061 128.441 42.3061 127.336V126.562C42.3061 125.453 42.8061 124.816 43.7202 124.816C44.6381 124.816 45.1381 125.453 45.1381 126.562V127.336C45.1381 128.441 44.6342 129.082 43.7202 129.082ZM43.7241 128.594C44.2045 128.594 44.4389 128.207 44.4389 127.402V126.496C44.4389 125.688 44.2045 125.301 43.7241 125.301C43.2397 125.301 43.0053 125.688 43.0053 126.496V127.402C43.0053 128.207 43.2397 128.594 43.7241 128.594ZM46.8175 129H46.1378V124.898H46.8292C46.8253 125.129 46.7784 125.383 46.6378 125.836L46.712 125.863C46.9777 125.137 47.3605 124.836 47.8956 124.836C48.4894 124.836 48.798 125.168 48.798 125.789V129H48.1183V125.918C48.1183 125.543 47.9503 125.336 47.6378 125.336C47.1534 125.336 46.8175 125.918 46.8175 126.75V129ZM52.852 129H51.52V123.531H52.852C54.102 123.531 54.7036 124.273 54.7036 125.801V126.738C54.7036 128.262 54.102 129 52.852 129ZM52.2192 124.082V128.445H52.8286C53.6411 128.445 53.9888 127.969 53.9888 126.859V125.68C53.9888 124.562 53.6411 124.082 52.8286 124.082H52.2192ZM56.4845 129.078C55.9181 129.078 55.59 128.727 55.59 128.145V128.09C55.59 127.266 56.1447 126.934 56.8166 126.707L57.4884 126.48V125.961C57.4884 125.512 57.3166 125.297 56.9455 125.297C56.4923 125.297 56.3088 125.598 56.3322 126.414L55.6681 126.301C55.6447 125.316 56.0783 124.82 56.9572 124.82C57.7541 124.82 58.1603 125.199 58.1603 125.941V128.203C58.1603 128.508 58.2033 128.547 58.547 128.566L58.4377 129.066C58.3986 129.074 58.3283 129.078 58.2736 129.078C57.6642 129.078 57.5392 128.793 57.6994 128.113L57.6213 128.094C57.4533 128.734 57.0627 129.078 56.4845 129.078ZM56.7111 128.559C57.1525 128.559 57.4884 128.148 57.4884 127.523V126.965L57.047 127.117C56.6056 127.266 56.2814 127.508 56.2814 127.996V128.055C56.2814 128.371 56.4338 128.559 56.7111 128.559ZM60.4647 129.07C59.8553 129.07 59.5428 128.766 59.5428 128.086V125.414H59.0077V124.898H59.5428V123.926L60.2225 123.695V124.898H61.1991V125.414H60.2225V128.012C60.2225 128.379 60.367 128.516 60.66 128.516C60.8241 128.516 61.0194 128.469 61.203 128.383L61.16 128.906C60.9959 129.004 60.7186 129.07 60.4647 129.07ZM64.0542 127.574L64.7144 127.691C64.6753 128.66 64.1128 129.078 63.3316 129.078C62.4097 129.078 61.9253 128.477 61.9253 127.363V126.535C61.9253 125.422 62.4214 124.82 63.355 124.82C64.2222 124.82 64.6948 125.363 64.6948 126.367C64.6948 126.59 64.687 126.871 64.6753 127.098H62.6011V127.441C62.6011 128.219 62.8316 128.598 63.3394 128.598C63.7456 128.598 64.0347 128.34 64.0542 127.574ZM63.355 125.301C62.8511 125.301 62.6011 125.684 62.6011 126.457V126.594H64.0152V126.273C64.0152 125.617 63.8003 125.301 63.355 125.301ZM66.4836 125.723H65.6008V124.898H66.4836V125.723ZM66.4836 129H65.6008V128.176H66.4836V129Z" fill="black"/>
<path d="M19.0273 145H16.4375V139.531H18.957V140.098H17.1367V141.84H18.7969V142.359H17.1367V144.43H19.0273V145ZM20.945 145.062C20.2106 145.062 19.8161 144.48 19.8161 143.387V142.512C19.8161 141.418 20.2106 140.836 20.9411 140.836C21.5309 140.836 21.8747 141.195 22.0544 141.793L22.1325 141.762C21.9958 141.297 21.9489 140.977 21.9489 140.633V139.531H22.6286V145H21.9645C21.9645 144.828 22.0192 144.555 22.1364 144.133L22.0583 144.109C21.863 144.727 21.5231 145.062 20.945 145.062ZM21.1833 144.586C21.6755 144.586 21.9489 144.117 21.9489 143.262V142.641C21.9489 141.785 21.6755 141.309 21.1833 141.309C20.7302 141.309 20.5075 141.699 20.5075 142.504V143.398C20.5075 144.199 20.7302 144.586 21.1833 144.586ZM24.4837 140.348H23.6947V139.648H24.4837V140.348ZM24.4291 145H23.7494V140.898H24.4291V145ZM26.7413 145.07C26.1319 145.07 25.8194 144.766 25.8194 144.086V141.414H25.2842V140.898H25.8194V139.926L26.4991 139.695V140.898H27.4756V141.414H26.4991V144.012C26.4991 144.379 26.6436 144.516 26.9366 144.516C27.1006 144.516 27.2959 144.469 27.4795 144.383L27.4366 144.906C27.2725 145.004 26.9952 145.07 26.7413 145.07ZM29.0925 140.348H28.3034V139.648H29.0925V140.348ZM29.0378 145H28.3581V140.898H29.0378V145ZM31.4555 145.082C30.5414 145.082 30.0414 144.441 30.0414 143.336V142.562C30.0414 141.453 30.5414 140.816 31.4555 140.816C32.3734 140.816 32.8734 141.453 32.8734 142.562V143.336C32.8734 144.441 32.3695 145.082 31.4555 145.082ZM31.4594 144.594C31.9398 144.594 32.1742 144.207 32.1742 143.402V142.496C32.1742 141.688 31.9398 141.301 31.4594 141.301C30.975 141.301 30.7406 141.688 30.7406 142.496V143.402C30.7406 144.207 30.975 144.594 31.4594 144.594ZM34.5528 145H33.8731V140.898H34.5645C34.5606 141.129 34.5138 141.383 34.3731 141.836L34.4473 141.863C34.713 141.137 35.0958 140.836 35.6309 140.836C36.2247 140.836 36.5333 141.168 36.5333 141.789V145H35.8536V141.918C35.8536 141.543 35.6856 141.336 35.3731 141.336C34.8888 141.336 34.5528 141.918 34.5528 142.75V145ZM39.9272 145H39.2553V139.531H40.103L41.4545 142.984C41.5873 143.328 41.6694 143.609 41.767 144L41.8452 143.992C41.7983 143.527 41.7709 143.07 41.7709 142.648V139.531H42.4428V145H41.6147L40.2709 141.582C40.1303 141.219 40.0405 140.93 39.935 140.516L39.8569 140.523C39.9037 140.996 39.9233 141.438 39.9233 141.844L39.9272 145ZM45.5636 140.898H46.2433V145H45.5519C45.5597 144.77 45.6027 144.516 45.7433 144.062L45.6691 144.035C45.4073 144.762 45.0206 145.062 44.4855 145.062C43.8956 145.062 43.5831 144.73 43.5831 144.109V140.898H44.2667V143.98C44.2667 144.355 44.4347 144.562 44.7433 144.562C45.2277 144.562 45.5636 143.98 45.5636 143.148V140.898ZM48.0438 145H47.3641V140.898H48.0555C48.0633 141.105 48.0203 141.305 47.8641 141.816L47.9383 141.844C48.2234 141.105 48.5477 140.836 49.032 140.836C49.5672 140.836 49.8055 141.195 49.6688 141.836L49.743 141.859C49.9813 141.125 50.3523 140.836 50.8602 140.836C51.4109 140.836 51.6766 141.145 51.6766 141.777V145H50.9969V141.887C50.9969 141.527 50.8563 141.344 50.5711 141.344C50.1258 141.344 49.8641 141.949 49.8641 142.73V145H49.1844V141.895C49.1844 141.539 49.0359 141.34 48.7742 141.34C48.3406 141.34 48.0438 141.922 48.0438 142.75V145ZM54.4653 145.062C53.8833 145.062 53.5473 144.727 53.352 144.109L53.2739 144.133C53.3911 144.555 53.4419 144.828 53.4419 145H52.7778V139.531H53.4575V140.633C53.4575 140.977 53.4106 141.297 53.2778 141.762L53.3559 141.793C53.5317 141.195 53.8794 140.836 54.4692 140.836C55.1958 140.836 55.5903 141.418 55.5903 142.512V143.387C55.5903 144.48 55.1958 145.062 54.4653 145.062ZM54.2231 144.586C54.6763 144.586 54.8989 144.199 54.8989 143.398V142.504C54.8989 141.699 54.6763 141.309 54.2231 141.309C53.7309 141.309 53.4575 141.785 53.4575 142.641V143.262C53.4575 144.117 53.7309 144.586 54.2231 144.586ZM58.6017 143.574L59.2619 143.691C59.2228 144.66 58.6603 145.078 57.8791 145.078C56.9572 145.078 56.4728 144.477 56.4728 143.363V142.535C56.4728 141.422 56.9689 140.82 57.9025 140.82C58.7697 140.82 59.2423 141.363 59.2423 142.367C59.2423 142.59 59.2345 142.871 59.2228 143.098H57.1486V143.441C57.1486 144.219 57.3791 144.598 57.8869 144.598C58.2931 144.598 58.5822 144.34 58.6017 143.574ZM57.9025 141.301C57.3986 141.301 57.1486 141.684 57.1486 142.457V142.594H58.5627V142.273C58.5627 141.617 58.3478 141.301 57.9025 141.301ZM60.9412 145H60.2616V140.898H60.9569C60.9647 141.137 60.9295 141.32 60.7655 141.84L60.8397 141.871C61.1287 141.098 61.4373 140.836 62.0741 140.793L62.1952 141.43C61.1952 141.477 60.9412 141.82 60.9412 142.941V145ZM63.898 141.723H63.0152V140.898H63.898V141.723ZM63.898 145H63.0152V144.176H63.898V145Z" fill="black"/>
<path d="M17.0938 161H16.4375V155.531H17.375L18.2031 158.578C18.3203 159.004 18.4062 159.418 18.4805 159.953H18.5586C18.6406 159.418 18.7227 159 18.8359 158.578L19.6562 155.531H20.6055V161H19.918V157.984C19.918 157.539 19.9336 157.137 19.9805 156.59L19.9023 156.582L18.7773 161H18.2422L17.1211 156.578L17.043 156.586C17.082 157.133 17.0938 157.539 17.0938 157.984V161ZM23.0505 161.082C22.1364 161.082 21.6364 160.441 21.6364 159.336V158.562C21.6364 157.453 22.1364 156.816 23.0505 156.816C23.9684 156.816 24.4684 157.453 24.4684 158.562V159.336C24.4684 160.441 23.9645 161.082 23.0505 161.082ZM23.0544 160.594C23.5348 160.594 23.7692 160.207 23.7692 159.402V158.496C23.7692 157.688 23.5348 157.301 23.0544 157.301C22.57 157.301 22.3356 157.688 22.3356 158.496V159.402C22.3356 160.207 22.57 160.594 23.0544 160.594ZM26.4759 161.062C25.7416 161.062 25.347 160.48 25.347 159.387V158.512C25.347 157.418 25.7416 156.836 26.472 156.836C27.0619 156.836 27.4056 157.195 27.5853 157.793L27.6634 157.762C27.5267 157.297 27.4798 156.977 27.4798 156.633V155.531H28.1595V161H27.4955C27.4955 160.828 27.5502 160.555 27.6673 160.133L27.5892 160.109C27.3939 160.727 27.0541 161.062 26.4759 161.062ZM26.7142 160.586C27.2064 160.586 27.4798 160.117 27.4798 159.262V158.641C27.4798 157.785 27.2064 157.309 26.7142 157.309C26.2611 157.309 26.0384 157.699 26.0384 158.504V159.398C26.0384 160.199 26.2611 160.586 26.7142 160.586ZM31.292 159.574L31.9522 159.691C31.9131 160.66 31.3506 161.078 30.5694 161.078C29.6475 161.078 29.1631 160.477 29.1631 159.363V158.535C29.1631 157.422 29.6592 156.82 30.5928 156.82C31.46 156.82 31.9327 157.363 31.9327 158.367C31.9327 158.59 31.9248 158.871 31.9131 159.098H29.8389V159.441C29.8389 160.219 30.0694 160.598 30.5772 160.598C30.9834 160.598 31.2725 160.34 31.292 159.574ZM30.5928 157.301C30.0889 157.301 29.8389 157.684 29.8389 158.457V158.594H31.253V158.273C31.253 157.617 31.0381 157.301 30.5928 157.301ZM33.6316 161H32.9519V155.531H33.6316V161ZM37.9513 161.078C36.8223 161.078 36.2442 160.289 36.2442 158.781V157.746C36.2442 156.246 36.8263 155.453 37.9434 155.453C38.9278 155.453 39.5216 156.066 39.5489 157.445L38.8731 157.609C38.8614 156.402 38.545 155.996 37.9513 155.996C37.2794 155.996 36.9552 156.523 36.9552 157.652V158.875C36.9552 160.004 37.2833 160.531 37.9591 160.531C38.5567 160.531 38.8927 160.121 38.9083 158.883L39.5997 159.062C39.5645 160.469 38.9317 161.078 37.9513 161.078ZM41.908 161.082C40.9939 161.082 40.4939 160.441 40.4939 159.336V158.562C40.4939 157.453 40.9939 156.816 41.908 156.816C42.8259 156.816 43.3259 157.453 43.3259 158.562V159.336C43.3259 160.441 42.822 161.082 41.908 161.082ZM41.9119 160.594C42.3923 160.594 42.6267 160.207 42.6267 159.402V158.496C42.6267 157.688 42.3923 157.301 41.9119 157.301C41.4275 157.301 41.1931 157.688 41.1931 158.496V159.402C41.1931 160.207 41.4275 160.594 41.9119 160.594ZM45.3334 161.062C44.5991 161.062 44.2045 160.48 44.2045 159.387V158.512C44.2045 157.418 44.5991 156.836 45.3295 156.836C45.9194 156.836 46.2631 157.195 46.4428 157.793L46.5209 157.762C46.3842 157.297 46.3373 156.977 46.3373 156.633V155.531H47.017V161H46.353C46.353 160.828 46.4077 160.555 46.5248 160.133L46.4467 160.109C46.2514 160.727 45.9116 161.062 45.3334 161.062ZM45.5717 160.586C46.0639 160.586 46.3373 160.117 46.3373 159.262V158.641C46.3373 157.785 46.0639 157.309 45.5717 157.309C45.1186 157.309 44.8959 157.699 44.8959 158.504V159.398C44.8959 160.199 45.1186 160.586 45.5717 160.586ZM50.1495 159.574L50.8097 159.691C50.7706 160.66 50.2081 161.078 49.4269 161.078C48.505 161.078 48.0206 160.477 48.0206 159.363V158.535C48.0206 157.422 48.5167 156.82 49.4503 156.82C50.3175 156.82 50.7902 157.363 50.7902 158.367C50.7902 158.59 50.7823 158.871 50.7706 159.098H48.6964V159.441C48.6964 160.219 48.9269 160.598 49.4347 160.598C49.8409 160.598 50.13 160.34 50.1495 159.574ZM49.4503 157.301C48.9464 157.301 48.6964 157.684 48.6964 158.457V158.594H50.1105V158.273C50.1105 157.617 49.8956 157.301 49.4503 157.301ZM52.5789 157.723H51.6961V156.898H52.5789V157.723ZM52.5789 161H51.6961V160.176H52.5789V161Z" fill="black"/>
<path d="M17.9922 177.082C16.9492 177.082 16.4219 176.594 16.4219 175.605V171.531H17.1211V175.555C17.1211 176.219 17.4102 176.535 17.9922 176.535C18.5742 176.535 18.8633 176.219 18.8633 175.555V171.531H19.5625V175.605C19.5625 176.594 19.0352 177.082 17.9922 177.082ZM21.3825 177H20.7028V172.898H21.3942C21.3903 173.129 21.3434 173.383 21.2028 173.836L21.277 173.863C21.5427 173.137 21.9255 172.836 22.4606 172.836C23.0544 172.836 23.363 173.168 23.363 173.789V177H22.6833V173.918C22.6833 173.543 22.5153 173.336 22.2028 173.336C21.7184 173.336 21.3825 173.918 21.3825 174.75V177ZM25.2025 172.348H24.4134V171.648H25.2025V172.348ZM25.1478 177H24.4681V172.898H25.1478V177ZM27.2803 172.836C27.8584 172.836 28.1983 173.172 28.3936 173.789L28.4717 173.766C28.3545 173.344 28.2998 173.07 28.2998 172.898H28.9639V178.367H28.2842V177.266C28.2842 176.922 28.3311 176.602 28.4678 176.137L28.3897 176.105C28.21 176.703 27.8663 177.062 27.2764 177.062C26.5459 177.062 26.1514 176.48 26.1514 175.387V174.512C26.1514 173.418 26.5459 172.836 27.2803 172.836ZM27.5186 173.312C27.0655 173.312 26.8428 173.699 26.8428 174.5V175.395C26.8428 176.199 27.0655 176.59 27.5186 176.59C28.0108 176.59 28.2842 176.113 28.2842 175.258V174.637C28.2842 173.781 28.0108 173.312 27.5186 173.312ZM32.0495 172.898H32.7292V177H32.0378C32.0456 176.77 32.0886 176.516 32.2292 176.062L32.155 176.035C31.8933 176.762 31.5066 177.062 30.9714 177.062C30.3816 177.062 30.0691 176.73 30.0691 176.109V172.898H30.7527V175.98C30.7527 176.355 30.9206 176.562 31.2292 176.562C31.7136 176.562 32.0495 175.98 32.0495 175.148V172.898ZM35.8617 175.574L36.5219 175.691C36.4828 176.66 35.9203 177.078 35.1391 177.078C34.2172 177.078 33.7328 176.477 33.7328 175.363V174.535C33.7328 173.422 34.2289 172.82 35.1625 172.82C36.0297 172.82 36.5023 173.363 36.5023 174.367C36.5023 174.59 36.4945 174.871 36.4828 175.098H34.4086V175.441C34.4086 176.219 34.6391 176.598 35.1469 176.598C35.5531 176.598 35.8422 176.34 35.8617 175.574ZM35.1625 173.301C34.6586 173.301 34.4086 173.684 34.4086 174.457V174.594H35.8227V174.273C35.8227 173.617 35.6078 173.301 35.1625 173.301ZM39.8377 177H39.1384V171.531H39.8377V177ZM42.3686 177H41.0366V171.531H42.3686C43.6186 171.531 44.2202 172.273 44.2202 173.801V174.738C44.2202 176.262 43.6186 177 42.3686 177ZM41.7358 172.082V176.445H42.3452C43.1577 176.445 43.5053 175.969 43.5053 174.859V173.68C43.5053 172.562 43.1577 172.082 42.3452 172.082H41.7358ZM46.0167 173.723H45.1339V172.898H46.0167V173.723ZM46.0167 177H45.1339V176.176H46.0167V177Z" fill="black"/>
<path d="M113.844 113.781H112.438V107.336H113.844V107.898H113.117V113.219H113.844V113.781ZM115.418 113H114.718V107.531H116.148C117.132 107.531 117.64 108.031 117.64 109.004V109.398C117.64 110.355 117.129 110.859 116.148 110.859H115.418V113ZM115.418 108.078V110.312H116.066C116.66 110.312 116.945 110.027 116.945 109.414V108.984C116.945 108.363 116.66 108.078 116.066 108.078H115.418ZM119.234 113H118.554V108.898H119.249C119.257 109.137 119.222 109.32 119.058 109.84L119.132 109.871C119.421 109.098 119.73 108.836 120.367 108.793L120.488 109.43C119.488 109.477 119.234 109.82 119.234 110.941V113ZM122.534 113.082C121.62 113.082 121.12 112.441 121.12 111.336V110.562C121.12 109.453 121.62 108.816 122.534 108.816C123.452 108.816 123.952 109.453 123.952 110.562V111.336C123.952 112.441 123.448 113.082 122.534 113.082ZM122.538 112.594C123.019 112.594 123.253 112.207 123.253 111.402V110.496C123.253 109.688 123.019 109.301 122.538 109.301C122.054 109.301 121.819 109.688 121.819 110.496V111.402C121.819 112.207 122.054 112.594 122.538 112.594ZM125.96 113.062C125.225 113.062 124.831 112.48 124.831 111.387V110.512C124.831 109.418 125.225 108.836 125.956 108.836C126.546 108.836 126.889 109.195 127.069 109.793L127.147 109.762C127.01 109.297 126.964 108.977 126.964 108.633V107.531H127.643V113H126.979C126.979 112.828 127.034 112.555 127.151 112.133L127.073 112.109C126.878 112.727 126.538 113.062 125.96 113.062ZM126.198 112.586C126.69 112.586 126.964 112.117 126.964 111.262V110.641C126.964 109.785 126.69 109.309 126.198 109.309C125.745 109.309 125.522 109.699 125.522 110.504V111.398C125.522 112.199 125.745 112.586 126.198 112.586ZM130.729 108.898H131.409V113H130.717C130.725 112.77 130.768 112.516 130.909 112.062L130.834 112.035C130.573 112.762 130.186 113.062 129.651 113.062C129.061 113.062 128.748 112.73 128.748 112.109V108.898H129.432V111.98C129.432 112.355 129.6 112.562 129.909 112.562C130.393 112.562 130.729 111.98 130.729 111.148V108.898ZM133.818 113.078C132.893 113.078 132.412 112.457 132.412 111.289V110.566C132.412 109.422 132.904 108.82 133.83 108.82C134.631 108.82 135.127 109.285 135.154 110.332L134.475 110.441C134.459 109.602 134.252 109.301 133.822 109.301C133.342 109.301 133.108 109.688 133.108 110.488V111.363C133.108 112.195 133.342 112.594 133.826 112.594C134.256 112.594 134.479 112.312 134.494 111.477L135.19 111.586C135.154 112.641 134.623 113.082 133.818 113.078ZM137.287 113.07C136.677 113.07 136.365 112.766 136.365 112.086V109.414H135.83V108.898H136.365V107.926L137.045 107.695V108.898H138.021V109.414H137.045V112.012C137.045 112.379 137.189 112.516 137.482 112.516C137.646 112.516 137.842 112.469 138.025 112.383L137.982 112.906C137.818 113.004 137.541 113.07 137.287 113.07ZM141.192 113H140.521V107.531H141.368L142.72 110.984C142.853 111.328 142.935 111.609 143.032 112L143.11 111.992C143.064 111.527 143.036 111.07 143.036 110.648V107.531H143.708V113H142.88L141.536 109.582C141.396 109.219 141.306 108.93 141.2 108.516L141.122 108.523C141.169 108.996 141.189 109.438 141.189 109.844L141.192 113ZM145.618 113.078C145.052 113.078 144.723 112.727 144.723 112.145V112.09C144.723 111.266 145.278 110.934 145.95 110.707L146.622 110.48V109.961C146.622 109.512 146.45 109.297 146.079 109.297C145.626 109.297 145.442 109.598 145.466 110.414L144.802 110.301C144.778 109.316 145.212 108.82 146.091 108.82C146.888 108.82 147.294 109.199 147.294 109.941V112.203C147.294 112.508 147.337 112.547 147.68 112.566L147.571 113.066C147.532 113.074 147.462 113.078 147.407 113.078C146.798 113.078 146.673 112.793 146.833 112.113L146.755 112.094C146.587 112.734 146.196 113.078 145.618 113.078ZM145.845 112.559C146.286 112.559 146.622 112.148 146.622 111.523V110.965L146.18 111.117C145.739 111.266 145.415 111.508 145.415 111.996V112.055C145.415 112.371 145.567 112.559 145.845 112.559ZM149.2 113H148.52V108.898H149.211C149.219 109.105 149.176 109.305 149.02 109.816L149.094 109.844C149.379 109.105 149.704 108.836 150.188 108.836C150.723 108.836 150.961 109.195 150.825 109.836L150.899 109.859C151.137 109.125 151.508 108.836 152.016 108.836C152.567 108.836 152.833 109.145 152.833 109.777V113H152.153V109.887C152.153 109.527 152.012 109.344 151.727 109.344C151.282 109.344 151.02 109.949 151.02 110.73V113H150.34V109.895C150.34 109.539 150.192 109.34 149.93 109.34C149.497 109.34 149.2 109.922 149.2 110.75V113ZM155.945 111.574L156.606 111.691C156.567 112.66 156.004 113.078 155.223 113.078C154.301 113.078 153.817 112.477 153.817 111.363V110.535C153.817 109.422 154.313 108.82 155.246 108.82C156.113 108.82 156.586 109.363 156.586 110.367C156.586 110.59 156.578 110.871 156.567 111.098H154.492V111.441C154.492 112.219 154.723 112.598 155.231 112.598C155.637 112.598 155.926 112.34 155.945 111.574ZM155.246 109.301C154.742 109.301 154.492 109.684 154.492 110.457V110.594H155.906V110.273C155.906 109.617 155.692 109.301 155.246 109.301ZM159.453 113.781H158.785L160.25 107.336H160.917L159.453 113.781ZM164.831 113.078C163.702 113.078 163.124 112.289 163.124 110.781V109.746C163.124 108.246 163.706 107.453 164.823 107.453C165.807 107.453 166.401 108.066 166.429 109.445L165.753 109.609C165.741 108.402 165.425 107.996 164.831 107.996C164.159 107.996 163.835 108.523 163.835 109.652V110.875C163.835 112.004 164.163 112.531 164.839 112.531C165.436 112.531 165.772 112.121 165.788 110.883L166.479 111.062C166.444 112.469 165.811 113.078 164.831 113.078ZM168.788 113.082C167.874 113.082 167.374 112.441 167.374 111.336V110.562C167.374 109.453 167.874 108.816 168.788 108.816C169.706 108.816 170.206 109.453 170.206 110.562V111.336C170.206 112.441 169.702 113.082 168.788 113.082ZM168.792 112.594C169.272 112.594 169.506 112.207 169.506 111.402V110.496C169.506 109.688 169.272 109.301 168.792 109.301C168.307 109.301 168.073 109.688 168.073 110.496V111.402C168.073 112.207 168.307 112.594 168.792 112.594ZM171.885 113H171.205V107.531H171.885V113ZM173.689 113H173.01V107.531H173.689V113ZM176.826 111.574L177.486 111.691C177.447 112.66 176.884 113.078 176.103 113.078C175.181 113.078 174.697 112.477 174.697 111.363V110.535C174.697 109.422 175.193 108.82 176.127 108.82C176.994 108.82 177.466 109.363 177.466 110.367C177.466 110.59 177.459 110.871 177.447 111.098H175.373V111.441C175.373 112.219 175.603 112.598 176.111 112.598C176.517 112.598 176.806 112.34 176.826 111.574ZM176.127 109.301C175.623 109.301 175.373 109.684 175.373 110.457V110.594H176.787V110.273C176.787 109.617 176.572 109.301 176.127 109.301ZM179.775 113.078C178.849 113.078 178.368 112.457 178.368 111.289V110.566C178.368 109.422 178.861 108.82 179.786 108.82C180.587 108.82 181.083 109.285 181.111 110.332L180.431 110.441C180.415 109.602 180.208 109.301 179.779 109.301C179.298 109.301 179.064 109.688 179.064 110.488V111.363C179.064 112.195 179.298 112.594 179.783 112.594C180.212 112.594 180.435 112.312 180.45 111.477L181.146 111.586C181.111 112.641 180.579 113.082 179.775 113.078ZM183.243 113.07C182.634 113.07 182.321 112.766 182.321 112.086V109.414H181.786V108.898H182.321V107.926L183.001 107.695V108.898H183.978V109.414H183.001V112.012C183.001 112.379 183.145 112.516 183.438 112.516C183.603 112.516 183.798 112.469 183.981 112.383L183.938 112.906C183.774 113.004 183.497 113.07 183.243 113.07ZM185.594 108.348H184.805V107.648H185.594V108.348ZM185.54 113H184.86V108.898H185.54V113ZM187.957 113.082C187.043 113.082 186.543 112.441 186.543 111.336V110.562C186.543 109.453 187.043 108.816 187.957 108.816C188.875 108.816 189.375 109.453 189.375 110.562V111.336C189.375 112.441 188.871 113.082 187.957 113.082ZM187.961 112.594C188.442 112.594 188.676 112.207 188.676 111.402V110.496C188.676 109.688 188.442 109.301 187.961 109.301C187.477 109.301 187.243 109.688 187.243 110.496V111.402C187.243 112.207 187.477 112.594 187.961 112.594ZM191.055 113H190.375V108.898H191.066C191.062 109.129 191.016 109.383 190.875 109.836L190.949 109.863C191.215 109.137 191.598 108.836 192.133 108.836C192.727 108.836 193.035 109.168 193.035 109.789V113H192.355V109.918C192.355 109.543 192.188 109.336 191.875 109.336C191.391 109.336 191.055 109.918 191.055 110.75V113ZM193.754 107.336H195.16V113.781H193.754V113.219H194.48V107.898H193.754V107.336Z" fill="black"/>
<path d="M113.844 129.781H112.438V123.336H113.844V123.898H113.117V129.219H113.844V129.781ZM115.375 129H114.718V123.531H115.656L116.484 126.578C116.601 127.004 116.687 127.418 116.761 127.953H116.84C116.922 127.418 117.004 127 117.117 126.578L117.937 123.531H118.886V129H118.199V125.984C118.199 125.539 118.215 125.137 118.261 124.59L118.183 124.582L117.058 129H116.523L115.402 124.578L115.324 124.586C115.363 125.133 115.375 125.539 115.375 125.984V129ZM120.734 129H120.077V123.531H121.015L121.843 126.578C121.96 127.004 122.046 127.418 122.12 127.953H122.199C122.281 127.418 122.363 127 122.476 126.578L123.296 123.531H124.245V129H123.558V125.984C123.558 125.539 123.574 125.137 123.62 124.59L123.542 124.582L122.417 129H121.882L120.761 124.578L120.683 124.586C120.722 125.133 120.734 125.539 120.734 125.984V129ZM126.167 129H125.284V128.176H126.167V129ZM128.542 129H127.21V123.531H128.542C129.792 123.531 130.393 124.273 130.393 125.801V126.738C130.393 128.262 129.792 129 128.542 129ZM127.909 124.082V128.445H128.518C129.331 128.445 129.678 127.969 129.678 126.859V125.68C129.678 124.562 129.331 124.082 128.518 124.082H127.909ZM132.791 129H131.459V123.531H132.791C134.041 123.531 134.643 124.273 134.643 125.801V126.738C134.643 128.262 134.041 129 132.791 129ZM132.159 124.082V128.445H132.768C133.58 128.445 133.928 127.969 133.928 126.859V125.68C133.928 124.562 133.58 124.082 132.768 124.082H132.159ZM136.291 129H135.408V128.176H136.291V129ZM138.51 129H137.806V126.797L136.459 123.531H137.205L137.818 125.07C137.943 125.383 138.033 125.68 138.135 126.07H138.213C138.318 125.68 138.412 125.391 138.533 125.078L139.146 123.531H139.861L138.51 126.797V129ZM142.47 129H141.767V126.797L140.419 123.531H141.165L141.779 125.07C141.904 125.383 141.994 125.68 142.095 126.07H142.173C142.279 125.68 142.372 125.391 142.494 125.078L143.107 123.531H143.822L142.47 126.797V129ZM146.431 129H145.728V126.797L144.38 123.531H145.126L145.739 125.07C145.864 125.383 145.954 125.68 146.056 126.07H146.134C146.239 125.68 146.333 125.391 146.454 125.078L147.068 123.531H147.782L146.431 126.797V129ZM150.391 129H149.688V126.797L148.341 123.531H149.087L149.7 125.07C149.825 125.383 149.915 125.68 150.016 126.07H150.095C150.2 125.68 150.294 125.391 150.415 125.078L151.028 123.531H151.743L150.391 126.797V129ZM152.243 123.336H153.649V129.781H152.243V129.219H152.969V123.898H152.243V123.336Z" fill="black"/>
<path d="M113.844 145.781H112.438V139.336H113.844V139.898H113.117V145.219H113.844V145.781ZM116.074 145.082C114.996 145.082 114.433 144.289 114.433 142.785V141.75C114.433 140.242 114.996 139.449 116.074 139.449C117.152 139.449 117.715 140.242 117.715 141.75V142.785C117.715 144.289 117.152 145.082 116.074 145.082ZM116.074 144.539C116.703 144.539 117.004 144.004 117.004 142.875V141.656C117.004 140.523 116.703 139.988 116.074 139.988C115.449 139.988 115.144 140.523 115.144 141.656V142.875C115.144 144.004 115.449 144.539 116.074 144.539ZM120.292 145.082C119.214 145.082 118.652 144.289 118.652 142.785V141.75C118.652 140.242 119.214 139.449 120.292 139.449C121.37 139.449 121.933 140.242 121.933 141.75V142.785C121.933 144.289 121.37 145.082 120.292 145.082ZM120.292 144.539C120.921 144.539 121.222 144.004 121.222 142.875V141.656C121.222 140.523 120.921 139.988 120.292 139.988C119.667 139.988 119.363 140.523 119.363 141.656V142.875C119.363 144.004 119.667 144.539 120.292 144.539ZM124.511 145.082C123.433 145.082 122.87 144.289 122.87 142.785V141.75C122.87 140.242 123.433 139.449 124.511 139.449C125.589 139.449 126.151 140.242 126.151 141.75V142.785C126.151 144.289 125.589 145.082 124.511 145.082ZM124.511 144.539C125.14 144.539 125.44 144.004 125.44 142.875V141.656C125.44 140.523 125.14 139.988 124.511 139.988C123.886 139.988 123.581 140.523 123.581 141.656V142.875C123.581 144.004 123.886 144.539 124.511 144.539ZM126.745 139.336H128.151V145.781H126.745V145.219H127.471V139.898H126.745V139.336ZM132.557 145.082C131.4 145.082 130.791 144.285 130.791 142.777V141.754C130.791 140.246 131.4 139.449 132.557 139.449C133.717 139.449 134.326 140.246 134.326 141.754V142.777C134.326 144.285 133.717 145.082 132.557 145.082ZM132.561 144.531C133.268 144.531 133.611 143.992 133.611 142.879V141.672C133.611 140.543 133.268 140 132.557 140C131.85 140 131.506 140.543 131.506 141.672V142.879C131.506 143.992 131.85 144.531 132.561 144.531ZM136.095 145H135.396V139.531H137.865V140.098H136.095V141.887H137.701V142.426H136.095V145ZM141.825 145.781H140.419V139.336H141.825V139.898H141.099V145.219H141.825V145.781ZM144.055 145.082C142.977 145.082 142.415 144.289 142.415 142.785V141.75C142.415 140.242 142.977 139.449 144.055 139.449C145.134 139.449 145.696 140.242 145.696 141.75V142.785C145.696 144.289 145.134 145.082 144.055 145.082ZM144.055 144.539C144.684 144.539 144.985 144.004 144.985 142.875V141.656C144.985 140.523 144.684 139.988 144.055 139.988C143.43 139.988 143.126 140.523 143.126 141.656V142.875C143.126 144.004 143.43 144.539 144.055 144.539ZM148.274 145.082C147.196 145.082 146.633 144.289 146.633 142.785V141.75C146.633 140.242 147.196 139.449 148.274 139.449C149.352 139.449 149.915 140.242 149.915 141.75V142.785C149.915 144.289 149.352 145.082 148.274 145.082ZM148.274 144.539C148.903 144.539 149.204 144.004 149.204 142.875V141.656C149.204 140.523 148.903 139.988 148.274 139.988C147.649 139.988 147.344 140.523 147.344 141.656V142.875C147.344 144.004 147.649 144.539 148.274 144.539ZM152.492 145.082C151.414 145.082 150.852 144.289 150.852 142.785V141.75C150.852 140.242 151.414 139.449 152.492 139.449C153.57 139.449 154.133 140.242 154.133 141.75V142.785C154.133 144.289 153.57 145.082 152.492 145.082ZM152.492 144.539C153.121 144.539 153.422 144.004 153.422 142.875V141.656C153.422 140.523 153.121 139.988 152.492 139.988C151.867 139.988 151.563 140.523 151.563 141.656V142.875C151.563 144.004 151.867 144.539 152.492 144.539ZM154.726 139.336H156.133V145.781H154.726V145.219H155.453V139.898H154.726V139.336Z" fill="black"/>
<path d="M113.844 161.781H112.438V155.336H113.844V155.898H113.117V161.219H113.844V161.781ZM116.093 161.078C115.062 161.078 114.453 160.531 114.425 159.207L115.097 159.047C115.113 160.188 115.441 160.555 116.113 160.555C116.64 160.555 116.965 160.27 116.965 159.793C116.965 159.332 116.707 159.039 116.132 158.648L115.57 158.266C114.965 157.852 114.574 157.473 114.578 156.73C114.578 155.934 115.117 155.453 115.992 155.453C116.957 155.453 117.496 155.988 117.511 157.168L116.867 157.316C116.859 156.332 116.574 155.973 115.988 155.973C115.523 155.973 115.23 156.227 115.23 156.648C115.23 157.09 115.425 157.344 116.039 157.746L116.597 158.121C117.172 158.504 117.644 158.926 117.644 159.695C117.644 160.559 117.058 161.078 116.093 161.078ZM119.339 161H118.64V155.531H119.339V156.922C119.339 157.359 119.316 157.668 119.253 158.07L119.324 158.09L120.87 155.531H121.617L120.327 157.605L121.652 161H120.89L119.855 158.195L119.339 158.961V161ZM124.023 161.082C122.98 161.082 122.452 160.594 122.452 159.605V155.531H123.151V159.555C123.151 160.219 123.44 160.535 124.023 160.535C124.605 160.535 124.894 160.219 124.894 159.555V155.531H125.593V159.605C125.593 160.594 125.065 161.082 124.023 161.082ZM128.58 161.781H127.913L129.377 155.336H130.045L128.58 161.781ZM133.849 161.078C132.818 161.078 132.209 160.531 132.181 159.207L132.853 159.047C132.869 160.188 133.197 160.555 133.869 160.555C134.396 160.555 134.72 160.27 134.72 159.793C134.72 159.332 134.463 159.039 133.888 158.648L133.326 158.266C132.72 157.852 132.33 157.473 132.334 156.73C132.334 155.934 132.873 155.453 133.748 155.453C134.713 155.453 135.252 155.988 135.267 157.168L134.623 157.316C134.615 156.332 134.33 155.973 133.744 155.973C133.279 155.973 132.986 156.227 132.986 156.648C132.986 157.09 133.181 157.344 133.795 157.746L134.353 158.121C134.927 158.504 135.4 158.926 135.4 159.695C135.4 160.559 134.814 161.078 133.849 161.078ZM137.521 161.07C136.912 161.07 136.599 160.766 136.599 160.086V157.414H136.064V156.898H136.599V155.926L137.279 155.695V156.898H138.255V157.414H137.279V160.012C137.279 160.379 137.423 160.516 137.716 160.516C137.88 160.516 138.076 160.469 138.259 160.383L138.216 160.906C138.052 161.004 137.775 161.07 137.521 161.07ZM138.97 162.445L138.849 161.805L139.298 161.758C139.712 161.719 139.837 161.609 139.884 161.348L139.931 161.082L138.806 156.898H139.509L140.028 159.234C140.11 159.605 140.177 159.965 140.243 160.441H140.321C140.388 159.965 140.454 159.609 140.536 159.238L141.04 156.898H141.708L140.704 160.832C140.419 161.949 140.021 162.324 138.97 162.445ZM143.177 161H142.497V155.531H143.177V161ZM146.313 159.574L146.973 159.691C146.934 160.66 146.372 161.078 145.59 161.078C144.668 161.078 144.184 160.477 144.184 159.363V158.535C144.184 157.422 144.68 156.82 145.614 156.82C146.481 156.82 146.954 157.363 146.954 158.367C146.954 158.59 146.946 158.871 146.934 159.098H144.86V159.441C144.86 160.219 145.09 160.598 145.598 160.598C146.004 160.598 146.293 160.34 146.313 159.574ZM145.614 157.301C145.11 157.301 144.86 157.684 144.86 158.457V158.594H146.274V158.273C146.274 157.617 146.059 157.301 145.614 157.301ZM150.289 161H149.59V155.531H151.039C152.012 155.531 152.531 155.988 152.531 156.84V157.039C152.531 157.695 152.172 158.098 151.515 158.176V158.246C151.918 158.355 152.09 158.551 152.234 159.207L152.379 159.859C152.523 160.516 152.644 160.777 152.828 160.914L152.816 161H151.996C151.871 160.773 151.797 160.488 151.672 159.867L151.551 159.242C151.426 158.621 151.265 158.453 150.808 158.453H150.289V161ZM150.289 156.086V157.914H150.957C151.543 157.914 151.824 157.656 151.824 157.117V156.879C151.824 156.336 151.543 156.086 150.957 156.086H150.289ZM155.539 159.574L156.199 159.691C156.16 160.66 155.597 161.078 154.816 161.078C153.894 161.078 153.41 160.477 153.41 159.363V158.535C153.41 157.422 153.906 156.82 154.839 156.82C155.707 156.82 156.179 157.363 156.179 158.367C156.179 158.59 156.171 158.871 156.16 159.098H154.085V159.441C154.085 160.219 154.316 160.598 154.824 160.598C155.23 160.598 155.519 160.34 155.539 159.574ZM154.839 157.301C154.335 157.301 154.085 157.684 154.085 158.457V158.594H155.5V158.273C155.5 157.617 155.285 157.301 154.839 157.301ZM158.073 161H157.394V157.414H156.866V156.898H157.394V156.672C157.394 155.918 157.827 155.602 158.804 155.449L158.909 156.043C158.042 156.086 158.019 156.109 158.054 156.898H158.882V157.414H158.073V161ZM161.647 159.574L162.307 159.691C162.268 160.66 161.706 161.078 160.925 161.078C160.003 161.078 159.518 160.477 159.518 159.363V158.535C159.518 157.422 160.015 156.82 160.948 156.82C161.815 156.82 162.288 157.363 162.288 158.367C162.288 158.59 162.28 158.871 162.268 159.098H160.194V159.441C160.194 160.219 160.425 160.598 160.932 160.598C161.339 160.598 161.628 160.34 161.647 159.574ZM160.948 157.301C160.444 157.301 160.194 157.684 160.194 158.457V158.594H161.608V158.273C161.608 157.617 161.393 157.301 160.948 157.301ZM163.987 161H163.307V156.898H164.002C164.01 157.137 163.975 157.32 163.811 157.84L163.885 157.871C164.174 157.098 164.483 156.836 165.12 156.793L165.241 157.43C164.241 157.477 163.987 157.82 163.987 158.941V161ZM168.006 159.574L168.666 159.691C168.627 160.66 168.065 161.078 167.283 161.078C166.362 161.078 165.877 160.477 165.877 159.363V158.535C165.877 157.422 166.373 156.82 167.307 156.82C168.174 156.82 168.647 157.363 168.647 158.367C168.647 158.59 168.639 158.871 168.627 159.098H166.553V159.441C166.553 160.219 166.783 160.598 167.291 160.598C167.697 160.598 167.987 160.34 168.006 159.574ZM167.307 157.301C166.803 157.301 166.553 157.684 166.553 158.457V158.594H167.967V158.273C167.967 157.617 167.752 157.301 167.307 157.301ZM170.346 161H169.666V156.898H170.357C170.353 157.129 170.307 157.383 170.166 157.836L170.24 157.863C170.506 157.137 170.889 156.836 171.424 156.836C172.017 156.836 172.326 157.168 172.326 157.789V161H171.646V157.918C171.646 157.543 171.478 157.336 171.166 157.336C170.682 157.336 170.346 157.918 170.346 158.75V161ZM174.72 161.078C173.795 161.078 173.314 160.457 173.314 159.289V158.566C173.314 157.422 173.806 156.82 174.732 156.82C175.533 156.82 176.029 157.285 176.056 158.332L175.377 158.441C175.361 157.602 175.154 157.301 174.724 157.301C174.244 157.301 174.009 157.688 174.009 158.488V159.363C174.009 160.195 174.244 160.594 174.728 160.594C175.158 160.594 175.38 160.312 175.396 159.477L176.091 159.586C176.056 160.641 175.525 161.082 174.72 161.078ZM179.083 159.574L179.743 159.691C179.704 160.66 179.142 161.078 178.361 161.078C177.439 161.078 176.954 160.477 176.954 159.363V158.535C176.954 157.422 177.45 156.82 178.384 156.82C179.251 156.82 179.724 157.363 179.724 158.367C179.724 158.59 179.716 158.871 179.704 159.098H177.63V159.441C177.63 160.219 177.861 160.598 178.368 160.598C178.775 160.598 179.064 160.34 179.083 159.574ZM178.384 157.301C177.88 157.301 177.63 157.684 177.63 158.457V158.594H179.044V158.273C179.044 157.617 178.829 157.301 178.384 157.301ZM180.302 155.336H181.708V161.781H180.302V161.219H181.028V155.898H180.302V155.336Z" fill="black"/>
<path d="M113.844 177.781H112.438V171.336H113.844V171.898H113.117V177.219H113.844V177.781ZM115.418 177H114.718V171.531H115.418V177ZM117.257 177H116.577V172.898H117.269C117.265 173.129 117.218 173.383 117.077 173.836L117.152 173.863C117.417 173.137 117.8 172.836 118.335 172.836C118.929 172.836 119.238 173.168 119.238 173.789V177H118.558V173.918C118.558 173.543 118.39 173.336 118.077 173.336C117.593 173.336 117.257 173.918 117.257 174.75V177ZM121.351 177.062C120.616 177.062 120.222 176.48 120.222 175.387V174.512C120.222 173.418 120.616 172.836 121.347 172.836C121.937 172.836 122.28 173.195 122.46 173.793L122.538 173.762C122.401 173.297 122.355 172.977 122.355 172.633V171.531H123.034V177H122.37C122.37 176.828 122.425 176.555 122.542 176.133L122.464 176.109C122.269 176.727 121.929 177.062 121.351 177.062ZM121.589 176.586C122.081 176.586 122.355 176.117 122.355 175.262V174.641C122.355 173.785 122.081 173.309 121.589 173.309C121.136 173.309 120.913 173.699 120.913 174.504V175.398C120.913 176.199 121.136 176.586 121.589 176.586ZM124.889 172.348H124.1V171.648H124.889V172.348ZM124.835 177H124.155V172.898H124.835V177ZM127.455 177H126.721L125.631 172.898H126.33L126.776 174.707C126.909 175.238 126.995 175.656 127.061 176.137H127.139C127.205 175.656 127.295 175.238 127.424 174.707L127.862 172.898H128.545L127.455 177ZM130.068 172.348H129.279V171.648H130.068V172.348ZM130.014 177H129.334V172.898H130.014V177ZM132.146 177.062C131.412 177.062 131.017 176.48 131.017 175.387V174.512C131.017 173.418 131.412 172.836 132.142 172.836C132.732 172.836 133.076 173.195 133.256 173.793L133.334 173.762C133.197 173.297 133.15 172.977 133.15 172.633V171.531H133.83V177H133.166C133.166 176.828 133.22 176.555 133.338 176.133L133.26 176.109C133.064 176.727 132.724 177.062 132.146 177.062ZM132.385 176.586C132.877 176.586 133.15 176.117 133.15 175.262V174.641C133.15 173.785 132.877 173.309 132.385 173.309C131.931 173.309 131.709 173.699 131.709 174.504V175.398C131.709 176.199 131.931 176.586 132.385 176.586ZM136.915 172.898H137.595V177H136.904C136.912 176.77 136.955 176.516 137.095 176.062L137.021 176.035C136.759 176.762 136.372 177.062 135.837 177.062C135.247 177.062 134.935 176.73 134.935 176.109V172.898H135.619V175.98C135.619 176.355 135.787 176.562 136.095 176.562C136.58 176.562 136.915 175.98 136.915 175.148V172.898ZM139.47 177.078C138.903 177.078 138.575 176.727 138.575 176.145V176.09C138.575 175.266 139.13 174.934 139.802 174.707L140.474 174.48V173.961C140.474 173.512 140.302 173.297 139.931 173.297C139.478 173.297 139.294 173.598 139.317 174.414L138.653 174.301C138.63 173.316 139.064 172.82 139.942 172.82C140.739 172.82 141.146 173.199 141.146 173.941V176.203C141.146 176.508 141.189 176.547 141.532 176.566L141.423 177.066C141.384 177.074 141.314 177.078 141.259 177.078C140.65 177.078 140.525 176.793 140.685 176.113L140.607 176.094C140.439 176.734 140.048 177.078 139.47 177.078ZM139.696 176.559C140.138 176.559 140.474 176.148 140.474 175.523V174.965L140.032 175.117C139.591 175.266 139.267 175.508 139.267 175.996V176.055C139.267 176.371 139.419 176.559 139.696 176.559ZM143.052 177H142.372V171.531H143.052V177ZM147.262 177.078C146.231 177.078 145.621 176.531 145.594 175.207L146.266 175.047C146.281 176.188 146.61 176.555 147.281 176.555C147.809 176.555 148.133 176.27 148.133 175.793C148.133 175.332 147.875 175.039 147.301 174.648L146.738 174.266C146.133 173.852 145.742 173.473 145.746 172.73C145.746 171.934 146.285 171.453 147.16 171.453C148.125 171.453 148.664 171.988 148.68 173.168L148.035 173.316C148.028 172.332 147.742 171.973 147.156 171.973C146.692 171.973 146.399 172.227 146.399 172.648C146.399 173.09 146.594 173.344 147.207 173.746L147.766 174.121C148.34 174.504 148.813 174.926 148.813 175.695C148.813 176.559 148.227 177.078 147.262 177.078ZM151.781 175.574L152.441 175.691C152.402 176.66 151.84 177.078 151.058 177.078C150.137 177.078 149.652 176.477 149.652 175.363V174.535C149.652 173.422 150.148 172.82 151.082 172.82C151.949 172.82 152.422 173.363 152.422 174.367C152.422 174.59 152.414 174.871 152.402 175.098H150.328V175.441C150.328 176.219 150.558 176.598 151.066 176.598C151.472 176.598 151.762 176.34 151.781 175.574ZM151.082 173.301C150.578 173.301 150.328 173.684 150.328 174.457V174.594H151.742V174.273C151.742 173.617 151.527 173.301 151.082 173.301ZM154.121 177H153.441V172.898H154.136C154.144 173.137 154.109 173.32 153.945 173.84L154.019 173.871C154.308 173.098 154.617 172.836 155.253 172.793L155.375 173.43C154.375 173.477 154.121 173.82 154.121 174.941V177ZM156.948 172.348H156.159V171.648H156.948V172.348ZM156.894 177H156.214V172.898H156.894V177ZM158.772 177.078C158.206 177.078 157.878 176.727 157.878 176.145V176.09C157.878 175.266 158.432 174.934 159.104 174.707L159.776 174.48V173.961C159.776 173.512 159.604 173.297 159.233 173.297C158.78 173.297 158.597 173.598 158.62 174.414L157.956 174.301C157.932 173.316 158.366 172.82 159.245 172.82C160.042 172.82 160.448 173.199 160.448 173.941V176.203C160.448 176.508 160.491 176.547 160.835 176.566L160.725 177.066C160.686 177.074 160.616 177.078 160.561 177.078C159.952 177.078 159.827 176.793 159.987 176.113L159.909 176.094C159.741 176.734 159.35 177.078 158.772 177.078ZM158.999 176.559C159.44 176.559 159.776 176.148 159.776 175.523V174.965L159.335 175.117C158.893 175.266 158.569 175.508 158.569 175.996V176.055C158.569 176.371 158.722 176.559 158.999 176.559ZM162.354 177H161.674V171.531H162.354V177ZM165.767 177H165.096V171.531H165.943L167.295 174.984C167.428 175.328 167.51 175.609 167.607 176L167.685 175.992C167.639 175.527 167.611 175.07 167.611 174.648V171.531H168.283V177H167.455L166.111 173.582C165.971 173.219 165.881 172.93 165.775 172.516L165.697 172.523C165.744 172.996 165.764 173.438 165.764 173.844L165.767 177ZM171.404 172.898H172.084V177H171.392C171.4 176.77 171.443 176.516 171.584 176.062L171.509 176.035C171.248 176.762 170.861 177.062 170.326 177.062C169.736 177.062 169.423 176.73 169.423 176.109V172.898H170.107V175.98C170.107 176.355 170.275 176.562 170.584 176.562C171.068 176.562 171.404 175.98 171.404 175.148V172.898ZM173.884 177H173.204V172.898H173.896C173.904 173.105 173.861 173.305 173.704 173.816L173.779 173.844C174.064 173.105 174.388 172.836 174.872 172.836C175.408 172.836 175.646 173.195 175.509 173.836L175.583 173.859C175.822 173.125 176.193 172.836 176.7 172.836C177.251 172.836 177.517 173.145 177.517 173.777V177H176.837V173.887C176.837 173.527 176.697 173.344 176.411 173.344C175.966 173.344 175.704 173.949 175.704 174.73V177H175.025V173.895C175.025 173.539 174.876 173.34 174.615 173.34C174.181 173.34 173.884 173.922 173.884 174.75V177ZM180.306 177.062C179.724 177.062 179.388 176.727 179.192 176.109L179.114 176.133C179.231 176.555 179.282 176.828 179.282 177H178.618V171.531H179.298V172.633C179.298 172.977 179.251 173.297 179.118 173.762L179.196 173.793C179.372 173.195 179.72 172.836 180.31 172.836C181.036 172.836 181.431 173.418 181.431 174.512V175.387C181.431 176.48 181.036 177.062 180.306 177.062ZM180.063 176.586C180.517 176.586 180.739 176.199 180.739 175.398V174.504C180.739 173.699 180.517 173.309 180.063 173.309C179.571 173.309 179.298 173.785 179.298 174.641V175.262C179.298 176.117 179.571 176.586 180.063 176.586ZM184.442 175.574L185.102 175.691C185.063 176.66 184.501 177.078 183.719 177.078C182.798 177.078 182.313 176.477 182.313 175.363V174.535C182.313 173.422 182.809 172.82 183.743 172.82C184.61 172.82 185.083 173.363 185.083 174.367C185.083 174.59 185.075 174.871 185.063 175.098H182.989V175.441C182.989 176.219 183.219 176.598 183.727 176.598C184.133 176.598 184.423 176.34 184.442 175.574ZM183.743 173.301C183.239 173.301 182.989 173.684 182.989 174.457V174.594H184.403V174.273C184.403 173.617 184.188 173.301 183.743 173.301ZM186.782 177H186.102V172.898H186.797C186.805 173.137 186.77 173.32 186.606 173.84L186.68 173.871C186.969 173.098 187.278 172.836 187.914 172.793L188.035 173.43C187.035 173.477 186.782 173.82 186.782 174.941V177ZM188.496 171.336H189.902V177.781H188.496V177.219H189.223V171.898H188.496V171.336Z" fill="black"/>
<path d="M16 224H376" stroke="black" stroke-opacity="0.8" stroke-width="0.2"/>
<path d="M100.636 238H100.179V233.898H100.803L101.258 235.598C101.325 235.855 101.372 236.052 101.425 236.286H101.483C101.536 236.052 101.586 235.855 101.653 235.595L102.101 233.898H102.74V238H102.259L102.268 236.518C102.271 235.952 102.283 235.416 102.324 234.716L102.265 234.707L101.609 237.077H101.287L100.642 234.704L100.584 234.71C100.616 235.401 100.631 235.943 100.634 236.518L100.636 238ZM104.681 238H104.178L105.179 233.898H105.877L106.896 238H106.36L106.132 237.112H104.907L104.681 238ZM105.276 235.521L104.992 236.731H106.05L105.768 235.521C105.683 235.146 105.619 234.839 105.546 234.399H105.484C105.42 234.839 105.361 235.146 105.276 235.521ZM109.462 238H108.451V233.898H109.462C110.42 233.898 110.88 234.467 110.88 235.642V236.263C110.88 237.435 110.42 238 109.462 238ZM108.97 234.306V237.593H109.444C110.08 237.593 110.349 237.218 110.349 236.354V235.554C110.349 234.678 110.08 234.306 109.444 234.306H108.97ZM114.828 238H112.587V233.898H114.778V234.332H113.105V235.627H114.547V236.034H113.105V237.566H114.828V238ZM123.044 238H120.647V237.587H121.588V234.309H120.647V233.898H123.044V234.309H122.106V237.587H123.044V238ZM125.228 238H124.751V233.898H125.363L126.392 236.523C126.494 236.784 126.553 236.998 126.62 237.297L126.682 237.294C126.644 236.91 126.62 236.526 126.62 236.181L126.617 233.898H127.095V238H126.497L125.483 235.41C125.378 235.138 125.308 234.915 125.228 234.587L125.17 234.593C125.205 234.968 125.226 235.375 125.226 235.715L125.228 238ZM135.275 238H132.879V237.587H133.819V234.309H132.879V233.898H135.275V234.309H134.338V237.587H135.275V238ZM138.163 238.062C137.319 238.062 136.889 237.467 136.889 236.339V235.56C136.889 234.435 137.322 233.84 138.157 233.84C138.893 233.84 139.341 234.3 139.364 235.334L138.86 235.457C138.852 234.546 138.614 234.241 138.166 234.241C137.659 234.241 137.416 234.637 137.416 235.492V236.403C137.416 237.256 137.662 237.654 138.175 237.654C138.623 237.654 138.878 237.347 138.89 236.412L139.402 236.547C139.373 237.604 138.899 238.062 138.163 238.062ZM143.368 238H141.127V233.898H143.318V234.332H141.646V235.627H143.087V236.034H141.646V237.566H143.368V238ZM147.469 238H145.251V233.898H145.77V237.563H147.469V238ZM149.53 238H149.027L150.029 233.898H150.726L151.745 238H151.209L150.981 237.112H149.756L149.53 238ZM150.125 235.521L149.841 236.731H150.899L150.617 235.521C150.532 235.146 150.468 234.839 150.395 234.399H150.333C150.269 234.839 150.21 235.146 150.125 235.521ZM153.769 238H153.291V233.898H153.904L154.932 236.523C155.034 236.784 155.093 236.998 155.16 237.297L155.222 237.294C155.184 236.91 155.16 236.526 155.16 236.181L155.157 233.898H155.635V238H155.037L154.024 235.41C153.918 235.138 153.848 234.915 153.769 234.587L153.71 234.593C153.745 234.968 153.766 235.375 153.766 235.715L153.769 238ZM158.388 238H157.377V233.898H158.388C159.346 233.898 159.806 234.467 159.806 235.642V236.263C159.806 237.435 159.346 238 158.388 238ZM157.896 234.306V237.593H158.37C159.006 237.593 159.276 237.218 159.276 236.354V235.554C159.276 234.678 159.006 234.306 158.37 234.306H157.896Z" fill="black" fill-opacity="0.5"/>
<path d="M174.896 236.573H174.104V235.858H174.896V236.573Z" fill="black" fill-opacity="0.5"/>
<path d="M191.383 238H188.848V237.61H189.927V235.018H188.848V234.684C189.886 234.657 189.982 234.622 190.035 233.898H190.448V237.61H191.383V238ZM194.191 238.059C193.362 238.059 192.926 237.493 192.926 236.418V235.48C192.926 234.405 193.362 233.84 194.191 233.84C195.02 233.84 195.457 234.405 195.457 235.48V236.418C195.457 237.493 195.02 238.059 194.191 238.059ZM194.191 237.654C194.692 237.654 194.935 237.276 194.935 236.488V235.422C194.935 234.625 194.692 234.241 194.191 234.241C193.69 234.241 193.447 234.625 193.447 235.422V236.488C193.447 237.276 193.69 237.654 194.191 237.654ZM194.426 236.274H193.957V235.624H194.426V236.274ZM198.268 238.059C197.439 238.059 197.003 237.493 197.003 236.418V235.48C197.003 234.405 197.439 233.84 198.268 233.84C199.098 233.84 199.534 234.405 199.534 235.48V236.418C199.534 237.493 199.098 238.059 198.268 238.059ZM198.268 237.654C198.769 237.654 199.013 237.276 199.013 236.488V235.422C199.013 234.625 198.769 234.241 198.268 234.241C197.767 234.241 197.524 234.625 197.524 235.422V236.488C197.524 237.276 197.767 237.654 198.268 237.654ZM198.503 236.274H198.034V235.624H198.503V236.274ZM201.774 235.516C201.265 235.516 200.969 235.208 200.969 234.675C200.969 234.139 201.265 233.831 201.774 233.831C202.287 233.831 202.583 234.139 202.583 234.675C202.583 235.208 202.287 235.516 201.774 235.516ZM201.777 235.202C202.026 235.202 202.173 235.021 202.173 234.707V234.643C202.173 234.326 202.026 234.145 201.777 234.145C201.525 234.145 201.382 234.326 201.382 234.643V234.707C201.382 235.021 201.525 235.202 201.777 235.202ZM203.708 235.223L200.98 237.156L200.977 236.676L203.705 234.742L203.708 235.223ZM202.92 238.067C202.41 238.067 202.114 237.76 202.114 237.224C202.114 236.69 202.41 236.383 202.92 236.383C203.433 236.383 203.728 236.69 203.728 237.224C203.728 237.76 203.433 238.067 202.92 238.067ZM202.92 237.754C203.172 237.754 203.318 237.569 203.318 237.259V237.191C203.318 236.878 203.172 236.693 202.92 236.693C202.671 236.693 202.524 236.878 202.524 237.191V237.259C202.524 237.569 202.671 237.754 202.92 237.754ZM210.509 238.062C209.665 238.062 209.234 237.467 209.234 236.339V235.56C209.234 234.435 209.668 233.84 210.503 233.84C211.238 233.84 211.687 234.3 211.71 235.334L211.206 235.457C211.197 234.546 210.96 234.241 210.512 234.241C210.005 234.241 209.762 234.637 209.762 235.492V236.403C209.762 237.256 210.008 237.654 210.521 237.654C210.969 237.654 211.224 237.347 211.235 236.412L211.748 236.547C211.719 237.604 211.244 238.062 210.509 238.062ZM214.577 238.059C213.748 238.059 213.312 237.493 213.312 236.418V235.48C213.312 234.405 213.748 233.84 214.577 233.84C215.406 233.84 215.843 234.405 215.843 235.48V236.418C215.843 237.493 215.406 238.059 214.577 238.059ZM214.577 237.654C215.078 237.654 215.321 237.276 215.321 236.488V235.422C215.321 234.625 215.078 234.241 214.577 234.241C214.076 234.241 213.833 234.625 213.833 235.422V236.488C213.833 237.276 214.076 237.654 214.577 237.654ZM218.915 238H218.394V234.326H217.289V233.898H220.02V234.326H218.915V238ZM222.992 238H222.471V234.326H221.366V233.898H224.097V234.326H222.992V238ZM226.809 238.059C225.98 238.059 225.543 237.493 225.543 236.418V235.48C225.543 234.405 225.98 233.84 226.809 233.84C227.638 233.84 228.074 234.405 228.074 235.48V236.418C228.074 237.493 227.638 238.059 226.809 238.059ZM226.809 237.654C227.31 237.654 227.553 237.276 227.553 236.488V235.422C227.553 234.625 227.31 234.241 226.809 234.241C226.308 234.241 226.065 234.625 226.065 235.422V236.488C226.065 237.276 226.308 237.654 226.809 237.654ZM230.192 238H229.714V233.898H230.326L231.355 236.523C231.457 236.784 231.516 236.998 231.583 237.297L231.645 237.294C231.607 236.91 231.583 236.526 231.583 236.181L231.58 233.898H232.058V238H231.46L230.446 235.41C230.341 235.138 230.271 234.915 230.192 234.587L230.133 234.593C230.168 234.968 230.189 235.375 230.189 235.715L230.192 238Z" fill="black" fill-opacity="0.5"/>
<path d="M246.896 236.573H246.104V235.858H246.896V236.573Z" fill="black" fill-opacity="0.5"/>
<path d="M261.571 238H261.049V233.898H262.203C262.98 233.898 263.399 234.256 263.399 234.912V234.994C263.399 235.501 263.103 235.82 262.567 235.879V235.938C262.871 236.022 263 236.169 263.126 236.661L263.252 237.153C263.378 237.646 263.481 237.833 263.63 237.936L263.624 238H262.997C262.895 237.83 262.83 237.622 262.722 237.15L262.614 236.685C262.502 236.213 262.379 236.081 262.007 236.081H261.571V238ZM261.571 234.309V235.683H262.142C262.637 235.683 262.871 235.478 262.871 235.05V234.941C262.871 234.508 262.637 234.309 262.142 234.309H261.571ZM267.444 238H265.203V233.898H267.394V234.332H265.721V235.627H267.163V236.034H265.721V237.566H267.444V238ZM270.384 238.062C269.593 238.062 269.195 237.692 269.195 236.942V233.898H269.713V236.907C269.713 237.414 269.936 237.657 270.384 237.657C270.835 237.657 271.055 237.414 271.055 236.907V233.898H271.574V236.942C271.574 237.692 271.178 238.062 270.384 238.062ZM274.511 238.059C273.723 238.059 273.257 237.643 273.228 236.655L273.729 236.532C273.738 237.385 273.996 237.672 274.523 237.672C274.93 237.672 275.191 237.426 275.191 237.057C275.191 236.731 274.998 236.515 274.549 236.233L274.116 235.955C273.644 235.656 273.348 235.369 273.351 234.845C273.351 234.241 273.776 233.84 274.435 233.84C275.165 233.84 275.578 234.253 275.595 235.123L275.118 235.237C275.112 234.505 274.886 234.224 274.432 234.224C274.069 234.224 273.832 234.446 273.832 234.789C273.832 235.088 273.987 235.272 274.461 235.568L274.892 235.838C275.337 236.116 275.695 236.433 275.695 236.992C275.695 237.625 275.229 238.059 274.511 238.059ZM277.683 238H277.179L278.181 233.898H278.878L279.898 238H279.362L279.133 237.112H277.909L277.683 238ZM278.278 235.521L277.994 236.731H279.051L278.77 235.521C278.685 235.146 278.621 234.839 278.547 234.399H278.486C278.421 234.839 278.363 235.146 278.278 235.521ZM282.753 238H281.47V233.898H282.721C283.41 233.898 283.77 234.224 283.77 234.842V234.956C283.77 235.419 283.542 235.703 283.128 235.782V235.838C283.627 235.914 283.893 236.233 283.893 236.781V236.919C283.893 237.628 283.501 238 282.753 238ZM281.989 234.306V235.636H282.636C283.055 235.636 283.254 235.442 283.254 235.026V234.889C283.254 234.49 283.058 234.306 282.639 234.306H281.989ZM281.989 236.008V237.59H282.66C283.128 237.59 283.351 237.364 283.351 236.881V236.72C283.351 236.236 283.126 236.008 282.66 236.008H281.989ZM287.853 238H285.635V233.898H286.154V237.563H287.853V238ZM291.907 238H289.666V233.898H291.857V234.332H290.184V235.627H291.626V236.034H290.184V237.566H291.907V238Z" fill="black" fill-opacity="0.5"/>
</svg>
