<svg width="180" height="288" viewBox="0 0 180 288" fill="none" xmlns="http://www.w3.org/2000/svg">
<rect width="180" height="288" fill="white"/>
<path fill-rule="evenodd" clip-rule="evenodd" d="M47.2285 23.6782C49.7188 23.6782 50.9395 25.0454 50.9395 27.8164V37.106C50.9395 39.8647 49.7188 41.2319 47.2285 41.2319C44.7627 41.2319 43.542 39.8647 43.542 37.106V27.8164C43.542 25.0454 44.7627 23.6782 47.2285 23.6782ZM47.2407 25.5947C46.4106 25.5947 46.0078 26.2295 46.0078 27.5601V37.3989C46.0078 38.6929 46.4106 39.3154 47.2407 39.3154C48.0708 39.3154 48.4614 38.6929 48.4614 37.3989V27.5601C48.4614 26.2295 48.0708 25.5947 47.2407 25.5947Z" fill="black"/>
<path d="M94.2075 23.6782C96.5391 23.6782 97.7842 24.8989 97.7842 27.731V30.0503L95.3794 30.4775V27.8652C95.3794 26.1074 94.9888 25.5581 94.2319 25.5581C93.4507 25.5581 93.0723 26.1807 93.0723 27.4868V37.3867C93.0723 38.6929 93.4507 39.3154 94.2441 39.3154C94.9766 39.3154 95.4038 38.7417 95.4038 36.9351V33.9932L97.833 34.4692V37.1426C97.833 40.0112 96.5269 41.2319 94.2075 41.2319C91.7661 41.2319 90.6064 39.8647 90.6064 37.1182V27.8042C90.6064 25.0454 91.7783 23.6782 94.2075 23.6782Z" fill="black"/>
<path fill-rule="evenodd" clip-rule="evenodd" d="M141.626 23.6782C144.116 23.6782 145.337 25.0454 145.337 27.8164V37.106C145.337 39.8647 144.116 41.2319 141.626 41.2319C139.16 41.2319 137.939 39.8647 137.939 37.106V27.8164C137.939 25.0454 139.16 23.6782 141.626 23.6782ZM141.638 25.5947C140.808 25.5947 140.405 26.2295 140.405 27.5601V37.3989C140.405 38.6929 140.808 39.3154 141.638 39.3154C142.468 39.3154 142.859 38.6929 142.859 37.3989V27.5601C142.859 26.2295 142.468 25.5947 141.638 25.5947Z" fill="black"/>
<path fill-rule="evenodd" clip-rule="evenodd" d="M31.459 41H28.9077L28.6025 38.2168H26.3198L26.0024 41H23.6221L25.9292 23.9102H29.0908L31.459 41ZM27.333 27.3525C27.2476 29.4521 27.1377 30.7461 27.0034 32.1011L26.5273 36.4712H28.3828L27.9189 32.1011C27.7847 30.7461 27.6748 29.4521 27.5894 27.3525H27.333Z" fill="black"/>
<path d="M38.4038 33.1631C38.5991 34.0908 38.8188 35.3359 39.0508 36.9717L39.3071 36.9473C39.1118 34.6646 38.9531 32.0645 38.9531 30.0869L38.9409 23.9102H41.3579V41H38.2939L36.231 31.8081C36.0234 30.8438 35.8403 29.8062 35.5596 27.8164L35.3032 27.8408C35.4619 29.8428 35.645 33.0776 35.645 35.1162L35.6572 41H33.2524V23.9102H36.3774L38.4038 33.1631Z" fill="black"/>
<path d="M59.4346 25.9243H57.1763V41H54.7227V25.9243H52.4521V23.9102H59.4346V25.9243Z" fill="black"/>
<path d="M63.6572 30.9536H65.8423V23.9102H68.2959V41H65.8423V32.9067H63.6572V41H61.2036V23.9102H63.6572V30.9536Z" fill="black"/>
<path d="M76.083 25.9243H73.0557V31.0391H75.7656V32.8945H73.0557V38.9858H76.2417V41H70.6021V23.9102H76.083V25.9243Z" fill="black"/>
<path fill-rule="evenodd" clip-rule="evenodd" d="M81.7461 23.9102C84.0166 23.9102 85.1396 25.0576 85.1396 27.3647V29.0005C85.1396 30.7095 84.4561 31.7104 83.1255 31.9912V32.1987C84.2119 32.4795 84.6147 33.0044 84.7979 35.2017L84.9688 37.3867C85.1396 39.584 85.2983 40.353 85.6646 40.7437L85.6279 41H82.9668C82.7471 40.2798 82.6372 39.4741 82.5151 37.4478L82.4053 35.4092C82.2832 33.3706 82.0146 33.0288 81.1724 33.0288H80.6719V41H78.2183V23.9102H81.7461ZM80.6719 31.1367H81.4897C82.3198 31.1367 82.686 30.7095 82.686 29.6719V27.3281C82.686 26.2539 82.3198 25.8389 81.4897 25.8389H80.6719V31.1367Z" fill="black"/>
<path fill-rule="evenodd" clip-rule="evenodd" d="M103.472 23.9102C105.742 23.9102 106.865 25.0576 106.865 27.3647V29.0005C106.865 30.7095 106.182 31.7104 104.851 31.9912V32.1987C105.938 32.4795 106.34 33.0044 106.523 35.2017L106.694 37.3867C106.865 39.584 107.024 40.353 107.39 40.7437L107.354 41H104.692C104.473 40.2798 104.363 39.4741 104.241 37.4478L104.131 35.4092C104.009 33.3706 103.74 33.0288 102.898 33.0288H102.397V41H99.9438V23.9102H103.472ZM102.397 31.1367H103.215C104.045 31.1367 104.412 30.7095 104.412 29.6719V27.3281C104.412 26.2539 104.045 25.8389 103.215 25.8389H102.397V31.1367Z" fill="black"/>
<path d="M114.628 25.9243H111.601V31.0391H114.311V32.8945H111.601V38.9858H114.787V41H109.147V23.9102H114.628V25.9243Z" fill="black"/>
<path fill-rule="evenodd" clip-rule="evenodd" d="M124.075 41H121.524L121.219 38.2168H118.936L118.619 41H116.238L118.545 23.9102H121.707L124.075 41ZM119.949 27.3525C119.864 29.4521 119.754 30.7461 119.62 32.1011L119.144 36.4712H120.999L120.535 32.1011C120.401 30.7461 120.291 29.4521 120.206 27.3525H119.949Z" fill="black"/>
<path d="M131.521 25.9243H129.262V41H126.809V25.9243H124.538V23.9102H131.521V25.9243Z" fill="black"/>
<path d="M135.743 41H133.29V23.9102H135.743V41Z" fill="black"/>
<path d="M152.672 33.1631C152.868 34.0908 153.087 35.3359 153.319 36.9717L153.576 36.9473C153.38 34.6646 153.222 32.0645 153.222 30.0869L153.209 23.9102H155.626V41H152.562L150.5 31.8081C150.292 30.8438 150.109 29.8062 149.828 27.8164L149.572 27.8408C149.73 29.8428 149.914 33.0776 149.914 35.1162L149.926 41H147.521V23.9102H150.646L152.672 33.1631Z" fill="black"/>
<path d="M23.5 53H156.5" stroke="black" stroke-opacity="0.8" stroke-width="0.4"/>
<path opacity="0.6" d="M25.4844 82.0781C24.3359 82.0781 24.0469 80.9023 24.7422 78.9922L24.8125 78.7969C25.3281 77.3789 26.0781 76.4492 27.3203 76.4492C28.4688 76.4492 29.0391 77.1875 28.8086 78.2656L28.2188 78.3398C28.4414 77.4492 28.1562 76.875 27.2656 76.875C26.3008 76.875 25.8438 77.5664 25.3672 78.8711L25.2695 79.1445C24.6562 80.8281 24.8125 81.6484 25.6523 81.6484C26.4453 81.6484 27.168 80.957 27.875 79.4336H26.332L26.4844 79.0117H28.5625L27.4727 82H26.9531C27.043 81.6484 27.1914 81.3555 27.6602 80.543L27.5859 80.5039C26.9336 81.5312 26.3438 82.0781 25.4844 82.0781ZM29.6797 82.082C28.9883 82.082 28.5742 81.6367 28.8086 80.9922L28.8242 80.9492C29.0469 80.3203 29.7852 79.9492 30.6992 79.7188L31.6016 79.4922L31.7031 79.2344C31.9805 78.5156 31.6602 78.1875 31.0625 78.1875C30.375 78.1875 30.0273 78.5977 30.0195 79.3672L29.5156 79.2383C29.5742 78.3281 30.1289 77.8164 31.1016 77.8164C32.0547 77.8164 32.5703 78.375 32.2227 79.3359L31.5352 81.2227C31.3984 81.6055 31.418 81.6445 31.8477 81.6758L31.6602 82.0703C31.6289 82.0781 31.5547 82.082 31.4961 82.082C30.8906 82.082 30.8867 81.7344 31.3125 80.9414L31.2422 80.9141C30.8047 81.6719 30.3633 82.082 29.6797 82.082ZM29.8477 81.6641C30.4414 81.6641 31.0312 81.0625 31.3711 80.1562L31.4648 79.8984L30.7812 80.0781C30.0898 80.2578 29.5391 80.5234 29.3672 80.9844L29.3516 81.0273C29.2148 81.4102 29.4414 81.6641 29.8477 81.6641ZM33.0156 82H32.4609L33.9531 77.8984H34.5273C34.4492 78.1797 34.3359 78.3672 33.9023 79.0234L33.9727 79.0703C34.6094 78.1523 35.1016 77.8164 35.9102 77.7852L35.8516 78.293C34.7539 78.3125 34.1562 78.8633 33.707 80.0977L33.0156 82ZM35.7812 82H35.2266L36.7188 77.8984H37.2812C37.2188 78.1484 37.0938 78.3633 36.6836 78.9883L36.75 79.0352C37.3711 78.1445 37.7891 77.8242 38.3672 77.8242C39.0039 77.8242 39.1836 78.3047 38.7891 79.0078L38.8555 79.0469C39.4336 78.1602 39.9336 77.8242 40.5117 77.8242C41.1758 77.8242 41.4023 78.2383 41.1289 78.9844L40.0312 82H39.4727L40.5703 78.9883C40.7539 78.4883 40.6523 78.2422 40.2578 78.2422C39.625 78.2422 38.9688 79.1055 38.5781 80.1797L37.9102 82H37.3555L38.4492 79C38.625 78.5117 38.5195 78.2383 38.1133 78.2383C37.5469 78.2383 36.8555 79.0586 36.4453 80.1836L35.7812 82ZM43.7617 77.8164C44.6562 77.8164 45.1953 78.4297 44.9297 79.4297C44.8789 79.6094 44.8008 79.8125 44.7031 80.0039H42.1992C41.8047 81.125 42.0977 81.707 42.7773 81.707C43.3438 81.707 43.6758 81.3281 43.9531 80.5938L44.4336 80.8125C44.082 81.625 43.5117 82.082 42.7539 82.082C41.6562 82.082 41.2305 81.1289 41.7227 79.7812L41.7891 79.6016C42.2188 78.418 42.8281 77.8164 43.7617 77.8164ZM44.3281 79.5977L44.3672 79.4844C44.668 78.6484 44.3633 78.1914 43.7188 78.1914C43.0898 78.1914 42.7266 78.5898 42.3477 79.5977H44.3281ZM45.4609 82H44.9062L46.3984 77.8984H46.9766C46.9102 78.1641 46.7188 78.5039 46.3633 79.0781L46.4297 79.1172C47.0547 78.2031 47.5898 77.8242 48.2031 77.8242C48.8789 77.8242 49.1992 78.2422 48.8945 79.0742L47.8281 82H47.2734L48.3516 79.0391C48.5391 78.5234 48.4102 78.2344 47.9648 78.2344C47.293 78.2344 46.4727 79.2383 46.0703 80.3359L45.4609 82ZM50.1992 82.0742C49.4883 82.0742 49.1914 81.6406 49.4492 80.9414L50.4102 78.3125H49.7656L49.918 77.8984H50.5586L50.9492 76.8281L51.5547 76.6836L51.1133 77.8984H52.375L52.2227 78.3125H50.9648L49.9961 80.9727C49.8398 81.4062 49.9727 81.6211 50.4023 81.6211C50.5742 81.6211 50.8047 81.5859 51.0273 81.4766L50.875 81.9141C50.6758 82.0234 50.4453 82.0742 50.1992 82.0742ZM53.3281 82.082C52.2852 82.082 51.7344 81.5 51.9414 80.4883L52.4609 80.3828C52.2539 81.2422 52.6055 81.7227 53.332 81.7227C53.8711 81.7227 54.2266 81.457 54.2305 81.0156C54.2305 80.7109 54.0859 80.5312 53.6992 80.1953L53.3164 79.8633C52.9297 79.5273 52.7383 79.2305 52.7422 78.9102C52.75 78.2539 53.2578 77.8203 54.0742 77.8203C54.9961 77.8203 55.4805 78.3516 55.3164 79.2734L54.8008 79.3594C54.9883 78.6016 54.6953 78.1719 54.0742 78.1719C53.5508 78.1719 53.2266 78.4297 53.2227 78.8242C53.2188 79.0664 53.3438 79.2305 53.7227 79.5469L54.0977 79.8672C54.4727 80.1836 54.7305 80.5078 54.7266 80.9648C54.7148 81.6367 54.1875 82.082 53.3281 82.082ZM58.4688 82.082C57.3633 82.082 56.9531 81.0742 57.4609 79.6836L57.4922 79.5977C57.9297 78.3984 58.543 77.8164 59.3828 77.8164C60.2422 77.8164 60.7383 78.4023 60.5859 79.4219L60.0352 79.4609C60.207 78.6523 59.957 78.1914 59.3711 78.1914C58.7734 78.1914 58.4258 78.5898 58.0273 79.6914L57.957 79.8789C57.5234 81.0742 57.8047 81.7031 58.4922 81.7031C59.0586 81.7031 59.4102 81.3086 59.7227 80.4805L60.1992 80.7422C59.8281 81.6172 59.2344 82.082 58.4688 82.082ZM64.4648 77.8984H65.0195L63.5273 82H62.9492C63.0156 81.7344 63.207 81.3945 63.5625 80.8203L63.4961 80.7812C62.875 81.6953 62.3398 82.0742 61.7227 82.0742C61.0469 82.0742 60.7266 81.6523 61.0312 80.8203L62.0977 77.8984H62.6523L61.5742 80.8594C61.3867 81.375 61.5156 81.6641 61.9609 81.6641C62.6328 81.6641 63.4531 80.6602 63.8555 79.5625L64.4648 77.8984ZM66.0352 82.0742C65.3242 82.0742 65.0273 81.6406 65.2852 80.9414L66.2461 78.3125H65.6016L65.7539 77.8984H66.3945L66.7852 76.8281L67.3906 76.6836L66.9492 77.8984H68.2109L68.0586 78.3125H66.8008L65.832 80.9727C65.6758 81.4062 65.8086 81.6211 66.2383 81.6211C66.4102 81.6211 66.6406 81.5859 66.8633 81.4766L66.7109 81.9141C66.5117 82.0234 66.2812 82.0742 66.0352 82.0742ZM69.8203 82H69.2656L70.6055 78.3125H69.9688L70.1211 77.8984H70.7578L70.8359 77.6914C71.1094 76.9531 71.707 76.6016 72.8281 76.4492L72.7188 76.9609C71.625 77.0039 71.5938 77.0234 71.3047 77.8984H72.3398L72.1875 78.3125H71.1641L69.8203 82ZM73.2422 82.082C72.0547 82.082 71.6172 81.0742 72.125 79.6836L72.1562 79.5977C72.5938 78.3984 73.2031 77.8164 74.0117 77.8164C75.1875 77.8164 75.6211 78.8242 75.1133 80.2148L75.082 80.3008C74.6484 81.4961 74.043 82.082 73.2422 82.082ZM73.2656 81.7031C73.8125 81.7031 74.1523 81.3047 74.5508 80.207L74.6211 80.0078C75.043 78.8516 74.8242 78.1914 74.0078 78.1914C73.4375 78.1914 73.0898 78.5898 72.6914 79.6914L72.6211 79.8789C72.1953 81.0469 72.4297 81.7031 73.2656 81.7031ZM75.9219 82H75.3672L76.8594 77.8984H77.4336C77.3555 78.1797 77.2422 78.3672 76.8086 79.0234L76.8789 79.0703C77.5156 78.1523 78.0078 77.8164 78.8164 77.7852L78.7578 78.293C77.6602 78.3125 77.0625 78.8633 76.6133 80.0977L75.9219 82ZM81.3281 82.082C80.2852 82.082 79.7344 81.5 79.9414 80.4883L80.4609 80.3828C80.2539 81.2422 80.6055 81.7227 81.332 81.7227C81.8711 81.7227 82.2266 81.457 82.2305 81.0156C82.2305 80.7109 82.0859 80.5312 81.6992 80.1953L81.3164 79.8633C80.9297 79.5273 80.7383 79.2305 80.7422 78.9102C80.75 78.2539 81.2578 77.8203 82.0742 77.8203C82.9961 77.8203 83.4805 78.3516 83.3164 79.2734L82.8008 79.3594C82.9883 78.6016 82.6953 78.1719 82.0742 78.1719C81.5508 78.1719 81.2266 78.4297 81.2227 78.8242C81.2188 79.0664 81.3438 79.2305 81.7227 79.5469L82.0977 79.8672C82.4727 80.1836 82.7305 80.5078 82.7266 80.9648C82.7148 81.6367 82.1875 82.082 81.3281 82.082ZM83.8125 82H83.2578L85.2461 76.5312H85.8008L83.8125 82ZM86.6719 82.082C85.4844 82.082 85.0469 81.0742 85.5547 79.6836L85.5859 79.5977C86.0234 78.3984 86.6328 77.8164 87.4414 77.8164C88.6172 77.8164 89.0508 78.8242 88.543 80.2148L88.5117 80.3008C88.0781 81.4961 87.4727 82.082 86.6719 82.082ZM86.6953 81.7031C87.2422 81.7031 87.582 81.3047 87.9805 80.207L88.0508 80.0078C88.4727 78.8516 88.2539 78.1914 87.4375 78.1914C86.8672 78.1914 86.5195 78.5898 86.1211 79.6914L86.0508 79.8789C85.625 81.0469 85.8594 81.7031 86.6953 81.7031ZM89.8281 82H89.2305L89.6562 77.8984H90.1875L89.9258 80.125C89.8711 80.5586 89.8125 80.8906 89.7188 81.3164L89.7969 81.3359C90.0078 80.8906 90.1992 80.5508 90.4609 80.1172L91.8281 77.8984H92.3711L92.1328 80.125C92.0859 80.5586 92.0273 80.8906 91.9336 81.3164L92.0117 81.3359C92.2188 80.8945 92.4102 80.5508 92.6758 80.1172L94.0273 77.8984H94.6094L92.0547 82H91.4492L91.7188 79.7148C91.7578 79.3633 91.8203 79.0273 91.918 78.5781L91.8398 78.5547C91.6133 79.0273 91.4258 79.3711 91.2109 79.7227L89.8281 82ZM95.8516 82H95.2969L97.2852 76.5312H97.8398L95.8516 82ZM99.2656 77.2773H98.5859L98.8203 76.6328H99.5L99.2656 77.2773ZM97.4922 82H96.9375L98.4297 77.8984H98.9844L97.4922 82ZM100.035 82H99.4961L99.6289 77.8984H100.152L100.07 79.8555C100.043 80.4258 100 80.8867 99.9375 81.3125L100.016 81.332C100.273 80.8906 100.5 80.5273 100.902 79.9297L102.285 77.8984H102.883L100.035 82ZM104.367 77.2773H103.688L103.922 76.6328H104.602L104.367 77.2773ZM102.594 82H102.039L103.531 77.8984H104.086L102.594 82ZM104.234 82H103.68L105.172 77.8984H105.75C105.684 78.1641 105.492 78.5039 105.137 79.0781L105.203 79.1172C105.828 78.2031 106.363 77.8242 106.977 77.8242C107.652 77.8242 107.973 78.2422 107.668 79.0742L106.602 82H106.047L107.125 79.0391C107.312 78.5234 107.184 78.2344 106.738 78.2344C106.066 78.2344 105.246 79.2383 104.844 80.3359L104.234 82ZM111.066 78.1055C111.336 78.3672 111.395 78.8008 111.195 79.3477C110.938 80.0508 110.41 80.4219 109.68 80.4219C109.406 80.4219 109.176 80.3711 108.996 80.2773C108.547 80.3008 108.387 80.4336 108.34 80.5703C108.258 80.793 108.391 80.9648 108.969 81.0977L109.547 81.2266C110.121 81.3555 110.66 81.6875 110.355 82.5C110.105 83.1602 109.504 83.4414 108.582 83.4414C107.41 83.4414 106.91 82.8789 107.176 82.1445C107.324 81.75 107.664 81.5352 108.156 81.4453L108.188 81.3633C107.898 81.1875 107.773 80.918 107.879 80.6328C107.98 80.3438 108.27 80.2031 108.699 80.1328L108.727 80.0586C108.512 79.793 108.477 79.3945 108.656 78.8984C108.914 78.1953 109.453 77.8203 110.207 77.8203C110.457 77.8203 110.672 77.8633 110.84 77.9492C110.879 77.2812 111.266 76.9219 111.93 76.8672L112.047 77.3672C111.281 77.4688 111.098 77.5625 111.066 78.1055ZM110.676 79.2539C110.926 78.5625 110.707 78.168 110.133 78.168C109.691 78.168 109.387 78.4258 109.176 78.9883C108.926 79.6797 109.145 80.0703 109.727 80.0703C110.168 80.0703 110.469 79.8164 110.676 79.2539ZM109.211 81.6367L108.656 81.5273C108.004 81.6211 107.766 81.8047 107.637 82.1562C107.453 82.6641 107.754 83.0508 108.668 83.0508C109.309 83.0508 109.727 82.8555 109.887 82.4102C110.051 81.9492 109.785 81.75 109.211 81.6367ZM111.914 82H111.133L111.406 81.25H112.188L111.914 82Z" fill="black"/>
<path opacity="0.6" d="M26.7656 102H23.8359L25.8242 96.5312H28.6758L28.5156 96.9766H26.2344L25.5469 98.8672H27.6367L27.4844 99.2891H25.3945L24.5703 101.551H26.9258L26.7656 102ZM28.6953 102.082C28.0039 102.082 27.5898 101.637 27.8242 100.992L27.8398 100.949C28.0625 100.32 28.8008 99.9492 29.7148 99.7188L30.6172 99.4922L30.7188 99.2344C30.9961 98.5156 30.6758 98.1875 30.0781 98.1875C29.3906 98.1875 29.043 98.5977 29.0352 99.3672L28.5312 99.2383C28.5898 98.3281 29.1445 97.8164 30.1172 97.8164C31.0703 97.8164 31.5859 98.375 31.2383 99.3359L30.5508 101.223C30.4141 101.605 30.4336 101.645 30.8633 101.676L30.6758 102.07C30.6445 102.078 30.5703 102.082 30.5117 102.082C29.9062 102.082 29.9023 101.734 30.3281 100.941L30.2578 100.914C29.8203 101.672 29.3789 102.082 28.6953 102.082ZM28.8633 101.664C29.457 101.664 30.0469 101.062 30.3867 100.156L30.4805 99.8984L29.7969 100.078C29.1055 100.258 28.5547 100.523 28.3828 100.984L28.3672 101.027C28.2305 101.41 28.457 101.664 28.8633 101.664ZM32.9531 102.082C31.8477 102.082 31.4375 101.074 31.9453 99.6836L31.9766 99.5977C32.4141 98.3984 33.0273 97.8164 33.8672 97.8164C34.7266 97.8164 35.2227 98.4023 35.0703 99.4219L34.5195 99.4609C34.6914 98.6523 34.4414 98.1914 33.8555 98.1914C33.2578 98.1914 32.9102 98.5898 32.5117 99.6914L32.4414 99.8789C32.0078 101.074 32.2891 101.703 32.9766 101.703C33.543 101.703 33.8945 101.309 34.207 100.48L34.6836 100.742C34.3125 101.617 33.7188 102.082 32.9531 102.082ZM35.6641 102H35.1094L37.0977 96.5312H37.6523L37.168 97.8555C37.0508 98.1836 36.8984 98.4961 36.5664 99.0781L36.6328 99.1172C37.2578 98.2031 37.793 97.8242 38.4062 97.8242C39.082 97.8242 39.4023 98.2422 39.0977 99.0742L38.0312 102H37.4766L38.5547 99.0391C38.7422 98.5234 38.6133 98.2344 38.168 98.2344C37.4961 98.2344 36.6758 99.2383 36.2734 100.336L35.6641 102ZM43.8125 97.8242C44.7578 97.8242 45.0625 98.6875 44.5312 100.148L44.4883 100.266C44.0781 101.395 43.3672 102.074 42.6094 102.074C41.9062 102.074 41.5312 101.652 41.5625 100.902L41.4766 100.898C41.3906 101.488 41.3008 101.836 41.1719 102.191L40.7461 103.367H40.1914L42.1797 97.8984H42.6992C42.6602 98.1094 42.4844 98.4219 42.1641 98.918L42.2344 98.9609C42.7812 98.1641 43.2188 97.8242 43.8125 97.8242ZM43.5977 98.1992C43.0039 98.1992 42.3672 98.9141 42.0195 99.8672L41.9688 100.008C41.5703 101.109 41.8086 101.703 42.5312 101.703C43.1133 101.703 43.5938 101.18 43.957 100.184L44.0117 100.035C44.4766 98.75 44.207 98.1992 43.5977 98.1992ZM47.0859 97.2773H46.4062L46.6406 96.6328H47.3203L47.0859 97.2773ZM45.3125 102H44.7578L46.25 97.8984H46.8047L45.3125 102ZM49.0586 97.8164C49.9531 97.8164 50.4922 98.4297 50.2266 99.4297C50.1758 99.6094 50.0977 99.8125 50 100.004H47.4961C47.1016 101.125 47.3945 101.707 48.0742 101.707C48.6406 101.707 48.9727 101.328 49.25 100.594L49.7305 100.812C49.3789 101.625 48.8086 102.082 48.0508 102.082C46.9531 102.082 46.5273 101.129 47.0195 99.7812L47.0859 99.6016C47.5156 98.418 48.125 97.8164 49.0586 97.8164ZM49.625 99.5977L49.6641 99.4844C49.9648 98.6484 49.6602 98.1914 49.0156 98.1914C48.3867 98.1914 48.0234 98.5898 47.6445 99.5977H49.625ZM51.8672 102.082C50.7617 102.082 50.3516 101.074 50.8594 99.6836L50.8906 99.5977C51.3281 98.3984 51.9414 97.8164 52.7812 97.8164C53.6406 97.8164 54.1367 98.4023 53.9844 99.4219L53.4336 99.4609C53.6055 98.6523 53.3555 98.1914 52.7695 98.1914C52.1719 98.1914 51.8242 98.5898 51.4258 99.6914L51.3555 99.8789C50.9219 101.074 51.2031 101.703 51.8906 101.703C52.457 101.703 52.8086 101.309 53.1211 100.48L53.5977 100.742C53.2266 101.617 52.6328 102.082 51.8672 102.082ZM56.6836 97.8164C57.5781 97.8164 58.1172 98.4297 57.8516 99.4297C57.8008 99.6094 57.7227 99.8125 57.625 100.004H55.1211C54.7266 101.125 55.0195 101.707 55.6992 101.707C56.2656 101.707 56.5977 101.328 56.875 100.594L57.3555 100.812C57.0039 101.625 56.4336 102.082 55.6758 102.082C54.5781 102.082 54.1523 101.129 54.6445 99.7812L54.7109 99.6016C55.1406 98.418 55.75 97.8164 56.6836 97.8164ZM57.25 99.5977L57.2891 99.4844C57.5898 98.6484 57.2852 98.1914 56.6406 98.1914C56.0117 98.1914 55.6484 98.5898 55.2695 99.5977H57.25ZM61.7422 97.2773H61.0625L61.2969 96.6328H61.9766L61.7422 97.2773ZM59.9688 102H59.4141L60.9062 97.8984H61.4609L59.9688 102ZM62.7422 102.082C61.6992 102.082 61.1484 101.5 61.3555 100.488L61.875 100.383C61.668 101.242 62.0195 101.723 62.7461 101.723C63.2852 101.723 63.6406 101.457 63.6445 101.016C63.6445 100.711 63.5 100.531 63.1133 100.195L62.7305 99.8633C62.3438 99.5273 62.1523 99.2305 62.1562 98.9102C62.1641 98.2539 62.6719 97.8203 63.4883 97.8203C64.4102 97.8203 64.8945 98.3516 64.7305 99.2734L64.2148 99.3594C64.4023 98.6016 64.1094 98.1719 63.4883 98.1719C62.9648 98.1719 62.6406 98.4297 62.6367 98.8242C62.6328 99.0664 62.7578 99.2305 63.1367 99.5469L63.5117 99.8672C63.8867 100.184 64.1445 100.508 64.1406 100.965C64.1289 101.637 63.6016 102.082 62.7422 102.082ZM69.3438 97.8242C70.2891 97.8242 70.5938 98.6875 70.0625 100.148L70.0195 100.266C69.6094 101.395 68.8984 102.074 68.1406 102.074C67.4375 102.074 67.0625 101.652 67.0938 100.902L67.0078 100.898C66.9219 101.488 66.832 101.836 66.7031 102.191L66.2773 103.367H65.7227L67.7109 97.8984H68.2305C68.1914 98.1094 68.0156 98.4219 67.6953 98.918L67.7656 98.9609C68.3125 98.1641 68.75 97.8242 69.3438 97.8242ZM69.1289 98.1992C68.5352 98.1992 67.8984 98.9141 67.5508 99.8672L67.5 100.008C67.1016 101.109 67.3398 101.703 68.0625 101.703C68.6445 101.703 69.125 101.18 69.4883 100.184L69.543 100.035C70.0078 98.75 69.7383 98.1992 69.1289 98.1992ZM71.4219 102.082C70.7305 102.082 70.3164 101.637 70.5508 100.992L70.5664 100.949C70.7891 100.32 71.5273 99.9492 72.4414 99.7188L73.3438 99.4922L73.4453 99.2344C73.7227 98.5156 73.4023 98.1875 72.8047 98.1875C72.1172 98.1875 71.7695 98.5977 71.7617 99.3672L71.2578 99.2383C71.3164 98.3281 71.8711 97.8164 72.8438 97.8164C73.7969 97.8164 74.3125 98.375 73.9648 99.3359L73.2773 101.223C73.1406 101.605 73.1602 101.645 73.5898 101.676L73.4023 102.07C73.3711 102.078 73.2969 102.082 73.2383 102.082C72.6328 102.082 72.6289 101.734 73.0547 100.941L72.9844 100.914C72.5469 101.672 72.1055 102.082 71.4219 102.082ZM71.5898 101.664C72.1836 101.664 72.7734 101.062 73.1133 100.156L73.207 99.8984L72.5234 100.078C71.832 100.258 71.2812 100.523 71.1094 100.984L71.0938 101.027C70.957 101.41 71.1836 101.664 71.5898 101.664ZM75.4492 102.074C74.7383 102.074 74.4414 101.641 74.6992 100.941L75.6602 98.3125H75.0156L75.168 97.8984H75.8086L76.1992 96.8281L76.8047 96.6836L76.3633 97.8984H77.3281L77.1758 98.3125H76.2148L75.2461 100.973C75.0898 101.406 75.2227 101.621 75.6523 101.621C75.8242 101.621 76.0547 101.586 76.2773 101.477L76.125 101.914C75.9258 102.023 75.6953 102.074 75.4492 102.074ZM77.957 102.074C77.2461 102.074 76.9492 101.641 77.207 100.941L78.168 98.3125H77.5234L77.6758 97.8984H78.3164L78.707 96.8281L79.3125 96.6836L78.8711 97.8984H80.1328L79.9805 98.3125H78.7227L77.7539 100.973C77.5977 101.406 77.7305 101.621 78.1602 101.621C78.332 101.621 78.5625 101.586 78.7852 101.477L78.6328 101.914C78.4336 102.023 78.2031 102.074 77.957 102.074ZM81.9883 97.8164C82.8828 97.8164 83.4219 98.4297 83.1562 99.4297C83.1055 99.6094 83.0273 99.8125 82.9297 100.004H80.4258C80.0312 101.125 80.3242 101.707 81.0039 101.707C81.5703 101.707 81.9023 101.328 82.1797 100.594L82.6602 100.812C82.3086 101.625 81.7383 102.082 80.9805 102.082C79.8828 102.082 79.457 101.129 79.9492 99.7812L80.0156 99.6016C80.4453 98.418 81.0547 97.8164 81.9883 97.8164ZM82.5547 99.5977L82.5938 99.4844C82.8945 98.6484 82.5898 98.1914 81.9453 98.1914C81.3164 98.1914 80.9531 98.5898 80.5742 99.5977H82.5547ZM83.6875 102H83.1328L84.625 97.8984H85.1992C85.1211 98.1797 85.0078 98.3672 84.5742 99.0234L84.6445 99.0703C85.2812 98.1523 85.7734 97.8164 86.582 97.7852L86.5234 98.293C85.4258 98.3125 84.8281 98.8633 84.3789 100.098L83.6875 102ZM86.4531 102H85.8984L87.3906 97.8984H87.9688C87.9023 98.1641 87.7109 98.5039 87.3555 99.0781L87.4219 99.1172C88.0469 98.2031 88.582 97.8242 89.1953 97.8242C89.8711 97.8242 90.1914 98.2422 89.8867 99.0742L88.8203 102H88.2656L89.3438 99.0391C89.5312 98.5234 89.4023 98.2344 88.957 98.2344C88.2852 98.2344 87.4648 99.2383 87.0625 100.336L86.4531 102ZM92.5508 97.8164C93.4453 97.8164 93.9844 98.4297 93.7188 99.4297C93.668 99.6094 93.5898 99.8125 93.4922 100.004H90.9883C90.5938 101.125 90.8867 101.707 91.5664 101.707C92.1328 101.707 92.4648 101.328 92.7422 100.594L93.2227 100.812C92.8711 101.625 92.3008 102.082 91.543 102.082C90.4453 102.082 90.0195 101.129 90.5117 99.7812L90.5781 99.6016C91.0078 98.418 91.6172 97.8164 92.5508 97.8164ZM93.1172 99.5977L93.1562 99.4844C93.457 98.6484 93.1523 98.1914 92.5078 98.1914C91.8789 98.1914 91.5156 98.5898 91.1367 99.5977H93.1172ZM95.0469 102.074C94.1016 102.074 93.7969 101.211 94.3281 99.75L94.3711 99.6289C94.7812 98.5039 95.4922 97.8242 96.25 97.8242C96.9492 97.8242 97.3281 98.2461 97.2969 98.9961H97.3828C97.4688 98.4102 97.5586 98.0625 97.6875 97.707L98.1133 96.5312H98.668L96.6797 102H96.1562C96.1953 101.789 96.3711 101.477 96.6953 100.98L96.6211 100.938C96.0781 101.734 95.6406 102.074 95.0469 102.074ZM95.2578 101.699C95.8516 101.699 96.4922 100.984 96.8398 100.031L96.8906 99.8867C97.2891 98.7891 97.0508 98.1953 96.3281 98.1953C95.7422 98.1953 95.2656 98.7188 94.9023 99.7148L94.8477 99.8633C94.3828 101.148 94.6484 101.699 95.2578 101.699ZM97.2227 103.051L97.1758 102.797C97.625 102.711 97.8594 102.504 98.0352 102H97.5938L97.8594 101.25H98.6406L98.4141 101.891C98.1484 102.637 97.8086 102.941 97.2227 103.051ZM102.523 102.082C101.48 102.082 100.93 101.5 101.137 100.488L101.656 100.383C101.449 101.242 101.801 101.723 102.527 101.723C103.066 101.723 103.422 101.457 103.426 101.016C103.426 100.711 103.281 100.531 102.895 100.195L102.512 99.8633C102.125 99.5273 101.934 99.2305 101.938 98.9102C101.945 98.2539 102.453 97.8203 103.27 97.8203C104.191 97.8203 104.676 98.3516 104.512 99.2734L103.996 99.3594C104.184 98.6016 103.891 98.1719 103.27 98.1719C102.746 98.1719 102.422 98.4297 102.418 98.8242C102.414 99.0664 102.539 99.2305 102.918 99.5469L103.293 99.8672C103.668 100.184 103.926 100.508 103.922 100.965C103.91 101.637 103.383 102.082 102.523 102.082ZM107.113 97.8164C108.008 97.8164 108.547 98.4297 108.281 99.4297C108.23 99.6094 108.152 99.8125 108.055 100.004H105.551C105.156 101.125 105.449 101.707 106.129 101.707C106.695 101.707 107.027 101.328 107.305 100.594L107.785 100.812C107.434 101.625 106.863 102.082 106.105 102.082C105.008 102.082 104.582 101.129 105.074 99.7812L105.141 99.6016C105.57 98.418 106.18 97.8164 107.113 97.8164ZM107.68 99.5977L107.719 99.4844C108.02 98.6484 107.715 98.1914 107.07 98.1914C106.441 98.1914 106.078 98.5898 105.699 99.5977H107.68ZM109.289 102H108.691L109.117 97.8984H109.648L109.387 100.125C109.332 100.559 109.273 100.891 109.18 101.316L109.258 101.336C109.469 100.891 109.66 100.551 109.922 100.117L111.289 97.8984H111.832L111.594 100.125C111.547 100.559 111.488 100.891 111.395 101.316L111.473 101.336C111.68 100.895 111.871 100.551 112.137 100.117L113.488 97.8984H114.07L111.516 102H110.91L111.18 99.7148C111.219 99.3633 111.281 99.0273 111.379 98.5781L111.301 98.5547C111.074 99.0273 110.887 99.3711 110.672 99.7227L109.289 102ZM113.797 102H113.242L114.734 97.8984H115.312C115.246 98.1641 115.055 98.5039 114.699 99.0781L114.766 99.1172C115.391 98.2031 115.926 97.8242 116.539 97.8242C117.215 97.8242 117.535 98.2422 117.23 99.0742L116.164 102H115.609L116.688 99.0391C116.875 98.5234 116.746 98.2344 116.301 98.2344C115.629 98.2344 114.809 99.2383 114.406 100.336L113.797 102ZM119.914 102.082C119.223 102.082 118.809 101.637 119.043 100.992L119.059 100.949C119.281 100.32 120.02 99.9492 120.934 99.7188L121.836 99.4922L121.938 99.2344C122.215 98.5156 121.895 98.1875 121.297 98.1875C120.609 98.1875 120.262 98.5977 120.254 99.3672L119.75 99.2383C119.809 98.3281 120.363 97.8164 121.336 97.8164C122.289 97.8164 122.805 98.375 122.457 99.3359L121.77 101.223C121.633 101.605 121.652 101.645 122.082 101.676L121.895 102.07C121.863 102.078 121.789 102.082 121.73 102.082C121.125 102.082 121.121 101.734 121.547 100.941L121.477 100.914C121.039 101.672 120.598 102.082 119.914 102.082ZM120.082 101.664C120.676 101.664 121.266 101.062 121.605 100.156L121.699 99.8984L121.016 100.078C120.324 100.258 119.773 100.523 119.602 100.984L119.586 101.027C119.449 101.41 119.676 101.664 120.082 101.664ZM123.25 102H122.695L124.188 97.8984H124.766C124.699 98.1641 124.508 98.5039 124.152 99.0781L124.219 99.1172C124.844 98.2031 125.379 97.8242 125.992 97.8242C126.668 97.8242 126.988 98.2422 126.684 99.0742L125.617 102H125.062L126.141 99.0391C126.328 98.5234 126.199 98.2344 125.754 98.2344C125.082 98.2344 124.262 99.2383 123.859 100.336L123.25 102ZM128.039 102.074C127.094 102.074 126.789 101.211 127.32 99.75L127.363 99.6289C127.773 98.5039 128.484 97.8242 129.242 97.8242C129.941 97.8242 130.32 98.2461 130.289 98.9961H130.375C130.461 98.4102 130.551 98.0625 130.68 97.707L131.105 96.5312H131.66L129.672 102H129.148C129.188 101.789 129.363 101.477 129.688 100.98L129.613 100.938C129.07 101.734 128.633 102.074 128.039 102.074ZM128.25 101.699C128.844 101.699 129.484 100.984 129.832 100.031L129.883 99.8867C130.281 98.7891 130.043 98.1953 129.32 98.1953C128.734 98.1953 128.258 98.7188 127.895 99.7148L127.84 99.8633C127.375 101.148 127.641 101.699 128.25 101.699ZM24.6328 114H24.0781L25.418 110.312H24.7812L24.9336 109.898H25.5703L25.6484 109.691C25.9219 108.953 26.5195 108.602 27.6406 108.449L27.5312 108.961C26.4375 109.004 26.4062 109.023 26.1172 109.898H27.1523L27 110.312H25.9766L24.6328 114ZM28.7188 109.277H28.0391L28.2734 108.633H28.9531L28.7188 109.277ZM26.9453 114H26.3906L27.8828 109.898H28.4375L26.9453 114ZM28.5859 114H28.0312L29.5234 109.898H30.1016C30.0352 110.164 29.8438 110.504 29.4883 111.078L29.5547 111.117C30.1797 110.203 30.7148 109.824 31.3281 109.824C32.0039 109.824 32.3242 110.242 32.0195 111.074L30.9531 114H30.3984L31.4766 111.039C31.6641 110.523 31.5352 110.234 31.0898 110.234C30.418 110.234 29.5977 111.238 29.1953 112.336L28.5859 114ZM34.3516 109.277H33.6719L33.9062 108.633H34.5859L34.3516 109.277ZM32.5781 114H32.0234L33.5156 109.898H34.0703L32.5781 114ZM35.3516 114.082C34.3086 114.082 33.7578 113.5 33.9648 112.488L34.4844 112.383C34.2773 113.242 34.6289 113.723 35.3555 113.723C35.8945 113.723 36.25 113.457 36.2539 113.016C36.2539 112.711 36.1094 112.531 35.7227 112.195L35.3398 111.863C34.9531 111.527 34.7617 111.23 34.7656 110.91C34.7734 110.254 35.2812 109.82 36.0977 109.82C37.0195 109.82 37.5039 110.352 37.3398 111.273L36.8242 111.359C37.0117 110.602 36.7188 110.172 36.0977 110.172C35.5742 110.172 35.25 110.43 35.2461 110.824C35.2422 111.066 35.3672 111.23 35.7461 111.547L36.1211 111.867C36.4961 112.184 36.7539 112.508 36.75 112.965C36.7383 113.637 36.2109 114.082 35.3516 114.082ZM37.8359 114H37.2812L39.2695 108.531H39.8242L39.3398 109.855C39.2227 110.184 39.0703 110.496 38.7383 111.078L38.8047 111.117C39.4297 110.203 39.9648 109.824 40.5781 109.824C41.2539 109.824 41.5742 110.242 41.2695 111.074L40.2031 114H39.6484L40.7266 111.039C40.9141 110.523 40.7852 110.234 40.3398 110.234C39.668 110.234 38.8477 111.238 38.4453 112.336L37.8359 114ZM43.9336 109.816C44.8281 109.816 45.3672 110.43 45.1016 111.43C45.0508 111.609 44.9727 111.812 44.875 112.004H42.3711C41.9766 113.125 42.2695 113.707 42.9492 113.707C43.5156 113.707 43.8477 113.328 44.125 112.594L44.6055 112.812C44.2539 113.625 43.6836 114.082 42.9258 114.082C41.8281 114.082 41.4023 113.129 41.8945 111.781L41.9609 111.602C42.3906 110.418 43 109.816 43.9336 109.816ZM44.5 111.598L44.5391 111.484C44.8398 110.648 44.5352 110.191 43.8906 110.191C43.2617 110.191 42.8984 110.59 42.5195 111.598H44.5ZM46.4297 114.074C45.4844 114.074 45.1797 113.211 45.7109 111.75L45.7539 111.629C46.1641 110.504 46.875 109.824 47.6328 109.824C48.332 109.824 48.7109 110.246 48.6797 110.996H48.7656C48.8516 110.41 48.9414 110.062 49.0703 109.707L49.4961 108.531H50.0508L48.0625 114H47.5391C47.5781 113.789 47.7539 113.477 48.0781 112.98L48.0039 112.938C47.4609 113.734 47.0234 114.074 46.4297 114.074ZM46.6406 113.699C47.2344 113.699 47.875 112.984 48.2227 112.031L48.2734 111.887C48.6719 110.789 48.4336 110.195 47.7109 110.195C47.125 110.195 46.6484 110.719 46.2852 111.715L46.2305 111.863C45.7656 113.148 46.0312 113.699 46.6406 113.699ZM53.0625 109.277H52.3828L52.6172 108.633H53.2969L53.0625 109.277ZM51.2891 114H50.7344L52.2266 109.898H52.7812L51.2891 114ZM52.9297 114H52.375L53.8672 109.898H54.4453C54.3789 110.164 54.1875 110.504 53.832 111.078L53.8984 111.117C54.5234 110.203 55.0586 109.824 55.6719 109.824C56.3477 109.824 56.668 110.242 56.3633 111.074L55.2969 114H54.7422L55.8203 111.039C56.0078 110.523 55.8789 110.234 55.4336 110.234C54.7617 110.234 53.9414 111.238 53.5391 112.336L52.9297 114ZM59.7266 114.082C58.5391 114.082 58.1016 113.074 58.6094 111.684L58.6406 111.598C59.0781 110.398 59.6875 109.816 60.4961 109.816C61.6719 109.816 62.1055 110.824 61.5977 112.215L61.5664 112.301C61.1328 113.496 60.5273 114.082 59.7266 114.082ZM59.75 113.703C60.2969 113.703 60.6367 113.305 61.0352 112.207L61.1055 112.008C61.5273 110.852 61.3086 110.191 60.4922 110.191C59.9219 110.191 59.5742 110.59 59.1758 111.691L59.1055 111.879C58.6797 113.047 58.9141 113.703 59.75 113.703ZM65.6914 109.898H66.2461L64.7539 114H64.1758C64.2422 113.734 64.4336 113.395 64.7891 112.82L64.7227 112.781C64.1016 113.695 63.5664 114.074 62.9492 114.074C62.2734 114.074 61.9531 113.652 62.2578 112.82L63.3242 109.898H63.8789L62.8008 112.859C62.6133 113.375 62.7422 113.664 63.1875 113.664C63.8594 113.664 64.6797 112.66 65.082 111.562L65.6914 109.898ZM66.3984 114H65.8438L67.3359 109.898H67.9102C67.832 110.18 67.7188 110.367 67.2852 111.023L67.3555 111.07C67.9922 110.152 68.4844 109.816 69.293 109.785L69.2344 110.293C68.1367 110.312 67.5391 110.863 67.0898 112.098L66.3984 114ZM71.25 114.082C70.5586 114.082 70.1445 113.637 70.3789 112.992L70.3945 112.949C70.6172 112.32 71.3555 111.949 72.2695 111.719L73.1719 111.492L73.2734 111.234C73.5508 110.516 73.2305 110.188 72.6328 110.188C71.9453 110.188 71.5977 110.598 71.5898 111.367L71.0859 111.238C71.1445 110.328 71.6992 109.816 72.6719 109.816C73.625 109.816 74.1406 110.375 73.793 111.336L73.1055 113.223C72.9688 113.605 72.9883 113.645 73.418 113.676L73.2305 114.07C73.1992 114.078 73.125 114.082 73.0664 114.082C72.4609 114.082 72.457 113.734 72.8828 112.941L72.8125 112.914C72.375 113.672 71.9336 114.082 71.25 114.082ZM71.418 113.664C72.0117 113.664 72.6016 113.062 72.9414 112.156L73.0352 111.898L72.3516 112.078C71.6602 112.258 71.1094 112.523 70.9375 112.984L70.9219 113.027C70.7852 113.41 71.0117 113.664 71.418 113.664ZM75.2773 114.074C74.5664 114.074 74.2695 113.641 74.5273 112.941L75.4883 110.312H74.8438L74.9961 109.898H75.6367L76.0273 108.828L76.6328 108.684L76.1914 109.898H77.4531L77.3008 110.312H76.043L75.0742 112.973C74.918 113.406 75.0508 113.621 75.4805 113.621C75.6523 113.621 75.8828 113.586 76.1055 113.477L75.9531 113.914C75.7539 114.023 75.5234 114.074 75.2773 114.074ZM79.3086 109.816C80.2031 109.816 80.7422 110.43 80.4766 111.43C80.4258 111.609 80.3477 111.812 80.25 112.004H77.7461C77.3516 113.125 77.6445 113.707 78.3242 113.707C78.8906 113.707 79.2227 113.328 79.5 112.594L79.9805 112.812C79.6289 113.625 79.0586 114.082 78.3008 114.082C77.2031 114.082 76.7773 113.129 77.2695 111.781L77.3359 111.602C77.7656 110.418 78.375 109.816 79.3086 109.816ZM79.875 111.598L79.9141 111.484C80.2148 110.648 79.9102 110.191 79.2656 110.191C78.6367 110.191 78.2734 110.59 77.8945 111.598H79.875ZM81.0078 114H80.4531L82.4414 108.531H82.9961L81.0078 114ZM84.4219 109.277H83.7422L83.9766 108.633H84.6562L84.4219 109.277ZM82.6484 114H82.0938L83.5859 109.898H84.1406L82.6484 114ZM86.3945 109.816C87.2891 109.816 87.8281 110.43 87.5625 111.43C87.5117 111.609 87.4336 111.812 87.3359 112.004H84.832C84.4375 113.125 84.7305 113.707 85.4102 113.707C85.9766 113.707 86.3086 113.328 86.5859 112.594L87.0664 112.812C86.7148 113.625 86.1445 114.082 85.3867 114.082C84.2891 114.082 83.8633 113.129 84.3555 111.781L84.4219 111.602C84.8516 110.418 85.4609 109.816 86.3945 109.816ZM86.9609 111.598L87 111.484C87.3008 110.648 86.9961 110.191 86.3516 110.191C85.7227 110.191 85.3594 110.59 84.9805 111.598H86.9609ZM88.0938 114H87.5391L89.0312 109.898H89.6055C89.5273 110.18 89.4141 110.367 88.9805 111.023L89.0508 111.07C89.6875 110.152 90.1797 109.816 90.9883 109.785L90.9297 110.293C89.832 110.312 89.2344 110.863 88.7852 112.098L88.0938 114ZM90.5078 114H89.7266L90 113.25H90.7812L90.5078 114Z" fill="black"/>
<path d="M75.6464 240.135C73.9589 240.135 73.039 239.285 73.0038 237.375L74.4452 237.152C74.4687 238.535 74.8554 238.998 75.6991 238.998C76.3202 238.998 76.7245 238.623 76.7245 238.055C76.7245 237.51 76.3964 237.146 75.5585 236.619L74.7323 236.104C73.8652 235.559 73.1737 234.979 73.1796 233.795C73.1855 232.518 74.1288 231.662 75.5585 231.662C77.1757 231.662 78.0136 232.488 78.0429 234.24L76.6777 234.445C76.6659 233.238 76.3085 232.793 75.5468 232.793C74.9902 232.793 74.6152 233.145 74.6152 233.66C74.6152 234.111 74.8495 234.434 75.746 234.973L76.578 235.477C77.4218 235.986 78.2187 236.584 78.2187 237.861C78.2187 239.221 77.1933 240.135 75.6464 240.135ZM83.5732 240H82.0439V233.08H80.081V231.797H85.5302V233.08H83.5732V240ZM90.7676 240H89.2324V237.51L87.1816 231.797H88.793L89.5723 234.352C89.7129 234.809 89.8418 235.289 89.9766 235.893H90.0996C90.2344 235.289 90.3633 234.809 90.4922 234.357L91.2656 231.797H92.8184L90.7676 237.51V240ZM99.6377 240H94.9209V231.797H96.4502V238.682H99.6377V240ZM106.891 240H102.027V231.797H106.803V233.109H103.557V235.148H106.158V236.355H103.557V238.682H106.891V240Z" fill="black"/>
<path d="M72.095 257.082C70.9544 257.082 70.3684 256.348 70.3684 254.918V253.617C70.3684 252.188 70.9544 251.449 72.095 251.449C73.2356 251.449 73.8216 252.188 73.8216 253.617V254.918C73.8216 256.348 73.2356 257.082 72.095 257.082ZM72.095 256.43C72.6887 256.43 72.9778 255.984 72.9778 255.059V253.496C72.9778 252.555 72.6887 252.102 72.095 252.102C71.5012 252.102 71.2122 252.555 71.2122 253.496V255.059C71.2122 255.984 71.5012 256.43 72.095 256.43ZM72.4114 254.75H71.7786V253.781H72.4114V254.75ZM78.2939 257H74.8486V256.379H76.2431V253.109H74.8486V252.562C76.1572 252.527 76.3252 252.465 76.3916 251.531H77.0869V256.379H78.2939V257ZM82.2272 257H81.4264V255.75H79.235V255.25L80.9186 251.531H82.2272V255.148H82.86V255.75H82.2272V257ZM80.9694 253.238L80.0709 255.148H81.4264V253.406C81.4264 252.938 81.4381 252.527 81.4537 252.18L81.3756 252.172C81.2662 252.512 81.1256 252.867 80.9694 253.238ZM90.0469 257.086C88.9609 257.086 88.3438 256.523 88.3125 255.227L89.1172 255.07C89.1289 256.109 89.4336 256.457 90.0703 256.457C90.5547 256.457 90.8633 256.164 90.8633 255.723C90.8633 255.324 90.625 255.055 90.0469 254.691L89.4805 254.332C88.875 253.949 88.4492 253.566 88.4531 252.828C88.457 252 89.0508 251.445 89.9648 251.445C90.9883 251.445 91.5391 252 91.5625 253.164L90.7969 253.309C90.7891 252.41 90.5195 252.07 89.9609 252.07C89.5273 252.07 89.2422 252.34 89.2422 252.746C89.2422 253.098 89.4258 253.332 90.043 253.707L90.6094 254.055C91.1875 254.41 91.6875 254.824 91.6875 255.617C91.6875 256.492 91.0391 257.086 90.0469 257.086ZM94.5231 257.086C93.4372 257.086 92.82 256.523 92.7887 255.227L93.5934 255.07C93.6052 256.109 93.9098 256.457 94.5466 256.457C95.0309 256.457 95.3395 256.164 95.3395 255.723C95.3395 255.324 95.1012 255.055 94.5231 254.691L93.9567 254.332C93.3512 253.949 92.9255 253.566 92.9294 252.828C92.9333 252 93.527 251.445 94.4411 251.445C95.4645 251.445 96.0153 252 96.0387 253.164L95.2731 253.309C95.2653 252.41 94.9958 252.07 94.4372 252.07C94.0036 252.07 93.7184 252.34 93.7184 252.746C93.7184 253.098 93.902 253.332 94.5192 253.707L95.0856 254.055C95.6637 254.41 96.1637 254.824 96.1637 255.617C96.1637 256.492 95.5153 257.086 94.5231 257.086ZM105.159 257H101.741V256.449C103.62 254.652 104.128 253.867 104.128 252.961C104.128 252.371 103.925 252.086 103.421 252.086C102.819 252.086 102.554 252.531 102.597 253.594L101.788 253.445C101.741 252.082 102.304 251.441 103.448 251.441C104.437 251.441 104.972 251.934 104.972 252.863C104.972 253.914 104.437 254.758 102.839 256.273L102.855 256.34C103.069 256.328 103.272 256.32 103.499 256.32H105.159V257ZM107.948 251.445C108.878 251.445 109.467 251.914 109.507 253.059L108.663 253.211C108.647 252.395 108.378 252.094 107.928 252.094C107.354 252.094 107.081 252.582 107.081 253.656V254.078C107.323 253.754 107.714 253.59 108.171 253.59C109.03 253.59 109.526 254.129 109.526 255.121V255.512C109.526 256.531 108.956 257.086 107.925 257.086C106.803 257.086 106.272 256.383 106.272 255.031V253.793C106.272 252.227 106.819 251.445 107.948 251.445ZM107.917 254.195C107.46 254.195 107.163 254.492 107.163 255.078V255.461C107.163 256.121 107.436 256.434 107.94 256.434C108.425 256.434 108.686 256.137 108.686 255.508V255.125C108.686 254.492 108.417 254.195 107.917 254.195Z" fill="black" fill-opacity="0.4"/>
</svg>
