<svg width="180" height="288" viewBox="0 0 180 288" fill="none" xmlns="http://www.w3.org/2000/svg">
<rect width="180" height="288" fill="white"/>
<path fill-rule="evenodd" clip-rule="evenodd" d="M56.5544 101.254C58.5016 101.254 59.4562 102.299 59.4562 104.418V111.522C59.4562 113.632 58.5016 114.677 56.5544 114.677C54.6262 114.677 53.6717 113.632 53.6717 111.522V104.418C53.6717 102.299 54.6262 101.254 56.5544 101.254ZM56.5639 102.719C55.9149 102.719 55.5999 103.205 55.5999 104.222V111.746C55.5999 112.736 55.9149 113.212 56.5639 113.212C57.213 113.212 57.5185 112.736 57.5185 111.746V104.222C57.5185 103.205 57.213 102.719 56.5639 102.719Z" fill="black"/>
<path d="M93.2899 101.254C95.113 101.254 96.0866 102.187 96.0866 104.353V106.127L94.2062 106.453V104.456C94.2062 103.112 93.9008 102.691 93.3089 102.691C92.698 102.691 92.4021 103.168 92.4021 104.166V111.737C92.4021 112.736 92.698 113.212 93.3185 113.212C93.8912 113.212 94.2253 112.773 94.2253 111.391V109.142L96.1248 109.506V111.55C96.1248 113.744 95.1035 114.677 93.2899 114.677C91.3808 114.677 90.474 113.632 90.474 111.532V104.409C90.474 102.299 91.3903 101.254 93.2899 101.254Z" fill="black"/>
<path fill-rule="evenodd" clip-rule="evenodd" d="M130.369 101.254C132.316 101.254 133.271 102.299 133.271 104.418V111.522C133.271 113.632 132.316 114.677 130.369 114.677C128.441 114.677 127.486 113.632 127.486 111.522V104.418C127.486 102.299 128.441 101.254 130.369 101.254ZM130.378 102.719C129.729 102.719 129.414 103.205 129.414 104.222V111.746C129.414 112.736 129.729 113.212 130.378 113.212C131.028 113.212 131.333 112.736 131.333 111.746V104.222C131.333 103.205 131.028 102.719 130.378 102.719Z" fill="black"/>
<path fill-rule="evenodd" clip-rule="evenodd" d="M44.2233 114.5H42.2284L41.9897 112.372H40.2047L39.9566 114.5H38.0952L39.8993 101.431H42.3715L44.2233 114.5ZM40.997 104.064C40.9302 105.669 40.8443 106.659 40.7393 107.695L40.367 111.037H41.8179L41.4552 107.695C41.3502 106.659 41.2643 105.669 41.1975 104.064H40.997Z" fill="black"/>
<path d="M49.6539 108.507C49.8066 109.216 49.9784 110.169 50.1598 111.419L50.3602 111.401C50.2075 109.655 50.0834 107.667 50.0834 106.155L50.0739 101.431H51.9638V114.5H49.568L47.9548 107.471C47.7925 106.733 47.6493 105.94 47.4298 104.418L47.2293 104.437C47.3534 105.968 47.4966 108.442 47.4966 110.001L47.5062 114.5H45.6257V101.431H48.0693L49.6539 108.507Z" fill="black"/>
<path d="M66.099 102.972H64.3331V114.5H62.4145V102.972H60.639V101.431H66.099V102.972Z" fill="black"/>
<path d="M69.4009 106.817H71.1095V101.431H73.0281V114.5H71.1095V108.311H69.4009V114.5H67.4823V101.431H69.4009V106.817Z" fill="black"/>
<path d="M79.1173 102.972H76.7501V106.883H78.8691V108.302H76.7501V112.96H79.2414V114.5H74.8314V101.431H79.1173V102.972Z" fill="black"/>
<path fill-rule="evenodd" clip-rule="evenodd" d="M83.5456 101.431C85.321 101.431 86.1992 102.309 86.1992 104.073V105.324C86.1992 106.631 85.6646 107.396 84.6242 107.611V107.77C85.4737 107.984 85.7887 108.386 85.9319 110.066L86.0656 111.737C86.1992 113.417 86.3233 114.005 86.6096 114.304L86.581 114.5H84.5001C84.3283 113.949 84.2424 113.333 84.1469 111.784L84.061 110.225C83.9656 108.666 83.7556 108.404 83.0969 108.404H82.7056V114.5H80.787V101.431H83.5456ZM82.7056 106.957H83.3451C83.9942 106.957 84.2806 106.631 84.2806 105.837V104.045C84.2806 103.224 83.9942 102.906 83.3451 102.906H82.7056V106.957Z" fill="black"/>
<path fill-rule="evenodd" clip-rule="evenodd" d="M100.534 101.431C102.309 101.431 103.188 102.309 103.188 104.073V105.324C103.188 106.631 102.653 107.396 101.613 107.611V107.77C102.462 107.984 102.777 108.386 102.92 110.066L103.054 111.737C103.188 113.417 103.312 114.005 103.598 114.304L103.569 114.5H101.489C101.317 113.949 101.231 113.333 101.135 111.784L101.049 110.225C100.954 108.666 100.744 108.404 100.085 108.404H99.694V114.5H97.7754V101.431H100.534ZM99.694 106.957H100.334C100.983 106.957 101.269 106.631 101.269 105.837V104.045C101.269 103.224 100.983 102.906 100.334 102.906H99.694V106.957Z" fill="black"/>
<path d="M109.258 102.972H106.89V106.883H109.01V108.302H106.89V112.96H109.382V114.5H104.972V101.431H109.258V102.972Z" fill="black"/>
<path fill-rule="evenodd" clip-rule="evenodd" d="M116.645 114.5H114.65L114.411 112.372H112.626L112.378 114.5H110.517L112.321 101.431H114.793L116.645 114.5ZM113.419 104.064C113.352 105.669 113.266 106.659 113.161 107.695L112.789 111.037H114.24L113.877 107.695C113.772 106.659 113.686 105.669 113.619 104.064H113.419Z" fill="black"/>
<path d="M122.467 102.972H120.701V114.5H118.782V102.972H117.007V101.431H122.467V102.972Z" fill="black"/>
<path d="M125.769 114.5H123.85V101.431H125.769V114.5Z" fill="black"/>
<path d="M139.007 108.507C139.159 109.216 139.331 110.169 139.513 111.419L139.713 111.401C139.56 109.655 139.436 107.667 139.436 106.155L139.427 101.431H141.317V114.5H138.921L137.308 107.471C137.145 106.733 137.002 105.94 136.783 104.418L136.582 104.437C136.706 105.968 136.849 108.442 136.849 110.001L136.859 114.5H134.979V101.431H137.422L139.007 108.507Z" fill="black"/>
<path d="M70 138.5H110" stroke="black"/>
<path d="M60.6364 156.5H60.1794V152.398H60.8034L61.2575 154.098C61.3249 154.355 61.3718 154.552 61.4245 154.786H61.4831C61.5359 154.552 61.5857 154.355 61.653 154.095L62.1013 152.398H62.74V156.5H62.2595L62.2683 155.018C62.2712 154.452 62.2829 153.916 62.3239 153.216L62.2654 153.207L61.6091 155.577H61.2868L60.6423 153.204L60.5837 153.21C60.6159 153.901 60.6306 154.443 60.6335 155.018L60.6364 156.5ZM64.6814 156.5H64.1775L65.1795 152.398H65.8767L66.8963 156.5H66.3601L66.1316 155.612H64.907L64.6814 156.5ZM65.2761 154.021L64.992 155.231H66.0496L65.7683 154.021C65.6834 153.646 65.6189 153.339 65.5457 152.899H65.4841C65.4197 153.339 65.3611 153.646 65.2761 154.021ZM69.4617 156.5H68.451V152.398H69.4617C70.4197 152.398 70.8797 152.967 70.8797 154.142V154.763C70.8797 155.935 70.4197 156.5 69.4617 156.5ZM68.9695 152.806V156.093H69.4441C70.0799 156.093 70.3494 155.718 70.3494 154.854V154.054C70.3494 153.178 70.0799 152.806 69.4441 152.806H68.9695ZM74.828 156.5H72.5868V152.398H74.7782V152.832H73.1053V154.127H74.5467V154.534H73.1053V156.066H74.828V156.5ZM83.0439 156.5H80.6474V156.087H81.5878V152.809H80.6474V152.398H83.0439V152.809H82.1064V156.087H83.0439V156.5ZM85.2285 156.5H84.7509V152.398H85.3632L86.3916 155.023C86.4941 155.284 86.5527 155.498 86.6201 155.797L86.6816 155.794C86.6435 155.41 86.6201 155.026 86.6201 154.681L86.6171 152.398H87.0947V156.5H86.497L85.4834 153.91C85.3779 153.638 85.3076 153.415 85.2285 153.087L85.1699 153.093C85.205 153.468 85.2255 153.875 85.2255 154.215L85.2285 156.5ZM95.2754 156.5H92.8789V156.087H93.8194V152.809H92.8789V152.398H95.2754V152.809H94.3379V156.087H95.2754V156.5ZM98.1632 156.562C97.3194 156.562 96.8887 155.967 96.8887 154.839V154.06C96.8887 152.935 97.3223 152.34 98.1573 152.34C98.8927 152.34 99.3409 152.8 99.3643 153.834L98.8604 153.957C98.8516 153.046 98.6143 152.741 98.1661 152.741C97.6593 152.741 97.4161 153.137 97.4161 153.992V154.903C97.4161 155.756 97.6622 156.154 98.1749 156.154C98.6231 156.154 98.878 155.847 98.8897 154.912L99.4024 155.047C99.3731 156.104 98.8985 156.562 98.1632 156.562ZM103.368 156.5H101.127V152.398H103.318V152.832H101.646V154.127H103.087V154.534H101.646V156.066H103.368V156.5ZM107.469 156.5H105.251V152.398H105.77V156.063H107.469V156.5ZM109.53 156.5H109.027L110.029 152.398H110.726L111.745 156.5H111.209L110.981 155.612H109.756L109.53 156.5ZM110.125 154.021L109.841 155.231H110.899L110.617 154.021C110.532 153.646 110.468 153.339 110.395 152.899H110.333C110.269 153.339 110.21 153.646 110.125 154.021ZM113.769 156.5H113.291V152.398H113.904L114.932 155.023C115.034 155.284 115.093 155.498 115.16 155.797L115.222 155.794C115.184 155.41 115.16 155.026 115.16 154.681L115.157 152.398H115.635V156.5H115.037L114.024 153.91C113.918 153.638 113.848 153.415 113.769 153.087L113.71 153.093C113.745 153.468 113.766 153.875 113.766 154.215L113.769 156.5ZM118.388 156.5H117.377V152.398H118.388C119.346 152.398 119.806 152.967 119.806 154.142V154.763C119.806 155.935 119.346 156.5 118.388 156.5ZM117.896 152.806V156.093H118.37C119.006 156.093 119.276 155.718 119.276 154.854V154.054C119.276 153.178 119.006 152.806 118.37 152.806H117.896Z" fill="#750E20"/>
<path d="M67.1436 171.5H66.2158L67.5244 164.664H68.7158L70.0391 171.5H69.0381L68.8135 170.226H67.373L67.1436 171.5ZM67.8125 167.662L67.5 169.522H68.6865L68.374 167.662C68.2764 167.086 68.208 166.578 68.1396 165.846H68.042C67.9785 166.578 67.9102 167.086 67.8125 167.662ZM72.417 166.373H73.3447V171.5H72.4268C72.4268 171.271 72.4756 171.031 72.6318 170.558L72.5439 170.523C72.2656 171.256 71.875 171.568 71.3184 171.568C70.7129 171.568 70.4053 171.227 70.4053 170.577V166.373H71.3379V170.387C71.3379 170.709 71.4697 170.88 71.7236 170.88C72.1387 170.88 72.417 170.309 72.417 169.469V166.373ZM75.4102 171.583C74.7119 171.583 74.3604 171.231 74.3604 170.455V167.086H73.8135V166.373H74.3604V165.206L75.293 164.894V166.373H76.2305V167.086H75.293V170.367C75.293 170.694 75.4199 170.821 75.6885 170.821C75.8496 170.821 76.04 170.777 76.2354 170.699L76.1719 171.402C75.9766 171.515 75.6885 171.583 75.4102 171.583ZM78.7158 166.373H79.6436V171.5H78.7256C78.7256 171.271 78.7744 171.031 78.9307 170.558L78.8428 170.523C78.5645 171.256 78.1738 171.568 77.6172 171.568C77.0117 171.568 76.7041 171.227 76.7041 170.577V166.373H77.6367V170.387C77.6367 170.709 77.7686 170.88 78.0225 170.88C78.4375 170.88 78.7158 170.309 78.7158 169.469V166.373ZM81.2891 171.5H80.3613V166.373H81.2793C81.2891 166.573 81.2451 166.788 81.0791 167.306L81.1621 167.34C81.4746 166.588 81.8115 166.305 82.3193 166.305C82.8662 166.305 83.1055 166.681 82.9639 167.335L83.0469 167.364C83.3105 166.617 83.6865 166.305 84.2285 166.305C84.8047 166.305 85.0781 166.632 85.0781 167.301V171.5H84.1504V167.467C84.1504 167.159 84.0332 166.998 83.7988 166.998C83.4131 166.998 83.1885 167.579 83.1885 168.38V171.5H82.2559V167.477C82.2559 167.169 82.1338 166.998 81.9141 166.998C81.543 166.998 81.2891 167.56 81.2891 168.39V171.5ZM86.709 171.5H85.7812V166.373H86.6992C86.6992 166.603 86.6504 166.842 86.499 167.315L86.5869 167.35C86.8604 166.617 87.251 166.305 87.8125 166.305C88.4131 166.305 88.7207 166.646 88.7207 167.296V171.5H87.7881V167.486C87.7881 167.164 87.6562 166.993 87.4023 166.993C86.9873 166.993 86.709 167.564 86.709 168.404V171.5ZM91.2109 172.477H90.2979L91.7627 164.42H92.6758L91.2109 172.477ZM96.1182 171.5H95.0049L93.8965 164.664H94.8584L95.3857 168.385C95.4639 168.956 95.5176 169.449 95.5713 170.216H95.6641C95.7129 169.449 95.7617 168.946 95.8398 168.37L96.3428 164.664H97.3096L97.8223 168.37C97.9004 168.946 97.9443 169.449 97.9883 170.211H98.0908C98.1445 169.449 98.1934 168.956 98.2764 168.385L98.7939 164.664H99.7217L98.6377 171.5H97.5098L97.0654 168.199C96.9922 167.672 96.9287 167.11 96.8652 166.3H96.7676C96.7041 167.11 96.6406 167.672 96.5674 168.199L96.1182 171.5ZM101.147 165.763H100.112V164.845H101.147V165.763ZM101.094 171.5H100.166V166.373H101.094V171.5ZM102.734 171.5H101.807V166.373H102.725C102.725 166.603 102.676 166.842 102.524 167.315L102.612 167.35C102.886 166.617 103.276 166.305 103.838 166.305C104.438 166.305 104.746 166.646 104.746 167.296V171.5H103.813V167.486C103.813 167.164 103.682 166.993 103.428 166.993C103.013 166.993 102.734 167.564 102.734 168.404V171.5ZM106.738 171.583C106.04 171.583 105.688 171.231 105.688 170.455V167.086H105.142V166.373H105.688V165.206L106.621 164.894V166.373H107.559V167.086H106.621V170.367C106.621 170.694 106.748 170.821 107.017 170.821C107.178 170.821 107.368 170.777 107.563 170.699L107.5 171.402C107.305 171.515 107.017 171.583 106.738 171.583ZM110.039 169.913V169.669L110.933 169.801V170.021C110.933 171.134 110.312 171.598 109.419 171.593C108.418 171.593 107.91 170.987 107.91 169.84V168.038C107.91 166.886 108.442 166.28 109.458 166.28C110.425 166.28 110.933 166.847 110.933 167.911C110.933 168.258 110.928 168.8 110.913 169.186H108.833V169.957C108.833 170.606 108.999 170.919 109.414 170.919C109.766 170.919 110.039 170.685 110.039 169.913ZM109.448 166.954C109.038 166.954 108.833 167.276 108.833 167.926V168.502H110.005V167.784C110.005 167.223 109.824 166.954 109.448 166.954ZM112.49 171.5H111.562V166.373H112.495C112.505 166.617 112.461 166.832 112.295 167.34L112.383 167.379C112.705 166.568 112.998 166.31 113.633 166.251L113.77 167.154C112.71 167.252 112.49 167.555 112.49 168.81V171.5ZM77.2803 183.598C76.0889 183.598 75.5029 182.836 75.5029 181.347V178.817C75.5029 177.333 76.0938 176.571 77.2754 176.571C78.3691 176.571 79.0088 177.206 79.0088 178.739V179.091L78.0811 179.276V178.891C78.0811 177.67 77.8076 177.309 77.2949 177.309C76.7383 177.309 76.4697 177.748 76.4697 178.686V181.474C76.4697 182.406 76.7383 182.846 77.2998 182.846C77.8076 182.846 78.1055 182.479 78.1055 181.21V180.775L79.043 180.995V181.396C79.043 182.963 78.3643 183.598 77.2803 183.598ZM81.1133 183.598C80.1123 183.598 79.5801 182.953 79.5801 181.825V180.048C79.5801 178.92 80.1123 178.275 81.1133 178.275C82.1143 178.275 82.6514 178.92 82.6514 180.048V181.825C82.6514 182.953 82.1143 183.598 81.1133 183.598ZM81.1133 182.914C81.5088 182.914 81.7041 182.592 81.7041 181.923V179.955C81.7041 179.276 81.5088 178.959 81.1133 178.959C80.7178 178.959 80.5273 179.276 80.5273 179.955V181.923C80.5273 182.592 80.7178 182.914 81.1133 182.914ZM84.209 183.5H83.2812V176.664H84.209V183.5ZM85.8496 183.5H84.9219V176.664H85.8496V183.5ZM88.6035 181.913V181.669L89.4971 181.801V182.021C89.4971 183.134 88.877 183.598 87.9834 183.593C86.9824 183.593 86.4746 182.987 86.4746 181.84V180.038C86.4746 178.886 87.0068 178.28 88.0225 178.28C88.9893 178.28 89.4971 178.847 89.4971 179.911C89.4971 180.258 89.4922 180.8 89.4775 181.186H87.3975V181.957C87.3975 182.606 87.5635 182.919 87.9785 182.919C88.3301 182.919 88.6035 182.685 88.6035 181.913ZM88.0127 178.954C87.6025 178.954 87.3975 179.276 87.3975 179.926V180.502H88.5693V179.784C88.5693 179.223 88.3887 178.954 88.0127 178.954ZM91.5576 183.593C90.5469 183.593 90.0391 182.982 90.0391 181.786V180.062C90.0391 178.881 90.5566 178.28 91.5723 178.28C92.4902 178.28 93.0371 178.773 93.0371 179.97V180.233L92.1094 180.36V180.072C92.1094 179.223 91.9336 178.954 91.5674 178.954C91.1719 178.954 90.9863 179.271 90.9863 179.945V181.903C90.9863 182.592 91.1719 182.919 91.5723 182.919C91.9385 182.919 92.124 182.665 92.124 181.786V181.479L93.0664 181.61V181.879C93.0664 183.109 92.4805 183.598 91.5576 183.593ZM94.9414 183.583C94.2432 183.583 93.8916 183.231 93.8916 182.455V179.086H93.3447V178.373H93.8916V177.206L94.8242 176.894V178.373H95.7617V179.086H94.8242V182.367C94.8242 182.694 94.9512 182.821 95.2197 182.821C95.3809 182.821 95.5713 182.777 95.7666 182.699L95.7031 183.402C95.5078 183.515 95.2197 183.583 94.9414 183.583ZM97.2314 177.763H96.1963V176.845H97.2314V177.763ZM97.1777 183.5H96.25V178.373H97.1777V183.5ZM99.3359 183.598C98.335 183.598 97.8027 182.953 97.8027 181.825V180.048C97.8027 178.92 98.335 178.275 99.3359 178.275C100.337 178.275 100.874 178.92 100.874 180.048V181.825C100.874 182.953 100.337 183.598 99.3359 183.598ZM99.3359 182.914C99.7314 182.914 99.9268 182.592 99.9268 181.923V179.955C99.9268 179.276 99.7314 178.959 99.3359 178.959C98.9404 178.959 98.75 179.276 98.75 179.955V181.923C98.75 182.592 98.9404 182.914 99.3359 182.914ZM102.432 183.5H101.504V178.373H102.422C102.422 178.603 102.373 178.842 102.222 179.315L102.31 179.35C102.583 178.617 102.974 178.305 103.535 178.305C104.136 178.305 104.443 178.646 104.443 179.296V183.5H103.511V179.486C103.511 179.164 103.379 178.993 103.125 178.993C102.71 178.993 102.432 179.564 102.432 180.404V183.5Z" fill="black"/>
</svg>
