<svg width="180" height="288" viewBox="0 0 180 288" fill="none" xmlns="http://www.w3.org/2000/svg">
<rect width="180" height="288" fill="white"/>
<path d="M92.2846 94.7119C92.4295 94.7139 93.1137 95.298 93.8047 96.0102C94.4952 96.7218 95.0606 97.3927 95.0616 97.5019C95.0611 97.6113 94.7992 98.2936 94.4792 99.0185C94.1586 99.7445 93.1157 101.8 92.1613 103.586C91.2069 105.372 90.1136 107.41 89.7313 108.115C89.349 108.82 88.1176 111.083 86.9952 113.143C85.8727 115.203 84.1175 118.441 83.0949 120.338C82.0724 122.236 80.706 124.764 80.0587 125.957C79.4115 127.149 78.6696 128.525 78.4101 129.013C78.1502 129.501 76.2837 133.005 74.2618 136.8C70.5859 143.699 70.5853 143.7 70.681 144.685C70.7943 145.853 70.1037 147.413 71.7248 148.275C73.3466 149.135 79.0676 139.206 80.6255 138.433C82.9948 137.258 83.6777 136.53 85.7419 134.772C86.6479 134.001 88.2868 132.511 89.3836 131.46C90.4804 130.408 92.3147 128.487 93.4592 127.191C94.6036 125.894 95.9301 124.244 96.407 123.524C96.8839 122.804 97.3525 122.214 97.4479 122.212C98.1625 122.194 100.013 122.974 100.518 123.548C100.609 123.653 100.496 124.181 100.243 124.832C100.006 125.44 99.3888 126.54 98.8713 127.275C98.3538 128.011 97.3846 129.544 96.7176 130.683C96.0506 131.821 94.8183 134.084 93.9792 135.71C93.14 137.337 91.6059 140.54 90.57 142.829C89.5339 145.117 88.3268 147.956 87.8874 149.137C87.448 150.318 86.9007 151.906 86.6713 152.665C86.4417 153.423 86.1429 154.466 86.0071 154.981C85.8716 155.495 85.8275 155.917 85.9091 155.917C85.9913 155.916 86.463 155.331 86.9573 154.616C87.4522 153.9 88.3284 152.458 88.9044 151.412C89.4774 150.371 89.9618 149.497 89.9846 149.462C90.0026 149.436 90.7067 149.678 91.5484 150.002C92.39 150.325 93.1088 150.624 93.1457 150.666C93.1811 150.71 93.0136 151.342 92.772 152.071C92.5299 152.803 92.0466 153.936 91.6978 154.588C91.3488 155.241 90.5027 156.628 89.8175 157.67C89.1321 158.712 88.1301 160.034 87.5917 160.608C87.0533 161.182 86.3373 161.784 85.9997 161.944C85.4216 162.219 85.293 162.201 83.7866 161.634C82.8951 161.298 82.0542 160.85 81.884 160.621C81.6811 160.347 81.58 159.875 81.5801 159.197C81.5801 158.64 81.6952 157.563 81.835 156.804C81.9749 156.045 82.3557 154.582 82.6811 153.552C83.453 151.109 84.2607 148.687 85.155 146.298C85.5729 145.182 86.4649 142.976 87.1371 141.395C87.8067 139.82 88.3202 138.491 88.2819 138.433C88.239 138.384 87.2519 139.07 86.0881 139.957C82.3473 142.808 74.5107 154.992 70.681 153.557C69.2867 153.034 68.0407 151.896 67.8245 150.002C64.945 150.029 59.0209 167.216 58.2455 169.821C57.7126 171.613 49.9507 194.59 49.4748 196.325C48.9989 198.06 48.3422 200.677 48.015 202.141C47.6879 203.604 47.3238 205.512 47.2059 206.379C47.0879 207.247 46.9762 207.975 46.9578 207.997C46.937 208.019 46.159 207.908 45.2276 207.749C44.2959 207.59 43.4702 207.503 43.3904 207.557C43.3127 207.612 42.694 207.072 42.016 206.359C40.9869 205.276 40.7834 204.958 40.785 204.439C40.786 204.097 40.8984 203.34 41.0346 202.757C41.1711 202.175 41.613 200.8 42.0167 199.701C45.1891 191.076 47.2055 185.105 51.9174 173.35C53.6844 168.941 55.8189 164.627 57.2611 160.063C57.5694 159.086 58.5495 156.159 59.4393 153.557C60.3294 150.955 61.3621 147.983 61.7342 146.952C62.1064 145.922 63.0379 143.439 63.8046 141.433C64.5716 139.427 65.8319 136.194 66.6047 134.247C67.3751 132.307 68.0058 130.691 68.0095 130.649C68.01 130.616 68.0916 130.59 68.1915 130.59C68.2927 130.59 69.0727 130.867 69.9254 131.206C71.3829 131.784 71.4781 131.856 71.4781 132.377C71.4782 132.682 71.5502 132.983 71.6386 133.046C71.729 133.104 72.4966 131.846 73.3458 130.247C74.1961 128.647 75.4632 126.273 76.1614 124.971C76.8597 123.67 78.5222 120.609 79.8559 118.17C81.1894 115.73 82.5859 113.158 82.959 112.453C83.3318 111.748 84.102 110.329 84.6699 109.299C85.2379 108.269 86.0204 106.82 86.409 106.08C86.7967 105.341 87.0778 104.695 87.0345 104.641C86.9898 104.59 86.8456 104.663 86.7144 104.804C86.583 104.945 86.008 105.502 85.4366 106.043C84.865 106.584 84.3112 107.117 84.2063 107.227C84.1007 107.337 83.2469 108.18 82.3089 109.101C81.3707 110.023 79.8568 111.52 78.945 112.429C78.0331 113.337 77.0137 114.358 76.6799 114.697C76.3458 115.037 75.2148 116.157 74.1659 117.186C73.117 118.215 71.5897 119.722 70.7724 120.536C69.9551 121.349 68.6286 122.65 67.8245 123.427C67.0204 124.204 65.5695 125.579 64.601 126.483C63.6326 127.386 62.0722 128.799 61.1331 129.623C60.1941 130.446 58.8012 131.611 58.0382 132.211C57.2754 132.812 56.1782 133.572 55.6 133.902C55.022 134.231 54.2719 134.56 53.9337 134.632C53.3559 134.755 53.2356 134.679 51.9174 133.35C50.9798 132.404 50.4799 131.748 50.4056 131.365C50.3421 131.037 50.4186 130.31 50.5854 129.657C50.7452 129.031 51.2329 127.633 51.6693 126.548C52.1056 125.464 52.9677 123.513 53.5845 122.212C54.2011 120.911 55.6807 117.894 56.8718 115.509C58.0629 113.124 59.2893 110.684 59.5976 110.087C59.9057 109.491 60.4736 108.381 60.859 107.621C61.2443 106.861 61.8093 105.722 62.1145 105.09C62.5506 104.186 62.6001 103.984 62.3478 104.143C62.1713 104.255 61.6254 104.685 61.1347 105.098C60.644 105.511 58.233 107.578 55.7776 109.692C53.3219 111.807 51.1091 113.711 50.8603 113.924C50.6104 114.138 48.5343 115.947 46.2461 117.946C43.9572 119.945 41.5775 122.038 40.9574 122.597C40.3374 123.156 38.0829 125.205 35.9472 127.151C33.8116 129.097 31.8212 130.906 31.5247 131.172C31.2282 131.439 30.3608 132.294 29.5976 133.074C28.2099 134.493 28.2096 134.493 26.9536 133.183C25.6969 131.872 25.6969 131.871 26.8674 130.492C27.5109 129.733 28.3139 128.838 28.6519 128.503C28.9897 128.169 29.7707 127.414 30.3873 126.827C31.0038 126.24 31.8984 125.405 32.3746 124.971C32.8505 124.538 33.3961 124.037 33.587 123.858C33.7777 123.678 34.558 122.973 35.3209 122.29C36.0839 121.608 37.645 120.206 38.7895 119.176C39.934 118.146 41.2996 116.924 41.8243 116.46C42.3489 115.997 44.1824 114.392 45.8992 112.895C47.6156 111.398 49.2246 109.999 49.4748 109.785C49.7243 109.572 51.9388 107.667 54.395 105.553C56.8514 103.438 59.9247 100.817 61.2245 99.7266C62.5241 98.6367 64.123 97.3282 64.7779 96.8188C65.4328 96.3093 66.1387 95.8931 66.3461 95.8931C66.5689 95.894 67.2398 96.4297 67.982 97.1996C69.1554 98.4172 69.2332 98.5477 69.1238 99.1213C69.0592 99.46 68.7054 100.419 68.3379 101.253C67.9698 102.087 66.135 105.813 64.26 109.533C62.385 113.253 59.9994 118.027 58.9587 120.141C57.9179 122.255 56.5982 125.082 56.0264 126.422C55.4548 127.761 55.0101 128.937 55.0384 129.034C55.0685 129.129 55.7158 128.744 56.4781 128.175C57.2417 127.606 58.842 126.275 60.0336 125.218C61.2253 124.162 62.6016 122.92 63.0922 122.459C63.5828 121.997 64.4022 121.233 64.913 120.76C65.4238 120.287 66.2318 119.52 66.7087 119.054C67.1855 118.588 68.2091 117.59 68.9827 116.836C69.7562 116.082 70.5437 115.297 70.7322 115.092C70.9211 114.887 71.8046 114.01 72.6965 113.143C73.5884 112.275 74.4428 111.432 74.5953 111.27C74.7478 111.107 75.1818 110.674 75.5596 110.307C75.9373 109.94 76.7118 109.186 77.2802 108.631C77.8488 108.077 79.0583 106.869 79.968 105.947C80.8778 105.026 82.0802 103.828 82.6403 103.286C83.2002 102.744 83.9889 101.989 84.3928 101.61C84.7968 101.23 86.251 99.8488 87.6237 98.5402C88.9965 97.2318 90.5482 95.8351 91.0715 95.4359C91.5942 95.0372 92.1397 94.7113 92.2846 94.7119Z" fill="black"/>
<path d="M113.206 128.108C114.811 126.523 114.811 126.524 116.154 127.218C116.893 127.6 117.606 128.033 117.737 128.181C117.938 128.408 117.896 128.625 117.467 129.6C117.188 130.234 115.957 132.57 114.732 134.793C113.506 137.016 112.369 139.101 112.205 139.426C112.04 139.751 111.546 140.677 111.106 141.482C110.666 142.287 110.341 142.986 110.383 143.033C110.429 143.075 111.467 141.934 112.694 140.491C114.928 137.863 114.929 137.863 116.474 138.666C117.678 139.292 118.031 139.566 118.076 139.913C118.131 140.331 118.19 140.351 119.03 140.222C119.523 140.146 120.85 140.009 121.979 139.917C123.752 139.773 124.124 139.681 124.707 139.243C125.077 138.964 125.451 138.736 125.537 138.736C125.624 138.736 126.128 138.962 126.657 139.238C127.446 139.648 127.679 139.697 127.936 139.504C128.109 139.374 129.04 138.283 130.006 137.08C130.971 135.876 132.542 133.824 133.497 132.519C134.452 131.215 135.36 130.028 135.516 129.881C135.758 129.653 136 129.719 137.226 130.35C138.011 130.754 138.762 131.202 138.894 131.345C139.097 131.567 139.021 131.963 138.397 133.939C137.991 135.222 137.318 137.381 136.901 138.736C136.484 140.091 136.143 141.313 136.142 141.452C136.141 141.642 136.27 141.627 136.672 141.39C137.183 141.09 137.26 141.103 138.481 141.681C139.324 142.08 140.051 142.285 140.622 142.285C141.098 142.284 142.722 142.01 144.232 141.675C145.742 141.339 147.681 141.019 148.539 140.962C150.086 140.86 150.113 140.866 151.657 141.679C152.513 142.129 153.391 142.687 153.608 142.919C153.824 143.15 154.001 143.479 154 143.649C153.999 143.821 153.812 144.415 153.584 144.971C153.356 145.527 153.088 146.039 152.989 146.109C152.889 146.178 152.22 145.905 151.503 145.502C150.198 144.767 150.197 144.767 148.935 144.992C148.24 145.116 146.813 145.404 145.764 145.631C144.715 145.859 143.232 146.06 142.469 146.08C141.287 146.109 140.931 146.035 140.064 145.579C139.506 145.286 139.018 145.046 138.975 145.044C138.935 145.044 138.12 145.887 137.163 146.917C136.206 147.946 135.244 148.84 135.024 148.904C134.752 148.981 134.128 148.734 133.063 148.126C132.206 147.636 131.454 147.089 131.393 146.912C131.333 146.734 131.285 146.308 131.286 145.965C131.288 145.621 131.511 144.386 131.783 143.221C132.054 142.059 132.245 141.108 132.211 141.102C132.169 141.108 131.323 141.983 130.325 143.052C129.324 144.124 128.219 145.157 127.868 145.346C127.231 145.689 127.23 145.689 125.486 144.714C123.741 143.739 123.741 143.739 121.747 143.983C120.65 144.117 119.362 144.232 118.885 144.24C118.306 144.248 117.71 144.089 117.091 143.761C116.581 143.492 116.063 143.271 115.939 143.27C115.816 143.27 114.131 145.2 112.195 147.558C110.259 149.916 107.851 152.803 106.843 153.973C105.836 155.142 104.715 156.333 104.352 156.619C103.691 157.14 103.691 157.14 102.141 156.276C100.845 155.554 100.591 155.336 100.59 154.949C100.59 154.694 100.903 153.796 101.284 152.953C101.665 152.112 101.976 151.362 101.977 151.284C101.978 151.206 102.341 150.415 102.784 149.525C103.228 148.633 103.956 147.193 104.402 146.326C104.849 145.459 105.669 143.862 106.225 142.777C106.781 141.693 107.425 140.465 107.655 140.049C107.884 139.633 108.033 139.248 107.986 139.192C107.937 139.137 106.819 140.063 105.502 141.248C104.183 142.433 102.198 144.174 101.089 145.116C99.348 146.596 99.0316 146.952 98.7717 147.726C98.6062 148.219 98.3653 148.668 98.2361 148.724C98.1069 148.781 97.1791 148.381 96.1745 147.835C95.1712 147.29 94.3501 146.757 94.3477 146.65C94.3477 146.544 94.4954 146.072 94.6761 145.603C94.8567 145.133 95.1491 144.614 95.3261 144.448C95.5032 144.283 97.1312 142.87 98.9433 141.308C100.755 139.747 103.018 137.758 103.972 136.89C104.926 136.021 107.033 134.047 108.654 132.502C110.275 130.958 112.324 128.98 113.206 128.108Z" fill="black"/>
<path d="M148.474 130.047C148.702 129.981 149.234 130.081 149.666 130.27C150.095 130.458 150.786 130.768 151.201 130.959C151.925 131.29 151.954 131.332 151.86 131.985C151.807 132.359 151.641 132.878 151.491 133.138C151.31 133.452 151.054 133.61 150.726 133.61C150.455 133.61 149.658 133.34 148.954 133.01C148.251 132.681 147.613 132.34 147.535 132.252C147.459 132.165 147.546 131.66 147.729 131.13C147.965 130.447 148.183 130.132 148.474 130.047Z" fill="black"/>
<path d="M124.193 129.076C124.371 129.077 125.187 129.453 126.005 129.913C127.429 130.714 127.49 130.776 127.397 131.31C127.343 131.617 127.137 132.128 126.939 132.444C126.741 132.76 126.421 133.018 126.227 133.019C126.034 133.019 125.22 132.612 124.418 132.116C123.618 131.619 122.962 131.127 122.961 131.021C122.961 130.916 123.087 130.547 123.242 130.2C123.397 129.853 123.602 129.458 123.697 129.323C123.792 129.187 124.015 129.076 124.193 129.076Z" fill="black"/>
<path d="M91.5068 80.0005C91.6037 80.032 92.3307 80.3161 93.1234 80.6315C94.5316 81.1918 94.5642 81.219 94.4688 81.7635C94.415 82.0702 94.2491 82.6024 94.0996 82.9461C93.9266 83.3431 92.8686 84.3987 91.2015 85.8381C89.7573 87.085 87.6738 88.9537 86.5725 89.9905C85.4711 91.0272 84.2061 92.3373 83.7613 92.9013C82.9529 93.926 82.9521 93.9257 81.4487 93.3071C79.9449 92.6885 79.9446 92.688 80.0609 91.9741C80.1251 91.5812 80.3792 90.8372 80.6255 90.3207C80.9068 89.7307 81.6511 88.8145 82.6276 87.8565C83.4829 87.0176 85.7916 84.8938 87.7581 83.1373C89.7241 81.381 91.411 79.9698 91.5068 80.0005Z" fill="black"/>
</svg>
