<svg width="180" height="288" viewBox="0 0 180 288" fill="none" xmlns="http://www.w3.org/2000/svg">
<rect width="180" height="288" fill="white"/>
<path fill-rule="evenodd" clip-rule="evenodd" d="M47.55 119.245C50.0216 119.245 51.2331 120.602 51.2331 123.352V132.571C51.2331 135.309 50.0216 136.666 47.55 136.666C45.1028 136.666 43.8912 135.309 43.8912 132.571V123.352C43.8912 120.602 45.1028 119.245 47.55 119.245ZM47.5622 121.147C46.7383 121.147 46.3385 121.777 46.3385 123.097V132.862C46.3385 134.146 46.7383 134.764 47.5622 134.764C48.386 134.764 48.7737 134.146 48.7737 132.862V123.097C48.7737 121.777 48.386 121.147 47.5622 121.147Z" fill="black"/>
<path d="M94.1758 119.245C96.4898 119.245 97.7256 120.456 97.7256 123.267V125.569L95.3389 125.993V123.4C95.3389 121.656 94.9512 121.11 94.2001 121.11C93.4247 121.11 93.0491 121.728 93.0491 123.025V132.85C93.0491 134.146 93.4247 134.764 94.2122 134.764C94.9391 134.764 95.3631 134.195 95.3631 132.402V129.482L97.7741 129.955V132.608C97.7741 135.455 96.4777 136.666 94.1758 136.666C91.7528 136.666 90.6018 135.309 90.6018 132.584V123.34C90.6018 120.602 91.7649 119.245 94.1758 119.245Z" fill="black"/>
<path fill-rule="evenodd" clip-rule="evenodd" d="M141.238 119.245C143.709 119.245 144.921 120.602 144.921 123.352V132.571C144.921 135.309 143.709 136.666 141.238 136.666C138.79 136.666 137.579 135.309 137.579 132.571V123.352C137.579 120.602 138.79 119.245 141.238 119.245ZM141.25 121.147C140.426 121.147 140.026 121.777 140.026 123.097V132.862C140.026 134.146 140.426 134.764 141.25 134.764C142.074 134.764 142.461 134.146 142.461 132.862V123.097C142.461 121.777 142.074 121.147 141.25 121.147Z" fill="black"/>
<path fill-rule="evenodd" clip-rule="evenodd" d="M31.8991 136.436H29.367L29.0641 133.674H26.7986L26.4836 136.436H24.1211L26.4109 119.475H29.5487L31.8991 136.436ZM27.8041 122.891C27.7193 124.975 27.6103 126.259 27.477 127.604L27.0045 131.941H28.846L28.3857 127.604C28.2524 126.259 28.1434 124.975 28.0585 122.891H27.8041Z" fill="black"/>
<path d="M38.7917 128.658C38.9855 129.579 39.2036 130.815 39.4338 132.438L39.6882 132.414C39.4944 130.148 39.3369 127.568 39.3369 125.605L39.3248 119.475H41.7236V136.436H38.6827L36.6352 127.313C36.4292 126.356 36.2475 125.326 35.9688 123.352L35.7144 123.376C35.8719 125.363 36.0536 128.573 36.0536 130.597L36.0658 136.436H33.6791V119.475H36.7806L38.7917 128.658Z" fill="black"/>
<path d="M59.6643 121.474H57.423V136.436H54.9878V121.474H52.7344V119.475H59.6643V121.474Z" fill="black"/>
<path d="M63.8552 126.465H66.0239V119.475H68.459V136.436H66.0239V128.404H63.8552V136.436H61.4201V119.475H63.8552V126.465Z" fill="black"/>
<path d="M76.1876 121.474H73.183V126.55H75.8726V128.392H73.183V134.437H76.3451V136.436H70.7478V119.475H76.1876V121.474Z" fill="black"/>
<path fill-rule="evenodd" clip-rule="evenodd" d="M81.8081 119.475C84.0615 119.475 85.1761 120.614 85.1761 122.903V124.527C85.1761 126.223 84.4977 127.216 83.1771 127.495V127.701C84.2554 127.98 84.6552 128.501 84.8369 130.681L85.0065 132.85C85.1761 135.031 85.3336 135.794 85.6971 136.182L85.6607 136.436H83.0196C82.8015 135.721 82.6925 134.922 82.5714 132.911L82.4623 130.887C82.3412 128.864 82.0746 128.525 81.2387 128.525H80.742V136.436H78.3068V119.475H81.8081ZM80.742 126.647H81.5537C82.3775 126.647 82.741 126.223 82.741 125.193V122.867C82.741 121.801 82.3775 121.389 81.5537 121.389H80.742V126.647Z" fill="black"/>
<path fill-rule="evenodd" clip-rule="evenodd" d="M103.37 119.475C105.624 119.475 106.738 120.614 106.738 122.903V124.527C106.738 126.223 106.06 127.216 104.739 127.495V127.701C105.818 127.98 106.217 128.501 106.399 130.681L106.569 132.85C106.738 135.031 106.896 135.794 107.259 136.182L107.223 136.436H104.582C104.364 135.721 104.255 134.922 104.134 132.911L104.025 130.887C103.903 128.864 103.637 128.525 102.801 128.525H102.304V136.436H99.869V119.475H103.37ZM102.304 126.647H103.116C103.94 126.647 104.303 126.223 104.303 125.193V122.867C104.303 121.801 103.94 121.389 103.116 121.389H102.304V126.647Z" fill="black"/>
<path d="M114.443 121.474H111.438V126.55H114.128V128.392H111.438V134.437H114.6V136.436H109.003V119.475H114.443V121.474Z" fill="black"/>
<path fill-rule="evenodd" clip-rule="evenodd" d="M123.819 136.436H121.287L120.984 133.674H118.718L118.403 136.436H116.041L118.331 119.475H121.469L123.819 136.436ZM119.724 122.891C119.639 124.975 119.53 126.259 119.397 127.604L118.924 131.941H120.766L120.306 127.604C120.172 126.259 120.063 124.975 119.978 122.891H119.724Z" fill="black"/>
<path d="M131.208 121.474H128.967V136.436H126.532V121.474H124.278V119.475H131.208V121.474Z" fill="black"/>
<path d="M135.399 136.436H132.964V119.475H135.399V136.436Z" fill="black"/>
<path d="M152.201 128.658C152.395 129.579 152.613 130.815 152.843 132.438L153.098 132.414C152.904 130.148 152.746 127.568 152.746 125.605L152.734 119.475H155.133V136.436H152.092L150.045 127.313C149.839 126.356 149.657 125.326 149.378 123.352L149.124 123.376C149.281 125.363 149.463 128.573 149.463 130.597L149.475 136.436H147.088V119.475H150.19L152.201 128.658Z" fill="black"/>
<path d="M80 144.436H100" stroke="black" stroke-width="0.5"/>
<path d="M75.3182 153.436H75.0897V151.385H75.4017L75.6288 152.235C75.6625 152.364 75.6859 152.462 75.7123 152.579H75.7416C75.7679 152.462 75.7928 152.364 75.8265 152.233L76.0506 151.385H76.37V153.436H76.1297L76.1341 152.695C76.1356 152.412 76.1415 152.144 76.162 151.794L76.1327 151.79L75.8046 152.975H75.6434L75.3212 151.788L75.2919 151.791C75.308 152.137 75.3153 152.408 75.3168 152.695L75.3182 153.436ZM77.3407 153.436H77.0888L77.5897 151.385H77.9384L78.4481 153.436H78.1801L78.0658 152.992H77.4535L77.3407 153.436ZM77.6381 152.197L77.496 152.802H78.0248L77.8842 152.197C77.8417 152.009 77.8095 151.855 77.7728 151.636H77.7421C77.7098 151.855 77.6805 152.009 77.6381 152.197ZM79.7309 153.436H79.2255V151.385H79.7309C80.2099 151.385 80.4398 151.669 80.4398 152.257V152.567C80.4398 153.153 80.2099 153.436 79.7309 153.436ZM79.4848 151.589V153.232H79.7221C80.0399 153.232 80.1747 153.045 80.1747 152.613V152.213C80.1747 151.775 80.0399 151.589 79.7221 151.589H79.4848ZM82.414 153.436H81.2934V151.385H82.3891V151.602H81.5527V152.25H82.2734V152.453H81.5527V153.219H82.414V153.436ZM86.5219 153.436H85.3237V153.229H85.7939V151.59H85.3237V151.385H86.5219V151.59H86.0532V153.229H86.5219V153.436ZM87.6142 153.436H87.3755V151.385H87.6816L88.1958 152.698C88.2471 152.828 88.2763 152.935 88.31 153.084L88.3408 153.083C88.3218 152.891 88.31 152.699 88.31 152.526L88.3086 151.385H88.5473V153.436H88.2485L87.7417 152.141C87.6889 152.005 87.6538 151.894 87.6142 151.729L87.5849 151.732C87.6025 151.92 87.6128 152.124 87.6128 152.293L87.6142 153.436ZM92.6377 153.436H91.4395V153.229H91.9097V151.59H91.4395V151.385H92.6377V151.59H92.169V153.229H92.6377V153.436ZM94.0816 153.467C93.6597 153.467 93.4444 153.169 93.4444 152.605V152.216C93.4444 151.653 93.6612 151.356 94.0787 151.356C94.4463 151.356 94.6704 151.586 94.6822 152.103L94.4302 152.165C94.4258 151.709 94.3072 151.557 94.083 151.557C93.8296 151.557 93.708 151.754 93.708 152.182V152.638C93.708 153.064 93.8311 153.263 94.0874 153.263C94.3116 153.263 94.439 153.109 94.4449 152.642L94.7012 152.709C94.6866 153.238 94.4493 153.467 94.0816 153.467ZM96.6841 153.436H95.5635V151.385H96.6592V151.602H95.8228V152.25H96.5435V152.453H95.8228V153.219H96.6841V153.436ZM98.7345 153.436H97.6256V151.385H97.8848V153.218H98.7345V153.436ZM99.7652 153.436H99.5133L100.014 151.385H100.363L100.873 153.436H100.605L100.49 152.992H99.878L99.7652 153.436ZM100.063 152.197L99.9205 152.802H100.449L100.309 152.197C100.266 152.009 100.234 151.855 100.197 151.636H100.167C100.134 151.855 100.105 152.009 100.063 152.197ZM101.884 153.436H101.646V151.385H101.952L102.466 152.698C102.517 152.828 102.547 152.935 102.58 153.084L102.611 153.083C102.592 152.891 102.58 152.699 102.58 152.526L102.579 151.385H102.818V153.436H102.519L102.012 152.141C101.959 152.005 101.924 151.894 101.884 151.729L101.855 151.732C101.873 151.92 101.883 152.124 101.883 152.293L101.884 153.436ZM104.194 153.436H103.689V151.385H104.194C104.673 151.385 104.903 151.669 104.903 152.257V152.567C104.903 153.153 104.673 153.436 104.194 153.436ZM103.948 151.589V153.232H104.185C104.503 153.232 104.638 153.045 104.638 152.613V152.213C104.638 151.775 104.503 151.589 104.185 151.589H103.948Z" fill="#750E20"/>
<path d="M78.5718 161.436H78.1079L78.7622 158.018H79.3579L80.0195 161.436H79.519L79.4067 160.799H78.6865L78.5718 161.436ZM78.9062 159.517L78.75 160.447H79.3433L79.187 159.517C79.1382 159.229 79.104 158.975 79.0698 158.609H79.021C78.9893 158.975 78.9551 159.229 78.9062 159.517ZM81.2085 158.873H81.6724V161.436H81.2134C81.2134 161.321 81.2378 161.202 81.3159 160.965L81.272 160.948C81.1328 161.314 80.9375 161.47 80.6592 161.47C80.3564 161.47 80.2026 161.299 80.2026 160.975V158.873H80.6689V160.879C80.6689 161.041 80.7349 161.126 80.8618 161.126C81.0693 161.126 81.2085 160.84 81.2085 160.42V158.873ZM82.7051 161.478C82.356 161.478 82.1802 161.302 82.1802 160.914V159.229H81.9067V158.873H82.1802V158.289L82.6465 158.133V158.873H83.1152V159.229H82.6465V160.87C82.6465 161.033 82.71 161.097 82.8442 161.097C82.9248 161.097 83.02 161.075 83.1177 161.036L83.0859 161.387C82.9883 161.443 82.8442 161.478 82.7051 161.478ZM84.3579 158.873H84.8218V161.436H84.3628C84.3628 161.321 84.3872 161.202 84.4653 160.965L84.4214 160.948C84.2822 161.314 84.0869 161.47 83.8086 161.47C83.5059 161.47 83.3521 161.299 83.3521 160.975V158.873H83.8184V160.879C83.8184 161.041 83.8843 161.126 84.0112 161.126C84.2188 161.126 84.3579 160.84 84.3579 160.42V158.873ZM85.6445 161.436H85.1807V158.873H85.6396C85.6445 158.973 85.6226 159.08 85.5396 159.339L85.5811 159.356C85.7373 158.98 85.9058 158.838 86.1597 158.838C86.4331 158.838 86.5527 159.026 86.4819 159.354L86.5234 159.368C86.6553 158.995 86.8433 158.838 87.1143 158.838C87.4023 158.838 87.5391 159.002 87.5391 159.336V161.436H87.0752V159.419C87.0752 159.266 87.0166 159.185 86.8994 159.185C86.7065 159.185 86.5942 159.476 86.5942 159.876V161.436H86.1279V159.424C86.1279 159.271 86.0669 159.185 85.957 159.185C85.7715 159.185 85.6445 159.466 85.6445 159.881V161.436ZM88.3545 161.436H87.8906V158.873H88.3496C88.3496 158.987 88.3252 159.107 88.2495 159.344L88.2935 159.361C88.4302 158.995 88.6255 158.838 88.9062 158.838C89.2065 158.838 89.3604 159.009 89.3604 159.334V161.436H88.894V159.429C88.894 159.268 88.8281 159.183 88.7012 159.183C88.4937 159.183 88.3545 159.468 88.3545 159.888V161.436ZM90.6055 161.924H90.1489L90.8813 157.896H91.3379L90.6055 161.924ZM93.0591 161.436H92.5024L91.9482 158.018H92.4292L92.6929 159.878C92.7319 160.164 92.7588 160.411 92.7856 160.794H92.832C92.8564 160.411 92.8809 160.159 92.9199 159.871L93.1714 158.018H93.6548L93.9111 159.871C93.9502 160.159 93.9722 160.411 93.9941 160.792H94.0454C94.0723 160.411 94.0967 160.164 94.1382 159.878L94.397 158.018H94.8608L94.3188 161.436H93.7549L93.5327 159.786C93.4961 159.522 93.4644 159.241 93.4326 158.836H93.3838C93.3521 159.241 93.3203 159.522 93.2837 159.786L93.0591 161.436ZM95.5737 158.567H95.0562V158.108H95.5737V158.567ZM95.5469 161.436H95.083V158.873H95.5469V161.436ZM96.3672 161.436H95.9033V158.873H96.3623C96.3623 158.987 96.3379 159.107 96.2622 159.344L96.3062 159.361C96.4429 158.995 96.6382 158.838 96.9189 158.838C97.2192 158.838 97.373 159.009 97.373 159.334V161.436H96.9067V159.429C96.9067 159.268 96.8408 159.183 96.7139 159.183C96.5063 159.183 96.3672 159.468 96.3672 159.888V161.436ZM98.3691 161.478C98.02 161.478 97.8442 161.302 97.8442 160.914V159.229H97.5708V158.873H97.8442V158.289L98.3105 158.133V158.873H98.7793V159.229H98.3105V160.87C98.3105 161.033 98.374 161.097 98.5083 161.097C98.5889 161.097 98.6841 161.075 98.7817 161.036L98.75 161.387C98.6523 161.443 98.5083 161.478 98.3691 161.478ZM100.02 160.643V160.521L100.466 160.586V160.696C100.466 161.253 100.156 161.485 99.7095 161.482C99.209 161.482 98.9551 161.18 98.9551 160.606V159.705C98.9551 159.129 99.2212 158.826 99.729 158.826C100.212 158.826 100.466 159.109 100.466 159.642C100.466 159.815 100.464 160.086 100.457 160.279H99.4165V160.665C99.4165 160.989 99.4995 161.146 99.707 161.146C99.8828 161.146 100.02 161.028 100.02 160.643ZM99.7241 159.163C99.519 159.163 99.4165 159.324 99.4165 159.649V159.937H100.002V159.578C100.002 159.297 99.9121 159.163 99.7241 159.163ZM101.245 161.436H100.781V158.873H101.248C101.252 158.995 101.23 159.102 101.147 159.356L101.191 159.375C101.353 158.97 101.499 158.841 101.816 158.812L101.885 159.263C101.355 159.312 101.245 159.463 101.245 160.091V161.436ZM83.6401 167.485C83.0444 167.485 82.7515 167.104 82.7515 166.359V165.095C82.7515 164.353 83.0469 163.972 83.6377 163.972C84.1846 163.972 84.5044 164.289 84.5044 165.056V165.231L84.0405 165.324V165.131C84.0405 164.521 83.9038 164.34 83.6475 164.34C83.3691 164.34 83.2349 164.56 83.2349 165.029V166.423C83.2349 166.889 83.3691 167.109 83.6499 167.109C83.9038 167.109 84.0527 166.926 84.0527 166.291V166.074L84.5215 166.184V166.384C84.5215 167.167 84.1821 167.485 83.6401 167.485ZM85.5566 167.485C85.0562 167.485 84.79 167.163 84.79 166.599V165.71C84.79 165.146 85.0562 164.824 85.5566 164.824C86.0571 164.824 86.3257 165.146 86.3257 165.71V166.599C86.3257 167.163 86.0571 167.485 85.5566 167.485ZM85.5566 167.143C85.7544 167.143 85.8521 166.982 85.8521 166.647V165.664C85.8521 165.324 85.7544 165.166 85.5566 165.166C85.3589 165.166 85.2637 165.324 85.2637 165.664V166.647C85.2637 166.982 85.3589 167.143 85.5566 167.143ZM87.1045 167.436H86.6406V164.018H87.1045V167.436ZM87.9248 167.436H87.4609V164.018H87.9248V167.436ZM89.3018 166.643V166.521L89.7485 166.586V166.696C89.7485 167.253 89.4385 167.485 88.9917 167.482C88.4912 167.482 88.2373 167.18 88.2373 166.606V165.705C88.2373 165.129 88.5034 164.826 89.0112 164.826C89.4946 164.826 89.7485 165.109 89.7485 165.642C89.7485 165.815 89.7461 166.086 89.7388 166.279H88.6987V166.665C88.6987 166.989 88.7817 167.146 88.9893 167.146C89.165 167.146 89.3018 167.028 89.3018 166.643ZM89.0063 165.163C88.8013 165.163 88.6987 165.324 88.6987 165.649V165.937H89.2847V165.578C89.2847 165.297 89.1943 165.163 89.0063 165.163ZM90.7788 167.482C90.2734 167.482 90.0195 167.177 90.0195 166.579V165.717C90.0195 165.126 90.2783 164.826 90.7861 164.826C91.2451 164.826 91.5186 165.073 91.5186 165.671V165.803L91.0547 165.866V165.722C91.0547 165.297 90.9668 165.163 90.7837 165.163C90.5859 165.163 90.4932 165.322 90.4932 165.659V166.638C90.4932 166.982 90.5859 167.146 90.7861 167.146C90.9692 167.146 91.062 167.019 91.062 166.579V166.425L91.5332 166.491V166.625C91.5332 167.241 91.2402 167.485 90.7788 167.482ZM92.4707 167.478C92.1216 167.478 91.9458 167.302 91.9458 166.914V165.229H91.6724V164.873H91.9458V164.289L92.4121 164.133V164.873H92.8809V165.229H92.4121V166.87C92.4121 167.033 92.4756 167.097 92.6099 167.097C92.6904 167.097 92.7856 167.075 92.8833 167.036L92.8516 167.387C92.7539 167.443 92.6099 167.478 92.4707 167.478ZM93.6157 164.567H93.0981V164.108H93.6157V164.567ZM93.5889 167.436H93.125V164.873H93.5889V167.436ZM94.668 167.485C94.1675 167.485 93.9014 167.163 93.9014 166.599V165.71C93.9014 165.146 94.1675 164.824 94.668 164.824C95.1685 164.824 95.437 165.146 95.437 165.71V166.599C95.437 167.163 95.1685 167.485 94.668 167.485ZM94.668 167.143C94.8657 167.143 94.9634 166.982 94.9634 166.647V165.664C94.9634 165.324 94.8657 165.166 94.668 165.166C94.4702 165.166 94.375 165.324 94.375 165.664V166.647C94.375 166.982 94.4702 167.143 94.668 167.143ZM96.2158 167.436H95.752V164.873H96.2109C96.2109 164.987 96.1865 165.107 96.1108 165.344L96.1548 165.361C96.2915 164.995 96.4868 164.838 96.7676 164.838C97.0679 164.838 97.2217 165.009 97.2217 165.334V167.436H96.7554V165.429C96.7554 165.268 96.6895 165.183 96.5625 165.183C96.355 165.183 96.2158 165.468 96.2158 165.888V167.436Z" fill="black"/>
</svg>
