<svg width="320" height="192" viewBox="0 0 320 192" fill="none" xmlns="http://www.w3.org/2000/svg">
<rect width="320" height="192" fill="white"/>
<path d="M4 4H316V188H4V4Z" stroke="black" stroke-opacity="0.3" stroke-width="0.5" stroke-dasharray="2 2"/>
<path d="M158.396 74.9251C163.472 74.9251 166.183 77.5802 166.183 83.7398V88.7844L160.947 89.7136V84.0319C160.947 80.2087 160.097 79.0139 158.449 79.0139C156.748 79.0139 155.924 80.3679 155.924 83.2088V104.741C155.924 107.582 156.748 108.936 158.475 108.936C160.07 108.936 161 107.688 161 103.759V97.3601L166.29 98.3956V104.21C166.29 110.449 163.446 113.104 158.396 113.104C153.08 113.104 150.555 110.131 150.555 104.157V83.8991C150.555 77.8988 153.107 74.9251 158.396 74.9251Z" fill="black"/>
<path fill-rule="evenodd" clip-rule="evenodd" d="M261.641 74.9251C267.063 74.9251 269.721 77.8988 269.721 83.9257V104.13C269.721 110.131 267.063 113.104 261.641 113.104C256.272 113.104 253.614 110.131 253.614 104.13V83.9257C253.614 77.8988 256.272 74.9251 261.641 74.9251ZM261.667 79.0935C259.86 79.0935 258.983 80.4741 258.983 83.3681V104.768C258.983 107.582 259.86 108.936 261.667 108.936C263.475 108.936 264.325 107.582 264.325 104.768V83.3681C264.325 80.4742 263.475 79.0935 261.667 79.0935Z" fill="black"/>
<path fill-rule="evenodd" clip-rule="evenodd" d="M178.567 75.4296C183.51 75.4296 185.956 77.9253 185.956 82.9433V86.5011C185.956 90.2181 184.467 92.3952 181.57 93.0059V93.4572C183.936 94.0679 184.813 95.2096 185.211 99.9886L185.583 104.741C185.956 109.52 186.301 111.193 187.098 112.042L187.019 112.6H181.225C180.746 111.034 180.507 109.281 180.241 104.874L180.002 100.44C179.736 96.0061 179.151 95.2627 177.318 95.2627H176.228V112.6H170.885V75.4296H178.567ZM176.228 91.1474H178.009C179.816 91.1473 180.613 90.2181 180.613 87.9613V82.8637C180.613 80.5273 179.816 79.6245 178.009 79.6245H176.228V91.1474Z" fill="black"/>
<path d="M202.857 79.8104H196.266V90.935H202.166V94.9706H196.266V108.219H203.203V112.6H190.924V75.4296H202.857V79.8104Z" fill="black"/>
<path fill-rule="evenodd" clip-rule="evenodd" d="M223.427 112.6H217.872L217.208 106.547H212.238L211.547 112.6H206.364L211.387 75.4296H218.271L223.427 112.6ZM214.444 82.9168C214.258 87.4834 214.018 90.2978 213.726 93.2448L212.689 102.75H216.729L215.719 93.2448C215.427 90.2977 215.188 87.4834 215.002 82.9168H214.444Z" fill="black"/>
<path d="M239.638 79.8104H234.721V112.6H229.379V79.8104H224.435V75.4296H239.638V79.8104Z" fill="black"/>
<path d="M248.832 112.6H243.49V75.4296H248.832V112.6Z" fill="black"/>
<path d="M285.692 95.5547C286.118 97.5725 286.596 100.281 287.101 103.838L287.659 103.785C287.234 98.8204 286.888 93.1652 286.888 88.864L286.862 75.4296H292.124V112.6H285.453L280.961 92.6076C280.509 90.5102 280.111 88.2534 279.5 83.9257L278.941 83.9788C279.287 88.333 279.686 95.3689 279.686 99.8028L279.712 112.6H274.476V75.4296H281.28L285.692 95.5547Z" fill="black"/>
<path d="M73.1007 35.5994C73.1993 35.6007 73.665 35.9978 74.1351 36.4819C74.6045 36.9651 74.9889 37.4207 74.9904 37.4956C74.99 37.5699 74.8116 38.0341 74.5939 38.5268C74.3756 39.0204 73.666 40.4171 73.0167 41.6311C72.3673 42.8451 71.6236 44.2306 71.3635 44.7098C71.1033 45.1892 70.2656 46.7269 69.5019 48.1269C68.7382 49.5271 67.5436 51.7277 66.8478 53.0174C66.152 54.307 65.2226 56.0257 64.7821 56.8364C64.3418 57.6469 63.837 58.5815 63.6605 58.9132C63.4836 59.2453 62.2136 61.6271 60.8378 64.2062C58.3369 68.8952 58.3365 68.896 58.4016 69.5657C58.4787 70.3591 58.0088 71.4196 59.1118 72.0057C60.2156 72.5894 64.1081 65.8412 65.168 65.316C66.78 64.5175 67.2449 64.0227 68.6493 62.8283C69.2658 62.3041 70.3807 61.2906 71.1269 60.5763C71.8732 59.8618 73.1214 58.5561 73.9002 57.6749C74.6788 56.7937 75.5813 55.6722 75.9058 55.1829C76.2301 54.6938 76.5487 54.2927 76.6138 54.2908C77.1001 54.2791 78.3587 54.8086 78.7029 55.1993C78.7647 55.2705 78.688 55.6292 78.5158 56.0712C78.3546 56.485 77.9345 57.233 77.5824 57.7328C77.2302 58.2328 76.5706 59.2748 76.1168 60.0485C75.663 60.8224 74.8245 62.3602 74.2537 63.4655C73.6826 64.5711 72.6392 66.7485 71.9344 68.304C71.2295 69.8595 70.408 71.7886 70.109 72.5914C69.81 73.394 69.4374 74.4735 69.2813 74.9894C69.1251 75.5052 68.9219 76.2133 68.8295 76.5633C68.7373 76.9132 68.7076 77.1998 68.763 77.2C68.8197 77.1979 69.1401 76.8006 69.4759 76.3153C69.8126 75.8287 70.4091 74.8486 70.8011 74.1376C71.1909 73.4303 71.5202 72.8361 71.5357 72.8123C71.549 72.7947 72.0278 72.9594 72.5999 73.1792C73.1715 73.3986 73.6597 73.6016 73.6865 73.6305C73.7105 73.6609 73.5967 74.09 73.4324 74.5858C73.2677 75.083 72.9388 75.853 72.7015 76.2967C72.464 76.7406 71.8882 77.6834 71.422 78.3915C70.9557 79.0996 70.2738 79.9977 69.9075 80.3881C69.5412 80.7782 69.0545 81.1875 68.8247 81.2967C68.4314 81.4833 68.3436 81.4708 67.3188 81.0853C66.7122 80.8571 66.1397 80.5528 66.0239 80.3971C65.8859 80.2107 65.8175 79.8898 65.8176 79.4297C65.8176 79.051 65.8958 78.3185 65.9909 77.8027C66.0861 77.2868 66.3452 76.2921 66.5666 75.5921C67.0918 73.9319 67.6411 72.2855 68.2495 70.6617C68.5339 69.9033 69.1409 68.4039 69.5981 67.3296C70.0537 66.2593 70.4034 65.3556 70.3774 65.316C70.3483 65.2831 69.6766 65.7492 68.8848 66.352C66.3396 68.2895 61.0075 76.5709 58.4016 75.5958C57.453 75.2404 56.6048 74.4666 56.4577 73.1792C54.4985 73.1983 50.4678 84.8787 49.9401 86.6503C49.5775 87.8677 44.2968 103.485 43.9726 104.665C43.6489 105.844 43.2018 107.623 42.9791 108.617C42.7566 109.612 42.5092 110.909 42.429 111.499C42.3489 112.086 42.2728 112.58 42.2599 112.598C42.2458 112.613 41.7162 112.537 41.0825 112.429C40.4496 112.321 39.8886 112.263 39.8328 112.299C39.7799 112.336 39.3585 111.969 38.8972 111.484C38.1973 110.748 38.059 110.532 38.06 110.18C38.0607 109.947 38.1368 109.432 38.2295 109.036C38.3224 108.641 38.6231 107.706 38.8977 106.96C41.0562 101.097 42.4283 97.0381 45.6343 89.0483C46.8366 86.0522 48.289 83.1199 49.2703 80.0175C49.48 79.354 50.1469 77.3643 50.7523 75.5958C51.3579 73.8272 52.0609 71.8069 52.3141 71.1067C52.5673 70.4064 53.2011 68.7182 53.7227 67.3551C54.2446 65.9918 55.1021 63.7939 55.6279 62.4709C56.1521 61.1521 56.5811 60.0535 56.5837 60.0251C56.5843 60.0032 56.6398 59.9853 56.7075 59.9853C56.7764 59.9856 57.307 60.1737 57.8871 60.4037C58.8788 60.797 58.9438 60.846 58.9438 61.2002C58.9439 61.4076 58.9927 61.6125 59.0528 61.6548C59.1144 61.6943 59.6371 60.8391 60.2148 59.7527C60.7934 58.6646 61.6556 57.0507 62.1306 56.1663C62.6058 55.2818 63.7365 53.2014 64.6439 51.5433C65.5511 49.8857 66.5013 48.1376 66.7553 47.658C67.009 47.179 67.533 46.2139 67.9194 45.5138C68.3059 44.8138 68.8383 43.8293 69.1027 43.326C69.3665 42.8241 69.5579 42.3845 69.5285 42.3479C69.498 42.3134 69.3998 42.3635 69.3106 42.4589C69.2211 42.5547 68.8301 42.9336 68.4414 43.3011C68.0526 43.6687 67.6757 44.031 67.6042 44.1056C67.5324 44.1804 66.9513 44.7538 66.313 45.38C65.6747 46.0064 64.645 47.0241 64.0246 47.6415C63.4042 48.2588 62.7102 48.9522 62.4831 49.183C62.2557 49.414 61.4861 50.1754 60.7725 50.8748C60.0588 51.5744 59.0199 52.5991 58.4638 53.1518C57.9078 53.7044 57.0048 54.5884 56.4577 55.1165C55.9105 55.6446 54.9234 56.5796 54.2644 57.1938C53.6055 57.808 52.5437 58.7684 51.9048 59.3279C51.2658 59.8875 50.3183 60.6795 49.7992 61.0876C49.2802 61.4958 48.5336 62.0122 48.1402 62.2362C47.7469 62.4601 47.2365 62.6836 47.0063 62.7327C46.6133 62.8164 46.5312 62.7641 45.6343 61.8608C44.9965 61.2183 44.6563 60.772 44.6057 60.512C44.5626 60.289 44.6146 59.7945 44.728 59.3507C44.8368 58.9256 45.1689 57.9752 45.4658 57.2384C45.7627 56.5015 46.349 55.1751 46.7687 54.2908C47.1883 53.4064 48.1951 51.3561 49.0056 49.7347C49.816 48.1136 50.6505 46.4551 50.8602 46.0496C51.0699 45.6443 51.4559 44.8902 51.7182 44.3737C51.9803 43.8571 52.3653 43.0829 52.573 42.6532C52.8696 42.0392 52.903 41.9017 52.7314 42.0102C52.6111 42.0864 52.2396 42.3781 51.9058 42.6586C51.5719 42.9394 49.9315 44.3444 48.2608 45.7814C46.59 47.2185 45.0844 48.5133 44.9151 48.6579C44.745 48.8033 43.3325 50.0331 41.7757 51.3915C40.2183 52.7503 38.5989 54.1727 38.1769 54.5526C37.755 54.9324 36.221 56.3255 34.7679 57.6478C33.3151 58.9702 31.9612 60.2003 31.7592 60.3814C31.5575 60.5624 30.9671 61.1438 30.4479 61.6739C29.5037 62.6377 29.5034 62.638 28.649 61.7477C27.794 60.8567 27.7936 60.8562 28.59 59.9184C29.0279 59.4026 29.5742 58.7945 29.8041 58.567C30.034 58.3396 30.5657 57.827 30.9853 57.428C31.4047 57.0289 32.0131 56.4609 32.3371 56.1663C32.6608 55.8718 33.032 55.5318 33.1621 55.4096C33.2918 55.2877 33.8231 54.8082 34.3422 54.3444C34.8613 53.8806 35.9236 52.9275 36.7023 52.2273C37.481 51.527 38.41 50.6966 38.767 50.3815C39.1239 50.0666 40.3715 48.9761 41.5396 47.9585C42.7075 46.9412 43.8024 45.99 43.9726 45.8446C44.1433 45.6987 45.6499 44.4047 47.3205 42.9681C48.9918 41.5311 51.0825 39.7488 51.967 39.0079C52.8512 38.2671 53.9395 37.3778 54.3851 37.0315C54.8307 36.6853 55.3108 36.4022 55.4519 36.4022C55.6035 36.4029 56.0601 36.7673 56.5651 37.2906C57.3632 38.118 57.4161 38.2066 57.3417 38.5964C57.2977 38.8266 57.057 39.4788 56.8069 40.0455C56.5564 40.6127 55.3082 43.1449 54.0326 45.6731C52.7569 48.2015 51.1335 51.4464 50.4254 52.8836C49.7172 54.3207 48.8194 56.2418 48.4304 57.1524C48.0419 58.0619 47.7393 58.8602 47.758 58.9275C47.7785 58.9924 48.219 58.7306 48.7377 58.3445C49.2572 57.9575 50.346 57.0528 51.1568 56.3346C51.9676 55.6164 52.9042 54.7721 53.2379 54.4586C53.5718 54.145 54.1295 53.6254 54.477 53.3042C54.8246 52.9829 55.3742 52.4612 55.6986 52.1444C56.0231 51.8277 56.7197 51.1493 57.246 50.6369C57.7723 50.1246 58.3079 49.591 58.4362 49.4517C58.5647 49.3123 59.1659 48.7162 59.7726 48.1269C60.3795 47.5373 60.961 46.9641 61.0648 46.8535C61.1685 46.743 61.4637 46.4486 61.7208 46.1993C61.9778 45.9498 62.5051 45.4372 62.8918 45.0603C63.2787 44.6832 64.1016 43.8626 64.7204 43.2363C65.3394 42.6101 66.1573 41.7958 66.5384 41.4272C66.9194 41.0587 67.4564 40.5456 67.7313 40.2876C68.0065 40.0294 68.9955 39.0905 69.9293 38.2013C70.8633 37.3122 71.9189 36.3631 72.2751 36.0916C72.6306 35.8208 73.0018 35.5991 73.1007 35.5994Z" fill="black"/>
<path d="M133.6 103.9H131.423V34.3H133.6V103.9Z" fill="black"/>
<path d="M87.3362 58.2983C88.4278 57.2213 88.428 57.2217 89.3418 57.6935C89.8446 57.9531 90.3296 58.2474 90.4188 58.3477C90.5556 58.5019 90.5276 58.6502 90.2354 59.3125C90.0454 59.7432 89.2075 61.3314 88.3738 62.8421C87.5402 64.3528 86.7666 65.7699 86.6547 65.991C86.5428 66.2122 86.2066 66.8411 85.9073 67.3886C85.608 67.936 85.3868 68.4106 85.4151 68.4431C85.4489 68.4689 86.1545 67.6938 86.9875 66.7152C88.5079 64.9289 88.5081 64.929 89.5592 65.4743C90.3788 65.8997 90.6185 66.0861 90.6495 66.3223C90.6865 66.6062 90.7272 66.62 91.2985 66.5321C91.6338 66.4806 92.537 66.3873 93.3052 66.325C94.5115 66.2272 94.7648 66.1642 95.1609 65.8667C95.4128 65.6774 95.667 65.5225 95.726 65.5221C95.7849 65.5224 96.128 65.6757 96.4883 65.863C97.0246 66.1418 97.1839 66.1753 97.3584 66.0441C97.476 65.9557 98.1097 65.2142 98.7666 64.3963C99.4237 63.5786 100.492 62.1832 101.142 61.2963C101.791 60.4102 102.409 59.6042 102.516 59.5037C102.68 59.3486 102.846 59.3935 103.679 59.8223C104.214 60.0969 104.725 60.4013 104.815 60.4988C104.953 60.6491 104.901 60.919 104.476 62.2617C104.2 63.1336 103.742 64.6009 103.459 65.5221C103.175 66.4426 102.943 67.2729 102.942 67.3679C102.941 67.4968 103.029 67.4868 103.303 67.3259C103.65 67.1222 103.703 67.1307 104.534 67.5234C105.107 67.7944 105.602 67.9339 105.99 67.9339C106.314 67.9337 107.419 67.7475 108.446 67.5197C109.474 67.2918 110.793 67.074 111.377 67.0354C112.429 66.9661 112.448 66.9702 113.499 67.5224C114.081 67.8286 114.679 68.208 114.826 68.3651C114.973 68.5222 115.093 68.7456 115.093 68.8616C115.092 68.9781 114.964 69.3824 114.809 69.76C114.655 70.1379 114.473 70.4862 114.405 70.5337C114.337 70.5806 113.882 70.3947 113.394 70.1206C112.506 69.6216 112.505 69.6216 111.647 69.7744C111.174 69.8585 110.203 70.0538 109.489 70.2087C108.775 70.3635 107.767 70.5005 107.247 70.5135C106.443 70.5335 106.2 70.4832 105.611 70.1737C105.232 69.9751 104.9 69.8121 104.87 69.81C104.843 69.81 104.288 70.3828 103.636 71.0828C102.986 71.7821 102.331 72.3898 102.181 72.4331C101.996 72.486 101.572 72.3173 100.847 71.9042C100.263 71.5713 99.7521 71.1999 99.7106 71.0791C99.6699 70.9586 99.6376 70.6689 99.6384 70.4355C99.6392 70.2021 99.791 69.3628 99.9759 68.5706C100.16 67.7808 100.29 67.1346 100.267 67.1305C100.235 67.1383 99.6604 67.7313 98.984 68.4554C98.3031 69.1844 97.5506 69.8863 97.3122 70.0149C96.879 70.2483 96.8782 70.2479 95.6914 69.5853C94.5042 68.9226 94.5039 68.9227 93.1473 69.0883C92.4012 69.1794 91.5249 69.2582 91.2002 69.263C90.8062 69.2689 90.4006 69.1603 89.9792 68.9375C89.6325 68.7544 89.2799 68.6044 89.1956 68.604C89.1097 68.6067 87.9643 69.9171 86.6483 71.5182C85.331 73.121 83.6918 75.0834 83.0065 75.8783C82.3214 76.673 81.5585 77.4822 81.3113 77.6768C80.862 78.0308 80.8617 78.0308 79.807 77.4437C78.9258 76.9531 78.7527 76.8049 78.7523 76.542C78.7523 76.3688 78.9648 75.7579 79.2244 75.1853C79.4835 74.6138 79.6952 74.1033 79.6959 74.0506C79.6973 73.9967 79.9441 73.4598 80.245 72.8553C80.5468 72.249 81.0422 71.2704 81.3459 70.6808C81.6496 70.0912 82.2076 69.0059 82.586 68.269C82.9645 67.5322 83.4023 66.6975 83.5588 66.4142C83.715 66.1317 83.8163 65.8696 83.7842 65.8317C83.7503 65.7955 82.9899 66.4244 82.0938 67.2293C81.1968 68.0348 79.8459 69.2182 79.0915 69.8588C77.907 70.8647 77.6917 71.107 77.5148 71.6329C77.4022 71.9675 77.2381 72.2725 77.1502 72.311C77.0623 72.3493 76.4309 72.0775 75.7474 71.7067C75.0648 71.3364 74.5062 70.974 74.5046 70.9012C74.5046 70.8289 74.605 70.5087 74.7278 70.1896C74.8506 69.8707 75.0496 69.5176 75.1701 69.4048C75.2905 69.2924 76.3983 68.3318 77.6313 67.2707C78.8642 66.2095 80.404 64.8577 81.053 64.2673C81.702 63.6769 83.1356 62.3351 84.2387 61.2852C85.3419 60.2352 86.7358 58.8908 87.3362 58.2983Z" fill="black"/>
<path fill-rule="evenodd" clip-rule="evenodd" d="M201.05 24.9001C206.472 24.9001 209.13 27.8738 209.13 33.9007V54.1055C209.13 60.1058 206.472 63.0794 201.05 63.0795C195.681 63.0795 193.023 60.1058 193.023 54.1055V33.9007C193.023 27.8738 195.681 24.9001 201.05 24.9001ZM201.077 29.0685C199.269 29.0685 198.392 30.4491 198.392 33.3431V54.7427C198.392 57.557 199.269 58.9111 201.077 58.9111C202.884 58.911 203.735 57.557 203.735 54.7427V33.3431C203.735 30.4492 202.884 29.0685 201.077 29.0685Z" fill="black"/>
<path fill-rule="evenodd" clip-rule="evenodd" d="M166.715 62.575H161.16L160.495 56.5215H155.525L154.834 62.575H149.651L154.675 25.4046H161.559L166.715 62.575ZM157.731 32.8918C157.545 37.4584 157.306 40.2728 157.014 43.2198L155.977 52.7248H160.017L159.007 43.2198C158.715 40.2728 158.475 37.4584 158.289 32.8918H157.731Z" fill="black"/>
<path d="M181.836 45.5297C182.261 47.5475 182.74 50.2557 183.245 53.8134L183.803 53.7603C183.377 48.7954 183.032 43.1402 183.032 38.839L183.005 25.4046H188.268V62.575H181.597L177.105 42.5826C176.653 40.4852 176.254 38.2284 175.643 33.9007L175.085 33.9538C175.43 38.308 175.829 45.3439 175.829 49.7778L175.856 62.575H170.62V25.4046H177.424L181.836 45.5297Z" fill="black"/>
<path d="M227.627 29.7854H222.71V62.575H217.367V29.7854H212.424V25.4046H227.627V29.7854Z" fill="black"/>
<path d="M236.821 40.7241H241.578V25.4046H246.921V62.575H241.578V44.9722H236.821V62.575H231.478V25.4046H236.821V40.7241Z" fill="black"/>
<path d="M263.876 29.7854H257.284V40.91H263.184V44.9456H257.284V58.1942H264.221V62.575H251.942V25.4046H263.876V29.7854Z" fill="black"/>
<path fill-rule="evenodd" clip-rule="evenodd" d="M276.206 25.4046C281.149 25.4046 283.595 27.9003 283.595 32.9183V36.4761C283.595 40.1931 282.106 42.3702 279.209 42.9809V43.4322C281.575 44.0429 282.452 45.1846 282.851 49.9636L283.223 54.7161C283.595 59.4952 283.94 61.1678 284.738 62.0174L284.658 62.575H278.864C278.385 61.0085 278.146 59.2562 277.88 54.8489L277.641 50.415C277.375 45.9811 276.791 45.2377 274.957 45.2377H273.867V62.575H268.525V25.4046H276.206ZM273.867 41.1224H275.648C277.455 41.1223 278.252 40.1931 278.252 37.9363V32.8387C278.252 30.5023 277.455 29.5995 275.648 29.5995H273.867V41.1224Z" fill="black"/>
<path d="M111.333 59.6162C111.488 59.5716 111.85 59.6395 112.144 59.7681C112.436 59.8961 112.906 60.1066 113.189 60.2359C113.681 60.461 113.7 60.4901 113.637 60.9337C113.6 61.1881 113.487 61.541 113.386 61.7174C113.262 61.9309 113.088 62.0381 112.865 62.0381C112.68 62.0379 112.138 61.8544 111.659 61.6303C111.181 61.4064 110.747 61.1746 110.694 61.1153C110.642 61.0562 110.701 60.713 110.826 60.3527C110.986 59.8884 111.134 59.6736 111.333 59.6162Z" fill="black"/>
<path d="M94.8117 58.9567C94.9329 58.957 95.4875 59.2125 96.0444 59.5254C97.013 60.0699 97.0552 60.1119 96.9917 60.4749C96.955 60.6838 96.8148 61.0311 96.6802 61.2459C96.5455 61.4604 96.3274 61.6358 96.1959 61.6362C96.0642 61.6362 95.51 61.3599 94.9648 61.0223C94.4201 60.6851 93.9744 60.3503 93.9734 60.2784C93.9736 60.2068 94.0595 59.9559 94.1648 59.7203C94.2701 59.4847 94.4094 59.2164 94.4741 59.124C94.5389 59.032 94.6908 58.9568 94.8117 58.9567Z" fill="black"/>
<path d="M72.5718 25.6005C72.6385 25.6223 73.1328 25.8149 73.6716 26.029C74.6297 26.4099 74.6518 26.4285 74.587 26.7985C74.5503 27.0069 74.4373 27.3688 74.3355 27.6024C74.2177 27.8723 73.4981 28.59 72.3639 29.5682C71.3813 30.4157 69.9637 31.6858 69.2144 32.3905C68.465 33.0952 67.6039 33.9857 67.3012 34.369C66.7513 35.0653 66.7506 35.065 65.7278 34.6446C64.7048 34.2242 64.7046 34.2239 64.7837 33.7387C64.8274 33.4717 65.0004 32.9661 65.168 32.6151C65.3594 32.2141 65.8655 31.5909 66.5299 30.9398C67.1118 30.3697 68.6828 28.9264 70.0207 27.7325C71.3584 26.5388 72.5066 25.5796 72.5718 25.6005Z" fill="black"/>
<path d="M128 132.6H192" stroke="black" stroke-opacity="0.8" stroke-width="0.2"/>
<path d="M140.424 143.6H140.12V140.866H140.536L140.838 141.998C140.883 142.17 140.915 142.301 140.95 142.457H140.989C141.024 142.301 141.057 142.17 141.102 141.996L141.401 140.866H141.827V143.6H141.506L141.512 142.612C141.514 142.235 141.522 141.877 141.549 141.411L141.51 141.405L141.073 142.985H140.858L140.428 141.403L140.389 141.407C140.411 141.868 140.42 142.229 140.422 142.612L140.424 143.6ZM143.121 143.6H142.785L143.453 140.866H143.918L144.598 143.6H144.24L144.088 143.008H143.271L143.121 143.6ZM143.517 141.948L143.328 142.754H144.033L143.846 141.948C143.789 141.698 143.746 141.493 143.697 141.2H143.656C143.613 141.493 143.574 141.698 143.517 141.948ZM146.308 143.6H145.634V140.866H146.308C146.946 140.866 147.253 141.245 147.253 142.028V142.442C147.253 143.223 146.946 143.6 146.308 143.6ZM145.98 141.137V143.329H146.296C146.72 143.329 146.9 143.079 146.9 142.502V141.969C146.9 141.385 146.72 141.137 146.296 141.137H145.98ZM149.885 143.6H148.391V140.866H149.852V141.155H148.737V142.018H149.698V142.289H148.737V143.311H149.885V143.6ZM155.363 143.6H153.765V143.325H154.392V141.139H153.765V140.866H155.363V141.139H154.738V143.325H155.363V143.6ZM156.819 143.6H156.501V140.866H156.909L157.594 142.616C157.663 142.789 157.702 142.932 157.747 143.131L157.788 143.129C157.762 142.873 157.747 142.618 157.747 142.387L157.745 140.866H158.063V143.6H157.665L156.989 141.873C156.919 141.692 156.872 141.543 156.819 141.325L156.78 141.329C156.803 141.579 156.817 141.85 156.817 142.077L156.819 143.6ZM163.517 143.6H161.919V143.325H162.546V141.139H161.919V140.866H163.517V141.139H162.892V143.325H163.517V143.6ZM165.442 143.641C164.88 143.641 164.593 143.245 164.593 142.493V141.973C164.593 141.223 164.882 140.827 165.438 140.827C165.928 140.827 166.227 141.133 166.243 141.823L165.907 141.905C165.901 141.297 165.743 141.094 165.444 141.094C165.106 141.094 164.944 141.358 164.944 141.928V142.536C164.944 143.104 165.108 143.37 165.45 143.37C165.749 143.37 165.919 143.164 165.926 142.541L166.268 142.631C166.249 143.336 165.932 143.641 165.442 143.641ZM168.912 143.6H167.418V140.866H168.879V141.155H167.764V142.018H168.725V142.289H167.764V143.311H168.912V143.6ZM171.646 143.6H170.167V140.866H170.513V143.309H171.646V143.6ZM173.02 143.6H172.684L173.352 140.866H173.817L174.497 143.6H174.139L173.987 143.008H173.171L173.02 143.6ZM173.417 141.948L173.227 142.754H173.932L173.745 141.948C173.688 141.698 173.645 141.493 173.596 141.2H173.555C173.513 141.493 173.473 141.698 173.417 141.948ZM175.846 143.6H175.528V140.866H175.936L176.621 142.616C176.69 142.789 176.729 142.932 176.774 143.131L176.815 143.129C176.789 142.873 176.774 142.618 176.774 142.387L176.772 140.866H177.09V143.6H176.692L176.016 141.873C175.945 141.692 175.899 141.543 175.846 141.325L175.807 141.329C175.83 141.579 175.844 141.85 175.844 142.077L175.846 143.6ZM178.925 143.6H178.251V140.866H178.925C179.564 140.866 179.871 141.245 179.871 142.028V142.442C179.871 143.223 179.564 143.6 178.925 143.6ZM178.597 141.137V143.329H178.914C179.337 143.329 179.517 143.079 179.517 142.502V141.969C179.517 141.385 179.337 141.137 178.914 141.137H178.597Z" fill="black" fill-opacity="0.8"/>
</svg>
