<svg width="180" height="288" viewBox="0 0 180 288" fill="none" xmlns="http://www.w3.org/2000/svg">
<rect width="180" height="288" fill="white"/>
<path d="M77.148 42.8899C75.5719 42.8899 74.6402 42.0579 74.5816 40.0833L75.5836 39.8372C75.6012 41.5422 76.1168 42.1165 77.1715 42.1165C77.9859 42.1165 78.5074 41.6243 78.5074 40.886C78.5074 40.2356 78.1207 39.802 77.2242 39.2395L76.357 38.6829C75.4137 38.0852 74.8219 37.511 74.8277 36.4622C74.8277 35.2551 75.6773 34.4524 76.9957 34.4524C78.4547 34.4524 79.2809 35.2786 79.316 37.0188L78.3609 37.2473C78.3492 35.7825 77.898 35.22 76.9898 35.22C76.2633 35.22 75.7887 35.6653 75.7887 36.3508C75.7887 36.9485 76.0992 37.3176 77.0484 37.9094L77.9098 38.4485C78.8004 39.0051 79.5152 39.6379 79.5152 40.7571C79.5152 42.0227 78.5836 42.8899 77.148 42.8899ZM88.0793 42.7727H83.2863V41.9465H85.1672V35.3899H83.2863V34.5696H88.0793V35.3899H86.2043V41.9465H88.0793V42.7727ZM96.702 42.7727H91.9324V42.0637L94.9441 36.1399C95.0555 35.9231 95.202 35.6829 95.3543 35.4778L95.3133 35.3782C94.9617 35.3958 94.6336 35.4016 94.2703 35.4016H92.0027V34.5696H96.532V35.2727L93.6258 41.0735C93.5027 41.3137 93.3328 41.6008 93.1512 41.8586L93.1922 41.9524C93.4969 41.9407 93.8133 41.9348 94.1414 41.9348H96.702V42.7727ZM105.225 42.7727H100.743V34.5696H105.125V35.4368H101.78V38.0266H104.663V38.8411H101.78V41.9055H105.225V42.7727Z" fill="black" fill-opacity="0.4"/>
<path d="M68 58.7727H112" stroke="black" stroke-opacity="0.8" stroke-width="0.4"/>
<path d="M89.9824 121.388C83.0391 121.388 79.1426 117.726 79.1426 109.171V107.736L85.6465 106.74V108.468C85.6465 114.357 87.082 116.232 90.2168 116.232C92.6484 116.232 94.0254 114.65 94.0254 112.189C94.0254 109.318 92.6191 106.945 89.2207 103.546L85.8223 100.177C82.3359 96.7493 79.6992 93.6731 79.7285 88.5168C79.7285 82.5989 83.5078 79.1418 89.7188 79.1418C96.4863 79.1418 100.031 82.6282 100.031 90.5383V91.7688L93.8203 92.7063V91.1536C93.8203 86.0266 92.502 84.2688 89.6602 84.2688C87.5508 84.2688 86.2324 85.6165 86.2324 87.7844C86.2324 90.1868 87.1699 92.179 90.7734 95.6067L94.2305 98.8879C97.6582 102.228 100.764 105.568 100.764 111.31C100.764 117.784 96.8086 121.388 89.9824 121.388Z" fill="black"/>
<path d="M78.1132 220H73.2499V211.797H78.0253V213.109H74.7792V215.148H77.3808V216.355H74.7792V218.682H78.1132V220ZM82.8115 220.141C81.124 220.141 80.2392 219.373 80.2392 217.885V211.797H81.7685V217.791C81.7685 218.576 82.1201 218.963 82.8115 218.963C83.497 218.963 83.8427 218.576 83.8427 217.791V211.797H85.372V217.885C85.372 219.373 84.4931 220.141 82.8115 220.141ZM97.2998 220.135C95.4717 220.135 94.5928 219.291 94.5694 217.252L96.1045 217.053C96.1104 218.418 96.4678 219.004 97.2823 219.004C97.9034 219.004 98.2315 218.623 98.2315 217.85V217.398C98.2315 216.631 97.8389 216.297 97.1944 216.273L96.5733 216.25V215.248L97.1709 215.23C97.7979 215.207 98.1319 214.867 98.1319 214.211V213.836C98.1319 213.121 97.8037 212.787 97.2237 212.787C96.4912 212.787 96.1573 213.344 96.1631 214.568L94.6866 214.387C94.6924 212.471 95.5537 211.662 97.2705 211.662C98.8057 211.662 99.6084 212.359 99.6084 213.742V213.982C99.6084 214.885 99.2041 215.453 98.3955 215.658V215.77C99.3389 215.975 99.7901 216.596 99.7901 217.609V217.891C99.7901 219.373 98.9229 220.135 97.2998 220.135ZM104.453 211.656C105.924 211.656 106.832 212.354 106.873 214.094L105.35 214.316C105.338 213.203 104.975 212.846 104.412 212.846C103.68 212.846 103.322 213.455 103.322 214.838V215.459C103.709 215.031 104.266 214.814 104.916 214.814C106.223 214.814 106.932 215.611 106.932 217.123V217.721C106.932 219.303 106.065 220.135 104.418 220.135C102.672 220.135 101.834 219.086 101.834 217.006V215.137C101.834 212.811 102.69 211.656 104.453 211.656ZM104.424 215.904C103.82 215.904 103.451 216.273 103.451 217.082V217.674C103.451 218.559 103.797 218.945 104.447 218.945C105.086 218.945 105.42 218.576 105.42 217.721V217.135C105.42 216.273 105.074 215.904 104.424 215.904Z" fill="black"/>
<path d="M46.8281 240.123C45.2461 240.123 44.4492 239.385 44.4492 237.885V231.797H45.4863V237.814C45.4863 238.828 45.9316 239.314 46.8281 239.314C47.7305 239.314 48.1699 238.828 48.1699 237.814V231.797H49.207V237.885C49.207 239.385 48.416 240.123 46.8281 240.123ZM54.4137 240H53.3766V231.797H54.4137V234.064C54.4137 234.686 54.3844 235.125 54.2906 235.67L54.3902 235.705L56.9918 231.797H58.1109L55.9781 234.938L58.1754 240H57.0328L55.275 235.787L54.4137 236.977V240ZM72.7313 240.123C71.1727 240.123 70.3055 239.355 70.3055 237.99V237.627C70.3055 236.637 70.7801 235.975 71.6297 235.77V235.652C70.8855 235.412 70.493 234.838 70.493 233.971V233.66C70.493 232.383 71.2898 231.674 72.7313 231.674C74.1785 231.674 74.9695 232.383 74.9695 233.66V233.971C74.9695 234.838 74.577 235.412 73.8328 235.652V235.77C74.6824 235.975 75.157 236.637 75.157 237.627V237.99C75.157 239.355 74.2957 240.123 72.7313 240.123ZM72.7313 235.359C73.5574 235.359 73.9617 234.938 73.9617 234.076V233.719C73.9617 232.852 73.5574 232.424 72.7313 232.424C71.9109 232.424 71.5066 232.852 71.5066 233.719V234.076C71.5066 234.938 71.9109 235.359 72.7313 235.359ZM72.7313 239.367C73.6453 239.367 74.0965 238.898 74.0965 237.949V237.516C74.0965 236.566 73.6453 236.098 72.7313 236.098C71.8172 236.098 71.366 236.566 71.366 237.516V237.949C71.366 238.898 71.8172 239.367 72.7313 239.367ZM90.791 237.146H89.209V235.717H90.791V237.146ZM107.269 240.123C105.687 240.123 104.89 239.385 104.89 237.885V231.797H105.927V237.814C105.927 238.828 106.372 239.314 107.269 239.314C108.171 239.314 108.611 238.828 108.611 237.814V231.797H109.648V237.885C109.648 239.385 108.857 240.123 107.269 240.123ZM116.003 240.117C114.427 240.117 113.495 239.285 113.436 237.311L114.438 237.064C114.456 238.77 114.971 239.344 116.026 239.344C116.841 239.344 117.362 238.852 117.362 238.113C117.362 237.463 116.975 237.029 116.079 236.467L115.212 235.91C114.268 235.312 113.677 234.738 113.682 233.689C113.682 232.482 114.532 231.68 115.85 231.68C117.309 231.68 118.136 232.506 118.171 234.246L117.216 234.475C117.204 233.01 116.753 232.447 115.845 232.447C115.118 232.447 114.643 232.893 114.643 233.578C114.643 234.176 114.954 234.545 115.903 235.137L116.764 235.676C117.655 236.232 118.37 236.865 118.37 237.984C118.37 239.25 117.438 240.117 116.003 240.117ZM134.842 240H133.846V237.996H130.5V237.381L133.271 231.797H134.842V237.24H135.85V237.996H134.842V240ZM133.131 234.152L131.555 237.24H133.846V234.369C133.846 233.713 133.857 233.145 133.887 232.664L133.77 232.652C133.605 233.115 133.383 233.613 133.131 234.152ZM37.1625 256H36.1195V247.797H40.6781V248.646H37.1625V251.5H40.35V252.332H37.1625V256ZM45.5098 256H44.4668V247.797H46.7754C48.3281 247.797 49.166 248.512 49.166 249.824V249.988C49.166 251.002 48.5742 251.641 47.502 251.758V251.875C48.1113 252.045 48.3691 252.338 48.6211 253.322L48.873 254.307C49.125 255.291 49.3301 255.666 49.6289 255.871L49.6172 256H48.3633C48.1582 255.66 48.0293 255.244 47.8125 254.301L47.5957 253.369C47.373 252.426 47.127 252.162 46.3828 252.162H45.5098V256ZM45.5098 248.617V251.365H46.6523C47.6426 251.365 48.1113 250.955 48.1113 250.1V249.883C48.1113 249.016 47.6426 248.617 46.6523 248.617H45.5098ZM64.2141 256.117C62.591 256.117 61.7238 255.227 61.6652 253.369L62.7141 253.135C62.7199 254.664 63.2004 255.355 64.2023 255.355C65.0227 255.355 65.4562 254.869 65.4562 253.873V253.498C65.4562 252.537 64.9699 252.115 64.173 252.092L63.4172 252.068V251.377L64.132 251.359C64.8996 251.342 65.3156 250.926 65.3156 250.088V249.771C65.3156 248.857 64.9055 248.436 64.1555 248.436C63.2414 248.436 62.802 249.08 62.802 250.486L61.7941 250.27C61.8234 248.523 62.6437 247.68 64.173 247.68C65.5617 247.68 66.3293 248.383 66.3293 249.719V249.982C66.3293 250.861 65.9191 251.453 65.0988 251.652V251.758C66.0539 251.951 66.5168 252.584 66.5168 253.598V253.896C66.5168 255.338 65.6848 256.117 64.2141 256.117ZM72.7957 247.674C74.1199 247.674 74.9871 248.389 75.0574 250.076L74.0203 250.316C73.991 248.986 73.5398 248.465 72.7781 248.465C71.7996 248.465 71.3543 249.297 71.3543 251.107V251.752C71.6941 251.219 72.3035 250.943 73.0125 250.943C74.2957 250.943 75.0691 251.77 75.0691 253.229V253.803C75.0691 255.285 74.2254 256.117 72.7605 256.117C71.1375 256.117 70.3699 255.068 70.3699 253.088V251.236C70.3699 248.869 71.1668 247.674 72.7957 247.674ZM72.7312 251.688C71.9812 251.688 71.4656 252.203 71.4656 253.141V253.703C71.4656 254.787 71.9344 255.326 72.7723 255.326C73.5867 255.326 74.032 254.822 74.032 253.797V253.234C74.032 252.203 73.575 251.688 72.7312 251.688ZM90.791 253.146H89.209V251.717H90.791V253.146ZM109.665 256H104.872V255.174H106.753V248.617H104.872V247.797H109.665V248.617H107.79V255.174H109.665V256ZM116.425 256H115.382V248.652H113.173V247.797H118.634V248.652H116.425V256ZM134.842 256H133.846V253.996H130.5V253.381L133.271 247.797H134.842V253.24H135.85V253.996H134.842V256ZM133.131 250.152L131.555 253.24H133.846V250.369C133.846 249.713 133.857 249.145 133.887 248.664L133.77 248.652C133.605 249.115 133.383 249.613 133.131 250.152ZM141.806 256.117C140.148 256.117 139.275 254.986 139.275 252.836V250.961C139.275 248.811 140.148 247.68 141.806 247.68C143.464 247.68 144.338 248.811 144.338 250.961V252.836C144.338 254.986 143.464 256.117 141.806 256.117ZM141.806 255.309C142.808 255.309 143.295 254.553 143.295 252.977V250.844C143.295 249.25 142.808 248.482 141.806 248.482C140.804 248.482 140.318 249.25 140.318 250.844V252.977C140.318 254.553 140.804 255.309 141.806 255.309ZM142.275 252.549H141.338V251.248H142.275V252.549Z" fill="black" fill-opacity="0.4"/>
</svg>
