<svg width="180" height="288" viewBox="0 0 180 288" fill="none" xmlns="http://www.w3.org/2000/svg">
<rect width="180" height="288" fill="white"/>
<path d="M73.6719 170.82C63.6328 170.82 59.1406 166.016 59.1406 153.789V150.781L68.3984 149.609V152.891C68.3984 160.664 69.9609 163.867 73.8672 163.867C76.7188 163.867 78.0859 161.953 78.0859 157.969V150.742C78.0859 146.953 76.3281 145.156 72.9297 145L69.8828 144.844V138.438L72.8516 138.281C76.0938 138.125 77.6562 136.445 77.6562 133.047V126.797C77.6562 123.125 76.1719 121.328 73.5156 121.328C70.0781 121.328 68.5938 124.453 68.5938 131.328V134.18L59.6484 133.086V130.547C59.6484 119.102 64.2969 114.492 73.75 114.492C82.2266 114.492 86.4844 118.594 86.4844 126.758V131.758C86.4844 136.836 84.3359 139.961 79.9609 141.094V141.836C85 142.969 87.3828 146.445 87.3828 152.227V157.812C87.3828 166.484 82.6562 170.82 73.6719 170.82ZM105.352 170.859C95.7031 170.859 90.8984 166.914 90.8984 158.984V152.148C90.8984 146.602 93.3594 143.203 98.3203 141.875V141.094C93.9453 139.766 91.7969 136.758 91.7969 131.992V125.781C91.7969 118.203 96.25 114.453 105.352 114.453C114.531 114.453 118.945 118.203 118.945 125.781V131.992C118.945 136.758 116.797 139.766 112.422 141.094V141.875C117.383 143.203 119.844 146.602 119.844 152.148V158.984C119.844 166.914 115.039 170.859 105.352 170.859ZM105.352 138.359C108.555 138.359 110.117 136.836 110.117 133.516V126.25C110.117 122.852 108.555 121.289 105.352 121.289C102.148 121.289 100.625 122.852 100.625 126.25V133.516C100.625 136.836 102.148 138.359 105.352 138.359ZM105.352 163.984C108.867 163.984 110.586 162.305 110.586 158.672V150.273C110.586 146.68 108.867 145 105.352 145C101.836 145 100.156 146.68 100.156 150.273V158.672C100.156 162.305 101.836 163.984 105.352 163.984Z" fill="black"/>
</svg>
