<svg width="180" height="288" viewBox="0 0 180 288" fill="none" xmlns="http://www.w3.org/2000/svg">
<rect width="180" height="288" fill="white"/>
<path d="M77.148 42.8899C75.5719 42.8899 74.6402 42.0579 74.5816 40.0833L75.5836 39.8372C75.6012 41.5422 76.1168 42.1165 77.1715 42.1165C77.9859 42.1165 78.5074 41.6243 78.5074 40.886C78.5074 40.2356 78.1207 39.802 77.2242 39.2395L76.357 38.6829C75.4137 38.0852 74.8219 37.511 74.8277 36.4622C74.8277 35.2551 75.6773 34.4524 76.9957 34.4524C78.4547 34.4524 79.2809 35.2786 79.316 37.0188L78.3609 37.2473C78.3492 35.7825 77.898 35.22 76.9898 35.22C76.2633 35.22 75.7887 35.6653 75.7887 36.3508C75.7887 36.9485 76.0992 37.3176 77.0484 37.9094L77.9098 38.4485C78.8004 39.0051 79.5152 39.6379 79.5152 40.7571C79.5152 42.0227 78.5836 42.8899 77.148 42.8899ZM88.0793 42.7727H83.2863V41.9465H85.1672V35.3899H83.2863V34.5696H88.0793V35.3899H86.2043V41.9465H88.0793V42.7727ZM96.702 42.7727H91.9324V42.0637L94.9441 36.1399C95.0555 35.9231 95.202 35.6829 95.3543 35.4778L95.3133 35.3782C94.9617 35.3958 94.6336 35.4016 94.2703 35.4016H92.0027V34.5696H96.532V35.2727L93.6258 41.0735C93.5027 41.3137 93.3328 41.6008 93.1512 41.8586L93.1922 41.9524C93.4969 41.9407 93.8133 41.9348 94.1414 41.9348H96.702V42.7727ZM105.225 42.7727H100.743V34.5696H105.125V35.4368H101.78V38.0266H104.663V38.8411H101.78V41.9055H105.225V42.7727Z" fill="black" fill-opacity="0.4"/>
<path d="M68 58.7727H112" stroke="black" stroke-opacity="0.8" stroke-width="0.4"/>
<path d="M81.1426 120.773H74.5508V79.7571H83.8672L87.9395 98.0676C88.4961 100.616 89.1113 104.63 89.668 110.548H90.2539C90.8398 104.63 91.3965 100.616 91.9531 98.0676L95.9375 79.7571H105.4V120.773H98.6035L98.6621 101.73C98.6621 98.302 98.7793 94.845 99.1016 90.509L98.4863 90.4504L92.6855 120.773H87.0605L81.377 90.4211L80.7617 90.4797C81.0254 94.8157 81.1426 98.302 81.1426 101.73V120.773Z" fill="black"/>
<path d="M78.1132 220H73.2499V211.797H78.0253V213.109H74.7792V215.148H77.3808V216.355H74.7792V218.682H78.1132V220ZM82.8115 220.141C81.124 220.141 80.2392 219.373 80.2392 217.885V211.797H81.7685V217.791C81.7685 218.576 82.1201 218.963 82.8115 218.963C83.497 218.963 83.8427 218.576 83.8427 217.791V211.797H85.372V217.885C85.372 219.373 84.4931 220.141 82.8115 220.141ZM97.2998 220.135C95.4717 220.135 94.5928 219.291 94.5694 217.252L96.1045 217.053C96.1104 218.418 96.4678 219.004 97.2823 219.004C97.9034 219.004 98.2315 218.623 98.2315 217.85V217.398C98.2315 216.631 97.8389 216.297 97.1944 216.273L96.5733 216.25V215.248L97.1709 215.23C97.7979 215.207 98.1319 214.867 98.1319 214.211V213.836C98.1319 213.121 97.8037 212.787 97.2237 212.787C96.4912 212.787 96.1573 213.344 96.1631 214.568L94.6866 214.387C94.6924 212.471 95.5537 211.662 97.2705 211.662C98.8057 211.662 99.6084 212.359 99.6084 213.742V213.982C99.6084 214.885 99.2041 215.453 98.3955 215.658V215.77C99.3389 215.975 99.7901 216.596 99.7901 217.609V217.891C99.7901 219.373 98.9229 220.135 97.2998 220.135ZM104.389 220.141C102.672 220.141 101.781 219.42 101.781 218.043V217.586C101.781 216.631 102.238 216.01 103.106 215.781V215.664C102.35 215.424 101.963 214.879 101.963 214.047V213.637C101.963 212.336 102.783 211.656 104.389 211.656C106.006 211.656 106.815 212.336 106.815 213.637V214.047C106.815 214.879 106.434 215.424 105.678 215.664V215.781C106.545 216.01 106.996 216.631 106.996 217.586V218.043C106.996 219.42 106.111 220.141 104.389 220.141ZM104.395 215.219C105.033 215.219 105.35 214.902 105.35 214.252V213.748C105.35 213.092 105.033 212.77 104.395 212.77C103.75 212.77 103.434 213.092 103.434 213.748V214.252C103.434 214.902 103.75 215.219 104.395 215.219ZM104.395 219.021C105.098 219.021 105.449 218.67 105.449 217.961V217.363C105.449 216.648 105.098 216.303 104.395 216.303C103.68 216.303 103.334 216.648 103.334 217.363V217.961C103.334 218.67 103.68 219.021 104.395 219.021Z" fill="black"/>
<path d="M42.5109 240.123C40.9289 240.123 40.132 239.385 40.132 237.885V231.797H41.1691V237.814C41.1691 238.828 41.6145 239.314 42.5109 239.314C43.4133 239.314 43.8527 238.828 43.8527 237.814V231.797H44.8898V237.885C44.8898 239.385 44.0988 240.123 42.5109 240.123ZM50.0965 240H49.0594V231.797H50.0965V234.064C50.0965 234.686 50.0672 235.125 49.9734 235.67L50.073 235.705L52.6746 231.797H53.7937L51.6609 234.938L53.8582 240H52.7156L50.9578 235.787L50.0965 236.977V240ZM70.9512 240H65.8828V239.221H68.0391V234.035H65.8828V233.367C67.957 233.314 68.1504 233.244 68.2559 231.797H69.082V239.221H70.9512V240ZM77.0484 240.117C75.3902 240.117 74.5172 238.986 74.5172 236.836V234.961C74.5172 232.811 75.3902 231.68 77.0484 231.68C78.7066 231.68 79.5797 232.811 79.5797 234.961V236.836C79.5797 238.986 78.7066 240.117 77.0484 240.117ZM77.0484 239.309C78.0504 239.309 78.5367 238.553 78.5367 236.977V234.844C78.5367 233.25 78.0504 232.482 77.0484 232.482C76.0465 232.482 75.5602 233.25 75.5602 234.844V236.977C75.5602 238.553 76.0465 239.309 77.0484 239.309ZM77.5172 236.549H76.5797V235.248H77.5172V236.549ZM95.1082 237.146H93.5262V235.717H95.1082V237.146ZM111.586 240.123C110.004 240.123 109.207 239.385 109.207 237.885V231.797H110.244V237.814C110.244 238.828 110.689 239.314 111.586 239.314C112.488 239.314 112.928 238.828 112.928 237.814V231.797H113.965V237.885C113.965 239.385 113.174 240.123 111.586 240.123ZM120.32 240.117C118.744 240.117 117.812 239.285 117.754 237.311L118.755 237.064C118.773 238.77 119.289 239.344 120.343 239.344C121.158 239.344 121.679 238.852 121.679 238.113C121.679 237.463 121.293 237.029 120.396 236.467L119.529 235.91C118.586 235.312 117.994 234.738 118 233.689C118 232.482 118.849 231.68 120.168 231.68C121.627 231.68 122.453 232.506 122.488 234.246L121.533 234.475C121.521 233.01 121.07 232.447 120.162 232.447C119.435 232.447 118.961 232.893 118.961 233.578C118.961 234.176 119.271 234.545 120.22 235.137L121.082 235.676C121.972 236.232 122.687 236.865 122.687 237.984C122.687 239.25 121.755 240.117 120.32 240.117ZM137.554 231.674C138.878 231.674 139.745 232.389 139.815 234.076L138.778 234.316C138.749 232.986 138.298 232.465 137.536 232.465C136.557 232.465 136.112 233.297 136.112 235.107V235.752C136.452 235.219 137.061 234.943 137.77 234.943C139.054 234.943 139.827 235.77 139.827 237.229V237.803C139.827 239.285 138.983 240.117 137.518 240.117C135.895 240.117 135.128 239.068 135.128 237.088V235.236C135.128 232.869 135.925 231.674 137.554 231.674ZM137.489 235.688C136.739 235.688 136.223 236.203 136.223 237.141V237.703C136.223 238.787 136.692 239.326 137.53 239.326C138.345 239.326 138.79 238.822 138.79 237.797V237.234C138.79 236.203 138.333 235.688 137.489 235.688ZM37.1625 256H36.1195V247.797H40.6781V248.646H37.1625V251.5H40.35V252.332H37.1625V256ZM45.5098 256H44.4668V247.797H46.7754C48.3281 247.797 49.166 248.512 49.166 249.824V249.988C49.166 251.002 48.5742 251.641 47.502 251.758V251.875C48.1113 252.045 48.3691 252.338 48.6211 253.322L48.873 254.307C49.125 255.291 49.3301 255.666 49.6289 255.871L49.6172 256H48.3633C48.1582 255.66 48.0293 255.244 47.8125 254.301L47.5957 253.369C47.373 252.426 47.127 252.162 46.3828 252.162H45.5098V256ZM45.5098 248.617V251.365H46.6523C47.6426 251.365 48.1113 250.955 48.1113 250.1V249.883C48.1113 249.016 47.6426 248.617 46.6523 248.617H45.5098ZM64.2141 256.117C62.591 256.117 61.7238 255.227 61.6652 253.369L62.7141 253.135C62.7199 254.664 63.2004 255.355 64.2023 255.355C65.0227 255.355 65.4562 254.869 65.4562 253.873V253.498C65.4562 252.537 64.9699 252.115 64.173 252.092L63.4172 252.068V251.377L64.132 251.359C64.8996 251.342 65.3156 250.926 65.3156 250.088V249.771C65.3156 248.857 64.9055 248.436 64.1555 248.436C63.2414 248.436 62.802 249.08 62.802 250.486L61.7941 250.27C61.8234 248.523 62.6437 247.68 64.173 247.68C65.5617 247.68 66.3293 248.383 66.3293 249.719V249.982C66.3293 250.861 65.9191 251.453 65.0988 251.652V251.758C66.0539 251.951 66.5168 252.584 66.5168 253.598V253.896C66.5168 255.338 65.6848 256.117 64.2141 256.117ZM72.7312 256.123C71.1727 256.123 70.3055 255.355 70.3055 253.99V253.627C70.3055 252.637 70.7801 251.975 71.6297 251.77V251.652C70.8855 251.412 70.493 250.838 70.493 249.971V249.66C70.493 248.383 71.2898 247.674 72.7312 247.674C74.1785 247.674 74.9695 248.383 74.9695 249.66V249.971C74.9695 250.838 74.577 251.412 73.8328 251.652V251.77C74.6824 251.975 75.157 252.637 75.157 253.627V253.99C75.157 255.355 74.2957 256.123 72.7312 256.123ZM72.7312 251.359C73.5574 251.359 73.9617 250.938 73.9617 250.076V249.719C73.9617 248.852 73.5574 248.424 72.7312 248.424C71.9109 248.424 71.5066 248.852 71.5066 249.719V250.076C71.5066 250.938 71.9109 251.359 72.7312 251.359ZM72.7312 255.367C73.6453 255.367 74.0965 254.898 74.0965 253.949V253.516C74.0965 252.566 73.6453 252.098 72.7312 252.098C71.8172 252.098 71.366 252.566 71.366 253.516V253.949C71.366 254.898 71.8172 255.367 72.7312 255.367ZM90.791 253.146H89.209V251.717H90.791V253.146ZM109.665 256H104.872V255.174H106.753V248.617H104.872V247.797H109.665V248.617H107.79V255.174H109.665V256ZM116.425 256H115.382V248.652H113.173V247.797H118.634V248.652H116.425V256ZM134.842 256H133.846V253.996H130.5V253.381L133.271 247.797H134.842V253.24H135.85V253.996H134.842V256ZM133.131 250.152L131.555 253.24H133.846V250.369C133.846 249.713 133.857 249.145 133.887 248.664L133.77 248.652C133.605 249.115 133.383 249.613 133.131 250.152ZM144.326 256H139.334V255.338C142.199 252.49 142.955 251.277 142.955 249.889C142.955 248.916 142.627 248.453 141.789 248.453C140.798 248.453 140.359 249.156 140.423 250.838L139.421 250.604C139.369 248.623 140.195 247.674 141.812 247.674C143.23 247.674 143.998 248.412 143.998 249.76C143.998 251.348 143.183 252.637 140.675 255.092L140.705 255.197C141.015 255.18 141.326 255.174 141.654 255.174H144.326V256Z" fill="black" fill-opacity="0.4"/>
</svg>
