<svg width="180" height="288" viewBox="0 0 180 288" fill="none" xmlns="http://www.w3.org/2000/svg">
<rect width="180" height="288" fill="white"/>
<path d="M77.148 42.8899C75.5719 42.8899 74.6402 42.0579 74.5816 40.0833L75.5836 39.8372C75.6012 41.5422 76.1168 42.1165 77.1715 42.1165C77.9859 42.1165 78.5074 41.6243 78.5074 40.886C78.5074 40.2356 78.1207 39.802 77.2242 39.2395L76.357 38.6829C75.4137 38.0852 74.8219 37.511 74.8277 36.4622C74.8277 35.2551 75.6773 34.4524 76.9957 34.4524C78.4547 34.4524 79.2809 35.2786 79.316 37.0188L78.3609 37.2473C78.3492 35.7825 77.898 35.22 76.9898 35.22C76.2633 35.22 75.7887 35.6653 75.7887 36.3508C75.7887 36.9485 76.0992 37.3176 77.0484 37.9094L77.9098 38.4485C78.8004 39.0051 79.5152 39.6379 79.5152 40.7571C79.5152 42.0227 78.5836 42.8899 77.148 42.8899ZM88.0793 42.7727H83.2863V41.9465H85.1672V35.3899H83.2863V34.5696H88.0793V35.3899H86.2043V41.9465H88.0793V42.7727ZM96.702 42.7727H91.9324V42.0637L94.9441 36.1399C95.0555 35.9231 95.202 35.6829 95.3543 35.4778L95.3133 35.3782C94.9617 35.3958 94.6336 35.4016 94.2703 35.4016H92.0027V34.5696H96.532V35.2727L93.6258 41.0735C93.5027 41.3137 93.3328 41.6008 93.1512 41.8586L93.1922 41.9524C93.4969 41.9407 93.8133 41.9348 94.1414 41.9348H96.702V42.7727ZM105.225 42.7727H100.743V34.5696H105.125V35.4368H101.78V38.0266H104.663V38.8411H101.78V41.9055H105.225V42.7727Z" fill="black" fill-opacity="0.4"/>
<path d="M68 58.7727H112" stroke="black" stroke-opacity="0.8" stroke-width="0.4"/>
<path d="M98.457 120.773H82.0508V79.7571H88.9941V115.118H98.457V120.773Z" fill="black"/>
<path d="M78.1132 220H73.2499V211.797H78.0253V213.109H74.7792V215.148H77.3808V216.355H74.7792V218.682H78.1132V220ZM82.8115 220.141C81.124 220.141 80.2392 219.373 80.2392 217.885V211.797H81.7685V217.791C81.7685 218.576 82.1201 218.963 82.8115 218.963C83.497 218.963 83.8427 218.576 83.8427 217.791V211.797H85.372V217.885C85.372 219.373 84.4931 220.141 82.8115 220.141ZM99.087 220H97.6455V218.277H94.4287V217.369L96.6553 211.797H99.087V217.199H99.9659V218.277H99.087V220ZM96.9893 214.598L95.9053 217.199H97.6455V214.891C97.6455 214.135 97.6573 213.455 97.6807 212.893L97.5635 212.881C97.3995 213.449 97.2002 214.018 96.9893 214.598ZM104.389 220.135C102.625 220.135 101.734 219.057 101.734 216.924V214.885C101.734 212.74 102.625 211.662 104.389 211.662C106.152 211.662 107.043 212.74 107.043 214.885V216.924C107.043 219.057 106.152 220.135 104.389 220.135ZM104.389 218.951C105.15 218.951 105.525 218.389 105.525 217.217V214.627C105.525 213.426 105.15 212.846 104.389 212.846C103.627 212.846 103.252 213.426 103.252 214.627V217.217C103.252 218.389 103.627 218.951 104.389 218.951ZM104.875 216.713H103.902V215.084H104.875V216.713Z" fill="black"/>
<path d="M42.5109 240.123C40.9289 240.123 40.132 239.385 40.132 237.885V231.797H41.1691V237.814C41.1691 238.828 41.6145 239.314 42.5109 239.314C43.4133 239.314 43.8527 238.828 43.8527 237.814V231.797H44.8898V237.885C44.8898 239.385 44.0988 240.123 42.5109 240.123ZM50.0965 240H49.0594V231.797H50.0965V234.064C50.0965 234.686 50.0672 235.125 49.9734 235.67L50.073 235.705L52.6746 231.797H53.7937L51.6609 234.938L53.8582 240H52.7156L50.9578 235.787L50.0965 236.977V240ZM70.9512 240H65.8828V239.221H68.0391V234.035H65.8828V233.367C67.957 233.314 68.1504 233.244 68.2559 231.797H69.082V239.221H70.9512V240ZM79.568 240H74.5758V239.338C77.441 236.49 78.1969 235.277 78.1969 233.889C78.1969 232.916 77.8687 232.453 77.0309 232.453C76.0406 232.453 75.6012 233.156 75.6656 234.838L74.6637 234.604C74.6109 232.623 75.4371 231.674 77.0543 231.674C78.4723 231.674 79.2398 232.412 79.2398 233.76C79.2398 235.348 78.4254 236.637 75.9176 239.092L75.9469 239.197C76.2574 239.18 76.568 239.174 76.8961 239.174H79.568V240ZM95.1082 237.146H93.5262V235.717H95.1082V237.146ZM111.586 240.123C110.004 240.123 109.207 239.385 109.207 237.885V231.797H110.244V237.814C110.244 238.828 110.689 239.314 111.586 239.314C112.488 239.314 112.928 238.828 112.928 237.814V231.797H113.965V237.885C113.965 239.385 113.174 240.123 111.586 240.123ZM120.32 240.117C118.744 240.117 117.812 239.285 117.754 237.311L118.755 237.064C118.773 238.77 119.289 239.344 120.343 239.344C121.158 239.344 121.679 238.852 121.679 238.113C121.679 237.463 121.293 237.029 120.396 236.467L119.529 235.91C118.586 235.312 117.994 234.738 118 233.689C118 232.482 118.849 231.68 120.168 231.68C121.627 231.68 122.453 232.506 122.488 234.246L121.533 234.475C121.521 233.01 121.07 232.447 120.162 232.447C119.435 232.447 118.961 232.893 118.961 233.578C118.961 234.176 119.271 234.545 120.22 235.137L121.082 235.676C121.972 236.232 122.687 236.865 122.687 237.984C122.687 239.25 121.755 240.117 120.32 240.117ZM137.489 240.123C135.93 240.123 135.063 239.355 135.063 237.99V237.627C135.063 236.637 135.538 235.975 136.387 235.77V235.652C135.643 235.412 135.251 234.838 135.251 233.971V233.66C135.251 232.383 136.048 231.674 137.489 231.674C138.936 231.674 139.727 232.383 139.727 233.66V233.971C139.727 234.838 139.335 235.412 138.591 235.652V235.77C139.44 235.975 139.915 236.637 139.915 237.627V237.99C139.915 239.355 139.054 240.123 137.489 240.123ZM137.489 235.359C138.315 235.359 138.72 234.938 138.72 234.076V233.719C138.72 232.852 138.315 232.424 137.489 232.424C136.669 232.424 136.264 232.852 136.264 233.719V234.076C136.264 234.938 136.669 235.359 137.489 235.359ZM137.489 239.367C138.403 239.367 138.854 238.898 138.854 237.949V237.516C138.854 236.566 138.403 236.098 137.489 236.098C136.575 236.098 136.124 236.566 136.124 237.516V237.949C136.124 238.898 136.575 239.367 137.489 239.367ZM37.1625 256H36.1195V247.797H40.6781V248.646H37.1625V251.5H40.35V252.332H37.1625V256ZM45.5098 256H44.4668V247.797H46.7754C48.3281 247.797 49.166 248.512 49.166 249.824V249.988C49.166 251.002 48.5742 251.641 47.502 251.758V251.875C48.1113 252.045 48.3691 252.338 48.6211 253.322L48.873 254.307C49.125 255.291 49.3301 255.666 49.6289 255.871L49.6172 256H48.3633C48.1582 255.66 48.0293 255.244 47.8125 254.301L47.5957 253.369C47.373 252.426 47.127 252.162 46.3828 252.162H45.5098V256ZM45.5098 248.617V251.365H46.6523C47.6426 251.365 48.1113 250.955 48.1113 250.1V249.883C48.1113 249.016 47.6426 248.617 46.6523 248.617H45.5098ZM65.7668 256H64.7707V253.996H61.425V253.381L64.1965 247.797H65.7668V253.24H66.7746V253.996H65.7668V256ZM64.0559 250.152L62.4797 253.24H64.7707V250.369C64.7707 249.713 64.7824 249.145 64.8117 248.664L64.6945 248.652C64.5305 249.115 64.3078 249.613 64.0559 250.152ZM72.7312 256.117C71.073 256.117 70.2 254.986 70.2 252.836V250.961C70.2 248.811 71.073 247.68 72.7312 247.68C74.3895 247.68 75.2625 248.811 75.2625 250.961V252.836C75.2625 254.986 74.3895 256.117 72.7312 256.117ZM72.7312 255.309C73.7332 255.309 74.2195 254.553 74.2195 252.977V250.844C74.2195 249.25 73.7332 248.482 72.7312 248.482C71.7293 248.482 71.243 249.25 71.243 250.844V252.977C71.243 254.553 71.7293 255.309 72.7312 255.309ZM73.2 252.549H72.2625V251.248H73.2V252.549ZM90.791 253.146H89.209V251.717H90.791V253.146ZM109.665 256H104.872V255.174H106.753V248.617H104.872V247.797H109.665V248.617H107.79V255.174H109.665V256ZM116.425 256H115.382V248.652H113.173V247.797H118.634V248.652H116.425V256ZM134.842 256H133.846V253.996H130.5V253.381L133.271 247.797H134.842V253.24H135.85V253.996H134.842V256ZM133.131 250.152L131.555 253.24H133.846V250.369C133.846 249.713 133.857 249.145 133.887 248.664L133.77 248.652C133.605 249.115 133.383 249.613 133.131 250.152ZM143.476 256H142.48V253.996H139.134V253.381L141.906 247.797H143.476V253.24H144.484V253.996H143.476V256ZM141.765 250.152L140.189 253.24H142.48V250.369C142.48 249.713 142.492 249.145 142.521 248.664L142.404 248.652C142.24 249.115 142.017 249.613 141.765 250.152Z" fill="black" fill-opacity="0.4"/>
</svg>
