<svg width="120" height="560" viewBox="0 0 120 560" fill="none" xmlns="http://www.w3.org/2000/svg">
<rect width="120" height="560" fill="white"/>
<g opacity="0.6">
<path d="M50.8502 59H49.7955V52.1641H53.7359V53.0381H50.8502V55.2598H53.4479V56.1094H50.8502V59ZM57.9641 59H56.4406V57.667H57.9641V59ZM61.826 59H60.7713V52.1641H61.826V54.9521H63.7742V52.1641H64.824V59H63.7742V55.8018H61.826V59ZM69.1547 59H67.6313V57.667H69.1547V59Z" fill="black"/>
</g>
<path d="M38.8477 83H36.5625L33.9453 69.3281H35.957L37.1973 76.6523C37.3926 77.8633 37.5195 78.8496 37.6465 80.4121H37.8516C37.9785 78.8496 38.0957 77.8633 38.291 76.6523L39.5312 69.3281H41.4258L38.8477 83ZM45.7715 79.8262V79.3379L47.5586 79.6016V80.041C47.5586 82.2676 46.3184 83.1953 44.5312 83.1855C42.5293 83.1855 41.5137 81.9746 41.5137 79.6797V76.0762C41.5137 73.7715 42.5781 72.5605 44.6094 72.5605C46.543 72.5605 47.5586 73.6934 47.5586 75.8223C47.5586 76.5156 47.5488 77.5996 47.5195 78.3711H43.3594V79.9141C43.3594 81.2129 43.6914 81.8379 44.5215 81.8379C45.2246 81.8379 45.7715 81.3691 45.7715 79.8262ZM44.5898 73.9082C43.7695 73.9082 43.3594 74.5527 43.3594 75.8516V77.0039H45.7031V75.5684C45.7031 74.4453 45.3418 73.9082 44.5898 73.9082ZM51.377 83.166C49.9805 83.166 49.2773 82.4629 49.2773 80.9102V74.1719H48.1836V72.7461H49.2773V70.4121L51.1426 69.7871V72.7461H53.0176V74.1719H51.1426V80.7344C51.1426 81.3887 51.3965 81.6426 51.9336 81.6426C52.2559 81.6426 52.6367 81.5547 53.0273 81.3984L52.9004 82.8047C52.5098 83.0293 51.9336 83.166 51.377 83.166ZM57.9883 72.7461H59.8438V83H58.0078C58.0078 82.541 58.1055 82.0625 58.418 81.1152L58.2422 81.0469C57.6855 82.5117 56.9043 83.1367 55.791 83.1367C54.5801 83.1367 53.9648 82.4531 53.9648 81.1543V72.7461H55.8301V80.7734C55.8301 81.418 56.0938 81.7598 56.6016 81.7598C57.4316 81.7598 57.9883 80.6172 57.9883 78.9375V72.7461ZM63.1348 83H61.2793V72.7461H63.1445C63.1641 73.2344 63.0762 73.6641 62.7441 74.6797L62.9199 74.7578C63.5645 73.1367 64.1504 72.6191 65.4199 72.502L65.6934 74.3086C63.5742 74.5039 63.1348 75.1094 63.1348 77.6191V83ZM70.5859 69.1328L70.7715 70.0801C69.8242 70.3047 69.4727 70.6953 69.4824 71.6914H70.5176V73.791H68.2324V72.043C68.2324 70.1289 68.9844 69.3965 70.5859 69.1328ZM77.9199 83H71.543V81.7891C74.7949 77.5996 75.9473 74.8945 75.9473 72.1992C75.9473 71.1152 75.625 70.6074 74.8633 70.6074C73.9355 70.6074 73.5156 71.252 73.5156 73.6543V74.3867L71.6797 74.0938V73.4199C71.6797 70.2656 72.7734 69.1426 74.8828 69.1426C76.8262 69.1426 77.8223 70.1094 77.8223 72.1211C77.8223 74.9824 76.7383 77.5898 73.877 81.3398L73.9258 81.4961C74.3262 81.4668 74.6777 81.457 75.0781 81.457H77.9199V83ZM82.334 69.1328C84.3164 69.1328 85.5664 70.1289 85.5664 72.6875V73.1855L83.6719 73.5273V72.9609C83.6719 71.1836 83.1641 70.6172 82.3047 70.6172C81.2305 70.6172 80.7422 71.5059 80.7422 73.4492V75.3535C81.2305 74.7578 81.9727 74.4551 82.8613 74.4551C84.6289 74.4551 85.6055 75.5586 85.6055 77.6387V79.8457C85.6055 82.043 84.4629 83.1855 82.2852 83.1855C79.9902 83.1855 78.9062 81.7793 78.9062 79.0547V73.7031C78.9062 70.6465 80.0195 69.1328 82.334 69.1328ZM82.2852 75.8516C81.4258 75.8516 80.8789 76.4082 80.8789 77.5898V79.7676C80.8789 81.1055 81.3672 81.7109 82.3047 81.7109C83.2422 81.7109 83.7207 81.1348 83.7207 79.8457V77.668C83.7207 76.4082 83.2324 75.8516 82.2852 75.8516Z" fill="black"/>
<path d="M61.1423 273.356C61.2148 273.357 61.5569 273.649 61.9023 274.005C62.2476 274.361 62.5303 274.696 62.5308 274.751C62.5305 274.806 62.3996 275.147 62.2396 275.509C62.0793 275.872 61.5579 276.9 61.0807 277.793C60.6034 278.686 60.0568 279.705 59.8656 280.058C59.6745 280.41 59.0588 281.541 58.4976 282.571C57.9363 283.601 57.0588 285.22 56.5475 286.169C56.0362 287.118 55.353 288.382 55.0293 288.978C54.7058 289.575 54.3348 290.262 54.2051 290.506C54.0751 290.751 53.1418 292.503 52.1309 294.4C50.2929 297.85 50.2926 297.85 50.3405 298.343C50.3971 298.926 50.0518 299.706 50.8624 300.137C51.6733 300.568 54.5338 295.603 55.3128 295.216C56.4974 294.629 56.8389 294.265 57.8709 293.386C58.324 293.001 59.1434 292.255 59.6918 291.73C60.2402 291.204 61.1573 290.244 61.7296 289.595C62.3018 288.947 62.9651 288.122 63.2035 287.762C63.4419 287.402 63.6762 287.107 63.7239 287.106C64.0813 287.097 65.0063 287.487 65.2591 287.774C65.3046 287.827 65.2482 288.091 65.1217 288.416C65.0032 288.72 64.6944 289.27 64.4356 289.638C64.1769 290.006 63.6923 290.772 63.3588 291.341C63.0253 291.911 62.4092 293.042 61.9896 293.855C61.57 294.668 60.8029 296.27 60.285 297.414C59.767 298.559 59.1634 299.978 58.9437 300.569C58.724 301.159 58.4503 301.953 58.3356 302.332C58.2208 302.712 58.0714 303.233 58.0036 303.49C57.9358 303.748 57.9138 303.958 57.9545 303.958C57.9957 303.958 58.2315 303.665 58.4786 303.308C58.7261 302.95 59.1642 302.229 59.4522 301.706C59.7387 301.185 59.9809 300.749 59.9923 300.731C60.0013 300.718 60.3533 300.839 60.7742 301.001C61.195 301.162 61.5544 301.312 61.5728 301.333C61.5905 301.355 61.5068 301.671 61.386 302.036C61.2649 302.401 61.0233 302.968 60.8489 303.294C60.6744 303.621 60.2514 304.314 59.9087 304.835C59.5661 305.356 59.0651 306.017 58.7959 306.304C58.5267 306.591 58.1686 306.892 57.9998 306.972C57.7108 307.109 57.6465 307.1 56.8933 306.817C56.4476 306.649 56.0271 306.425 55.942 306.311C55.8406 306.173 55.79 305.937 55.7901 305.599C55.7901 305.32 55.8476 304.782 55.9175 304.402C55.9875 304.023 56.1778 303.291 56.3406 302.776C56.7265 301.555 57.1303 300.344 57.5775 299.149C57.7864 298.591 58.2325 297.488 58.5685 296.698C58.9033 295.91 59.1601 295.245 59.1409 295.216C59.1195 295.192 58.626 295.535 58.044 295.979C56.1736 297.404 52.2554 303.496 50.3405 302.778C49.6433 302.517 49.0203 301.948 48.9123 301.001C47.4725 301.014 44.5105 309.608 44.1227 310.911C43.8563 311.806 39.9754 323.295 39.7374 324.163C39.4995 325.03 39.1711 326.339 39.0075 327.07C38.844 327.802 38.6619 328.756 38.603 329.19C38.5439 329.623 38.4881 329.987 38.4789 329.999C38.4685 330.01 38.0795 329.954 37.6138 329.874C37.148 329.795 36.7351 329.752 36.6952 329.779C36.6563 329.806 36.347 329.536 36.008 329.179C35.4934 328.638 35.3917 328.479 35.3925 328.219C35.393 328.048 35.4492 327.67 35.5173 327.379C35.5855 327.088 35.8065 326.4 36.0084 325.851C37.5945 321.538 38.6027 318.552 40.9587 312.675C41.8422 310.471 42.9094 308.314 43.6306 306.031C43.7847 305.543 44.2747 304.079 44.7197 302.778C45.1647 301.477 45.6811 299.991 45.8671 299.476C46.0532 298.961 46.519 297.719 46.9023 296.716C47.2858 295.714 47.916 294.097 48.3023 293.124C48.6875 292.153 49.0029 291.345 49.0047 291.324C49.005 291.308 49.0458 291.295 49.0958 291.295C49.1464 291.295 49.5363 291.434 49.9627 291.603C50.6915 291.892 50.739 291.928 50.7391 292.188C50.7391 292.341 50.7751 292.492 50.8193 292.523C50.8645 292.552 51.2483 291.923 51.6729 291.124C52.0981 290.323 52.7316 289.136 53.0807 288.486C53.4299 287.835 54.2611 286.305 54.9279 285.085C55.5947 283.865 56.2929 282.579 56.4795 282.226C56.6659 281.874 57.051 281.164 57.3349 280.649C57.619 280.134 58.0102 279.41 58.2045 279.04C58.3983 278.671 58.5389 278.347 58.5173 278.32C58.4949 278.295 58.4228 278.332 58.3572 278.402C58.2915 278.472 58.004 278.751 57.7183 279.022C57.4325 279.292 57.1556 279.559 57.1032 279.613C57.0504 279.668 56.6235 280.09 56.1545 280.551C55.6854 281.012 54.9284 281.76 54.4725 282.214C54.0166 282.668 53.5069 283.179 53.34 283.349C53.1729 283.519 52.6074 284.078 52.083 284.593C51.5585 285.107 50.7948 285.861 50.3862 286.268C49.9776 286.674 49.3143 287.325 48.9123 287.713C48.5102 288.102 47.7848 288.79 47.3005 289.241C46.8163 289.693 46.0361 290.4 45.5666 290.811C45.0971 291.223 44.4006 291.805 44.0191 292.106C43.6377 292.406 43.0891 292.786 42.8 292.951C42.511 293.116 42.136 293.28 41.9668 293.316C41.678 293.378 41.6178 293.339 40.9587 292.675C40.4899 292.202 40.24 291.874 40.2028 291.683C40.1711 291.519 40.2093 291.155 40.2927 290.828C40.3726 290.516 40.6164 289.816 40.8346 289.274C41.0528 288.732 41.4838 287.756 41.7923 287.106C42.1006 286.455 42.8404 284.947 43.4359 283.754C44.0315 282.562 44.6446 281.342 44.7988 281.043C44.9529 280.745 45.2368 280.191 45.4295 279.811C45.6222 279.43 45.9047 278.861 46.0573 278.545C46.2753 278.093 46.3 277.992 46.1739 278.072C46.0856 278.128 45.8127 278.343 45.5673 278.549C45.322 278.756 44.1165 279.789 42.8888 280.846C41.6609 281.903 40.5546 282.856 40.4301 282.962C40.3052 283.069 39.2672 283.974 38.123 284.973C36.9786 285.973 35.7888 287.019 35.4787 287.299C35.1687 287.578 34.0414 288.603 32.9736 289.575C31.9058 290.548 30.9106 291.453 30.7623 291.586C30.6141 291.719 30.1804 292.147 29.7988 292.537C29.1049 293.246 29.1048 293.246 28.4768 292.591C27.8485 291.936 27.8484 291.936 28.4337 291.246C28.7555 290.866 29.157 290.419 29.3259 290.252C29.4948 290.084 29.8853 289.707 30.1937 289.414C30.5019 289.12 30.9492 288.702 31.1873 288.486C31.4253 288.269 31.698 288.019 31.7935 287.929C31.8889 287.839 32.279 287.486 32.6605 287.145C33.042 286.804 33.8225 286.103 34.3948 285.588C34.967 285.073 35.6498 284.462 35.9122 284.23C36.1744 283.998 37.0912 283.196 37.9496 282.447C38.8078 281.699 39.6123 281 39.7374 280.893C39.8621 280.786 40.9694 279.834 42.1975 278.776C43.4257 277.719 44.9623 276.408 45.6123 275.863C46.2621 275.318 47.0615 274.664 47.3889 274.409C47.7164 274.155 48.0694 273.947 48.1731 273.947C48.2844 273.947 48.6199 274.215 48.991 274.6C49.5777 275.209 49.6166 275.274 49.5619 275.561C49.5296 275.73 49.3527 276.21 49.1689 276.627C48.9849 277.044 48.0675 278.907 47.13 280.766C46.1925 282.626 44.9997 285.013 44.4793 286.071C43.9589 287.128 43.2991 288.541 43.0132 289.211C42.7274 289.881 42.505 290.468 42.5192 290.517C42.5343 290.565 42.8579 290.372 43.2391 290.088C43.6208 289.803 44.421 289.138 45.0168 288.609C45.6126 288.081 46.3008 287.46 46.5461 287.229C46.7914 286.999 47.2011 286.616 47.4565 286.38C47.7119 286.144 48.1159 285.76 48.3543 285.527C48.5928 285.294 49.1046 284.795 49.4914 284.418C49.8781 284.041 50.2718 283.649 50.3661 283.546C50.4605 283.444 50.9023 283.005 51.3482 282.571C51.7942 282.138 52.2214 281.716 52.2977 281.635C52.3739 281.553 52.5909 281.337 52.7798 281.153C52.9687 280.97 53.3559 280.593 53.6401 280.316C53.9244 280.038 54.5292 279.434 54.984 278.974C55.4389 278.513 56.0401 277.914 56.3201 277.643C56.6001 277.372 56.9944 276.995 57.1964 276.805C57.3984 276.615 58.1255 275.924 58.8118 275.27C59.4983 274.616 60.2741 273.918 60.5357 273.718C60.7971 273.519 61.0698 273.356 61.1423 273.356Z" fill="black"/>
<path d="M71.6032 290.054C72.4054 289.262 72.4055 289.262 73.0771 289.609C73.4466 289.8 73.8028 290.017 73.8683 290.09C73.9689 290.204 73.9482 290.313 73.7335 290.8C73.5939 291.117 72.9784 292.285 72.3658 293.396C71.7532 294.508 71.1847 295.55 71.1025 295.713C71.0202 295.876 70.773 296.338 70.5531 296.741C70.3331 297.144 70.1705 297.493 70.1913 297.517C70.2145 297.538 70.7337 296.967 71.3469 296.246C72.4642 294.932 72.4644 294.932 73.2368 295.333C73.8391 295.646 74.0153 295.783 74.038 295.957C74.0653 296.166 74.0951 296.176 74.515 296.111C74.7614 296.073 75.4251 296.004 75.9897 295.959C76.8762 295.887 77.0622 295.84 77.3533 295.622C77.5386 295.482 77.7255 295.368 77.7685 295.368C77.8119 295.368 78.0639 295.481 78.3287 295.619C78.7228 295.824 78.8397 295.848 78.968 295.752C79.0543 295.687 79.5201 295.141 80.0028 294.54C80.4857 293.938 81.2712 292.912 81.7486 292.26C82.2259 291.607 82.6801 291.014 82.7579 290.94C82.8788 290.826 83.0002 290.86 83.613 291.175C84.0056 291.377 84.3812 291.601 84.4472 291.673C84.5487 291.783 84.5107 291.982 84.1984 292.969C83.9956 293.611 83.659 294.69 83.4506 295.368C83.2422 296.046 83.0715 296.657 83.071 296.726C83.0704 296.821 83.1348 296.813 83.3362 296.695C83.5913 296.545 83.6301 296.551 84.2407 296.84C84.662 297.04 85.0257 297.142 85.3109 297.142C85.5489 297.142 86.3609 297.005 87.1158 296.837C87.8709 296.67 88.8403 296.509 89.2695 296.481C90.0428 296.43 90.0567 296.433 90.8284 296.839C91.2566 297.065 91.6956 297.344 91.8039 297.459C91.912 297.575 92.0005 297.739 92 297.825C91.9994 297.91 91.9058 298.208 91.792 298.486C91.6782 298.763 91.5441 299.02 91.4944 299.055C91.4443 299.089 91.1101 298.952 90.7515 298.751C90.0988 298.384 90.0985 298.384 89.4674 298.496C89.1202 298.558 88.4066 298.702 87.8821 298.816C87.3576 298.93 86.6162 299.03 86.2347 299.04C85.6437 299.054 85.4656 299.017 85.0319 298.79C84.7531 298.643 84.5088 298.523 84.4874 298.522C84.4677 298.522 84.0599 298.944 83.5814 299.458C83.1032 299.973 82.6221 300.42 82.512 300.452C82.3759 300.491 82.064 300.367 81.5317 300.063C81.1028 299.818 80.7271 299.545 80.6967 299.456C80.6667 299.367 80.6426 299.154 80.6432 298.982C80.6438 298.811 80.7555 298.193 80.8913 297.61C81.0268 297.029 81.1227 296.554 81.1053 296.551C81.0844 296.554 80.6613 296.991 80.1625 297.526C79.6622 298.062 79.1094 298.578 78.9342 298.673C78.6157 298.845 78.6152 298.845 77.7429 298.357C76.8705 297.87 76.8703 297.869 75.8734 297.991C75.3251 298.058 74.6811 298.116 74.4426 298.12C74.153 298.124 73.8552 298.044 73.5455 297.881C73.2907 297.746 73.0317 297.635 72.9697 297.635C72.9082 297.635 72.0657 298.6 71.0976 299.779C70.1296 300.958 68.9253 302.402 68.4217 302.986C67.9181 303.571 67.3575 304.166 67.1758 304.309C66.8456 304.57 66.8454 304.57 66.0704 304.138C65.4226 303.777 65.2953 303.668 65.2952 303.474C65.2952 303.347 65.4514 302.898 65.6421 302.477C65.8325 302.056 65.9882 301.681 65.9887 301.642C65.9892 301.603 66.1706 301.208 66.3921 300.762C66.6138 300.316 66.9779 299.597 67.2011 299.163C67.4243 298.729 67.8345 297.931 68.1126 297.389C68.3907 296.847 68.7123 296.233 68.8273 296.024C68.9421 295.816 69.0165 295.624 68.993 295.596C68.9687 295.569 68.4097 296.031 67.7508 296.624C67.0917 297.217 66.0988 298.087 65.5444 298.558C64.674 299.298 64.5158 299.476 64.3858 299.863C64.3031 300.109 64.1826 300.334 64.118 300.362C64.0534 300.39 63.5895 300.19 63.0872 299.918C62.5856 299.645 62.1751 299.379 62.1739 299.325C62.1739 299.272 62.2477 299.036 62.338 298.801C62.4284 298.567 62.5745 298.307 62.6631 298.224C62.7516 298.141 63.5656 297.435 64.4717 296.654C65.3777 295.873 66.5091 294.879 66.986 294.445C67.4629 294.011 68.5163 293.024 69.3269 292.251C70.1376 291.479 71.162 290.49 71.6032 290.054Z" fill="black"/>
<path d="M89.2371 291.024C89.3509 290.991 89.6172 291.04 89.8329 291.135C90.0475 291.229 90.393 291.384 90.6007 291.479C90.9627 291.645 90.9768 291.666 90.9302 291.992C90.9035 292.18 90.8203 292.439 90.7456 292.569C90.6549 292.726 90.527 292.805 90.363 292.805C90.2275 292.805 89.8288 292.67 89.4771 292.505C89.1256 292.34 88.8065 292.17 88.7676 292.126C88.7294 292.083 88.773 291.83 88.8646 291.565C88.9826 291.223 89.0913 291.066 89.2371 291.024Z" fill="black"/>
<path d="M77.0966 290.538C77.1857 290.538 77.5933 290.727 78.0026 290.957C78.7143 291.357 78.745 291.388 78.6983 291.655C78.6714 291.809 78.5685 292.064 78.4695 292.222C78.3705 292.38 78.2103 292.509 78.1136 292.509C78.0169 292.509 77.6098 292.306 77.2091 292.058C76.8088 291.81 76.4811 291.564 76.4803 291.511C76.4804 291.458 76.5437 291.273 76.6211 291.1C76.6986 290.927 76.8009 290.729 76.8485 290.661C76.8961 290.594 77.0077 290.538 77.0966 290.538Z" fill="black"/>
<path d="M60.7534 266C60.8018 266.016 61.1653 266.158 61.5617 266.316C62.2658 266.596 62.2821 266.61 62.2344 266.882C62.2075 267.035 62.1246 267.301 62.0498 267.473C61.9633 267.672 61.4343 268.199 60.6008 268.919C59.8787 269.542 58.8369 270.477 58.2862 270.995C57.7356 271.514 57.103 272.169 56.8807 272.451C56.4764 272.963 56.4761 272.963 55.7243 272.654C54.9725 272.344 54.9723 272.344 55.0305 271.987C55.0626 271.791 55.1896 271.419 55.3128 271.16C55.4534 270.865 55.8256 270.407 56.3138 269.928C56.7415 269.509 57.8958 268.447 58.8791 267.569C59.8621 266.691 60.7055 265.985 60.7534 266Z" fill="black"/>
<g opacity="0.6">
<path d="M44.3995 518.078C43.3487 518.078 42.7277 517.523 42.6886 516.207L43.3566 516.043C43.3683 517.18 43.712 517.562 44.4152 517.562C44.9581 517.562 45.3058 517.234 45.3058 516.742C45.3058 516.309 45.048 516.02 44.4503 515.645L43.8722 515.273C43.2433 514.875 42.8487 514.492 42.8527 513.793C42.8527 512.988 43.4191 512.453 44.298 512.453C45.2706 512.453 45.8214 513.004 45.8448 514.164L45.2081 514.316C45.2003 513.34 44.8995 512.965 44.2941 512.965C43.8097 512.965 43.4933 513.262 43.4933 513.719C43.4933 514.117 43.7003 514.363 44.3331 514.758L44.9073 515.117C45.5011 515.488 45.9777 515.91 45.9777 516.656C45.9777 517.5 45.3566 518.078 44.3995 518.078ZM49.4539 518.078C48.5789 518.078 48.1531 517.566 48.1531 516.492V514.441H47.0086V513.898H48.1531V512.816L48.8172 512.613V513.898H50.5672V514.441H48.8172V516.438C48.8172 517.188 49.0867 517.496 49.6336 517.496C49.95 517.496 50.2898 517.434 50.532 517.281L50.4852 517.84C50.2547 517.984 49.8992 518.078 49.4539 518.078ZM54.5005 516.816V516.531L55.0591 516.641V516.887C55.0591 517.703 54.6294 518.07 54.0239 518.066C53.5044 518.066 53.2153 517.777 53.1684 517.285H53.102C52.9848 517.797 52.6997 518.066 52.2348 518.066C51.7739 518.066 51.5083 517.746 51.5083 517.215V517.047C51.5083 516.285 51.9223 515.961 52.4458 515.723L52.9731 515.48V514.777C52.9731 514.43 52.8481 514.262 52.5786 514.262C52.2661 514.262 52.1216 514.473 52.1216 515.121V515.438L51.5552 515.328V515.047C51.5552 514.191 51.8989 513.832 52.5591 513.832C52.9106 513.832 53.1723 513.977 53.3012 514.25C53.4692 513.98 53.7505 513.832 54.0942 513.832C54.7075 513.832 55.063 514.238 55.063 515.02C55.063 515.328 55.0552 515.734 55.0512 516.047H53.5552V516.789C53.5552 517.359 53.7075 517.633 54.02 517.633C54.3012 517.633 54.5005 517.414 54.5005 516.816ZM54.0395 514.266C53.7075 514.266 53.5552 514.504 53.5552 515.066V515.621H54.4809V514.98C54.4809 514.5 54.3286 514.266 54.0395 514.266ZM52.9731 516.773V515.945L52.6528 516.086C52.3364 516.23 52.0981 516.445 52.0981 516.934V517.125C52.0981 517.434 52.2153 517.609 52.4302 517.609C52.7466 517.609 52.9731 517.297 52.9731 516.773ZM59.1955 518H56.0705V517.449H57.0744V514.445H56.1095V513.898H57.7345C57.7384 514.176 57.6994 514.418 57.5627 515.059L57.6447 515.086C57.9923 514.18 58.4962 513.82 59.3283 513.785L59.4572 514.539C58.3009 514.566 57.7423 514.957 57.7423 516.156V517.449H59.1955V518ZM63.6483 513.137L63.1795 513.23C63.6248 513.941 63.828 514.738 63.828 515.707V515.98C63.828 517.34 63.2577 518.086 62.2069 518.086C61.203 518.086 60.6483 517.367 60.6483 516.062V515.859C60.6483 514.57 61.1287 513.855 61.9959 513.855C62.6561 513.855 62.9295 514.188 63.1092 514.609L63.1834 514.582C63.1014 514.273 62.9061 513.824 62.5584 513.355L61.6366 513.543L61.5467 513.078L62.2147 512.945C62.1209 512.844 62.0194 512.742 61.91 512.645L62.5545 512.445C62.6717 512.566 62.7811 512.688 62.8787 512.812L63.5623 512.676L63.6483 513.137ZM63.1131 516.137V515.816C63.1131 514.844 62.7928 514.312 62.1991 514.312C61.6483 514.312 61.3748 514.789 61.3748 515.773V516.137C61.3748 517.117 61.6483 517.586 62.2069 517.586C62.8202 517.586 63.1131 517.117 63.1131 516.137ZM71.2687 518.078C70.1867 518.078 69.6086 517.484 69.5695 516.246L70.2687 516.09C70.2727 517.109 70.593 517.57 71.2609 517.57C71.8078 517.57 72.0969 517.246 72.0969 516.582V516.332C72.0969 515.691 71.7727 515.41 71.2414 515.395L70.7375 515.379V514.918L71.2141 514.906C71.7258 514.895 72.0031 514.617 72.0031 514.059V513.848C72.0031 513.238 71.7297 512.957 71.2297 512.957C70.6203 512.957 70.3273 513.387 70.3273 514.324L69.6555 514.18C69.675 513.016 70.2219 512.453 71.2414 512.453C72.1672 512.453 72.6789 512.922 72.6789 513.812V513.988C72.6789 514.574 72.4055 514.969 71.8586 515.102V515.172C72.4953 515.301 72.8039 515.723 72.8039 516.398V516.598C72.8039 517.559 72.2492 518.078 71.2687 518.078ZM75.6669 518.082C74.6278 518.082 74.0497 517.57 74.0497 516.66V516.418C74.0497 515.758 74.3661 515.316 74.9325 515.18V515.102C74.4364 514.941 74.1747 514.559 74.1747 513.98V513.773C74.1747 512.922 74.7059 512.449 75.6669 512.449C76.6317 512.449 77.1591 512.922 77.1591 513.773V513.98C77.1591 514.559 76.8973 514.941 76.4012 515.102V515.18C76.9677 515.316 77.2841 515.758 77.2841 516.418V516.66C77.2841 517.57 76.7098 518.082 75.6669 518.082ZM75.6669 514.906C76.2177 514.906 76.4872 514.625 76.4872 514.051V513.812C76.4872 513.234 76.2177 512.949 75.6669 512.949C75.12 512.949 74.8505 513.234 74.8505 513.812V514.051C74.8505 514.625 75.12 514.906 75.6669 514.906ZM75.6669 517.578C76.2762 517.578 76.577 517.266 76.577 516.633V516.344C76.577 515.711 76.2762 515.398 75.6669 515.398C75.0575 515.398 74.7567 515.711 74.7567 516.344V516.633C74.7567 517.266 75.0575 517.578 75.6669 517.578Z" fill="black"/>
</g>
<path d="M39.1728 536H37.8193V533.655H33.7588V532.869L37.2929 526.43H39.1728V532.691H40.3623V533.655H39.1728V536ZM37.04 529.178L35.1396 532.691H37.8193V529.335C37.8193 528.754 37.8398 528.221 37.8671 527.742L37.7304 527.735C37.5595 528.159 37.3203 528.645 37.04 529.178ZM45.352 536.157C43.1029 536.157 41.9203 534.448 41.9203 531.229V531.201C41.9203 527.981 43.1029 526.272 45.352 526.272C47.5941 526.272 48.7768 527.981 48.7768 531.201V531.229C48.7768 534.448 47.5941 536.157 45.352 536.157ZM45.352 535.118C46.726 535.118 47.3891 533.936 47.3891 531.447V530.982C47.3891 528.487 46.726 527.305 45.352 527.305C43.9711 527.305 43.308 528.487 43.308 530.982V531.447C43.308 533.936 43.9711 535.118 45.352 535.118ZM50.1639 537.948L50.034 537.347C50.8202 537.203 51.1346 536.861 51.1346 536H50.2254V534.414H51.9344V535.74C51.9344 537.183 51.4217 537.784 50.1639 537.948ZM56.8079 536.157C54.5589 536.157 53.3763 534.448 53.3763 531.229V531.201C53.3763 527.981 54.5589 526.272 56.8079 526.272C59.0501 526.272 60.2327 527.981 60.2327 531.201V531.229C60.2327 534.448 59.0501 536.157 56.8079 536.157ZM56.8079 535.118C58.1819 535.118 58.845 533.936 58.845 531.447V530.982C58.845 528.487 58.1819 527.305 56.8079 527.305C55.427 527.305 54.7639 528.487 54.7639 530.982V531.447C54.7639 533.936 55.427 535.118 56.8079 535.118ZM65.4753 536.157C63.2263 536.157 62.0437 534.448 62.0437 531.229V531.201C62.0437 527.981 63.2263 526.272 65.4753 526.272C67.7175 526.272 68.9001 527.981 68.9001 531.201V531.229C68.9001 534.448 67.7175 536.157 65.4753 536.157ZM65.4753 535.118C66.8493 535.118 67.5124 533.936 67.5124 531.447V530.982C67.5124 528.487 66.8493 527.305 65.4753 527.305C64.0945 527.305 63.4314 528.487 63.4314 530.982V531.447C63.4314 533.936 64.0945 535.118 65.4753 535.118ZM74.1427 536.157C71.8937 536.157 70.7111 534.448 70.7111 531.229V531.201C70.7111 527.981 71.8937 526.272 74.1427 526.272C76.3849 526.272 77.5675 527.981 77.5675 531.201V531.229C77.5675 534.448 76.3849 536.157 74.1427 536.157ZM74.1427 535.118C75.5168 535.118 76.1798 533.936 76.1798 531.447V530.982C76.1798 528.487 75.5168 527.305 74.1427 527.305C72.7619 527.305 72.0988 528.487 72.0988 530.982V531.447C72.0988 533.936 72.7619 535.118 74.1427 535.118ZM78.9547 537.948L78.8248 537.347C79.6109 537.203 79.9254 536.861 79.9254 536H79.0162V534.414H80.7252V535.74C80.7252 537.183 80.2125 537.784 78.9547 537.948ZM86.0567 532.507H82.4405V531.44H86.0567V532.507Z" fill="black"/>
</svg>
