<svg width="320" height="264" viewBox="0 0 320 264" fill="none" xmlns="http://www.w3.org/2000/svg">
<g clip-path="url(#clip0_49_27014)">
<rect width="320" height="264" fill="white"/>
<path d="M158.396 97.3251C163.472 97.3252 166.183 99.9802 166.183 106.14V111.184L160.947 112.114V106.432C160.947 102.609 160.097 101.414 158.449 101.414C156.748 101.414 155.924 102.768 155.924 105.609V127.141C155.924 129.982 156.748 131.336 158.475 131.336C160.07 131.336 161 130.088 161 126.159V119.76L166.29 120.796V126.61C166.29 132.849 163.446 135.504 158.396 135.504C153.08 135.504 150.555 132.531 150.555 126.557V106.299C150.555 100.299 153.107 97.3251 158.396 97.3251Z" fill="black"/>
<path fill-rule="evenodd" clip-rule="evenodd" d="M261.641 97.3251C267.063 97.3252 269.721 100.299 269.721 106.326V126.53C269.721 132.531 267.063 135.504 261.641 135.504C256.272 135.504 253.614 132.531 253.614 126.53V106.326C253.614 100.299 256.272 97.3251 261.641 97.3251ZM261.667 101.494C259.86 101.494 258.983 102.874 258.983 105.768V127.168C258.983 129.982 259.86 131.336 261.667 131.336C263.475 131.336 264.325 129.982 264.325 127.168V105.768C264.325 102.874 263.475 101.494 261.667 101.494Z" fill="black"/>
<path fill-rule="evenodd" clip-rule="evenodd" d="M178.567 97.8296C183.51 97.8296 185.956 100.325 185.956 105.343V108.901C185.956 112.618 184.467 114.795 181.57 115.406V115.857C183.936 116.468 184.813 117.61 185.211 122.389L185.583 127.141C185.956 131.92 186.301 133.593 187.098 134.442L187.019 135H181.225C180.746 133.434 180.507 131.681 180.241 127.274L180.002 122.84C179.736 118.406 179.151 117.663 177.318 117.663H176.228V135H170.885V97.8296H178.567ZM176.228 113.547H178.009C179.816 113.547 180.613 112.618 180.613 110.361V105.264C180.613 102.927 179.816 102.025 178.009 102.025H176.228V113.547Z" fill="black"/>
<path d="M202.857 102.21H196.266V113.335H202.166V117.371H196.266V130.619H203.203V135H190.924V97.8296H202.857V102.21Z" fill="black"/>
<path fill-rule="evenodd" clip-rule="evenodd" d="M223.427 135H217.872L217.208 128.947H212.238L211.547 135H206.364L211.387 97.8296H218.271L223.427 135ZM214.444 105.317C214.258 109.883 214.018 112.698 213.726 115.645L212.689 125.15H216.729L215.719 115.645C215.427 112.698 215.188 109.883 215.002 105.317H214.444Z" fill="black"/>
<path d="M239.638 102.21H234.721V135H229.379V102.21H224.435V97.8296H239.638V102.21Z" fill="black"/>
<path d="M248.832 135H243.49V97.8296H248.832V135Z" fill="black"/>
<path d="M285.692 117.955C286.118 119.973 286.596 122.681 287.101 126.238L287.659 126.185C287.234 121.22 286.888 115.565 286.888 111.264L286.862 97.8296H292.124V135H285.453L280.961 115.008C280.509 112.91 280.111 110.653 279.5 106.326L278.941 106.379C279.287 110.733 279.686 117.769 279.686 122.203L279.712 135H274.476V97.8296H281.28L285.692 117.955Z" fill="black"/>
<path d="M73.1007 57.9994C73.1993 58.0007 73.665 58.3978 74.1351 58.8819C74.6045 59.3651 74.9889 59.8207 74.9904 59.8956C74.99 59.9699 74.8116 60.4341 74.5939 60.9268C74.3756 61.4204 73.666 62.8171 73.0167 64.0311C72.3673 65.2451 71.6236 66.6306 71.3635 67.1098C71.1033 67.5892 70.2656 69.1269 69.5019 70.5269C68.7382 71.9271 67.5436 74.1278 66.8478 75.4174C66.152 76.7071 65.2226 78.4257 64.7821 79.2364C64.3418 80.0469 63.837 80.9815 63.6605 81.3132C63.4836 81.6453 62.2136 84.0271 60.8378 86.6063C58.3369 91.2952 58.3365 91.296 58.4016 91.9657C58.4787 92.7591 58.0088 93.8196 59.1118 94.4057C60.2156 94.9894 64.1081 88.2412 65.168 87.7161C66.78 86.9175 67.2449 86.4227 68.6493 85.2283C69.2658 84.7041 70.3807 83.6906 71.1269 82.9763C71.8732 82.2618 73.1214 80.9561 73.9002 80.0749C74.6788 79.1937 75.5813 78.0722 75.9058 77.5829C76.2301 77.0938 76.5487 76.6927 76.6138 76.6908C77.1001 76.6791 78.3587 77.2086 78.7029 77.5993C78.7647 77.6705 78.688 78.0292 78.5158 78.4712C78.3546 78.8851 77.9345 79.633 77.5824 80.1328C77.2302 80.6328 76.5706 81.6748 76.1168 82.4485C75.663 83.2224 74.8245 84.7602 74.2537 85.8655C73.6826 86.9711 72.6392 89.1485 71.9344 90.704C71.2295 92.2595 70.408 94.1886 70.109 94.9914C69.81 95.794 69.4374 96.8735 69.2813 97.3894C69.1251 97.9052 68.9219 98.6133 68.8295 98.9633C68.7373 99.3132 68.7076 99.5998 68.763 99.6C68.8197 99.5979 69.1401 99.2006 69.4759 98.7153C69.8126 98.2287 70.4091 97.2486 70.8011 96.5377C71.1909 95.8303 71.5202 95.2361 71.5357 95.2123C71.549 95.1947 72.0278 95.3594 72.5999 95.5792C73.1715 95.7986 73.6597 96.0016 73.6865 96.0305C73.7105 96.0609 73.5967 96.49 73.4324 96.9858C73.2677 97.483 72.9388 98.253 72.7015 98.6967C72.464 99.1406 71.8882 100.083 71.422 100.792C70.9557 101.5 70.2738 102.398 69.9075 102.788C69.5412 103.178 69.0545 103.587 68.8247 103.697C68.4314 103.883 68.3436 103.871 67.3188 103.485C66.7122 103.257 66.1397 102.953 66.0239 102.797C65.8859 102.611 65.8175 102.29 65.8176 101.83C65.8176 101.451 65.8958 100.719 65.9909 100.203C66.0861 99.6868 66.3452 98.6921 66.5666 97.9921C67.0918 96.3319 67.6411 94.6856 68.2495 93.0617C68.5339 92.3033 69.1409 90.8039 69.5981 89.7296C70.0537 88.6593 70.4034 87.7557 70.3774 87.7161C70.3483 87.6831 69.6766 88.1492 68.8848 88.752C66.3396 90.6895 61.0075 98.9709 58.4016 97.9958C57.453 97.6404 56.6048 96.8666 56.4577 95.5792C54.4985 95.5983 50.4678 107.279 49.9401 109.05C49.5775 110.268 44.2968 125.885 43.9726 127.065C43.6489 128.244 43.2018 130.023 42.9791 131.017C42.7566 132.012 42.5092 133.309 42.429 133.899C42.3489 134.486 42.2728 134.98 42.2599 134.998C42.2458 135.013 41.7162 134.937 41.0825 134.829C40.4496 134.721 39.8886 134.663 39.8328 134.699C39.7799 134.736 39.3585 134.369 38.8972 133.884C38.1973 133.148 38.059 132.932 38.06 132.58C38.0607 132.347 38.1368 131.832 38.2295 131.436C38.3224 131.041 38.6231 130.106 38.8977 129.36C41.0562 123.497 42.4283 119.438 45.6343 111.448C46.8366 108.452 48.289 105.52 49.2703 102.417C49.48 101.754 50.1469 99.7643 50.7523 97.9958C51.3579 96.2272 52.0609 94.2069 52.3141 93.5067C52.5673 92.8064 53.2011 91.1182 53.7227 89.7551C54.2446 88.3918 55.1021 86.1939 55.6279 84.8709C56.1521 83.5521 56.5811 82.4535 56.5837 82.4251C56.5843 82.4032 56.6398 82.3853 56.7075 82.3853C56.7764 82.3856 57.307 82.5737 57.8871 82.8037C58.8788 83.197 58.9438 83.246 58.9438 83.6002C58.9439 83.8076 58.9927 84.0125 59.0528 84.0548C59.1144 84.0943 59.6371 83.2391 60.2148 82.1527C60.7934 81.0646 61.6556 79.4507 62.1306 78.5663C62.6058 77.6818 63.7365 75.6014 64.6439 73.9434C65.5511 72.2857 66.5013 70.5376 66.7553 70.058C67.009 69.579 67.533 68.6139 67.9194 67.9138C68.3059 67.2138 68.8383 66.2293 69.1027 65.726C69.3665 65.2241 69.5579 64.7845 69.5285 64.7479C69.498 64.7134 69.3998 64.7635 69.3106 64.8589C69.2211 64.9547 68.8301 65.3336 68.4414 65.7011C68.0526 66.0687 67.6757 66.431 67.6042 66.5056C67.5324 66.5804 66.9513 67.1538 66.313 67.78C65.6747 68.4064 64.645 69.4241 64.0246 70.0415C63.4042 70.6588 62.7102 71.3522 62.4831 71.583C62.2557 71.814 61.4861 72.5754 60.7725 73.2748C60.0588 73.9744 59.0199 74.9991 58.4638 75.5518C57.9078 76.1045 57.0048 76.9884 56.4577 77.5165C55.9105 78.0446 54.9234 78.9796 54.2644 79.5938C53.6055 80.208 52.5437 81.1684 51.9048 81.7279C51.2658 82.2875 50.3183 83.0795 49.7992 83.4877C49.2802 83.8958 48.5336 84.4122 48.1402 84.6362C47.7469 84.8601 47.2365 85.0836 47.0063 85.1327C46.6133 85.2164 46.5312 85.1641 45.6343 84.2608C44.9965 83.6183 44.6563 83.172 44.6057 82.912C44.5626 82.689 44.6146 82.1945 44.728 81.7507C44.8368 81.3256 45.1689 80.3752 45.4658 79.6384C45.7627 78.9015 46.349 77.5751 46.7687 76.6908C47.1883 75.8065 48.1951 73.7561 49.0056 72.1348C49.816 70.5136 50.6505 68.8551 50.8602 68.4496C51.0699 68.0443 51.4559 67.2902 51.7182 66.7737C51.9803 66.2571 52.3653 65.4829 52.573 65.0533C52.8696 64.4392 52.903 64.3017 52.7314 64.4102C52.6111 64.4864 52.2396 64.7781 51.9058 65.0586C51.5719 65.3394 49.9315 66.7444 48.2608 68.1814C46.59 69.6185 45.0844 70.9133 44.9151 71.0579C44.745 71.2033 43.3325 72.4331 41.7757 73.7915C40.2183 75.1503 38.5989 76.5727 38.1769 76.9526C37.755 77.3324 36.221 78.7255 34.7679 80.0478C33.3151 81.3702 31.9612 82.6003 31.7592 82.7814C31.5575 82.9624 30.9671 83.5438 30.4479 84.0739C29.5037 85.0377 29.5034 85.038 28.649 84.1477C27.794 83.2567 27.7936 83.2562 28.59 82.3184C29.0279 81.8027 29.5742 81.1945 29.8041 80.967C30.034 80.7396 30.5657 80.227 30.9853 79.828C31.4047 79.4289 32.0131 78.8609 32.3371 78.5663C32.6608 78.2718 33.032 77.9318 33.1621 77.8096C33.2918 77.6877 33.8231 77.2082 34.3422 76.7444C34.8613 76.2807 35.9236 75.3276 36.7023 74.6273C37.481 73.927 38.41 73.0966 38.767 72.7815C39.1239 72.4666 40.3715 71.3761 41.5396 70.3585C42.7075 69.3412 43.8024 68.39 43.9726 68.2446C44.1433 68.0987 45.6499 66.8047 47.3205 65.3681C48.9918 63.9311 51.0825 62.1488 51.967 61.4079C52.8512 60.6671 53.9395 59.7778 54.3851 59.4315C54.8307 59.0853 55.3108 58.8023 55.4519 58.8023C55.6035 58.803 56.0601 59.1673 56.5651 59.6906C57.3632 60.518 57.4161 60.6066 57.3417 60.9964C57.2977 61.2266 57.057 61.8788 56.8069 62.4455C56.5564 63.0127 55.3082 65.5449 54.0326 68.0731C52.7569 70.6015 51.1335 73.8464 50.4254 75.2836C49.7172 76.7207 48.8194 78.6418 48.4304 79.5524C48.0419 80.462 47.7393 81.2602 47.758 81.3275C47.7785 81.3924 48.219 81.1306 48.7377 80.7445C49.2572 80.3575 50.346 79.4528 51.1568 78.7346C51.9676 78.0165 52.9042 77.1721 53.2379 76.8586C53.5718 76.545 54.1295 76.0255 54.477 75.7042C54.8246 75.3829 55.3742 74.8612 55.6986 74.5445C56.0231 74.2277 56.7197 73.5493 57.246 73.0369C57.7723 72.5246 58.3079 71.991 58.4362 71.8517C58.5647 71.7123 59.1659 71.1162 59.7726 70.5269C60.3795 69.9373 60.961 69.3641 61.0648 69.2535C61.1685 69.143 61.4637 68.8486 61.7208 68.5993C61.9778 68.3498 62.5051 67.8372 62.8918 67.4603C63.2787 67.0832 64.1016 66.2626 64.7204 65.6363C65.3394 65.0101 66.1573 64.1958 66.5384 63.8272C66.9194 63.4587 67.4564 62.9456 67.7313 62.6876C68.0065 62.4294 68.9955 61.4905 69.9293 60.6013C70.8633 59.7122 71.9189 58.7631 72.2751 58.4916C72.6306 58.2208 73.0018 57.9991 73.1007 57.9994Z" fill="black"/>
<path d="M133.6 126.3H131.423V56.7H133.6V126.3Z" fill="black"/>
<path d="M87.3362 80.6983C88.4278 79.6213 88.428 79.6217 89.3418 80.0935C89.8446 80.3531 90.3296 80.6474 90.4188 80.7477C90.5556 80.9019 90.5276 81.0502 90.2354 81.7125C90.0454 82.1432 89.2075 83.7315 88.3738 85.2421C87.5402 86.7528 86.7666 88.1699 86.6547 88.391C86.5428 88.6122 86.2066 89.2411 85.9073 89.7886C85.608 90.336 85.3868 90.8106 85.4151 90.8432C85.4489 90.8689 86.1545 90.0938 86.9875 89.1153C88.5079 87.3289 88.5081 87.329 89.5592 87.8743C90.3788 88.2997 90.6185 88.4861 90.6495 88.7223C90.6865 89.0062 90.7272 89.02 91.2985 88.9321C91.6338 88.8806 92.537 88.7873 93.3052 88.725C94.5115 88.6272 94.7648 88.5642 95.1609 88.2667C95.4128 88.0774 95.667 87.9225 95.726 87.9221C95.7849 87.9224 96.128 88.0757 96.4883 88.263C97.0246 88.5418 97.1839 88.5753 97.3584 88.4441C97.476 88.3557 98.1097 87.6142 98.7666 86.7964C99.4237 85.9786 100.492 84.5833 101.142 83.6963C101.791 82.8102 102.409 82.0042 102.516 81.9037C102.68 81.7486 102.846 81.7935 103.679 82.2223C104.214 82.4969 104.725 82.8013 104.815 82.8988C104.953 83.0492 104.901 83.319 104.476 84.6617C104.2 85.5336 103.742 87.0009 103.459 87.9221C103.175 88.8426 102.943 89.6729 102.942 89.7679C102.941 89.8968 103.029 89.8868 103.303 89.7259C103.65 89.5222 103.703 89.5307 104.534 89.9234C105.107 90.1944 105.602 90.3339 105.99 90.3339C106.314 90.3337 107.419 90.1475 108.446 89.9197C109.474 89.6918 110.793 89.474 111.377 89.4355C112.429 89.3661 112.448 89.3702 113.499 89.9224C114.081 90.2287 114.679 90.608 114.826 90.7651C114.973 90.9222 115.093 91.1456 115.093 91.2616C115.092 91.3781 114.964 91.7824 114.809 92.16C114.655 92.5379 114.473 92.8862 114.405 92.9337C114.337 92.9806 113.882 92.7947 113.394 92.5206C112.506 92.0216 112.505 92.0216 111.647 92.1744C111.174 92.2585 110.203 92.4539 109.489 92.6087C108.775 92.7635 107.767 92.9005 107.247 92.9135C106.443 92.9335 106.2 92.8833 105.611 92.5737C105.232 92.3751 104.9 92.2121 104.87 92.21C104.843 92.21 104.288 92.7828 103.636 93.4828C102.986 94.1821 102.331 94.7898 102.181 94.8331C101.996 94.886 101.572 94.7173 100.847 94.3042C100.263 93.9713 99.7521 93.5999 99.7106 93.4791C99.6699 93.3586 99.6376 93.0689 99.6384 92.8355C99.6392 92.6021 99.791 91.7628 99.9759 90.9706C100.16 90.1808 100.29 89.5346 100.267 89.5305C100.235 89.5383 99.6604 90.1313 98.984 90.8554C98.3031 91.5844 97.5506 92.2864 97.3122 92.4149C96.879 92.6483 96.8782 92.6479 95.6914 91.9853C94.5042 91.3226 94.5039 91.3227 93.1473 91.4883C92.4012 91.5794 91.5249 91.6582 91.2002 91.663C90.8062 91.6689 90.4006 91.5603 89.9792 91.3375C89.6325 91.1544 89.2799 91.0044 89.1956 91.004C89.1097 91.0067 87.9643 92.3171 86.6483 93.9182C85.331 95.5211 83.6918 97.4834 83.0065 98.2783C82.3214 99.073 81.5585 99.8822 81.3113 100.077C80.862 100.431 80.8617 100.431 79.807 99.8437C78.9258 99.3531 78.7527 99.2049 78.7523 98.9421C78.7523 98.7688 78.9648 98.1579 79.2244 97.5853C79.4835 97.0138 79.6952 96.5033 79.6959 96.4506C79.6973 96.3967 79.9441 95.8598 80.245 95.2553C80.5468 94.649 81.0422 93.6704 81.3459 93.0808C81.6496 92.4912 82.2076 91.4059 82.586 90.669C82.9645 89.9322 83.4023 89.0975 83.5588 88.8142C83.715 88.5317 83.8163 88.2696 83.7842 88.2317C83.7503 88.1956 82.9899 88.8244 82.0938 89.6293C81.1968 90.4348 79.8459 91.6182 79.0915 92.2588C77.907 93.2647 77.6917 93.507 77.5148 94.0329C77.4022 94.3675 77.2381 94.6725 77.1502 94.711C77.0623 94.7493 76.4309 94.4775 75.7474 94.1067C75.0648 93.7364 74.5062 93.374 74.5046 93.3012C74.5046 93.229 74.605 92.9087 74.7278 92.5896C74.8506 92.2707 75.0496 91.9176 75.1701 91.8048C75.2905 91.6924 76.3983 90.7319 77.6313 89.6707C78.8642 88.6095 80.404 87.2577 81.053 86.6673C81.702 86.0769 83.1356 84.7351 84.2387 83.6852C85.3419 82.6352 86.7358 81.2908 87.3362 80.6983Z" fill="black"/>
<path fill-rule="evenodd" clip-rule="evenodd" d="M201.05 47.3001C206.472 47.3002 209.13 50.2738 209.13 56.3007V76.5055C209.13 82.5058 206.472 85.4794 201.05 85.4795C195.681 85.4795 193.023 82.5058 193.023 76.5055V56.3007C193.023 50.2738 195.681 47.3001 201.05 47.3001ZM201.077 51.4685C199.269 51.4685 198.392 52.8492 198.392 55.7431V77.1427C198.392 79.957 199.269 81.3111 201.077 81.3111C202.884 81.311 203.735 79.957 203.735 77.1427V55.7431C203.735 52.8492 202.884 51.4686 201.077 51.4685Z" fill="black"/>
<path fill-rule="evenodd" clip-rule="evenodd" d="M166.715 84.975H161.16L160.495 78.9215H155.525L154.834 84.975H149.651L154.675 47.8046H161.559L166.715 84.975ZM157.731 55.2918C157.545 59.8584 157.306 62.6728 157.014 65.6198L155.977 75.1248H160.017L159.007 65.6198C158.715 62.6728 158.475 59.8584 158.289 55.2918H157.731Z" fill="black"/>
<path d="M181.836 67.9297C182.261 69.9475 182.74 72.6557 183.245 76.2134L183.803 76.1603C183.377 71.1954 183.032 65.5402 183.032 61.239L183.005 47.8046H188.268V84.975H181.597L177.105 64.9826C176.653 62.8852 176.254 60.6284 175.643 56.3007L175.085 56.3538C175.43 60.708 175.829 67.7439 175.829 72.1778L175.856 84.975H170.62V47.8046H177.424L181.836 67.9297Z" fill="black"/>
<path d="M227.627 52.1854H222.71V84.975H217.367V52.1854H212.424V47.8046H227.627V52.1854Z" fill="black"/>
<path d="M236.821 63.1241H241.578V47.8046H246.921V84.975H241.578V67.3722H236.821V84.975H231.478V47.8046H236.821V63.1241Z" fill="black"/>
<path d="M263.876 52.1854H257.284V63.31H263.184V67.3456H257.284V80.5942H264.221V84.975H251.942V47.8046H263.876V52.1854Z" fill="black"/>
<path fill-rule="evenodd" clip-rule="evenodd" d="M276.206 47.8046C281.149 47.8046 283.595 50.3003 283.595 55.3183V58.8761C283.595 62.5931 282.106 64.7702 279.209 65.3809V65.8322C281.575 66.4429 282.452 67.5846 282.851 72.3636L283.223 77.1161C283.595 81.8952 283.94 83.5678 284.738 84.4174L284.658 84.975H278.864C278.385 83.4085 278.146 81.6562 277.88 77.2489L277.641 72.815C277.375 68.3811 276.791 67.6377 274.957 67.6377H273.867V84.975H268.525V47.8046H276.206ZM273.867 63.5224H275.648C277.455 63.5224 278.252 62.5931 278.252 60.3363V55.2387C278.252 52.9023 277.455 51.9996 275.648 51.9995H273.867V63.5224Z" fill="black"/>
<path d="M111.333 82.0162C111.488 81.9716 111.85 82.0395 112.144 82.1681C112.436 82.2961 112.906 82.5066 113.189 82.6359C113.681 82.861 113.7 82.8901 113.637 83.3337C113.6 83.5881 113.487 83.941 113.386 84.1174C113.262 84.331 113.088 84.4381 112.865 84.4382C112.68 84.4379 112.138 84.2544 111.659 84.0303C111.181 83.8064 110.747 83.5746 110.694 83.5153C110.642 83.4562 110.701 83.113 110.826 82.7527C110.986 82.2884 111.134 82.0736 111.333 82.0162Z" fill="black"/>
<path d="M94.8117 81.3567C94.9329 81.357 95.4875 81.6126 96.0444 81.9254C97.013 82.4699 97.0552 82.5119 96.9917 82.8749C96.955 83.0838 96.8148 83.4311 96.6802 83.6459C96.5455 83.8605 96.3274 84.0358 96.1959 84.0362C96.0642 84.0362 95.51 83.7599 94.9648 83.4223C94.4201 83.0851 93.9744 82.7503 93.9734 82.6784C93.9736 82.6068 94.0595 82.3559 94.1648 82.1203C94.2701 81.8847 94.4094 81.6164 94.4741 81.524C94.5389 81.432 94.6908 81.3568 94.8117 81.3567Z" fill="black"/>
<path d="M72.5718 48.0005C72.6385 48.0223 73.1328 48.2149 73.6716 48.4291C74.6297 48.8099 74.6518 48.8286 74.587 49.1985C74.5503 49.407 74.4373 49.7688 74.3355 50.0024C74.2177 50.2723 73.4981 50.99 72.3639 51.9682C71.3813 52.8157 69.9637 54.0858 69.2144 54.7905C68.465 55.4952 67.6039 56.3857 67.3012 56.769C66.7513 57.4653 66.7506 57.465 65.7278 57.0446C64.7048 56.6242 64.7046 56.6239 64.7837 56.1387C64.8274 55.8717 65.0004 55.3661 65.168 55.0151C65.3594 54.6141 65.8655 53.991 66.5299 53.3398C67.1118 52.7697 68.6828 51.3264 70.0207 50.1325C71.3584 48.9388 72.5066 47.9797 72.5718 48.0005Z" fill="black"/>
<path d="M128 155H192" stroke="black" stroke-opacity="0.8" stroke-width="0.2"/>
<path d="M140.424 166H140.12V163.266H140.536L140.838 164.398C140.883 164.57 140.915 164.701 140.95 164.857H140.989C141.024 164.701 141.057 164.57 141.102 164.396L141.401 163.266H141.827V166H141.506L141.512 165.012C141.514 164.635 141.522 164.277 141.549 163.811L141.51 163.805L141.073 165.385H140.858L140.428 163.803L140.389 163.807C140.411 164.268 140.42 164.629 140.422 165.012L140.424 166ZM143.121 166H142.785L143.453 163.266H143.918L144.598 166H144.24L144.088 165.408H143.271L143.121 166ZM143.517 164.348L143.328 165.154H144.033L143.846 164.348C143.789 164.098 143.746 163.893 143.697 163.6H143.656C143.613 163.893 143.574 164.098 143.517 164.348ZM146.308 166H145.634V163.266H146.308C146.946 163.266 147.253 163.645 147.253 164.428V164.842C147.253 165.623 146.946 166 146.308 166ZM145.98 163.537V165.729H146.296C146.72 165.729 146.9 165.479 146.9 164.902V164.369C146.9 163.785 146.72 163.537 146.296 163.537H145.98ZM149.885 166H148.391V163.266H149.852V163.555H148.737V164.418H149.698V164.689H148.737V165.711H149.885V166ZM155.363 166H153.765V165.725H154.392V163.539H153.765V163.266H155.363V163.539H154.738V165.725H155.363V166ZM156.819 166H156.501V163.266H156.909L157.594 165.016C157.663 165.189 157.702 165.332 157.747 165.531L157.788 165.529C157.762 165.273 157.747 165.018 157.747 164.787L157.745 163.266H158.063V166H157.665L156.989 164.273C156.919 164.092 156.872 163.943 156.819 163.725L156.78 163.729C156.803 163.979 156.817 164.25 156.817 164.477L156.819 166ZM163.517 166H161.919V165.725H162.546V163.539H161.919V163.266H163.517V163.539H162.892V165.725H163.517V166ZM165.442 166.041C164.88 166.041 164.593 165.645 164.593 164.893V164.373C164.593 163.623 164.882 163.227 165.438 163.227C165.928 163.227 166.227 163.533 166.243 164.223L165.907 164.305C165.901 163.697 165.743 163.494 165.444 163.494C165.106 163.494 164.944 163.758 164.944 164.328V164.936C164.944 165.504 165.108 165.77 165.45 165.77C165.749 165.77 165.919 165.564 165.926 164.941L166.268 165.031C166.249 165.736 165.932 166.041 165.442 166.041ZM168.912 166H167.418V163.266H168.879V163.555H167.764V164.418H168.725V164.689H167.764V165.711H168.912V166ZM171.646 166H170.167V163.266H170.513V165.709H171.646V166ZM173.02 166H172.684L173.352 163.266H173.817L174.497 166H174.139L173.987 165.408H173.171L173.02 166ZM173.417 164.348L173.227 165.154H173.932L173.745 164.348C173.688 164.098 173.645 163.893 173.596 163.6H173.555C173.513 163.893 173.473 164.098 173.417 164.348ZM175.846 166H175.528V163.266H175.936L176.621 165.016C176.69 165.189 176.729 165.332 176.774 165.531L176.815 165.529C176.789 165.273 176.774 165.018 176.774 164.787L176.772 163.266H177.09V166H176.692L176.016 164.273C175.945 164.092 175.899 163.943 175.846 163.725L175.807 163.729C175.83 163.979 175.844 164.25 175.844 164.477L175.846 166ZM178.925 166H178.251V163.266H178.925C179.564 163.266 179.871 163.645 179.871 164.428V164.842C179.871 165.623 179.564 166 178.925 166ZM178.597 163.537V165.729H178.914C179.337 165.729 179.517 165.479 179.517 164.902V164.369C179.517 163.785 179.337 163.537 178.914 163.537H178.597Z" fill="black" fill-opacity="0.8"/>
<path d="M87.9243 251H87.6196V248.266H88.0356L88.3384 249.398C88.3833 249.57 88.4145 249.701 88.4497 249.857H88.4888C88.5239 249.701 88.5571 249.57 88.602 249.396L88.9009 248.266H89.3266V251H89.0063L89.0122 250.012C89.0141 249.635 89.022 249.277 89.0493 248.811L89.0102 248.805L88.5727 250.385H88.3579L87.9282 248.803L87.8891 248.807C87.9106 249.268 87.9204 249.629 87.9223 250.012L87.9243 251ZM90.6209 251H90.285L90.953 248.266H91.4178L92.0975 251H91.7401L91.5877 250.408H90.7713L90.6209 251ZM91.0174 249.348L90.828 250.154H91.533L91.3455 249.348C91.2889 249.098 91.2459 248.893 91.1971 248.6H91.1561C91.1131 248.893 91.0741 249.098 91.0174 249.348ZM93.8078 251H93.134V248.266H93.8078C94.4465 248.266 94.7531 248.645 94.7531 249.428V249.842C94.7531 250.623 94.4465 251 93.8078 251ZM93.4797 248.537V250.729H93.7961C94.2199 250.729 94.3996 250.479 94.3996 249.902V249.369C94.3996 248.785 94.2199 248.537 93.7961 248.537H93.4797ZM97.3853 251H95.8912V248.266H97.3521V248.555H96.2369V249.418H97.1978V249.689H96.2369V250.711H97.3853V251ZM102.863 251H101.265V250.725H101.892V248.539H101.265V248.266H102.863V248.539H102.238V250.725H102.863V251ZM104.319 251H104.001V248.266H104.409L105.094 250.016C105.163 250.189 105.202 250.332 105.247 250.531L105.288 250.529C105.262 250.273 105.247 250.018 105.247 249.787L105.245 248.266H105.563V251H105.165L104.489 249.273C104.419 249.092 104.372 248.943 104.319 248.725L104.28 248.729C104.303 248.979 104.317 249.25 104.317 249.477L104.319 251ZM111.017 251H109.419V250.725H110.046V248.539H109.419V248.266H111.017V248.539H110.392V250.725H111.017V251ZM112.942 251.041C112.38 251.041 112.093 250.645 112.093 249.893V249.373C112.093 248.623 112.382 248.227 112.938 248.227C113.428 248.227 113.727 248.533 113.743 249.223L113.407 249.305C113.401 248.697 113.243 248.494 112.944 248.494C112.606 248.494 112.444 248.758 112.444 249.328V249.936C112.444 250.504 112.608 250.77 112.95 250.77C113.249 250.77 113.419 250.564 113.426 249.941L113.768 250.031C113.749 250.736 113.432 251.041 112.942 251.041ZM116.412 251H114.918V248.266H116.379V248.555H115.264V249.418H116.225V249.689H115.264V250.711H116.412V251ZM119.146 251H117.667V248.266H118.013V250.709H119.146V251ZM120.52 251H120.184L120.852 248.266H121.317L121.997 251H121.639L121.487 250.408H120.671L120.52 251ZM120.917 249.348L120.727 250.154H121.432L121.245 249.348C121.188 249.098 121.145 248.893 121.096 248.6H121.055C121.013 248.893 120.973 249.098 120.917 249.348ZM123.346 251H123.028V248.266H123.436L124.121 250.016C124.19 250.189 124.229 250.332 124.274 250.531L124.315 250.529C124.289 250.273 124.274 250.018 124.274 249.787L124.272 248.266H124.59V251H124.192L123.516 249.273C123.445 249.092 123.399 248.943 123.346 248.725L123.307 248.729C123.33 248.979 123.344 249.25 123.344 249.477L123.346 251ZM126.425 251H125.751V248.266H126.425C127.064 248.266 127.371 248.645 127.371 249.428V249.842C127.371 250.623 127.064 251 126.425 251ZM126.097 248.537V250.729H126.414C126.837 250.729 127.017 250.479 127.017 249.902V249.369C127.017 248.785 126.837 248.537 126.414 248.537H126.097Z" fill="black" fill-opacity="0.48"/>
<path d="M142.264 250.049H141.736V249.572H142.264V250.049Z" fill="black" fill-opacity="0.48"/>
<path d="M157.755 251H156.066V250.74H156.784V249.012H156.066V248.789C156.757 248.771 156.821 248.748 156.857 248.266H157.132V250.74H157.755V251ZM159.628 251.039C159.075 251.039 158.784 250.662 158.784 249.945V249.32C158.784 248.604 159.075 248.227 159.628 248.227C160.18 248.227 160.471 248.604 160.471 249.32V249.945C160.471 250.662 160.18 251.039 159.628 251.039ZM159.628 250.77C159.961 250.77 160.124 250.518 160.124 249.992V249.281C160.124 248.75 159.961 248.494 159.628 248.494C159.294 248.494 159.131 248.75 159.131 249.281V249.992C159.131 250.518 159.294 250.77 159.628 250.77ZM159.784 249.85H159.471V249.416H159.784V249.85ZM162.346 251.039C161.793 251.039 161.502 250.662 161.502 249.945V249.32C161.502 248.604 161.793 248.227 162.346 248.227C162.898 248.227 163.189 248.604 163.189 249.32V249.945C163.189 250.662 162.898 251.039 162.346 251.039ZM162.346 250.77C162.68 250.77 162.842 250.518 162.842 249.992V249.281C162.842 248.75 162.68 248.494 162.346 248.494C162.012 248.494 161.85 248.75 161.85 249.281V249.992C161.85 250.518 162.012 250.77 162.346 250.77ZM162.502 249.85H162.189V249.416H162.502V249.85ZM164.683 249.344C164.343 249.344 164.146 249.139 164.146 248.783C164.146 248.426 164.343 248.221 164.683 248.221C165.025 248.221 165.222 248.426 165.222 248.783C165.222 249.139 165.025 249.344 164.683 249.344ZM164.685 249.135C164.851 249.135 164.949 249.014 164.949 248.805V248.762C164.949 248.551 164.851 248.43 164.685 248.43C164.517 248.43 164.421 248.551 164.421 248.762V248.805C164.421 249.014 164.517 249.135 164.685 249.135ZM165.972 249.148L164.154 250.438L164.152 250.117L165.97 248.828L165.972 249.148ZM165.447 251.045C165.107 251.045 164.909 250.84 164.909 250.482C164.909 250.127 165.107 249.922 165.447 249.922C165.788 249.922 165.986 250.127 165.986 250.482C165.986 250.84 165.788 251.045 165.447 251.045ZM165.447 250.836C165.615 250.836 165.712 250.713 165.712 250.506V250.461C165.712 250.252 165.615 250.129 165.447 250.129C165.281 250.129 165.183 250.252 165.183 250.461V250.506C165.183 250.713 165.281 250.836 165.447 250.836ZM170.506 251.041C169.943 251.041 169.656 250.645 169.656 249.893V249.373C169.656 248.623 169.945 248.227 170.502 248.227C170.992 248.227 171.291 248.533 171.307 249.223L170.971 249.305C170.965 248.697 170.807 248.494 170.508 248.494C170.17 248.494 170.008 248.758 170.008 249.328V249.936C170.008 250.504 170.172 250.77 170.514 250.77C170.812 250.77 170.982 250.564 170.99 249.941L171.332 250.031C171.312 250.736 170.996 251.041 170.506 251.041ZM173.218 251.039C172.665 251.039 172.374 250.662 172.374 249.945V249.32C172.374 248.604 172.665 248.227 173.218 248.227C173.771 248.227 174.062 248.604 174.062 249.32V249.945C174.062 250.662 173.771 251.039 173.218 251.039ZM173.218 250.77C173.552 250.77 173.714 250.518 173.714 249.992V249.281C173.714 248.75 173.552 248.494 173.218 248.494C172.884 248.494 172.722 248.75 172.722 249.281V249.992C172.722 250.518 172.884 250.77 173.218 250.77ZM176.11 251H175.762V248.551H175.026V248.266H176.846V248.551H176.11V251ZM178.828 251H178.481V248.551H177.744V248.266H179.565V248.551H178.828V251ZM181.373 251.039C180.82 251.039 180.529 250.662 180.529 249.945V249.32C180.529 248.604 180.82 248.227 181.373 248.227C181.925 248.227 182.216 248.604 182.216 249.32V249.945C182.216 250.662 181.925 251.039 181.373 251.039ZM181.373 250.77C181.706 250.77 181.869 250.518 181.869 249.992V249.281C181.869 248.75 181.706 248.494 181.373 248.494C181.039 248.494 180.876 248.75 180.876 249.281V249.992C180.876 250.518 181.039 250.77 181.373 250.77ZM183.628 251H183.309V248.266H183.718L184.403 250.016C184.471 250.189 184.511 250.332 184.555 250.531L184.596 250.529C184.571 250.273 184.555 250.018 184.555 249.787L184.554 248.266H184.872V251H184.473L183.798 249.273C183.727 249.092 183.68 248.943 183.628 248.725L183.589 248.729C183.612 248.979 183.626 249.25 183.626 249.477L183.628 251Z" fill="black" fill-opacity="0.48"/>
<path d="M199.264 250.049H198.736V249.572H199.264V250.049Z" fill="black" fill-opacity="0.48"/>
<path d="M213.547 251H213.199V248.266H213.969C214.487 248.266 214.766 248.504 214.766 248.941V248.996C214.766 249.334 214.569 249.547 214.211 249.586V249.625C214.414 249.682 214.5 249.779 214.584 250.107L214.668 250.436C214.752 250.764 214.821 250.889 214.92 250.957L214.916 251H214.498C214.43 250.887 214.387 250.748 214.315 250.434L214.242 250.123C214.168 249.809 214.086 249.721 213.838 249.721H213.547V251ZM213.547 248.539V249.455H213.928C214.258 249.455 214.414 249.318 214.414 249.033V248.961C214.414 248.672 214.258 248.539 213.928 248.539H213.547ZM217.463 251H215.968V248.266H217.429V248.555H216.314V249.418H217.275V249.689H216.314V250.711H217.463V251ZM219.423 251.041C218.895 251.041 218.63 250.795 218.63 250.295V248.266H218.976V250.271C218.976 250.609 219.124 250.771 219.423 250.771C219.724 250.771 219.87 250.609 219.87 250.271V248.266H220.216V250.295C220.216 250.795 219.952 251.041 219.423 251.041ZM222.174 251.039C221.649 251.039 221.338 250.762 221.319 250.104L221.653 250.021C221.659 250.59 221.83 250.781 222.182 250.781C222.453 250.781 222.627 250.617 222.627 250.371C222.627 250.154 222.498 250.01 222.2 249.822L221.91 249.637C221.596 249.438 221.399 249.246 221.401 248.896C221.401 248.494 221.684 248.227 222.123 248.227C222.61 248.227 222.885 248.502 222.897 249.082L222.578 249.158C222.575 248.67 222.424 248.482 222.121 248.482C221.879 248.482 221.721 248.631 221.721 248.859C221.721 249.059 221.825 249.182 222.141 249.379L222.428 249.559C222.725 249.744 222.963 249.955 222.963 250.328C222.963 250.75 222.653 251.039 222.174 251.039ZM224.289 251H223.953L224.621 248.266H225.086L225.765 251H225.408L225.256 250.408H224.439L224.289 251ZM224.685 249.348L224.496 250.154H225.201L225.013 249.348C224.957 249.098 224.914 248.893 224.865 248.6H224.824C224.781 248.893 224.742 249.098 224.685 249.348ZM227.669 251H226.814V248.266H227.648C228.106 248.266 228.347 248.482 228.347 248.895V248.971C228.347 249.279 228.194 249.469 227.919 249.521V249.559C228.251 249.609 228.429 249.822 228.429 250.188V250.279C228.429 250.752 228.167 251 227.669 251ZM227.159 248.537V249.424H227.591C227.87 249.424 228.003 249.295 228.003 249.018V248.926C228.003 248.66 227.872 248.537 227.593 248.537H227.159ZM227.159 249.672V250.727H227.606C227.919 250.727 228.067 250.576 228.067 250.254V250.146C228.067 249.824 227.917 249.672 227.606 249.672H227.159ZM231.069 251H229.59V248.266H229.936V250.709H231.069V251ZM233.771 251H232.277V248.266H233.738V248.555H232.623V249.418H233.584V249.689H232.623V250.711H233.771V251Z" fill="black" fill-opacity="0.48"/>
</g>
<defs>
<clipPath id="clip0_49_27014">
<rect width="320" height="264" fill="white"/>
</clipPath>
</defs>
</svg>
