<svg width="1105" height="449" viewBox="0 0 1105 449" fill="none" xmlns="http://www.w3.org/2000/svg">
<path d="M64.75 392.75V408.75L320.75 408.75V392.75" stroke="#FFB708" stroke-width="2" stroke-linecap="round" stroke-linejoin="round"/>
<path d="M192.75 408.75V428.75" stroke="#FFB708" stroke-width="2" stroke-linecap="round" stroke-linejoin="round"/>
<path d="M188.862 448.75V446.43H183.694V443.534L188.014 437.07H190.238L185.614 444.062V444.67H188.862V442.03H190.878V448.75H188.862ZM192.792 448.75L196.024 442.766L192.984 437.07H195.224L196.696 439.998C196.802 440.211 196.898 440.419 196.984 440.622C197.069 440.814 197.133 440.963 197.176 441.07C197.208 440.963 197.266 440.814 197.352 440.622C197.437 440.419 197.533 440.211 197.64 439.998L199.128 437.07H201.304L198.264 442.718L201.496 448.75H199.256L197.608 445.518C197.501 445.305 197.4 445.097 197.304 444.894C197.218 444.691 197.154 444.531 197.112 444.414C197.069 444.531 197.005 444.691 196.92 444.894C196.834 445.097 196.738 445.305 196.632 445.518L194.968 448.75H192.792Z" fill="white"/>
<path d="M368.75 392.75V408.75L976.75 408.75V392.75" stroke="#FFB708" stroke-width="2" stroke-linecap="round" stroke-linejoin="round"/>
<path d="M672.75 408.75V428.75" stroke="#FFB708" stroke-width="2" stroke-linecap="round" stroke-linejoin="round"/>
<path d="M667.55 448.91C666.771 448.91 666.083 448.766 665.486 448.478C664.899 448.179 664.435 447.769 664.094 447.246C663.763 446.723 663.598 446.126 663.598 445.454C663.598 444.974 663.694 444.537 663.886 444.142C664.078 443.737 664.339 443.395 664.67 443.118C665.001 442.841 665.385 442.659 665.822 442.574V442.542C665.257 442.425 664.798 442.137 664.446 441.678C664.105 441.219 663.934 440.675 663.934 440.046C663.934 439.427 664.083 438.883 664.382 438.414C664.691 437.945 665.118 437.577 665.662 437.31C666.217 437.043 666.846 436.91 667.55 436.91C668.275 436.91 668.91 437.043 669.454 437.31C669.998 437.577 670.419 437.945 670.718 438.414C671.027 438.883 671.182 439.427 671.182 440.046C671.182 440.675 671.006 441.219 670.654 441.678C670.302 442.137 669.843 442.425 669.278 442.542V442.574C669.715 442.659 670.099 442.841 670.43 443.118C670.761 443.395 671.022 443.737 671.214 444.142C671.406 444.537 671.502 444.974 671.502 445.454C671.502 446.126 671.337 446.723 671.006 447.246C670.675 447.769 670.211 448.179 669.614 448.478C669.027 448.766 668.339 448.91 667.55 448.91ZM667.55 447.214C668.147 447.214 668.627 447.043 668.99 446.702C669.363 446.361 669.55 445.913 669.55 445.358C669.55 444.793 669.363 444.339 668.99 443.998C668.627 443.646 668.147 443.47 667.55 443.47C666.963 443.47 666.483 443.646 666.11 443.998C665.737 444.339 665.55 444.793 665.55 445.358C665.55 445.902 665.737 446.35 666.11 446.702C666.483 447.043 666.963 447.214 667.55 447.214ZM667.55 441.854C668.051 441.854 668.457 441.705 668.766 441.406C669.075 441.097 669.23 440.697 669.23 440.206C669.23 439.726 669.075 439.337 668.766 439.038C668.457 438.729 668.051 438.574 667.55 438.574C667.059 438.574 666.654 438.729 666.334 439.038C666.025 439.337 665.87 439.726 665.87 440.206C665.87 440.697 666.025 441.097 666.334 441.406C666.654 441.705 667.059 441.854 667.55 441.854ZM672.792 448.75L676.024 442.766L672.984 437.07H675.224L676.696 439.998C676.802 440.211 676.898 440.419 676.984 440.622C677.069 440.814 677.133 440.963 677.176 441.07C677.208 440.963 677.266 440.814 677.352 440.622C677.437 440.419 677.533 440.211 677.64 439.998L679.128 437.07H681.304L678.264 442.718L681.496 448.75H679.256L677.608 445.518C677.501 445.305 677.4 445.097 677.304 444.894C677.218 444.691 677.154 444.531 677.112 444.414C677.069 444.531 677.005 444.691 676.92 444.894C676.834 445.097 676.738 445.305 676.632 445.518L674.968 448.75H672.792Z" fill="white"/>
<path d="M1048.75 320.75H1062.75L1062.75 64.75H1048.75" stroke="#FFB708" stroke-width="2" stroke-linecap="round" stroke-linejoin="round"/>
<path d="M1062.75 192.75H1076.75" stroke="#FFB708" stroke-width="2" stroke-linecap="round" stroke-linejoin="round"/>
<path d="M1090.86 198.75V196.43H1085.69V193.534L1090.01 187.07H1092.24L1087.61 194.062V194.67H1090.86V192.03H1092.88V198.75H1090.86ZM1094.79 198.75L1098.02 192.766L1094.98 187.07H1097.22L1098.7 189.998C1098.8 190.211 1098.9 190.419 1098.98 190.622C1099.07 190.814 1099.13 190.963 1099.18 191.07C1099.21 190.963 1099.27 190.814 1099.35 190.622C1099.44 190.419 1099.53 190.211 1099.64 189.998L1101.13 187.07H1103.3L1100.26 192.718L1103.5 198.75H1101.26L1099.61 195.518C1099.5 195.305 1099.4 195.097 1099.3 194.894C1099.22 194.691 1099.15 194.531 1099.11 194.414C1099.07 194.531 1099.01 194.691 1098.92 194.894C1098.83 195.097 1098.74 195.305 1098.63 195.518L1096.97 198.75H1094.79Z" fill="white"/>
<g opacity="0.2">
<g clip-path="url(#clip0_128_19222)">
<rect opacity="0.1" x="0.75" y="0.75" width="64" height="64" fill="white"/>
</g>
<rect x="0.75" y="0.75" width="64" height="64" stroke="white" stroke-width="1.5" stroke-linecap="square" stroke-dasharray="8 8"/>
<path d="M0.75 64.75V320.75" stroke="white" stroke-width="1.5" stroke-linecap="square" stroke-dasharray="8 8"/>
<path d="M64.75 64.75V320.75" stroke="white" stroke-width="1.5" stroke-linecap="square" stroke-dasharray="8 8"/>
<g clip-path="url(#clip1_128_19222)">
<rect opacity="0.1" x="0.75" y="320.75" width="64" height="64" fill="white"/>
</g>
<rect x="0.75" y="320.75" width="64" height="64" stroke="white" stroke-width="1.5" stroke-linecap="square" stroke-dasharray="8 8"/>
<path d="M320.75 0.750028L64.75 0.75" stroke="white" stroke-width="1.5" stroke-dasharray="8 8"/>
<path d="M320.75 64.75L64.75 64.75" stroke="white" stroke-width="1.5" stroke-dasharray="8 8"/>
<path d="M64.75 64.75V320.75" stroke="white" stroke-width="1.5" stroke-linecap="square" stroke-dasharray="8 8"/>
<path d="M320.75 64.75V320.75" stroke="white" stroke-width="1.5" stroke-linecap="square" stroke-dasharray="8 8"/>
<path d="M320.75 320.75L64.75 320.75" stroke="white" stroke-width="1.5" stroke-dasharray="8 8"/>
<path d="M320.75 384.75L64.75 384.75" stroke="white" stroke-width="1.5" stroke-dasharray="8 8"/>
<g clip-path="url(#clip2_128_19222)">
<rect opacity="0.1" x="320.75" y="0.75" width="64" height="64" fill="white"/>
</g>
<rect x="320.75" y="0.75" width="48" height="64" stroke="white" stroke-width="1.5" stroke-linecap="square" stroke-dasharray="8 8"/>
<path d="M320.75 64.75V320.75" stroke="white" stroke-width="1.5" stroke-linecap="square" stroke-dasharray="8 8"/>
<path d="M368.75 64.75V320.75" stroke="white" stroke-width="1.5" stroke-linecap="square" stroke-dasharray="8 8"/>
<g clip-path="url(#clip3_128_19222)">
<rect opacity="0.1" x="320.75" y="320.75" width="64" height="64" fill="white"/>
</g>
<rect x="320.75" y="320.75" width="48" height="64" stroke="white" stroke-width="1.5" stroke-linecap="square" stroke-dasharray="8 8"/>
<path d="M976.75 0.750028L368.75 0.75" stroke="white" stroke-width="1.5" stroke-dasharray="8 8"/>
<path d="M976.75 64.75L368.75 64.75" stroke="white" stroke-width="1.5" stroke-dasharray="8 8"/>
<path d="M368.75 64.75V320.75" stroke="white" stroke-width="1.5" stroke-linecap="square" stroke-dasharray="8 8"/>
<path d="M976.75 64.75V320.75" stroke="white" stroke-width="1.5" stroke-linecap="square" stroke-dasharray="8 8"/>
<path d="M976.75 320.75L368.75 320.75" stroke="white" stroke-width="1.5" stroke-dasharray="8 8"/>
<path d="M976.75 384.75L368.75 384.75" stroke="white" stroke-width="1.5" stroke-dasharray="8 8"/>
<g clip-path="url(#clip4_128_19222)">
<rect opacity="0.1" x="976.75" y="0.75" width="64" height="64" fill="white"/>
</g>
<rect x="976.75" y="0.75" width="64" height="64" stroke="white" stroke-width="1.5" stroke-linecap="square" stroke-dasharray="8 8"/>
<path d="M976.75 64.75V320.75" stroke="white" stroke-width="1.5" stroke-linecap="square" stroke-dasharray="8 8"/>
<path d="M1040.75 64.75V320.75" stroke="white" stroke-width="1.5" stroke-linecap="square" stroke-dasharray="8 8"/>
<g clip-path="url(#clip5_128_19222)">
<rect opacity="0.1" x="976.75" y="320.75" width="64" height="64" fill="white"/>
</g>
<rect x="976.75" y="320.75" width="64" height="64" stroke="white" stroke-width="1.5" stroke-linecap="square" stroke-dasharray="8 8"/>
<path d="M0.75 192.75H1040.75" stroke="white" stroke-width="1.5" stroke-linecap="square" stroke-dasharray="8 8"/>
<path d="M0.75 280.75H1040.75" stroke="white" stroke-width="1.5" stroke-linecap="square" stroke-dasharray="8 8"/>
<path d="M0.75 104.75H1040.75" stroke="white" stroke-width="1.5" stroke-linecap="square" stroke-dasharray="8 8"/>
</g>
<path d="M116.647 117.772L98.4204 117.75L158.912 170.252C167.637 177.825 180.488 177.807 189.193 170.209L249.087 117.937L231.351 117.915L189.199 81.1269C180.494 73.5294 167.643 73.5115 158.918 81.0847L116.647 117.772Z" fill="white"/>
<path d="M111.922 148.008L165.139 194.327C175.976 203.76 175.999 220.795 165.187 230.258L111.711 277.062L111.732 264.294L72.8444 230.258C62.0323 220.795 62.0553 203.76 72.8928 194.327L111.902 160.374L111.922 148.008Z" fill="white"/>
<path d="M137.384 267.563L197.278 215.29C205.983 207.693 218.833 207.675 227.559 215.248L271.797 253.644C271.948 253.765 272.094 253.892 272.235 254.024L288.05 267.75L269.837 267.728L227.567 304.415C218.841 311.989 205.991 311.971 197.285 304.373L155.133 267.585L137.384 267.563Z" fill="white"/>
<path d="M274.537 237.491L221.321 191.172C210.483 181.739 210.46 164.704 221.272 155.241L274.748 108.437L274.726 122.044L312.656 155.241C323.468 164.704 323.445 181.739 312.607 191.172L274.558 224.289L274.537 237.491Z" fill="white"/>
<path d="M430.25 280.25H393.375L369.625 105.25H400.25L408.25 188.625C409.5 202.5 410.25 215.375 411 238.25H413.75C414.5 215.375 415.25 202.5 416.5 188.625L424.375 105.25H453L430.25 280.25ZM501.995 282.875C475.12 282.875 462.12 268.75 462.12 239.875V145.75C462.12 116.75 475.12 102.625 501.995 102.625C528.87 102.625 541.87 116.75 541.87 145.75V239.875C541.87 268.75 528.87 282.875 501.995 282.875ZM501.995 260.25C509.12 260.25 512.62 254.875 512.62 244V142.25C512.62 130.75 509.12 125.25 501.995 125.25C494.87 125.25 491.37 130.75 491.37 142.25V244C491.37 254.875 494.87 260.25 501.995 260.25ZM604.615 280.25H575.49V221.75L548.865 105.25H578.49L585.74 150.25C587.24 159.375 588.365 172.25 589.24 184.875H591.865C592.74 172.25 593.74 159.5 595.24 150.25L601.865 105.25H631.24L604.615 221.75V280.25ZM657.86 280.25H629.735L652.735 105.25H690.86L714.61 280.25H684.235L681.86 255H660.36L657.86 280.25ZM666.86 192.75L662.735 234.75H679.485L675.36 192.75C674.11 179.625 673.11 166.375 672.485 144.5H669.735C669.11 166.375 668.11 179.625 666.86 192.75ZM752.855 281.75C733.23 281.75 723.73 268.125 723.73 240.125V145.5C723.73 116.75 736.355 102.625 763.105 102.625C788.48 102.625 801.73 114.625 801.73 141.875V163.25L773.23 167.75V142.875C773.23 128.875 769.73 124.75 763.48 124.75C756.355 124.75 752.98 130.25 752.98 141.875V242.375C752.98 254 756.105 259.625 762.605 259.625C769.605 259.625 774.73 251.625 775.605 207.875H762.23V185.875H802.23V280.25H779.105C778.855 274.125 779.855 266.875 783.105 254.75L780.48 254C774.605 273.25 767.105 281.75 752.855 281.75ZM879.725 280.25H818.1V105.25H878.1V129H847.225V177.625H874.975V199.25H847.225V256.5H879.725V280.25ZM922.845 280.25H893.72V105.25H933.72C957.595 105.25 969.72 117.25 969.72 141V157.125C969.72 174.25 962.845 184.625 949.845 188V190C961.22 193.125 964.845 198.5 966.47 221.375L968.095 244.125C969.72 266.875 971.345 273.75 974.845 277.5L974.345 280.25H943.095C941.095 273 940.095 265.5 939.095 244.75L938.095 224C937.095 203.375 934.845 200.125 927.345 200.125H922.845V280.25ZM922.845 128V177.875H930.72C937.72 177.875 940.595 174.5 940.595 165.625V140.375C940.595 131.25 937.72 128 930.72 128H922.845Z" fill="white"/>
<defs>
<clipPath id="clip0_128_19222">
<rect x="0.75" y="0.75" width="64" height="64" fill="white"/>
</clipPath>
<clipPath id="clip1_128_19222">
<rect x="0.75" y="320.75" width="64" height="64" fill="white"/>
</clipPath>
<clipPath id="clip2_128_19222">
<rect x="320.75" y="0.75" width="48" height="64" fill="white"/>
</clipPath>
<clipPath id="clip3_128_19222">
<rect x="320.75" y="320.75" width="48" height="64" fill="white"/>
</clipPath>
<clipPath id="clip4_128_19222">
<rect x="976.75" y="0.75" width="64" height="64" fill="white"/>
</clipPath>
<clipPath id="clip5_128_19222">
<rect x="976.75" y="320.75" width="64" height="64" fill="white"/>
</clipPath>
</defs>
</svg>
