<svg width="449" height="553" viewBox="0 0 449 553" fill="none" xmlns="http://www.w3.org/2000/svg">
<g opacity="0.2">
<g clip-path="url(#clip0_128_19550)">
<rect opacity="0.1" x="0.75" y="0.75" width="64" height="64" fill="white"/>
</g>
<rect x="0.75" y="0.75" width="64" height="64" stroke="white" stroke-width="1.5" stroke-dasharray="8 8"/>
<path d="M320.75 0.750028L64.75 0.75" stroke="white" stroke-width="1.5" stroke-dasharray="8 8"/>
<g clip-path="url(#clip1_128_19550)">
<rect opacity="0.1" x="320.75" y="0.75" width="64" height="64" fill="white"/>
</g>
<rect x="320.75" y="0.75" width="64" height="64" stroke="white" stroke-width="1.5" stroke-dasharray="8 8"/>
<path d="M0.75 192.75H384.75" stroke="white" stroke-width="1.5" stroke-dasharray="8 8"/>
<path d="M0.75 64.75V320.75" stroke="white" stroke-width="1.5" stroke-dasharray="8 8"/>
<path d="M64.75 64.75V320.75" stroke="white" stroke-width="1.5" stroke-dasharray="8 8"/>
<path d="M320.75 64.75L64.75 64.75" stroke="white" stroke-width="1.5" stroke-dasharray="8 8"/>
<path d="M320.75 320.75L64.75 320.75" stroke="white" stroke-width="1.5" stroke-dasharray="8 8"/>
<path d="M320.75 64.75V320.75" stroke="white" stroke-width="1.5" stroke-dasharray="8 8"/>
<path d="M384.75 64.75V320.75" stroke="white" stroke-width="1.5" stroke-dasharray="8 8"/>
<g clip-path="url(#clip2_128_19550)">
<rect opacity="0.1" x="0.75" y="320.75" width="64" height="64" fill="white"/>
</g>
<rect x="0.75" y="320.75" width="64" height="24" stroke="white" stroke-width="1.5" stroke-dasharray="8 8"/>
<g clip-path="url(#clip3_128_19550)">
<rect opacity="0.1" x="320.75" y="320.75" width="64" height="64" fill="white"/>
</g>
<rect x="320.75" y="320.75" width="64" height="24" stroke="white" stroke-width="1.5" stroke-dasharray="8 8"/>
<path d="M0.75 384.75H384.75" stroke="white" stroke-width="1.5" stroke-dasharray="8 8"/>
<path d="M0.75 344.75V424.75" stroke="white" stroke-width="1.5" stroke-dasharray="8 8"/>
<path d="M64.75 344.75V424.75" stroke="white" stroke-width="1.5" stroke-dasharray="8 8"/>
<path d="M320.75 344.75L64.75 344.75" stroke="white" stroke-width="1.5" stroke-dasharray="8 8"/>
<path d="M320.75 424.75L64.75 424.75" stroke="white" stroke-width="1.5" stroke-dasharray="8 8"/>
<path d="M320.75 344.75V424.75" stroke="white" stroke-width="1.5" stroke-dasharray="8 8"/>
<path d="M384.75 344.75V424.75" stroke="white" stroke-width="1.5" stroke-dasharray="8 8"/>
<g clip-path="url(#clip4_128_19550)">
<rect opacity="0.1" x="0.75" y="424.75" width="64" height="64" fill="white"/>
</g>
<rect x="0.75" y="424.75" width="64" height="64" stroke="white" stroke-width="1.5" stroke-dasharray="8 8"/>
<path d="M320.75 488.75L64.75 488.75" stroke="white" stroke-width="1.5" stroke-dasharray="8 8"/>
<g clip-path="url(#clip5_128_19550)">
<rect opacity="0.1" x="320.75" y="424.75" width="64" height="64" fill="white"/>
</g>
<rect x="320.75" y="424.75" width="64" height="64" stroke="white" stroke-width="1.5" stroke-dasharray="8 8"/>
</g>
<path d="M116.647 117.772L98.4204 117.75L158.912 170.252C167.637 177.825 180.488 177.807 189.193 170.209L249.087 117.937L231.351 117.915L189.199 81.1269C180.494 73.5294 167.643 73.5115 158.918 81.0847L116.647 117.772Z" fill="white"/>
<path d="M111.922 148.008L165.139 194.327C175.976 203.76 175.999 220.795 165.187 230.258L111.711 277.062L111.732 264.294L72.8444 230.258C62.0323 220.795 62.0553 203.76 72.8928 194.327L111.902 160.374L111.922 148.008Z" fill="white"/>
<path d="M137.384 267.563L197.278 215.29C205.983 207.693 218.833 207.675 227.559 215.248L271.797 253.644C271.948 253.765 272.094 253.892 272.235 254.024L288.05 267.75L269.837 267.728L227.567 304.415C218.841 311.989 205.991 311.971 197.285 304.373L155.133 267.585L137.384 267.563Z" fill="white"/>
<path d="M274.537 237.491L221.321 191.172C210.483 181.739 210.46 164.704 221.272 155.241L274.748 108.437L274.726 122.044L312.656 155.241C323.468 164.704 323.445 181.739 312.607 191.172L274.558 224.289L274.537 237.491Z" fill="white"/>
<path d="M88.4375 424.75H71.5365L60.651 344.542H74.6875L78.3542 382.755C78.9271 389.115 79.2708 395.016 79.6146 405.5H80.875C81.2188 395.016 81.5625 389.115 82.1354 382.755L85.7448 344.542H98.8646L88.4375 424.75ZM118.974 425.953C106.656 425.953 100.698 419.479 100.698 406.245V363.104C100.698 349.812 106.656 343.339 118.974 343.339C131.292 343.339 137.25 349.812 137.25 363.104V406.245C137.25 419.479 131.292 425.953 118.974 425.953ZM118.974 415.583C122.24 415.583 123.844 413.12 123.844 408.135V361.5C123.844 356.229 122.24 353.708 118.974 353.708C115.708 353.708 114.104 356.229 114.104 361.5V408.135C114.104 413.12 115.708 415.583 118.974 415.583ZM163.661 424.75H150.313V397.937L138.109 344.542H151.688L155.01 365.167C155.698 369.349 156.214 375.25 156.615 381.036H157.818C158.219 375.25 158.677 369.406 159.365 365.167L162.401 344.542H175.865L163.661 397.937V424.75ZM185.719 424.75H172.828L183.37 344.542H200.844L211.729 424.75H197.807L196.719 413.177H186.865L185.719 424.75ZM189.844 384.646L187.953 403.896H195.63L193.74 384.646C193.167 378.63 192.708 372.557 192.422 362.531H191.161C190.875 372.557 190.417 378.63 189.844 384.646ZM226.911 425.438C217.917 425.438 213.563 419.193 213.563 406.359V362.99C213.563 349.812 219.349 343.339 231.609 343.339C243.24 343.339 249.313 348.839 249.313 361.328V371.125L236.25 373.187V361.786C236.25 355.37 234.646 353.479 231.781 353.479C228.516 353.479 226.969 356 226.969 361.328V407.391C226.969 412.719 228.401 415.297 231.38 415.297C234.589 415.297 236.938 411.63 237.339 391.578H231.208V381.495H249.542V424.75H238.943C238.828 421.943 239.286 418.62 240.776 413.062L239.573 412.719C236.88 421.542 233.443 425.438 226.911 425.438ZM282.714 424.75H254.469V344.542H281.969V355.427H267.818V377.714H280.536V387.625H267.818V413.865H282.714V424.75ZM300.13 424.75H286.781V344.542H305.115C316.057 344.542 321.615 350.042 321.615 360.927V368.318C321.615 376.167 318.464 380.922 312.505 382.469V383.385C317.719 384.818 319.38 387.281 320.125 397.766L320.87 408.193C321.615 418.62 322.359 421.771 323.964 423.49L323.734 424.75H309.411C308.495 421.427 308.036 417.99 307.578 408.479L307.12 398.969C306.661 389.516 305.63 388.026 302.193 388.026H300.13V424.75ZM300.13 354.969V377.828H303.74C306.948 377.828 308.266 376.281 308.266 372.214V360.641C308.266 356.458 306.948 354.969 303.74 354.969H300.13Z" fill="white"/>
<path d="M392.75 424.75H406.75L406.75 64.75H392.75" stroke="#FFB708" stroke-width="2" stroke-linecap="round" stroke-linejoin="round"/>
<path d="M406.75 244.75H420.75" stroke="#FFB708" stroke-width="2" stroke-linecap="round" stroke-linejoin="round"/>
<path d="M433.55 250.91C432.761 250.91 432.067 250.75 431.47 250.43C430.873 250.11 430.409 249.662 430.078 249.086C429.758 248.499 429.598 247.817 429.598 247.038C429.598 246.569 429.694 246.046 429.886 245.47C430.089 244.883 430.361 244.281 430.702 243.662L433.23 239.07H435.502L432.494 244.222L432.558 244.254C432.729 244.03 432.963 243.854 433.262 243.726C433.571 243.598 433.907 243.534 434.27 243.534C434.931 243.534 435.502 243.683 435.982 243.982C436.462 244.27 436.835 244.681 437.102 245.214C437.369 245.747 437.502 246.377 437.502 247.102C437.502 247.87 437.337 248.542 437.006 249.118C436.686 249.683 436.233 250.126 435.646 250.446C435.059 250.755 434.361 250.91 433.55 250.91ZM433.55 249.214C433.955 249.214 434.302 249.129 434.59 248.958C434.889 248.787 435.118 248.547 435.278 248.238C435.449 247.918 435.534 247.55 435.534 247.134C435.534 246.707 435.449 246.339 435.278 246.03C435.118 245.71 434.889 245.465 434.59 245.294C434.302 245.123 433.955 245.038 433.55 245.038C433.155 245.038 432.809 245.123 432.51 245.294C432.211 245.465 431.977 245.71 431.806 246.03C431.646 246.339 431.566 246.707 431.566 247.134C431.566 247.55 431.646 247.918 431.806 248.238C431.977 248.547 432.211 248.787 432.51 248.958C432.809 249.129 433.155 249.214 433.55 249.214ZM438.792 250.75L442.024 244.766L438.984 239.07H441.224L442.696 241.998C442.802 242.211 442.898 242.419 442.984 242.622C443.069 242.814 443.133 242.963 443.176 243.07C443.208 242.963 443.266 242.814 443.352 242.622C443.437 242.419 443.533 242.211 443.64 241.998L445.128 239.07H447.304L444.264 244.718L447.496 250.75H445.256L443.608 247.518C443.501 247.305 443.4 247.097 443.304 246.894C443.218 246.691 443.154 246.531 443.112 246.414C443.069 246.531 443.005 246.691 442.92 246.894C442.834 247.097 442.738 247.305 442.632 247.518L440.968 250.75H438.792Z" fill="white"/>
<path d="M64.75 496.75V512.75L320.75 512.75V496.75" stroke="#FFB708" stroke-width="2" stroke-linecap="round" stroke-linejoin="round"/>
<path d="M192.75 512.75V532.75" stroke="#FFB708" stroke-width="2" stroke-linecap="round" stroke-linejoin="round"/>
<path d="M188.862 552.75V550.43H183.694V547.534L188.014 541.07H190.238L185.614 548.062V548.67H188.862V546.03H190.878V552.75H188.862ZM192.792 552.75L196.024 546.766L192.984 541.07H195.224L196.696 543.998C196.802 544.211 196.898 544.419 196.984 544.622C197.069 544.814 197.133 544.963 197.176 545.07C197.208 544.963 197.266 544.814 197.352 544.622C197.437 544.419 197.533 544.211 197.64 543.998L199.128 541.07H201.304L198.264 546.718L201.496 552.75H199.256L197.608 549.518C197.501 549.305 197.4 549.097 197.304 548.894C197.218 548.691 197.154 548.531 197.112 548.414C197.069 548.531 197.005 548.691 196.92 548.894C196.834 549.097 196.738 549.305 196.632 549.518L194.968 552.75H192.792Z" fill="white"/>
<defs>
<clipPath id="clip0_128_19550">
<rect x="0.75" y="0.75" width="64" height="64" fill="white"/>
</clipPath>
<clipPath id="clip1_128_19550">
<rect x="320.75" y="0.75" width="64" height="64" fill="white"/>
</clipPath>
<clipPath id="clip2_128_19550">
<rect x="0.75" y="320.75" width="64" height="24" fill="white"/>
</clipPath>
<clipPath id="clip3_128_19550">
<rect x="320.75" y="320.75" width="64" height="24" fill="white"/>
</clipPath>
<clipPath id="clip4_128_19550">
<rect x="0.75" y="424.75" width="64" height="64" fill="white"/>
</clipPath>
<clipPath id="clip5_128_19550">
<rect x="320.75" y="424.75" width="64" height="64" fill="white"/>
</clipPath>
</defs>
</svg>
