<svg width="1104" height="272" viewBox="0 0 1104 272" fill="none" xmlns="http://www.w3.org/2000/svg">
<path d="M78.923 79.773L65.2528 79.756L110.621 119.132C117.166 124.812 126.803 124.799 133.332 119.101L178.252 79.8966L164.95 79.88L133.337 52.289C126.808 46.5908 117.17 46.5774 110.626 52.2573L78.923 79.773Z" fill="currentColor"/>
<path d="M75.3793 102.45L115.292 137.189C123.42 144.264 123.437 157.04 115.328 164.137L75.2208 199.24L75.2365 189.664L46.0708 164.137C37.9618 157.04 37.979 144.264 46.1071 137.189L75.3641 111.724L75.3793 102.45Z" fill="currentColor"/>
<path d="M94.4755 192.116L139.396 152.912C145.925 147.213 155.562 147.2 162.107 152.88L195.285 181.677C195.398 181.768 195.508 181.863 195.614 181.962L207.475 192.256L193.816 192.239L162.112 219.755C155.568 225.435 145.93 225.422 139.402 219.724L107.787 192.132L94.4755 192.116Z" fill="currentColor"/>
<path d="M197.34 169.562L157.428 134.823C149.3 127.748 149.283 114.972 157.392 107.875L197.499 72.7715L197.482 82.9766L225.929 107.875C234.038 114.972 234.021 127.748 225.893 134.823L197.356 159.661L197.34 169.562Z" fill="currentColor"/>
<path d="M99.9988 102C101.103 102 101.999 101.105 101.999 100V82C101.999 80.8954 101.103 80 99.9988 80C98.8942 80 97.9988 80.8954 97.9988 82V98H81.9988C80.8942 98 79.9988 98.8954 79.9988 100C79.9988 101.105 80.8942 102 81.9988 102H99.9988ZM99.9988 100L101.413 98.5858L41.413 38.5858L39.9988 40L38.5846 41.4142L98.5846 101.414L99.9988 100Z" fill="#FFB708"/>
<path d="M171.999 170C170.894 170 169.999 170.895 169.999 172V190C169.999 191.105 170.894 192 171.999 192C173.103 192 173.999 191.105 173.999 190V174H189.999C191.103 174 191.999 173.105 191.999 172C191.999 170.895 191.103 170 189.999 170H171.999ZM231.999 232L233.413 230.586L173.413 170.586L171.999 172L170.585 173.414L230.585 233.414L231.999 232Z" fill="#FFB708"/>
<path d="M344 104V168M376 136L312 136" stroke="#FFB708" stroke-width="4" stroke-linecap="round"/>
<path d="M494.122 80.9666L480.452 80.9496L525.82 120.326C532.365 126.006 542.002 125.993 548.531 120.294L593.451 81.0902L580.149 81.0736L548.536 53.4826C542.007 47.7844 532.369 47.771 525.825 53.4509L494.122 80.9666Z" fill="currentColor"/>
<path d="M490.578 103.644L530.491 138.383C538.619 145.458 538.636 158.234 530.527 165.331L490.42 200.434L490.435 190.858L461.27 165.331C453.161 158.234 453.178 145.458 461.306 138.383L490.563 112.918L490.578 103.644Z" fill="currentColor"/>
<path d="M509.674 193.309L554.595 154.105C561.124 148.407 570.761 148.394 577.306 154.074L610.484 182.87C610.597 182.961 610.707 183.056 610.813 183.156L622.674 193.45L609.015 193.433L577.311 220.949C570.767 226.629 561.129 226.615 554.6 220.917L522.986 193.326L509.674 193.309Z" fill="currentColor"/>
<path d="M612.539 170.756L572.627 136.016C564.499 128.942 564.482 116.166 572.591 109.068L612.698 73.9652L612.681 84.1702L641.128 109.068C649.237 116.166 649.22 128.942 641.092 136.016L612.555 160.854L612.539 170.756Z" fill="currentColor"/>
<path d="M653.998 145C602.636 145 560.999 186.637 560.999 237.999C560.999 247.665 562.473 256.985 565.209 265.749" stroke="#FFB708" stroke-width="4" stroke-linecap="round"/>
<path d="M450 127.002C501.362 127.002 542.999 85.3652 542.999 34.0031C542.999 24.397 541.543 15.1311 538.839 6.41406" stroke="#FFB708" stroke-width="4" stroke-linecap="round"/>
<path d="M580.586 122.586C579.805 123.367 579.805 124.633 580.586 125.414L593.314 138.142C594.095 138.923 595.361 138.923 596.142 138.142C596.923 137.361 596.923 136.095 596.142 135.314L584.828 124L596.142 112.686C596.923 111.905 596.923 110.639 596.142 109.858C595.361 109.077 594.095 109.077 593.314 109.858L580.586 122.586ZM678 126C679.105 126 680 125.105 680 124C680 122.895 679.105 122 678 122V124V126ZM582 124V126H678V124V122H582V124Z" fill="#FFB708"/>
<path d="M523.414 149.414C524.195 148.633 524.195 147.367 523.414 146.586L510.686 133.858C509.905 133.077 508.639 133.077 507.858 133.858C507.077 134.639 507.077 135.905 507.858 136.686L519.172 148L507.858 159.314C507.077 160.095 507.077 161.361 507.858 162.142C508.639 162.923 509.905 162.923 510.686 162.142L523.414 149.414ZM426 146C424.895 146 424 146.895 424 148C424 149.105 424.895 150 426 150L426 148L426 146ZM522 148L522 146L426 146L426 148L426 150L522 150L522 148Z" fill="#FFB708"/>
<path d="M759.999 104V168M791.999 136L727.999 136" stroke="#FFB708" stroke-width="4" stroke-linecap="round"/>
<path d="M913.722 78.5667L900.052 78.5497L945.421 117.926C951.965 123.606 961.603 123.593 968.132 117.895L1013.05 78.6903L999.75 78.6737L968.136 51.0827C961.607 45.3845 951.969 45.3711 945.425 51.051L913.722 78.5667Z" fill="currentColor"/>
<path d="M910.179 101.244L950.091 135.983C958.219 143.058 958.236 155.834 950.127 162.931L910.02 198.034L910.036 188.458L880.87 162.931C872.761 155.834 872.778 143.058 880.906 135.983L910.163 110.518L910.179 101.244Z" fill="currentColor"/>
<path d="M929.275 190.91L974.195 151.705C980.724 146.007 990.362 145.994 996.906 151.674L1030.08 180.47C1030.2 180.561 1030.31 180.656 1030.41 180.756L1042.27 191.05L1028.61 191.033L996.912 218.549C990.367 224.229 980.73 224.216 974.201 218.517L942.587 190.926L929.275 190.91Z" fill="currentColor"/>
<path d="M1032.14 168.356L992.227 133.616C984.099 126.542 984.082 113.766 992.191 106.668L1032.3 71.5653L1032.28 81.7703L1060.73 106.668C1068.84 113.766 1068.82 126.542 1060.69 133.616L1032.16 158.454L1032.14 168.356Z" fill="currentColor"/>
<path d="M969.999 93.4004L967.999 93.4004L969.999 93.4004ZM968.585 12.5866C969.366 11.8055 970.632 11.8055 971.413 12.5866L984.141 25.3145C984.922 26.0956 984.922 27.3619 984.141 28.1429C983.36 28.924 982.094 28.924 981.313 28.1429L969.999 16.8292L958.685 28.1429C957.904 28.924 956.638 28.924 955.857 28.1429C955.076 27.3619 955.076 26.0956 955.857 25.3145L968.585 12.5866ZM1058 150.599L1059.43 151.998C1047.22 164.47 1035.31 170.655 1024.2 171.803C1013.06 172.955 1003.03 169.003 994.693 161.817C978.124 147.538 967.999 120.345 967.999 93.4004L969.999 93.4004L971.999 93.4004C971.999 119.569 981.874 145.489 997.305 158.787C1004.97 165.39 1013.94 168.843 1023.79 167.825C1033.69 166.802 1044.78 161.241 1056.57 149.2L1058 150.599ZM969.999 93.4004L967.999 93.4004L967.999 14.0008L969.999 14.0008L971.999 14.0008L971.999 93.4004L969.999 93.4004Z" fill="#FFB708"/>
<path d="M967.999 178.602L969.999 178.602L967.999 178.602ZM969.413 259.416C968.632 260.197 967.366 260.197 966.585 259.416L953.857 246.688C953.076 245.907 953.076 244.64 953.857 243.859C954.638 243.078 955.905 243.078 956.686 243.859L967.999 255.173L979.313 243.859C980.094 243.078 981.36 243.078 982.141 243.859C982.922 244.64 982.922 245.907 982.141 246.688L969.413 259.416ZM879.999 121.404L878.57 120.004C890.781 107.533 902.688 101.347 913.794 100.199C924.937 99.0473 934.967 103 943.305 110.185C959.874 124.465 969.999 151.658 969.999 178.602L967.999 178.602L965.999 178.602C965.999 152.433 956.124 126.513 940.694 113.215C933.031 106.612 924.061 103.159 914.205 104.178C904.311 105.2 893.218 110.761 881.428 122.803L879.999 121.404ZM967.999 178.602L969.999 178.602L969.999 258.002L967.999 258.002L965.999 258.002L965.999 178.602L967.999 178.602Z" fill="#FFB708"/>
</svg>
