<svg width="512" height="512" viewBox="0 0 512 512" fill="none" xmlns="http://www.w3.org/2000/svg">
<path d="M312.525 240.936C332.164 240.945 351.458 246.094 368.489 255.872L368.655 255.969C368.655 297.527 346.113 333.801 312.6 353.24C312.542 353.204 312.481 353.172 312.424 353.134C276.619 332.32 256.544 294.762 256.394 256.103C256.388 256.04 256.386 255.977 256.388 255.914L256.548 255.822C273.588 246.059 292.887 240.927 312.525 240.936Z" fill="#F4E4DA"/>
<path d="M143.966 255.776C179.847 235.176 222.374 236.577 255.907 255.824L256.067 255.916V256.102C256.024 275.743 250.84 295.031 241.031 312.047C231.222 329.064 217.131 343.217 200.156 353.098L199.979 353.197C166.44 333.729 143.86 297.422 143.799 255.865L143.966 255.776Z" fill="#F4E4DA"/>
<path d="M256.175 143.324C275.877 143.334 295.232 148.518 312.302 158.357V158.559C312.219 199.976 289.772 236.12 256.39 255.542L256.229 255.635L256.066 255.545C239.083 245.654 224.978 231.497 215.149 214.477C205.321 197.457 200.11 178.165 200.033 158.511C200.03 158.441 200.033 158.373 200.033 158.303C217.113 148.48 236.472 143.315 256.175 143.324Z" fill="#F4E4DA"/>
<path d="M186.817 347.181C190.816 340.255 199.672 337.882 206.598 341.88C213.523 345.879 215.896 354.735 211.897 361.66C207.899 368.586 199.043 370.959 192.117 366.96C185.192 362.962 182.819 354.106 186.817 347.181Z" fill="#CCCCCC"/>
<path fill-rule="evenodd" clip-rule="evenodd" d="M192.543 328.986C197.573 327.638 202.891 327.812 207.822 329.486C212.754 331.16 217.079 334.259 220.249 338.391C223.419 342.523 225.294 347.502 225.635 352.699C225.975 357.895 224.767 363.077 222.163 367.587C218.671 373.635 212.92 378.049 206.174 379.857C199.428 381.664 192.24 380.718 186.192 377.226C181.682 374.622 178.045 370.739 175.741 366.068C173.438 361.397 172.571 356.147 173.251 350.984C173.931 345.82 176.127 340.974 179.561 337.059C182.994 333.143 187.512 330.334 192.543 328.986ZM208 339.454C205.04 337.745 201.638 336.953 198.228 337.176C194.817 337.4 191.55 338.63 188.838 340.71C186.126 342.791 184.092 345.629 182.993 348.866C181.894 352.102 181.78 355.592 182.665 358.894C183.55 362.195 185.393 365.161 187.963 367.414C190.533 369.668 193.714 371.11 197.103 371.556C200.491 372.002 203.936 371.433 207.002 369.921C210.067 368.409 212.616 366.023 214.325 363.063C216.612 359.092 217.231 354.376 216.045 349.95C214.859 345.524 211.965 341.75 208 339.454Z" fill="#CCCCCC"/>
<path fill-rule="evenodd" clip-rule="evenodd" d="M188.455 313.733C196.503 311.576 205.009 311.855 212.898 314.533C220.788 317.211 227.705 322.169 232.777 328.779C237.849 335.388 240.848 343.354 241.393 351.667C241.937 359.981 240.005 368.27 235.839 375.485C230.253 385.16 221.052 392.22 210.261 395.112C199.469 398.003 187.971 396.489 178.296 390.903C171.081 386.737 165.262 380.525 161.577 373.053C157.892 365.581 156.506 357.184 157.594 348.924C158.681 340.664 162.193 332.911 167.687 326.647C173.18 320.383 180.408 315.889 188.455 313.733ZM218.626 327.539C212.407 323.083 204.835 320.92 197.2 321.42C189.565 321.92 182.339 325.052 176.755 330.283C171.171 335.513 167.572 342.517 166.573 350.103C165.574 357.688 167.237 365.386 171.276 371.883C175.316 378.381 181.485 383.277 188.729 385.737C195.974 388.196 203.848 388.069 211.009 385.374C218.17 382.68 224.176 377.585 228.002 370.959C230.185 367.202 231.602 363.05 232.169 358.742C232.736 354.434 232.443 350.056 231.307 345.862C229.326 338.471 224.845 331.996 218.626 327.539Z" fill="#CCCCCC"/>
<path d="M305.396 341.882C312.322 337.884 321.178 340.256 325.177 347.182C329.175 354.108 326.802 362.964 319.877 366.962C312.951 370.961 304.095 368.588 300.097 361.662C296.098 354.737 298.471 345.881 305.396 341.882Z" fill="#CCCCCC"/>
<path fill-rule="evenodd" clip-rule="evenodd" d="M309.201 328.316C314.365 327.636 319.613 328.504 324.284 330.807C328.955 333.11 332.838 336.747 335.442 341.257C338.934 347.305 339.881 354.493 338.073 361.239C336.266 367.984 331.853 373.736 325.805 377.228C321.294 379.832 316.113 381.04 310.916 380.7C305.719 380.359 300.739 378.485 296.607 375.315C292.476 372.144 289.377 367.82 287.703 362.888C286.029 357.956 285.855 352.638 287.203 347.608C288.551 342.577 291.36 338.059 295.275 334.625C299.191 331.191 304.038 328.996 309.201 328.316ZM317.109 337.737C312.683 336.551 307.968 337.17 303.997 339.456C301.037 341.165 298.65 343.714 297.138 346.78C295.626 349.845 295.058 353.29 295.504 356.679C295.95 360.068 297.391 363.249 299.645 365.819C301.898 368.389 304.863 370.233 308.165 371.118C311.467 372.002 314.957 371.887 318.193 370.788C321.43 369.69 324.268 367.656 326.349 364.945C328.429 362.233 329.66 358.965 329.884 355.554C330.107 352.143 329.314 348.743 327.605 345.783C325.31 341.817 321.535 338.923 317.109 337.737Z" fill="#CCCCCC"/>
<path fill-rule="evenodd" clip-rule="evenodd" d="M307.139 312.66C315.399 311.572 323.796 312.958 331.269 316.643C338.741 320.328 344.952 326.146 349.118 333.362C354.704 343.037 356.218 354.535 353.326 365.327C350.435 376.118 343.375 385.319 333.699 390.905C326.484 395.07 318.195 397.003 309.882 396.458C301.568 395.913 293.603 392.915 286.993 387.843C280.383 382.771 275.426 375.853 272.748 367.964C270.07 360.075 269.791 351.568 271.947 343.521C274.104 335.473 278.598 328.246 284.862 322.752C291.126 317.259 298.879 313.747 307.139 312.66ZM321.197 322.475C313.807 320.495 305.958 321.138 298.989 324.295C292.02 327.453 286.362 332.929 282.978 339.791C279.593 346.653 278.693 354.477 280.43 361.928C282.167 369.379 286.434 375.999 292.504 380.657C298.574 385.315 306.072 387.724 313.719 387.474C321.366 387.224 328.69 384.33 334.442 379.285C340.195 374.241 344.021 367.359 345.268 359.81C346.515 352.261 345.105 344.513 341.28 337.886C339.118 334.117 336.23 330.814 332.783 328.168C329.336 325.523 325.398 323.588 321.197 322.475Z" fill="#CCCCCC"/>
<path d="M142.716 241.839C150.713 241.839 157.195 248.323 157.195 256.32C157.195 264.316 150.713 270.799 142.716 270.799C134.719 270.799 128.236 264.317 128.235 256.32C128.235 248.323 134.719 241.839 142.716 241.839Z" fill="#CCCCCC"/>
<path fill-rule="evenodd" clip-rule="evenodd" d="M142.716 229.988C149.7 229.988 156.398 232.762 161.336 237.701C166.274 242.639 169.049 249.337 169.049 256.321C169.049 261.528 167.505 266.619 164.611 270.95C161.718 275.28 157.605 278.655 152.793 280.648C147.981 282.641 142.687 283.163 137.579 282.147C132.471 281.131 127.779 278.622 124.097 274.94C120.414 271.257 117.906 266.565 116.89 261.457C115.874 256.349 116.396 251.055 118.389 246.243C120.382 241.432 123.757 237.319 128.087 234.425C132.417 231.532 137.508 229.988 142.716 229.988ZM142.716 239.037C138.134 239.042 133.741 240.865 130.501 244.105C127.261 247.345 125.438 251.739 125.434 256.321C125.434 259.739 126.448 263.08 128.347 265.922C130.246 268.764 132.945 270.979 136.103 272.287C139.26 273.595 142.735 273.938 146.088 273.271C149.44 272.604 152.52 270.957 154.937 268.54C157.354 266.123 159 263.044 159.667 259.692C160.334 256.339 159.992 252.864 158.684 249.706C157.376 246.549 155.16 243.85 152.318 241.951C149.476 240.051 146.134 239.037 142.716 239.037Z" fill="#CCCCCC"/>
<path fill-rule="evenodd" clip-rule="evenodd" d="M142.716 214.195C153.888 214.195 164.602 218.633 172.502 226.533C180.402 234.432 184.84 245.147 184.84 256.32C184.84 264.651 182.37 272.796 177.741 279.723C173.112 286.65 166.533 292.049 158.836 295.238C151.139 298.426 142.668 299.26 134.497 297.635C126.326 296.01 118.82 291.997 112.929 286.106C107.038 280.215 103.026 272.709 101.4 264.537C99.775 256.366 100.61 247.896 103.798 240.199C106.986 232.501 112.385 225.923 119.312 221.294C126.24 216.666 134.384 214.195 142.716 214.195ZM142.716 223.244C138.371 223.232 134.065 224.082 130.051 225.744C126.036 227.407 122.391 229.85 119.327 232.931C113.917 238.341 110.55 245.46 109.8 253.075C109.05 260.689 110.963 268.328 115.214 274.69C119.465 281.052 125.79 285.743 133.111 287.964C140.433 290.185 148.298 289.799 155.367 286.871C162.436 283.944 168.271 278.655 171.878 271.908C175.485 265.16 176.642 257.371 175.149 249.867C173.657 242.362 169.609 235.608 163.695 230.753C157.781 225.899 150.367 223.245 142.716 223.244Z" fill="#CCCCCC"/>
<path d="M255.995 241.839C263.992 241.839 270.475 248.323 270.475 256.32C270.474 264.316 263.992 270.799 255.995 270.799C247.998 270.799 241.515 264.317 241.515 256.32C241.515 248.323 247.998 241.839 255.995 241.839Z" fill="#CCCCCC"/>
<path fill-rule="evenodd" clip-rule="evenodd" d="M255.995 229.988C262.979 229.988 269.677 232.762 274.615 237.701C279.554 242.639 282.328 249.337 282.328 256.321C282.328 261.528 280.784 266.619 277.891 270.95C274.997 275.28 270.884 278.655 266.072 280.648C261.261 282.641 255.966 283.163 250.858 282.147C245.75 281.131 241.059 278.622 237.376 274.94C233.693 271.257 231.185 266.565 230.169 261.457C229.153 256.349 229.675 251.055 231.668 246.243C233.661 241.432 237.036 237.319 241.366 234.425C245.696 231.532 250.787 229.988 255.995 229.988ZM255.995 239.037C251.413 239.042 247.02 240.865 243.78 244.105C240.54 247.345 238.718 251.739 238.713 256.321C238.713 259.739 239.727 263.08 241.626 265.922C243.525 268.764 246.224 270.979 249.382 272.287C252.54 273.595 256.015 273.938 259.367 273.271C262.72 272.604 265.799 270.957 268.216 268.54C270.633 266.123 272.279 263.044 272.946 259.692C273.613 256.339 273.271 252.864 271.963 249.706C270.655 246.549 268.44 243.85 265.598 241.951C262.756 240.051 259.413 239.037 255.995 239.037Z" fill="#CCCCCC"/>
<path fill-rule="evenodd" clip-rule="evenodd" d="M255.995 214.195C267.167 214.195 277.881 218.633 285.781 226.533C293.681 234.432 298.119 245.147 298.119 256.32C298.119 264.651 295.649 272.796 291.021 279.723C286.392 286.65 279.812 292.049 272.115 295.238C264.418 298.426 255.948 299.26 247.776 297.635C239.605 296.01 232.099 291.997 226.208 286.106C220.317 280.215 216.305 272.709 214.68 264.537C213.054 256.366 213.889 247.896 217.077 240.199C220.265 232.501 225.665 225.923 232.592 221.294C239.519 216.666 247.664 214.195 255.995 214.195ZM255.995 223.244C251.65 223.232 247.345 224.082 243.33 225.744C239.315 227.407 235.671 229.85 232.606 232.931C227.196 238.341 223.829 245.46 223.079 253.075C222.329 260.689 224.243 268.328 228.493 274.69C232.744 281.052 239.069 285.743 246.391 287.964C253.712 290.185 261.578 289.799 268.646 286.871C275.715 283.944 281.55 278.655 285.157 271.908C288.764 265.16 289.921 257.371 288.429 249.867C286.937 242.362 282.889 235.608 276.975 230.753C271.061 225.899 263.646 223.245 255.995 223.244Z" fill="#CCCCCC"/>
<path d="M369.276 241.839C377.273 241.839 383.756 248.323 383.756 256.32C383.756 264.316 377.273 270.799 369.276 270.799C361.279 270.799 354.796 264.317 354.796 256.32C354.796 248.323 361.279 241.839 369.276 241.839Z" fill="#CCCCCC"/>
<path fill-rule="evenodd" clip-rule="evenodd" d="M369.274 229.988C376.258 229.988 382.956 232.762 387.895 237.701C392.833 242.639 395.607 249.337 395.607 256.321C395.607 261.528 394.063 266.619 391.17 270.95C388.276 275.28 384.163 278.655 379.352 280.648C374.54 282.641 369.246 283.163 364.138 282.147C359.03 281.131 354.338 278.622 350.655 274.94C346.973 271.257 344.464 266.565 343.448 261.457C342.432 256.349 342.954 251.055 344.947 246.243C346.94 241.432 350.315 237.319 354.646 234.425C358.976 231.532 364.067 229.988 369.274 229.988ZM369.274 239.037C364.692 239.042 360.3 240.865 357.06 244.105C353.82 247.345 351.997 251.739 351.992 256.321C351.992 259.739 353.006 263.08 354.905 265.922C356.804 268.764 359.503 270.979 362.661 272.287C365.819 273.595 369.294 273.938 372.646 273.271C375.999 272.604 379.078 270.957 381.495 268.54C383.912 266.123 385.559 263.044 386.226 259.692C386.892 256.339 386.55 252.864 385.242 249.706C383.934 246.549 381.719 243.85 378.877 241.951C376.035 240.051 372.693 239.037 369.274 239.037Z" fill="#CCCCCC"/>
<path fill-rule="evenodd" clip-rule="evenodd" d="M369.276 214.195C380.448 214.195 391.163 218.633 399.062 226.533C406.962 234.432 411.4 245.147 411.4 256.32C411.4 264.651 408.93 272.796 404.302 279.723C399.673 286.65 393.094 292.049 385.396 295.238C377.699 298.426 369.229 299.26 361.058 297.635C352.886 296.01 345.38 291.997 339.489 286.106C333.598 280.215 329.586 272.709 327.961 264.537C326.336 256.366 327.17 247.896 330.358 240.199C333.547 232.501 338.946 225.923 345.873 221.294C352.8 216.666 360.945 214.195 369.276 214.195ZM369.276 223.244C364.931 223.232 360.626 224.082 356.611 225.744C352.597 227.407 348.952 229.85 345.888 232.931C340.477 238.341 337.11 245.46 336.36 253.075C335.61 260.689 337.524 268.328 341.774 274.69C346.025 281.052 352.35 285.743 359.672 287.964C366.993 290.185 374.859 289.799 381.928 286.871C388.997 283.944 394.831 278.655 398.438 271.908C402.046 265.16 403.202 257.371 401.71 249.867C400.218 242.362 396.17 235.608 390.256 230.753C384.342 225.899 376.927 223.245 369.276 223.244Z" fill="#CCCCCC"/>
<path d="M192.119 145.681C199.045 141.682 207.901 144.055 211.899 150.981C215.898 157.906 213.525 166.763 206.6 170.761C199.674 174.76 190.818 172.386 186.819 165.46C182.821 158.535 185.194 149.68 192.119 145.681Z" fill="#CCCCCC"/>
<path fill-rule="evenodd" clip-rule="evenodd" d="M195.924 132.115C201.087 131.435 206.336 132.302 211.007 134.605C215.678 136.908 219.561 140.546 222.165 145.056C225.657 151.104 226.603 158.292 224.796 165.037C222.988 171.783 218.575 177.535 212.527 181.027C208.017 183.631 202.836 184.839 197.639 184.498C192.442 184.158 187.462 182.283 183.33 179.113C179.198 175.942 176.1 171.617 174.426 166.686C172.752 161.754 172.578 156.437 173.926 151.407C175.274 146.376 178.083 141.858 181.998 138.424C185.914 134.99 190.76 132.794 195.924 132.115ZM203.832 141.535C199.406 140.35 194.69 140.968 190.72 143.255C187.76 144.964 185.372 147.513 183.86 150.578C182.349 153.644 181.78 157.089 182.227 160.478C182.673 163.867 184.113 167.048 186.367 169.618C188.621 172.187 191.586 174.031 194.888 174.915C198.189 175.8 201.679 175.686 204.916 174.587C208.153 173.489 210.99 171.454 213.071 168.743C215.152 166.031 216.383 162.763 216.606 159.352C216.83 155.941 216.037 152.54 214.328 149.58C212.033 145.615 208.258 142.721 203.832 141.535Z" fill="#CCCCCC"/>
<path fill-rule="evenodd" clip-rule="evenodd" d="M193.861 116.458C202.122 115.371 210.519 116.757 217.991 120.442C225.463 124.127 231.675 129.944 235.841 137.16C241.427 146.835 242.94 158.334 240.049 169.125C237.157 179.917 230.097 189.117 220.422 194.703C213.207 198.869 204.918 200.802 196.604 200.257C188.291 199.712 180.326 196.714 173.716 191.642C167.106 186.57 162.149 179.652 159.471 171.763C156.793 163.874 156.514 155.367 158.67 147.32C160.826 139.272 165.321 132.044 171.585 126.551C177.849 121.058 185.601 117.546 193.861 116.458ZM207.92 126.274C200.53 124.294 192.681 124.936 185.712 128.094C178.743 131.252 173.084 136.728 169.7 143.59C166.316 150.452 165.415 158.276 167.152 165.727C168.89 173.178 173.157 179.797 179.227 184.455C185.296 189.113 192.794 191.523 200.441 191.273C208.088 191.023 215.412 188.129 221.165 183.084C226.918 178.04 230.743 171.157 231.99 163.608C233.237 156.059 231.828 148.311 228.003 141.685C225.841 137.916 222.953 134.613 219.506 131.967C216.059 129.322 212.12 127.387 207.92 126.274Z" fill="#CCCCCC"/>
<path d="M300.095 150.98C304.093 144.054 312.949 141.681 319.875 145.679C326.801 149.678 329.173 158.534 325.175 165.459C321.176 172.385 312.32 174.758 305.395 170.759C298.469 166.761 296.097 157.905 300.095 150.98Z" fill="#CCCCCC"/>
<path fill-rule="evenodd" clip-rule="evenodd" d="M305.82 132.785C310.851 131.437 316.168 131.611 321.1 133.285C326.031 134.959 330.356 138.058 333.526 142.19C336.697 146.322 338.571 151.301 338.912 156.497C339.253 161.694 338.044 166.876 335.44 171.386C331.949 177.434 326.197 181.848 319.451 183.656C312.705 185.463 305.518 184.516 299.47 181.025C294.959 178.421 291.322 174.538 289.019 169.867C286.715 165.196 285.849 159.946 286.528 154.783C287.208 149.619 289.404 144.773 292.838 140.858C296.272 136.942 300.79 134.132 305.82 132.785ZM321.277 143.253C318.317 141.544 314.916 140.75 311.505 140.974C308.094 141.198 304.827 142.428 302.115 144.509C299.404 146.59 297.369 149.428 296.271 152.664C295.172 155.901 295.058 159.391 295.942 162.693C296.827 165.994 298.671 168.96 301.24 171.213C303.81 173.467 306.991 174.909 310.38 175.355C313.769 175.801 317.214 175.232 320.279 173.72C323.345 172.208 325.893 169.822 327.603 166.862C329.889 162.891 330.508 158.174 329.322 153.748C328.136 149.323 325.243 145.548 321.277 143.253Z" fill="#CCCCCC"/>
<path fill-rule="evenodd" clip-rule="evenodd" d="M301.732 117.532C309.78 115.375 318.286 115.653 326.176 118.331C334.065 121.009 340.983 125.967 346.055 132.576C351.127 139.186 354.125 147.153 354.67 155.466C355.215 163.78 353.282 172.068 349.116 179.284C343.53 188.959 334.329 196.019 323.538 198.91C312.747 201.802 301.249 200.288 291.573 194.701C284.358 190.536 278.539 184.324 274.854 176.852C271.17 169.38 269.784 160.983 270.871 152.723C271.959 144.463 275.471 136.71 280.964 130.446C286.457 124.182 293.685 119.688 301.732 117.532ZM331.903 131.338C325.684 126.882 318.112 124.719 310.478 125.219C302.843 125.719 295.617 128.851 290.032 134.081C284.448 139.311 280.85 146.316 279.851 153.902C278.852 161.487 280.514 169.184 284.554 175.682C288.594 182.18 294.762 187.076 302.007 189.535C309.252 191.995 317.125 191.868 324.286 189.173C331.447 186.479 337.453 181.384 341.279 174.758C343.463 171.001 344.879 166.848 345.446 162.54C346.014 158.232 345.72 153.855 344.584 149.66C342.604 142.27 338.122 135.795 331.903 131.338Z" fill="#CCCCCC"/>
<path fill-rule="evenodd" clip-rule="evenodd" d="M262.475 129.259C278.463 101.567 313.902 92.0706 341.595 108.059C369.287 124.047 378.783 159.486 362.795 187.179C359.695 192.549 355.863 197.234 351.498 201.182C357.1 199.376 363.075 198.4 369.276 198.4C401.253 198.4 427.196 224.343 427.196 256.32C427.196 288.296 401.253 314.24 369.276 314.24C363.074 314.24 357.099 313.263 351.496 311.456C355.862 315.405 359.696 320.091 362.797 325.462C378.785 353.155 369.289 388.594 341.597 404.582C313.904 420.571 278.465 411.075 262.477 383.382C259.375 378.01 257.233 372.347 255.996 366.591C254.759 372.347 252.619 378.009 249.518 383.38C233.529 411.073 198.09 420.569 170.397 404.58C142.705 388.592 133.209 353.153 149.197 325.46C152.297 320.091 156.129 315.405 160.493 311.457C154.891 313.263 148.917 314.24 142.716 314.24C110.739 314.24 84.7959 288.296 84.7959 256.32C84.796 224.343 110.739 198.4 142.716 198.4C148.917 198.4 154.892 199.376 160.494 201.182C156.13 197.234 152.299 192.55 149.199 187.181C133.211 159.488 142.707 124.049 170.399 108.061C198.092 92.0725 233.531 101.568 249.52 129.261C252.619 134.629 254.759 140.288 255.996 146.04C257.233 140.288 259.375 134.628 262.475 129.259ZM227.822 314.697C218.632 308.111 207.442 304.916 196.16 305.656C184.878 306.395 174.201 311.024 165.949 318.753C157.697 326.482 152.381 336.833 150.905 348.042C149.43 359.252 151.886 370.627 157.856 380.228C163.827 389.829 172.942 397.063 183.648 400.698C194.355 404.332 205.991 404.141 216.572 400.159C227.154 396.176 236.027 388.646 241.68 378.855C244.905 373.304 246.997 367.168 247.835 360.803C248.673 354.438 248.24 347.969 246.562 341.772C243.635 330.851 237.013 321.282 227.822 314.697ZM325.285 307.218C314.364 304.292 302.766 305.243 292.468 309.91C282.169 314.576 273.807 322.669 268.807 332.809C263.806 342.949 262.476 354.51 265.044 365.521C267.611 376.532 273.918 386.312 282.888 393.195C291.858 400.077 302.936 403.637 314.236 403.267C325.537 402.897 336.36 398.62 344.86 391.165C353.361 383.71 359.013 373.538 360.854 362.383C362.696 351.228 360.612 339.779 354.959 329.988C351.764 324.419 347.497 319.539 342.403 315.63C337.31 311.722 331.491 308.863 325.285 307.218ZM273.783 311.453C268.178 313.262 262.2 314.24 255.995 314.24C249.793 314.24 243.819 313.263 238.216 311.456C247.414 319.762 253.499 330.65 255.997 342.341C258.495 330.649 264.583 319.759 273.783 311.453ZM142.716 207.45C136.296 207.432 129.935 208.689 124.004 211.146C118.073 213.603 112.687 217.212 108.16 221.764C100.165 229.759 95.1901 240.279 94.082 251.531C92.974 262.782 95.8015 274.07 102.083 283.471C108.365 292.872 117.712 299.803 128.531 303.085C139.351 306.367 150.973 305.796 161.419 301.469C171.864 297.142 180.487 289.328 185.816 279.357C191.146 269.386 192.853 257.874 190.647 246.785C188.442 235.696 182.459 225.715 173.719 218.542C164.979 211.37 154.022 207.449 142.716 207.45ZM255.995 207.45C249.575 207.432 243.215 208.689 237.283 211.146C231.352 213.603 225.967 217.212 221.439 221.764C213.445 229.759 208.469 240.279 207.361 251.531C206.253 262.782 209.081 274.07 215.362 283.471C221.644 292.872 230.991 299.803 241.811 303.085C252.63 306.367 264.253 305.796 274.698 301.469C285.144 297.142 293.766 289.328 299.096 279.357C304.425 269.386 306.133 257.874 303.927 246.785C301.721 235.696 295.738 225.715 286.998 218.542C278.258 211.37 267.301 207.449 255.995 207.45ZM369.276 207.45C362.856 207.432 356.496 208.689 350.564 211.146C344.633 213.603 339.248 217.212 334.721 221.764C326.726 229.759 321.751 240.279 320.643 251.531C319.535 262.782 322.362 274.07 328.644 283.471C334.925 292.872 344.272 299.803 355.092 303.085C365.911 306.367 377.534 305.796 387.979 301.469C398.425 297.142 407.047 289.328 412.377 279.357C417.707 269.386 419.414 257.874 417.208 246.785C415.002 235.696 409.019 225.715 400.279 218.542C391.539 211.37 380.583 207.449 369.276 207.45ZM312.636 268.473C310.047 280.585 303.669 291.295 294.805 299.304C306.611 295.474 319.105 295.643 330.495 299.33C321.615 291.318 315.227 280.598 312.636 268.473ZM199.355 268.478C196.764 280.6 190.376 291.317 181.499 299.328C192.886 295.642 205.375 295.472 217.179 299.299C208.318 291.291 201.944 280.585 199.355 268.478ZM330.492 213.31C319.104 216.997 306.614 217.166 294.81 213.338C303.672 221.347 310.048 232.056 312.636 244.165C315.227 232.042 321.614 221.322 330.492 213.31ZM181.502 213.312C190.378 221.323 196.764 232.041 199.355 244.161C201.944 232.056 208.316 221.35 217.175 213.343C205.373 217.168 192.887 216.998 181.502 213.312ZM212.008 111.017C201.087 108.091 189.489 109.042 179.19 113.708C168.892 118.375 160.53 126.467 155.529 136.608C150.529 146.748 149.199 158.309 151.767 169.32C154.334 180.331 160.64 190.111 169.61 196.993C178.58 203.876 189.659 207.436 200.959 207.066C212.259 206.696 223.083 202.418 231.583 194.963C240.083 187.508 245.736 177.337 247.577 166.182C249.419 155.027 247.335 143.577 241.682 133.785C238.487 128.217 234.219 123.337 229.126 119.429C224.032 115.521 218.214 112.662 212.008 111.017ZM341.1 118.495C331.909 111.91 320.72 108.715 309.438 109.454C298.155 110.194 287.479 114.823 279.227 122.552C270.975 130.281 265.658 140.632 264.183 151.841C262.707 163.051 265.163 174.426 271.134 184.027C277.104 193.628 286.22 200.862 296.926 204.496C307.632 208.131 319.268 207.94 329.85 203.957C340.431 199.975 349.304 192.445 354.957 182.654C358.182 177.102 360.274 170.967 361.112 164.602C361.95 158.237 361.518 151.768 359.839 145.571C356.912 134.65 350.29 125.081 341.1 118.495ZM255.997 170.309C253.499 181.995 247.415 192.877 238.222 201.18C243.823 199.375 249.796 198.4 255.995 198.4C262.198 198.4 268.173 199.376 273.776 201.183C264.581 192.88 258.496 181.996 255.997 170.309Z" fill="#CCCCCC"/>
<path fill-rule="evenodd" clip-rule="evenodd" d="M142.857 60.3589C179.1 39.4342 222.078 40.7438 255.998 60.0533C289.919 40.7441 332.896 39.4352 369.139 60.3599C405.381 81.2844 425.735 119.157 425.974 158.187C459.656 177.908 482.279 214.473 482.279 256.322C482.279 298.172 459.655 334.736 425.973 354.458C425.735 393.488 405.381 431.362 369.139 452.287C332.896 473.211 289.919 471.901 255.998 452.592C222.078 471.902 179.101 473.212 142.858 452.288C106.615 431.363 86.2602 393.488 86.0225 354.458C52.34 334.736 29.7168 298.171 29.7168 256.322C29.717 214.473 52.3393 177.907 86.0215 158.186C86.2603 119.156 106.615 81.2834 142.857 60.3589ZM88.0361 355.611C88.6629 393.543 108.614 430.208 143.858 450.556C179.103 470.904 220.829 469.848 253.992 451.425C237.889 441.818 223.944 428.084 213.902 410.692C203.862 393.302 198.941 374.361 198.671 355.614C182.301 364.753 163.438 369.962 143.357 369.962C123.274 369.962 104.408 364.752 88.0361 355.611ZM423.959 355.611C407.587 364.752 388.721 369.962 368.639 369.962C348.559 369.962 329.694 364.754 313.324 355.615C313.054 374.361 308.133 393.302 298.093 410.692C288.051 428.084 274.107 441.818 258.004 451.425C291.167 469.848 332.894 470.904 368.139 450.555C403.383 430.207 423.332 393.542 423.959 355.611ZM200.671 355.607C200.94 374.016 205.776 392.615 215.635 409.692C225.703 427.13 239.765 440.822 255.998 450.285C272.231 440.822 286.294 427.13 296.361 409.692C306.22 392.615 311.055 374.017 311.324 355.608C294.951 364.751 276.085 369.962 256 369.962C235.914 369.962 217.044 364.751 200.671 355.607ZM142.373 258.038C126.556 267.476 112.859 280.968 102.995 298.052C92.9274 315.49 88.0996 334.515 88.0215 353.304C104.332 362.631 123.222 367.962 143.357 367.962C163.078 367.962 181.603 362.848 197.682 353.875C165.001 334.295 142.976 298.762 142.373 258.038ZM255.998 271.446C251.338 306.485 230.713 336.478 201.674 353.875C217.753 362.848 236.279 367.962 256 367.962C275.719 367.962 294.244 362.849 310.322 353.876C281.283 336.48 260.658 306.486 255.998 271.446ZM369.626 258.041C369.022 298.765 346.996 334.298 314.314 353.876C330.393 362.849 348.919 367.962 368.639 367.962C388.774 367.962 407.663 362.63 423.974 353.303C423.895 334.514 419.069 315.489 409.001 298.051C399.138 280.968 385.441 267.479 369.626 258.041ZM254.981 258.081C220.679 278.598 201.291 314.754 200.676 352.141C232.747 332.915 254.364 298.047 254.981 258.081ZM257.014 258.082C257.631 298.047 279.249 332.915 311.319 352.141C310.704 314.755 291.316 278.599 257.014 258.082ZM367.625 258.065C338.044 274.506 301.765 277.368 269.098 263.887C297.11 285.441 312.771 318.296 313.319 352.14C345.394 332.911 367.013 298.037 367.625 258.065ZM144.374 258.067C144.986 298.036 166.604 332.909 198.676 352.138C199.224 318.295 214.886 285.44 242.897 263.886C210.231 277.366 173.955 274.506 144.374 258.067ZM86.0303 160.507C53.4944 180.016 31.7179 215.625 31.7178 256.322C31.7178 297.019 53.4949 332.629 86.0312 352.137C86.3004 333.388 91.2213 314.445 101.263 297.052C111.303 279.663 125.244 265.93 141.344 256.323C125.244 246.715 111.302 232.984 101.262 215.594C91.22 198.201 86.2991 179.257 86.0303 160.507ZM425.965 160.507C425.696 179.257 420.775 198.201 410.733 215.594C400.694 232.984 386.752 246.715 370.652 256.323C386.751 265.93 400.693 279.662 410.732 297.051C420.774 314.444 425.695 333.388 425.964 352.137C458.501 332.629 480.279 297.019 480.279 256.322C480.279 215.625 458.501 180.016 425.965 160.507ZM366.642 256.323C333.955 238.161 292.947 236.873 258.026 256.323C292.947 275.773 333.955 274.485 366.642 256.323ZM253.967 256.323C219.047 236.875 178.04 238.162 145.354 256.323C178.04 274.484 219.046 275.771 253.967 256.323ZM143.357 144.682C123.222 144.682 104.332 150.013 88.0205 159.34C88.0983 178.13 92.9262 197.156 102.994 214.594C112.858 231.679 126.556 245.169 142.373 254.607C142.976 213.882 165.001 178.348 197.682 158.769C181.603 149.796 163.078 144.682 143.357 144.682ZM368.639 144.682C348.919 144.682 330.393 149.795 314.314 158.767C346.997 178.345 369.023 213.88 369.626 254.606C385.442 245.168 399.139 231.678 409.002 214.594C419.07 197.156 423.897 178.13 423.975 159.34C407.664 150.014 388.774 144.682 368.639 144.682ZM313.318 160.502C312.772 194.348 297.11 227.205 269.096 248.76C301.764 235.279 338.043 238.14 367.625 254.581C367.014 214.607 345.394 179.731 313.318 160.502ZM198.677 160.504C166.604 179.733 144.986 214.608 144.374 254.579C173.955 238.14 210.233 235.281 242.899 248.761C214.886 227.207 199.224 194.35 198.677 160.504ZM311.318 160.502C279.248 179.729 257.629 214.599 257.013 254.565C291.316 234.047 310.704 197.89 311.318 160.502ZM200.677 160.502C201.291 197.89 220.679 234.046 254.981 254.564C254.364 214.598 232.748 179.729 200.677 160.502ZM256 144.682C236.279 144.682 217.752 149.796 201.674 158.769C230.713 176.166 251.337 206.159 255.997 241.199C260.657 206.158 281.283 176.164 310.322 158.767C294.244 149.795 275.719 144.682 256 144.682ZM255.998 62.3609C239.765 71.8231 225.703 85.517 215.636 102.955C205.777 120.031 200.942 138.628 200.672 157.037C217.045 147.893 235.914 142.682 256 142.682C276.084 142.682 294.951 147.892 311.323 157.035C311.053 138.627 306.219 120.029 296.36 102.954C286.293 85.5162 272.231 71.8232 255.998 62.3609ZM368.139 62.0914C332.894 41.7429 291.166 42.7974 258.003 61.2203C274.106 70.8278 288.05 84.5614 298.092 101.954C308.132 119.343 313.053 138.284 313.323 157.03C329.694 147.89 348.558 142.682 368.639 142.682C388.722 142.682 407.588 147.892 423.96 157.034C423.333 119.103 403.383 82.4396 368.139 62.0914ZM253.991 61.2203C220.829 42.7978 179.102 41.7422 143.857 62.0904C108.613 82.4385 88.6629 119.102 88.0352 157.033C104.407 147.891 123.274 142.682 143.357 142.682C163.438 142.682 182.302 147.891 198.672 157.03C198.943 138.284 203.864 119.344 213.903 101.955C223.945 84.5626 237.889 70.8278 253.991 61.2203Z" fill="#850F36"/>
</svg>
