<svg width="392" height="504" viewBox="0 0 392 504" fill="none" xmlns="http://www.w3.org/2000/svg">
<rect width="392" height="504" fill="white"/>
<path d="M194.396 153.325C199.472 153.325 202.183 155.98 202.183 162.14V167.184L196.947 168.114V162.432C196.947 158.609 196.097 157.414 194.449 157.414C192.748 157.414 191.924 158.768 191.924 161.609V183.141C191.924 185.982 192.748 187.336 194.475 187.336C196.07 187.336 197 186.088 197 182.159V175.76L202.29 176.796V182.61C202.29 188.849 199.446 191.504 194.396 191.504C189.08 191.504 186.555 188.531 186.555 182.557V162.299C186.555 156.299 189.107 153.325 194.396 153.325Z" fill="black"/>
<path fill-rule="evenodd" clip-rule="evenodd" d="M297.641 153.325C303.063 153.325 305.721 156.299 305.721 162.326V182.53C305.721 188.531 303.063 191.504 297.641 191.504C292.272 191.504 289.614 188.531 289.614 182.53V162.326C289.614 156.299 292.272 153.325 297.641 153.325ZM297.667 157.494C295.86 157.494 294.983 158.874 294.983 161.768V183.168C294.983 185.982 295.86 187.336 297.667 187.336C299.475 187.336 300.325 185.982 300.325 183.168V161.768C300.325 158.874 299.475 157.494 297.667 157.494Z" fill="black"/>
<path fill-rule="evenodd" clip-rule="evenodd" d="M214.567 153.83C219.51 153.83 221.956 156.325 221.956 161.343V164.901C221.956 168.618 220.467 170.795 217.57 171.406V171.857C219.936 172.468 220.813 173.61 221.211 178.389L221.583 183.141C221.956 187.92 222.301 189.593 223.098 190.442L223.019 191H217.225C216.746 189.434 216.507 187.681 216.241 183.274L216.002 178.84C215.736 174.406 215.151 173.663 213.318 173.663H212.228V191H206.885V153.83H214.567ZM212.228 169.547H214.009C215.816 169.547 216.613 168.618 216.613 166.361V161.264C216.613 158.927 215.816 158.025 214.009 158.025H212.228V169.547Z" fill="black"/>
<path d="M238.857 158.21H232.266V169.335H238.166V173.371H232.266V186.619H239.203V191H226.924V153.83H238.857V158.21Z" fill="black"/>
<path fill-rule="evenodd" clip-rule="evenodd" d="M259.427 191H253.872L253.208 184.947H248.238L247.547 191H242.364L247.387 153.83H254.271L259.427 191ZM250.444 161.317C250.258 165.883 250.018 168.698 249.726 171.645L248.689 181.15H252.729L251.719 171.645C251.427 168.698 251.188 165.883 251.002 161.317H250.444Z" fill="black"/>
<path d="M275.638 158.21H270.721V191H265.379V158.21H260.435V153.83H275.638V158.21Z" fill="black"/>
<path d="M284.832 191H279.49V153.83H284.832V191Z" fill="black"/>
<path d="M321.692 173.955C322.118 175.973 322.596 178.681 323.101 182.238L323.659 182.185C323.234 177.22 322.888 171.565 322.888 167.264L322.862 153.83H328.124V191H321.453L316.961 171.008C316.509 168.91 316.111 166.653 315.5 162.326L314.941 162.379C315.287 166.733 315.686 173.769 315.686 178.203L315.712 191H310.476V153.83H317.28L321.692 173.955Z" fill="black"/>
<path d="M109.101 113.999C109.199 114.001 109.665 114.398 110.135 114.882C110.604 115.365 110.989 115.821 110.99 115.896C110.99 115.97 110.812 116.434 110.594 116.927C110.376 117.42 109.666 118.817 109.017 120.031C108.367 121.245 107.624 122.631 107.363 123.11C107.103 123.589 106.266 125.127 105.502 126.527C104.738 127.927 103.544 130.128 102.848 131.417C102.152 132.707 101.223 134.426 100.782 135.236C100.342 136.047 99.837 136.981 99.6605 137.313C99.4836 137.645 98.2136 140.027 96.8378 142.606C94.3369 147.295 94.3365 147.296 94.4016 147.966C94.4787 148.759 94.0088 149.82 95.1118 150.406C96.2156 150.989 100.108 144.241 101.168 143.716C102.78 142.918 103.245 142.423 104.649 141.228C105.266 140.704 106.381 139.691 107.127 138.976C107.873 138.262 109.121 136.956 109.9 136.075C110.679 135.194 111.581 134.072 111.906 133.583C112.23 133.094 112.549 132.693 112.614 132.691C113.1 132.679 114.359 133.209 114.703 133.599C114.765 133.67 114.688 134.029 114.516 134.471C114.355 134.885 113.935 135.633 113.582 136.133C113.23 136.633 112.571 137.675 112.117 138.448C111.663 139.222 110.825 140.76 110.254 141.866C109.683 142.971 108.639 145.149 107.934 146.704C107.23 148.26 106.408 150.189 106.109 150.991C105.81 151.794 105.437 152.874 105.281 153.389C105.125 153.905 104.922 154.613 104.829 154.963C104.737 155.313 104.708 155.6 104.763 155.6C104.82 155.598 105.14 155.201 105.476 154.715C105.813 154.229 106.409 153.249 106.801 152.538C107.191 151.83 107.52 151.236 107.536 151.212C107.549 151.195 108.028 151.359 108.6 151.579C109.171 151.799 109.66 152.002 109.686 152.031C109.711 152.061 109.597 152.49 109.432 152.986C109.268 153.483 108.939 154.253 108.701 154.697C108.464 155.141 107.888 156.083 107.422 156.792C106.956 157.5 106.274 158.398 105.908 158.788C105.541 159.178 105.054 159.587 104.825 159.697C104.431 159.883 104.344 159.871 103.319 159.485C102.712 159.257 102.14 158.953 102.024 158.797C101.886 158.611 101.818 158.29 101.818 157.83C101.818 157.451 101.896 156.719 101.991 156.203C102.086 155.687 102.345 154.692 102.567 153.992C103.092 152.332 103.641 150.686 104.25 149.062C104.534 148.303 105.141 146.804 105.598 145.73C106.054 144.659 106.403 143.756 106.377 143.716C106.348 143.683 105.677 144.149 104.885 144.752C102.34 146.689 97.0075 154.971 94.4016 153.996C93.453 153.64 92.6048 152.867 92.4577 151.579C90.4985 151.598 86.4678 163.279 85.9401 165.05C85.5775 166.268 80.2968 181.885 79.9726 183.065C79.6489 184.244 79.2018 186.023 78.9791 187.017C78.7566 188.012 78.5092 189.309 78.429 189.899C78.3489 190.486 78.2728 190.98 78.2599 190.998C78.2458 191.013 77.7162 190.937 77.0825 190.829C76.4496 190.721 75.8886 190.663 75.8328 190.699C75.7799 190.736 75.3585 190.369 74.8972 189.884C74.1973 189.148 74.059 188.932 74.06 188.58C74.0607 188.347 74.1368 187.832 74.2295 187.436C74.3224 187.041 74.6231 186.106 74.8977 185.36C77.0562 179.497 78.4283 175.438 81.6343 167.448C82.8366 164.452 84.289 161.52 85.2703 158.417C85.48 157.754 86.1469 155.764 86.7523 153.996C87.3579 152.227 88.0609 150.207 88.3141 149.507C88.5673 148.806 89.2011 147.118 89.7227 145.755C90.2446 144.392 91.1021 142.194 91.6279 140.871C92.1521 139.552 92.5811 138.454 92.5837 138.425C92.5843 138.403 92.6398 138.385 92.7075 138.385C92.7764 138.386 93.307 138.574 93.8871 138.804C94.8788 139.197 94.9438 139.246 94.9438 139.6C94.9439 139.808 94.9927 140.012 95.0528 140.055C95.1144 140.094 95.6371 139.239 96.2148 138.153C96.7934 137.065 97.6556 135.451 98.1306 134.566C98.6058 133.682 99.7365 131.601 100.644 129.943C101.551 128.286 102.501 126.538 102.755 126.058C103.009 125.579 103.533 124.614 103.919 123.914C104.306 123.214 104.838 122.229 105.103 121.726C105.366 121.224 105.558 120.785 105.529 120.748C105.498 120.713 105.4 120.763 105.311 120.859C105.221 120.955 104.83 121.334 104.441 121.701C104.053 122.069 103.676 122.431 103.604 122.506C103.532 122.58 102.951 123.154 102.313 123.78C101.675 124.406 100.645 125.424 100.025 126.042C99.4042 126.659 98.7102 127.352 98.4831 127.583C98.2557 127.814 97.4861 128.575 96.7725 129.275C96.0588 129.974 95.0199 130.999 94.4638 131.552C93.9078 132.104 93.0048 132.988 92.4577 133.516C91.9105 134.045 90.9234 134.98 90.2644 135.594C89.6055 136.208 88.5437 137.168 87.9048 137.728C87.2658 138.287 86.3183 139.08 85.7992 139.488C85.2802 139.896 84.5336 140.412 84.1402 140.636C83.7469 140.86 83.2365 141.084 83.0063 141.133C82.6133 141.216 82.5312 141.164 81.6343 140.261C80.9965 139.618 80.6563 139.172 80.6057 138.912C80.5626 138.689 80.6146 138.194 80.728 137.751C80.8368 137.326 81.1689 136.375 81.4658 135.638C81.7627 134.901 82.349 133.575 82.7687 132.691C83.1883 131.806 84.1951 129.756 85.0056 128.135C85.816 126.514 86.6505 124.855 86.8602 124.45C87.0699 124.044 87.4559 123.29 87.7182 122.774C87.9803 122.257 88.3653 121.483 88.573 121.053C88.8696 120.439 88.903 120.302 88.7314 120.41C88.6111 120.486 88.2396 120.778 87.9058 121.059C87.5719 121.339 85.9315 122.744 84.2608 124.181C82.59 125.619 81.0844 126.913 80.9151 127.058C80.745 127.203 79.3325 128.433 77.7757 129.791C76.2183 131.15 74.5989 132.573 74.1769 132.953C73.755 133.332 72.221 134.725 70.7679 136.048C69.3151 137.37 67.9612 138.6 67.7592 138.781C67.5575 138.962 66.9671 139.544 66.4479 140.074C65.5037 141.038 65.5034 141.038 64.649 140.148C63.794 139.257 63.7936 139.256 64.59 138.318C65.0279 137.803 65.5742 137.195 65.8041 136.967C66.034 136.74 66.5657 136.227 66.9853 135.828C67.4047 135.429 68.0131 134.861 68.3371 134.566C68.6608 134.272 69.032 133.932 69.1621 133.81C69.2918 133.688 69.8231 133.208 70.3422 132.744C70.8613 132.281 71.9236 131.328 72.7023 130.627C73.481 129.927 74.41 129.097 74.767 128.782C75.1239 128.467 76.3715 127.376 77.5396 126.359C78.7075 125.341 79.8024 124.39 79.9726 124.245C80.1433 124.099 81.6499 122.805 83.3205 121.368C84.9918 119.931 87.0825 118.149 87.967 117.408C88.8512 116.667 89.9395 115.778 90.3851 115.431C90.8307 115.085 91.3108 114.802 91.4519 114.802C91.6035 114.803 92.0601 115.167 92.5651 115.691C93.3632 116.518 93.4161 116.607 93.3417 116.996C93.2977 117.227 93.057 117.879 92.8069 118.445C92.5564 119.013 91.3082 121.545 90.0326 124.073C88.7569 126.601 87.1335 129.846 86.4254 131.284C85.7172 132.721 84.8194 134.642 84.4304 135.552C84.0419 136.462 83.7393 137.26 83.758 137.328C83.7785 137.392 84.219 137.131 84.7377 136.744C85.2572 136.358 86.346 135.453 87.1568 134.735C87.9676 134.016 88.9042 133.172 89.2379 132.859C89.5718 132.545 90.1295 132.025 90.477 131.704C90.8246 131.383 91.3742 130.861 91.6986 130.544C92.0231 130.228 92.7197 129.549 93.246 129.037C93.7723 128.525 94.3079 127.991 94.4362 127.852C94.5647 127.712 95.1659 127.116 95.7726 126.527C96.3795 125.937 96.961 125.364 97.0648 125.254C97.1685 125.143 97.4637 124.849 97.7208 124.599C97.9778 124.35 98.5051 123.837 98.8918 123.46C99.2787 123.083 100.102 122.263 100.72 121.636C101.339 121.01 102.157 120.196 102.538 119.827C102.919 119.459 103.456 118.946 103.731 118.688C104.006 118.429 104.996 117.491 105.929 116.601C106.863 115.712 107.919 114.763 108.275 114.492C108.631 114.221 109.002 113.999 109.101 113.999Z" fill="black"/>
<path d="M169.6 182.3H167.423V112.7H169.6V182.3Z" fill="black"/>
<path d="M123.336 136.698C124.428 135.621 124.428 135.622 125.342 136.093C125.845 136.353 126.33 136.647 126.419 136.748C126.556 136.902 126.528 137.05 126.235 137.713C126.045 138.143 125.207 139.731 124.374 141.242C123.54 142.753 122.767 144.17 122.655 144.391C122.543 144.612 122.207 145.241 121.907 145.789C121.608 146.336 121.387 146.811 121.415 146.843C121.449 146.869 122.154 146.094 122.987 145.115C124.508 143.329 124.508 143.329 125.559 143.874C126.379 144.3 126.619 144.486 126.649 144.722C126.686 145.006 126.727 145.02 127.299 144.932C127.634 144.881 128.537 144.787 129.305 144.725C130.512 144.627 130.765 144.564 131.161 144.267C131.413 144.077 131.667 143.923 131.726 143.922C131.785 143.922 132.128 144.076 132.488 144.263C133.025 144.542 133.184 144.575 133.358 144.444C133.476 144.356 134.11 143.614 134.767 142.796C135.424 141.979 136.492 140.583 137.142 139.696C137.791 138.81 138.409 138.004 138.516 137.904C138.68 137.749 138.846 137.794 139.679 138.222C140.214 138.497 140.725 138.801 140.815 138.899C140.953 139.049 140.901 139.319 140.476 140.662C140.2 141.534 139.742 143.001 139.459 143.922C139.175 144.843 138.943 145.673 138.942 145.768C138.941 145.897 139.029 145.887 139.303 145.726C139.65 145.522 139.703 145.531 140.534 145.923C141.107 146.194 141.602 146.334 141.99 146.334C142.314 146.334 143.419 146.147 144.446 145.92C145.474 145.692 146.793 145.474 147.377 145.435C148.429 145.366 148.448 145.37 149.499 145.922C150.081 146.229 150.679 146.608 150.826 146.765C150.973 146.922 151.093 147.146 151.093 147.262C151.092 147.378 150.964 147.782 150.809 148.16C150.655 148.538 150.473 148.886 150.405 148.934C150.337 148.981 149.882 148.795 149.394 148.521C148.506 148.022 148.505 148.022 147.647 148.174C147.174 148.259 146.203 148.454 145.489 148.609C144.775 148.763 143.767 148.9 143.247 148.914C142.443 148.933 142.2 148.883 141.611 148.574C141.232 148.375 140.9 148.212 140.87 148.21C140.843 148.21 140.288 148.783 139.636 149.483C138.986 150.182 138.331 150.79 138.181 150.833C137.996 150.886 137.572 150.717 136.847 150.304C136.263 149.971 135.752 149.6 135.711 149.479C135.67 149.359 135.638 149.069 135.638 148.835C135.639 148.602 135.791 147.763 135.976 146.971C136.16 146.181 136.29 145.535 136.267 145.531C136.235 145.538 135.66 146.131 134.984 146.855C134.303 147.584 133.551 148.286 133.312 148.415C132.879 148.648 132.878 148.648 131.691 147.985C130.504 147.323 130.504 147.323 129.147 147.488C128.401 147.579 127.525 147.658 127.2 147.663C126.806 147.669 126.401 147.56 125.979 147.338C125.633 147.154 125.28 147.004 125.196 147.004C125.11 147.007 123.964 148.317 122.648 149.918C121.331 151.521 119.692 153.483 119.007 154.278C118.321 155.073 117.559 155.882 117.311 156.077C116.862 156.431 116.862 156.431 115.807 155.844C114.926 155.353 114.753 155.205 114.752 154.942C114.752 154.769 114.965 154.158 115.224 153.585C115.484 153.014 115.695 152.503 115.696 152.451C115.697 152.397 115.944 151.86 116.245 151.255C116.547 150.649 117.042 149.67 117.346 149.081C117.65 148.491 118.208 147.406 118.586 146.669C118.964 145.932 119.402 145.098 119.559 144.814C119.715 144.532 119.816 144.27 119.784 144.232C119.75 144.196 118.99 144.824 118.094 145.629C117.197 146.435 115.846 147.618 115.091 148.259C113.907 149.265 113.692 149.507 113.515 150.033C113.402 150.368 113.238 150.672 113.15 150.711C113.062 150.749 112.431 150.478 111.747 150.107C111.065 149.736 110.506 149.374 110.505 149.301C110.505 149.229 110.605 148.909 110.728 148.59C110.851 148.271 111.05 147.918 111.17 147.805C111.291 147.692 112.398 146.732 113.631 145.671C114.864 144.609 116.404 143.258 117.053 142.667C117.702 142.077 119.136 140.735 120.239 139.685C121.342 138.635 122.736 137.291 123.336 136.698Z" fill="black"/>
<path fill-rule="evenodd" clip-rule="evenodd" d="M237.05 103.3C242.472 103.3 245.13 106.274 245.13 112.301V132.505C245.13 138.506 242.472 141.479 237.05 141.479C231.681 141.479 229.023 138.506 229.023 132.505V112.301C229.023 106.274 231.681 103.3 237.05 103.3ZM237.077 107.469C235.269 107.469 234.392 108.849 234.392 111.743V133.143C234.392 135.957 235.269 137.311 237.077 137.311C238.884 137.311 239.735 135.957 239.735 133.143V111.743C239.735 108.849 238.884 107.469 237.077 107.469Z" fill="black"/>
<path fill-rule="evenodd" clip-rule="evenodd" d="M202.715 140.975H197.16L196.495 134.922H191.525L190.834 140.975H185.651L190.675 103.805H197.559L202.715 140.975ZM193.731 111.292C193.545 115.858 193.306 118.673 193.014 121.62L191.977 131.125H196.017L195.007 121.62C194.715 118.673 194.475 115.858 194.289 111.292H193.731Z" fill="black"/>
<path d="M217.836 123.93C218.261 125.948 218.74 128.656 219.245 132.213L219.803 132.16C219.377 127.195 219.032 121.54 219.032 117.239L219.005 103.805H224.268V140.975H217.597L213.105 120.983C212.653 118.885 212.254 116.628 211.643 112.301L211.085 112.354C211.43 116.708 211.829 123.744 211.829 128.178L211.856 140.975H206.62V103.805H213.424L217.836 123.93Z" fill="black"/>
<path d="M263.627 108.185H258.71V140.975H253.367V108.185H248.424V103.805H263.627V108.185Z" fill="black"/>
<path d="M272.821 119.124H277.578V103.805H282.921V140.975H277.578V123.372H272.821V140.975H267.478V103.805H272.821V119.124Z" fill="black"/>
<path d="M299.876 108.185H293.284V119.31H299.184V123.346H293.284V136.594H300.221V140.975H287.942V103.805H299.876V108.185Z" fill="black"/>
<path fill-rule="evenodd" clip-rule="evenodd" d="M312.206 103.805C317.149 103.805 319.595 106.3 319.595 111.318V114.876C319.595 118.593 318.106 120.77 315.209 121.381V121.832C317.575 122.443 318.452 123.585 318.851 128.364L319.223 133.116C319.595 137.895 319.94 139.568 320.738 140.417L320.658 140.975H314.864C314.385 139.409 314.146 137.656 313.88 133.249L313.641 128.815C313.375 124.381 312.791 123.638 310.957 123.638H309.867V140.975H304.525V103.805H312.206ZM309.867 119.522H311.648C313.455 119.522 314.252 118.593 314.252 116.336V111.239C314.252 108.902 313.455 108 311.648 108H309.867V119.522Z" fill="black"/>
<path d="M147.333 138.016C147.488 137.972 147.85 138.039 148.144 138.168C148.436 138.296 148.906 138.507 149.189 138.636C149.681 138.861 149.7 138.89 149.637 139.334C149.6 139.588 149.487 139.941 149.386 140.117C149.262 140.331 149.088 140.438 148.865 140.438C148.68 140.438 148.138 140.254 147.659 140.03C147.181 139.806 146.747 139.575 146.694 139.515C146.642 139.456 146.701 139.113 146.826 138.753C146.986 138.288 147.134 138.074 147.333 138.016Z" fill="black"/>
<path d="M130.812 137.357C130.933 137.357 131.488 137.613 132.044 137.925C133.013 138.47 133.055 138.512 132.992 138.875C132.955 139.084 132.815 139.431 132.68 139.646C132.546 139.86 132.327 140.036 132.196 140.036C132.064 140.036 131.51 139.76 130.965 139.422C130.42 139.085 129.974 138.75 129.973 138.678C129.974 138.607 130.059 138.356 130.165 138.12C130.27 137.885 130.409 137.616 130.474 137.524C130.539 137.432 130.691 137.357 130.812 137.357Z" fill="black"/>
<path d="M108.572 104.001C108.638 104.022 109.133 104.215 109.672 104.429C110.63 104.81 110.652 104.829 110.587 105.198C110.55 105.407 110.437 105.769 110.336 106.002C110.218 106.272 109.498 106.99 108.364 107.968C107.381 108.816 105.964 110.086 105.214 110.791C104.465 111.495 103.604 112.386 103.301 112.769C102.751 113.465 102.751 113.465 101.728 113.045C100.705 112.624 100.705 112.624 100.784 112.139C100.827 111.872 101 111.366 101.168 111.015C101.359 110.614 101.865 109.991 102.53 109.34C103.112 108.77 104.683 107.326 106.021 106.133C107.358 104.939 108.507 103.98 108.572 104.001Z" fill="black"/>
<path d="M164 215H228" stroke="black" stroke-opacity="0.8" stroke-width="0.2"/>
<path d="M166.636 229H166.179V224.898H166.803L167.258 226.598C167.325 226.855 167.372 227.052 167.425 227.286H167.483C167.536 227.052 167.586 226.855 167.653 226.595L168.101 224.898H168.74V229H168.259L168.268 227.518C168.271 226.952 168.283 226.416 168.324 225.716L168.265 225.707L167.609 228.077H167.287L166.642 225.704L166.584 225.71C166.616 226.401 166.631 226.943 166.634 227.518L166.636 229ZM170.681 229H170.178L171.179 224.898H171.877L172.896 229H172.36L172.132 228.112H170.907L170.681 229ZM171.276 226.521L170.992 227.731H172.05L171.768 226.521C171.683 226.146 171.619 225.839 171.546 225.399H171.484C171.42 225.839 171.361 226.146 171.276 226.521ZM175.462 229H174.451V224.898H175.462C176.42 224.898 176.88 225.467 176.88 226.642V227.263C176.88 228.435 176.42 229 175.462 229ZM174.97 225.306V228.593H175.444C176.08 228.593 176.349 228.218 176.349 227.354V226.554C176.349 225.678 176.08 225.306 175.444 225.306H174.97ZM180.828 229H178.587V224.898H180.778V225.332H179.105V226.627H180.547V227.034H179.105V228.566H180.828V229ZM189.044 229H186.647V228.587H187.588V225.309H186.647V224.898H189.044V225.309H188.106V228.587H189.044V229ZM191.228 229H190.751V224.898H191.363L192.392 227.523C192.494 227.784 192.553 227.998 192.62 228.297L192.682 228.294C192.644 227.91 192.62 227.526 192.62 227.181L192.617 224.898H193.095V229H192.497L191.483 226.41C191.378 226.138 191.308 225.915 191.228 225.587L191.17 225.593C191.205 225.968 191.226 226.375 191.226 226.715L191.228 229ZM201.275 229H198.879V228.587H199.819V225.309H198.879V224.898H201.275V225.309H200.338V228.587H201.275V229ZM204.163 229.062C203.319 229.062 202.889 228.467 202.889 227.339V226.56C202.889 225.435 203.322 224.84 204.157 224.84C204.893 224.84 205.341 225.3 205.364 226.334L204.86 226.457C204.852 225.546 204.614 225.241 204.166 225.241C203.659 225.241 203.416 225.637 203.416 226.492V227.403C203.416 228.256 203.662 228.654 204.175 228.654C204.623 228.654 204.878 228.347 204.89 227.412L205.402 227.547C205.373 228.604 204.899 229.062 204.163 229.062ZM209.368 229H207.127V224.898H209.318V225.332H207.646V226.627H209.087V227.034H207.646V228.566H209.368V229ZM213.469 229H211.251V224.898H211.77V228.563H213.469V229ZM215.53 229H215.027L216.029 224.898H216.726L217.745 229H217.209L216.981 228.112H215.756L215.53 229ZM216.125 226.521L215.841 227.731H216.899L216.617 226.521C216.532 226.146 216.468 225.839 216.395 225.399H216.333C216.269 225.839 216.21 226.146 216.125 226.521ZM219.769 229H219.291V224.898H219.904L220.932 227.523C221.034 227.784 221.093 227.998 221.16 228.297L221.222 228.294C221.184 227.91 221.16 227.526 221.16 227.181L221.157 224.898H221.635V229H221.037L220.024 226.41C219.918 226.138 219.848 225.915 219.769 225.587L219.71 225.593C219.745 225.968 219.766 226.375 219.766 226.715L219.769 229ZM224.388 229H223.377V224.898H224.388C225.346 224.898 225.806 225.467 225.806 226.642V227.263C225.806 228.435 225.346 229 224.388 229ZM223.896 225.306V228.593H224.37C225.006 228.593 225.276 228.218 225.276 227.354V226.554C225.276 225.678 225.006 225.306 224.37 225.306H223.896Z" fill="black" fill-opacity="0.5"/>
<path d="M100.636 482H100.179V477.898H100.803L101.258 479.598C101.325 479.855 101.372 480.052 101.425 480.286H101.483C101.536 480.052 101.586 479.855 101.653 479.595L102.101 477.898H102.74V482H102.259L102.268 480.518C102.271 479.952 102.283 479.416 102.324 478.716L102.265 478.707L101.609 481.077H101.287L100.642 478.704L100.584 478.71C100.616 479.401 100.631 479.943 100.634 480.518L100.636 482ZM104.681 482H104.178L105.179 477.898H105.877L106.896 482H106.36L106.132 481.112H104.907L104.681 482ZM105.276 479.521L104.992 480.731H106.05L105.768 479.521C105.683 479.146 105.619 478.839 105.546 478.399H105.484C105.42 478.839 105.361 479.146 105.276 479.521ZM109.462 482H108.451V477.898H109.462C110.42 477.898 110.88 478.467 110.88 479.642V480.263C110.88 481.435 110.42 482 109.462 482ZM108.97 478.306V481.593H109.444C110.08 481.593 110.349 481.218 110.349 480.354V479.554C110.349 478.678 110.08 478.306 109.444 478.306H108.97ZM114.828 482H112.587V477.898H114.778V478.332H113.105V479.627H114.547V480.034H113.105V481.566H114.828V482ZM123.044 482H120.647V481.587H121.588V478.309H120.647V477.898H123.044V478.309H122.106V481.587H123.044V482ZM125.228 482H124.751V477.898H125.363L126.392 480.523C126.494 480.784 126.553 480.998 126.62 481.297L126.682 481.294C126.644 480.91 126.62 480.526 126.62 480.181L126.617 477.898H127.095V482H126.497L125.483 479.41C125.378 479.138 125.308 478.915 125.228 478.587L125.17 478.593C125.205 478.968 125.226 479.375 125.226 479.715L125.228 482ZM135.275 482H132.879V481.587H133.819V478.309H132.879V477.898H135.275V478.309H134.338V481.587H135.275V482ZM138.163 482.062C137.319 482.062 136.889 481.467 136.889 480.339V479.56C136.889 478.435 137.322 477.84 138.157 477.84C138.893 477.84 139.341 478.3 139.364 479.334L138.86 479.457C138.852 478.546 138.614 478.241 138.166 478.241C137.659 478.241 137.416 478.637 137.416 479.492V480.403C137.416 481.256 137.662 481.654 138.175 481.654C138.623 481.654 138.878 481.347 138.89 480.412L139.402 480.547C139.373 481.604 138.899 482.062 138.163 482.062ZM143.368 482H141.127V477.898H143.318V478.332H141.646V479.627H143.087V480.034H141.646V481.566H143.368V482ZM147.469 482H145.251V477.898H145.77V481.563H147.469V482ZM149.53 482H149.027L150.029 477.898H150.726L151.745 482H151.209L150.981 481.112H149.756L149.53 482ZM150.125 479.521L149.841 480.731H150.899L150.617 479.521C150.532 479.146 150.468 478.839 150.395 478.399H150.333C150.269 478.839 150.21 479.146 150.125 479.521ZM153.769 482H153.291V477.898H153.904L154.932 480.523C155.034 480.784 155.093 480.998 155.16 481.297L155.222 481.294C155.184 480.91 155.16 480.526 155.16 480.181L155.157 477.898H155.635V482H155.037L154.024 479.41C153.918 479.138 153.848 478.915 153.769 478.587L153.71 478.593C153.745 478.968 153.766 479.375 153.766 479.715L153.769 482ZM158.388 482H157.377V477.898H158.388C159.346 477.898 159.806 478.467 159.806 479.642V480.263C159.806 481.435 159.346 482 158.388 482ZM157.896 478.306V481.593H158.37C159.006 481.593 159.276 481.218 159.276 480.354V479.554C159.276 478.678 159.006 478.306 158.37 478.306H157.896Z" fill="black" fill-opacity="0.5"/>
<path d="M174.896 480.573H174.104V479.858H174.896V480.573Z" fill="black" fill-opacity="0.5"/>
<path d="M191.383 482H188.848V481.61H189.927V479.018H188.848V478.684C189.886 478.657 189.982 478.622 190.035 477.898H190.448V481.61H191.383V482ZM194.191 482.059C193.362 482.059 192.926 481.493 192.926 480.418V479.48C192.926 478.405 193.362 477.84 194.191 477.84C195.02 477.84 195.457 478.405 195.457 479.48V480.418C195.457 481.493 195.02 482.059 194.191 482.059ZM194.191 481.654C194.692 481.654 194.935 481.276 194.935 480.488V479.422C194.935 478.625 194.692 478.241 194.191 478.241C193.69 478.241 193.447 478.625 193.447 479.422V480.488C193.447 481.276 193.69 481.654 194.191 481.654ZM194.426 480.274H193.957V479.624H194.426V480.274ZM198.268 482.059C197.439 482.059 197.003 481.493 197.003 480.418V479.48C197.003 478.405 197.439 477.84 198.268 477.84C199.098 477.84 199.534 478.405 199.534 479.48V480.418C199.534 481.493 199.098 482.059 198.268 482.059ZM198.268 481.654C198.769 481.654 199.013 481.276 199.013 480.488V479.422C199.013 478.625 198.769 478.241 198.268 478.241C197.767 478.241 197.524 478.625 197.524 479.422V480.488C197.524 481.276 197.767 481.654 198.268 481.654ZM198.503 480.274H198.034V479.624H198.503V480.274ZM201.774 479.516C201.265 479.516 200.969 479.208 200.969 478.675C200.969 478.139 201.265 477.831 201.774 477.831C202.287 477.831 202.583 478.139 202.583 478.675C202.583 479.208 202.287 479.516 201.774 479.516ZM201.777 479.202C202.026 479.202 202.173 479.021 202.173 478.707V478.643C202.173 478.326 202.026 478.145 201.777 478.145C201.525 478.145 201.382 478.326 201.382 478.643V478.707C201.382 479.021 201.525 479.202 201.777 479.202ZM203.708 479.223L200.98 481.156L200.977 480.676L203.705 478.742L203.708 479.223ZM202.92 482.067C202.41 482.067 202.114 481.76 202.114 481.224C202.114 480.69 202.41 480.383 202.92 480.383C203.433 480.383 203.728 480.69 203.728 481.224C203.728 481.76 203.433 482.067 202.92 482.067ZM202.92 481.754C203.172 481.754 203.318 481.569 203.318 481.259V481.191C203.318 480.878 203.172 480.693 202.92 480.693C202.671 480.693 202.524 480.878 202.524 481.191V481.259C202.524 481.569 202.671 481.754 202.92 481.754ZM210.509 482.062C209.665 482.062 209.234 481.467 209.234 480.339V479.56C209.234 478.435 209.668 477.84 210.503 477.84C211.238 477.84 211.687 478.3 211.71 479.334L211.206 479.457C211.197 478.546 210.96 478.241 210.512 478.241C210.005 478.241 209.762 478.637 209.762 479.492V480.403C209.762 481.256 210.008 481.654 210.521 481.654C210.969 481.654 211.224 481.347 211.235 480.412L211.748 480.547C211.719 481.604 211.244 482.062 210.509 482.062ZM214.577 482.059C213.748 482.059 213.312 481.493 213.312 480.418V479.48C213.312 478.405 213.748 477.84 214.577 477.84C215.406 477.84 215.843 478.405 215.843 479.48V480.418C215.843 481.493 215.406 482.059 214.577 482.059ZM214.577 481.654C215.078 481.654 215.321 481.276 215.321 480.488V479.422C215.321 478.625 215.078 478.241 214.577 478.241C214.076 478.241 213.833 478.625 213.833 479.422V480.488C213.833 481.276 214.076 481.654 214.577 481.654ZM218.915 482H218.394V478.326H217.289V477.898H220.02V478.326H218.915V482ZM222.992 482H222.471V478.326H221.366V477.898H224.097V478.326H222.992V482ZM226.809 482.059C225.98 482.059 225.543 481.493 225.543 480.418V479.48C225.543 478.405 225.98 477.84 226.809 477.84C227.638 477.84 228.074 478.405 228.074 479.48V480.418C228.074 481.493 227.638 482.059 226.809 482.059ZM226.809 481.654C227.31 481.654 227.553 481.276 227.553 480.488V479.422C227.553 478.625 227.31 478.241 226.809 478.241C226.308 478.241 226.065 478.625 226.065 479.422V480.488C226.065 481.276 226.308 481.654 226.809 481.654ZM230.192 482H229.714V477.898H230.326L231.355 480.523C231.457 480.784 231.516 480.998 231.583 481.297L231.645 481.294C231.607 480.91 231.583 480.526 231.583 480.181L231.58 477.898H232.058V482H231.46L230.446 479.41C230.341 479.138 230.271 478.915 230.192 478.587L230.133 478.593C230.168 478.968 230.189 479.375 230.189 479.715L230.192 482Z" fill="black" fill-opacity="0.5"/>
<path d="M246.896 480.573H246.104V479.858H246.896V480.573Z" fill="black" fill-opacity="0.5"/>
<path d="M261.571 482H261.049V477.898H262.203C262.98 477.898 263.399 478.256 263.399 478.912V478.994C263.399 479.501 263.103 479.82 262.567 479.879V479.938C262.871 480.022 263 480.169 263.126 480.661L263.252 481.153C263.378 481.646 263.481 481.833 263.63 481.936L263.624 482H262.997C262.895 481.83 262.83 481.622 262.722 481.15L262.614 480.685C262.502 480.213 262.379 480.081 262.007 480.081H261.571V482ZM261.571 478.309V479.683H262.142C262.637 479.683 262.871 479.478 262.871 479.05V478.941C262.871 478.508 262.637 478.309 262.142 478.309H261.571ZM267.444 482H265.203V477.898H267.394V478.332H265.721V479.627H267.163V480.034H265.721V481.566H267.444V482ZM270.384 482.062C269.593 482.062 269.195 481.692 269.195 480.942V477.898H269.713V480.907C269.713 481.414 269.936 481.657 270.384 481.657C270.835 481.657 271.055 481.414 271.055 480.907V477.898H271.574V480.942C271.574 481.692 271.178 482.062 270.384 482.062ZM274.511 482.059C273.723 482.059 273.257 481.643 273.228 480.655L273.729 480.532C273.738 481.385 273.996 481.672 274.523 481.672C274.93 481.672 275.191 481.426 275.191 481.057C275.191 480.731 274.998 480.515 274.549 480.233L274.116 479.955C273.644 479.656 273.348 479.369 273.351 478.845C273.351 478.241 273.776 477.84 274.435 477.84C275.165 477.84 275.578 478.253 275.595 479.123L275.118 479.237C275.112 478.505 274.886 478.224 274.432 478.224C274.069 478.224 273.832 478.446 273.832 478.789C273.832 479.088 273.987 479.272 274.461 479.568L274.892 479.838C275.337 480.116 275.695 480.433 275.695 480.992C275.695 481.625 275.229 482.059 274.511 482.059ZM277.683 482H277.179L278.181 477.898H278.878L279.898 482H279.362L279.133 481.112H277.909L277.683 482ZM278.278 479.521L277.994 480.731H279.051L278.77 479.521C278.685 479.146 278.621 478.839 278.547 478.399H278.486C278.421 478.839 278.363 479.146 278.278 479.521ZM282.753 482H281.47V477.898H282.721C283.41 477.898 283.77 478.224 283.77 478.842V478.956C283.77 479.419 283.542 479.703 283.128 479.782V479.838C283.627 479.914 283.893 480.233 283.893 480.781V480.919C283.893 481.628 283.501 482 282.753 482ZM281.989 478.306V479.636H282.636C283.055 479.636 283.254 479.442 283.254 479.026V478.889C283.254 478.49 283.058 478.306 282.639 478.306H281.989ZM281.989 480.008V481.59H282.66C283.128 481.59 283.351 481.364 283.351 480.881V480.72C283.351 480.236 283.126 480.008 282.66 480.008H281.989ZM287.853 482H285.635V477.898H286.154V481.563H287.853V482ZM291.907 482H289.666V477.898H291.857V478.332H290.184V479.627H291.626V480.034H290.184V481.566H291.907V482Z" fill="black" fill-opacity="0.5"/>
</svg>
