<svg width="392" height="528" viewBox="0 0 392 528" fill="none" xmlns="http://www.w3.org/2000/svg">
<rect width="392" height="528" fill="white"/>
<path d="M166 390H226" stroke="black"/>
<path opacity="0.6" d="M148.568 423H147.351V413.43H150.045C151.856 413.43 152.834 414.264 152.834 415.795V415.986C152.834 417.169 152.143 417.914 150.892 418.051V418.188C151.603 418.386 151.904 418.728 152.198 419.876L152.492 421.024C152.786 422.173 153.025 422.61 153.374 422.85L153.36 423H151.897C151.658 422.604 151.508 422.118 151.255 421.018L151.002 419.931C150.742 418.83 150.455 418.522 149.587 418.522H148.568V423ZM148.568 414.387V417.593H149.901C151.056 417.593 151.603 417.114 151.603 416.116V415.863C151.603 414.852 151.056 414.387 149.901 414.387H148.568ZM164.232 423H159.003V413.43H164.116V414.441H160.213V417.463H163.576V418.413H160.213V421.988H164.232V423ZM173.655 423H172.452V419.917L169.922 413.43H171.214L172.404 416.786C172.609 417.367 172.807 417.982 173.019 418.687H173.149C173.368 417.982 173.566 417.374 173.771 416.8L174.954 413.43H176.184L173.655 419.917V423ZM183.303 423H182.093V413.43H183.303V416.075C183.303 416.8 183.269 417.312 183.159 417.948L183.276 417.989L186.311 413.43H187.616L185.128 417.094L187.692 423H186.359L184.308 418.085L183.303 419.473V423ZM195.966 423.15C194.216 423.15 193.272 422.152 193.184 420.047L194.421 419.814C194.428 421.537 194.934 422.214 195.979 422.214C196.916 422.214 197.388 421.694 197.388 420.539V414.407H193.806V413.43H198.598V420.655C198.598 422.262 197.661 423.15 195.966 423.15ZM205.477 423H204.302L206.639 413.43H208.266L210.645 423H209.394L208.861 420.929H206.004L205.477 423ZM206.865 417.217L206.202 420.04H208.67L208.013 417.217C207.815 416.342 207.665 415.624 207.494 414.599H207.35C207.2 415.624 207.063 416.342 206.865 417.217ZM219.733 423H218.168L215.761 413.43H217.04L218.414 419.336C218.632 420.266 218.776 420.956 218.913 421.681H219.056C219.193 420.956 219.35 420.266 219.555 419.336L220.895 413.43H222.132L219.733 423ZM230.988 412.753H229.955L230.995 411.188H232.498L230.988 412.753ZM233.216 423H227.624V422.036H229.819V414.387H227.624V413.43H233.216V414.387H231.029V422.036H233.216V423ZM240.67 423H239.46V413.43H240.67V416.075C240.67 416.8 240.636 417.312 240.527 417.948L240.643 417.989L243.678 413.43H244.984L242.495 417.094L245.059 423H243.726L241.675 418.085L240.67 419.473V423Z" fill="black"/>
<rect x="12" y="12" width="368" height="504" stroke="black" stroke-opacity="0.4" stroke-dasharray="6 4"/>
<path d="M200.926 91.7226C201.239 91.7268 202.714 92.9863 204.204 94.522C205.693 96.0564 206.912 97.5031 206.914 97.7384C206.913 97.9743 206.348 99.4456 205.658 101.009C204.967 102.574 202.718 107.005 200.66 110.857C198.602 114.708 196.245 119.103 195.421 120.624C194.596 122.144 191.941 127.022 189.521 131.464C187.1 135.906 183.316 142.888 181.111 146.98C178.906 151.071 175.96 156.522 174.564 159.094C173.169 161.666 171.569 164.632 171.009 165.684C170.449 166.737 166.424 174.293 162.064 182.475C154.138 197.351 154.137 197.353 154.343 199.478C154.588 201.995 153.099 205.358 156.594 207.218C160.091 209.073 172.427 187.662 175.786 185.996C180.895 183.463 182.368 181.892 186.818 178.103C188.772 176.44 192.306 173.226 194.671 170.96C197.036 168.693 200.991 164.551 203.459 161.755C205.926 158.96 208.787 155.402 209.815 153.849C210.843 152.297 211.854 151.024 212.059 151.019C213.6 150.982 217.59 152.662 218.68 153.901C218.876 154.127 218.633 155.266 218.087 156.668C217.576 157.981 216.245 160.352 215.129 161.938C214.013 163.524 211.923 166.83 210.485 169.285C209.047 171.74 206.389 176.618 204.58 180.125C202.771 183.633 199.463 190.54 197.229 195.474C194.995 200.409 192.392 206.531 191.445 209.077C190.497 211.623 189.317 215.046 188.822 216.683C188.327 218.319 187.683 220.567 187.39 221.677C187.098 222.787 187.003 223.695 187.179 223.696C187.356 223.693 188.373 222.432 189.439 220.89C190.506 219.346 192.396 216.237 193.638 213.981C194.873 211.737 195.918 209.853 195.967 209.777C196.006 209.72 197.524 210.243 199.339 210.941C201.153 211.638 202.703 212.283 202.783 212.373C202.859 212.469 202.498 213.831 201.977 215.404C201.455 216.981 200.413 219.424 199.661 220.831C198.908 222.239 197.084 225.23 195.606 227.476C194.129 229.723 191.968 232.573 190.807 233.811C189.646 235.049 188.102 236.346 187.374 236.692C186.128 237.284 185.85 237.245 182.602 236.022C180.68 235.298 178.867 234.333 178.5 233.839C178.062 233.247 177.844 232.229 177.845 230.769C177.845 229.568 178.093 227.245 178.394 225.609C178.696 223.972 179.517 220.817 180.219 218.596C181.883 213.329 183.625 208.107 185.553 202.955C186.454 200.549 188.378 195.792 189.827 192.383C191.271 188.987 192.378 186.121 192.295 185.996C192.203 185.891 190.074 187.37 187.565 189.283C179.499 195.429 162.601 221.702 154.343 218.607C151.337 217.48 148.65 215.025 148.184 210.941C141.975 210.999 129.201 248.058 127.529 253.677C126.38 257.539 109.644 307.085 108.617 310.826C107.591 314.567 106.175 320.21 105.47 323.366C104.765 326.522 103.98 330.635 103.725 332.505C103.471 334.375 103.23 335.945 103.19 335.994C103.145 336.042 101.468 335.801 99.4595 335.458C97.4506 335.115 95.6702 334.929 95.498 335.046C95.3305 335.163 93.9964 334 92.5345 332.461C90.3155 330.126 89.8768 329.441 89.8802 328.321C89.8824 327.583 90.1246 325.952 90.4184 324.696C90.7127 323.44 91.6656 320.474 92.5361 318.106C99.3764 299.508 103.724 286.632 113.884 261.285C117.694 251.78 122.297 242.477 125.407 232.635C126.071 230.53 128.185 224.218 130.104 218.607C132.023 212.996 134.25 206.588 135.052 204.366C135.854 202.145 137.863 196.789 139.516 192.465C141.17 188.14 143.888 181.168 145.554 176.971C147.215 172.787 148.575 169.301 148.583 169.211C148.584 169.142 148.76 169.084 148.975 169.084C149.194 169.085 150.875 169.682 152.714 170.412C155.857 171.66 156.062 171.814 156.062 172.938C156.062 173.596 156.218 174.246 156.408 174.38C156.603 174.505 158.258 171.793 160.089 168.346C161.923 164.894 164.655 159.775 166.16 156.97C167.666 154.164 171.251 147.564 174.127 142.303C177.002 137.043 180.013 131.497 180.818 129.977C181.622 128.457 183.282 125.396 184.507 123.175C185.732 120.954 187.419 117.83 188.257 116.234C189.093 114.642 189.699 113.248 189.606 113.132C189.509 113.022 189.198 113.181 188.915 113.484C188.632 113.787 187.392 114.99 186.16 116.156C184.928 117.322 183.734 118.471 183.507 118.707C183.28 118.945 181.439 120.763 179.416 122.75C177.393 124.737 174.129 127.966 172.163 129.924C170.196 131.883 167.998 134.084 167.279 134.816C166.558 135.549 164.119 137.963 161.858 140.182C159.596 142.401 156.303 145.651 154.54 147.405C152.778 149.158 149.918 151.964 148.184 153.639C146.45 155.314 143.322 158.28 141.233 160.228C139.145 162.177 135.781 165.223 133.756 166.999C131.731 168.774 128.728 171.286 127.082 172.581C125.438 173.876 123.072 175.516 121.825 176.226C120.579 176.936 118.961 177.644 118.232 177.8C116.986 178.066 116.727 177.901 113.884 175.035C111.863 172.996 110.785 171.581 110.625 170.756C110.488 170.049 110.653 168.48 111.012 167.072C111.357 165.723 112.408 162.708 113.349 160.37C114.29 158.032 116.149 153.824 117.479 151.019C118.809 148.213 121.999 141.709 124.567 136.566C127.136 131.423 129.78 126.161 130.445 124.875C131.109 123.589 132.334 121.197 133.165 119.558C133.996 117.919 135.214 115.462 135.872 114.099C136.812 112.151 136.919 111.715 136.375 112.059C135.994 112.301 134.817 113.227 133.759 114.117C132.701 115.008 127.502 119.465 122.208 124.024C116.913 128.583 112.142 132.69 111.605 133.149C111.066 133.61 106.59 137.511 101.656 141.821C96.7203 146.132 91.589 150.645 90.2518 151.85C88.915 153.055 84.0538 157.474 79.4487 161.669C74.8439 165.864 70.552 169.767 69.9126 170.341C69.2733 170.915 67.403 172.76 65.7573 174.442C62.765 177.5 62.7645 177.5 60.0562 174.675C57.3465 171.848 57.3463 171.848 59.8703 168.872C61.2579 167.236 62.9893 165.307 63.7181 164.585C64.4465 163.864 66.1305 162.237 67.4601 160.971C68.7894 159.705 70.7184 157.904 71.7452 156.97C72.7714 156.035 73.9478 154.955 74.3594 154.568C74.7707 154.181 76.4532 152.66 78.0983 151.188C79.7435 149.717 83.1096 146.695 85.5774 144.473C88.0451 142.252 90.9899 139.617 92.1212 138.617C93.2523 137.618 97.2058 134.158 100.908 130.93C104.609 127.702 108.078 124.686 108.617 124.225C109.156 123.764 113.931 119.657 119.227 115.098C124.523 110.539 131.15 104.886 133.953 102.535C136.755 100.185 140.203 97.3639 141.615 96.2654C143.027 95.167 144.549 94.2694 144.996 94.2694C145.477 94.2715 146.923 95.4265 148.524 97.0867C151.054 99.712 151.222 99.9934 150.986 101.23C150.846 101.961 150.084 104.029 149.291 105.827C148.497 107.626 144.541 115.659 140.498 123.68C136.455 131.702 131.311 141.995 129.067 146.554C126.823 151.113 123.977 157.208 122.745 160.096C121.512 162.985 120.553 165.52 120.614 165.729C120.679 165.935 122.075 165.103 123.718 163.878C125.365 162.651 128.815 159.781 131.385 157.502C133.954 155.224 136.922 152.546 137.98 151.552C139.038 150.557 140.805 148.908 141.906 147.889C143.008 146.87 144.75 145.214 145.778 144.21C146.806 143.205 149.013 141.053 150.681 139.427C152.349 137.802 154.047 136.11 154.454 135.668C154.861 135.226 156.766 133.334 158.689 131.464C160.613 129.594 162.455 127.776 162.784 127.425C163.112 127.074 164.048 126.14 164.863 125.349C165.677 124.557 167.347 122.932 168.573 121.737C169.799 120.54 172.407 117.936 174.369 115.949C176.33 113.962 178.923 111.379 180.131 110.21C181.338 109.041 183.039 107.414 183.909 106.596C184.781 105.778 187.916 102.799 190.876 99.9773C193.836 97.1561 197.182 94.1444 198.31 93.2836C199.438 92.424 200.614 91.7212 200.926 91.7226Z" fill="black"/>
<path d="M246.039 163.733C249.498 160.316 249.499 160.317 252.395 161.814C253.988 162.638 255.525 163.572 255.807 163.89C256.241 164.379 256.151 164.849 255.226 166.95C254.624 168.316 251.969 173.355 249.327 178.147C246.686 182.94 244.234 187.436 243.879 188.137C243.525 188.839 242.458 190.834 241.51 192.571C240.562 194.307 239.86 195.813 239.95 195.916C240.05 196.006 242.289 193.544 244.933 190.435C249.752 184.767 249.753 184.768 253.084 186.498C255.681 187.847 256.441 188.439 256.539 189.188C256.656 190.089 256.785 190.132 258.596 189.853C259.659 189.69 262.521 189.394 264.955 189.196C268.779 188.886 269.581 188.687 270.836 187.743C271.635 187.141 272.441 186.65 272.627 186.649C272.814 186.65 273.9 187.137 275.042 187.731C276.742 188.616 277.246 188.721 277.799 188.305C278.172 188.025 280.18 185.672 282.262 183.078C284.344 180.483 287.732 176.058 289.791 173.244C291.849 170.432 293.808 167.873 294.143 167.556C294.665 167.064 295.188 167.207 297.831 168.568C299.524 169.439 301.144 170.405 301.429 170.714C301.866 171.191 301.702 172.046 300.356 176.306C299.481 179.072 298.029 183.727 297.131 186.649C296.232 189.572 295.496 192.207 295.494 192.506C295.491 192.915 295.769 192.882 296.638 192.372C297.737 191.725 297.905 191.753 300.538 192.999C302.355 193.859 303.923 194.301 305.153 194.301C306.18 194.301 309.681 193.709 312.937 192.986C316.193 192.263 320.374 191.572 322.225 191.45C325.56 191.23 325.62 191.243 328.948 192.994C330.794 193.966 332.687 195.17 333.154 195.668C333.62 196.167 334.002 196.876 334 197.244C333.998 197.613 333.594 198.896 333.103 200.094C332.612 201.293 332.034 202.397 331.82 202.548C331.603 202.696 330.162 202.107 328.616 201.238C325.801 199.654 325.8 199.655 323.078 200.139C321.581 200.406 318.504 201.026 316.241 201.518C313.98 202.009 310.782 202.443 309.137 202.484C306.589 202.547 305.82 202.388 303.95 201.405C302.748 200.774 301.694 200.256 301.602 200.252C301.517 200.252 299.758 202.069 297.695 204.29C295.633 206.509 293.558 208.437 293.083 208.573C292.496 208.741 291.151 208.207 288.856 206.897C287.006 205.84 285.386 204.662 285.255 204.278C285.125 203.896 285.021 202.977 285.024 202.236C285.026 201.496 285.508 198.833 286.094 196.32C286.678 193.814 287.092 191.764 287.017 191.751C286.927 191.763 285.102 193.65 282.951 195.955C280.793 198.268 278.409 200.494 277.654 200.902C276.28 201.643 276.278 201.642 272.516 199.54C268.754 197.437 268.753 197.437 264.454 197.962C262.089 198.251 259.312 198.501 258.284 198.516C257.035 198.535 255.751 198.192 254.415 197.485C253.316 196.904 252.199 196.427 251.932 196.426C251.667 196.426 248.033 200.587 243.859 205.671C239.684 210.756 234.49 216.982 232.319 219.503C230.147 222.025 227.729 224.592 226.946 225.21C225.522 226.333 225.521 226.333 222.179 224.47C219.385 222.913 218.836 222.443 218.835 221.609C218.835 221.059 219.509 219.122 220.332 217.305C221.153 215.492 221.824 213.873 221.826 213.706C221.828 213.539 222.611 211.833 223.566 209.913C224.522 207.989 226.092 204.886 227.055 203.015C228.017 201.145 229.786 197.702 230.986 195.364C232.185 193.026 233.572 190.379 234.068 189.48C234.563 188.583 234.884 187.752 234.782 187.632C234.678 187.515 232.267 189.511 229.425 192.066C226.583 194.621 222.301 198.374 219.91 200.407C216.157 203.598 215.474 204.366 214.914 206.035C214.557 207.097 214.038 208.065 213.759 208.187C213.48 208.309 211.48 207.446 209.314 206.269C207.15 205.094 205.38 203.945 205.375 203.714C205.375 203.486 205.693 202.469 206.083 201.456C206.472 200.443 207.103 199.323 207.484 198.966C207.866 198.61 211.377 195.563 215.284 192.196C219.191 188.829 224.071 184.542 226.127 182.669C228.184 180.796 232.726 176.539 236.222 173.208C239.718 169.877 244.136 165.613 246.039 163.733Z" fill="black"/>
<path d="M322.085 167.914C322.576 167.773 323.724 167.987 324.655 168.395C325.58 168.801 327.07 169.469 327.966 169.879C329.527 170.594 329.588 170.685 329.387 172.092C329.271 172.899 328.913 174.019 328.59 174.579C328.199 175.256 327.648 175.597 326.94 175.597C326.356 175.597 324.637 175.014 323.12 174.303C321.604 173.593 320.228 172.857 320.06 172.669C319.895 172.482 320.084 171.393 320.478 170.249C320.987 168.776 321.456 168.096 322.085 167.914Z" fill="black"/>
<path d="M269.729 165.821C270.113 165.821 271.871 166.633 273.636 167.626C276.706 169.353 276.838 169.485 276.636 170.637C276.52 171.3 276.076 172.401 275.65 173.083C275.223 173.764 274.532 174.32 274.115 174.321C273.698 174.321 271.942 173.445 270.214 172.374C268.488 171.304 267.075 170.243 267.071 170.015C267.072 169.788 267.345 168.991 267.679 168.243C268.013 167.496 268.454 166.645 268.659 166.352C268.864 166.06 269.346 165.821 269.729 165.821Z" fill="black"/>
<path d="M199.249 60.0011C199.458 60.0691 201.026 60.6815 202.735 61.3616C205.771 62.5698 205.841 62.6285 205.636 63.8025C205.52 64.4638 205.162 65.6114 204.84 66.3525C204.467 67.2085 202.185 69.4847 198.591 72.5883C195.477 75.277 190.984 79.3065 188.609 81.542C186.235 83.7775 183.507 86.6024 182.548 87.8185C180.805 90.028 180.803 90.0274 177.561 88.6935C174.319 87.3596 174.318 87.3586 174.569 85.8192C174.707 84.9721 175.255 83.3676 175.786 82.2541C176.393 80.9819 177.998 79.0063 180.103 76.9405C181.948 75.1318 186.926 70.5523 191.166 66.7648C195.405 62.9779 199.042 59.9348 199.249 60.0011Z" fill="black"/>
</svg>
