<svg width="620" height="1594" viewBox="0 0 620 1594" fill="none" xmlns="http://www.w3.org/2000/svg">
<g clip-path="url(#clip0_49_27058)">
<rect width="620" height="1550" transform="translate(0 44)" fill="#E9DDC4"/>
<mask id="path-2-inside-1_49_27058" fill="white">
<path d="M292.09 18C292.09 8.05887 300.149 0 310.09 0V0C320.031 0 328.09 8.05887 328.09 18V72H292.09V18Z"/>
</mask>
<path d="M290.09 18C290.09 6.95431 299.044 -2 310.09 -2C321.136 -2 330.09 6.95431 330.09 18H326.09C326.09 9.16344 318.926 2 310.09 2C301.253 2 294.09 9.16344 294.09 18H290.09ZM294.09 18M328.09 72H292.09H328.09M290.09 72V18C290.09 6.95431 299.044 -2 310.09 -2V2C301.253 2 294.09 9.16344 294.09 18V72H290.09ZM310.09 -2C321.136 -2 330.09 6.95431 330.09 18V72H326.09V18C326.09 9.16344 318.926 2 310.09 2V-2Z" fill="black" fill-opacity="0.55" mask="url(#path-2-inside-1_49_27058)"/>
<rect x="274.09" y="80" width="72" height="8" rx="4" fill="black" fill-opacity="0.6"/>
<g filter="url(#filter0_i_49_27058)">
<rect x="274.09" y="80" width="72" height="8" rx="4" fill="white" fill-opacity="0.01"/>
</g>
<g filter="url(#filter1_i_49_27058)">
<g clip-path="url(#clip1_49_27058)">
<rect x="305.09" y="108" width="10" height="1422" rx="2" fill="url(#paint0_linear_49_27058)"/>
<rect x="305.09" y="108" width="10" height="1422" fill="url(#paint1_linear_49_27058)"/>
</g>
</g>
<rect x="301.09" y="478" width="18" height="28" rx="2" fill="url(#paint2_linear_49_27058)"/>
<rect x="296.09" y="514" width="28" height="8" rx="2" fill="#5A0816"/>
<path d="M207.065 1551H205.721L208.393 1540.06H210.252L212.971 1551H211.541L210.932 1548.63H207.666L207.065 1551ZM208.651 1544.39L207.893 1547.62H210.713L209.963 1544.39C209.737 1543.39 209.565 1542.57 209.37 1541.4H209.205C209.034 1542.57 208.877 1543.39 208.651 1544.39ZM220.927 1551H219.654V1540.06H221.286L224.029 1547.06C224.302 1547.76 224.458 1548.33 224.638 1549.12L224.802 1549.12C224.7 1548.09 224.638 1547.07 224.638 1546.15L224.63 1540.06H225.904V1551H224.31L221.607 1544.09C221.325 1543.37 221.138 1542.77 220.927 1541.9L220.771 1541.91C220.865 1542.91 220.919 1544 220.919 1544.91L220.927 1551ZM236.211 1551.16C234 1551.16 232.836 1549.65 232.836 1546.78V1544.28C232.836 1541.41 234 1539.91 236.211 1539.91C238.422 1539.91 239.586 1541.41 239.586 1544.28V1546.78C239.586 1549.65 238.422 1551.16 236.211 1551.16ZM236.211 1550.08C237.547 1550.08 238.195 1549.07 238.195 1546.97V1544.12C238.195 1542 237.547 1540.98 236.211 1540.98C234.875 1540.98 234.227 1542 234.227 1544.12V1546.97C234.227 1549.07 234.875 1550.08 236.211 1550.08ZM250.339 1551H248.948V1541.2H246.003V1540.06H253.284V1541.2H250.339V1551ZM261.342 1551H259.967V1540.06H261.342V1544.61H264.81V1540.06H266.185V1551H264.81V1545.72H261.342V1551ZM279.54 1551H273.563V1540.06H279.407V1541.22H274.946V1544.67H278.79V1545.76H274.946V1549.84H279.54V1551ZM288.183 1551H286.793V1540.06H289.871C291.941 1540.06 293.058 1541.02 293.058 1542.77V1542.98C293.058 1544.34 292.269 1545.19 290.84 1545.34V1545.5C291.652 1545.73 291.996 1546.12 292.332 1547.43L292.668 1548.74C293.004 1550.05 293.277 1550.55 293.675 1550.83L293.66 1551H291.988C291.715 1550.55 291.543 1549.99 291.254 1548.73L290.965 1547.49C290.668 1546.23 290.34 1545.88 289.347 1545.88H288.183V1551ZM288.183 1541.16V1544.82H289.707C291.027 1544.82 291.652 1544.27 291.652 1543.13V1542.84C291.652 1541.69 291.027 1541.16 289.707 1541.16H288.183ZM316.83 1551.16C314.58 1551.16 313.431 1549.58 313.431 1546.57V1544.49C313.431 1541.49 314.587 1539.91 316.814 1539.91C318.775 1539.91 319.97 1541.13 320.033 1543.89L318.689 1544.22C318.665 1541.79 318.033 1540.98 316.837 1540.98C315.486 1540.98 314.837 1542.03 314.837 1544.31V1546.74C314.837 1549.02 315.494 1550.08 316.861 1550.08C318.056 1550.08 318.736 1549.26 318.767 1546.77L320.134 1547.12C320.056 1549.95 318.79 1551.16 316.83 1551.16ZM328.481 1551H327.09V1540.06H330.168C332.239 1540.06 333.356 1541.02 333.356 1542.77V1542.98C333.356 1544.34 332.567 1545.19 331.137 1545.34V1545.5C331.95 1545.73 332.293 1546.12 332.629 1547.43L332.965 1548.74C333.301 1550.05 333.575 1550.55 333.973 1550.83L333.957 1551H332.285C332.012 1550.55 331.84 1549.99 331.551 1548.73L331.262 1547.49C330.965 1546.23 330.637 1545.88 329.645 1545.88H328.481V1551ZM328.481 1541.16V1544.82H330.004C331.325 1544.82 331.95 1544.27 331.95 1543.13V1542.84C331.95 1541.69 331.325 1541.16 330.004 1541.16H328.481ZM346.702 1551H340.726V1540.06H346.57V1541.22H342.109V1544.67H345.952V1545.76H342.109V1549.84H346.702V1551ZM354.822 1551H353.479L356.15 1540.06H358.01L360.729 1551H359.299L358.69 1548.63H355.424L354.822 1551ZM356.408 1544.39L355.65 1547.62H358.471L357.721 1544.39C357.494 1543.39 357.322 1542.57 357.127 1541.4H356.963C356.791 1542.57 356.635 1543.39 356.408 1544.39ZM371.231 1551H369.841V1541.2H366.895V1540.06H374.177V1541.2H371.231V1551ZM387.164 1551H380.773V1549.9H383.281V1541.16H380.773V1540.06H387.164V1541.16H384.664V1549.9H387.164V1551ZM397.401 1551.16C395.19 1551.16 394.026 1549.65 394.026 1546.78V1544.28C394.026 1541.41 395.19 1539.91 397.401 1539.91C399.612 1539.91 400.776 1541.41 400.776 1544.28V1546.78C400.776 1549.65 399.612 1551.16 397.401 1551.16ZM397.401 1550.08C398.737 1550.08 399.385 1549.07 399.385 1546.97V1544.12C399.385 1542 398.737 1540.98 397.401 1540.98C396.065 1540.98 395.417 1542 395.417 1544.12V1546.97C395.417 1549.07 396.065 1550.08 397.401 1550.08ZM408.982 1551H407.709V1540.06H409.341L412.084 1547.06C412.357 1547.76 412.513 1548.33 412.693 1549.12L412.857 1549.12C412.755 1548.09 412.693 1547.07 412.693 1546.15L412.685 1540.06H413.959V1551H412.365L409.662 1544.09C409.38 1543.37 409.193 1542.77 408.982 1541.9L408.826 1541.91C408.92 1542.91 408.974 1544 408.974 1544.91L408.982 1551Z" fill="black" fill-opacity="0.42"/>
<rect width="347.18" height="468" transform="translate(136.41 634)" fill="#1F1F22"/>
<path d="M314.935 727.223C315.248 727.227 316.724 728.487 318.214 730.023C319.701 731.555 320.919 733.001 320.924 733.238C320.922 733.474 320.358 734.947 319.668 736.51C318.976 738.076 316.726 742.506 314.669 746.358C312.611 750.209 310.255 754.605 309.43 756.125C308.606 757.646 305.951 762.524 303.531 766.965C301.111 771.407 297.325 778.389 295.12 782.481C292.915 786.572 289.969 792.024 288.573 794.596C287.178 797.167 285.579 800.131 285.019 801.184C284.459 802.237 280.434 809.794 276.074 817.976C268.148 832.851 268.147 832.854 268.353 834.979C268.598 837.496 267.109 840.86 270.604 842.719C274.102 844.57 286.438 823.162 289.797 821.496C294.905 818.963 296.378 817.394 300.829 813.605C302.783 811.942 306.315 808.726 308.68 806.46C311.045 804.194 315.001 800.051 317.469 797.255C319.936 794.459 322.797 790.902 323.825 789.35C324.853 787.798 325.863 786.525 326.069 786.52C327.61 786.483 331.599 788.163 332.689 789.402C332.885 789.629 332.642 790.766 332.096 792.168C331.586 793.481 330.254 795.853 329.137 797.439C328.022 799.025 325.932 802.331 324.494 804.785C323.056 807.24 320.399 812.119 318.59 815.626C316.78 819.134 313.473 826.041 311.239 830.976C309.005 835.91 306.403 842.031 305.455 844.577C304.508 847.123 303.327 850.548 302.832 852.185C302.337 853.821 301.693 856.067 301.4 857.178C301.108 858.288 301.013 859.197 301.189 859.197C301.369 859.191 302.384 857.93 303.448 856.391C304.515 854.847 306.406 851.738 307.648 849.483C308.884 847.238 309.927 845.353 309.976 845.277C310.024 845.224 311.539 845.746 313.348 846.441C315.159 847.137 316.706 847.781 316.792 847.873C316.868 847.97 316.507 849.331 315.986 850.904C315.464 852.482 314.422 854.924 313.67 856.332C312.917 857.74 311.093 860.731 309.615 862.978C308.137 865.224 305.977 868.073 304.816 869.312C303.655 870.548 302.113 871.848 301.385 872.194C300.138 872.786 299.86 872.745 296.612 871.523C294.69 870.798 292.875 869.834 292.509 869.339C292.071 868.749 291.855 867.73 291.855 866.271C291.855 865.07 292.103 862.746 292.404 861.109C292.706 859.473 293.527 856.317 294.228 854.097C295.893 848.83 297.634 843.607 299.562 838.455C300.463 836.049 302.387 831.292 303.836 827.884C305.279 824.489 306.388 821.622 306.305 821.496C306.213 821.392 304.084 822.871 301.575 824.783C293.509 830.93 276.612 857.202 268.353 854.108C265.347 852.981 262.659 850.526 262.193 846.441C255.984 846.502 243.211 883.559 241.539 889.177C240.39 893.039 223.655 942.583 222.628 946.326C221.602 950.068 220.185 955.709 219.479 958.866C218.774 962.023 217.989 966.138 217.735 968.008C217.481 969.871 217.241 971.436 217.2 971.494C217.153 971.542 215.476 971.302 213.469 970.959C211.463 970.616 209.685 970.431 209.508 970.545C209.339 970.661 208.004 969.499 206.543 967.961C204.325 965.627 203.887 964.942 203.89 963.822C203.893 963.084 204.134 961.453 204.428 960.195C204.722 958.94 205.674 955.976 206.545 953.608C213.385 935.01 217.733 922.131 227.893 896.785C231.703 887.281 236.306 877.978 239.416 868.135C240.081 866.03 242.193 859.719 244.112 854.108C246.031 848.498 248.259 842.088 249.061 839.866C249.864 837.645 251.873 832.289 253.526 827.965C255.18 823.64 257.897 816.668 259.563 812.471C261.224 808.287 262.584 804.801 262.593 804.711C262.595 804.642 262.771 804.585 262.985 804.585C263.205 804.587 264.885 805.183 266.722 805.912C269.865 807.16 270.072 807.316 270.072 808.44C270.072 809.097 270.227 809.746 270.417 809.881C270.612 810.006 272.268 807.293 274.099 803.847C275.933 800.395 278.665 795.275 280.171 792.47C281.677 789.664 285.26 783.064 288.136 777.804C291.01 772.545 294.022 766.999 294.827 765.478C295.631 763.958 297.291 760.897 298.515 758.676C299.74 756.455 301.427 753.331 302.265 751.734C303.101 750.142 303.708 748.748 303.615 748.632C303.518 748.522 303.207 748.682 302.925 748.984C302.641 749.289 301.401 750.49 300.17 751.655C298.938 752.821 297.744 753.971 297.517 754.208C297.29 754.445 295.447 756.264 293.425 758.251C291.402 760.238 288.138 763.466 286.173 765.425C284.207 767.383 282.008 769.583 281.288 770.316C280.567 771.048 278.129 773.464 275.867 775.683C273.605 777.902 270.313 781.153 268.551 782.906C266.789 784.66 263.927 787.463 262.193 789.139C260.459 790.814 257.33 793.781 255.242 795.73C253.154 797.678 249.789 800.724 247.764 802.499C245.74 804.274 242.738 806.787 241.093 808.082C239.448 809.377 237.082 811.015 235.835 811.726C234.588 812.436 232.97 813.145 232.241 813.301C230.996 813.566 230.735 813.401 227.893 810.535C225.872 808.497 224.794 807.081 224.634 806.256C224.497 805.548 224.662 803.98 225.021 802.572C225.366 801.224 226.418 798.208 227.359 795.871C228.3 793.533 230.158 789.325 231.488 786.52C232.818 783.714 236.009 777.21 238.577 772.066C241.145 766.923 243.79 761.662 244.455 760.375C245.119 759.089 246.343 756.697 247.174 755.059C248.004 753.42 249.225 750.964 249.883 749.601C250.823 747.653 250.928 747.217 250.385 747.561C250.004 747.802 248.826 748.727 247.768 749.617C246.71 750.508 241.511 754.966 236.217 759.524C230.922 764.084 226.151 768.191 225.614 768.649C225.075 769.111 220.598 773.012 215.665 777.321C210.73 781.632 205.598 786.144 204.261 787.35C202.924 788.555 198.063 792.975 193.458 797.17C188.854 801.365 184.563 805.267 183.923 805.842C183.283 806.416 181.413 808.26 179.767 809.941C176.775 812.999 176.774 813 174.066 810.176C171.357 807.349 171.356 807.348 173.88 804.373C175.267 802.737 176.999 800.807 177.727 800.085C178.456 799.363 180.14 797.737 181.47 796.472C182.799 795.206 184.727 793.405 185.754 792.47C186.779 791.536 187.955 790.457 188.368 790.069C188.779 789.683 190.463 788.161 192.108 786.69C193.754 785.218 197.12 782.195 199.588 779.974C202.055 777.752 204.999 775.118 206.131 774.118C207.262 773.119 211.215 769.659 214.917 766.431C218.618 763.203 222.088 760.186 222.628 759.725C223.17 759.261 227.944 755.156 233.237 750.6C238.533 746.041 245.159 740.387 247.962 738.036C250.764 735.686 254.213 732.864 255.625 731.766C257.037 730.668 258.558 729.77 259.006 729.77C259.486 729.772 260.933 730.928 262.533 732.588C265.063 735.213 265.231 735.494 264.995 736.731C264.855 737.461 264.092 739.53 263.3 741.327C262.506 743.127 258.551 751.161 254.509 759.181C250.466 767.202 245.321 777.496 243.077 782.056C240.833 786.615 237.987 792.709 236.755 795.598C235.523 798.483 234.564 801.016 234.623 801.23C234.688 801.435 236.085 800.605 237.728 799.38C239.375 798.152 242.825 795.282 245.394 793.003C247.964 790.725 250.932 788.046 251.99 787.052C253.048 786.057 254.815 784.409 255.917 783.39C257.018 782.371 258.76 780.716 259.788 779.711C260.816 778.706 263.023 776.553 264.691 774.928C266.359 773.303 268.056 771.61 268.463 771.168C268.87 770.726 270.775 768.835 272.698 766.965C274.621 765.095 276.465 763.277 276.794 762.926C277.122 762.575 278.057 761.641 278.872 760.85C279.686 760.058 281.357 758.432 282.583 757.236C283.809 756.04 286.417 753.437 288.378 751.45C290.339 749.464 292.932 746.881 294.139 745.711C295.347 744.542 297.049 742.914 297.92 742.096C298.792 741.277 301.926 738.298 304.886 735.477C307.845 732.656 311.19 729.646 312.319 728.784C313.446 727.925 314.622 727.222 314.935 727.223ZM360.049 799.233C363.507 795.817 363.51 795.818 366.404 797.315C367.997 798.138 369.534 799.072 369.817 799.39C370.25 799.879 370.162 800.35 369.236 802.451C368.634 803.818 365.979 808.856 363.337 813.649C360.696 818.441 358.243 822.936 357.889 823.638C357.534 824.34 356.469 826.335 355.52 828.071C354.572 829.807 353.872 831.311 353.961 831.417C354.068 831.499 356.304 829.04 358.943 825.936C363.763 820.269 363.763 820.269 367.094 821.999C369.691 823.348 370.45 823.939 370.549 824.689C370.666 825.589 370.796 825.634 372.605 825.355C373.668 825.191 376.529 824.895 378.965 824.697C382.787 824.387 383.59 824.187 384.845 823.243C385.644 822.643 386.45 822.152 386.637 822.15C386.824 822.152 387.91 822.638 389.052 823.232C390.752 824.116 391.256 824.223 391.809 823.807C392.182 823.526 394.19 821.174 396.272 818.579C398.354 815.985 401.74 811.558 403.8 808.744C405.857 805.933 407.816 803.377 408.154 803.058C408.675 802.566 409.2 802.708 411.841 804.068C413.534 804.939 415.153 805.904 415.438 806.214C415.876 806.691 415.713 807.547 414.366 811.807C413.491 814.573 412.04 819.228 411.141 822.15C410.243 825.071 409.508 827.705 409.505 828.006C409.501 828.415 409.779 828.383 410.648 827.873C411.747 827.227 411.915 827.253 414.549 828.499C416.365 829.359 417.933 829.802 419.163 829.802C420.191 829.801 423.691 829.21 426.946 828.487C430.203 827.764 434.384 827.074 436.235 826.951C439.57 826.731 439.63 826.745 442.958 828.496C444.805 829.468 446.697 830.671 447.165 831.169C447.63 831.667 448.012 832.376 448.011 832.744C448.009 833.114 447.603 834.397 447.113 835.595C446.622 836.793 446.046 837.897 445.83 838.049C445.614 838.198 444.172 837.608 442.627 836.738C439.812 835.155 439.809 835.156 437.089 835.641C435.591 835.908 432.514 836.527 430.251 837.019C427.989 837.509 424.793 837.944 423.147 837.985C420.6 838.049 419.83 837.889 417.961 836.907C416.763 836.278 415.711 835.761 415.613 835.753C415.529 835.753 413.769 837.571 411.704 839.791C409.643 842.01 407.569 843.938 407.093 844.075C406.506 844.243 405.16 843.708 402.865 842.398C401.016 841.341 399.395 840.163 399.263 839.779C399.134 839.397 399.032 838.478 399.034 837.737C399.038 836.996 399.519 834.334 400.105 831.821C400.688 829.316 401.1 827.267 401.026 827.253C400.924 827.278 399.105 829.16 396.961 831.456C394.803 833.769 392.418 835.996 391.663 836.403C390.29 837.144 390.288 837.143 386.526 835.041C382.764 832.939 382.763 832.939 378.465 833.464C376.1 833.753 373.323 834.002 372.295 834.018C371.046 834.036 369.76 833.692 368.424 832.985C367.327 832.404 366.209 831.929 365.941 831.928C365.667 831.938 362.038 836.094 357.868 841.173C353.694 846.258 348.5 852.483 346.328 855.005C344.157 857.526 341.74 860.092 340.956 860.71C339.532 861.833 339.53 861.833 336.188 859.971C333.396 858.415 332.847 857.944 332.845 857.11C332.845 856.561 333.519 854.622 334.342 852.806C335.163 850.993 335.834 849.374 335.836 849.206C335.84 849.035 336.623 847.332 337.576 845.414C338.532 843.491 340.103 840.386 341.065 838.516C342.028 836.645 343.796 833.202 344.995 830.864C346.195 828.527 347.582 825.879 348.077 824.981C348.571 824.085 348.892 823.255 348.792 823.133C348.685 823.018 346.275 825.013 343.435 827.566C340.593 830.122 336.311 833.876 333.921 835.908C330.167 839.099 329.485 839.868 328.925 841.536C328.568 842.598 328.047 843.565 327.768 843.688C327.488 843.808 325.488 842.946 323.323 841.771C321.16 840.596 319.39 839.446 319.385 839.215C319.385 838.986 319.703 837.97 320.093 836.958C320.482 835.946 321.112 834.825 321.494 834.468C321.877 834.11 325.387 831.063 329.294 827.697C333.201 824.331 338.08 820.043 340.137 818.17C342.193 816.297 346.737 812.04 350.232 808.709C353.729 805.378 358.146 801.113 360.049 799.233ZM436.095 803.415C436.585 803.274 437.735 803.488 438.665 803.897C439.591 804.302 441.081 804.971 441.976 805.381C443.537 806.095 443.598 806.187 443.396 807.594C443.281 808.401 442.923 809.52 442.6 810.08C442.211 810.758 441.657 811.098 440.95 811.098C440.365 811.097 438.647 810.515 437.129 809.804C435.615 809.093 434.239 808.358 434.071 808.17C433.905 807.983 434.093 806.894 434.488 805.751C434.997 804.278 435.466 803.597 436.095 803.415ZM383.738 801.32C384.123 801.321 385.881 802.132 387.645 803.124C390.714 804.851 390.849 804.985 390.647 806.137C390.532 806.8 390.086 807.902 389.66 808.583C389.234 809.264 388.542 809.819 388.125 809.82C387.707 809.82 385.951 808.944 384.224 807.873C382.499 806.804 381.087 805.743 381.082 805.514C381.084 805.287 381.355 804.49 381.689 803.743C382.022 802.996 382.463 802.144 382.669 801.851C382.874 801.559 383.355 801.321 383.738 801.32ZM313.261 695.501C313.473 695.571 315.039 696.181 316.746 696.86C319.782 698.068 319.852 698.128 319.646 699.302C319.53 699.963 319.172 701.111 318.849 701.852C318.476 702.708 316.196 704.985 312.601 708.088C309.487 710.777 304.995 714.806 302.62 717.042C300.245 719.277 297.516 722.102 296.557 723.318C294.815 725.527 294.813 725.526 291.571 724.192C288.33 722.859 288.328 722.858 288.579 721.319C288.717 720.472 289.267 718.867 289.798 717.754C290.404 716.482 292.008 714.505 294.113 712.44C295.957 710.631 300.936 706.052 305.176 702.265C309.415 698.478 313.054 695.435 313.261 695.501Z" fill="white"/>
<rect x="263.42" y="1024" width="93.16" height="1" fill="#FFD000"/>
<path d="M262.099 1060H260.882V1050.43H263.575C265.387 1050.43 266.364 1051.26 266.364 1052.79V1052.99C266.364 1054.17 265.674 1054.91 264.423 1055.05V1055.19C265.134 1055.39 265.435 1055.73 265.729 1056.88L266.022 1058.02C266.316 1059.17 266.556 1059.61 266.904 1059.85L266.891 1060H265.428C265.188 1059.6 265.038 1059.12 264.785 1058.02L264.532 1056.93C264.272 1055.83 263.985 1055.52 263.117 1055.52H262.099V1060ZM262.099 1051.39V1054.59H263.432C264.587 1054.59 265.134 1054.11 265.134 1053.12V1052.86C265.134 1051.85 264.587 1051.39 263.432 1051.39H262.099ZM277.762 1060H272.533V1050.43H277.646V1051.44H273.743V1054.46H277.106V1055.41H273.743V1058.99H277.762V1060ZM287.185 1060H285.982V1056.92L283.453 1050.43H284.745L285.934 1053.79C286.139 1054.37 286.337 1054.98 286.549 1055.69H286.679C286.898 1054.98 287.096 1054.37 287.301 1053.8L288.484 1050.43H289.714L287.185 1056.92V1060ZM296.833 1060H295.623V1050.43H296.833V1053.08C296.833 1053.8 296.799 1054.31 296.69 1054.95L296.806 1054.99L299.841 1050.43H301.147L298.659 1054.09L301.222 1060H299.889L297.838 1055.08L296.833 1056.47V1060ZM309.496 1060.15C307.746 1060.15 306.803 1059.15 306.714 1057.05L307.951 1056.81C307.958 1058.54 308.464 1059.21 309.51 1059.21C310.446 1059.21 310.918 1058.69 310.918 1057.54V1051.41H307.336V1050.43H312.128V1057.66C312.128 1059.26 311.192 1060.15 309.496 1060.15ZM319.008 1060H317.832L320.17 1050.43H321.797L324.176 1060H322.925L322.392 1057.93H319.534L319.008 1060ZM320.396 1054.22L319.732 1057.04H322.2L321.544 1054.22C321.346 1053.34 321.195 1052.62 321.024 1051.6H320.881C320.73 1052.62 320.594 1053.34 320.396 1054.22ZM333.263 1060H331.698L329.292 1050.43H330.57L331.944 1056.34C332.163 1057.27 332.306 1057.96 332.443 1058.68H332.587C332.723 1057.96 332.881 1057.27 333.086 1056.34L334.426 1050.43H335.663L333.263 1060ZM344.518 1049.75H343.486L344.525 1048.19H346.029L344.518 1049.75ZM346.747 1060H341.155V1059.04H343.349V1051.39H341.155V1050.43H346.747V1051.39H344.559V1059.04H346.747V1060ZM354.201 1060H352.991V1050.43H354.201V1053.08C354.201 1053.8 354.166 1054.31 354.057 1054.95L354.173 1054.99L357.208 1050.43H358.514L356.026 1054.09L358.589 1060H357.256L355.205 1055.08L354.201 1056.47V1060Z" fill="white" fill-opacity="0.6"/>
<rect x="149.41" y="647" width="321.18" height="442" stroke="white" stroke-opacity="0.28" stroke-width="2" stroke-dasharray="6 4"/>
</g>
<defs>
<filter id="filter0_i_49_27058" x="274.09" y="80" width="72" height="8" filterUnits="userSpaceOnUse" color-interpolation-filters="sRGB">
<feFlood flood-opacity="0" result="BackgroundImageFix"/>
<feBlend mode="normal" in="SourceGraphic" in2="BackgroundImageFix" result="shape"/>
<feColorMatrix in="SourceAlpha" type="matrix" values="0 0 0 0 0 0 0 0 0 0 0 0 0 0 0 0 0 0 127 0" result="hardAlpha"/>
<feMorphology radius="1" operator="erode" in="SourceAlpha" result="effect1_innerShadow_49_27058"/>
<feOffset/>
<feComposite in2="hardAlpha" operator="arithmetic" k2="-1" k3="1"/>
<feColorMatrix type="matrix" values="0 0 0 0 0.984314 0 0 0 0 0.968627 0 0 0 0 0.933333 0 0 0 0.25 0"/>
<feBlend mode="normal" in2="shape" result="effect1_innerShadow_49_27058"/>
</filter>
<filter id="filter1_i_49_27058" x="305.09" y="108" width="10" height="1422" filterUnits="userSpaceOnUse" color-interpolation-filters="sRGB">
<feFlood flood-opacity="0" result="BackgroundImageFix"/>
<feBlend mode="normal" in="SourceGraphic" in2="BackgroundImageFix" result="shape"/>
<feColorMatrix in="SourceAlpha" type="matrix" values="0 0 0 0 0 0 0 0 0 0 0 0 0 0 0 0 0 0 127 0" result="hardAlpha"/>
<feMorphology radius="1" operator="erode" in="SourceAlpha" result="effect1_innerShadow_49_27058"/>
<feOffset/>
<feComposite in2="hardAlpha" operator="arithmetic" k2="-1" k3="1"/>
<feColorMatrix type="matrix" values="0 0 0 0 0.984314 0 0 0 0 0.968627 0 0 0 0 0.933333 0 0 0 0.2 0"/>
<feBlend mode="normal" in2="shape" result="effect1_innerShadow_49_27058"/>
</filter>
<linearGradient id="paint0_linear_49_27058" x1="305.09" y1="819" x2="315.09" y2="819" gradientUnits="userSpaceOnUse">
<stop stop-opacity="0.4"/>
<stop offset="0.5" stop-opacity="0.5"/>
<stop offset="1" stop-opacity="0.4"/>
</linearGradient>
<linearGradient id="paint1_linear_49_27058" x1="310.09" y1="1530" x2="310.09" y2="108" gradientUnits="userSpaceOnUse">
<stop stop-color="#FBF7EE" stop-opacity="0.45"/>
<stop offset="0.00140647" stop-color="#FBF7EE" stop-opacity="0.45"/>
<stop offset="0.00140647" stop-color="#FBF7EE" stop-opacity="0"/>
<stop offset="0.00421941" stop-color="#FBF7EE" stop-opacity="0"/>
</linearGradient>
<linearGradient id="paint2_linear_49_27058" x1="310.09" y1="478" x2="310.09" y2="506" gradientUnits="userSpaceOnUse">
<stop stop-color="#F1DDC8"/>
<stop offset="1" stop-color="#C4A87E"/>
</linearGradient>
<clipPath id="clip0_49_27058">
<rect width="620" height="1594" fill="white"/>
</clipPath>
<clipPath id="clip1_49_27058">
<rect x="305.09" y="108" width="10" height="1422" rx="2" fill="white"/>
</clipPath>
</defs>
</svg>
