<svg width="620" height="1594" viewBox="0 0 620 1594" fill="none" xmlns="http://www.w3.org/2000/svg">
<g clip-path="url(#clip0_49_27059)">
<rect width="620" height="1550" transform="translate(0 44)" fill="#1B1B1E"/>
<rect width="620" height="1550" transform="translate(0 44)" fill="url(#paint0_linear_49_27059)"/>
<rect width="620" height="1550" transform="translate(0 44)" fill="url(#paint1_radial_49_27059)"/>
<g filter="url(#filter0_i_49_27059)">
<rect y="44" width="620" height="1550" fill="white" fill-opacity="0.01"/>
</g>
<mask id="path-3-inside-1_49_27059" fill="white">
<path d="M292 18C292 8.05887 300.059 0 310 0V0C319.941 0 328 8.05887 328 18V72H292V18Z"/>
</mask>
<path d="M290 18C290 6.95431 298.954 -2 310 -2C321.046 -2 330 6.95431 330 18H326C326 9.16344 318.837 2 310 2C301.163 2 294 9.16344 294 18H290ZM294 18M328 72H292H328M290 72V18C290 6.95431 298.954 -2 310 -2V2C301.163 2 294 9.16344 294 18V72H290ZM310 -2C321.046 -2 330 6.95431 330 18V72H326V18C326 9.16344 318.837 2 310 2V-2Z" fill="#FBF7EE" fill-opacity="0.55" mask="url(#path-3-inside-1_49_27059)"/>
<rect x="274" y="80" width="72" height="8" rx="4" fill="black" fill-opacity="0.6"/>
<g filter="url(#filter1_i_49_27059)">
<rect x="274" y="80" width="72" height="8" rx="4" fill="white" fill-opacity="0.01"/>
</g>
<g filter="url(#filter2_i_49_27059)">
<g clip-path="url(#clip1_49_27059)">
<rect x="305" y="108" width="10" height="1422" rx="2" fill="url(#paint2_linear_49_27059)"/>
<rect x="305" y="108" width="10" height="1422" fill="url(#paint3_linear_49_27059)"/>
</g>
</g>
<rect x="301" y="478" width="18" height="28" rx="2" fill="url(#paint4_linear_49_27059)"/>
<rect x="296" y="514" width="28" height="8" rx="2" fill="#5A0816"/>
<path d="M206.975 1551H205.631L208.303 1540.06H210.162L212.881 1551H211.452L210.842 1548.63H207.577L206.975 1551ZM208.561 1544.39L207.803 1547.62H210.623L209.873 1544.39C209.647 1543.39 209.475 1542.57 209.28 1541.4H209.116C208.944 1542.57 208.787 1543.39 208.561 1544.39ZM220.837 1551H219.564V1540.06H221.197L223.939 1547.06C224.212 1547.76 224.368 1548.33 224.548 1549.12L224.712 1549.12C224.611 1548.09 224.548 1547.07 224.548 1546.15L224.54 1540.06H225.814V1551H224.22L221.517 1544.09C221.236 1543.37 221.048 1542.77 220.837 1541.9L220.681 1541.91C220.775 1542.91 220.829 1544 220.829 1544.91L220.837 1551ZM236.121 1551.16C233.91 1551.16 232.746 1549.65 232.746 1546.78V1544.28C232.746 1541.41 233.91 1539.91 236.121 1539.91C238.332 1539.91 239.496 1541.41 239.496 1544.28V1546.78C239.496 1549.65 238.332 1551.16 236.121 1551.16ZM236.121 1550.08C237.457 1550.08 238.106 1549.07 238.106 1546.97V1544.12C238.106 1542 237.457 1540.98 236.121 1540.98C234.785 1540.98 234.137 1542 234.137 1544.12V1546.97C234.137 1549.07 234.785 1550.08 236.121 1550.08ZM250.249 1551H248.858V1541.2H245.913V1540.06H253.194V1541.2H250.249V1551ZM261.252 1551H259.877V1540.06H261.252V1544.61H264.721V1540.06H266.096V1551H264.721V1545.72H261.252V1551ZM279.45 1551H273.473V1540.06H279.317V1541.22H274.856V1544.67H278.7V1545.76H274.856V1549.84H279.45V1551ZM288.093 1551H286.703V1540.06H289.781C291.851 1540.06 292.968 1541.02 292.968 1542.77V1542.98C292.968 1544.34 292.179 1545.19 290.75 1545.34V1545.5C291.562 1545.73 291.906 1546.12 292.242 1547.43L292.578 1548.74C292.914 1550.05 293.187 1550.55 293.586 1550.83L293.57 1551H291.898C291.625 1550.55 291.453 1549.99 291.164 1548.73L290.875 1547.49C290.578 1546.23 290.25 1545.88 289.257 1545.88H288.093V1551ZM288.093 1541.16V1544.82H289.617C290.937 1544.82 291.562 1544.27 291.562 1543.13V1542.84C291.562 1541.69 290.937 1541.16 289.617 1541.16H288.093ZM316.74 1551.16C314.49 1551.16 313.341 1549.58 313.341 1546.57V1544.49C313.341 1541.49 314.497 1539.91 316.724 1539.91C318.685 1539.91 319.88 1541.13 319.943 1543.89L318.599 1544.22C318.576 1541.79 317.943 1540.98 316.747 1540.98C315.396 1540.98 314.747 1542.03 314.747 1544.31V1546.74C314.747 1549.02 315.404 1550.08 316.771 1550.08C317.966 1550.08 318.646 1549.26 318.677 1546.77L320.044 1547.12C319.966 1549.95 318.701 1551.16 316.74 1551.16ZM328.391 1551H327V1540.06H330.078C332.149 1540.06 333.266 1541.02 333.266 1542.77V1542.98C333.266 1544.34 332.477 1545.19 331.047 1545.34V1545.5C331.86 1545.73 332.203 1546.12 332.539 1547.43L332.875 1548.74C333.211 1550.05 333.485 1550.55 333.883 1550.83L333.868 1551H332.196C331.922 1550.55 331.75 1549.99 331.461 1548.73L331.172 1547.49C330.875 1546.23 330.547 1545.88 329.555 1545.88H328.391V1551ZM328.391 1541.16V1544.82H329.914C331.235 1544.82 331.86 1544.27 331.86 1543.13V1542.84C331.86 1541.69 331.235 1541.16 329.914 1541.16H328.391ZM346.612 1551H340.636V1540.06H346.48V1541.22H342.019V1544.67H345.862V1545.76H342.019V1549.84H346.612V1551ZM354.732 1551H353.389L356.061 1540.06H357.92L360.639 1551H359.209L358.6 1548.63H355.334L354.732 1551ZM356.318 1544.39L355.561 1547.62H358.381L357.631 1544.39C357.404 1543.39 357.232 1542.57 357.037 1541.4H356.873C356.701 1542.57 356.545 1543.39 356.318 1544.39ZM371.142 1551H369.751V1541.2H366.806V1540.06H374.087V1541.2H371.142V1551ZM387.074 1551H380.683V1549.9H383.191V1541.16H380.683V1540.06H387.074V1541.16H384.574V1549.9H387.074V1551ZM397.311 1551.16C395.1 1551.16 393.936 1549.65 393.936 1546.78V1544.28C393.936 1541.41 395.1 1539.91 397.311 1539.91C399.522 1539.91 400.686 1541.41 400.686 1544.28V1546.78C400.686 1549.65 399.522 1551.16 397.311 1551.16ZM397.311 1550.08C398.647 1550.08 399.296 1549.07 399.296 1546.97V1544.12C399.296 1542 398.647 1540.98 397.311 1540.98C395.975 1540.98 395.327 1542 395.327 1544.12V1546.97C395.327 1549.07 395.975 1550.08 397.311 1550.08ZM408.892 1551H407.619V1540.06H409.252L411.994 1547.06C412.267 1547.76 412.423 1548.33 412.603 1549.12L412.767 1549.12C412.666 1548.09 412.603 1547.07 412.603 1546.15L412.595 1540.06H413.869V1551H412.275L409.572 1544.09C409.291 1543.37 409.103 1542.77 408.892 1541.9L408.736 1541.91C408.83 1542.91 408.884 1544 408.884 1544.91L408.892 1551Z" fill="#FBF7EE" fill-opacity="0.42"/>
<rect width="347.18" height="468" transform="translate(136.4 634)" fill="#FCFBFB"/>
<path d="M314.926 727.223C315.238 727.227 316.714 728.487 318.204 730.023C319.691 731.555 320.909 733.001 320.914 733.238C320.913 733.474 320.348 734.947 319.658 736.51C318.966 738.076 316.717 742.506 314.659 746.358C312.601 750.209 310.245 754.605 309.421 756.125C308.596 757.646 305.941 762.524 303.521 766.965C301.101 771.407 297.315 778.389 295.11 782.481C292.905 786.572 289.959 792.024 288.563 794.596C287.168 797.167 285.569 800.131 285.01 801.184C284.449 802.237 280.424 809.794 276.064 817.976C268.139 832.851 268.137 832.854 268.344 834.979C268.588 837.496 267.099 840.86 270.595 842.719C274.093 844.57 286.428 823.162 289.787 821.496C294.895 818.963 296.369 817.394 300.819 813.605C302.773 811.942 306.306 808.726 308.671 806.46C311.036 804.194 314.991 800.051 317.459 797.255C319.926 794.459 322.787 790.902 323.815 789.35C324.843 787.798 325.853 786.525 326.059 786.52C327.601 786.483 331.589 788.163 332.679 789.402C332.875 789.629 332.632 790.766 332.087 792.168C331.576 793.481 330.244 795.853 329.128 797.439C328.012 799.025 325.922 802.331 324.484 804.785C323.046 807.24 320.389 812.119 318.58 815.626C316.77 819.134 313.463 826.041 311.229 830.976C308.995 835.91 306.393 842.031 305.445 844.577C304.498 847.123 303.317 850.548 302.822 852.185C302.327 853.821 301.683 856.067 301.39 857.178C301.098 858.288 301.004 859.197 301.179 859.197C301.359 859.191 302.374 857.93 303.438 856.391C304.505 854.847 306.396 851.738 307.638 849.483C308.874 847.238 309.917 845.353 309.967 845.277C310.014 845.224 311.529 845.746 313.339 846.441C315.149 847.137 316.696 847.781 316.782 847.873C316.858 847.97 316.497 849.331 315.976 850.904C315.454 852.482 314.412 854.924 313.66 856.332C312.907 857.74 311.083 860.731 309.605 862.978C308.128 865.224 305.967 868.073 304.806 869.312C303.646 870.548 302.103 871.848 301.375 872.194C300.129 872.786 299.85 872.745 296.602 871.523C294.68 870.798 292.866 869.834 292.499 869.339C292.062 868.749 291.845 867.73 291.845 866.271C291.845 865.07 292.093 862.746 292.394 861.109C292.696 859.473 293.517 856.317 294.219 854.097C295.883 848.83 297.624 843.607 299.553 838.455C300.454 836.049 302.377 831.292 303.826 827.884C305.27 824.489 306.378 821.622 306.296 821.496C306.203 821.392 304.074 822.871 301.565 824.783C293.499 830.93 276.602 857.202 268.344 854.108C265.337 852.981 262.65 850.526 262.183 846.441C255.975 846.502 243.201 883.559 241.529 889.177C240.38 893.039 223.645 942.583 222.618 946.326C221.592 950.068 220.175 955.709 219.47 958.866C218.764 962.023 217.98 966.138 217.725 968.008C217.472 969.871 217.231 971.436 217.19 971.494C217.143 971.542 215.466 971.302 213.459 970.959C211.453 970.616 209.675 970.431 209.498 970.545C209.33 970.661 207.994 969.499 206.533 967.961C204.315 965.627 203.878 964.942 203.881 963.822C203.883 963.084 204.124 961.453 204.418 960.195C204.712 958.94 205.665 955.976 206.535 953.608C213.375 935.01 217.723 922.131 227.884 896.785C231.694 887.281 236.296 877.978 239.406 868.135C240.071 866.03 242.184 859.719 244.102 854.108C246.022 848.498 248.249 842.088 249.052 839.866C249.854 837.645 251.863 832.289 253.516 827.965C255.17 823.64 257.887 816.668 259.554 812.471C261.215 808.287 262.575 804.801 262.583 804.711C262.586 804.642 262.761 804.585 262.975 804.585C263.195 804.587 264.876 805.183 266.713 805.912C269.855 807.16 270.062 807.316 270.062 808.44C270.063 809.097 270.217 809.746 270.407 809.881C270.602 810.006 272.259 807.293 274.09 803.847C275.923 800.395 278.656 795.275 280.161 792.47C281.667 789.664 285.25 783.064 288.126 777.804C291.001 772.545 294.012 766.999 294.817 765.478C295.621 763.958 297.281 760.897 298.506 758.676C299.73 756.455 301.417 753.331 302.256 751.734C303.091 750.142 303.698 748.748 303.605 748.632C303.509 748.522 303.198 748.682 302.915 748.984C302.631 749.289 301.391 750.49 300.16 751.655C298.928 752.821 297.734 753.971 297.508 754.208C297.28 754.445 295.437 756.264 293.415 758.251C291.392 760.238 288.129 763.466 286.163 765.425C284.197 767.383 281.998 769.583 281.278 770.316C280.558 771.048 278.119 773.464 275.857 775.683C273.596 777.902 270.303 781.153 268.541 782.906C266.779 784.66 263.917 787.463 262.183 789.139C260.45 790.814 257.321 793.781 255.232 795.73C253.144 797.678 249.779 800.724 247.755 802.499C245.73 804.274 242.728 806.787 241.083 808.082C239.438 809.377 237.072 811.015 235.825 811.726C234.578 812.436 232.961 813.145 232.231 813.301C230.986 813.566 230.725 813.401 227.884 810.535C225.862 808.497 224.784 807.081 224.624 806.256C224.487 805.548 224.652 803.98 225.012 802.572C225.356 801.224 226.408 798.208 227.349 795.871C228.29 793.533 230.148 789.325 231.478 786.52C232.808 783.714 235.999 777.21 238.567 772.066C241.135 766.923 243.78 761.662 244.445 760.375C245.11 759.089 246.333 756.697 247.164 755.059C247.995 753.42 249.215 750.964 249.873 749.601C250.813 747.653 250.919 747.217 250.375 747.561C249.994 747.802 248.816 748.727 247.759 749.617C246.7 750.508 241.501 754.966 236.207 759.524C230.912 764.084 226.141 768.191 225.604 768.649C225.065 769.111 220.589 773.012 215.655 777.321C210.72 781.632 205.588 786.144 204.251 787.35C202.914 788.555 198.053 792.975 193.448 797.17C188.844 801.365 184.553 805.267 183.913 805.842C183.273 806.416 181.403 808.26 179.758 809.941C176.766 812.999 176.764 813 174.056 810.176C171.347 807.349 171.346 807.348 173.87 804.373C175.258 802.737 176.989 800.807 177.718 800.085C178.446 799.363 180.13 797.737 181.46 796.472C182.789 795.206 184.717 793.405 185.744 792.47C186.769 791.536 187.946 790.457 188.358 790.069C188.769 789.683 190.453 788.161 192.098 786.69C193.744 785.218 197.11 782.195 199.578 779.974C202.045 777.752 204.99 775.118 206.121 774.118C207.252 773.119 211.205 769.659 214.907 766.431C218.608 763.203 222.079 760.186 222.618 759.725C223.16 759.261 227.934 755.156 233.227 750.6C238.524 746.041 245.149 740.387 247.952 738.036C250.754 735.686 254.203 732.864 255.615 731.766C257.027 730.668 258.548 729.77 258.996 729.77C259.476 729.772 260.923 730.928 262.523 732.588C265.053 735.213 265.221 735.494 264.985 736.731C264.846 737.461 264.082 739.53 263.29 741.327C262.496 743.127 258.541 751.161 254.499 759.181C250.456 767.202 245.311 777.496 243.067 782.056C240.823 786.615 237.978 792.709 236.745 795.598C235.513 798.483 234.554 801.016 234.613 801.23C234.678 801.435 236.075 800.605 237.719 799.38C239.365 798.152 242.815 795.282 245.385 793.003C247.954 790.725 250.922 788.046 251.98 787.052C253.038 786.057 254.806 784.409 255.907 783.39C257.008 782.371 258.75 780.716 259.778 779.711C260.806 778.706 263.013 776.553 264.681 774.928C266.349 773.303 268.046 771.61 268.453 771.168C268.86 770.726 270.766 768.835 272.688 766.965C274.611 765.095 276.455 763.277 276.784 762.926C277.113 762.575 278.047 761.641 278.862 760.85C279.677 760.058 281.348 758.432 282.573 757.236C283.799 756.04 286.407 753.437 288.368 751.45C290.329 749.464 292.922 746.881 294.13 745.711C295.337 744.542 297.039 742.914 297.91 742.096C298.782 741.277 301.917 738.298 304.876 735.477C307.835 732.656 311.181 729.646 312.309 728.784C313.436 727.925 314.612 727.222 314.926 727.223ZM360.039 799.233C363.497 795.817 363.5 795.818 366.394 797.315C367.988 798.138 369.524 799.072 369.807 799.39C370.24 799.879 370.153 800.35 369.226 802.451C368.624 803.818 365.969 808.856 363.327 813.649C360.686 818.441 358.234 822.936 357.88 823.638C357.524 824.34 356.459 826.335 355.511 828.071C354.563 829.807 353.863 831.311 353.951 831.417C354.058 831.499 356.294 829.04 358.933 825.936C363.753 820.269 363.753 820.269 367.084 821.999C369.681 823.348 370.44 823.939 370.539 824.689C370.656 825.589 370.786 825.634 372.595 825.355C373.658 825.191 376.519 824.895 378.955 824.697C382.777 824.387 383.58 824.187 384.836 823.243C385.634 822.643 386.44 822.152 386.627 822.15C386.814 822.152 387.9 822.638 389.042 823.232C390.742 824.116 391.246 824.223 391.8 823.807C392.172 823.526 394.18 821.174 396.262 818.579C398.345 815.985 401.73 811.558 403.79 808.744C405.848 805.933 407.806 803.377 408.144 803.058C408.665 802.566 409.19 802.708 411.831 804.068C413.524 804.939 415.143 805.904 415.429 806.214C415.867 806.691 415.703 807.547 414.356 811.807C413.482 814.573 412.03 819.228 411.132 822.15C410.233 825.071 409.498 827.705 409.495 828.006C409.491 828.415 409.769 828.383 410.638 827.873C411.737 827.227 411.905 827.253 414.539 828.499C416.355 829.359 417.923 829.802 419.153 829.802C420.181 829.801 423.681 829.21 426.936 828.487C430.193 827.764 434.374 827.074 436.225 826.951C439.56 826.731 439.621 826.745 442.948 828.496C444.795 829.468 446.687 830.671 447.155 831.169C447.621 831.667 448.002 832.376 448.001 832.744C447.999 833.114 447.593 834.397 447.103 835.595C446.612 836.793 446.036 837.897 445.82 838.049C445.604 838.198 444.163 837.608 442.617 836.738C439.802 835.155 439.799 835.156 437.079 835.641C435.581 835.908 432.504 836.527 430.241 837.019C427.98 837.509 424.783 837.944 423.137 837.985C420.59 838.049 419.821 837.889 417.951 836.907C416.753 836.278 415.702 835.761 415.603 835.753C415.519 835.753 413.759 837.571 411.694 839.791C409.633 842.01 407.559 843.938 407.083 844.075C406.496 844.243 405.151 843.708 402.855 842.398C401.006 841.341 399.385 840.163 399.254 839.779C399.124 839.397 399.022 838.478 399.024 837.737C399.028 836.996 399.509 834.334 400.095 831.821C400.678 829.316 401.09 827.267 401.016 827.253C400.914 827.278 399.095 829.16 396.951 831.456C394.793 833.769 392.409 835.996 391.653 836.403C390.28 837.144 390.278 837.143 386.516 835.041C382.754 832.939 382.754 832.939 378.455 833.464C376.09 833.753 373.313 834.002 372.285 834.018C371.036 834.036 369.751 833.692 368.414 832.985C367.317 832.404 366.199 831.929 365.931 831.928C365.658 831.938 362.028 836.094 357.858 841.173C353.684 846.258 348.49 852.483 346.318 855.005C344.147 857.526 341.73 860.092 340.946 860.71C339.522 861.833 339.521 861.833 336.179 859.971C333.386 858.415 332.837 857.944 332.836 857.11C332.836 856.561 333.509 854.622 334.332 852.806C335.153 850.993 335.824 849.374 335.826 849.206C335.831 849.035 336.613 847.332 337.566 845.414C338.523 843.491 340.093 840.386 341.055 838.516C342.018 836.645 343.786 833.202 344.985 830.864C346.186 828.527 347.572 825.879 348.067 824.981C348.562 824.085 348.883 823.255 348.782 823.133C348.675 823.018 346.265 825.013 343.426 827.566C340.583 830.122 336.302 833.876 333.911 835.908C330.157 839.099 329.475 839.868 328.915 841.536C328.558 842.598 328.037 843.565 327.759 843.688C327.479 843.808 325.479 842.946 323.313 841.771C321.15 840.596 319.38 839.446 319.375 839.215C319.375 838.986 319.694 837.97 320.083 836.958C320.472 835.946 321.102 834.825 321.484 834.468C321.867 834.11 325.377 831.063 329.284 827.697C333.191 824.331 338.07 820.043 340.127 818.17C342.183 816.297 346.728 812.04 350.222 808.709C353.719 805.378 358.136 801.113 360.039 799.233ZM436.086 803.415C436.576 803.274 437.725 803.488 438.655 803.897C439.581 804.302 441.071 804.971 441.967 805.381C443.528 806.095 443.588 806.187 443.387 807.594C443.271 808.401 442.913 809.52 442.591 810.08C442.201 810.758 441.647 811.098 440.94 811.098C440.355 811.097 438.637 810.515 437.119 809.804C435.605 809.093 434.229 808.358 434.061 808.17C433.896 807.983 434.083 806.894 434.478 805.751C434.987 804.278 435.456 803.597 436.086 803.415ZM383.728 801.32C384.113 801.321 385.871 802.132 387.636 803.124C390.704 804.851 390.839 804.985 390.637 806.137C390.522 806.8 390.076 807.902 389.65 808.583C389.224 809.264 388.532 809.819 388.115 809.82C387.697 809.82 385.941 808.944 384.215 807.873C382.489 806.804 381.077 805.743 381.072 805.514C381.074 805.287 381.345 804.49 381.679 803.743C382.012 802.996 382.454 802.144 382.659 801.851C382.864 801.559 383.345 801.321 383.728 801.32ZM313.251 695.501C313.463 695.571 315.029 696.181 316.736 696.86C319.772 698.068 319.842 698.128 319.637 699.302C319.52 699.963 319.162 701.111 318.84 701.852C318.466 702.708 316.186 704.985 312.592 708.088C309.478 710.777 304.985 714.806 302.61 717.042C300.235 719.277 297.507 722.102 296.548 723.318C294.805 725.527 294.803 725.526 291.561 724.192C288.32 722.859 288.319 722.858 288.569 721.319C288.708 720.472 289.257 718.867 289.788 717.754C290.394 716.482 291.998 714.505 294.103 712.44C295.947 710.631 300.926 706.052 305.166 702.265C309.405 698.478 313.044 695.435 313.251 695.501Z" fill="#131316"/>
<rect x="263.41" y="1024" width="93.16" height="1" fill="#5A0816"/>
<path d="M262.089 1060H260.872V1050.43H263.565C265.377 1050.43 266.354 1051.26 266.354 1052.79V1052.99C266.354 1054.17 265.664 1054.91 264.413 1055.05V1055.19C265.124 1055.39 265.425 1055.73 265.719 1056.88L266.013 1058.02C266.307 1059.17 266.546 1059.61 266.895 1059.85L266.881 1060H265.418C265.179 1059.6 265.028 1059.12 264.775 1058.02L264.522 1056.93C264.263 1055.83 263.976 1055.52 263.107 1055.52H262.089V1060ZM262.089 1051.39V1054.59H263.422C264.577 1054.59 265.124 1054.11 265.124 1053.12V1052.86C265.124 1051.85 264.577 1051.39 263.422 1051.39H262.089ZM277.753 1060H272.523V1050.43H277.637V1051.44H273.733V1054.46H277.096V1055.41H273.733V1058.99H277.753V1060ZM287.175 1060H285.972V1056.92L283.443 1050.43H284.735L285.924 1053.79C286.129 1054.37 286.328 1054.98 286.54 1055.69H286.67C286.888 1054.98 287.087 1054.37 287.292 1053.8L288.474 1050.43H289.705L287.175 1056.92V1060ZM296.824 1060H295.614V1050.43H296.824V1053.08C296.824 1053.8 296.789 1054.31 296.68 1054.95L296.796 1054.99L299.831 1050.43H301.137L298.649 1054.09L301.212 1060H299.879L297.829 1055.08L296.824 1056.47V1060ZM309.487 1060.15C307.737 1060.15 306.793 1059.15 306.704 1057.05L307.942 1056.81C307.948 1058.54 308.454 1059.21 309.5 1059.21C310.437 1059.21 310.908 1058.69 310.908 1057.54V1051.41H307.326V1050.43H312.118V1057.66C312.118 1059.26 311.182 1060.15 309.487 1060.15ZM318.998 1060H317.822L320.16 1050.43H321.787L324.166 1060H322.915L322.382 1057.93H319.524L318.998 1060ZM320.386 1054.22L319.723 1057.04H322.19L321.534 1054.22C321.336 1053.34 321.186 1052.62 321.015 1051.6H320.871C320.721 1052.62 320.584 1053.34 320.386 1054.22ZM333.254 1060H331.688L329.282 1050.43H330.56L331.934 1056.34C332.153 1057.27 332.297 1057.96 332.433 1058.68H332.577C332.714 1057.96 332.871 1057.27 333.076 1056.34L334.416 1050.43H335.653L333.254 1060ZM344.508 1049.75H343.476L344.515 1048.19H346.019L344.508 1049.75ZM346.737 1060H341.145V1059.04H343.339V1051.39H341.145V1050.43H346.737V1051.39H344.549V1059.04H346.737V1060ZM354.191 1060H352.981V1050.43H354.191V1053.08C354.191 1053.8 354.157 1054.31 354.047 1054.95L354.163 1054.99L357.199 1050.43H358.504L356.016 1054.09L358.579 1060H357.246L355.196 1055.08L354.191 1056.47V1060Z" fill="#131316" fill-opacity="0.6"/>
<rect x="149.4" y="647" width="321.18" height="442" stroke="#131316" stroke-opacity="0.28" stroke-width="2" stroke-dasharray="6 4"/>
</g>
<defs>
<filter id="filter0_i_49_27059" x="0" y="44" width="620" height="1550" filterUnits="userSpaceOnUse" color-interpolation-filters="sRGB">
<feFlood flood-opacity="0" result="BackgroundImageFix"/>
<feBlend mode="normal" in="SourceGraphic" in2="BackgroundImageFix" result="shape"/>
<feColorMatrix in="SourceAlpha" type="matrix" values="0 0 0 0 0 0 0 0 0 0 0 0 0 0 0 0 0 0 127 0" result="hardAlpha"/>
<feMorphology radius="1" operator="erode" in="SourceAlpha" result="effect1_innerShadow_49_27059"/>
<feOffset/>
<feComposite in2="hardAlpha" operator="arithmetic" k2="-1" k3="1"/>
<feColorMatrix type="matrix" values="0 0 0 0 0.984314 0 0 0 0 0.968627 0 0 0 0 0.933333 0 0 0 0.1 0"/>
<feBlend mode="normal" in2="shape" result="effect1_innerShadow_49_27059"/>
</filter>
<filter id="filter1_i_49_27059" x="274" y="80" width="72" height="8" filterUnits="userSpaceOnUse" color-interpolation-filters="sRGB">
<feFlood flood-opacity="0" result="BackgroundImageFix"/>
<feBlend mode="normal" in="SourceGraphic" in2="BackgroundImageFix" result="shape"/>
<feColorMatrix in="SourceAlpha" type="matrix" values="0 0 0 0 0 0 0 0 0 0 0 0 0 0 0 0 0 0 127 0" result="hardAlpha"/>
<feMorphology radius="1" operator="erode" in="SourceAlpha" result="effect1_innerShadow_49_27059"/>
<feOffset/>
<feComposite in2="hardAlpha" operator="arithmetic" k2="-1" k3="1"/>
<feColorMatrix type="matrix" values="0 0 0 0 0.984314 0 0 0 0 0.968627 0 0 0 0 0.933333 0 0 0 0.25 0"/>
<feBlend mode="normal" in2="shape" result="effect1_innerShadow_49_27059"/>
</filter>
<filter id="filter2_i_49_27059" x="305" y="108" width="10" height="1422" filterUnits="userSpaceOnUse" color-interpolation-filters="sRGB">
<feFlood flood-opacity="0" result="BackgroundImageFix"/>
<feBlend mode="normal" in="SourceGraphic" in2="BackgroundImageFix" result="shape"/>
<feColorMatrix in="SourceAlpha" type="matrix" values="0 0 0 0 0 0 0 0 0 0 0 0 0 0 0 0 0 0 127 0" result="hardAlpha"/>
<feMorphology radius="1" operator="erode" in="SourceAlpha" result="effect1_innerShadow_49_27059"/>
<feOffset/>
<feComposite in2="hardAlpha" operator="arithmetic" k2="-1" k3="1"/>
<feColorMatrix type="matrix" values="0 0 0 0 0.984314 0 0 0 0 0.968627 0 0 0 0 0.933333 0 0 0 0.2 0"/>
<feBlend mode="normal" in2="shape" result="effect1_innerShadow_49_27059"/>
</filter>
<linearGradient id="paint0_linear_49_27059" x1="310" y1="1550" x2="310" y2="0" gradientUnits="userSpaceOnUse">
<stop stop-opacity="0"/>
<stop offset="0.00387097" stop-opacity="0"/>
<stop offset="0.00387097" stop-color="white" stop-opacity="0.016"/>
<stop offset="0.00516129" stop-color="white" stop-opacity="0.016"/>
</linearGradient>
<radialGradient id="paint1_radial_49_27059" cx="0" cy="0" r="1" gradientUnits="userSpaceOnUse" gradientTransform="translate(310) scale(496 465)">
<stop stop-opacity="0.18"/>
<stop offset="0.6" stop-opacity="0"/>
</radialGradient>
<linearGradient id="paint2_linear_49_27059" x1="305" y1="819" x2="315" y2="819" gradientUnits="userSpaceOnUse">
<stop stop-opacity="0.4"/>
<stop offset="0.5" stop-opacity="0.5"/>
<stop offset="1" stop-opacity="0.4"/>
</linearGradient>
<linearGradient id="paint3_linear_49_27059" x1="310" y1="1530" x2="310" y2="108" gradientUnits="userSpaceOnUse">
<stop stop-color="#FBF7EE" stop-opacity="0.45"/>
<stop offset="0.00140647" stop-color="#FBF7EE" stop-opacity="0.45"/>
<stop offset="0.00140647" stop-color="#FBF7EE" stop-opacity="0"/>
<stop offset="0.00421941" stop-color="#FBF7EE" stop-opacity="0"/>
</linearGradient>
<linearGradient id="paint4_linear_49_27059" x1="310" y1="478" x2="310" y2="506" gradientUnits="userSpaceOnUse">
<stop stop-color="#F1DDC8"/>
<stop offset="1" stop-color="#C4A87E"/>
</linearGradient>
<clipPath id="clip0_49_27059">
<rect width="620" height="1594" fill="white"/>
</clipPath>
<clipPath id="clip1_49_27059">
<rect x="305" y="108" width="10" height="1422" rx="2" fill="white"/>
</clipPath>
</defs>
</svg>
