<svg width="198" height="269" viewBox="0 0 198 269" fill="none" xmlns="http://www.w3.org/2000/svg">
<path d="M187.199 0C191.617 2.06162e-06 195.199 3.58172 195.199 8V184C195.199 188.418 191.617 192 187.199 192H11.1992C6.78094 192 3.19922 188.418 3.19922 184V8C3.19922 3.58172 6.78094 1.28851e-07 11.1992 0H187.199ZM122.043 110.572C116.317 105.667 107.884 105.679 102.171 110.6L62.8652 144.458L74.5137 144.473L102.176 168.302C107.889 173.223 116.322 173.234 122.048 168.329L149.788 144.565L161.74 144.58L151.361 135.688C151.269 135.603 151.173 135.521 151.074 135.442L122.043 110.572ZM46.1426 75.0293L20.543 97.0215C13.4309 103.131 13.4155 114.165 20.5107 120.295L46.0312 142.341L46.0176 150.611L81.1113 120.295C88.2066 114.165 88.1912 103.131 81.0791 97.0215L46.1562 67.0195L46.1426 75.0293ZM117.917 71.7041C110.822 77.8335 110.836 88.8676 117.948 94.9775L152.872 124.979L152.886 116.429L177.855 94.9775C184.967 88.8676 184.983 77.8336 177.888 71.7041L152.996 50.2012L153.011 41.3877L117.917 71.7041ZM96.8691 23.6982C91.1565 18.7772 82.7233 18.7658 76.9971 23.6709L49.2568 47.4346L37.2959 47.4199L76.9932 81.4268C82.7194 86.3321 91.1524 86.3205 96.8652 81.3994L136.17 47.542L124.531 47.5273L96.8691 23.6982Z" fill="currentColor"/>
<path d="M20.8398 268H8.16406L0 207.844H10.5273L13.2773 236.504C13.707 241.273 13.9648 245.699 14.2227 253.562H15.168C15.4258 245.699 15.6836 241.273 16.1133 236.504L18.8203 207.844H28.6602L20.8398 268ZM43.7422 268.902C34.5039 268.902 30.0352 264.047 30.0352 254.121V221.766C30.0352 211.797 34.5039 206.941 43.7422 206.941C52.9805 206.941 57.4492 211.797 57.4492 221.766V254.121C57.4492 264.047 52.9805 268.902 43.7422 268.902ZM43.7422 261.125C46.1914 261.125 47.3945 259.277 47.3945 255.539V220.562C47.3945 216.609 46.1914 214.719 43.7422 214.719C41.293 214.719 40.0898 216.609 40.0898 220.562V255.539C40.0898 259.277 41.293 261.125 43.7422 261.125ZM77.2578 268H67.2461V247.891L58.0938 207.844H68.2773L70.7695 223.312C71.2852 226.449 71.6719 230.875 71.9727 235.215H72.875C73.1758 230.875 73.5195 226.492 74.0352 223.312L76.3125 207.844H86.4102L77.2578 247.891V268ZM93.8008 268H84.1328L92.0391 207.844H105.145L113.309 268H102.867L102.051 259.32H94.6602L93.8008 268ZM96.8945 237.922L95.4766 252.359H101.234L99.8164 237.922C99.3867 233.41 99.043 228.855 98.8281 221.336H97.8828C97.668 228.855 97.3242 233.41 96.8945 237.922ZM124.695 268.516C117.949 268.516 114.684 263.832 114.684 254.207V221.68C114.684 211.797 119.023 206.941 128.219 206.941C136.941 206.941 141.496 211.066 141.496 220.434V227.781L131.699 229.328V220.777C131.699 215.965 130.496 214.547 128.348 214.547C125.898 214.547 124.738 216.438 124.738 220.434V254.98C124.738 258.977 125.812 260.91 128.047 260.91C130.453 260.91 132.215 258.16 132.516 243.121H127.918V235.559H141.668V268H133.719C133.633 265.895 133.977 263.402 135.094 259.234L134.191 258.977C132.172 265.594 129.594 268.516 124.695 268.516ZM166.547 268H145.363V207.844H165.988V216.008H155.375V232.723H164.914V240.156H155.375V259.836H166.547V268ZM179.609 268H169.598V207.844H183.348C191.555 207.844 195.723 211.969 195.723 220.133V225.676C195.723 231.562 193.359 235.129 188.891 236.289V236.977C192.801 238.051 194.047 239.898 194.605 247.762L195.164 255.582C195.723 263.402 196.281 265.766 197.484 267.055L197.312 268H186.57C185.883 265.508 185.539 262.93 185.195 255.797L184.852 248.664C184.508 241.574 183.734 240.457 181.156 240.457H179.609V268ZM179.609 215.664V232.809H182.316C184.723 232.809 185.711 231.648 185.711 228.598V219.918C185.711 216.781 184.723 215.664 182.316 215.664H179.609Z" fill="currentColor"/>
</svg>
