<svg width="672" height="192" viewBox="0 0 672 192" fill="none" xmlns="http://www.w3.org/2000/svg">
<path d="M184 0C188.418 2.06162e-06 192 3.58172 192 8V184C192 188.418 188.418 192 184 192H8C3.58172 192 1.28856e-07 188.418 0 184V8C2.06169e-06 3.58172 3.58172 1.28851e-07 8 0H184ZM118.844 110.572C113.118 105.667 104.684 105.679 98.9717 110.6L59.666 144.458L71.3145 144.473L98.9766 168.302C104.689 173.223 113.123 173.234 118.849 168.329L146.589 144.565L158.541 144.58L148.162 135.688C148.069 135.603 147.974 135.521 147.875 135.442L118.844 110.572ZM42.9434 75.0293L17.3438 97.0215C10.2317 103.131 10.2163 114.165 17.3115 120.295L42.832 142.341L42.8184 150.611L77.9121 120.295C85.0074 114.165 84.9919 103.131 77.8799 97.0215L42.957 67.0195L42.9434 75.0293ZM114.718 71.7041C107.622 77.8335 107.637 88.8676 114.749 94.9775L149.673 124.979L149.687 116.429L174.656 94.9775C181.768 88.8676 181.784 77.8336 174.688 71.7041L149.797 50.2012L149.812 41.3877L114.718 71.7041ZM93.6699 23.6982C87.9572 18.7772 79.5241 18.7658 73.7979 23.6709L46.0576 47.4346L34.0967 47.4199L73.7939 81.4268C79.5202 86.3321 87.9532 86.3205 93.666 81.3994L132.971 47.542L121.332 47.5273L93.6699 23.6982Z" fill="currentColor"/>
<path d="M262.125 161.5H234.469L216.656 30.25H239.625L245.625 92.7812C246.562 103.188 247.125 112.844 247.688 130H249.75C250.312 112.844 250.875 103.188 251.812 92.7812L257.719 30.25H279.188L262.125 161.5ZM315.934 163.469C295.777 163.469 286.027 152.875 286.027 131.219V60.625C286.027 38.875 295.777 28.2812 315.934 28.2812C336.09 28.2812 345.84 38.875 345.84 60.625V131.219C345.84 152.875 336.09 163.469 315.934 163.469ZM315.934 146.5C321.277 146.5 323.902 142.469 323.902 134.312V58C323.902 49.375 321.277 45.25 315.934 45.25C310.59 45.25 307.965 49.375 307.965 58V134.312C307.965 142.469 310.59 146.5 315.934 146.5ZM392.899 161.5H371.055V117.625L351.086 30.25H373.305L378.742 64C379.867 70.8438 380.711 80.5 381.367 89.9688H383.336C383.992 80.5 384.742 70.9375 385.867 64L390.836 30.25H412.867L392.899 117.625V161.5ZM432.833 161.5H411.739L428.989 30.25H457.583L475.395 161.5H452.614L450.833 142.562H434.708L432.833 161.5ZM439.583 95.875L436.489 127.375H449.051L445.958 95.875C445.02 86.0312 444.27 76.0938 443.801 59.6875H441.739C441.27 76.0938 440.52 86.0312 439.583 95.875ZM504.079 162.625C489.36 162.625 482.235 152.406 482.235 131.406V60.4375C482.235 38.875 491.704 28.2812 511.766 28.2812C530.797 28.2812 540.735 37.2812 540.735 57.7188V73.75L519.36 77.125V58.4688C519.36 47.9688 516.735 44.875 512.047 44.875C506.704 44.875 504.172 49 504.172 57.7188V133.094C504.172 141.812 506.516 146.031 511.391 146.031C516.641 146.031 520.485 140.031 521.141 107.219H511.11V90.7188H541.11V161.5H523.766C523.579 156.906 524.329 151.469 526.766 142.375L524.797 141.812C520.391 156.25 514.766 162.625 504.079 162.625ZM599.231 161.5H553.013V30.25H598.013V48.0625H574.856V84.5312H595.669V100.75H574.856V143.688H599.231V161.5ZM631.571 161.5H609.728V30.25H639.728C657.634 30.25 666.728 39.25 666.728 57.0625V69.1562C666.728 82 661.571 89.7812 651.821 92.3125V93.8125C660.353 96.1562 663.071 100.188 664.29 117.344L665.509 134.406C666.728 151.469 667.946 156.625 670.571 159.438L670.196 161.5H646.759C645.259 156.062 644.509 150.438 643.759 134.875L643.009 119.312C642.259 103.844 640.571 101.406 634.946 101.406H631.571V161.5ZM631.571 47.3125V84.7188H637.478C642.728 84.7188 644.884 82.1875 644.884 75.5312V56.5938C644.884 49.75 642.728 47.3125 637.478 47.3125H631.571Z" fill="currentColor"/>
</svg>
