<svg width="192" height="192" viewBox="0 0 192 192" fill="none" xmlns="http://www.w3.org/2000/svg">
<path d="M38.923 39.7666L25.2528 39.7496L70.6213 79.1261C77.1656 84.806 86.8033 84.7926 93.3322 79.0945L138.252 39.8902L124.95 39.8737L93.3367 12.2826C86.8078 6.58447 77.17 6.57105 70.6258 12.251L38.923 39.7666Z" fill="currentColor"/>
<path d="M35.3793 62.4436L75.2915 97.1829C83.4196 104.258 83.4369 117.034 75.3279 124.131L35.2208 159.234L35.2365 149.658L6.07076 124.131C-2.03824 117.034 -2.021 104.258 6.1071 97.1829L35.3641 71.7178L35.3793 62.4436Z" fill="currentColor"/>
<path d="M54.4755 152.11L99.3957 112.905C105.925 107.207 115.562 107.194 122.107 112.874L155.285 141.67C155.398 141.761 155.508 141.856 155.614 141.956L167.475 152.25L153.816 152.233L122.112 179.749C115.568 185.429 105.93 185.416 99.4015 179.717L67.7874 152.126L54.4755 152.11Z" fill="currentColor"/>
<path d="M157.34 129.556L117.428 94.8163C109.3 87.7416 109.283 74.9656 117.392 67.8683L157.499 32.7652L157.482 42.9702L185.929 67.8683C194.038 74.9656 194.021 87.7416 185.893 94.8163L157.356 119.654L157.34 129.556Z" fill="currentColor"/>
</svg>
