<svg width="456" height="136" viewBox="0 0 456 136" fill="none" xmlns="http://www.w3.org/2000/svg">
<path d="M46.125 133.219H18.4688L0.65625 1.96875H23.625L29.625 64.5C30.5625 74.9062 31.125 84.5625 31.6875 101.719H33.75C34.3125 84.5625 34.875 74.9062 35.8125 64.5L41.7188 1.96875H63.1875L46.125 133.219ZM99.9337 135.188C79.7775 135.188 70.0275 124.594 70.0275 102.938V32.3438C70.0275 10.5938 79.7775 0 99.9337 0C120.09 0 129.84 10.5938 129.84 32.3438V102.938C129.84 124.594 120.09 135.188 99.9337 135.188ZM99.9337 118.219C105.277 118.219 107.902 114.188 107.902 106.031V29.7188C107.902 21.0938 105.277 16.9688 99.9337 16.9688C94.59 16.9688 91.965 21.0938 91.965 29.7188V106.031C91.965 114.188 94.59 118.219 99.9337 118.219ZM176.899 133.219H155.055V89.3438L135.086 1.96875H157.305L162.742 35.7188C163.867 42.5625 164.711 52.2188 165.367 61.6875H167.336C167.992 52.2188 168.742 42.6562 169.867 35.7188L174.836 1.96875H196.867L176.899 89.3438V133.219ZM216.833 133.219H195.739L212.989 1.96875H241.583L259.395 133.219H236.614L234.833 114.281H218.708L216.833 133.219ZM223.583 67.5938L220.489 99.0938H233.051L229.958 67.5938C229.02 57.75 228.27 47.8125 227.801 31.4062H225.739C225.27 47.8125 224.52 57.75 223.583 67.5938ZM288.079 134.344C273.36 134.344 266.235 124.125 266.235 103.125V32.1562C266.235 10.5938 275.704 0 295.766 0C314.797 0 324.735 9 324.735 29.4375V45.4688L303.36 48.8438V30.1875C303.36 19.6875 300.735 16.5938 296.047 16.5938C290.704 16.5938 288.172 20.7188 288.172 29.4375V104.812C288.172 113.531 290.516 117.75 295.391 117.75C300.641 117.75 304.485 111.75 305.141 78.9375H295.11V62.4375H325.11V133.219H307.766C307.579 128.625 308.329 123.188 310.766 114.094L308.797 113.531C304.391 127.969 298.766 134.344 288.079 134.344ZM383.231 133.219H337.013V1.96875H382.013V19.7812H358.856V56.25H379.669V72.4688H358.856V115.406H383.231V133.219ZM415.571 133.219H393.728V1.96875H423.728C441.634 1.96875 450.728 10.9688 450.728 28.7812V40.875C450.728 53.7188 445.571 61.5 435.821 64.0312V65.5312C444.353 67.875 447.071 71.9062 448.29 89.0625L449.509 106.125C450.728 123.188 451.946 128.344 454.571 131.156L454.196 133.219H430.759C429.259 127.781 428.509 122.156 427.759 106.594L427.009 91.0312C426.259 75.5625 424.571 73.125 418.946 73.125H415.571V133.219ZM415.571 19.0312V56.4375H421.478C426.728 56.4375 428.884 53.9062 428.884 47.25V28.3125C428.884 21.4688 426.728 19.0312 421.478 19.0312H415.571Z" fill="currentColor"/>
</svg>
